<svg width="350" height="316" viewBox="0 0 350 316" fill="none" xmlns="http://www.w3.org/2000/svg">
<path d="M0 16C0 7.16345 7.16344 0 16 0H226C234.837 0 242 7.16344 242 16V84C242 92.8366 234.837 100 226 100H16C7.16344 100 0 92.8366 0 84V16Z" fill="#BBE000"/>
<path d="M38.4531 44.5959C38.2656 42.6584 36.6094 41.5334 34.1719 41.5334C31.6094 41.5334 30.0469 42.7834 30.0469 44.4709C30.0469 46.3772 32.0469 47.1584 33.9219 47.5959L36.0469 48.1584C39.4219 48.9397 42.6719 50.7209 42.6719 54.6584C42.6719 58.6272 39.5469 61.3459 34.1094 61.3459C28.8281 61.3459 25.5156 58.8147 25.3281 54.3459H29.3281C29.5156 56.7209 31.5156 57.8772 34.0781 57.8772C36.7656 57.8772 38.6094 56.5647 38.6094 54.6272C38.6094 52.8459 36.9531 52.0959 34.5156 51.4709L31.9531 50.8147C28.2344 49.8459 25.9219 47.9709 25.9219 44.7209C25.9219 40.7209 29.4844 38.0647 34.2344 38.0647C39.0469 38.0647 42.2969 40.7834 42.3594 44.5959H38.4531ZM45.8594 67.3772V44.0334H49.7656V46.8147H50.0156C50.6406 45.5959 51.8906 43.8147 54.8906 43.8147C58.7969 43.8147 61.8906 46.8772 61.8906 52.5334C61.8906 58.1272 58.8906 61.3147 54.8906 61.3147C51.9531 61.3147 50.6406 59.5647 50.0156 58.3147H49.8594V67.3772H45.8594ZM49.7656 52.5022C49.7656 55.8147 51.2031 58.0334 53.7969 58.0334C56.4219 58.0334 57.8281 55.7209 57.8281 52.5022C57.8281 49.3459 56.4531 47.0647 53.7969 47.0647C51.2031 47.0647 49.7656 49.2209 49.7656 52.5022ZM65.0156 61.0022V44.0334H68.8906V46.8459H69.0781C69.6719 44.9084 71.3281 43.7834 73.2656 43.7834C73.7031 43.7834 74.3281 43.8147 74.7031 43.8772V47.5647C74.3594 47.4397 73.5156 47.3147 72.8594 47.3147C70.6406 47.3147 69.0156 48.8459 69.0156 51.0022V61.0022H65.0156ZM77.0781 61.0022V44.0334H81.0781V61.0022H77.0781ZM79.1094 41.6272C77.8594 41.6272 76.7969 40.6584 76.7969 39.4397C76.7969 38.2522 77.8594 37.2834 79.1094 37.2834C80.3906 37.2834 81.4219 38.2522 81.4219 39.4397C81.4219 40.6584 80.3906 41.6272 79.1094 41.6272ZM88.8906 51.0647V61.0022H84.8906V44.0334H88.7031V46.9084H88.9219C89.7031 45.0022 91.4219 43.8147 93.9531 43.8147C97.4844 43.8147 99.7969 46.1272 99.7656 50.1897V61.0022H95.7969V50.8147C95.7969 48.5334 94.5781 47.1897 92.4844 47.1897C90.3594 47.1897 88.8906 48.5959 88.8906 51.0647ZM110.984 67.7209C106.484 67.7209 103.641 65.7209 103.359 62.5334H107.328C107.609 64.0022 109.016 64.7209 111.047 64.7209C113.422 64.7209 114.984 63.6897 114.984 61.1897V57.9397H114.797C114.172 59.1897 112.828 60.7522 109.891 60.7522C105.984 60.7522 102.891 57.9084 102.891 52.3772C102.891 46.7834 105.984 43.8147 109.922 43.8147C112.922 43.8147 114.172 45.5959 114.797 46.8147H114.984V44.0334H118.922V61.2834C118.922 65.6272 115.578 67.7209 110.984 67.7209ZM110.984 57.6272C113.547 57.6272 115.016 55.6897 115.016 52.4397C115.016 49.2209 113.578 47.0647 110.984 47.0647C108.328 47.0647 106.953 49.3459 106.953 52.4397C106.953 55.5647 108.359 57.6272 110.984 57.6272ZM130.516 61.0022V38.3772H139.172C144.078 38.3772 146.516 40.8772 146.516 44.2522C146.516 47.0022 144.766 48.5334 142.547 49.0647V49.2834C144.953 49.4084 147.391 51.4084 147.391 54.8459C147.391 58.3772 144.859 61.0022 139.672 61.0022H130.516ZM139.047 57.5959C142.016 57.5959 143.266 56.3147 143.266 54.5334C143.266 52.5022 141.672 50.9397 139.141 50.9397H134.578V57.5959H139.047ZM138.672 48.0022C140.828 48.0022 142.453 46.7522 142.453 44.7522C142.453 43.0022 141.203 41.7522 138.766 41.7522H134.578V48.0022H138.672ZM150.516 61.0022V44.0334H154.391V46.8459H154.578C155.172 44.9084 156.828 43.7834 158.766 43.7834C159.203 43.7834 159.828 43.8147 160.203 43.8772V47.5647C159.859 47.4397 159.016 47.3147 158.359 47.3147C156.141 47.3147 154.516 48.8459 154.516 51.0022V61.0022H150.516ZM162.578 61.0022V44.0334H166.578V61.0022H162.578ZM164.609 41.6272C163.359 41.6272 162.297 40.6584 162.297 39.4397C162.297 38.2522 163.359 37.2834 164.609 37.2834C165.891 37.2834 166.922 38.2522 166.922 39.4397C166.922 40.6584 165.891 41.6272 164.609 41.6272ZM177.797 67.7209C173.297 67.7209 170.453 65.7209 170.172 62.5334H174.141C174.422 64.0022 175.828 64.7209 177.859 64.7209C180.234 64.7209 181.797 63.6897 181.797 61.1897V57.9397H181.609C180.984 59.1897 179.641 60.7522 176.703 60.7522C172.797 60.7522 169.703 57.9084 169.703 52.3772C169.703 46.7834 172.797 43.8147 176.734 43.8147C179.734 43.8147 180.984 45.5959 181.609 46.8147H181.797V44.0334H185.734V61.2834C185.734 65.6272 182.391 67.7209 177.797 67.7209ZM177.797 57.6272C180.359 57.6272 181.828 55.6897 181.828 52.4397C181.828 49.2209 180.391 47.0647 177.797 47.0647C175.141 47.0647 173.766 49.3459 173.766 52.4397C173.766 55.5647 175.172 57.6272 177.797 57.6272ZM193.547 51.0647V61.0022H189.547V38.3772H193.453V46.9084H193.672C194.453 45.0022 196.078 43.8147 198.703 43.8147C202.234 43.8147 204.547 46.0959 204.547 50.1897V61.0022H200.578V50.8147C200.578 48.5022 199.328 47.1897 197.234 47.1897C195.078 47.1897 193.547 48.5959 193.547 51.0647ZM216.797 44.0334V47.0959H213.453V55.9084C213.453 57.5334 214.266 57.8772 215.266 57.8772C215.734 57.8772 216.516 57.8459 217.016 57.8147V61.0647C216.547 61.1584 215.766 61.2209 214.766 61.2209C211.766 61.2209 209.453 59.7522 209.484 56.5647V47.0959H207.047V44.0334H209.484V39.9709H213.453V44.0334H216.797Z" fill="#FFEA00"/>
<path d="M250 16C250 7.16345 257.163 0 266 0H334C342.837 0 350 7.16344 350 16V84C350 92.8366 342.837 100 334 100H266C257.163 100 250 92.8366 250 84V16Z" fill="#FFEA00"/>
<path d="M301.297 56.501H298.172V69.3955C297.003 66.4939 294.172 64.4229 290.859 64.4229H287.625C287.375 64.4229 287.188 64.626 287.188 64.8604V65.5166C287.188 69.2666 290.234 72.3135 293.844 72.3447L298.344 72.3604C298.397 72.3604 298.448 72.3493 298.495 72.3291H301.297V72.3188C301.353 72.3454 301.416 72.3604 301.484 72.3604H304.719C308.937 72.3604 312.375 69.001 312.594 64.8447C312.609 64.6104 312.422 64.4229 312.203 64.4229L307.703 64.4385C304.705 64.4644 302.095 66.5713 301.297 69.4334V56.501Z" fill="#86D72F"/>
<path d="M307.547 55.0967H291.891V45.6904C291.891 39.8936 294.203 34.3467 298.297 30.2686L298.312 30.2529C299.062 29.5029 300.281 29.5029 301.031 30.2529C305.203 34.3467 307.547 39.9561 307.547 45.7998V55.0967Z" fill="#F70A8D"/>
<path d="M313.5 31.4249C313.5 30.5187 312.922 29.7374 312.203 29.7218C307.094 29.6905 302.703 37.1749 300.766 44.503C300.422 45.7999 299.016 45.7687 298.672 44.4718C296.75 37.1749 292.375 29.7218 287.281 29.7218C286.547 29.7218 285.953 30.4874 285.953 31.4249V41.128L285.938 41.1124C285.938 41.7218 285.969 42.3312 286.016 42.9249C286.141 44.6437 286.469 47.7374 286.984 49.253C289.047 55.6437 293.969 58.6749 299.734 58.6749C305.063 58.6749 309.688 56.2687 311.969 50.628C312.953 48.3468 313.516 44.2843 313.516 41.503L313.5 31.4249Z" fill="#FF6DC6"/>
<circle cx="50" cy="120" r="12" fill="#FFEE40"/>
<circle cx="50" cy="196" r="12" fill="#408BD9"/>
<circle cx="31.0002" cy="125.092" r="12" transform="rotate(-30 31.0002 125.092)" fill="#FFBF40"/>
<circle cx="69.0002" cy="190.91" r="12" transform="rotate(-30 69.0002 190.91)" fill="#409DCB"/>
<circle cx="17.0915" cy="139.001" r="12" transform="rotate(-60 17.0915 139.001)" fill="#FF8040"/>
<circle cx="82.9089" cy="176.999" r="12" transform="rotate(-60 82.9089 176.999)" fill="#40AAC0"/>
<circle cx="12" cy="158.001" r="12" transform="rotate(-90 12 158.001)" fill="#FF4040"/>
<circle cx="88" cy="158.001" r="12" transform="rotate(-90 88 158.001)" fill="#40B2B2"/>
<circle cx="17.091" cy="176.999" r="12" transform="rotate(-120 17.091 176.999)" fill="#F9405F"/>
<circle cx="82.9089" cy="139.001" r="12" transform="rotate(-120 82.9089 139.001)" fill="#40C055"/>
<circle cx="31.0003" cy="190.907" r="12" transform="rotate(-150 31.0003 190.907)" fill="#9640EC"/>
<circle cx="68.9993" cy="125.091" r="12" transform="rotate(-150 68.9993 125.091)" fill="#CCE840"/>
<path d="M108 124C108 115.164 115.163 108 124 108H334C342.837 108 350 115.164 350 124V192C350 200.837 342.837 208 334 208H124C115.163 208 108 200.837 108 192V124Z" fill="#FF8080"/>
<path d="M132.594 142.998L133.031 140.346H130.721L130.283 142.998H129.107L129.545 140.346H128.123L128.301 139.184H129.736L130.105 136.914H128.697L128.875 135.739H130.311L130.734 133.1H131.91L131.486 135.739H133.797L134.221 133.1H135.383L134.959 135.739H136.395L136.203 136.914H134.768L134.398 139.184H135.82L135.615 140.346H134.207L133.77 142.998H132.594ZM130.912 139.184H133.223L133.592 136.914H131.281L130.912 139.184ZM137.516 142.998V133.1H141.139C143.244 133.1 144.27 134.235 144.27 135.698C144.27 136.928 143.518 137.557 142.602 137.789V137.885C143.586 137.94 144.652 138.801 144.652 140.332C144.652 141.85 143.613 142.998 141.303 142.998H137.516ZM141.166 141.713C142.588 141.713 143.162 141.084 143.162 140.264C143.162 139.321 142.41 138.555 141.221 138.555H139.02V141.713H141.166ZM141.016 137.379C142.014 137.379 142.793 136.764 142.793 135.821C142.793 135 142.232 134.385 141.043 134.385H139.02V137.379H141.016ZM146.143 142.998V135.574H147.551V136.75H147.633C147.906 135.957 148.645 135.465 149.52 135.465C149.697 135.465 149.984 135.479 150.135 135.492V136.887C150.012 136.86 149.67 136.805 149.369 136.805C148.357 136.805 147.605 137.502 147.605 138.473V142.998H146.143ZM151.229 142.998V135.574H152.691V142.998H151.229ZM151.967 134.426C151.461 134.426 151.037 134.043 151.037 133.565C151.037 133.086 151.461 132.703 151.967 132.703C152.459 132.703 152.883 133.086 152.883 133.565C152.883 134.043 152.459 134.426 151.967 134.426ZM157.586 145.938C155.713 145.938 154.482 145.104 154.346 143.723H155.836C155.973 144.42 156.629 144.762 157.6 144.762C158.762 144.762 159.5 144.27 159.5 143.108V141.645H159.404C159.145 142.123 158.611 142.889 157.244 142.889C155.494 142.889 154.141 141.576 154.141 139.211C154.141 136.846 155.467 135.479 157.258 135.479C158.639 135.479 159.145 136.313 159.418 136.778H159.514V135.574H160.936V143.162C160.936 145.063 159.5 145.938 157.586 145.938ZM157.572 141.686C158.816 141.686 159.514 140.77 159.514 139.239C159.514 137.735 158.83 136.723 157.572 136.723C156.273 136.723 155.631 137.817 155.631 139.239C155.631 140.688 156.301 141.686 157.572 141.686ZM164.176 138.596V142.998H162.713V133.1H164.148V136.791H164.244C164.6 135.985 165.283 135.479 166.445 135.479C167.977 135.479 168.988 136.422 168.988 138.281V142.998H167.525V138.459C167.525 137.365 166.937 136.737 165.953 136.737C164.928 136.737 164.176 137.406 164.176 138.596ZM174.225 135.574V136.737H172.707V140.811C172.707 141.645 173.131 141.795 173.596 141.809C173.801 141.809 174.129 141.781 174.334 141.768V143.039C174.129 143.067 173.814 143.094 173.418 143.094C172.27 143.094 171.244 142.465 171.258 141.112V136.737H170.164V135.574H171.258V133.797H172.707V135.574H174.225Z" fill="#F7F7F7"/>
<path d="M187.594 142.998L188.031 140.346H185.721L185.283 142.998H184.107L184.545 140.346H183.123L183.301 139.184H184.736L185.105 136.914H183.697L183.875 135.739H185.311L185.734 133.1H186.91L186.486 135.739H188.797L189.221 133.1H190.383L189.959 135.739H191.395L191.203 136.914H189.768L189.398 139.184H190.82L190.615 140.346H189.207L188.77 142.998H187.594ZM185.912 139.184H188.223L188.592 136.914H186.281L185.912 139.184ZM193.391 133.1L196.139 141.153H196.248L198.996 133.1H200.623L197.055 142.998H195.318L191.764 133.1H193.391ZM201.758 142.998V135.574H203.221V142.998H201.758ZM202.496 134.426C201.99 134.426 201.566 134.043 201.566 133.565C201.566 133.086 201.99 132.703 202.496 132.703C202.988 132.703 203.412 133.086 203.412 133.565C203.412 134.043 202.988 134.426 202.496 134.426ZM211.369 135.574L208.676 142.998H207.104L204.41 135.574H205.982L207.855 141.276H207.924L209.797 135.574H211.369ZM212.559 142.998V135.574H214.021V142.998H212.559ZM213.297 134.426C212.791 134.426 212.367 134.043 212.367 133.565C212.367 133.086 212.791 132.703 213.297 132.703C213.789 132.703 214.213 133.086 214.213 133.565C214.213 134.043 213.789 134.426 213.297 134.426ZM218.574 143.149C216.783 143.149 215.471 141.699 215.471 139.307C215.471 136.887 216.797 135.479 218.588 135.479C219.969 135.479 220.475 136.313 220.734 136.778H220.803V133.1H222.266V142.998H220.844V141.836H220.734C220.461 142.328 219.928 143.149 218.574 143.149ZM218.902 141.905C220.146 141.905 220.844 140.838 220.844 139.28C220.844 137.735 220.16 136.723 218.902 136.723C217.604 136.723 216.961 137.817 216.961 139.28C216.961 140.77 217.631 141.905 218.902 141.905Z" fill="#F7F7F7"/>
<path d="M129.094 166.998V157.1H132.566C134.645 157.1 135.615 158.262 135.615 159.725C135.615 160.996 134.863 161.571 134.002 161.803V161.899C134.918 161.953 136.012 162.801 136.012 164.373C136.012 165.864 135.027 166.998 132.689 166.998H129.094ZM132.676 165.905C134.221 165.905 134.822 165.221 134.822 164.36C134.822 163.348 134.016 162.5 132.744 162.5H130.324V165.905H132.676ZM132.525 161.434C133.592 161.434 134.439 160.778 134.439 159.739C134.439 158.877 133.865 158.194 132.566 158.194H130.324V161.434H132.525ZM140.537 169.459C140.086 169.459 139.717 169.117 139.717 168.68C139.717 168.242 140.086 167.901 140.537 167.901C140.988 167.901 141.371 168.242 141.371 168.68C141.371 169.117 140.988 169.459 140.537 169.459ZM137.256 164.893C137.256 163.184 138.76 162.801 140.045 162.705C140.517 162.671 141.72 162.61 142.055 162.596V161.994C142.055 161.051 141.494 160.504 140.373 160.504C139.43 160.504 138.869 160.942 138.705 161.502H137.475C137.625 160.313 138.787 159.479 140.428 159.479C141.398 159.479 143.217 159.766 143.217 162.104V166.998H142.055V165.987H142C141.754 166.492 141.07 167.176 139.785 167.176C138.377 167.176 137.256 166.342 137.256 164.893ZM138.432 164.948C138.432 165.727 139.088 166.123 139.99 166.123C141.316 166.123 142.055 165.235 142.055 164.305V163.553L140.182 163.69C139.115 163.758 138.432 164.141 138.432 164.948ZM146.279 162.541V166.998H145.104V159.574H146.238V160.737H146.334C146.689 159.985 147.373 159.479 148.508 159.479C150.012 159.479 151.01 160.395 151.01 162.281V166.998H149.834V162.364C149.834 161.215 149.205 160.531 148.152 160.531C147.072 160.531 146.279 161.256 146.279 162.541ZM157.586 162.541V166.998H156.41V157.1H157.586V160.737H157.682C158.023 159.971 158.693 159.479 159.869 159.479C161.387 159.479 162.398 160.381 162.398 162.281V166.998H161.223V162.364C161.223 161.201 160.58 160.531 159.514 160.531C158.406 160.531 157.586 161.256 157.586 162.541ZM171.395 159.028C171.395 160.121 171.073 160.921 170.232 161.242C170.526 161.83 170.684 162.528 170.684 163.321C170.684 165.631 169.33 167.149 167.32 167.149C165.297 167.149 163.93 165.631 163.93 163.321C163.93 161.01 165.297 159.479 167.32 159.479C168.318 159.479 169.159 159.855 169.754 160.518C170.246 160.32 170.328 159.766 170.328 159.028H171.395ZM167.32 166.11C168.811 166.11 169.508 164.797 169.508 163.321C169.508 161.844 168.811 160.518 167.32 160.518C165.803 160.518 165.105 161.844 165.105 163.321C165.105 164.797 165.803 166.11 167.32 166.11ZM167.375 169.459C166.924 169.459 166.555 169.117 166.555 168.68C166.555 168.242 166.924 167.901 167.375 167.901C167.826 167.901 168.209 168.242 168.209 168.68C168.209 169.117 167.826 169.459 167.375 169.459ZM172.229 169.787V159.574H173.363V160.75H173.5C173.746 160.354 174.211 159.479 175.646 159.479C177.506 159.479 178.805 160.955 178.805 163.307C178.805 165.658 177.506 167.149 175.66 167.149C174.238 167.149 173.746 166.274 173.5 165.864H173.404V169.787H172.229ZM173.377 163.28C173.377 164.948 174.129 166.096 175.496 166.096C176.904 166.096 177.629 164.865 177.629 163.28C177.629 161.735 176.918 160.531 175.496 160.531C174.102 160.531 173.377 161.639 173.377 163.28ZM189.961 159.574L187.213 166.998H185.996L183.262 159.574H184.547L186.57 165.467H186.652L188.676 159.574H189.961ZM198.096 159.028C198.096 160.121 197.774 160.921 196.934 161.242C197.228 161.83 197.385 162.528 197.385 163.321C197.385 165.631 196.031 167.149 194.021 167.149C191.998 167.149 190.631 165.631 190.631 163.321C190.631 161.01 191.998 159.479 194.021 159.479C195.02 159.479 195.86 159.855 196.455 160.518C196.947 160.32 197.029 159.766 197.029 159.028H198.096ZM194.021 166.11C195.512 166.11 196.209 164.797 196.209 163.321C196.209 161.844 195.512 160.518 194.021 160.518C192.504 160.518 191.807 161.844 191.807 163.321C191.807 164.797 192.504 166.11 194.021 166.11ZM193.502 158.563L194.678 156.321H196.031L194.514 158.563H193.502ZM198.93 166.998V159.574H200.105V166.998H198.93ZM199.518 158.344C199.066 158.344 198.697 158.002 198.697 157.565C198.697 157.127 199.066 156.785 199.518 156.785C199.969 156.785 200.352 157.127 200.352 157.565C200.352 158.002 199.969 158.344 199.518 158.344ZM206.668 162.541V166.998H205.492V159.574H206.627V160.737H206.723C207.078 159.985 207.762 159.479 208.896 159.479C210.4 159.479 211.398 160.395 211.398 162.281V166.998H210.223V162.364C210.223 161.215 209.594 160.531 208.541 160.531C207.461 160.531 206.668 161.256 206.668 162.541ZM214.461 162.541V166.998H213.285V157.1H214.461V160.737H214.557C214.898 159.971 215.568 159.479 216.744 159.479C218.262 159.479 219.273 160.381 219.273 162.281V166.998H218.098V162.364C218.098 161.201 217.455 160.531 216.389 160.531C215.281 160.531 214.461 161.256 214.461 162.541ZM228.898 159.246C228.898 160.62 228.475 161.365 227.012 161.461V166.998H225.85V165.74H225.768C225.412 166.492 224.687 167.094 223.566 167.094C222.158 167.094 221.16 166.178 221.16 164.291V159.574H222.336V164.209C222.336 165.276 223.006 165.959 223.949 165.959C224.783 165.959 225.85 165.33 225.85 163.949V159.574H227.012V160.668C227.866 160.579 227.887 160.135 227.887 159.246H228.898ZM221.707 158.645C221.707 157.647 222.363 156.949 223.184 156.949C223.936 156.949 224.264 157.565 224.947 157.565C225.316 157.565 225.604 157.25 225.604 156.84L226.492 156.908C226.492 157.934 225.836 158.563 225.002 158.563C224.113 158.563 223.977 157.948 223.252 157.948C222.883 157.948 222.623 158.276 222.623 158.686L221.707 158.645ZM230.635 162.541V166.998H229.459V159.574H230.594V160.737H230.689C231.045 159.985 231.729 159.479 232.863 159.479C234.367 159.479 235.365 160.395 235.365 162.281V166.998H234.189V162.364C234.189 161.215 233.561 160.531 232.508 160.531C231.428 160.531 230.635 161.256 230.635 162.541ZM240.26 169.938C238.469 169.938 237.252 169.158 237.115 167.778H238.346C238.51 168.53 239.207 168.912 240.26 168.912C241.531 168.912 242.311 168.365 242.311 167.135V165.631H242.215C241.969 166.041 241.49 166.889 240.055 166.889C238.25 166.889 236.896 165.522 236.896 163.184C236.896 160.901 238.209 159.479 240.068 159.479C241.504 159.479 241.969 160.354 242.242 160.75H242.338V159.574H243.486V167.203C243.486 169.117 242.064 169.938 240.26 169.938ZM240.219 165.836C241.572 165.836 242.338 164.865 242.338 163.225C242.338 161.639 241.6 160.531 240.219 160.531C238.797 160.531 238.086 161.735 238.086 163.225C238.086 164.77 238.811 165.836 240.219 165.836ZM248.873 166.998V159.574H250.008V160.737H250.104C250.418 159.944 251.129 159.479 252.1 159.479C253.07 159.479 253.727 159.944 254.082 160.737H254.164C254.547 159.971 255.326 159.479 256.393 159.479C257.719 159.479 258.662 160.285 258.662 162.035V166.998H257.486V162.049C257.486 160.955 256.789 160.531 255.982 160.531C254.943 160.531 254.355 161.229 254.355 162.172V166.998H253.166V161.926C253.166 161.092 252.564 160.531 251.717 160.531C250.828 160.531 250.049 161.283 250.049 162.364V166.998H248.873ZM262.996 158.563L261.492 156.321H262.859L264.021 158.563H262.996ZM260.193 164.893C260.193 163.184 261.697 162.801 262.982 162.705C263.454 162.671 264.657 162.61 264.992 162.596V161.994C264.992 161.051 264.432 160.504 263.311 160.504C262.367 160.504 261.807 160.942 261.643 161.502H260.412C260.562 160.313 261.725 159.479 263.365 159.479C264.336 159.479 266.154 159.766 266.154 162.104V166.998H264.992V165.987H264.937C264.691 166.492 264.008 167.176 262.723 167.176C261.314 167.176 260.193 166.342 260.193 164.893ZM261.369 164.948C261.369 165.727 262.025 166.123 262.928 166.123C264.254 166.123 264.992 165.235 264.992 164.305V163.553L263.119 163.69C262.053 163.758 261.369 164.141 261.369 164.948ZM272.73 163.949V159.574H273.893V166.998H272.73V165.74H272.648C272.293 166.492 271.568 167.094 270.447 167.094C269.039 167.094 268.041 166.178 268.041 164.291V159.574H269.217V164.209C269.217 165.276 269.887 165.959 270.83 165.959C271.664 165.959 272.73 165.33 272.73 163.949ZM282.328 167.149C280.223 167.149 278.937 165.549 278.937 163.321C278.937 161.065 280.277 159.479 282.301 159.479C283.887 159.479 285.062 160.408 285.254 161.817H284.078C283.914 161.133 283.312 160.518 282.328 160.518C281.002 160.518 280.113 161.612 280.113 163.28C280.113 165.002 280.975 166.096 282.328 166.096C283.203 166.096 283.873 165.631 284.078 164.811H285.254C285.062 166.137 283.982 167.149 282.328 167.149ZM289.738 167.149C287.715 167.149 286.348 165.631 286.348 163.321C286.348 161.01 287.715 159.479 289.738 159.479C291.748 159.479 293.102 161.01 293.102 163.321C293.102 165.631 291.748 167.149 289.738 167.149ZM289.738 166.11C291.228 166.11 291.926 164.797 291.926 163.321C291.926 161.844 291.228 160.518 289.738 160.518C288.221 160.518 287.523 161.844 287.523 163.321C287.523 164.797 288.221 166.11 289.738 166.11ZM289.219 158.563L290.395 156.321H291.748L290.23 158.563H289.219ZM300.963 167.149C299.117 167.149 297.805 165.658 297.805 163.307C297.805 160.955 299.117 159.479 300.977 159.479C302.412 159.479 302.877 160.354 303.123 160.75H303.205V158.932H301.182V158.03H303.205V157.1H304.395V158.03H305.461V158.932H304.395V166.998H303.246V165.864H303.123C302.863 166.274 302.385 167.149 300.963 167.149ZM301.127 166.096C302.48 166.096 303.246 164.948 303.246 163.28C303.246 161.639 302.508 160.531 301.127 160.531C299.705 160.531 298.994 161.735 298.994 163.28C298.994 164.865 299.719 166.096 301.127 166.096ZM309.467 167.149C307.443 167.149 306.076 165.631 306.076 163.321C306.076 161.01 307.443 159.479 309.467 159.479C311.477 159.479 312.83 161.01 312.83 163.321C312.83 165.631 311.477 167.149 309.467 167.149ZM309.467 166.11C310.957 166.11 311.654 164.797 311.654 163.321C311.654 161.844 310.957 160.518 309.467 160.518C307.949 160.518 307.252 161.844 307.252 163.321C307.252 164.797 307.949 166.11 309.467 166.11ZM310.465 158.686L309.453 157.346L308.455 158.686H307.334V158.604L308.92 156.594H309.986L311.572 158.604V158.686H310.465ZM309.521 169.459C309.07 169.459 308.701 169.117 308.701 168.68C308.701 168.242 309.07 167.901 309.521 167.901C309.973 167.901 310.355 168.242 310.355 168.68C310.355 169.117 309.973 169.459 309.521 169.459ZM129.094 186.998V177.1H130.27V180.75H130.365C130.625 180.354 131.062 179.479 132.512 179.479C134.371 179.479 135.684 180.955 135.684 183.307C135.684 185.658 134.371 187.149 132.525 187.149C131.104 187.149 130.625 186.274 130.365 185.864H130.229V186.998H129.094ZM130.242 183.28C130.242 184.948 130.994 186.096 132.348 186.096C133.756 186.096 134.494 184.865 134.494 183.28C134.494 181.735 133.783 180.531 132.348 180.531C130.98 180.531 130.242 181.639 130.242 183.28ZM137.762 178.645C137.762 177.647 138.418 176.949 139.238 176.949C139.99 176.949 140.318 177.565 141.002 177.565C141.371 177.565 141.658 177.25 141.658 176.84L142.547 176.908C142.547 177.934 141.891 178.563 141.057 178.563C140.168 178.563 140.031 177.948 139.307 177.948C138.937 177.948 138.678 178.276 138.678 178.686L137.762 178.645ZM136.859 184.893C136.859 183.184 138.363 182.801 139.648 182.705C140.12 182.671 141.323 182.61 141.658 182.596V181.994C141.658 181.051 141.098 180.504 139.977 180.504C139.033 180.504 138.473 180.942 138.309 181.502H137.078C137.229 180.313 138.391 179.479 140.031 179.479C141.002 179.479 142.82 179.766 142.82 182.104V186.998H141.658V185.987H141.604C141.357 186.492 140.674 187.176 139.389 187.176C137.98 187.176 136.859 186.342 136.859 184.893ZM138.035 184.948C138.035 185.727 138.691 186.123 139.594 186.123C140.92 186.123 141.658 185.235 141.658 184.305V183.553L139.785 183.69C138.719 183.758 138.035 184.141 138.035 184.948ZM147.742 187.149C145.719 187.149 144.352 185.631 144.352 183.321C144.352 181.01 145.719 179.479 147.742 179.479C149.752 179.479 151.105 181.01 151.105 183.321C151.105 185.631 149.752 187.149 147.742 187.149ZM147.742 186.11C149.232 186.11 149.93 184.797 149.93 183.321C149.93 181.844 149.232 180.518 147.742 180.518C146.225 180.518 145.527 181.844 145.527 183.321C145.527 184.797 146.225 186.11 147.742 186.11ZM157.34 182.541V186.998H156.164V177.1H157.34V180.737H157.436C157.777 179.971 158.447 179.479 159.623 179.479C161.141 179.479 162.152 180.381 162.152 182.281V186.998H160.977V182.364C160.977 181.201 160.334 180.531 159.268 180.531C158.16 180.531 157.34 181.256 157.34 182.541ZM167.074 187.149C165.051 187.149 163.684 185.631 163.684 183.321C163.684 181.01 165.051 179.479 167.074 179.479C169.084 179.479 170.437 181.01 170.437 183.321C170.437 185.631 169.084 187.149 167.074 187.149ZM167.074 186.11C168.564 186.11 169.262 184.797 169.262 183.321C169.262 181.844 168.564 180.518 167.074 180.518C165.557 180.518 164.859 181.844 164.859 183.321C164.859 184.797 165.557 186.11 167.074 186.11ZM174.43 178.563L172.926 176.321H174.293L175.455 178.563H174.43ZM171.627 184.893C171.627 183.184 173.131 182.801 174.416 182.705C174.888 182.671 176.091 182.61 176.426 182.596V181.994C176.426 181.051 175.865 180.504 174.744 180.504C173.801 180.504 173.24 180.942 173.076 181.502H171.846C171.996 180.313 173.158 179.479 174.799 179.479C175.77 179.479 177.588 179.766 177.588 182.104V186.998H176.426V185.987H176.371C176.125 186.492 175.441 187.176 174.156 187.176C172.748 187.176 171.627 186.342 171.627 184.893ZM172.803 184.948C172.803 185.727 173.459 186.123 174.361 186.123C175.687 186.123 176.426 185.235 176.426 184.305V183.553L174.553 183.69C173.486 183.758 172.803 184.141 172.803 184.948ZM186.023 187.149C183.918 187.149 182.633 185.549 182.633 183.321C182.633 181.065 183.973 179.479 185.996 179.479C187.582 179.479 188.758 180.408 188.949 181.817H187.773C187.609 181.133 187.008 180.518 186.023 180.518C184.697 180.518 183.809 181.612 183.809 183.28C183.809 185.002 184.67 186.096 186.023 186.096C186.898 186.096 187.568 185.631 187.773 184.811H188.949C188.758 186.137 187.678 187.149 186.023 187.149ZM190.043 184.893C190.043 183.184 191.547 182.801 192.832 182.705C193.304 182.671 194.507 182.61 194.842 182.596V181.994C194.842 181.051 194.281 180.504 193.16 180.504C192.217 180.504 191.656 180.942 191.492 181.502H190.262C190.412 180.313 191.574 179.479 193.215 179.479C194.186 179.479 196.004 179.766 196.004 182.104V186.998H194.842V185.987H194.787C194.541 186.492 193.857 187.176 192.572 187.176C191.164 187.176 190.043 186.342 190.043 184.893ZM191.219 184.948C191.219 185.727 191.875 186.123 192.777 186.123C194.104 186.123 194.842 185.235 194.842 184.305V183.553L192.969 183.69C191.902 183.758 191.219 184.141 191.219 184.948ZM200.926 187.149C198.902 187.149 197.535 185.631 197.535 183.321C197.535 181.01 198.902 179.479 200.926 179.479C202.936 179.479 204.289 181.01 204.289 183.321C204.289 185.631 202.936 187.149 200.926 187.149ZM200.926 186.11C202.416 186.11 203.113 184.797 203.113 183.321C203.113 181.844 202.416 180.518 200.926 180.518C199.408 180.518 198.711 181.844 198.711 183.321C198.711 184.797 199.408 186.11 200.926 186.11ZM207.379 186.082L206.312 189.801H205.301L206.053 186.082H207.379ZM215.732 187.149C213.887 187.149 212.574 185.658 212.574 183.307C212.574 180.955 213.887 179.479 215.746 179.479C217.182 179.479 217.646 180.354 217.893 180.75H217.975V178.932H215.951V178.03H217.975V177.1H219.164V178.03H220.23V178.932H219.164V186.998H218.016V185.864H217.893C217.633 186.274 217.154 187.149 215.732 187.149ZM215.896 186.096C217.25 186.096 218.016 184.948 218.016 183.28C218.016 181.639 217.277 180.531 215.896 180.531C214.475 180.531 213.764 181.735 213.764 183.28C213.764 184.865 214.488 186.096 215.896 186.096ZM224.236 187.149C222.213 187.149 220.846 185.631 220.846 183.321C220.846 181.01 222.213 179.479 224.236 179.479C226.246 179.479 227.6 181.01 227.6 183.321C227.6 185.631 226.246 187.149 224.236 187.149ZM224.236 186.11C225.727 186.11 226.424 184.797 226.424 183.321C226.424 181.844 225.727 180.518 224.236 180.518C222.719 180.518 222.021 181.844 222.021 183.321C222.021 184.797 222.719 186.11 224.236 186.11ZM225.234 178.686L224.223 177.346L223.225 178.686H222.104V178.604L223.689 176.594H224.756L226.342 178.604V178.686H225.234ZM224.291 189.459C223.84 189.459 223.471 189.117 223.471 188.68C223.471 188.242 223.84 187.901 224.291 187.901C224.742 187.901 225.125 188.242 225.125 188.68C225.125 189.117 224.742 189.459 224.291 189.459ZM236.787 181.502C236.623 180.887 236.158 180.477 235.283 180.477C234.367 180.477 233.711 180.969 233.711 181.598C233.711 182.09 234.107 182.432 234.982 182.637L236.09 182.91C237.416 183.225 238.072 183.881 238.072 184.92C238.072 186.205 237.02 187.149 235.16 187.149C233.492 187.149 232.494 186.41 232.303 185.057H233.533C233.67 185.781 234.203 186.123 235.133 186.123C236.186 186.123 236.855 185.686 236.855 184.989C236.855 184.469 236.486 184.114 235.639 183.922L234.518 183.662C233.219 183.362 232.535 182.651 232.535 181.666C232.535 180.395 233.643 179.479 235.283 179.479C236.814 179.479 237.785 180.299 237.936 181.502H236.787ZM242.023 178.563L243.199 176.321H244.553L243.035 178.563H242.023ZM239.248 184.893C239.248 183.184 240.752 182.801 242.037 182.705C242.509 182.671 243.712 182.61 244.047 182.596V181.994C244.047 181.051 243.486 180.504 242.365 180.504C241.422 180.504 240.861 180.942 240.697 181.502H239.467C239.617 180.313 240.779 179.479 242.42 179.479C243.391 179.479 245.209 179.766 245.209 182.104V186.998H244.047V185.987H243.992C243.746 186.492 243.062 187.176 241.777 187.176C240.369 187.176 239.248 186.342 239.248 184.893ZM240.424 184.948C240.424 185.727 241.08 186.123 241.982 186.123C243.309 186.123 244.047 185.235 244.047 184.305V183.553L242.174 183.69C241.107 183.758 240.424 184.141 240.424 184.948ZM248.271 182.541V186.998H247.096V179.574H248.23V180.737H248.326C248.682 179.985 249.365 179.479 250.5 179.479C252.004 179.479 253.002 180.395 253.002 182.281V186.998H251.826V182.364C251.826 181.215 251.197 180.531 250.145 180.531C249.064 180.531 248.271 181.256 248.271 182.541ZM257.896 189.938C256.105 189.938 254.889 189.158 254.752 187.778H255.982C256.146 188.53 256.844 188.912 257.896 188.912C259.168 188.912 259.947 188.365 259.947 187.135V185.631H259.852C259.605 186.041 259.127 186.889 257.691 186.889C255.887 186.889 254.533 185.522 254.533 183.184C254.533 180.901 255.846 179.479 257.705 179.479C259.141 179.479 259.605 180.354 259.879 180.75H259.975V179.574H261.123V187.203C261.123 189.117 259.701 189.938 257.896 189.938ZM257.855 185.836C259.209 185.836 259.975 184.865 259.975 183.225C259.975 181.639 259.236 180.531 257.855 180.531C256.434 180.531 255.723 181.735 255.723 183.225C255.723 184.77 256.447 185.836 257.855 185.836ZM269.545 187.149C267.439 187.149 266.154 185.549 266.154 183.321C266.154 181.065 267.494 179.479 269.518 179.479C271.103 179.479 272.279 180.408 272.471 181.817H271.295C271.131 181.133 270.529 180.518 269.545 180.518C268.219 180.518 267.33 181.612 267.33 183.28C267.33 185.002 268.191 186.096 269.545 186.096C270.42 186.096 271.09 185.631 271.295 184.811H272.471C272.279 186.137 271.199 187.149 269.545 187.149ZM273.564 184.893C273.564 183.184 275.068 182.801 276.354 182.705C276.825 182.671 278.028 182.61 278.363 182.596V181.994C278.363 181.051 277.803 180.504 276.682 180.504C275.738 180.504 275.178 180.942 275.014 181.502H273.783C273.934 180.313 275.096 179.479 276.736 179.479C277.707 179.479 279.525 179.766 279.525 182.104V186.998H278.363V185.987H278.309C278.062 186.492 277.379 187.176 276.094 187.176C274.686 187.176 273.564 186.342 273.564 184.893ZM274.74 184.948C274.74 185.727 275.396 186.123 276.299 186.123C277.625 186.123 278.363 185.235 278.363 184.305V183.553L276.49 183.69C275.424 183.758 274.74 184.141 274.74 184.948ZM284.447 187.149C282.424 187.149 281.057 185.631 281.057 183.321C281.057 181.01 282.424 179.479 284.447 179.479C286.457 179.479 287.811 181.01 287.811 183.321C287.811 185.631 286.457 187.149 284.447 187.149ZM284.447 186.11C285.937 186.11 286.635 184.797 286.635 183.321C286.635 181.844 285.937 180.518 284.447 180.518C282.93 180.518 282.232 181.844 282.232 183.321C282.232 184.797 282.93 186.11 284.447 186.11ZM294.045 182.541V186.998H292.869V179.574H294.004V180.737H294.1C294.455 179.985 295.139 179.479 296.273 179.479C297.777 179.479 298.775 180.395 298.775 182.281V186.998H297.6V182.364C297.6 181.215 296.971 180.531 295.918 180.531C294.838 180.531 294.045 181.256 294.045 182.541ZM301.838 182.541V186.998H300.662V177.1H301.838V180.737H301.934C302.275 179.971 302.945 179.479 304.121 179.479C305.639 179.479 306.65 180.381 306.65 182.281V186.998H305.475V182.364C305.475 181.201 304.832 180.531 303.766 180.531C302.658 180.531 301.838 181.256 301.838 182.541ZM308.182 184.893C308.182 183.184 309.686 182.801 310.971 182.705C311.442 182.671 312.645 182.61 312.98 182.596V181.994C312.98 181.051 312.42 180.504 311.299 180.504C310.355 180.504 309.795 180.942 309.631 181.502H308.4C308.551 180.313 309.713 179.479 311.354 179.479C312.324 179.479 314.143 179.766 314.143 182.104V186.998H312.98V185.987H312.926C312.68 186.492 311.996 187.176 310.711 187.176C309.303 187.176 308.182 186.342 308.182 184.893ZM309.357 184.948C309.357 185.727 310.014 186.123 310.916 186.123C312.242 186.123 312.98 185.235 312.98 184.305V183.553L311.107 183.69C310.041 183.758 309.357 184.141 309.357 184.948Z" fill="white"/>
<path d="M0 232C0 223.163 7.16344 216 16 216H226C234.837 216 242 223.163 242 232V300C242 308.837 234.837 316 226 316H16C7.16344 316 0 308.837 0 300V232Z" fill="#80B3E6"/>
<path d="M24.5937 239L25.0312 236.348H22.7207L22.2832 239H21.1074L21.5449 236.348H20.123L20.3008 235.186H21.7363L22.1055 232.917H20.6973L20.875 231.741H22.3105L22.7344 229.102H23.9102L23.4863 231.741H25.7969L26.2207 229.102H27.3828L26.959 231.741H28.3945L28.2031 232.917H26.7676L26.3984 235.186H27.8203L27.6152 236.348H26.207L25.7695 239H24.5937ZM22.9121 235.186H25.2227L25.5918 232.917H23.2812L22.9121 235.186ZM34.9023 231.713C34.8066 230.797 34 230.264 32.8652 230.264C31.6484 230.264 30.8828 230.879 30.8828 231.727C30.8828 232.67 31.9082 233.026 32.6875 233.217L33.6445 233.477C34.916 233.778 36.4883 234.475 36.502 236.266C36.4883 237.934 35.1621 239.165 32.8242 239.165C30.6094 239.165 29.2148 238.057 29.1191 236.252H30.623C30.7187 237.333 31.6621 237.852 32.8242 237.852C34.082 237.852 34.998 237.209 35.0117 236.239C34.998 235.377 34.1914 235.022 33.1387 234.749L31.9629 234.434C30.377 233.997 29.3789 233.19 29.3789 231.809C29.3789 230.1 30.9102 228.965 32.9062 228.965C34.916 228.965 36.3242 230.114 36.3652 231.713H34.9023ZM40.4395 230.579L41.5605 228.35H43.0918L41.5879 230.579H40.4395ZM37.6504 236.909C37.6504 235.213 39.0859 234.776 40.4258 234.68C40.918 234.646 42.0322 234.584 42.3809 234.571L42.3672 233.983C42.3672 233.149 41.8613 232.657 40.8633 232.657C40.002 232.657 39.4824 233.053 39.332 233.6H37.8828C38.0195 232.37 39.168 231.481 40.918 231.481C42.0937 231.481 43.8301 231.918 43.8301 234.065V239H42.4082V237.989H42.3535C42.0664 238.549 41.3828 239.165 40.1523 239.165C38.7441 239.165 37.6504 238.358 37.6504 236.909ZM39.0723 236.922C39.0723 237.633 39.6602 238.002 40.4805 238.002C41.6699 238.002 42.3809 237.209 42.3809 236.321V235.637L40.6309 235.76C39.6738 235.829 39.0723 236.184 39.0723 236.922ZM47.0566 234.598V239H45.5937V231.577H47.002V232.793H47.084C47.4395 232 48.1641 231.481 49.2715 231.481C50.8027 231.481 51.8008 232.438 51.8008 234.284V239H50.3516V234.461C50.3516 233.381 49.7637 232.739 48.7793 232.739C47.7812 232.739 47.0566 233.409 47.0566 234.598ZM56.6953 241.94C54.8223 241.94 53.5918 241.106 53.4551 239.725H54.9453C55.082 240.422 55.7383 240.764 56.709 240.764C57.8711 240.764 58.6094 240.272 58.6094 239.11V237.647H58.5137C58.2539 238.125 57.7207 238.891 56.3535 238.891C54.6035 238.891 53.25 237.579 53.25 235.213C53.25 232.848 54.5762 231.481 56.3672 231.481C57.748 231.481 58.2539 232.315 58.5273 232.78H58.623V231.577H60.0449V239.165C60.0449 241.065 58.6094 241.94 56.6953 241.94ZM56.6816 237.688C57.9258 237.688 58.623 236.772 58.623 235.241C58.623 233.737 57.9394 232.725 56.6816 232.725C55.3828 232.725 54.7402 233.819 54.7402 235.241C54.7402 236.69 55.4102 237.688 56.6816 237.688Z" fill="white"/>
<path d="M73.5937 239L74.0312 236.348H71.7207L71.2832 239H70.1074L70.5449 236.348H69.123L69.3008 235.186H70.7363L71.1055 232.917H69.6973L69.875 231.741H71.3105L71.7344 229.102H72.9102L72.4863 231.741H74.7969L75.2207 229.102H76.3828L75.959 231.741H77.3945L77.2031 232.917H75.7676L75.3984 235.186H76.8203L76.6152 236.348H75.207L74.7695 239H73.5937ZM71.9121 235.186H74.2227L74.5918 232.917H72.2812L71.9121 235.186ZM78.0234 230.401V229.102H85.6934V230.401H82.6172V239H81.1133V230.401H78.0234ZM94.252 231.221C94.252 232.643 93.7871 233.429 92.2695 233.545V239H90.8477V237.715H90.7656C90.4238 238.508 89.6582 239.096 88.5508 239.096C87.1152 239.096 86.1035 238.139 86.1035 236.293V231.577H87.5664V236.116C87.5664 237.127 88.1816 237.77 89.0703 237.77C89.877 237.77 90.8203 237.182 90.8203 235.911V231.577H92.2695V232.684C93.1309 232.595 93.1719 232.13 93.1719 231.221H94.252ZM102.127 231.057C102.127 232.171 101.792 232.964 100.979 233.313C101.252 233.88 101.402 234.564 101.402 235.323C101.402 237.62 100.035 239.151 97.9434 239.151C95.8379 239.151 94.4707 237.62 94.4707 235.323C94.4707 233.012 95.8379 231.481 97.9434 231.481C99.0098 231.481 99.8848 231.877 100.5 232.575C100.917 232.329 101.006 231.782 101.006 231.057H102.127ZM97.9434 237.934C99.2832 237.934 99.9258 236.745 99.9258 235.323C99.9258 233.901 99.2832 232.684 97.9434 232.684C96.5762 232.684 95.9336 233.901 95.9336 235.323C95.9336 236.745 96.5762 237.934 97.9434 237.934ZM102.934 239V231.577H104.396V239H102.934ZM103.672 230.428C103.166 230.428 102.742 230.045 102.742 229.567C102.742 229.088 103.166 228.706 103.672 228.706C104.164 228.706 104.588 229.088 104.588 229.567C104.588 230.045 104.164 230.428 103.672 230.428ZM109.592 239V231.577H111V232.793H111.082C111.396 231.959 112.121 231.481 113.105 231.481C114.09 231.481 114.787 231.973 115.102 232.793H115.184C115.539 231.987 116.332 231.481 117.412 231.481C118.752 231.481 119.709 232.329 119.709 234.024V239H118.246V234.161C118.246 233.163 117.617 232.739 116.852 232.739C115.908 232.739 115.375 233.381 115.375 234.27V239H113.926V234.079C113.926 233.272 113.365 232.739 112.572 232.739C111.752 232.739 111.055 233.422 111.055 234.42V239H109.592ZM128.801 231.057C128.801 232.171 128.466 232.964 127.652 233.313C127.926 233.88 128.076 234.564 128.076 235.323C128.076 237.62 126.709 239.151 124.617 239.151C122.512 239.151 121.145 237.62 121.145 235.323C121.145 233.012 122.512 231.481 124.617 231.481C125.684 231.481 126.559 231.877 127.174 232.575C127.591 232.329 127.68 231.782 127.68 231.057H128.801ZM124.617 237.934C125.957 237.934 126.6 236.745 126.6 235.323C126.6 233.901 125.957 232.684 124.617 232.684C123.25 232.684 122.607 233.901 122.607 235.323C122.607 236.745 123.25 237.934 124.617 237.934ZM124.016 230.579L125.137 228.35H126.668L125.164 230.579H124.016ZM129.607 239V231.577H131.07V239H129.607ZM130.346 230.428C129.84 230.428 129.416 230.045 129.416 229.567C129.416 229.088 129.84 228.706 130.346 228.706C130.838 228.706 131.262 229.088 131.262 229.567C131.262 230.045 130.838 230.428 130.346 230.428Z" fill="white"/>
<path d="M26.4941 253.59C26.3848 252.62 25.4961 252.059 24.3066 252.059C22.9941 252.059 22.1328 252.743 22.1328 253.686C22.1328 254.725 23.2949 255.108 24.0469 255.299L25.0312 255.573C26.0977 255.846 27.834 256.461 27.834 258.307C27.834 259.92 26.5352 261.178 24.2383 261.178C22.1055 261.178 20.7793 260.071 20.6699 258.43H21.9277C22.0371 259.538 23.0625 260.057 24.2383 260.057C25.6055 260.057 26.6309 259.36 26.6309 258.28C26.6309 257.323 25.7148 256.954 24.6758 256.653L23.459 256.325C21.9004 255.874 20.9434 255.081 20.9434 253.741C20.9434 252.073 22.4336 250.965 24.3477 250.965C26.2617 250.965 27.6426 252.086 27.6973 253.59H26.4941ZM32.4824 261.151C30.459 261.151 29.0918 259.633 29.0918 257.323C29.0918 255.012 30.459 253.481 32.4824 253.481C34.4922 253.481 35.8457 255.012 35.8457 257.323C35.8457 259.633 34.4922 261.151 32.4824 261.151ZM32.4824 260.112C33.9727 260.112 34.6699 258.799 34.6699 257.323C34.6699 255.846 33.9727 254.52 32.4824 254.52C30.9648 254.52 30.2676 255.846 30.2676 257.323C30.2676 258.799 30.9648 260.112 32.4824 260.112ZM47.0156 253.577L44.2676 261H43.0508L40.3164 253.577H41.6016L43.625 259.469H43.707L45.7305 253.577H47.0156ZM55.1504 253.03C55.1504 254.124 54.8291 254.923 53.9883 255.245C54.2822 255.833 54.4395 256.53 54.4395 257.323C54.4395 259.633 53.0859 261.151 51.0762 261.151C49.0527 261.151 47.6855 259.633 47.6855 257.323C47.6855 255.012 49.0527 253.481 51.0762 253.481C52.0742 253.481 52.915 253.857 53.5098 254.52C54.002 254.322 54.084 253.768 54.084 253.03H55.1504ZM51.0762 260.112C52.5664 260.112 53.2637 258.799 53.2637 257.323C53.2637 255.846 52.5664 254.52 51.0762 254.52C49.5586 254.52 48.8613 255.846 48.8613 257.323C48.8613 258.799 49.5586 260.112 51.0762 260.112ZM50.5566 252.565L51.7324 250.323H53.0859L51.5684 252.565H50.5566ZM55.9844 261V253.577H57.1602V261H55.9844ZM56.5723 252.346C56.1211 252.346 55.7519 252.004 55.7519 251.567C55.7519 251.129 56.1211 250.788 56.5723 250.788C57.0234 250.788 57.4062 251.129 57.4062 251.567C57.4062 252.004 57.0234 252.346 56.5723 252.346ZM62.5469 261V253.577H63.6816V254.739H63.7773C64.0918 253.946 64.8027 253.481 65.7734 253.481C66.7441 253.481 67.4004 253.946 67.7559 254.739H67.8379C68.2207 253.973 69 253.481 70.0664 253.481C71.3926 253.481 72.3359 254.288 72.3359 256.038V261H71.1602V256.051C71.1602 254.958 70.4629 254.534 69.6562 254.534C68.6172 254.534 68.0293 255.231 68.0293 256.174V261H66.8398V255.928C66.8398 255.094 66.2383 254.534 65.3906 254.534C64.5019 254.534 63.7227 255.286 63.7227 256.366V261H62.5469ZM76.6699 252.565L75.166 250.323H76.5332L77.6953 252.565H76.6699ZM73.8672 258.895C73.8672 257.186 75.3711 256.803 76.6562 256.708C77.1279 256.673 78.3311 256.612 78.666 256.598V255.997C78.666 255.053 78.1055 254.506 76.9844 254.506C76.041 254.506 75.4805 254.944 75.3164 255.504H74.0859C74.2363 254.315 75.3984 253.481 77.0391 253.481C78.0098 253.481 79.8281 253.768 79.8281 256.106V261H78.666V259.989H78.6113C78.3652 260.495 77.6816 261.178 76.3965 261.178C74.9883 261.178 73.8672 260.344 73.8672 258.895ZM75.043 258.95C75.043 259.729 75.6992 260.125 76.6016 260.125C77.9277 260.125 78.666 259.237 78.666 258.307V257.555L76.793 257.692C75.7266 257.76 75.043 258.143 75.043 258.95ZM86.4043 257.952V253.577H87.5664V261H86.4043V259.743H86.3223C85.9668 260.495 85.2422 261.096 84.1211 261.096C82.7129 261.096 81.7148 260.18 81.7148 258.293V253.577H82.8906V258.211C82.8906 259.278 83.5605 259.961 84.5039 259.961C85.3379 259.961 86.4043 259.333 86.4043 257.952ZM96.207 253.577V254.561H94.6484V258.868C94.6484 259.825 95.1133 259.975 95.6191 259.975C95.8379 259.975 96.1387 259.961 96.3164 259.948V261.042C96.1387 261.069 95.8379 261.096 95.4961 261.096C94.5117 261.096 93.459 260.481 93.459 259.168V254.561H92.3379V253.577H93.459V251.799H94.6484V253.577H96.207ZM99.0644 256.543V261H97.8887V251.102H99.0644V254.739H99.1601C99.5019 253.973 100.172 253.481 101.348 253.481C102.865 253.481 103.877 254.383 103.877 256.284V261H102.701V256.366C102.701 255.204 102.059 254.534 100.992 254.534C99.8848 254.534 99.0644 255.258 99.0644 256.543ZM105.764 261V253.577H106.939V261H105.764ZM105.859 252.565L104.355 250.323H105.723L106.885 252.565H105.859ZM112.477 261V251.102H113.652V254.752H113.748C114.008 254.356 114.445 253.481 115.895 253.481C117.754 253.481 119.066 254.958 119.066 257.309C119.066 259.661 117.754 261.151 115.908 261.151C114.486 261.151 114.008 260.276 113.748 259.866H113.611V261H112.477ZM113.625 257.282C113.625 258.95 114.377 260.098 115.73 260.098C117.139 260.098 117.877 258.868 117.877 257.282C117.877 255.737 117.166 254.534 115.73 254.534C114.363 254.534 113.625 255.641 113.625 257.282ZM123.523 263.461C123.072 263.461 122.703 263.12 122.703 262.682C122.703 262.245 123.072 261.903 123.523 261.903C123.975 261.903 124.357 262.245 124.357 262.682C124.357 263.12 123.975 263.461 123.523 263.461ZM120.242 258.895C120.242 257.186 121.746 256.803 123.031 256.708C123.503 256.673 124.706 256.612 125.041 256.598V255.997C125.041 255.053 124.48 254.506 123.359 254.506C122.416 254.506 121.855 254.944 121.691 255.504H120.461C120.611 254.315 121.773 253.481 123.414 253.481C124.385 253.481 126.203 253.768 126.203 256.106V261H125.041V259.989H124.986C124.74 260.495 124.057 261.178 122.771 261.178C121.363 261.178 120.242 260.344 120.242 258.895ZM121.418 258.95C121.418 259.729 122.074 260.125 122.977 260.125C124.303 260.125 125.041 259.237 125.041 258.307V257.555L123.168 257.692C122.102 257.76 121.418 258.143 121.418 258.95ZM129.266 256.543V261H128.09V253.577H129.225V254.739H129.32C129.676 253.987 130.359 253.481 131.494 253.481C132.998 253.481 133.996 254.397 133.996 256.284V261H132.82V256.366C132.82 255.217 132.191 254.534 131.139 254.534C130.059 254.534 129.266 255.258 129.266 256.543ZM140.572 256.543V261H139.396V253.577H140.531V254.739H140.627C140.982 253.987 141.666 253.481 142.801 253.481C144.305 253.481 145.303 254.397 145.303 256.284V261H144.127V256.366C144.127 255.217 143.498 254.534 142.445 254.534C141.365 254.534 140.572 255.258 140.572 256.543ZM150.307 261.151C148.16 261.151 146.834 259.633 146.834 257.35C146.834 255.067 148.174 253.481 150.197 253.481C151.756 253.481 153.396 254.438 153.396 257.186V257.678H148.01C148.064 259.25 148.98 260.112 150.307 260.112C151.195 260.112 151.756 259.729 152.029 259.264H153.287C152.932 260.385 151.838 261.151 150.307 261.151ZM151.127 252.688L150.115 251.348L149.117 252.688H147.996V252.606L149.582 250.596H150.648L152.234 252.606V252.688H151.127ZM148.023 256.68H152.207C152.207 255.436 151.414 254.52 150.197 254.52C148.912 254.52 148.092 255.532 148.023 256.68ZM156.104 256.543V261H154.928V253.577H156.062V254.739H156.158C156.514 253.987 157.197 253.481 158.332 253.481C159.836 253.481 160.834 254.397 160.834 256.284V261H159.658V256.366C159.658 255.217 159.029 254.534 157.977 254.534C156.896 254.534 156.104 255.258 156.104 256.543ZM169.27 261.151C167.164 261.151 165.879 259.551 165.879 257.323C165.879 255.067 167.219 253.481 169.242 253.481C170.828 253.481 172.004 254.411 172.195 255.819H171.02C170.855 255.135 170.254 254.52 169.27 254.52C167.943 254.52 167.055 255.614 167.055 257.282C167.055 259.004 167.916 260.098 169.27 260.098C170.145 260.098 170.814 259.633 171.02 258.813H172.195C172.004 260.139 170.924 261.151 169.27 261.151ZM174.82 256.543V261H173.645V251.102H174.82V254.739H174.916C175.258 253.973 175.928 253.481 177.104 253.481C178.621 253.481 179.633 254.383 179.633 256.284V261H178.457V256.366C178.457 255.204 177.814 254.534 176.748 254.534C175.641 254.534 174.82 255.258 174.82 256.543ZM184.555 261.151C182.531 261.151 181.164 259.633 181.164 257.323C181.164 255.012 182.531 253.481 184.555 253.481C186.564 253.481 187.918 255.012 187.918 257.323C187.918 259.633 186.564 261.151 184.555 261.151ZM184.555 260.112C186.045 260.112 186.742 258.799 186.742 257.323C186.742 255.846 186.045 254.52 184.555 254.52C183.037 254.52 182.34 255.846 182.34 257.323C182.34 258.799 183.037 260.112 184.555 260.112ZM184.609 263.461C184.158 263.461 183.789 263.12 183.789 262.682C183.789 262.245 184.158 261.903 184.609 261.903C185.061 261.903 185.443 262.245 185.443 262.682C185.443 263.12 185.061 263.461 184.609 263.461ZM190.639 256.543V261H189.463V253.577H190.598V254.739H190.693C191.049 253.987 191.732 253.481 192.867 253.481C194.371 253.481 195.369 254.397 195.369 256.284V261H194.193V256.366C194.193 255.217 193.564 254.534 192.512 254.534C191.432 254.534 190.639 255.258 190.639 256.543ZM22.1191 276.543V281H20.9434V273.577H22.0781V274.739H22.1738C22.5293 273.987 23.2129 273.481 24.3477 273.481C25.8516 273.481 26.8496 274.397 26.8496 276.284V281H25.6738V276.366C25.6738 275.217 25.0449 274.534 23.9922 274.534C22.9121 274.534 22.1191 275.258 22.1191 276.543ZM29.9121 276.543V281H28.7363V271.102H29.9121V274.739H30.0078C30.3496 273.973 31.0195 273.481 32.1953 273.481C33.7129 273.481 34.7246 274.383 34.7246 276.284V281H33.5488V276.366C33.5488 275.204 32.9062 274.534 31.8398 274.534C30.7324 274.534 29.9121 275.258 29.9121 276.543ZM44.3496 273.249C44.3496 274.623 43.9258 275.368 42.4629 275.463V281H41.3008V279.743H41.2187C40.8633 280.495 40.1387 281.096 39.0176 281.096C37.6094 281.096 36.6113 280.18 36.6113 278.293V273.577H37.7871V278.211C37.7871 279.278 38.457 279.961 39.4004 279.961C40.2344 279.961 41.3008 279.333 41.3008 277.952V273.577H42.4629V274.67C43.3174 274.582 43.3379 274.137 43.3379 273.249H44.3496ZM37.1582 272.647C37.1582 271.649 37.8145 270.952 38.6348 270.952C39.3867 270.952 39.7148 271.567 40.3984 271.567C40.7676 271.567 41.0547 271.252 41.0547 270.842L41.9434 270.911C41.9434 271.936 41.2871 272.565 40.4531 272.565C39.5645 272.565 39.4277 271.95 38.7031 271.95C38.334 271.95 38.0742 272.278 38.0742 272.688L37.1582 272.647ZM46.0859 276.543V281H44.9102V273.577H46.0449V274.739H46.1406C46.4961 273.987 47.1797 273.481 48.3145 273.481C49.8184 273.481 50.8164 274.397 50.8164 276.284V281H49.6406V276.366C49.6406 275.217 49.0117 274.534 47.959 274.534C46.8789 274.534 46.0859 275.258 46.0859 276.543ZM55.7109 283.94C53.9199 283.94 52.7031 283.161 52.5664 281.78H53.7969C53.9609 282.532 54.6582 282.915 55.7109 282.915C56.9824 282.915 57.7617 282.368 57.7617 281.137V279.633H57.666C57.4199 280.043 56.9414 280.891 55.5059 280.891C53.7012 280.891 52.3477 279.524 52.3477 277.186C52.3477 274.903 53.6602 273.481 55.5195 273.481C56.9551 273.481 57.4199 274.356 57.6934 274.752H57.7891V273.577H58.9375V281.206C58.9375 283.12 57.5156 283.94 55.7109 283.94ZM55.6699 279.838C57.0234 279.838 57.7891 278.868 57.7891 277.227C57.7891 275.641 57.0508 274.534 55.6699 274.534C54.248 274.534 53.5371 275.737 53.5371 277.227C53.5371 278.772 54.2617 279.838 55.6699 279.838ZM64.3242 281V273.577H65.459V274.739H65.5547C65.8691 273.946 66.5801 273.481 67.5508 273.481C68.5215 273.481 69.1777 273.946 69.5332 274.739H69.6152C69.998 273.973 70.7773 273.481 71.8437 273.481C73.1699 273.481 74.1133 274.288 74.1133 276.038V281H72.9375V276.051C72.9375 274.958 72.2402 274.534 71.4336 274.534C70.3945 274.534 69.8066 275.231 69.8066 276.174V281H68.6172V275.928C68.6172 275.094 68.0156 274.534 67.168 274.534C66.2793 274.534 65.5 275.286 65.5 276.366V281H64.3242ZM75.6445 278.895C75.6445 277.186 77.1484 276.803 78.4336 276.708C78.9053 276.673 80.1084 276.612 80.4434 276.598V275.997C80.4434 275.053 79.8828 274.506 78.7617 274.506C77.8184 274.506 77.2578 274.944 77.0937 275.504H75.8633C76.0137 274.315 77.1758 273.481 78.8164 273.481C79.7871 273.481 81.6055 273.768 81.6055 276.106V281H80.4434V279.989H80.3887C80.1426 280.495 79.459 281.178 78.1738 281.178C76.7656 281.178 75.6445 280.344 75.6445 278.895ZM76.8203 278.95C76.8203 279.729 77.4766 280.125 78.3789 280.125C79.7051 280.125 80.4434 279.237 80.4434 278.307V277.555L78.5703 277.692C77.5039 277.76 76.8203 278.143 76.8203 278.95ZM83.4922 281V271.102H84.668V276.858H84.8047L88.0176 273.577H89.4668L86.3359 276.749L89.6992 281H88.209L85.4609 277.5L84.668 278.225V281H83.4922ZM93.5273 281.151C91.3809 281.151 90.0547 279.633 90.0547 277.35C90.0547 275.067 91.3945 273.481 93.418 273.481C94.9766 273.481 96.6172 274.438 96.6172 277.186V277.678H91.2305C91.2851 279.25 92.2012 280.112 93.5273 280.112C94.416 280.112 94.9766 279.729 95.25 279.264H96.5078C96.1523 280.385 95.0586 281.151 93.5273 281.151ZM91.2441 276.68H95.4277C95.4277 275.436 94.6348 274.52 93.418 274.52C92.1328 274.52 91.3125 275.532 91.2441 276.68ZM102.838 277.952V273.577H104V281H102.838V279.743H102.756C102.4 280.495 101.676 281.096 100.555 281.096C99.1465 281.096 98.1484 280.18 98.1484 278.293V273.577H99.3242V278.211C99.3242 279.278 99.9941 279.961 100.937 279.961C101.771 279.961 102.838 279.333 102.838 277.952ZM105.887 283.79V273.577H107.021V274.752H107.158C107.404 274.356 107.869 273.481 109.305 273.481C111.164 273.481 112.463 274.958 112.463 277.309C112.463 279.661 111.164 281.151 109.318 281.151C107.896 281.151 107.404 280.276 107.158 279.866H107.062V283.79H105.887ZM107.035 277.282C107.035 278.95 107.787 280.098 109.154 280.098C110.562 280.098 111.287 278.868 111.287 277.282C111.287 275.737 110.576 274.534 109.154 274.534C107.76 274.534 107.035 275.641 107.035 277.282ZM118.684 271.102V281H117.508V271.102H118.684ZM123.592 281.151C121.568 281.151 120.201 279.633 120.201 277.323C120.201 275.012 121.568 273.481 123.592 273.481C125.602 273.481 126.955 275.012 126.955 277.323C126.955 279.633 125.602 281.151 123.592 281.151ZM123.592 280.112C125.082 280.112 125.779 278.799 125.779 277.323C125.779 275.846 125.082 274.52 123.592 274.52C122.074 274.52 121.377 275.846 121.377 277.323C121.377 278.799 122.074 280.112 123.592 280.112ZM131.535 281.151C129.512 281.151 128.145 279.633 128.145 277.323C128.145 275.012 129.512 273.481 131.535 273.481C133.545 273.481 134.898 275.012 134.898 277.323C134.898 279.633 133.545 281.151 131.535 281.151ZM131.535 280.112C133.025 280.112 133.723 278.799 133.723 277.323C133.723 275.846 133.025 274.52 131.535 274.52C130.018 274.52 129.32 275.846 129.32 277.323C129.32 278.799 130.018 280.112 131.535 280.112ZM136.443 281V271.102H137.619V276.858H137.756L140.969 273.577H142.418L139.287 276.749L142.65 281H141.16L138.412 277.5L137.619 278.225V281H136.443ZM148.365 276.543V281H147.189V273.577H148.324V274.739H148.42C148.775 273.987 149.459 273.481 150.594 273.481C152.098 273.481 153.096 274.397 153.096 276.284V281H151.92V276.366C151.92 275.217 151.291 274.534 150.238 274.534C149.158 274.534 148.365 275.258 148.365 276.543ZM156.158 276.543V281H154.982V271.102H156.158V274.739H156.254C156.596 273.973 157.266 273.481 158.441 273.481C159.959 273.481 160.971 274.383 160.971 276.284V281H159.795V276.366C159.795 275.204 159.152 274.534 158.086 274.534C156.979 274.534 156.158 275.258 156.158 276.543ZM165.975 281.151C163.828 281.151 162.502 279.633 162.502 277.35C162.502 275.067 163.842 273.481 165.865 273.481C167.424 273.481 169.064 274.438 169.064 277.186V277.678H163.678C163.732 279.25 164.648 280.112 165.975 280.112C166.863 280.112 167.424 279.729 167.697 279.264H168.955C168.6 280.385 167.506 281.151 165.975 281.151ZM165.852 283.461C165.4 283.461 165.031 283.12 165.031 282.682C165.031 282.245 165.4 281.903 165.852 281.903C166.303 281.903 166.686 282.245 166.686 282.682C166.686 283.12 166.303 283.461 165.852 283.461ZM163.691 276.68H167.875C167.875 275.436 167.082 274.52 165.865 274.52C164.58 274.52 163.76 275.532 163.691 276.68ZM175.285 276.543V281H174.109V273.577H175.244V274.739H175.34C175.695 273.987 176.379 273.481 177.514 273.481C179.018 273.481 180.016 274.397 180.016 276.284V281H178.84V276.366C178.84 275.217 178.211 274.534 177.158 274.534C176.078 274.534 175.285 275.258 175.285 276.543ZM183.078 276.543V281H181.902V271.102H183.078V274.739H183.174C183.516 273.973 184.186 273.481 185.361 273.481C186.879 273.481 187.891 274.383 187.891 276.284V281H186.715V276.366C186.715 275.204 186.072 274.534 185.006 274.534C183.898 274.534 183.078 275.258 183.078 276.543ZM192.225 272.565L190.721 270.323H192.088L193.25 272.565H192.225ZM189.422 278.895C189.422 277.186 190.926 276.803 192.211 276.708C192.683 276.673 193.886 276.612 194.221 276.598V275.997C194.221 275.053 193.66 274.506 192.539 274.506C191.596 274.506 191.035 274.944 190.871 275.504H189.641C189.791 274.315 190.953 273.481 192.594 273.481C193.564 273.481 195.383 273.768 195.383 276.106V281H194.221V279.989H194.166C193.92 280.495 193.236 281.178 191.951 281.178C190.543 281.178 189.422 280.344 189.422 278.895ZM190.598 278.95C190.598 279.729 191.254 280.125 192.156 280.125C193.482 280.125 194.221 279.237 194.221 278.307V277.555L192.348 277.692C191.281 277.76 190.598 278.143 190.598 278.95ZM198.445 276.543V281H197.27V273.577H198.404V274.739H198.5C198.855 273.987 199.539 273.481 200.674 273.481C202.178 273.481 203.176 274.397 203.176 276.284V281H202V276.366C202 275.217 201.371 274.534 200.318 274.534C199.238 274.534 198.445 275.258 198.445 276.543ZM208.07 283.94C206.279 283.94 205.062 283.161 204.926 281.78H206.156C206.32 282.532 207.018 282.915 208.07 282.915C209.342 282.915 210.121 282.368 210.121 281.137V279.633H210.025C209.779 280.043 209.301 280.891 207.865 280.891C206.061 280.891 204.707 279.524 204.707 277.186C204.707 274.903 206.02 273.481 207.879 273.481C209.314 273.481 209.779 274.356 210.053 274.752H210.148V273.577H211.297V281.206C211.297 283.12 209.875 283.94 208.07 283.94ZM208.029 279.838C209.383 279.838 210.148 278.868 210.148 277.227C210.148 275.641 209.41 274.534 208.029 274.534C206.607 274.534 205.896 275.737 205.896 277.227C205.896 278.772 206.621 279.838 208.029 279.838ZM214.715 280.084L213.648 283.803H212.637L213.389 280.084H214.715ZM24.1836 293.577V294.561H22.625V298.868C22.625 299.825 23.0898 299.975 23.5957 299.975C23.8145 299.975 24.1152 299.961 24.293 299.948V301.042C24.1152 301.069 23.8145 301.096 23.4727 301.096C22.4883 301.096 21.4355 300.481 21.4355 299.168V294.561H20.3145V293.577H21.4355V291.799H22.625V293.577H24.1836ZM33.4395 293.249C33.4395 294.623 33.0156 295.368 31.5527 295.463V301H30.3906V299.743H30.3086C29.9531 300.495 29.2285 301.096 28.1074 301.096C26.6992 301.096 25.7012 300.18 25.7012 298.293V293.577H26.877V298.211C26.877 299.278 27.5469 299.961 28.4902 299.961C29.3242 299.961 30.3906 299.333 30.3906 297.952V293.577H31.5527V294.67C32.4072 294.582 32.4277 294.137 32.4277 293.249H33.4395ZM41.1094 293.03C41.1094 294.124 40.7881 294.923 39.9473 295.245C40.2412 295.833 40.3984 296.53 40.3984 297.323C40.3984 299.633 39.0449 301.151 37.0352 301.151C35.0117 301.151 33.6445 299.633 33.6445 297.323C33.6445 295.012 35.0117 293.481 37.0352 293.481C38.0332 293.481 38.874 293.857 39.4687 294.52C39.9609 294.322 40.043 293.768 40.043 293.03H41.1094ZM37.0352 300.112C38.5254 300.112 39.2227 298.799 39.2227 297.323C39.2227 295.846 38.5254 294.52 37.0352 294.52C35.5176 294.52 34.8203 295.846 34.8203 297.323C34.8203 298.799 35.5176 300.112 37.0352 300.112ZM41.9434 301V293.577H43.1191V301H41.9434ZM42.5312 292.346C42.0801 292.346 41.7109 292.004 41.7109 291.567C41.7109 291.129 42.0801 290.788 42.5312 290.788C42.9824 290.788 43.3652 291.129 43.3652 291.567C43.3652 292.004 42.9824 292.346 42.5312 292.346ZM51.7461 293.577V294.561H50.1875V298.868C50.1875 299.825 50.6523 299.975 51.1582 299.975C51.377 299.975 51.6777 299.961 51.8555 299.948V301.042C51.6777 301.069 51.377 301.096 51.0352 301.096C50.0508 301.096 48.998 300.481 48.998 299.168V294.561H47.877V293.577H48.998V291.799H50.1875V293.577H51.7461ZM58.2129 291.307C58.2129 292.141 57.4336 292.715 56.1621 292.715C54.9043 292.715 54.125 292.141 54.125 291.307H55.2187C55.2187 291.717 55.4648 292.073 56.1621 292.073C56.8594 292.073 57.1191 291.717 57.1191 291.307H58.2129ZM55.7656 291.17L56.4902 289.858H57.584L56.5039 291.17H55.7656ZM52.9082 298.895C52.9082 297.186 54.4121 296.803 55.6973 296.708C56.1689 296.673 57.3721 296.612 57.707 296.598V295.997C57.707 295.053 57.1465 294.506 56.0254 294.506C55.082 294.506 54.5215 294.944 54.3574 295.504H53.1269C53.2773 294.315 54.4394 293.481 56.0801 293.481C57.0508 293.481 58.8691 293.768 58.8691 296.106V301H57.707V299.989H57.6523C57.4062 300.495 56.7227 301.178 55.4375 301.178C54.0293 301.178 52.9082 300.344 52.9082 298.895ZM54.084 298.95C54.084 299.729 54.7402 300.125 55.6426 300.125C56.9687 300.125 57.707 299.237 57.707 298.307V297.555L55.834 297.692C54.7676 297.76 54.084 298.143 54.084 298.95ZM61.9316 296.543V301H60.7559V293.577H61.8906V294.739H61.9863C62.3418 293.987 63.0254 293.481 64.1602 293.481C65.6641 293.481 66.6621 294.397 66.6621 296.284V301H65.4863V296.366C65.4863 295.217 64.8574 294.534 63.8047 294.534C62.7246 294.534 61.9316 295.258 61.9316 296.543Z" fill="white"/>
<circle cx="300" cy="228" r="12" fill="#FFEA00"/>
<circle cx="300" cy="304" r="12" fill="#0066CC"/>
<circle cx="281" cy="233.092" r="12" transform="rotate(-30 281 233.092)" fill="#FFAA00"/>
<circle cx="319.001" cy="298.91" r="12" transform="rotate(-30 319.001 298.91)" fill="#007CBA"/>
<circle cx="267.091" cy="247.001" r="12" transform="rotate(-60 267.091 247.001)" fill="#FE5500"/>
<circle cx="332.909" cy="285.001" r="12" transform="rotate(-60 332.909 285.001)" fill="#008EAB"/>
<circle cx="262" cy="266.001" r="12" transform="rotate(-90 262 266.001)" fill="#FF0000"/>
<circle cx="338" cy="266.001" r="12" transform="rotate(-90 338 266.001)" fill="#009898"/>
<circle cx="267.092" cy="285.001" r="12" transform="rotate(-120 267.092 285.001)" fill="#F70029"/>
<circle cx="332.909" cy="247.001" r="12" transform="rotate(-120 332.909 247.001)" fill="#00AB1C"/>
<circle cx="281" cy="298.909" r="12" transform="rotate(-150 281 298.909)" fill="#7300E5"/>
<circle cx="318.999" cy="233.091" r="12" transform="rotate(-150 318.999 233.091)" fill="#BBE000"/>
</svg>
