<svg width="52" height="53" viewBox="0 0 52 53" fill="none" xmlns="http://www.w3.org/2000/svg">
<path fill-rule="evenodd" clip-rule="evenodd" d="M0 26.459C0 12.0996 11.6406 0.458984 26 0.458984C40.3594 0.458984 52 12.0996 52 26.459C52 40.8184 40.3594 52.459 26 52.459C11.6406 52.459 0 40.8184 0 26.459ZM30.2328 15.8006C31.2255 14.5191 31.978 12.7078 31.7058 10.859C30.0833 10.9717 28.1868 12.0098 27.0803 13.3629C26.0715 14.5889 25.2425 16.4127 25.5663 18.1828C27.34 18.2383 29.1707 17.1751 30.2328 15.8006ZM38.1194 21.0715C33.0099 23.8886 33.8372 31.2285 39 33.1919C38.2902 34.774 37.9486 35.481 37.0341 36.8824C35.7585 38.8386 33.9599 41.2745 31.729 41.2924C30.8119 41.3024 30.21 41.0248 29.5611 40.7254C28.8088 40.3785 27.9932 40.0023 26.5501 40.0109C25.1154 40.0186 24.2868 40.3902 23.5244 40.7322C22.8583 41.0309 22.2428 41.307 21.3179 41.2978C19.0887 41.2781 17.3843 39.0802 16.1087 37.124C12.5399 31.658 12.1646 25.2417 14.3653 21.8285C15.9308 19.4052 18.4002 17.9877 20.7201 17.9877C21.9561 17.9877 22.9522 18.3448 23.9013 18.6851C24.7651 18.9949 25.5901 19.2906 26.5216 19.2906C27.3837 19.2906 28.0924 19.0207 28.8656 18.7262C29.7934 18.3728 30.814 17.9841 32.3036 17.9841C34.3709 17.9841 36.5609 19.117 38.1194 21.0715Z" fill="black"/>
</svg>
