<svg width="40" height="40" viewBox="0 0 40 40" fill="none" xmlns="http://www.w3.org/2000/svg">
<path d="M21.0839 28.1619C22.8798 28.1619 24.6353 27.6294 26.1285 26.6317C27.6217 25.634 28.7855 24.2159 29.4727 22.5567C30.16 20.8976 30.3398 19.0719 29.9894 17.3105C29.6391 15.5492 28.7743 13.9313 27.5044 12.6614C26.2346 11.3916 24.6167 10.5268 22.8553 10.1764C21.094 9.82607 19.2683 10.0059 17.6091 10.6931C15.95 11.3804 14.5319 12.5442 13.5342 14.0374C12.5364 15.5306 12.0039 17.2861 12.0039 19.082C12.0039 20.5832 12.3671 21.9986 13.0128 23.2456L12.0039 28.1619L16.9202 27.1531C18.1672 27.7987 19.5837 28.1619 21.0839 28.1619Z" fill="#111111"/>
</svg>
