<svg width="24" height="24" viewBox="0 0 24 24" fill="none" xmlns="http://www.w3.org/2000/svg">
<g clip-path="url(#clip0_3676_25255)">
<g clip-path="url(#clip1_3676_25255)">
<path d="M18.517 24H5.483C2.46483 24 0 21.5296 0 18.517V5.483C0 2.47042 2.47042 0 5.483 0H18.517C21.5352 0 24 2.47042 24 5.483V18.517C24 21.5352 21.5352 24 18.517 24Z" fill="white"/>
<path d="M17.7066 4.81229H6.21519C4.58874 4.81229 3.2641 6.14252 3.2641 7.76339V14.9064C3.2641 16.5328 4.59433 17.8575 6.21519 17.8575H10.273L10.9716 19.0647L11.6591 20.2552C11.782 20.4732 12.095 20.4732 12.2236 20.2552L12.9111 19.0647L13.6097 17.8575H17.7122C19.3386 17.8575 20.6633 16.5272 20.6633 14.9064V7.76898C20.6633 6.14252 19.333 4.81229 17.7066 4.81229Z" fill="url(#paint0_linear_3676_25255)"/>
<path d="M12.7656 10.0438C11.877 10.0438 11.1559 10.7536 11.1559 11.6311C11.1559 12.5086 11.877 13.2184 12.7656 13.2184C13.6543 13.2184 14.3753 12.5086 14.3753 11.6311C14.3753 10.7536 13.6599 10.0438 12.7656 10.0438ZM12.7656 12.3912C12.3409 12.3912 11.9943 12.0503 11.9943 11.6311C11.9943 11.2119 12.3409 10.871 12.7656 10.871C13.1904 10.871 13.5369 11.2119 13.5369 11.6311C13.5369 12.0503 13.196 12.3912 12.7656 12.3912Z" fill="white"/>
<path d="M7.67391 10.0438C7.32738 10.0438 7.00321 10.1779 6.75169 10.4071V9.09361H5.85742V13.1458H6.75169V12.8607C7.00321 13.0843 7.32179 13.224 7.67391 13.224C8.47316 13.224 9.12151 12.5142 9.12151 11.6367C9.12151 10.7592 8.47875 10.0438 7.67391 10.0438ZM7.49506 12.4248C7.16529 12.4248 6.88024 12.2292 6.75728 11.9441C6.71816 11.8491 6.69021 11.7429 6.69021 11.6311C6.69021 11.5193 6.71257 11.4131 6.75728 11.3181C6.88024 11.0331 7.16529 10.8374 7.49506 10.8374C7.94219 10.8374 8.2999 11.1896 8.2999 11.6311C8.2999 12.0727 7.94219 12.4248 7.49506 12.4248Z" fill="white"/>
<path d="M17.1644 10.1109V10.3624C16.9128 10.1668 16.5998 10.0494 16.2645 10.0494C15.4429 10.0494 14.7778 10.7368 14.7778 11.5808C14.7778 12.4248 15.4429 13.1123 16.2645 13.1123C16.6054 13.1123 16.9184 12.9949 17.1644 12.7993V13.224C17.1644 13.224 17.0749 13.6432 16.4489 13.6432V14.4313C16.4489 14.4313 17.1252 14.5096 17.7289 13.9059C17.7289 13.9059 18.0083 13.6097 18.0698 13.2185V10.1109H17.1644ZM16.4322 12.3577C15.9794 12.3577 15.6161 12.0056 15.6161 11.5752C15.6161 11.1449 15.985 10.7927 16.4322 10.7927C16.7508 10.7927 17.0302 10.9716 17.1644 11.2287C17.2202 11.3349 17.2482 11.4523 17.2482 11.5752C17.2482 11.6982 17.2147 11.8212 17.1644 11.9218C17.0302 12.1845 16.7508 12.3577 16.4322 12.3577Z" fill="white"/>
<path d="M9.22217 9.01537V9.8258C9.22217 9.8258 9.63577 9.88169 9.71402 10.2841V13.1458H10.6362V10.2841V10.2618C10.5803 9.85933 10.34 9.55752 10.34 9.55752C9.81462 8.93712 9.22217 9.01537 9.22217 9.01537Z" fill="white"/>
</g>
</g>
<defs>
<linearGradient id="paint0_linear_3676_25255" x1="11.9626" y1="20.4176" x2="11.9626" y2="4.81386" gradientUnits="userSpaceOnUse">
<stop stop-color="#00D44D"/>
<stop offset="1" stop-color="#00E56D"/>
</linearGradient>
<clipPath id="clip0_3676_25255">
<rect width="24" height="24" rx="12" fill="white"/>
</clipPath>
<clipPath id="clip1_3676_25255">
<rect width="24" height="24" fill="white"/>
</clipPath>
</defs>
</svg>
