<svg width="41" height="40" viewBox="0 0 41 40" fill="none" xmlns="http://www.w3.org/2000/svg">
<path d="M27.5 11H12.5C12.1022 11 11.7206 11.158 11.4393 11.4393C11.158 11.7206 11 12.1022 11 12.5V27.5C11 27.8978 11.158 28.2794 11.4393 28.5607C11.7206 28.842 12.1022 29 12.5 29H27.5C27.8978 29 28.2794 28.842 28.5607 28.5607C28.842 28.2794 29 27.8978 29 27.5V12.5C29 12.1022 28.842 11.7206 28.5607 11.4393C28.2794 11.158 27.8978 11 27.5 11ZM15.125 26C14.9025 26 14.685 25.934 14.5 25.8104C14.315 25.6868 14.1708 25.5111 14.0856 25.3055C14.0005 25.1 13.9782 24.8738 14.0216 24.6555C14.065 24.4373 14.1722 24.2368 14.3295 24.0795C14.4868 23.9222 14.6873 23.815 14.9055 23.7716C15.1238 23.7282 15.35 23.7505 15.5555 23.8356C15.7611 23.9208 15.9368 24.065 16.0604 24.25C16.184 24.435 16.25 24.6525 16.25 24.875C16.25 25.1734 16.1315 25.4595 15.9205 25.6705C15.7095 25.8815 15.4234 26 15.125 26ZM15.125 21.125C14.9025 21.125 14.685 21.059 14.5 20.9354C14.315 20.8118 14.1708 20.6361 14.0856 20.4305C14.0005 20.225 13.9782 19.9988 14.0216 19.7805C14.065 19.5623 14.1722 19.3618 14.3295 19.2045C14.4868 19.0472 14.6873 18.94 14.9055 18.8966C15.1238 18.8532 15.35 18.8755 15.5555 18.9606C15.7611 19.0458 15.9368 19.19 16.0604 19.375C16.184 19.56 16.25 19.7775 16.25 20C16.25 20.2984 16.1315 20.5845 15.9205 20.7955C15.7095 21.0065 15.4234 21.125 15.125 21.125ZM15.125 16.25C14.9025 16.25 14.685 16.184 14.5 16.0604C14.315 15.9368 14.1708 15.7611 14.0856 15.5555C14.0005 15.35 13.9782 15.1238 14.0216 14.9055C14.065 14.6873 14.1722 14.4868 14.3295 14.3295C14.4868 14.1722 14.6873 14.065 14.9055 14.0216C15.1238 13.9782 15.35 14.0005 15.5555 14.0856C15.7611 14.1708 15.9368 14.315 16.0604 14.5C16.184 14.685 16.25 14.9025 16.25 15.125C16.25 15.4234 16.1315 15.7095 15.9205 15.9205C15.7095 16.1315 15.4234 16.25 15.125 16.25ZM20 26C19.7775 26 19.56 25.934 19.375 25.8104C19.19 25.6868 19.0458 25.5111 18.9606 25.3055C18.8755 25.1 18.8532 24.8738 18.8966 24.6555C18.94 24.4373 19.0472 24.2368 19.2045 24.0795C19.3618 23.9222 19.5623 23.815 19.7805 23.7716C19.9988 23.7282 20.225 23.7505 20.4305 23.8356C20.6361 23.9208 20.8118 24.065 20.9354 24.25C21.059 24.435 21.125 24.6525 21.125 24.875C21.125 25.1734 21.0065 25.4595 20.7955 25.6705C20.5845 25.8815 20.2984 26 20 26ZM20 21.125C19.7775 21.125 19.56 21.059 19.375 20.9354C19.19 20.8118 19.0458 20.6361 18.9606 20.4305C18.8755 20.225 18.8532 19.9988 18.8966 19.7805C18.94 19.5623 19.0472 19.3618 19.2045 19.2045C19.3618 19.0472 19.5623 18.94 19.7805 18.8966C19.9988 18.8532 20.225 18.8755 20.4305 18.9606C20.6361 19.0458 20.8118 19.19 20.9354 19.375C21.059 19.56 21.125 19.7775 21.125 20C21.125 20.2984 21.0065 20.5845 20.7955 20.7955C20.5845 21.0065 20.2984 21.125 20 21.125ZM20 16.25C19.7775 16.25 19.56 16.184 19.375 16.0604C19.19 15.9368 19.0458 15.7611 18.9606 15.5555C18.8755 15.35 18.8532 15.1238 18.8966 14.9055C18.94 14.6873 19.0472 14.4868 19.2045 14.3295C19.3618 14.1722 19.5623 14.065 19.7805 14.0216C19.9988 13.9782 20.225 14.0005 20.4305 14.0856C20.6361 14.1708 20.8118 14.315 20.9354 14.5C21.059 14.685 21.125 14.9025 21.125 15.125C21.125 15.4234 21.0065 15.7095 20.7955 15.9205C20.5845 16.1315 20.2984 16.25 20 16.25ZM24.875 26C24.6525 26 24.435 25.934 24.25 25.8104C24.065 25.6868 23.9208 25.5111 23.8356 25.3055C23.7505 25.1 23.7282 24.8738 23.7716 24.6555C23.815 24.4373 23.9222 24.2368 24.0795 24.0795C24.2368 23.9222 24.4373 23.815 24.6555 23.7716C24.8738 23.7282 25.1 23.7505 25.3055 23.8356C25.5111 23.9208 25.6868 24.065 25.8104 24.25C25.934 24.435 26 24.6525 26 24.875C26 25.1734 25.8815 25.4595 25.6705 25.6705C25.4595 25.8815 25.1734 26 24.875 26ZM24.875 21.125C24.6525 21.125 24.435 21.059 24.25 20.9354C24.065 20.8118 23.9208 20.6361 23.8356 20.4305C23.7505 20.225 23.7282 19.9988 23.7716 19.7805C23.815 19.5623 23.9222 19.3618 24.0795 19.2045C24.2368 19.0472 24.4373 18.94 24.6555 18.8966C24.8738 18.8532 25.1 18.8755 25.3055 18.9606C25.5111 19.0458 25.6868 19.19 25.8104 19.375C25.934 19.56 26 19.7775 26 20C26 20.2984 25.8815 20.5845 25.6705 20.7955C25.4595 21.0065 25.1734 21.125 24.875 21.125ZM24.875 16.25C24.6525 16.25 24.435 16.184 24.25 16.0604C24.065 15.9368 23.9208 15.7611 23.8356 15.5555C23.7505 15.35 23.7282 15.1238 23.7716 14.9055C23.815 14.6873 23.9222 14.4868 24.0795 14.3295C24.2368 14.1722 24.4373 14.065 24.6555 14.0216C24.8738 13.9782 25.1 14.0005 25.3055 14.0856C25.5111 14.1708 25.6868 14.315 25.8104 14.5C25.934 14.685 26 14.9025 26 15.125C26 15.4234 25.8815 15.7095 25.6705 15.9205C25.4595 16.1315 25.1734 16.25 24.875 16.25Z" fill="#2C2C2C"/>
</svg>
