<svg width="25" height="24" viewBox="0 0 25 24" fill="none" xmlns="http://www.w3.org/2000/svg">
<g id="ph:dots-nine-fill">
<path id="Vector" d="M20 3H5C4.60218 3 4.22064 3.15804 3.93934 3.43934C3.65804 3.72064 3.5 4.10218 3.5 4.5V19.5C3.5 19.8978 3.65804 20.2794 3.93934 20.5607C4.22064 20.842 4.60218 21 5 21H20C20.3978 21 20.7794 20.842 21.0607 20.5607C21.342 20.2794 21.5 19.8978 21.5 19.5V4.5C21.5 4.10218 21.342 3.72064 21.0607 3.43934C20.7794 3.15804 20.3978 3 20 3ZM7.625 18C7.4025 18 7.18499 17.934 6.99998 17.8104C6.81498 17.6868 6.67078 17.5111 6.58564 17.3055C6.50049 17.1 6.47821 16.8738 6.52162 16.6555C6.56502 16.4373 6.67217 16.2368 6.8295 16.0795C6.98684 15.9222 7.18729 15.815 7.40552 15.7716C7.62375 15.7282 7.84995 15.7505 8.05552 15.8356C8.26109 15.9208 8.43679 16.065 8.5604 16.25C8.68402 16.435 8.75 16.6525 8.75 16.875C8.75 17.1734 8.63147 17.4595 8.4205 17.6705C8.20952 17.8815 7.92337 18 7.625 18ZM7.625 13.125C7.4025 13.125 7.18499 13.059 6.99998 12.9354C6.81498 12.8118 6.67078 12.6361 6.58564 12.4305C6.50049 12.225 6.47821 11.9988 6.52162 11.7805C6.56502 11.5623 6.67217 11.3618 6.8295 11.2045C6.98684 11.0472 7.18729 10.94 7.40552 10.8966C7.62375 10.8532 7.84995 10.8755 8.05552 10.9606C8.26109 11.0458 8.43679 11.19 8.5604 11.375C8.68402 11.56 8.75 11.7775 8.75 12C8.75 12.2984 8.63147 12.5845 8.4205 12.7955C8.20952 13.0065 7.92337 13.125 7.625 13.125ZM7.625 8.25C7.4025 8.25 7.18499 8.18402 6.99998 8.0604C6.81498 7.93679 6.67078 7.76109 6.58564 7.55552C6.50049 7.34995 6.47821 7.12375 6.52162 6.90552C6.56502 6.68729 6.67217 6.48684 6.8295 6.3295C6.98684 6.17217 7.18729 6.06502 7.40552 6.02162C7.62375 5.97821 7.84995 6.00049 8.05552 6.08564C8.26109 6.17078 8.43679 6.31498 8.5604 6.49998C8.68402 6.68499 8.75 6.9025 8.75 7.125C8.75 7.42337 8.63147 7.70952 8.4205 7.9205C8.20952 8.13147 7.92337 8.25 7.625 8.25ZM12.5 18C12.2775 18 12.06 17.934 11.875 17.8104C11.69 17.6868 11.5458 17.5111 11.4606 17.3055C11.3755 17.1 11.3532 16.8738 11.3966 16.6555C11.44 16.4373 11.5472 16.2368 11.7045 16.0795C11.8618 15.9222 12.0623 15.815 12.2805 15.7716C12.4988 15.7282 12.725 15.7505 12.9305 15.8356C13.1361 15.9208 13.3118 16.065 13.4354 16.25C13.559 16.435 13.625 16.6525 13.625 16.875C13.625 17.1734 13.5065 17.4595 13.2955 17.6705C13.0845 17.8815 12.7984 18 12.5 18ZM12.5 13.125C12.2775 13.125 12.06 13.059 11.875 12.9354C11.69 12.8118 11.5458 12.6361 11.4606 12.4305C11.3755 12.225 11.3532 11.9988 11.3966 11.7805C11.44 11.5623 11.5472 11.3618 11.7045 11.2045C11.8618 11.0472 12.0623 10.94 12.2805 10.8966C12.4988 10.8532 12.725 10.8755 12.9305 10.9606C13.1361 11.0458 13.3118 11.19 13.4354 11.375C13.559 11.56 13.625 11.7775 13.625 12C13.625 12.2984 13.5065 12.5845 13.2955 12.7955C13.0845 13.0065 12.7984 13.125 12.5 13.125ZM12.5 8.25C12.2775 8.25 12.06 8.18402 11.875 8.0604C11.69 7.93679 11.5458 7.76109 11.4606 7.55552C11.3755 7.34995 11.3532 7.12375 11.3966 6.90552C11.44 6.68729 11.5472 6.48684 11.7045 6.3295C11.8618 6.17217 12.0623 6.06502 12.2805 6.02162C12.4988 5.97821 12.725 6.00049 12.9305 6.08564C13.1361 6.17078 13.3118 6.31498 13.4354 6.49998C13.559 6.68499 13.625 6.9025 13.625 7.125C13.625 7.42337 13.5065 7.70952 13.2955 7.9205C13.0845 8.13147 12.7984 8.25 12.5 8.25ZM17.375 18C17.1525 18 16.935 17.934 16.75 17.8104C16.565 17.6868 16.4208 17.5111 16.3356 17.3055C16.2505 17.1 16.2282 16.8738 16.2716 16.6555C16.315 16.4373 16.4222 16.2368 16.5795 16.0795C16.7368 15.9222 16.9373 15.815 17.1555 15.7716C17.3738 15.7282 17.6 15.7505 17.8055 15.8356C18.0111 15.9208 18.1868 16.065 18.3104 16.25C18.434 16.435 18.5 16.6525 18.5 16.875C18.5 17.1734 18.3815 17.4595 18.1705 17.6705C17.9595 17.8815 17.6734 18 17.375 18ZM17.375 13.125C17.1525 13.125 16.935 13.059 16.75 12.9354C16.565 12.8118 16.4208 12.6361 16.3356 12.4305C16.2505 12.225 16.2282 11.9988 16.2716 11.7805C16.315 11.5623 16.4222 11.3618 16.5795 11.2045C16.7368 11.0472 16.9373 10.94 17.1555 10.8966C17.3738 10.8532 17.6 10.8755 17.8055 10.9606C18.0111 11.0458 18.1868 11.19 18.3104 11.375C18.434 11.56 18.5 11.7775 18.5 12C18.5 12.2984 18.3815 12.5845 18.1705 12.7955C17.9595 13.0065 17.6734 13.125 17.375 13.125ZM17.375 8.25C17.1525 8.25 16.935 8.18402 16.75 8.0604C16.565 7.93679 16.4208 7.76109 16.3356 7.55552C16.2505 7.34995 16.2282 7.12375 16.2716 6.90552C16.315 6.68729 16.4222 6.48684 16.5795 6.3295C16.7368 6.17217 16.9373 6.06502 17.1555 6.02162C17.3738 5.97821 17.6 6.00049 17.8055 6.08564C18.0111 6.17078 18.1868 6.31498 18.3104 6.49998C18.434 6.68499 18.5 6.9025 18.5 7.125C18.5 7.42337 18.3815 7.70952 18.1705 7.9205C17.9595 8.13147 17.6734 8.25 17.375 8.25Z" fill="#D3D4DA"/>
</g>
</svg>
