<svg width="90" height="90" viewBox="0 0 90 90" fill="none" xmlns="http://www.w3.org/2000/svg">
<path d="M83.5774 50.0695L77.0524 48.832C76.6587 48.7477 76.4618 48.2977 76.6587 47.9602L82.7337 38.2007C82.9868 37.7788 82.6774 37.2726 82.1993 37.3007L70.7524 38.3413C70.3587 38.3694 70.0212 38.0038 70.1337 37.61L71.9337 31.31C72.0743 30.8038 71.5118 30.382 71.0618 30.6632L58.8274 38.3976C58.4055 38.6507 57.8712 38.3132 57.9274 37.8351L61.5274 11.5944C61.5837 11.1163 61.0774 10.7508 60.6555 11.032L51.4024 16.657C51.1212 16.8258 50.7274 16.7132 50.5868 16.432L45.3555 5.94141C45.1305 5.51953 44.5399 5.51953 44.3149 5.94141L39.0837 16.432C38.9431 16.7414 38.5493 16.8539 38.2681 16.6852L28.7056 11.032C28.2837 10.7789 27.7493 11.1444 27.8337 11.6225L32.4181 37.8351C32.5024 38.3132 31.9681 38.6789 31.5462 38.4257L18.5806 30.6351C18.1306 30.3538 17.568 30.7756 17.7087 31.2819L19.5368 37.6382C19.6493 38.0319 19.3399 38.4257 18.918 38.3694L7.47117 37.3288C6.99304 37.2726 6.68368 37.807 6.93681 38.2289L13.0118 47.9881C13.2368 48.3256 13.0399 48.8038 12.618 48.86L6.09305 50.0975C5.5868 50.1819 5.44617 50.8569 5.89617 51.1663L24.2899 63.232C24.7681 63.5414 24.8805 64.1601 24.5712 64.6383L19.143 72.3726C18.8899 72.7383 19.2556 73.2445 19.6774 73.0758L43.2462 64.4695C44.2587 64.1039 45.3837 64.1039 46.3962 64.4695L69.9649 73.0758C70.3868 73.2445 70.7805 72.7383 70.4993 72.3726L65.0712 64.6383C64.7618 64.1883 64.8743 63.5414 65.3524 63.232L83.7462 51.1663C84.2243 50.8288 84.0837 50.1539 83.5774 50.0695Z" fill="#FF8A00"/>
<path d="M44.8493 31.7031C46.4026 31.7031 47.6618 32.9623 47.6618 34.5156V57.3559L62.9688 49.4806C64.35 48.7699 66.0457 49.3136 66.7564 50.6948C67.467 52.076 66.9234 53.7718 65.5422 54.4824L47.6618 63.6817V81.4844C47.6618 83.0377 46.4026 84.2969 44.8493 84.2969C43.296 84.2969 42.0368 83.0377 42.0368 81.4844V63.6818L24.1563 54.4824C22.7751 53.7718 22.2314 52.076 22.9421 50.6948C23.6527 49.3136 25.3485 48.7699 26.7297 49.4806L42.0368 57.3559V34.5156C42.0368 32.9623 43.296 31.7031 44.8493 31.7031Z" fill="#CA0B4A"/>
</svg>
