<svg width="20" height="20" viewBox="0 0 20 20" fill="none" xmlns="http://www.w3.org/2000/svg">
<g id="tabler:pin-filled" clip-path="url(#clip0_2771_3258)">
<g id="Vector" filter="url(#filter0_d_2771_3258)">
<path d="M12.5946 2.675L12.6729 2.74416L17.2562 7.3275C17.3967 7.46873 17.4819 7.6556 17.4965 7.85427C17.5111 8.05294 17.454 8.25025 17.3356 8.41045C17.2172 8.57065 17.0453 8.68314 16.8512 8.72755C16.657 8.77195 16.4533 8.74533 16.2771 8.6525L13.6337 11.295L12.4471 14.4592C12.4158 14.5427 12.3713 14.6206 12.3154 14.69L12.2571 14.7567L11.0071 16.0067C10.8635 16.15 10.6725 16.2361 10.47 16.2486C10.2674 16.2612 10.0673 16.1995 9.90706 16.075L9.82789 16.0058L7.50039 13.6792L4.33956 16.8392C4.18959 16.9886 3.98836 17.0754 3.77674 17.0819C3.56511 17.0883 3.35896 17.014 3.20016 16.874C3.04136 16.7339 2.9418 16.5387 2.92173 16.3279C2.90165 16.1172 2.96255 15.9067 3.09206 15.7392L3.16123 15.6608L6.32123 12.5L3.99456 10.1725C3.85108 10.029 3.76489 9.83809 3.75215 9.63556C3.73942 9.43304 3.80102 9.23283 3.92539 9.0725L3.99456 8.99416L5.24456 7.74416C5.30744 7.68106 5.38002 7.62845 5.45956 7.58833L5.54123 7.55333L8.70456 6.36583L11.3471 3.72416C11.2569 3.55569 11.2275 3.36137 11.2636 3.17375C11.2996 2.98613 11.3991 2.81661 11.5453 2.69358C11.6914 2.57055 11.8754 2.50148 12.0665 2.49795C12.2575 2.49441 12.4439 2.55746 12.5946 2.675Z" fill="white"/>
</g>
</g>
<defs>
<filter id="filter0_d_2771_3258" x="0.917969" y="0.497803" width="18.5811" height="18.5844" filterUnits="userSpaceOnUse" color-interpolation-filters="sRGB">
<feFlood flood-opacity="0" result="BackgroundImageFix"/>
<feColorMatrix in="SourceAlpha" type="matrix" values="0 0 0 0 0 0 0 0 0 0 0 0 0 0 0 0 0 0 127 0" result="hardAlpha"/>
<feOffset/>
<feGaussianBlur stdDeviation="1"/>
<feComposite in2="hardAlpha" operator="out"/>
<feColorMatrix type="matrix" values="0 0 0 0 0 0 0 0 0 0 0 0 0 0 0 0 0 0 0.4 0"/>
<feBlend mode="normal" in2="BackgroundImageFix" result="effect1_dropShadow_2771_3258"/>
<feBlend mode="normal" in="SourceGraphic" in2="effect1_dropShadow_2771_3258" result="shape"/>
</filter>
<clipPath id="clip0_2771_3258">
<rect width="20" height="20" fill="white"/>
</clipPath>
</defs>
</svg>
