<svg width="350" height="316" viewBox="0 0 350 316" fill="none" xmlns="http://www.w3.org/2000/svg">
<path d="M0 16C0 7.16345 7.16344 0 16 0H226C234.837 0 242 7.16344 242 16V84C242 92.8366 234.837 100 226 100H16C7.16344 100 0 92.8366 0 84V16Z" fill="#F1407B"/>
<path d="M24.8125 44.5938C24.625 42.6562 22.9688 41.5312 20.5312 41.5312C17.9688 41.5312 16.4062 42.7812 16.4062 44.4688C16.4062 46.375 18.4062 47.1562 20.2812 47.5938L22.4062 48.1562C25.7812 48.9375 29.0312 50.7188 29.0312 54.6562C29.0312 58.625 25.9062 61.3438 20.4688 61.3438C15.1875 61.3438 11.875 58.8125 11.6875 54.3438H15.6875C15.875 56.7188 17.875 57.875 20.4375 57.875C23.125 57.875 24.9688 56.5625 24.9688 54.625C24.9688 52.8438 23.3125 52.0938 20.875 51.4688L18.3125 50.8125C14.5938 49.8438 12.2812 47.9688 12.2812 44.7188C12.2812 40.7188 15.8438 38.0625 20.5938 38.0625C25.4062 38.0625 28.6562 40.7812 28.7188 44.5938H24.8125ZM43.0625 53.875V44.0312H47.0312V61H43.1875V58H43C42.2188 59.875 40.4375 61.2188 37.9062 61.2188C34.5625 61.2188 32.25 58.9062 32.2188 54.8438V44.0312H36.2188V54.2188C36.2188 56.375 37.5 57.75 39.4375 57.75C41.1875 57.75 43.0625 56.4688 43.0625 53.875ZM50.8438 61V44.0312H54.6562V46.9062H54.875C55.5625 44.9688 57.2812 43.8125 59.5312 43.8125C61.8438 43.8125 63.4688 44.9688 64.125 46.9062H64.3125C65.0625 45.0312 66.9375 43.8125 69.4062 43.8125C72.5 43.8125 74.6875 45.8125 74.6875 49.5938V61H70.7188V50.2188C70.7188 48.0938 69.4375 47.1562 67.8125 47.1562C65.8438 47.1562 64.7188 48.5 64.7188 50.4062V61H60.8438V50.0625C60.8438 48.3125 59.6562 47.1562 57.9688 47.1562C56.25 47.1562 54.8438 48.5625 54.8438 50.6875V61H50.8438ZM78.5 61V44.0312H82.3125V46.9062H82.5312C83.2188 44.9688 84.9375 43.8125 87.1875 43.8125C89.5 43.8125 91.125 44.9688 91.7812 46.9062H91.9688C92.7188 45.0312 94.5938 43.8125 97.0625 43.8125C100.156 43.8125 102.344 45.8125 102.344 49.5938V61H98.375V50.2188C98.375 48.0938 97.0938 47.1562 95.4688 47.1562C93.5 47.1562 92.375 48.5 92.375 50.4062V61H88.5V50.0625C88.5 48.3125 87.3125 47.1562 85.625 47.1562C83.9062 47.1562 82.5 48.5625 82.5 50.6875V61H78.5ZM113.688 61.3438C108.562 61.3438 105.438 57.9375 105.438 52.625C105.438 47.375 108.625 43.8125 113.469 43.8125C117.625 43.8125 121.219 46.4062 121.219 52.375V53.625H109.375C109.422 56.5156 111.125 58.2188 113.719 58.2188C115.469 58.2188 116.656 57.4688 117.156 56.4688H121.062C120.344 59.4062 117.625 61.3438 113.688 61.3438ZM109.406 50.9062H117.406C117.375 48.5938 115.844 46.9062 113.531 46.9062C111.125 46.9062 109.531 48.7344 109.406 50.9062ZM124.312 61V44.0312H128.188V46.8438H128.375C128.969 44.9062 130.625 43.7812 132.562 43.7812C133 43.7812 133.625 43.8125 134 43.875V47.5625C133.656 47.4375 132.812 47.3125 132.156 47.3125C129.938 47.3125 128.312 48.8438 128.312 51V61H124.312ZM144.156 61V38.375H152.812C157.719 38.375 160.156 40.875 160.156 44.25C160.156 47 158.406 48.5312 156.188 49.0625V49.2812C158.594 49.4062 161.031 51.4062 161.031 54.8438C161.031 58.375 158.5 61 153.312 61H144.156ZM152.688 57.5938C155.656 57.5938 156.906 56.3125 156.906 54.5312C156.906 52.5 155.312 50.9375 152.781 50.9375H148.219V57.5938H152.688ZM152.312 48C154.469 48 156.094 46.75 156.094 44.75C156.094 43 154.844 41.75 152.406 41.75H148.219V48H152.312ZM164.156 61V44.0312H168.031V46.8438H168.219C168.812 44.9062 170.469 43.7812 172.406 43.7812C172.844 43.7812 173.469 43.8125 173.844 43.875V47.5625C173.5 47.4375 172.656 47.3125 172 47.3125C169.781 47.3125 168.156 48.8438 168.156 51V61H164.156ZM176.219 61V44.0312H180.219V61H176.219ZM178.25 41.625C177 41.625 175.938 40.6562 175.938 39.4375C175.938 38.25 177 37.2812 178.25 37.2812C179.531 37.2812 180.562 38.25 180.562 39.4375C180.562 40.6562 179.531 41.625 178.25 41.625ZM191.438 67.7188C186.938 67.7188 184.094 65.7188 183.812 62.5312H187.781C188.062 64 189.469 64.7188 191.5 64.7188C193.875 64.7188 195.438 63.6875 195.438 61.1875V57.9375H195.25C194.625 59.1875 193.281 60.75 190.344 60.75C186.438 60.75 183.344 57.9062 183.344 52.375C183.344 46.7812 186.438 43.8125 190.375 43.8125C193.375 43.8125 194.625 45.5938 195.25 46.8125H195.438V44.0312H199.375V61.2812C199.375 65.625 196.031 67.7188 191.438 67.7188ZM191.438 57.625C194 57.625 195.469 55.6875 195.469 52.4375C195.469 49.2188 194.031 47.0625 191.438 47.0625C188.781 47.0625 187.406 49.3438 187.406 52.4375C187.406 55.5625 188.812 57.625 191.438 57.625ZM207.188 51.0625V61H203.188V38.375H207.094V46.9062H207.312C208.094 45 209.719 43.8125 212.344 43.8125C215.875 43.8125 218.188 46.0938 218.188 50.1875V61H214.219V50.8125C214.219 48.5 212.969 47.1875 210.875 47.1875C208.719 47.1875 207.188 48.5938 207.188 51.0625ZM230.438 44.0312V47.0938H227.094V55.9062C227.094 57.5312 227.906 57.875 228.906 57.875C229.375 57.875 230.156 57.8438 230.656 57.8125V61.0625C230.188 61.1562 229.406 61.2188 228.406 61.2188C225.406 61.2188 223.094 59.75 223.125 56.5625V47.0938H220.688V44.0312H223.125V39.9688H227.094V44.0312H230.438Z" fill="#FEFE40"/>
<path d="M250 16C250 7.16345 257.163 0 266 0H334C342.837 0 350 7.16344 350 16V84C350 92.8366 342.837 100 334 100H266C257.163 100 250 92.8366 250 84V16Z" fill="#FEFE40"/>
<path d="M282.828 70.3662H317.172C319.766 70.3662 321.875 68.2568 321.875 65.6631V56.2881C321.875 54.5693 320.484 53.1631 318.75 53.1631H281.25C279.531 53.1631 278.125 54.5537 278.125 56.2881V65.6631C278.125 68.2725 280.234 70.3662 282.828 70.3662Z" fill="#FFCF80"/>
<path d="M318.75 51.6162H281.25C279.531 51.6162 278.125 53.0068 278.125 54.7412V57.8662H321.859V54.7412C321.859 53.0225 320.469 51.6162 318.75 51.6162Z" fill="#67DAFF"/>
<path d="M312.891 35.8975L286.125 62.6631C285.813 62.9756 285.813 63.4756 286.125 63.7881C286.438 64.1006 286.938 64.1006 287.25 63.7881L314.016 37.0225C314.328 36.71 314.328 36.21 314.016 35.8975C313.703 35.585 313.203 35.585 312.891 35.8975Z" fill="#7D4533"/>
<path d="M310.656 63.9755C311.844 65.163 313.703 65.2567 314.594 64.1005C320.687 56.1317 320.047 44.6317 312.703 37.288C305.359 29.9442 293.828 29.288 285.859 35.3817C284.703 36.2567 284.797 38.1161 285.984 39.3036L287.172 40.4911L304.641 45.3036L309.453 62.7724L310.656 63.9755Z" fill="#FF4644"/>
<path d="M309.438 62.7725C317.375 54.835 318.813 43.4288 312.656 37.2725C306.5 31.1163 295.109 32.5538 287.172 40.4913L309.438 62.7725Z" fill="#F4F4F4"/>
<path d="M303.859 57.1789C311.797 49.2414 315.734 40.3195 312.656 37.257C309.578 34.1945 300.672 38.132 292.734 46.0695L303.859 57.1789Z" fill="#FF4644"/>
<circle cx="50" cy="120" r="12" fill="#FEFE40"/>
<circle cx="50" cy="195.999" r="12" fill="#4040FF"/>
<circle cx="31.0002" cy="125.091" r="12" transform="rotate(-30 31.0002 125.091)" fill="#F1407B"/>
<circle cx="69.0002" cy="190.909" r="12" transform="rotate(-30 69.0002 190.909)" fill="#405DF2"/>
<circle cx="17.091" cy="139" r="12" transform="rotate(-60 17.091 139)" fill="#EC4096"/>
<circle cx="82.9089" cy="177" r="12" transform="rotate(-60 82.9089 177)" fill="#4077E6"/>
<circle cx="12" cy="158.001" r="12" transform="rotate(-90 12 158.001)" fill="#E240BA"/>
<circle cx="88" cy="158.001" r="12" transform="rotate(-90 88 158.001)" fill="#40B990"/>
<circle cx="17.091" cy="177" r="12" transform="rotate(-120 17.091 177)" fill="#D840D8"/>
<circle cx="82.9089" cy="139" r="12" transform="rotate(-120 82.9089 139)" fill="#40BC69"/>
<circle cx="30.9998" cy="190.908" r="12" transform="rotate(-150 30.9998 190.908)" fill="#AF40E6"/>
<circle cx="68.9998" cy="125.091" r="12" transform="rotate(-150 68.9998 125.091)" fill="#92F05C"/>
<path d="M108 124C108 115.163 115.163 108 124 108H334C342.837 108 350 115.163 350 124V192C350 200.837 342.837 208 334 208H124C115.163 208 108 200.837 108 192V124Z" fill="#4077E6"/>
<path d="M126.594 143L127.031 140.348H124.721L124.283 143H123.107L123.545 140.348H122.123L122.301 139.186H123.736L124.105 136.916H122.697L122.875 135.74H124.311L124.734 133.102H125.91L125.486 135.74H127.797L128.221 133.102H129.383L128.959 135.74H130.395L130.203 136.916H128.768L128.398 139.186H129.82L129.615 140.348H128.207L127.77 143H126.594ZM124.912 139.186H127.223L127.592 136.916H125.281L124.912 139.186ZM131.516 143V133.102H135.139C137.244 133.102 138.27 134.236 138.27 135.699C138.27 136.93 137.518 137.559 136.602 137.791V137.887C137.586 137.941 138.652 138.803 138.652 140.334C138.652 141.852 137.613 143 135.303 143H131.516ZM135.166 141.715C136.588 141.715 137.162 141.086 137.162 140.266C137.162 139.322 136.41 138.557 135.221 138.557H133.02V141.715H135.166ZM135.016 137.381C136.014 137.381 136.793 136.766 136.793 135.822C136.793 135.002 136.232 134.387 135.043 134.387H133.02V137.381H135.016ZM140.143 143V135.576H141.551V136.752H141.633C141.906 135.959 142.645 135.467 143.52 135.467C143.697 135.467 143.984 135.48 144.135 135.494V136.889C144.012 136.861 143.67 136.807 143.369 136.807C142.357 136.807 141.605 137.504 141.605 138.475V143H140.143ZM145.229 143V135.576H146.691V143H145.229ZM145.967 134.428C145.461 134.428 145.037 134.045 145.037 133.566C145.037 133.088 145.461 132.705 145.967 132.705C146.459 132.705 146.883 133.088 146.883 133.566C146.883 134.045 146.459 134.428 145.967 134.428ZM151.586 145.939C149.713 145.939 148.482 145.105 148.346 143.725H149.836C149.973 144.422 150.629 144.764 151.6 144.764C152.762 144.764 153.5 144.271 153.5 143.109V141.646H153.404C153.145 142.125 152.611 142.891 151.244 142.891C149.494 142.891 148.141 141.578 148.141 139.213C148.141 136.848 149.467 135.48 151.258 135.48C152.639 135.48 153.145 136.314 153.418 136.779H153.514V135.576H154.936V143.164C154.936 145.064 153.5 145.939 151.586 145.939ZM151.572 141.688C152.816 141.688 153.514 140.771 153.514 139.24C153.514 137.736 152.83 136.725 151.572 136.725C150.273 136.725 149.631 137.818 149.631 139.24C149.631 140.689 150.301 141.688 151.572 141.688ZM158.176 138.598V143H156.713V133.102H158.148V136.793H158.244C158.6 135.986 159.283 135.48 160.445 135.48C161.977 135.48 162.988 136.424 162.988 138.283V143H161.525V138.461C161.525 137.367 160.938 136.738 159.953 136.738C158.928 136.738 158.176 137.408 158.176 138.598ZM168.225 135.576V136.738H166.707V140.812C166.707 141.646 167.131 141.797 167.596 141.811C167.801 141.811 168.129 141.783 168.334 141.77V143.041C168.129 143.068 167.814 143.096 167.418 143.096C166.27 143.096 165.244 142.467 165.258 141.113V136.738H164.164V135.576H165.258V133.799H166.707V135.576H168.225Z" fill="white"/>
<path d="M181.594 143L182.031 140.348H179.721L179.283 143H178.107L178.545 140.348H177.123L177.301 139.186H178.736L179.105 136.916H177.697L177.875 135.74H179.311L179.734 133.102H180.91L180.486 135.74H182.797L183.221 133.102H184.383L183.959 135.74H185.395L185.203 136.916H183.768L183.398 139.186H184.82L184.615 140.348H183.207L182.77 143H181.594ZM179.912 139.186H182.223L182.592 136.916H180.281L179.912 139.186ZM191.902 135.713C191.807 134.797 191 134.264 189.865 134.264C188.648 134.264 187.883 134.879 187.883 135.727C187.883 136.67 188.908 137.025 189.688 137.217L190.645 137.477C191.916 137.777 193.488 138.475 193.502 140.266C193.488 141.934 192.162 143.164 189.824 143.164C187.609 143.164 186.215 142.057 186.119 140.252H187.623C187.719 141.332 188.662 141.852 189.824 141.852C191.082 141.852 191.998 141.209 192.012 140.238C191.998 139.377 191.191 139.021 190.139 138.748L188.963 138.434C187.377 137.996 186.379 137.189 186.379 135.809C186.379 134.1 187.91 132.965 189.906 132.965C191.916 132.965 193.324 134.113 193.365 135.713H191.902ZM198.465 135.576V136.738H196.947V140.812C196.947 141.646 197.371 141.797 197.836 141.811C198.041 141.811 198.369 141.783 198.574 141.77V143.041C198.369 143.068 198.055 143.096 197.658 143.096C196.51 143.096 195.484 142.467 195.498 141.113V136.738H194.404V135.576H195.498V133.799H196.947V135.576H198.465ZM199.887 143V135.576H201.295V136.752H201.377C201.65 135.959 202.389 135.467 203.264 135.467C203.441 135.467 203.729 135.48 203.879 135.494V136.889C203.756 136.861 203.414 136.807 203.113 136.807C202.102 136.807 201.35 137.504 201.35 138.475V143H199.887ZM207.871 143.15C205.766 143.15 204.398 141.619 204.398 139.322C204.398 137.012 205.766 135.48 207.871 135.48C209.963 135.48 211.33 137.012 211.33 139.322C211.33 141.619 209.963 143.15 207.871 143.15ZM207.871 141.934C209.211 141.934 209.854 140.744 209.854 139.322C209.854 137.9 209.211 136.684 207.871 136.684C206.504 136.684 205.861 137.9 205.861 139.322C205.861 140.744 206.504 141.934 207.871 141.934ZM214.229 138.598V143H212.766V135.576H214.174V136.793H214.256C214.611 136 215.336 135.48 216.443 135.48C217.975 135.48 218.973 136.438 218.973 138.283V143H217.523V138.461C217.523 137.381 216.936 136.738 215.951 136.738C214.953 136.738 214.229 137.408 214.229 138.598ZM223.867 145.939C221.994 145.939 220.764 145.105 220.627 143.725H222.117C222.254 144.422 222.91 144.764 223.881 144.764C225.043 144.764 225.781 144.271 225.781 143.109V141.646H225.686C225.426 142.125 224.893 142.891 223.525 142.891C221.775 142.891 220.422 141.578 220.422 139.213C220.422 136.848 221.748 135.48 223.539 135.48C224.92 135.48 225.426 136.314 225.699 136.779H225.795V135.576H227.217V143.164C227.217 145.064 225.781 145.939 223.867 145.939ZM223.854 141.688C225.098 141.688 225.795 140.771 225.795 139.24C225.795 137.736 225.111 136.725 223.854 136.725C222.555 136.725 221.912 137.818 221.912 139.24C221.912 140.689 222.582 141.688 223.854 141.688Z" fill="white"/>
<path d="M123.545 153.102L126.457 161.4H126.566L129.492 153.102H130.791L127.168 163H125.869L122.246 153.102H123.545ZM138.379 155.029C138.379 156.123 138.058 156.923 137.217 157.244C137.511 157.832 137.668 158.529 137.668 159.322C137.668 161.633 136.314 163.15 134.305 163.15C132.281 163.15 130.914 161.633 130.914 159.322C130.914 157.012 132.281 155.48 134.305 155.48C135.303 155.48 136.144 155.856 136.738 156.52C137.23 156.321 137.312 155.768 137.312 155.029H138.379ZM134.305 162.111C135.795 162.111 136.492 160.799 136.492 159.322C136.492 157.846 135.795 156.52 134.305 156.52C132.787 156.52 132.09 157.846 132.09 159.322C132.09 160.799 132.787 162.111 134.305 162.111ZM133.785 154.564L134.961 152.322H136.314L134.797 154.564H133.785ZM139.213 163V155.576H140.389V163H139.213ZM139.801 154.346C139.35 154.346 138.98 154.004 138.98 153.566C138.98 153.129 139.35 152.787 139.801 152.787C140.252 152.787 140.635 153.129 140.635 153.566C140.635 154.004 140.252 154.346 139.801 154.346ZM148.578 163.15C146.732 163.15 145.42 161.66 145.42 159.309C145.42 156.957 146.732 155.48 148.592 155.48C150.027 155.48 150.492 156.355 150.738 156.752H150.82V154.934H148.797V154.031H150.82V153.102H152.01V154.031H153.076V154.934H152.01V163H150.861V161.865H150.738C150.479 162.275 150 163.15 148.578 163.15ZM148.742 162.098C150.096 162.098 150.861 160.949 150.861 159.281C150.861 157.641 150.123 156.533 148.742 156.533C147.32 156.533 146.609 157.736 146.609 159.281C146.609 160.867 147.334 162.098 148.742 162.098ZM157.082 163.15C155.059 163.15 153.691 161.633 153.691 159.322C153.691 157.012 155.059 155.48 157.082 155.48C159.092 155.48 160.445 157.012 160.445 159.322C160.445 161.633 159.092 163.15 157.082 163.15ZM157.082 162.111C158.572 162.111 159.27 160.799 159.27 159.322C159.27 157.846 158.572 156.52 157.082 156.52C155.564 156.52 154.867 157.846 154.867 159.322C154.867 160.799 155.564 162.111 157.082 162.111ZM158.08 154.688L157.068 153.348L156.07 154.688H154.949V154.605L156.535 152.596H157.602L159.188 154.605V154.688H158.08ZM157.137 165.461C156.686 165.461 156.316 165.119 156.316 164.682C156.316 164.244 156.686 163.902 157.137 163.902C157.588 163.902 157.971 164.244 157.971 164.682C157.971 165.119 157.588 165.461 157.137 165.461ZM169.633 157.504C169.469 156.889 169.004 156.479 168.129 156.479C167.213 156.479 166.557 156.971 166.557 157.6C166.557 158.092 166.953 158.434 167.828 158.639L168.936 158.912C170.262 159.227 170.918 159.883 170.918 160.922C170.918 162.207 169.865 163.15 168.006 163.15C166.338 163.15 165.34 162.412 165.148 161.059H166.379C166.516 161.783 167.049 162.125 167.979 162.125C169.031 162.125 169.701 161.688 169.701 160.99C169.701 160.471 169.332 160.115 168.484 159.924L167.363 159.664C166.064 159.363 165.381 158.652 165.381 157.668C165.381 156.396 166.488 155.48 168.129 155.48C169.66 155.48 170.631 156.301 170.781 157.504H169.633ZM174.869 154.564L176.045 152.322H177.398L175.881 154.564H174.869ZM172.094 160.895C172.094 159.186 173.598 158.803 174.883 158.707C175.354 158.673 176.558 158.611 176.893 158.598V157.996C176.893 157.053 176.332 156.506 175.211 156.506C174.268 156.506 173.707 156.943 173.543 157.504H172.312C172.463 156.314 173.625 155.48 175.266 155.48C176.236 155.48 178.055 155.768 178.055 158.105V163H176.893V161.988H176.838C176.592 162.494 175.908 163.178 174.623 163.178C173.215 163.178 172.094 162.344 172.094 160.895ZM173.27 160.949C173.27 161.729 173.926 162.125 174.828 162.125C176.154 162.125 176.893 161.236 176.893 160.307V159.555L175.02 159.691C173.953 159.76 173.27 160.143 173.27 160.949ZM181.117 158.543V163H179.941V155.576H181.076V156.738H181.172C181.527 155.986 182.211 155.48 183.346 155.48C184.85 155.48 185.848 156.396 185.848 158.283V163H184.672V158.365C184.672 157.217 184.043 156.533 182.99 156.533C181.91 156.533 181.117 157.258 181.117 158.543ZM190.742 165.939C188.951 165.939 187.734 165.16 187.598 163.779H188.828C188.992 164.531 189.689 164.914 190.742 164.914C192.014 164.914 192.793 164.367 192.793 163.137V161.633H192.697C192.451 162.043 191.973 162.891 190.537 162.891C188.732 162.891 187.379 161.523 187.379 159.186C187.379 156.902 188.691 155.48 190.551 155.48C191.986 155.48 192.451 156.355 192.725 156.752H192.82V155.576H193.969V163.205C193.969 165.119 192.547 165.939 190.742 165.939ZM190.701 161.838C192.055 161.838 192.82 160.867 192.82 159.227C192.82 157.641 192.082 156.533 190.701 156.533C189.279 156.533 188.568 157.736 188.568 159.227C188.568 160.771 189.293 161.838 190.701 161.838ZM202.391 163.15C200.285 163.15 199 161.551 199 159.322C199 157.066 200.34 155.48 202.363 155.48C203.949 155.48 205.125 156.41 205.316 157.818H204.141C203.977 157.135 203.375 156.52 202.391 156.52C201.064 156.52 200.176 157.613 200.176 159.281C200.176 161.004 201.037 162.098 202.391 162.098C203.266 162.098 203.936 161.633 204.141 160.812H205.316C205.125 162.139 204.045 163.15 202.391 163.15ZM206.41 160.895C206.41 159.186 207.914 158.803 209.199 158.707C209.671 158.673 210.874 158.611 211.209 158.598V157.996C211.209 157.053 210.648 156.506 209.527 156.506C208.584 156.506 208.023 156.943 207.859 157.504H206.629C206.779 156.314 207.941 155.48 209.582 155.48C210.553 155.48 212.371 155.768 212.371 158.105V163H211.209V161.988H211.154C210.908 162.494 210.225 163.178 208.939 163.178C207.531 163.178 206.41 162.344 206.41 160.895ZM207.586 160.949C207.586 161.729 208.242 162.125 209.145 162.125C210.471 162.125 211.209 161.236 211.209 160.307V159.555L209.336 159.691C208.27 159.76 207.586 160.143 207.586 160.949ZM217.293 163.15C215.27 163.15 213.902 161.633 213.902 159.322C213.902 157.012 215.27 155.48 217.293 155.48C219.303 155.48 220.656 157.012 220.656 159.322C220.656 161.633 219.303 163.15 217.293 163.15ZM217.293 162.111C218.783 162.111 219.48 160.799 219.48 159.322C219.48 157.846 218.783 156.52 217.293 156.52C215.775 156.52 215.078 157.846 215.078 159.322C215.078 160.799 215.775 162.111 217.293 162.111ZM223.746 162.084L222.68 165.803H221.668L222.42 162.084H223.746ZM229.297 163V155.576H230.432V156.738H230.527C230.842 155.945 231.553 155.48 232.523 155.48C233.494 155.48 234.15 155.945 234.506 156.738H234.588C234.971 155.973 235.75 155.48 236.816 155.48C238.143 155.48 239.086 156.287 239.086 158.037V163H237.91V158.051C237.91 156.957 237.213 156.533 236.406 156.533C235.367 156.533 234.779 157.23 234.779 158.174V163H233.59V157.928C233.59 157.094 232.988 156.533 232.141 156.533C231.252 156.533 230.473 157.285 230.473 158.365V163H229.297ZM243.42 154.564L241.916 152.322H243.283L244.445 154.564H243.42ZM240.617 160.895C240.617 159.186 242.121 158.803 243.406 158.707C243.878 158.673 245.081 158.611 245.416 158.598V157.996C245.416 157.053 244.855 156.506 243.734 156.506C242.791 156.506 242.23 156.943 242.066 157.504H240.836C240.986 156.314 242.148 155.48 243.789 155.48C244.76 155.48 246.578 155.768 246.578 158.105V163H245.416V161.988H245.361C245.115 162.494 244.432 163.178 243.146 163.178C241.738 163.178 240.617 162.344 240.617 160.895ZM241.793 160.949C241.793 161.729 242.449 162.125 243.352 162.125C244.678 162.125 245.416 161.236 245.416 160.307V159.555L243.543 159.691C242.477 159.76 241.793 160.143 241.793 160.949ZM253.154 159.951V155.576H254.316V163H253.154V161.742H253.072C252.717 162.494 251.992 163.096 250.871 163.096C249.463 163.096 248.465 162.18 248.465 160.293V155.576H249.641V160.211C249.641 161.277 250.311 161.961 251.254 161.961C252.088 161.961 253.154 161.332 253.154 159.951ZM263.846 157.504C263.682 156.889 263.217 156.479 262.342 156.479C261.426 156.479 260.77 156.971 260.77 157.6C260.77 158.092 261.166 158.434 262.041 158.639L263.148 158.912C264.475 159.227 265.131 159.883 265.131 160.922C265.131 162.207 264.078 163.15 262.219 163.15C260.551 163.15 259.553 162.412 259.361 161.059H260.592C260.729 161.783 261.262 162.125 262.191 162.125C263.244 162.125 263.914 161.688 263.914 160.99C263.914 160.471 263.545 160.115 262.697 159.924L261.576 159.664C260.277 159.363 259.594 158.652 259.594 157.668C259.594 156.396 260.701 155.48 262.342 155.48C263.873 155.48 264.844 156.301 264.994 157.504H263.846ZM271.611 153.307C271.611 154.141 270.832 154.715 269.561 154.715C268.303 154.715 267.523 154.141 267.523 153.307H268.617C268.617 153.717 268.863 154.072 269.561 154.072C270.258 154.072 270.518 153.717 270.518 153.307H271.611ZM269.164 153.17L269.889 151.857H270.982L269.902 153.17H269.164ZM266.307 160.895C266.307 159.186 267.811 158.803 269.096 158.707C269.567 158.673 270.771 158.611 271.105 158.598V157.996C271.105 157.053 270.545 156.506 269.424 156.506C268.48 156.506 267.92 156.943 267.756 157.504H266.525C266.676 156.314 267.838 155.48 269.479 155.48C270.449 155.48 272.268 155.768 272.268 158.105V163H271.105V161.988H271.051C270.805 162.494 270.121 163.178 268.836 163.178C267.428 163.178 266.307 162.344 266.307 160.895ZM267.482 160.949C267.482 161.729 268.139 162.125 269.041 162.125C270.367 162.125 271.105 161.236 271.105 160.307V159.555L269.232 159.691C268.166 159.76 267.482 160.143 267.482 160.949ZM277.189 163.15C275.084 163.15 273.799 161.551 273.799 159.322C273.799 157.066 275.139 155.48 277.162 155.48C278.748 155.48 279.924 156.41 280.115 157.818H278.939C278.775 157.135 278.174 156.52 277.189 156.52C275.863 156.52 274.975 157.613 274.975 159.281C274.975 161.004 275.836 162.098 277.189 162.098C278.064 162.098 278.734 161.633 278.939 160.812H280.115C279.924 162.139 278.844 163.15 277.189 163.15ZM288.318 155.576V156.561H286.76V160.867C286.76 161.824 287.225 161.975 287.73 161.975C287.949 161.975 288.25 161.961 288.428 161.947V163.041C288.25 163.068 287.949 163.096 287.607 163.096C286.623 163.096 285.57 162.48 285.57 161.168V156.561H284.449V155.576H285.57V153.799H286.76V155.576H288.318ZM297.574 155.248C297.574 156.622 297.15 157.367 295.688 157.463V163H294.525V161.742H294.443C294.088 162.494 293.363 163.096 292.242 163.096C290.834 163.096 289.836 162.18 289.836 160.293V155.576H291.012V160.211C291.012 161.277 291.682 161.961 292.625 161.961C293.459 161.961 294.525 161.332 294.525 159.951V155.576H295.688V156.67C296.542 156.581 296.562 156.137 296.562 155.248H297.574ZM305.244 155.029C305.244 156.123 304.923 156.923 304.082 157.244C304.376 157.832 304.533 158.529 304.533 159.322C304.533 161.633 303.18 163.15 301.17 163.15C299.146 163.15 297.779 161.633 297.779 159.322C297.779 157.012 299.146 155.48 301.17 155.48C302.168 155.48 303.009 155.856 303.604 156.52C304.096 156.321 304.178 155.768 304.178 155.029H305.244ZM301.17 162.111C302.66 162.111 303.357 160.799 303.357 159.322C303.357 157.846 302.66 156.52 301.17 156.52C299.652 156.52 298.955 157.846 298.955 159.322C298.955 160.799 299.652 162.111 301.17 162.111ZM306.078 163V155.576H307.254V163H306.078ZM306.666 154.346C306.215 154.346 305.846 154.004 305.846 153.566C305.846 153.129 306.215 152.787 306.666 152.787C307.117 152.787 307.5 153.129 307.5 153.566C307.5 154.004 307.117 154.346 306.666 154.346ZM315.881 155.576V156.561H314.322V160.867C314.322 161.824 314.787 161.975 315.293 161.975C315.512 161.975 315.812 161.961 315.99 161.947V163.041C315.812 163.068 315.512 163.096 315.17 163.096C314.186 163.096 313.133 162.48 313.133 161.168V156.561H312.012V155.576H313.133V153.799H314.322V155.576H315.881ZM322.348 153.307C322.348 154.141 321.568 154.715 320.297 154.715C319.039 154.715 318.26 154.141 318.26 153.307H319.354C319.354 153.717 319.6 154.072 320.297 154.072C320.994 154.072 321.254 153.717 321.254 153.307H322.348ZM319.9 153.17L320.625 151.857H321.719L320.639 153.17H319.9ZM317.043 160.895C317.043 159.186 318.547 158.803 319.832 158.707C320.304 158.673 321.507 158.611 321.842 158.598V157.996C321.842 157.053 321.281 156.506 320.16 156.506C319.217 156.506 318.656 156.943 318.492 157.504H317.262C317.412 156.314 318.574 155.48 320.215 155.48C321.186 155.48 323.004 155.768 323.004 158.105V163H321.842V161.988H321.787C321.541 162.494 320.857 163.178 319.572 163.178C318.164 163.178 317.043 162.344 317.043 160.895ZM318.219 160.949C318.219 161.729 318.875 162.125 319.777 162.125C321.104 162.125 321.842 161.236 321.842 160.307V159.555L319.969 159.691C318.902 159.76 318.219 160.143 318.219 160.949ZM326.066 158.543V163H324.891V155.576H326.025V156.738H326.121C326.477 155.986 327.16 155.48 328.295 155.48C329.799 155.48 330.797 156.396 330.797 158.283V163H329.621V158.365C329.621 157.217 328.992 156.533 327.939 156.533C326.859 156.533 326.066 157.258 326.066 158.543ZM125.979 183.15C123.873 183.15 122.588 181.551 122.588 179.322C122.588 177.066 123.928 175.48 125.951 175.48C127.537 175.48 128.713 176.41 128.904 177.818H127.729C127.564 177.135 126.963 176.52 125.979 176.52C124.652 176.52 123.764 177.613 123.764 179.281C123.764 181.004 124.625 182.098 125.979 182.098C126.854 182.098 127.523 181.633 127.729 180.812H128.904C128.713 182.139 127.633 183.15 125.979 183.15ZM135.043 179.951V175.576H136.205V183H135.043V181.742H134.961C134.605 182.494 133.881 183.096 132.76 183.096C131.352 183.096 130.354 182.18 130.354 180.293V175.576H131.529V180.211C131.529 181.277 132.199 181.961 133.143 181.961C133.977 181.961 135.043 181.332 135.043 179.951ZM133.799 174.564H132.828V173.539C133.498 173.498 133.758 173.361 133.758 173.047C133.758 172.705 133.293 172.555 132.705 172.555L132.746 171.816C134.1 171.816 134.811 172.322 134.811 173.088C134.811 173.744 134.305 174.004 133.799 174.086V174.564ZM137.736 180.895C137.736 179.186 139.24 178.803 140.525 178.707C140.997 178.673 142.2 178.611 142.535 178.598V177.996C142.535 177.053 141.975 176.506 140.854 176.506C139.91 176.506 139.35 176.943 139.186 177.504H137.955C138.105 176.314 139.268 175.48 140.908 175.48C141.879 175.48 143.697 175.768 143.697 178.105V183H142.535V181.988H142.48C142.234 182.494 141.551 183.178 140.266 183.178C138.857 183.178 137.736 182.344 137.736 180.895ZM138.912 180.949C138.912 181.729 139.568 182.125 140.471 182.125C141.797 182.125 142.535 181.236 142.535 180.307V179.555L140.662 179.691C139.596 179.76 138.912 180.143 138.912 180.949ZM149.098 183V175.576H150.232V176.738H150.328C150.643 175.945 151.354 175.48 152.324 175.48C153.295 175.48 153.951 175.945 154.307 176.738H154.389C154.771 175.973 155.551 175.48 156.617 175.48C157.943 175.48 158.887 176.287 158.887 178.037V183H157.711V178.051C157.711 176.957 157.014 176.533 156.207 176.533C155.168 176.533 154.58 177.23 154.58 178.174V183H153.391V177.928C153.391 177.094 152.789 176.533 151.941 176.533C151.053 176.533 150.273 177.285 150.273 178.365V183H149.098ZM165.463 179.951V175.576H166.625V183H165.463V181.742H165.381C165.025 182.494 164.301 183.096 163.18 183.096C161.771 183.096 160.773 182.18 160.773 180.293V175.576H161.949V180.211C161.949 181.277 162.619 181.961 163.562 181.961C164.396 181.961 165.463 181.332 165.463 179.951ZM163.221 174.564L161.717 172.322H163.084L164.246 174.564H163.221ZM168.156 180.895C168.156 179.186 169.66 178.803 170.945 178.707C171.417 178.673 172.62 178.611 172.955 178.598V177.996C172.955 177.053 172.395 176.506 171.273 176.506C170.33 176.506 169.77 176.943 169.605 177.504H168.375C168.525 176.314 169.688 175.48 171.328 175.48C172.299 175.48 174.117 175.768 174.117 178.105V183H172.955V181.988H172.9C172.654 182.494 171.971 183.178 170.686 183.178C169.277 183.178 168.156 182.344 168.156 180.895ZM169.332 180.949C169.332 181.729 169.988 182.125 170.891 182.125C172.217 182.125 172.955 181.236 172.955 180.307V179.555L171.082 179.691C170.016 179.76 169.332 180.143 169.332 180.949ZM180.693 178.543V183H179.518V173.102H180.693V176.738H180.789C181.131 175.973 181.801 175.48 182.977 175.48C184.494 175.48 185.506 176.383 185.506 178.283V183H184.33V178.365C184.33 177.203 183.688 176.533 182.621 176.533C181.514 176.533 180.693 177.258 180.693 178.543ZM190.51 183.15C188.363 183.15 187.037 181.633 187.037 179.35C187.037 177.066 188.377 175.48 190.4 175.48C191.959 175.48 193.6 176.438 193.6 179.186V179.678H188.213C188.268 181.25 189.184 182.111 190.51 182.111C191.398 182.111 191.959 181.729 192.232 181.264H193.49C193.135 182.385 192.041 183.15 190.51 183.15ZM189.84 174.564L188.336 172.322H189.703L190.865 174.564H189.84ZM188.227 178.68H192.41C192.41 177.436 191.617 176.52 190.4 176.52C189.115 176.52 188.295 177.531 188.227 178.68ZM202.773 177.504C202.609 176.889 202.145 176.479 201.27 176.479C200.354 176.479 199.697 176.971 199.697 177.6C199.697 178.092 200.094 178.434 200.969 178.639L202.076 178.912C203.402 179.227 204.059 179.883 204.059 180.922C204.059 182.207 203.006 183.15 201.146 183.15C199.479 183.15 198.48 182.412 198.289 181.059H199.52C199.656 181.783 200.189 182.125 201.119 182.125C202.172 182.125 202.842 181.688 202.842 180.99C202.842 180.471 202.473 180.115 201.625 179.924L200.504 179.664C199.205 179.363 198.521 178.652 198.521 177.668C198.521 176.396 199.629 175.48 201.27 175.48C202.801 175.48 203.771 176.301 203.922 177.504H202.773ZM208.707 183.15C206.561 183.15 205.234 181.633 205.234 179.35C205.234 177.066 206.574 175.48 208.598 175.48C210.156 175.48 211.797 176.438 211.797 179.186V179.678H206.41C206.465 181.25 207.381 182.111 208.707 182.111C209.596 182.111 210.156 181.729 210.43 181.264H211.688C211.332 182.385 210.238 183.15 208.707 183.15ZM206.137 174.646C206.137 173.648 206.793 172.951 207.613 172.951C208.365 172.951 208.693 173.566 209.377 173.566C209.746 173.566 210.033 173.252 210.033 172.842L210.922 172.91C210.922 173.936 210.266 174.564 209.432 174.564C208.543 174.564 208.406 173.949 207.682 173.949C207.312 173.949 207.053 174.277 207.053 174.688L206.137 174.646ZM206.424 178.68H210.607C210.607 177.436 209.814 176.52 208.598 176.52C207.312 176.52 206.492 177.531 206.424 178.68ZM218.018 178.543V183H216.842V173.102H218.018V176.738H218.113C218.455 175.973 219.125 175.48 220.301 175.48C221.818 175.48 222.83 176.383 222.83 178.283V183H221.654V178.365C221.654 177.203 221.012 176.533 219.945 176.533C218.838 176.533 218.018 177.258 218.018 178.543ZM231.826 175.029C231.826 176.123 231.505 176.923 230.664 177.244C230.958 177.832 231.115 178.529 231.115 179.322C231.115 181.633 229.762 183.15 227.752 183.15C225.729 183.15 224.361 181.633 224.361 179.322C224.361 177.012 225.729 175.48 227.752 175.48C228.75 175.48 229.591 175.856 230.186 176.52C230.678 176.321 230.76 175.768 230.76 175.029H231.826ZM227.752 182.111C229.242 182.111 229.939 180.799 229.939 179.322C229.939 177.846 229.242 176.52 227.752 176.52C226.234 176.52 225.537 177.846 225.537 179.322C225.537 180.799 226.234 182.111 227.752 182.111ZM227.807 185.461C227.355 185.461 226.986 185.119 226.986 184.682C226.986 184.244 227.355 183.902 227.807 183.902C228.258 183.902 228.641 184.244 228.641 184.682C228.641 185.119 228.258 185.461 227.807 185.461ZM232.66 185.789V175.576H233.795V176.752H233.932C234.178 176.355 234.643 175.48 236.078 175.48C237.938 175.48 239.236 176.957 239.236 179.309C239.236 181.66 237.938 183.15 236.092 183.15C234.67 183.15 234.178 182.275 233.932 181.865H233.836V185.789H232.66ZM233.809 179.281C233.809 180.949 234.561 182.098 235.928 182.098C237.336 182.098 238.061 180.867 238.061 179.281C238.061 177.736 237.35 176.533 235.928 176.533C234.533 176.533 233.809 177.641 233.809 179.281ZM250.393 175.576L247.645 183H246.428L243.693 175.576H244.979L247.002 181.469H247.084L249.107 175.576H250.393ZM258.527 175.029C258.527 176.123 258.206 176.923 257.365 177.244C257.659 177.832 257.816 178.529 257.816 179.322C257.816 181.633 256.463 183.15 254.453 183.15C252.43 183.15 251.062 181.633 251.062 179.322C251.062 177.012 252.43 175.48 254.453 175.48C255.451 175.48 256.292 175.856 256.887 176.52C257.379 176.321 257.461 175.768 257.461 175.029H258.527ZM254.453 182.111C255.943 182.111 256.641 180.799 256.641 179.322C256.641 177.846 255.943 176.52 254.453 176.52C252.936 176.52 252.238 177.846 252.238 179.322C252.238 180.799 252.936 182.111 254.453 182.111ZM253.934 174.564L255.109 172.322H256.463L254.945 174.564H253.934ZM259.361 183V175.576H260.537V183H259.361ZM259.949 174.346C259.498 174.346 259.129 174.004 259.129 173.566C259.129 173.129 259.498 172.787 259.949 172.787C260.4 172.787 260.783 173.129 260.783 173.566C260.783 174.004 260.4 174.346 259.949 174.346ZM266.074 183V173.102H267.25V176.752H267.346C267.605 176.355 268.043 175.48 269.492 175.48C271.352 175.48 272.664 176.957 272.664 179.309C272.664 181.66 271.352 183.15 269.506 183.15C268.084 183.15 267.605 182.275 267.346 181.865H267.209V183H266.074ZM267.223 179.281C267.223 180.949 267.975 182.098 269.328 182.098C270.736 182.098 271.475 180.867 271.475 179.281C271.475 177.736 270.764 176.533 269.328 176.533C267.961 176.533 267.223 177.641 267.223 179.281ZM277.121 185.461C276.67 185.461 276.301 185.119 276.301 184.682C276.301 184.244 276.67 183.902 277.121 183.902C277.572 183.902 277.955 184.244 277.955 184.682C277.955 185.119 277.572 185.461 277.121 185.461ZM273.84 180.895C273.84 179.186 275.344 178.803 276.629 178.707C277.101 178.673 278.304 178.611 278.639 178.598V177.996C278.639 177.053 278.078 176.506 276.957 176.506C276.014 176.506 275.453 176.943 275.289 177.504H274.059C274.209 176.314 275.371 175.48 277.012 175.48C277.982 175.48 279.801 175.768 279.801 178.105V183H278.639V181.988H278.584C278.338 182.494 277.654 183.178 276.369 183.178C274.961 183.178 273.84 182.344 273.84 180.895ZM275.016 180.949C275.016 181.729 275.672 182.125 276.574 182.125C277.9 182.125 278.639 181.236 278.639 180.307V179.555L276.766 179.691C275.699 179.76 275.016 180.143 275.016 180.949ZM282.863 178.543V183H281.688V175.576H282.822V176.738H282.918C283.273 175.986 283.957 175.48 285.092 175.48C286.596 175.48 287.594 176.396 287.594 178.283V183H286.418V178.365C286.418 177.217 285.789 176.533 284.736 176.533C283.656 176.533 282.863 177.258 282.863 178.543ZM295.797 183.15C293.951 183.15 292.639 181.66 292.639 179.309C292.639 176.957 293.951 175.48 295.811 175.48C297.246 175.48 297.711 176.355 297.957 176.752H298.039V174.934H296.016V174.031H298.039V173.102H299.229V174.031H300.295V174.934H299.229V183H298.08V181.865H297.957C297.697 182.275 297.219 183.15 295.797 183.15ZM295.961 182.098C297.314 182.098 298.08 180.949 298.08 179.281C298.08 177.641 297.342 176.533 295.961 176.533C294.539 176.533 293.828 177.736 293.828 179.281C293.828 180.867 294.553 182.098 295.961 182.098ZM304.301 183.15C302.277 183.15 300.91 181.633 300.91 179.322C300.91 177.012 302.277 175.48 304.301 175.48C306.311 175.48 307.664 177.012 307.664 179.322C307.664 181.633 306.311 183.15 304.301 183.15ZM304.301 182.111C305.791 182.111 306.488 180.799 306.488 179.322C306.488 177.846 305.791 176.52 304.301 176.52C302.783 176.52 302.086 177.846 302.086 179.322C302.086 180.799 302.783 182.111 304.301 182.111ZM303.781 174.564L304.957 172.322H306.311L304.793 174.564H303.781ZM310.043 183.082C309.564 183.082 309.154 182.686 309.168 182.193C309.154 181.715 309.564 181.318 310.043 181.318C310.521 181.318 310.918 181.715 310.918 182.193C310.918 182.686 310.521 183.082 310.043 183.082Z" fill="white"/>
<path d="M0 232C0 223.163 7.16344 216 16 216H226C234.837 216 242 223.163 242 232V300C242 308.837 234.837 316 226 316H16C7.16344 316 0 308.837 0 300V232Z" fill="#40B990"/>
<path d="M24.5938 251L25.0312 248.348H22.7207L22.2832 251H21.1074L21.5449 248.348H20.123L20.3008 247.186H21.7363L22.1055 244.916H20.6973L20.875 243.74H22.3105L22.7344 241.102H23.9102L23.4863 243.74H25.7969L26.2207 241.102H27.3828L26.959 243.74H28.3945L28.2031 244.916H26.7676L26.3984 247.186H27.8203L27.6152 248.348H26.207L25.7695 251H24.5938ZM22.9121 247.186H25.2227L25.5918 244.916H23.2812L22.9121 247.186ZM29.0234 242.4V241.102H36.6934V242.4H33.6172V251H32.1133V242.4H29.0234ZM45.252 243.221C45.252 244.643 44.7871 245.429 43.2695 245.545V251H41.8477V249.715H41.7656C41.4238 250.508 40.6582 251.096 39.5508 251.096C38.1152 251.096 37.1035 250.139 37.1035 248.293V243.576H38.5664V248.115C38.5664 249.127 39.1816 249.77 40.0703 249.77C40.877 249.77 41.8203 249.182 41.8203 247.91V243.576H43.2695V244.684C44.1309 244.595 44.1719 244.13 44.1719 243.221H45.252ZM53.127 243.057C53.127 244.171 52.792 244.964 51.9785 245.312C52.252 245.88 52.4023 246.563 52.4023 247.322C52.4023 249.619 51.0352 251.15 48.9434 251.15C46.8379 251.15 45.4707 249.619 45.4707 247.322C45.4707 245.012 46.8379 243.48 48.9434 243.48C50.0098 243.48 50.8848 243.877 51.5 244.574C51.917 244.328 52.0059 243.781 52.0059 243.057H53.127ZM48.9434 249.934C50.2832 249.934 50.9258 248.744 50.9258 247.322C50.9258 245.9 50.2832 244.684 48.9434 244.684C47.5762 244.684 46.9336 245.9 46.9336 247.322C46.9336 248.744 47.5762 249.934 48.9434 249.934ZM53.9336 251V243.576H55.3965V251H53.9336ZM54.6719 242.428C54.166 242.428 53.7422 242.045 53.7422 241.566C53.7422 241.088 54.166 240.705 54.6719 240.705C55.1641 240.705 55.5879 241.088 55.5879 241.566C55.5879 242.045 55.1641 242.428 54.6719 242.428ZM60.5918 251V243.576H62V244.793H62.082C62.3965 243.959 63.1211 243.48 64.1055 243.48C65.0898 243.48 65.7871 243.973 66.1016 244.793H66.1836C66.5391 243.986 67.332 243.48 68.4121 243.48C69.752 243.48 70.709 244.328 70.709 246.023V251H69.2461V246.16C69.2461 245.162 68.6172 244.738 67.8516 244.738C66.9082 244.738 66.375 245.381 66.375 246.27V251H64.9258V246.078C64.9258 245.271 64.3652 244.738 63.5723 244.738C62.752 244.738 62.0547 245.422 62.0547 246.42V251H60.5918ZM74.9199 242.578L76.041 240.35H77.5723L76.0684 242.578H74.9199ZM72.1309 248.908C72.1309 247.213 73.5664 246.775 74.9062 246.68C75.3984 246.646 76.5127 246.584 76.8613 246.57L76.8477 245.982C76.8477 245.148 76.3418 244.656 75.3438 244.656C74.4824 244.656 73.9629 245.053 73.8125 245.6H72.3633C72.5 244.369 73.6484 243.48 75.3984 243.48C76.5742 243.48 78.3105 243.918 78.3105 246.064V251H76.8887V249.988H76.834C76.5469 250.549 75.8633 251.164 74.6328 251.164C73.2246 251.164 72.1309 250.357 72.1309 248.908ZM73.5527 248.922C73.5527 249.633 74.1406 250.002 74.9609 250.002C76.1504 250.002 76.8613 249.209 76.8613 248.32V247.637L75.1113 247.76C74.1543 247.828 73.5527 248.184 73.5527 248.922ZM83.5469 243.576V244.738H82.0293V248.812C82.0293 249.646 82.4531 249.797 82.918 249.811C83.123 249.811 83.4512 249.783 83.6562 249.77V251.041C83.4512 251.068 83.1367 251.096 82.7402 251.096C81.5918 251.096 80.5664 250.467 80.5801 249.113V244.738H79.4863V243.576H80.5801V241.799H82.0293V243.576H83.5469Z" fill="white"/>
<path d="M97.5938 251L98.0312 248.348H95.7207L95.2832 251H94.1074L94.5449 248.348H93.123L93.3008 247.186H94.7363L95.1055 244.916H93.6973L93.875 243.74H95.3105L95.7344 241.102H96.9102L96.4863 243.74H98.7969L99.2207 241.102H100.383L99.959 243.74H101.395L101.203 244.916H99.7676L99.3984 247.186H100.82L100.615 248.348H99.207L98.7695 251H97.5938ZM95.9121 247.186H98.2227L98.5918 244.916H96.2812L95.9121 247.186ZM107.902 243.713C107.807 242.797 107 242.264 105.865 242.264C104.648 242.264 103.883 242.879 103.883 243.727C103.883 244.67 104.908 245.025 105.688 245.217L106.645 245.477C107.916 245.777 109.488 246.475 109.502 248.266C109.488 249.934 108.162 251.164 105.824 251.164C103.609 251.164 102.215 250.057 102.119 248.252H103.623C103.719 249.332 104.662 249.852 105.824 249.852C107.082 249.852 107.998 249.209 108.012 248.238C107.998 247.377 107.191 247.021 106.139 246.748L104.963 246.434C103.377 245.996 102.379 245.189 102.379 243.809C102.379 242.1 103.91 240.965 105.906 240.965C107.916 240.965 109.324 242.113 109.365 243.713H107.902ZM114.137 251.15C112.031 251.15 110.664 249.619 110.664 247.322C110.664 245.012 112.031 243.48 114.137 243.48C116.229 243.48 117.596 245.012 117.596 247.322C117.596 249.619 116.229 251.15 114.137 251.15ZM114.137 249.934C115.477 249.934 116.119 248.744 116.119 247.322C116.119 245.9 115.477 244.684 114.137 244.684C112.77 244.684 112.127 245.9 112.127 247.322C112.127 248.744 112.77 249.934 114.137 249.934ZM111.635 242.688L113.59 241.02H114.67L116.639 242.688H115.217L114.137 241.744L113.057 242.688H111.635ZM116.119 241.621L117.131 239.857H118.621L117.186 241.621H116.119ZM120.494 246.598V251H119.031V243.576H120.439V244.793H120.521C120.877 244 121.602 243.48 122.709 243.48C124.24 243.48 125.238 244.438 125.238 246.283V251H123.789V246.461C123.789 245.381 123.201 244.738 122.217 244.738C121.219 244.738 120.494 245.408 120.494 246.598ZM130.133 253.939C128.26 253.939 127.029 253.105 126.893 251.725H128.383C128.52 252.422 129.176 252.764 130.146 252.764C131.309 252.764 132.047 252.271 132.047 251.109V249.646H131.951C131.691 250.125 131.158 250.891 129.791 250.891C128.041 250.891 126.688 249.578 126.688 247.213C126.688 244.848 128.014 243.48 129.805 243.48C131.186 243.48 131.691 244.314 131.965 244.779H132.061V243.576H133.482V251.164C133.482 253.064 132.047 253.939 130.133 253.939ZM130.119 249.688C131.363 249.688 132.061 248.771 132.061 247.24C132.061 245.736 131.377 244.725 130.119 244.725C128.82 244.725 128.178 245.818 128.178 247.24C128.178 248.689 128.848 249.688 130.119 249.688ZM141.453 251.15C139.662 251.15 138.35 249.701 138.35 247.309C138.35 244.889 139.676 243.48 141.467 243.48C142.848 243.48 143.354 244.314 143.613 244.779H143.682V242.975H141.686V241.977H143.682V241.102H145.145V241.977H146.129V242.975H145.145V251H143.723V249.838H143.613C143.34 250.33 142.807 251.15 141.453 251.15ZM141.781 249.906C143.025 249.906 143.723 248.84 143.723 247.281C143.723 245.736 143.039 244.725 141.781 244.725C140.482 244.725 139.84 245.818 139.84 247.281C139.84 248.771 140.51 249.906 141.781 249.906ZM150.189 251.15C148.084 251.15 146.717 249.619 146.717 247.322C146.717 245.012 148.084 243.48 150.189 243.48C152.281 243.48 153.648 245.012 153.648 247.322C153.648 249.619 152.281 251.15 150.189 251.15ZM150.189 249.934C151.529 249.934 152.172 248.744 152.172 247.322C152.172 245.9 151.529 244.684 150.189 244.684C148.822 244.684 148.18 245.9 148.18 247.322C148.18 248.744 148.822 249.934 150.189 249.934ZM151.174 242.674L150.189 241.389L149.191 242.674H147.879V242.605L149.574 240.555H150.791L152.5 242.605V242.674H151.174ZM150.258 253.557C149.752 253.557 149.328 253.174 149.328 252.695C149.328 252.217 149.752 251.834 150.258 251.834C150.75 251.834 151.174 252.217 151.174 252.695C151.174 253.174 150.75 253.557 150.258 253.557ZM156.547 246.598V251H155.084V243.576H156.492V244.793H156.574C156.93 244 157.654 243.48 158.762 243.48C160.293 243.48 161.291 244.438 161.291 246.283V251H159.842V246.461C159.842 245.381 159.254 244.738 158.27 244.738C157.271 244.738 156.547 245.408 156.547 246.598ZM166.186 253.939C164.312 253.939 163.082 253.105 162.945 251.725H164.436C164.572 252.422 165.229 252.764 166.199 252.764C167.361 252.764 168.1 252.271 168.1 251.109V249.646H168.004C167.744 250.125 167.211 250.891 165.844 250.891C164.094 250.891 162.74 249.578 162.74 247.213C162.74 244.848 164.066 243.48 165.857 243.48C167.238 243.48 167.744 244.314 168.018 244.779H168.113V243.576H169.535V251.164C169.535 253.064 168.1 253.939 166.186 253.939ZM166.172 249.688C167.416 249.688 168.113 248.771 168.113 247.24C168.113 245.736 167.43 244.725 166.172 244.725C164.873 244.725 164.23 245.818 164.23 247.24C164.23 248.689 164.9 249.688 166.172 249.688Z" fill="white"/>
<path d="M28.9551 261.102V271H27.7793L22.4199 263.289H22.3242V271H21.0938V261.102H22.2832L27.6426 268.826H27.7383V261.102H28.9551ZM32.168 266.543V271H30.9922V261.102H32.168V264.738H32.2637C32.6055 263.973 33.2754 263.48 34.4512 263.48C35.9688 263.48 36.9805 264.383 36.9805 266.283V271H35.8047V266.365C35.8047 265.203 35.1621 264.533 34.0957 264.533C32.9883 264.533 32.168 265.258 32.168 266.543ZM46.6055 263.248C46.6055 264.622 46.1816 265.367 44.7188 265.463V271H43.5566V269.742H43.4746C43.1191 270.494 42.3945 271.096 41.2734 271.096C39.8652 271.096 38.8672 270.18 38.8672 268.293V263.576H40.043V268.211C40.043 269.277 40.7129 269.961 41.6562 269.961C42.4902 269.961 43.5566 269.332 43.5566 267.951V263.576H44.7188V264.67C45.5732 264.581 45.5938 264.137 45.5938 263.248H46.6055ZM39.4141 262.646C39.4141 261.648 40.0703 260.951 40.8906 260.951C41.6426 260.951 41.9707 261.566 42.6543 261.566C43.0234 261.566 43.3105 261.252 43.3105 260.842L44.1992 260.91C44.1992 261.936 43.543 262.564 42.709 262.564C41.8203 262.564 41.6836 261.949 40.959 261.949C40.5898 261.949 40.3301 262.277 40.3301 262.688L39.4141 262.646ZM48.3418 266.543V271H47.166V263.576H48.3008V264.738H48.3965C48.752 263.986 49.4355 263.48 50.5703 263.48C52.0742 263.48 53.0723 264.396 53.0723 266.283V271H51.8965V266.365C51.8965 265.217 51.2676 264.533 50.2148 264.533C49.1348 264.533 48.3418 265.258 48.3418 266.543ZM57.9668 273.939C56.1758 273.939 54.959 273.16 54.8223 271.779H56.0527C56.2168 272.531 56.9141 272.914 57.9668 272.914C59.2383 272.914 60.0176 272.367 60.0176 271.137V269.633H59.9219C59.6758 270.043 59.1973 270.891 57.7617 270.891C55.957 270.891 54.6035 269.523 54.6035 267.186C54.6035 264.902 55.916 263.48 57.7754 263.48C59.2109 263.48 59.6758 264.355 59.9492 264.752H60.0449V263.576H61.1934V271.205C61.1934 273.119 59.7715 273.939 57.9668 273.939ZM57.9258 269.838C59.2793 269.838 60.0449 268.867 60.0449 267.227C60.0449 265.641 59.3066 264.533 57.9258 264.533C56.5039 264.533 55.793 265.736 55.793 267.227C55.793 268.771 56.5176 269.838 57.9258 269.838ZM66.5801 271V263.576H67.7148V264.738H67.8105C68.125 263.945 68.8359 263.48 69.8066 263.48C70.7773 263.48 71.4336 263.945 71.7891 264.738H71.8711C72.2539 263.973 73.0332 263.48 74.0996 263.48C75.4258 263.48 76.3691 264.287 76.3691 266.037V271H75.1934V266.051C75.1934 264.957 74.4961 264.533 73.6895 264.533C72.6504 264.533 72.0625 265.23 72.0625 266.174V271H70.873V265.928C70.873 265.094 70.2715 264.533 69.4238 264.533C68.5352 264.533 67.7559 265.285 67.7559 266.365V271H66.5801ZM80.7031 262.564L79.1992 260.322H80.5664L81.7285 262.564H80.7031ZM77.9004 268.895C77.9004 267.186 79.4043 266.803 80.6895 266.707C81.1611 266.673 82.3643 266.611 82.6992 266.598V265.996C82.6992 265.053 82.1387 264.506 81.0176 264.506C80.0742 264.506 79.5137 264.943 79.3496 265.504H78.1191C78.2695 264.314 79.4316 263.48 81.0723 263.48C82.043 263.48 83.8613 263.768 83.8613 266.105V271H82.6992V269.988H82.6445C82.3984 270.494 81.7148 271.178 80.4297 271.178C79.0215 271.178 77.9004 270.344 77.9004 268.895ZM79.0762 268.949C79.0762 269.729 79.7324 270.125 80.6348 270.125C81.9609 270.125 82.6992 269.236 82.6992 268.307V267.555L80.8262 267.691C79.7598 267.76 79.0762 268.143 79.0762 268.949ZM90.4375 267.951V263.576H91.5996V271H90.4375V269.742H90.3555C90 270.494 89.2754 271.096 88.1543 271.096C86.7461 271.096 85.748 270.18 85.748 268.293V263.576H86.9238V268.211C86.9238 269.277 87.5938 269.961 88.5371 269.961C89.3711 269.961 90.4375 269.332 90.4375 267.951ZM98.1758 266.543V271H97V263.576H98.1348V264.738H98.2305C98.5859 263.986 99.2695 263.48 100.404 263.48C101.908 263.48 102.906 264.396 102.906 266.283V271H101.73V266.365C101.73 265.217 101.102 264.533 100.049 264.533C98.9688 264.533 98.1758 265.258 98.1758 266.543ZM105.969 266.543V271H104.793V261.102H105.969V264.738H106.064C106.406 263.973 107.076 263.48 108.252 263.48C109.77 263.48 110.781 264.383 110.781 266.283V271H109.605V266.365C109.605 265.203 108.963 264.533 107.896 264.533C106.789 264.533 105.969 265.258 105.969 266.543ZM120.406 263.248C120.406 264.622 119.982 265.367 118.52 265.463V271H117.357V269.742H117.275C116.92 270.494 116.195 271.096 115.074 271.096C113.666 271.096 112.668 270.18 112.668 268.293V263.576H113.844V268.211C113.844 269.277 114.514 269.961 115.457 269.961C116.291 269.961 117.357 269.332 117.357 267.951V263.576H118.52V264.67C119.374 264.581 119.395 264.137 119.395 263.248H120.406ZM125.656 266.543V271H124.48V261.102H125.656V264.738H125.752C126.094 263.973 126.764 263.48 127.939 263.48C129.457 263.48 130.469 264.383 130.469 266.283V271H129.293V266.365C129.293 265.203 128.65 264.533 127.584 264.533C126.477 264.533 125.656 265.258 125.656 266.543ZM135.391 271.15C133.367 271.15 132 269.633 132 267.322C132 265.012 133.367 263.48 135.391 263.48C137.4 263.48 138.754 265.012 138.754 267.322C138.754 269.633 137.4 271.15 135.391 271.15ZM135.391 270.111C136.881 270.111 137.578 268.799 137.578 267.322C137.578 265.846 136.881 264.52 135.391 264.52C133.873 264.52 133.176 265.846 133.176 267.322C133.176 268.799 133.873 270.111 135.391 270.111ZM135.91 260.91L137.893 262.66H136.498L135.391 261.635L134.297 262.66H132.902L134.857 260.91H135.91ZM132.465 259.721L133.408 261.498H132.41L131.029 259.721H132.465ZM141.475 266.543V271H140.299V263.576H141.434V264.738H141.529C141.885 263.986 142.568 263.48 143.703 263.48C145.207 263.48 146.205 264.396 146.205 266.283V271H145.029V266.365C145.029 265.217 144.4 264.533 143.348 264.533C142.268 264.533 141.475 265.258 141.475 266.543ZM151.1 273.939C149.309 273.939 148.092 273.16 147.955 271.779H149.186C149.35 272.531 150.047 272.914 151.1 272.914C152.371 272.914 153.15 272.367 153.15 271.137V269.633H153.055C152.809 270.043 152.33 270.891 150.895 270.891C149.09 270.891 147.736 269.523 147.736 267.186C147.736 264.902 149.049 263.48 150.908 263.48C152.344 263.48 152.809 264.355 153.082 264.752H153.178V263.576H154.326V271.205C154.326 273.119 152.904 273.939 151.1 273.939ZM151.059 269.838C152.412 269.838 153.178 268.867 153.178 267.227C153.178 265.641 152.439 264.533 151.059 264.533C149.637 264.533 148.926 265.736 148.926 267.227C148.926 268.771 149.65 269.838 151.059 269.838ZM162.748 271.15C160.643 271.15 159.357 269.551 159.357 267.322C159.357 265.066 160.697 263.48 162.721 263.48C164.307 263.48 165.482 264.41 165.674 265.818H164.498C164.334 265.135 163.732 264.52 162.748 264.52C161.422 264.52 160.533 265.613 160.533 267.281C160.533 269.004 161.395 270.098 162.748 270.098C163.623 270.098 164.293 269.633 164.498 268.812H165.674C165.482 270.139 164.402 271.15 162.748 271.15ZM169.543 262.564L170.719 260.322H172.072L170.555 262.564H169.543ZM166.768 268.895C166.768 267.186 168.271 266.803 169.557 266.707C170.028 266.673 171.231 266.611 171.566 266.598V265.996C171.566 265.053 171.006 264.506 169.885 264.506C168.941 264.506 168.381 264.943 168.217 265.504H166.986C167.137 264.314 168.299 263.48 169.939 263.48C170.91 263.48 172.729 263.768 172.729 266.105V271H171.566V269.988H171.512C171.266 270.494 170.582 271.178 169.297 271.178C167.889 271.178 166.768 270.344 166.768 268.895ZM167.943 268.949C167.943 269.729 168.6 270.125 169.502 270.125C170.828 270.125 171.566 269.236 171.566 268.307V267.555L169.693 267.691C168.627 267.76 167.943 268.143 167.943 268.949ZM175.791 266.543V271H174.615V263.576H175.75V264.738H175.846C176.201 263.986 176.885 263.48 178.02 263.48C179.523 263.48 180.521 264.396 180.521 266.283V271H179.346V266.365C179.346 265.217 178.717 264.533 177.664 264.533C176.584 264.533 175.791 265.258 175.791 266.543ZM183.584 266.543V271H182.408V261.102H183.584V264.738H183.68C184.021 263.973 184.691 263.48 185.867 263.48C187.385 263.48 188.396 264.383 188.396 266.283V271H187.221V266.365C187.221 265.203 186.578 264.533 185.512 264.533C184.404 264.533 183.584 265.258 183.584 266.543ZM197.926 265.504C197.762 264.889 197.297 264.479 196.422 264.479C195.506 264.479 194.85 264.971 194.85 265.6C194.85 266.092 195.246 266.434 196.121 266.639L197.229 266.912C198.555 267.227 199.211 267.883 199.211 268.922C199.211 270.207 198.158 271.15 196.299 271.15C194.631 271.15 193.633 270.412 193.441 269.059H194.672C194.809 269.783 195.342 270.125 196.271 270.125C197.324 270.125 197.994 269.688 197.994 268.99C197.994 268.471 197.625 268.115 196.777 267.924L195.656 267.664C194.357 267.363 193.674 266.652 193.674 265.668C193.674 264.396 194.781 263.48 196.422 263.48C197.953 263.48 198.924 264.301 199.074 265.504H197.926ZM203.859 271.15C201.713 271.15 200.387 269.633 200.387 267.35C200.387 265.066 201.727 263.48 203.75 263.48C205.309 263.48 206.949 264.438 206.949 267.186V267.678H201.562C201.617 269.25 202.533 270.111 203.859 270.111C204.748 270.111 205.309 269.729 205.582 269.264H206.84C206.484 270.385 205.391 271.15 203.859 271.15ZM201.576 266.68H205.76C205.76 265.436 204.967 264.52 203.75 264.52C202.465 264.52 201.645 265.531 201.576 266.68ZM209.656 266.543V271H208.48V263.576H209.615V264.738H209.711C210.066 263.986 210.75 263.48 211.885 263.48C213.389 263.48 214.387 264.396 214.387 266.283V271H213.211V266.365C213.211 265.217 212.582 264.533 211.529 264.533C210.449 264.533 209.656 265.258 209.656 266.543ZM23.9785 291.15C21.873 291.15 20.5879 289.551 20.5879 287.322C20.5879 285.066 21.9277 283.48 23.9512 283.48C25.5371 283.48 26.7129 284.41 26.9043 285.818H25.7285C25.5645 285.135 24.9629 284.52 23.9785 284.52C22.6523 284.52 21.7637 285.613 21.7637 287.281C21.7637 289.004 22.625 290.098 23.9785 290.098C24.8535 290.098 25.5234 289.633 25.7285 288.812H26.9043C26.7129 290.139 25.6328 291.15 23.9785 291.15ZM29.5293 286.543V291H28.3535V281.102H29.5293V284.738H29.625C29.9668 283.973 30.6367 283.48 31.8125 283.48C33.3301 283.48 34.3418 284.383 34.3418 286.283V291H33.166V286.365C33.166 285.203 32.5234 284.533 31.457 284.533C30.3496 284.533 29.5293 285.258 29.5293 286.543ZM36.2285 291V283.576H37.4043V291H36.2285ZM36.2969 282.564L37.4727 280.322H38.8262L37.3086 282.564H36.2969ZM40.4531 286.543V291H39.2773V283.576H40.4121V284.738H40.5078C40.8633 283.986 41.5469 283.48 42.6816 283.48C44.1855 283.48 45.1836 284.396 45.1836 286.283V291H44.0078V286.365C44.0078 285.217 43.3789 284.533 42.3262 284.533C41.2461 284.533 40.4531 285.258 40.4531 286.543ZM48.2461 286.543V291H47.0703V281.102H48.2461V284.738H48.3418C48.6836 283.973 49.3535 283.48 50.5293 283.48C52.0469 283.48 53.0586 284.383 53.0586 286.283V291H51.8828V286.365C51.8828 285.203 51.2402 284.533 50.1738 284.533C49.0664 284.533 48.2461 285.258 48.2461 286.543ZM59.6348 281.102V291H58.459V281.102H59.6348ZM63.9551 282.564L62.4512 280.322H63.8184L64.9805 282.564H63.9551ZM61.1523 288.895C61.1523 287.186 62.6562 286.803 63.9414 286.707C64.4131 286.673 65.6162 286.611 65.9512 286.598V285.996C65.9512 285.053 65.3906 284.506 64.2695 284.506C63.3262 284.506 62.7656 284.943 62.6016 285.504H61.3711C61.5215 284.314 62.6836 283.48 64.3242 283.48C65.2949 283.48 67.1133 283.768 67.1133 286.105V291H65.9512V289.988H65.8965C65.6504 290.494 64.9668 291.178 63.6816 291.178C62.2734 291.178 61.1523 290.344 61.1523 288.895ZM62.3281 288.949C62.3281 289.729 62.9844 290.125 63.8867 290.125C65.2129 290.125 65.9512 289.236 65.9512 288.307V287.555L64.0781 287.691C63.0117 287.76 62.3281 288.143 62.3281 288.949ZM72.5137 291V283.576H73.6484V284.738H73.7441C74.0586 283.945 74.7695 283.48 75.7402 283.48C76.7109 283.48 77.3672 283.945 77.7227 284.738H77.8047C78.1875 283.973 78.9668 283.48 80.0332 283.48C81.3594 283.48 82.3027 284.287 82.3027 286.037V291H81.127V286.051C81.127 284.957 80.4297 284.533 79.623 284.533C78.584 284.533 77.9961 285.23 77.9961 286.174V291H76.8066V285.928C76.8066 285.094 76.2051 284.533 75.3574 284.533C74.4688 284.533 73.6895 285.285 73.6895 286.365V291H72.5137ZM86.6367 282.564L85.1328 280.322H86.5L87.6621 282.564H86.6367ZM83.834 288.895C83.834 287.186 85.3379 286.803 86.623 286.707C87.0947 286.673 88.2979 286.611 88.6328 286.598V285.996C88.6328 285.053 88.0723 284.506 86.9512 284.506C86.0078 284.506 85.4473 284.943 85.2832 285.504H84.0527C84.2031 284.314 85.3652 283.48 87.0059 283.48C87.9766 283.48 89.7949 283.768 89.7949 286.105V291H88.6328V289.988H88.5781C88.332 290.494 87.6484 291.178 86.3633 291.178C84.9551 291.178 83.834 290.344 83.834 288.895ZM85.0098 288.949C85.0098 289.729 85.666 290.125 86.5684 290.125C87.8945 290.125 88.6328 289.236 88.6328 288.307V287.555L86.7598 287.691C85.6934 287.76 85.0098 288.143 85.0098 288.949ZM96.3711 287.951V283.576H97.5332V291H96.3711V289.742H96.2891C95.9336 290.494 95.209 291.096 94.0879 291.096C92.6797 291.096 91.6816 290.18 91.6816 288.293V283.576H92.8574V288.211C92.8574 289.277 93.5273 289.961 94.4707 289.961C95.3047 289.961 96.3711 289.332 96.3711 287.951ZM107.062 285.504C106.898 284.889 106.434 284.479 105.559 284.479C104.643 284.479 103.986 284.971 103.986 285.6C103.986 286.092 104.383 286.434 105.258 286.639L106.365 286.912C107.691 287.227 108.348 287.883 108.348 288.922C108.348 290.207 107.295 291.15 105.436 291.15C103.768 291.15 102.77 290.412 102.578 289.059H103.809C103.945 289.783 104.479 290.125 105.408 290.125C106.461 290.125 107.131 289.688 107.131 288.99C107.131 288.471 106.762 288.115 105.914 287.924L104.793 287.664C103.494 287.363 102.811 286.652 102.811 285.668C102.811 284.396 103.918 283.48 105.559 283.48C107.09 283.48 108.061 284.301 108.211 285.504H107.062ZM114.828 281.307C114.828 282.141 114.049 282.715 112.777 282.715C111.52 282.715 110.74 282.141 110.74 281.307H111.834C111.834 281.717 112.08 282.072 112.777 282.072C113.475 282.072 113.734 281.717 113.734 281.307H114.828ZM112.381 281.17L113.105 279.857H114.199L113.119 281.17H112.381ZM109.523 288.895C109.523 287.186 111.027 286.803 112.312 286.707C112.784 286.673 113.987 286.611 114.322 286.598V285.996C114.322 285.053 113.762 284.506 112.641 284.506C111.697 284.506 111.137 284.943 110.973 285.504H109.742C109.893 284.314 111.055 283.48 112.695 283.48C113.666 283.48 115.484 283.768 115.484 286.105V291H114.322V289.988H114.268C114.021 290.494 113.338 291.178 112.053 291.178C110.645 291.178 109.523 290.344 109.523 288.895ZM110.699 288.949C110.699 289.729 111.355 290.125 112.258 290.125C113.584 290.125 114.322 289.236 114.322 288.307V287.555L112.449 287.691C111.383 287.76 110.699 288.143 110.699 288.949ZM120.406 291.15C118.301 291.15 117.016 289.551 117.016 287.322C117.016 285.066 118.355 283.48 120.379 283.48C121.965 283.48 123.141 284.41 123.332 285.818H122.156C121.992 285.135 121.391 284.52 120.406 284.52C119.08 284.52 118.191 285.613 118.191 287.281C118.191 289.004 119.053 290.098 120.406 290.098C121.281 290.098 121.951 289.633 122.156 288.812H123.332C123.141 290.139 122.061 291.15 120.406 291.15ZM131.33 291.15C129.225 291.15 127.939 289.551 127.939 287.322C127.939 285.066 129.279 283.48 131.303 283.48C132.889 283.48 134.064 284.41 134.256 285.818H133.08C132.916 285.135 132.314 284.52 131.33 284.52C130.004 284.52 129.115 285.613 129.115 287.281C129.115 289.004 129.977 290.098 131.33 290.098C132.205 290.098 132.875 289.633 133.08 288.812H134.256C134.064 290.139 132.984 291.15 131.33 291.15ZM140.395 287.951V283.576H141.557V291H140.395V289.742H140.312C139.957 290.494 139.232 291.096 138.111 291.096C136.703 291.096 135.705 290.18 135.705 288.293V283.576H136.881V288.211C136.881 289.277 137.551 289.961 138.494 289.961C139.328 289.961 140.395 289.332 140.395 287.951ZM139.15 282.564H138.18V281.539C138.85 281.498 139.109 281.361 139.109 281.047C139.109 280.705 138.645 280.555 138.057 280.555L138.098 279.816C139.451 279.816 140.162 280.322 140.162 281.088C140.162 281.744 139.656 282.004 139.15 282.086V282.564ZM143.088 288.895C143.088 287.186 144.592 286.803 145.877 286.707C146.349 286.673 147.552 286.611 147.887 286.598V285.996C147.887 285.053 147.326 284.506 146.205 284.506C145.262 284.506 144.701 284.943 144.537 285.504H143.307C143.457 284.314 144.619 283.48 146.26 283.48C147.23 283.48 149.049 283.768 149.049 286.105V291H147.887V289.988H147.832C147.586 290.494 146.902 291.178 145.617 291.178C144.209 291.178 143.088 290.344 143.088 288.895ZM144.264 288.949C144.264 289.729 144.92 290.125 145.822 290.125C147.148 290.125 147.887 289.236 147.887 288.307V287.555L146.014 287.691C144.947 287.76 144.264 288.143 144.264 288.949ZM154.6 291V281.102H155.775V284.752H155.871C156.131 284.355 156.568 283.48 158.018 283.48C159.877 283.48 161.189 284.957 161.189 287.309C161.189 289.66 159.877 291.15 158.031 291.15C156.609 291.15 156.131 290.275 155.871 289.865H155.734V291H154.6ZM155.748 287.281C155.748 288.949 156.5 290.098 157.854 290.098C159.262 290.098 160 288.867 160 287.281C160 285.736 159.289 284.533 157.854 284.533C156.486 284.533 155.748 285.641 155.748 287.281ZM165.646 293.461C165.195 293.461 164.826 293.119 164.826 292.682C164.826 292.244 165.195 291.902 165.646 291.902C166.098 291.902 166.48 292.244 166.48 292.682C166.48 293.119 166.098 293.461 165.646 293.461ZM162.365 288.895C162.365 287.186 163.869 286.803 165.154 286.707C165.626 286.673 166.829 286.611 167.164 286.598V285.996C167.164 285.053 166.604 284.506 165.482 284.506C164.539 284.506 163.979 284.943 163.814 285.504H162.584C162.734 284.314 163.896 283.48 165.537 283.48C166.508 283.48 168.326 283.768 168.326 286.105V291H167.164V289.988H167.109C166.863 290.494 166.18 291.178 164.895 291.178C163.486 291.178 162.365 290.344 162.365 288.895ZM163.541 288.949C163.541 289.729 164.197 290.125 165.1 290.125C166.426 290.125 167.164 289.236 167.164 288.307V287.555L165.291 287.691C164.225 287.76 163.541 288.143 163.541 288.949ZM171.389 286.543V291H170.213V283.576H171.348V284.738H171.443C171.799 283.986 172.482 283.48 173.617 283.48C175.121 283.48 176.119 284.396 176.119 286.283V291H174.943V286.365C174.943 285.217 174.314 284.533 173.262 284.533C172.182 284.533 171.389 285.258 171.389 286.543ZM184.322 291.15C182.477 291.15 181.164 289.66 181.164 287.309C181.164 284.957 182.477 283.48 184.336 283.48C185.771 283.48 186.236 284.355 186.482 284.752H186.564V282.934H184.541V282.031H186.564V281.102H187.754V282.031H188.82V282.934H187.754V291H186.605V289.865H186.482C186.223 290.275 185.744 291.15 184.322 291.15ZM184.486 290.098C185.84 290.098 186.605 288.949 186.605 287.281C186.605 285.641 185.867 284.533 184.486 284.533C183.064 284.533 182.354 285.736 182.354 287.281C182.354 288.867 183.078 290.098 184.486 290.098ZM192.826 291.15C190.803 291.15 189.436 289.633 189.436 287.322C189.436 285.012 190.803 283.48 192.826 283.48C194.836 283.48 196.189 285.012 196.189 287.322C196.189 289.633 194.836 291.15 192.826 291.15ZM192.826 290.111C194.316 290.111 195.014 288.799 195.014 287.322C195.014 285.846 194.316 284.52 192.826 284.52C191.309 284.52 190.611 285.846 190.611 287.322C190.611 288.799 191.309 290.111 192.826 290.111ZM192.307 282.564L193.482 280.322H194.836L193.318 282.564H192.307ZM198.568 291.082C198.09 291.082 197.68 290.686 197.693 290.193C197.68 289.715 198.09 289.318 198.568 289.318C199.047 289.318 199.443 289.715 199.443 290.193C199.443 290.686 199.047 291.082 198.568 291.082Z" fill="white"/>
<circle cx="299.999" cy="228" r="12" fill="#D9D920"/>
<circle cx="299.999" cy="304" r="12" fill="#2020D8"/>
<circle cx="281" cy="233.092" r="12" transform="rotate(-30 281 233.092)" fill="#C92059"/>
<circle cx="319" cy="298.91" r="12" transform="rotate(-30 319 298.91)" fill="#203CC8"/>
<circle cx="267.091" cy="247" r="12" transform="rotate(-60 267.091 247)" fill="#C11F70"/>
<circle cx="332.909" cy="285" r="12" transform="rotate(-60 332.909 285)" fill="#2054BD"/>
<circle cx="262" cy="266.001" r="12" transform="rotate(-90 262 266.001)" fill="#B92093"/>
<circle cx="338" cy="266.001" r="12" transform="rotate(-90 338 266.001)" fill="#1D8966"/>
<circle cx="267.091" cy="285" r="12" transform="rotate(-120 267.091 285)" fill="#AD1FAD"/>
<circle cx="332.909" cy="247.001" r="12" transform="rotate(-120 332.909 247.001)" fill="#1D8C42"/>
<circle cx="281" cy="298.909" r="12" transform="rotate(-150 281 298.909)" fill="#8820BD"/>
<circle cx="319" cy="233.091" r="12" transform="rotate(-150 319 233.091)" fill="#6DC73A"/>
</svg>
