<svg width="208" height="163" viewBox="0 0 208 163" fill="none" xmlns="http://www.w3.org/2000/svg">
<path d="M53.5937 106H47.3437V131.789C45.0051 125.986 39.3436 121.844 32.7188 121.844H26.25C25.75 121.844 25.375 122.25 25.375 122.719V124.031C25.375 131.531 31.4687 137.625 38.6875 137.688L47.6875 137.719C47.7939 137.719 47.8966 137.697 47.9907 137.656H53.5937V137.636C53.7062 137.689 53.8328 137.719 53.9687 137.719H60.4375C68.875 137.719 75.75 131 76.1875 122.688C76.2187 122.219 75.8437 121.844 75.4062 121.844L66.4062 121.875C60.4098 121.927 55.1896 126.141 53.5937 131.865V106Z" fill="#86D72F"/>
<path d="M66.0938 103.188H34.7812V84.375C34.7812 72.7812 39.4062 61.6875 47.5938 53.5312L47.625 53.5C49.125 52 51.5625 52 53.0625 53.5C61.4062 61.6875 66.0938 72.9063 66.0938 84.5938V103.188Z" fill="#F70A8D"/>
<path d="M78 55.8439C78 54.0314 76.8438 52.4689 75.4063 52.4377C65.1875 52.3752 56.4062 67.3439 52.5313 82.0002C51.8438 84.5939 49.0312 84.5314 48.3438 81.9377C44.5 67.3439 35.75 52.4377 25.5625 52.4377C24.0938 52.4377 22.9062 53.9689 22.9062 55.8439V75.2502L22.875 75.2189C22.875 76.4377 22.9375 77.6564 23.0313 78.8439C23.2813 82.2814 23.9375 88.4689 24.9688 91.5002C29.0938 104.281 38.9375 110.344 50.4688 110.344C61.125 110.344 70.375 105.531 74.9375 94.2502C76.9063 89.6877 78.0313 81.5627 78.0313 76.0002L78 55.8439Z" fill="#FF6DC6"/>
<path d="M123.186 117.449H119.123V134.212C117.603 130.44 113.923 127.748 109.617 127.748H105.413C105.088 127.748 104.844 128.012 104.844 128.316V129.17C104.844 134.045 108.805 138.005 113.497 138.046L119.347 138.066C119.416 138.066 119.483 138.052 119.544 138.026H123.186V138.012C123.259 138.047 123.341 138.066 123.43 138.066H127.634C133.119 138.066 137.587 133.699 137.872 128.296C137.892 127.991 137.648 127.748 137.364 127.748L131.514 127.768C127.616 127.802 124.223 130.541 123.186 134.261V117.449Z" fill="#86D72F"/>
<path d="M131.311 122.122H110.958V109.894C110.958 102.358 113.964 95.1469 119.286 89.8453L119.306 89.825C120.281 88.85 121.866 88.85 122.841 89.825C128.264 95.1469 131.311 102.439 131.311 110.036V122.122Z" fill="#FF6DC6"/>
<path d="M139.05 91.349C139.05 90.1708 138.298 89.1552 137.364 89.1349C130.722 89.0943 125.014 98.824 122.495 108.351C122.048 110.036 120.22 109.996 119.773 108.31C117.275 98.824 111.588 89.1349 104.966 89.1349C104.011 89.1349 103.239 90.1302 103.239 91.349V103.963L103.219 103.943C103.219 104.735 103.259 105.527 103.32 106.299C103.483 108.533 103.909 112.555 104.58 114.526C107.261 122.833 113.659 126.774 121.155 126.774C128.081 126.774 134.094 123.646 137.059 116.313C138.339 113.347 139.07 108.066 139.07 104.451L139.05 91.349Z" fill="#FFA7DD"/>
<path d="M176.186 117.449H172.123V134.212C170.603 130.44 166.923 127.748 162.617 127.748H158.413C158.088 127.748 157.844 128.012 157.844 128.316V129.17C157.844 134.045 161.805 138.005 166.497 138.046L172.347 138.066C172.416 138.066 172.483 138.052 172.544 138.026H176.186V138.012C176.259 138.047 176.341 138.066 176.43 138.066H180.634C186.119 138.066 190.587 133.699 190.872 128.296C190.892 127.991 190.648 127.748 190.364 127.748L184.514 127.768C180.616 127.802 177.223 130.541 176.186 134.261V117.449Z" fill="#86D72F"/>
<path d="M184.311 122.122H163.958V109.894C163.958 102.358 166.964 95.1469 172.286 89.8453L172.306 89.825C173.281 88.85 174.866 88.85 175.841 89.825C181.264 95.1469 184.311 102.439 184.311 110.036V122.122Z" fill="#FF6DC6"/>
<path d="M192.05 91.349C192.05 90.1708 191.298 89.1552 190.364 89.1349C183.722 89.0943 178.014 98.824 175.495 108.351C175.048 110.036 173.22 109.996 172.773 108.31C170.275 98.824 164.588 89.1349 157.966 89.1349C157.011 89.1349 156.239 90.1302 156.239 91.349V103.963L156.219 103.943C156.219 104.735 156.259 105.527 156.32 106.299C156.483 108.533 156.909 112.555 157.58 114.526C160.261 122.833 166.659 126.774 174.155 126.774C181.081 126.774 187.094 123.646 190.059 116.313C191.339 113.347 192.07 108.066 192.07 104.451L192.05 91.349Z" fill="#FFA7DD"/>
</svg>
