<svg width="350" height="316" viewBox="0 0 350 316" fill="none" xmlns="http://www.w3.org/2000/svg">
<path d="M0 16C0 7.16345 7.16344 0 16 0H226C234.837 0 242 7.16344 242 16V84C242 92.8366 234.837 100 226 100H16C7.16344 100 0 92.8366 0 84V16Z" fill="#1E65AC"/>
<path d="M29.9688 44H25.625L33.5938 21.375H38.5938L46.5938 44H42.25L40.375 38.4062H31.8438L29.9688 44ZM32.9375 35.125H39.2812L36.1875 26H36L32.9375 35.125ZM59.9375 36.875V27.0312H63.9062V44H60.0625V41H59.875C59.0938 42.875 57.3125 44.2188 54.7812 44.2188C51.4375 44.2188 49.125 41.9062 49.0938 37.8438V27.0312H53.0938V37.2188C53.0938 39.375 54.375 40.75 56.3125 40.75C58.0625 40.75 59.9375 39.4688 59.9375 36.875ZM76.1875 27.0312V30.0938H72.8438V38.9062C72.8438 40.5312 73.6562 40.875 74.6562 40.875C75.125 40.875 75.9062 40.8438 76.4062 40.8125V44.0625C75.9375 44.1562 75.1562 44.2188 74.1562 44.2188C71.1562 44.2188 68.8438 42.75 68.875 39.5625V30.0938H66.4375V27.0312H68.875V22.9688H72.8438V27.0312H76.1875ZM90.0938 36.875V27.0312H94.0625V44H90.2188V41H90.0312C89.25 42.875 87.4688 44.2188 84.9375 44.2188C81.5938 44.2188 79.2812 41.9062 79.25 37.8438V27.0312H83.25V37.2188C83.25 39.375 84.5312 40.75 86.4688 40.75C88.2188 40.75 90.0938 39.4688 90.0938 36.875ZM97.875 44V27.0312H101.688V29.9062H101.906C102.594 27.9688 104.312 26.8125 106.562 26.8125C108.875 26.8125 110.5 27.9688 111.156 29.9062H111.344C112.094 28.0312 113.969 26.8125 116.438 26.8125C119.531 26.8125 121.719 28.8125 121.719 32.5938V44H117.75V33.2188C117.75 31.0938 116.469 30.1562 114.844 30.1562C112.875 30.1562 111.75 31.5 111.75 33.4062V44H107.875V33.0625C107.875 31.3125 106.688 30.1562 105 30.1562C103.281 30.1562 101.875 31.5625 101.875 33.6875V44H97.875ZM129.531 34.0625V44H125.531V27.0312H129.344V29.9062H129.562C130.344 28 132.062 26.8125 134.594 26.8125C138.125 26.8125 140.438 29.125 140.406 33.1875V44H136.438V33.8125C136.438 31.5312 135.219 30.1875 133.125 30.1875C131 30.1875 129.531 31.5938 129.531 34.0625ZM39.4062 61.5938C39.2188 59.6562 37.5625 58.5312 35.125 58.5312C32.5625 58.5312 31 59.7812 31 61.4688C31 63.375 33 64.1562 34.875 64.5938L37 65.1562C40.375 65.9375 43.625 67.7188 43.625 71.6562C43.625 75.625 40.5 78.3438 35.0625 78.3438C29.7812 78.3438 26.4688 75.8125 26.2812 71.3438H30.2812C30.4688 73.7188 32.4688 74.875 35.0312 74.875C37.7188 74.875 39.5625 73.5625 39.5625 71.625C39.5625 69.8438 37.9062 69.0938 35.4688 68.4688L32.9062 67.8125C29.1875 66.8438 26.875 64.9688 26.875 61.7188C26.875 57.7188 30.4375 55.0625 35.1875 55.0625C40 55.0625 43.25 57.7812 43.3125 61.5938H39.4062ZM55.2812 61.0312V64.0938H51.9375V72.9062C51.9375 74.5312 52.75 74.875 53.75 74.875C54.2188 74.875 55 74.8438 55.5 74.8125V78.0625C55.0312 78.1562 54.25 78.2188 53.25 78.2188C50.25 78.2188 47.9375 76.75 47.9688 73.5625V64.0938H45.5312V61.0312H47.9688V56.9688H51.9375V61.0312H55.2812ZM58.3438 78V61.0312H62.2188V63.8438H62.4062C63 61.9062 64.6562 60.7812 66.5938 60.7812C67.0312 60.7812 67.6562 60.8125 68.0312 60.875V64.5625C67.6875 64.4375 66.8438 64.3125 66.1875 64.3125C63.9688 64.3125 62.3438 65.8438 62.3438 68V78H58.3438ZM77.25 78.3438C72.3125 78.3438 69.125 74.8438 69.125 69.5938C69.125 64.3125 72.3125 60.8125 77.25 60.8125C82.2188 60.8125 85.375 64.3125 85.375 69.5938C85.375 74.8438 82.2188 78.3438 77.25 78.3438ZM77.2812 75.1562C80 75.1562 81.3438 72.6875 81.3438 69.5625C81.3438 66.4688 80 63.9688 77.2812 63.9688C74.5 63.9688 73.1562 66.4688 73.1562 69.5625C73.1562 72.6875 74.5 75.1562 77.2812 75.1562ZM92.4688 68.0625V78H88.4688V61.0312H92.2812V63.9062H92.5C93.2812 62 95 60.8125 97.5312 60.8125C101.062 60.8125 103.375 63.125 103.344 67.1875V78H99.375V67.8125C99.375 65.5312 98.1562 64.1875 96.0625 64.1875C93.9375 64.1875 92.4688 65.5938 92.4688 68.0625ZM114.562 84.7188C110.062 84.7188 107.219 82.7188 106.938 79.5312H110.906C111.188 81 112.594 81.7188 114.625 81.7188C117 81.7188 118.562 80.6875 118.562 78.1875V74.9375H118.375C117.75 76.1875 116.406 77.75 113.469 77.75C109.562 77.75 106.469 74.9062 106.469 69.375C106.469 63.7812 109.562 60.8125 113.5 60.8125C116.5 60.8125 117.75 62.5938 118.375 63.8125H118.562V61.0312H122.5V78.2812C122.5 82.625 119.156 84.7188 114.562 84.7188ZM114.562 74.625C117.125 74.625 118.594 72.6875 118.594 69.4375C118.594 66.2188 117.156 64.0625 114.562 64.0625C111.906 64.0625 110.531 66.3438 110.531 69.4375C110.531 72.5625 111.938 74.625 114.562 74.625Z" fill="#D8C820"/>
<path d="M250 16C250 7.16345 257.163 0 266 0H334C342.837 0 350 7.16344 350 16V84C350 92.8366 342.837 100 334 100H266C257.163 100 250 92.8366 250 84V16Z" fill="#D8C820"/>
<path d="M321.432 52.8164L317.807 52.1289C317.588 52.082 317.479 51.832 317.588 51.6445L320.963 46.2226C321.104 45.9882 320.932 45.707 320.666 45.7226L314.307 46.3007C314.088 46.3163 313.901 46.1132 313.963 45.8945L314.963 42.3945C315.041 42.1132 314.729 41.8789 314.479 42.0351L307.682 46.332C307.448 46.4726 307.151 46.2851 307.182 46.0195L309.182 31.4413C309.213 31.1757 308.932 30.9727 308.698 31.1289L303.557 34.2539C303.401 34.3477 303.182 34.2851 303.104 34.1289L300.198 28.3008C300.073 28.0664 299.744 28.0664 299.619 28.3008L296.713 34.1289C296.635 34.3008 296.416 34.3633 296.26 34.2695L290.948 31.1289C290.713 30.9883 290.416 31.1913 290.463 31.457L293.01 46.0195C293.057 46.2851 292.76 46.4883 292.526 46.3476L285.323 42.0195C285.073 41.8632 284.76 42.0976 284.838 42.3788L285.854 45.9101C285.916 46.1288 285.744 46.3476 285.51 46.3164L279.151 45.7382C278.885 45.707 278.713 46.0039 278.854 46.2383L282.229 51.6601C282.354 51.8476 282.244 52.1132 282.01 52.1445L278.385 52.832C278.104 52.8788 278.026 53.2538 278.276 53.4257L288.494 60.1289C288.76 60.3008 288.823 60.6445 288.651 60.9101L285.635 65.207C285.494 65.4101 285.698 65.6914 285.932 65.5976L299.026 60.8164C299.588 60.6133 300.213 60.6133 300.776 60.8164L313.869 65.5976C314.104 65.6914 314.323 65.4101 314.166 65.207L311.151 60.9101C310.979 60.6601 311.041 60.3008 311.307 60.1289L321.526 53.4257C321.791 53.2382 321.713 52.8633 321.432 52.8164Z" fill="#FF8A00"/>
<path d="M299.916 42.6133C300.779 42.6133 301.479 43.3128 301.479 44.1758V56.8648L309.983 52.4896C310.75 52.0948 311.692 52.3969 312.087 53.1642C312.482 53.9315 312.18 54.8736 311.412 55.2684L301.479 60.3791V70.2696C301.479 71.1325 300.779 71.8321 299.916 71.8321C299.053 71.8321 298.354 71.1325 298.354 70.2696V60.3792L288.42 55.2684C287.653 54.8736 287.351 53.9315 287.746 53.1642C288.14 52.3969 289.083 52.0948 289.85 52.4896L298.354 56.8648V44.1758C298.354 43.3128 299.053 42.6133 299.916 42.6133Z" fill="#CA0B4A"/>
<ellipse cx="50" cy="120" rx="12" ry="12.0001" fill="#D8C820"/>
<ellipse cx="50" cy="196" rx="12" ry="12.0001" fill="#1E65AC"/>
<ellipse cx="12" cy="12.0001" rx="12" ry="12.0001" transform="matrix(0.866024 -0.500003 0.499997 0.866027 14.6079 120.699)" fill="#D89A21"/>
<ellipse cx="12" cy="12.0001" rx="12" ry="12.0001" transform="matrix(0.866024 -0.500003 0.499997 0.866027 52.6079 186.518)" fill="#1E739E"/>
<ellipse cx="12.0001" cy="12" rx="12.0001" ry="12" transform="matrix(0.499997 -0.866027 0.866024 0.500003 0.69873 143.393)" fill="#D95E21"/>
<ellipse cx="12.0001" cy="12" rx="12.0001" ry="12" transform="matrix(0.499997 -0.866027 0.866024 0.500003 66.5166 181.392)" fill="#1F7E91"/>
<ellipse cx="12" cy="158.001" rx="12.0001" ry="12" transform="rotate(-90 12 158.001)" fill="#D82121"/>
<ellipse cx="88" cy="158.001" rx="12.0001" ry="12" transform="rotate(-90 88 158.001)" fill="#1D8181"/>
<ellipse cx="12.0001" cy="12" rx="12.0001" ry="12" transform="matrix(-0.499997 -0.866027 0.866024 -0.500003 12.6987 193.393)" fill="#D11F3D"/>
<ellipse cx="12.0001" cy="12" rx="12.0001" ry="12" transform="matrix(-0.499997 -0.866027 0.866024 -0.500003 78.5161 155.393)" fill="#1E9032"/>
<ellipse cx="12" cy="12.0001" rx="12" ry="12.0001" transform="matrix(-0.866024 -0.500003 0.499997 -0.866027 35.3921 207.301)" fill="#6F1EC2"/>
<ellipse cx="12" cy="12.0001" rx="12" ry="12.0001" transform="matrix(-0.866024 -0.500003 0.499997 -0.866027 73.3916 141.483)" fill="#A5BF21"/>
<path d="M108 124C108 115.163 115.163 108 124 108H334C342.837 108 350 115.163 350 124V192C350 200.837 342.837 208 334 208H124C115.163 208 108 200.837 108 192V124Z" fill="#D89A21"/>
<path d="M132.594 133L133.031 130.348H130.721L130.283 133H129.107L129.545 130.348H128.123L128.301 129.186H129.736L130.105 126.916H128.697L128.875 125.74H130.311L130.734 123.102H131.91L131.486 125.74H133.797L134.221 123.102H135.383L134.959 125.74H136.395L136.203 126.916H134.768L134.398 129.186H135.82L135.615 130.348H134.207L133.77 133H132.594ZM130.912 129.186H133.223L133.592 126.916H131.281L130.912 129.186ZM142.902 125.713C142.807 124.797 142 124.264 140.865 124.264C139.648 124.264 138.883 124.879 138.883 125.727C138.883 126.67 139.908 127.025 140.688 127.217L141.645 127.477C142.916 127.777 144.488 128.475 144.502 130.266C144.488 131.934 143.162 133.164 140.824 133.164C138.609 133.164 137.215 132.057 137.119 130.252H138.623C138.719 131.332 139.662 131.852 140.824 131.852C142.082 131.852 142.998 131.209 143.012 130.238C142.998 129.377 142.191 129.021 141.139 128.748L139.963 128.434C138.377 127.996 137.379 127.189 137.379 125.809C137.379 124.1 138.91 122.965 140.906 122.965C142.916 122.965 144.324 124.113 144.365 125.713H142.902ZM149.465 125.576V126.738H147.947V130.812C147.947 131.646 148.371 131.797 148.836 131.811C149.041 131.811 149.369 131.783 149.574 131.77V133.041C149.369 133.068 149.055 133.096 148.658 133.096C147.51 133.096 146.484 132.467 146.498 131.113V126.738H145.404V125.576H146.498V123.799H147.947V125.576H149.465ZM150.887 133V125.576H152.295V126.752H152.377C152.65 125.959 153.389 125.467 154.264 125.467C154.441 125.467 154.729 125.48 154.879 125.494V126.889C154.756 126.861 154.414 126.807 154.113 126.807C153.102 126.807 152.35 127.504 152.35 128.475V133H150.887ZM158.871 133.15C156.766 133.15 155.398 131.619 155.398 129.322C155.398 127.012 156.766 125.48 158.871 125.48C160.963 125.48 162.33 127.012 162.33 129.322C162.33 131.619 160.963 133.15 158.871 133.15ZM158.871 131.934C160.211 131.934 160.854 130.744 160.854 129.322C160.854 127.9 160.211 126.684 158.871 126.684C157.504 126.684 156.861 127.9 156.861 129.322C156.861 130.744 157.504 131.934 158.871 131.934ZM165.229 128.598V133H163.766V125.576H165.174V126.793H165.256C165.611 126 166.336 125.48 167.443 125.48C168.975 125.48 169.973 126.438 169.973 128.283V133H168.523V128.461C168.523 127.381 167.936 126.738 166.951 126.738C165.953 126.738 165.229 127.408 165.229 128.598ZM174.867 135.939C172.994 135.939 171.764 135.105 171.627 133.725H173.117C173.254 134.422 173.91 134.764 174.881 134.764C176.043 134.764 176.781 134.271 176.781 133.109V131.646H176.686C176.426 132.125 175.893 132.891 174.525 132.891C172.775 132.891 171.422 131.578 171.422 129.213C171.422 126.848 172.748 125.48 174.539 125.48C175.92 125.48 176.426 126.314 176.699 126.779H176.795V125.576H178.217V133.164C178.217 135.064 176.781 135.939 174.867 135.939ZM174.854 131.688C176.098 131.688 176.795 130.771 176.795 129.24C176.795 127.736 176.111 126.725 174.854 126.725C173.555 126.725 172.912 127.818 172.912 129.24C172.912 130.689 173.582 131.688 174.854 131.688Z" fill="#F7F7F7"/>
<path d="M129.094 153V143.102H132.566C134.645 143.102 135.615 144.264 135.615 145.727C135.615 146.998 134.863 147.572 134.002 147.805V147.9C134.918 147.955 136.012 148.803 136.012 150.375C136.012 151.865 135.027 153 132.689 153H129.094ZM132.676 151.906C134.221 151.906 134.822 151.223 134.822 150.361C134.822 149.35 134.016 148.502 132.744 148.502H130.324V151.906H132.676ZM132.525 147.436C133.592 147.436 134.439 146.779 134.439 145.74C134.439 144.879 133.865 144.195 132.566 144.195H130.324V147.436H132.525ZM140.537 155.461C140.086 155.461 139.717 155.119 139.717 154.682C139.717 154.244 140.086 153.902 140.537 153.902C140.988 153.902 141.371 154.244 141.371 154.682C141.371 155.119 140.988 155.461 140.537 155.461ZM137.256 150.895C137.256 149.186 138.76 148.803 140.045 148.707C140.517 148.673 141.72 148.611 142.055 148.598V147.996C142.055 147.053 141.494 146.506 140.373 146.506C139.43 146.506 138.869 146.943 138.705 147.504H137.475C137.625 146.314 138.787 145.48 140.428 145.48C141.398 145.48 143.217 145.768 143.217 148.105V153H142.055V151.988H142C141.754 152.494 141.07 153.178 139.785 153.178C138.377 153.178 137.256 152.344 137.256 150.895ZM138.432 150.949C138.432 151.729 139.088 152.125 139.99 152.125C141.316 152.125 142.055 151.236 142.055 150.307V149.555L140.182 149.691C139.115 149.76 138.432 150.143 138.432 150.949ZM146.279 148.543V153H145.104V145.576H146.238V146.738H146.334C146.689 145.986 147.373 145.48 148.508 145.48C150.012 145.48 151.01 146.396 151.01 148.283V153H149.834V148.365C149.834 147.217 149.205 146.533 148.152 146.533C147.072 146.533 146.279 147.258 146.279 148.543ZM157.586 148.543V153H156.41V143.102H157.586V146.738H157.682C158.023 145.973 158.693 145.48 159.869 145.48C161.387 145.48 162.398 146.383 162.398 148.283V153H161.223V148.365C161.223 147.203 160.58 146.533 159.514 146.533C158.406 146.533 157.586 147.258 157.586 148.543ZM171.395 145.029C171.395 146.123 171.073 146.923 170.232 147.244C170.526 147.832 170.684 148.529 170.684 149.322C170.684 151.633 169.33 153.15 167.32 153.15C165.297 153.15 163.93 151.633 163.93 149.322C163.93 147.012 165.297 145.48 167.32 145.48C168.318 145.48 169.159 145.856 169.754 146.52C170.246 146.321 170.328 145.768 170.328 145.029H171.395ZM167.32 152.111C168.811 152.111 169.508 150.799 169.508 149.322C169.508 147.846 168.811 146.52 167.32 146.52C165.803 146.52 165.105 147.846 165.105 149.322C165.105 150.799 165.803 152.111 167.32 152.111ZM167.375 155.461C166.924 155.461 166.555 155.119 166.555 154.682C166.555 154.244 166.924 153.902 167.375 153.902C167.826 153.902 168.209 154.244 168.209 154.682C168.209 155.119 167.826 155.461 167.375 155.461ZM172.229 155.789V145.576H173.363V146.752H173.5C173.746 146.355 174.211 145.48 175.646 145.48C177.506 145.48 178.805 146.957 178.805 149.309C178.805 151.66 177.506 153.15 175.66 153.15C174.238 153.15 173.746 152.275 173.5 151.865H173.404V155.789H172.229ZM173.377 149.281C173.377 150.949 174.129 152.098 175.496 152.098C176.904 152.098 177.629 150.867 177.629 149.281C177.629 147.736 176.918 146.533 175.496 146.533C174.102 146.533 173.377 147.641 173.377 149.281ZM189.961 145.576L187.213 153H185.996L183.262 145.576H184.547L186.57 151.469H186.652L188.676 145.576H189.961ZM198.096 145.029C198.096 146.123 197.774 146.923 196.934 147.244C197.228 147.832 197.385 148.529 197.385 149.322C197.385 151.633 196.031 153.15 194.021 153.15C191.998 153.15 190.631 151.633 190.631 149.322C190.631 147.012 191.998 145.48 194.021 145.48C195.02 145.48 195.86 145.856 196.455 146.52C196.947 146.321 197.029 145.768 197.029 145.029H198.096ZM194.021 152.111C195.512 152.111 196.209 150.799 196.209 149.322C196.209 147.846 195.512 146.52 194.021 146.52C192.504 146.52 191.807 147.846 191.807 149.322C191.807 150.799 192.504 152.111 194.021 152.111ZM193.502 144.564L194.678 142.322H196.031L194.514 144.564H193.502ZM198.93 153V145.576H200.105V153H198.93ZM199.518 144.346C199.066 144.346 198.697 144.004 198.697 143.566C198.697 143.129 199.066 142.787 199.518 142.787C199.969 142.787 200.352 143.129 200.352 143.566C200.352 144.004 199.969 144.346 199.518 144.346ZM206.668 148.543V153H205.492V145.576H206.627V146.738H206.723C207.078 145.986 207.762 145.48 208.896 145.48C210.4 145.48 211.398 146.396 211.398 148.283V153H210.223V148.365C210.223 147.217 209.594 146.533 208.541 146.533C207.461 146.533 206.668 147.258 206.668 148.543ZM214.461 148.543V153H213.285V143.102H214.461V146.738H214.557C214.898 145.973 215.568 145.48 216.744 145.48C218.262 145.48 219.273 146.383 219.273 148.283V153H218.098V148.365C218.098 147.203 217.455 146.533 216.389 146.533C215.281 146.533 214.461 147.258 214.461 148.543ZM228.898 145.248C228.898 146.622 228.475 147.367 227.012 147.463V153H225.85V151.742H225.768C225.412 152.494 224.688 153.096 223.566 153.096C222.158 153.096 221.16 152.18 221.16 150.293V145.576H222.336V150.211C222.336 151.277 223.006 151.961 223.949 151.961C224.783 151.961 225.85 151.332 225.85 149.951V145.576H227.012V146.67C227.866 146.581 227.887 146.137 227.887 145.248H228.898ZM221.707 144.646C221.707 143.648 222.363 142.951 223.184 142.951C223.936 142.951 224.264 143.566 224.947 143.566C225.316 143.566 225.604 143.252 225.604 142.842L226.492 142.91C226.492 143.936 225.836 144.564 225.002 144.564C224.113 144.564 223.977 143.949 223.252 143.949C222.883 143.949 222.623 144.277 222.623 144.688L221.707 144.646ZM230.635 148.543V153H229.459V145.576H230.594V146.738H230.689C231.045 145.986 231.729 145.48 232.863 145.48C234.367 145.48 235.365 146.396 235.365 148.283V153H234.189V148.365C234.189 147.217 233.561 146.533 232.508 146.533C231.428 146.533 230.635 147.258 230.635 148.543ZM240.26 155.939C238.469 155.939 237.252 155.16 237.115 153.779H238.346C238.51 154.531 239.207 154.914 240.26 154.914C241.531 154.914 242.311 154.367 242.311 153.137V151.633H242.215C241.969 152.043 241.49 152.891 240.055 152.891C238.25 152.891 236.896 151.523 236.896 149.186C236.896 146.902 238.209 145.48 240.068 145.48C241.504 145.48 241.969 146.355 242.242 146.752H242.338V145.576H243.486V153.205C243.486 155.119 242.064 155.939 240.26 155.939ZM240.219 151.838C241.572 151.838 242.338 150.867 242.338 149.227C242.338 147.641 241.6 146.533 240.219 146.533C238.797 146.533 238.086 147.736 238.086 149.227C238.086 150.771 238.811 151.838 240.219 151.838ZM248.873 153V145.576H250.008V146.738H250.104C250.418 145.945 251.129 145.48 252.1 145.48C253.07 145.48 253.727 145.945 254.082 146.738H254.164C254.547 145.973 255.326 145.48 256.393 145.48C257.719 145.48 258.662 146.287 258.662 148.037V153H257.486V148.051C257.486 146.957 256.789 146.533 255.982 146.533C254.943 146.533 254.355 147.23 254.355 148.174V153H253.166V147.928C253.166 147.094 252.564 146.533 251.717 146.533C250.828 146.533 250.049 147.285 250.049 148.365V153H248.873ZM262.996 144.564L261.492 142.322H262.859L264.021 144.564H262.996ZM260.193 150.895C260.193 149.186 261.697 148.803 262.982 148.707C263.454 148.673 264.657 148.611 264.992 148.598V147.996C264.992 147.053 264.432 146.506 263.311 146.506C262.367 146.506 261.807 146.943 261.643 147.504H260.412C260.562 146.314 261.725 145.48 263.365 145.48C264.336 145.48 266.154 145.768 266.154 148.105V153H264.992V151.988H264.938C264.691 152.494 264.008 153.178 262.723 153.178C261.314 153.178 260.193 152.344 260.193 150.895ZM261.369 150.949C261.369 151.729 262.025 152.125 262.928 152.125C264.254 152.125 264.992 151.236 264.992 150.307V149.555L263.119 149.691C262.053 149.76 261.369 150.143 261.369 150.949ZM272.73 149.951V145.576H273.893V153H272.73V151.742H272.648C272.293 152.494 271.568 153.096 270.447 153.096C269.039 153.096 268.041 152.18 268.041 150.293V145.576H269.217V150.211C269.217 151.277 269.887 151.961 270.83 151.961C271.664 151.961 272.73 151.332 272.73 149.951ZM282.328 153.15C280.223 153.15 278.938 151.551 278.938 149.322C278.938 147.066 280.277 145.48 282.301 145.48C283.887 145.48 285.062 146.41 285.254 147.818H284.078C283.914 147.135 283.312 146.52 282.328 146.52C281.002 146.52 280.113 147.613 280.113 149.281C280.113 151.004 280.975 152.098 282.328 152.098C283.203 152.098 283.873 151.633 284.078 150.812H285.254C285.062 152.139 283.982 153.15 282.328 153.15ZM289.738 153.15C287.715 153.15 286.348 151.633 286.348 149.322C286.348 147.012 287.715 145.48 289.738 145.48C291.748 145.48 293.102 147.012 293.102 149.322C293.102 151.633 291.748 153.15 289.738 153.15ZM289.738 152.111C291.229 152.111 291.926 150.799 291.926 149.322C291.926 147.846 291.229 146.52 289.738 146.52C288.221 146.52 287.523 147.846 287.523 149.322C287.523 150.799 288.221 152.111 289.738 152.111ZM289.219 144.564L290.395 142.322H291.748L290.23 144.564H289.219ZM300.963 153.15C299.117 153.15 297.805 151.66 297.805 149.309C297.805 146.957 299.117 145.48 300.977 145.48C302.412 145.48 302.877 146.355 303.123 146.752H303.205V144.934H301.182V144.031H303.205V143.102H304.395V144.031H305.461V144.934H304.395V153H303.246V151.865H303.123C302.863 152.275 302.385 153.15 300.963 153.15ZM301.127 152.098C302.48 152.098 303.246 150.949 303.246 149.281C303.246 147.641 302.508 146.533 301.127 146.533C299.705 146.533 298.994 147.736 298.994 149.281C298.994 150.867 299.719 152.098 301.127 152.098ZM309.467 153.15C307.443 153.15 306.076 151.633 306.076 149.322C306.076 147.012 307.443 145.48 309.467 145.48C311.477 145.48 312.83 147.012 312.83 149.322C312.83 151.633 311.477 153.15 309.467 153.15ZM309.467 152.111C310.957 152.111 311.654 150.799 311.654 149.322C311.654 147.846 310.957 146.52 309.467 146.52C307.949 146.52 307.252 147.846 307.252 149.322C307.252 150.799 307.949 152.111 309.467 152.111ZM310.465 144.688L309.453 143.348L308.455 144.688H307.334V144.605L308.92 142.596H309.986L311.572 144.605V144.688H310.465ZM309.521 155.461C309.07 155.461 308.701 155.119 308.701 154.682C308.701 154.244 309.07 153.902 309.521 153.902C309.973 153.902 310.355 154.244 310.355 154.682C310.355 155.119 309.973 155.461 309.521 155.461ZM129.094 173V163.102H130.27V166.752H130.365C130.625 166.355 131.062 165.48 132.512 165.48C134.371 165.48 135.684 166.957 135.684 169.309C135.684 171.66 134.371 173.15 132.525 173.15C131.104 173.15 130.625 172.275 130.365 171.865H130.229V173H129.094ZM130.242 169.281C130.242 170.949 130.994 172.098 132.348 172.098C133.756 172.098 134.494 170.867 134.494 169.281C134.494 167.736 133.783 166.533 132.348 166.533C130.98 166.533 130.242 167.641 130.242 169.281ZM137.762 164.646C137.762 163.648 138.418 162.951 139.238 162.951C139.99 162.951 140.318 163.566 141.002 163.566C141.371 163.566 141.658 163.252 141.658 162.842L142.547 162.91C142.547 163.936 141.891 164.564 141.057 164.564C140.168 164.564 140.031 163.949 139.307 163.949C138.938 163.949 138.678 164.277 138.678 164.688L137.762 164.646ZM136.859 170.895C136.859 169.186 138.363 168.803 139.648 168.707C140.12 168.673 141.323 168.611 141.658 168.598V167.996C141.658 167.053 141.098 166.506 139.977 166.506C139.033 166.506 138.473 166.943 138.309 167.504H137.078C137.229 166.314 138.391 165.48 140.031 165.48C141.002 165.48 142.82 165.768 142.82 168.105V173H141.658V171.988H141.604C141.357 172.494 140.674 173.178 139.389 173.178C137.98 173.178 136.859 172.344 136.859 170.895ZM138.035 170.949C138.035 171.729 138.691 172.125 139.594 172.125C140.92 172.125 141.658 171.236 141.658 170.307V169.555L139.785 169.691C138.719 169.76 138.035 170.143 138.035 170.949ZM147.742 173.15C145.719 173.15 144.352 171.633 144.352 169.322C144.352 167.012 145.719 165.48 147.742 165.48C149.752 165.48 151.105 167.012 151.105 169.322C151.105 171.633 149.752 173.15 147.742 173.15ZM147.742 172.111C149.232 172.111 149.93 170.799 149.93 169.322C149.93 167.846 149.232 166.52 147.742 166.52C146.225 166.52 145.527 167.846 145.527 169.322C145.527 170.799 146.225 172.111 147.742 172.111ZM157.34 168.543V173H156.164V163.102H157.34V166.738H157.436C157.777 165.973 158.447 165.48 159.623 165.48C161.141 165.48 162.152 166.383 162.152 168.283V173H160.977V168.365C160.977 167.203 160.334 166.533 159.268 166.533C158.16 166.533 157.34 167.258 157.34 168.543ZM167.074 173.15C165.051 173.15 163.684 171.633 163.684 169.322C163.684 167.012 165.051 165.48 167.074 165.48C169.084 165.48 170.438 167.012 170.438 169.322C170.438 171.633 169.084 173.15 167.074 173.15ZM167.074 172.111C168.564 172.111 169.262 170.799 169.262 169.322C169.262 167.846 168.564 166.52 167.074 166.52C165.557 166.52 164.859 167.846 164.859 169.322C164.859 170.799 165.557 172.111 167.074 172.111ZM174.43 164.564L172.926 162.322H174.293L175.455 164.564H174.43ZM171.627 170.895C171.627 169.186 173.131 168.803 174.416 168.707C174.888 168.673 176.091 168.611 176.426 168.598V167.996C176.426 167.053 175.865 166.506 174.744 166.506C173.801 166.506 173.24 166.943 173.076 167.504H171.846C171.996 166.314 173.158 165.48 174.799 165.48C175.77 165.48 177.588 165.768 177.588 168.105V173H176.426V171.988H176.371C176.125 172.494 175.441 173.178 174.156 173.178C172.748 173.178 171.627 172.344 171.627 170.895ZM172.803 170.949C172.803 171.729 173.459 172.125 174.361 172.125C175.688 172.125 176.426 171.236 176.426 170.307V169.555L174.553 169.691C173.486 169.76 172.803 170.143 172.803 170.949ZM186.023 173.15C183.918 173.15 182.633 171.551 182.633 169.322C182.633 167.066 183.973 165.48 185.996 165.48C187.582 165.48 188.758 166.41 188.949 167.818H187.773C187.609 167.135 187.008 166.52 186.023 166.52C184.697 166.52 183.809 167.613 183.809 169.281C183.809 171.004 184.67 172.098 186.023 172.098C186.898 172.098 187.568 171.633 187.773 170.812H188.949C188.758 172.139 187.678 173.15 186.023 173.15ZM190.043 170.895C190.043 169.186 191.547 168.803 192.832 168.707C193.304 168.673 194.507 168.611 194.842 168.598V167.996C194.842 167.053 194.281 166.506 193.16 166.506C192.217 166.506 191.656 166.943 191.492 167.504H190.262C190.412 166.314 191.574 165.48 193.215 165.48C194.186 165.48 196.004 165.768 196.004 168.105V173H194.842V171.988H194.787C194.541 172.494 193.857 173.178 192.572 173.178C191.164 173.178 190.043 172.344 190.043 170.895ZM191.219 170.949C191.219 171.729 191.875 172.125 192.777 172.125C194.104 172.125 194.842 171.236 194.842 170.307V169.555L192.969 169.691C191.902 169.76 191.219 170.143 191.219 170.949ZM200.926 173.15C198.902 173.15 197.535 171.633 197.535 169.322C197.535 167.012 198.902 165.48 200.926 165.48C202.936 165.48 204.289 167.012 204.289 169.322C204.289 171.633 202.936 173.15 200.926 173.15ZM200.926 172.111C202.416 172.111 203.113 170.799 203.113 169.322C203.113 167.846 202.416 166.52 200.926 166.52C199.408 166.52 198.711 167.846 198.711 169.322C198.711 170.799 199.408 172.111 200.926 172.111ZM207.379 172.084L206.312 175.803H205.301L206.053 172.084H207.379ZM215.732 173.15C213.887 173.15 212.574 171.66 212.574 169.309C212.574 166.957 213.887 165.48 215.746 165.48C217.182 165.48 217.646 166.355 217.893 166.752H217.975V164.934H215.951V164.031H217.975V163.102H219.164V164.031H220.23V164.934H219.164V173H218.016V171.865H217.893C217.633 172.275 217.154 173.15 215.732 173.15ZM215.896 172.098C217.25 172.098 218.016 170.949 218.016 169.281C218.016 167.641 217.277 166.533 215.896 166.533C214.475 166.533 213.764 167.736 213.764 169.281C213.764 170.867 214.488 172.098 215.896 172.098ZM224.236 173.15C222.213 173.15 220.846 171.633 220.846 169.322C220.846 167.012 222.213 165.48 224.236 165.48C226.246 165.48 227.6 167.012 227.6 169.322C227.6 171.633 226.246 173.15 224.236 173.15ZM224.236 172.111C225.727 172.111 226.424 170.799 226.424 169.322C226.424 167.846 225.727 166.52 224.236 166.52C222.719 166.52 222.021 167.846 222.021 169.322C222.021 170.799 222.719 172.111 224.236 172.111ZM225.234 164.688L224.223 163.348L223.225 164.688H222.104V164.605L223.689 162.596H224.756L226.342 164.605V164.688H225.234ZM224.291 175.461C223.84 175.461 223.471 175.119 223.471 174.682C223.471 174.244 223.84 173.902 224.291 173.902C224.742 173.902 225.125 174.244 225.125 174.682C225.125 175.119 224.742 175.461 224.291 175.461ZM236.787 167.504C236.623 166.889 236.158 166.479 235.283 166.479C234.367 166.479 233.711 166.971 233.711 167.6C233.711 168.092 234.107 168.434 234.982 168.639L236.09 168.912C237.416 169.227 238.072 169.883 238.072 170.922C238.072 172.207 237.02 173.15 235.16 173.15C233.492 173.15 232.494 172.412 232.303 171.059H233.533C233.67 171.783 234.203 172.125 235.133 172.125C236.186 172.125 236.855 171.688 236.855 170.99C236.855 170.471 236.486 170.115 235.639 169.924L234.518 169.664C233.219 169.363 232.535 168.652 232.535 167.668C232.535 166.396 233.643 165.48 235.283 165.48C236.814 165.48 237.785 166.301 237.936 167.504H236.787ZM242.023 164.564L243.199 162.322H244.553L243.035 164.564H242.023ZM239.248 170.895C239.248 169.186 240.752 168.803 242.037 168.707C242.509 168.673 243.712 168.611 244.047 168.598V167.996C244.047 167.053 243.486 166.506 242.365 166.506C241.422 166.506 240.861 166.943 240.697 167.504H239.467C239.617 166.314 240.779 165.48 242.42 165.48C243.391 165.48 245.209 165.768 245.209 168.105V173H244.047V171.988H243.992C243.746 172.494 243.062 173.178 241.777 173.178C240.369 173.178 239.248 172.344 239.248 170.895ZM240.424 170.949C240.424 171.729 241.08 172.125 241.982 172.125C243.309 172.125 244.047 171.236 244.047 170.307V169.555L242.174 169.691C241.107 169.76 240.424 170.143 240.424 170.949ZM248.271 168.543V173H247.096V165.576H248.23V166.738H248.326C248.682 165.986 249.365 165.48 250.5 165.48C252.004 165.48 253.002 166.396 253.002 168.283V173H251.826V168.365C251.826 167.217 251.197 166.533 250.145 166.533C249.064 166.533 248.271 167.258 248.271 168.543ZM257.896 175.939C256.105 175.939 254.889 175.16 254.752 173.779H255.982C256.146 174.531 256.844 174.914 257.896 174.914C259.168 174.914 259.947 174.367 259.947 173.137V171.633H259.852C259.605 172.043 259.127 172.891 257.691 172.891C255.887 172.891 254.533 171.523 254.533 169.186C254.533 166.902 255.846 165.48 257.705 165.48C259.141 165.48 259.605 166.355 259.879 166.752H259.975V165.576H261.123V173.205C261.123 175.119 259.701 175.939 257.896 175.939ZM257.855 171.838C259.209 171.838 259.975 170.867 259.975 169.227C259.975 167.641 259.236 166.533 257.855 166.533C256.434 166.533 255.723 167.736 255.723 169.227C255.723 170.771 256.447 171.838 257.855 171.838ZM269.75 165.576V166.561H268.191V170.867C268.191 171.824 268.656 171.975 269.162 171.975C269.381 171.975 269.682 171.961 269.859 171.947V173.041C269.682 173.068 269.381 173.096 269.039 173.096C268.055 173.096 267.002 172.48 267.002 171.168V166.561H265.881V165.576H267.002V163.799H268.191V165.576H269.75ZM271.268 173V165.576H272.402V166.711H272.484C272.758 165.959 273.523 165.453 274.398 165.453C274.576 165.453 274.877 165.467 275.014 165.48V166.67C274.932 166.643 274.604 166.588 274.303 166.588C273.236 166.588 272.443 167.326 272.443 168.324V173H271.268ZM280.852 169.951V165.576H282.014V173H280.852V171.742H280.77C280.414 172.494 279.689 173.096 278.568 173.096C277.16 173.096 276.162 172.18 276.162 170.293V165.576H277.338V170.211C277.338 171.277 278.008 171.961 278.951 171.961C279.785 171.961 280.852 171.332 280.852 169.951ZM285.076 168.543V173H283.9V165.576H285.035V166.738H285.131C285.486 165.986 286.17 165.48 287.305 165.48C288.809 165.48 289.807 166.396 289.807 168.283V173H288.631V168.365C288.631 167.217 288.002 166.533 286.949 166.533C285.869 166.533 285.076 167.258 285.076 168.543ZM294.701 175.939C292.91 175.939 291.693 175.16 291.557 173.779H292.787C292.951 174.531 293.648 174.914 294.701 174.914C295.973 174.914 296.752 174.367 296.752 173.137V171.633H296.656C296.41 172.043 295.932 172.891 294.496 172.891C292.691 172.891 291.338 171.523 291.338 169.186C291.338 166.902 292.65 165.48 294.51 165.48C295.945 165.48 296.41 166.355 296.684 166.752H296.779V165.576H297.928V173.205C297.928 175.119 296.506 175.939 294.701 175.939ZM294.66 171.838C296.014 171.838 296.779 170.867 296.779 169.227C296.779 167.641 296.041 166.533 294.66 166.533C293.238 166.533 292.527 167.736 292.527 169.227C292.527 170.771 293.252 171.838 294.66 171.838ZM303.465 173V163.102H304.641V166.752H304.736C304.996 166.355 305.434 165.48 306.883 165.48C308.742 165.48 310.055 166.957 310.055 169.309C310.055 171.66 308.742 173.15 306.896 173.15C305.475 173.15 304.996 172.275 304.736 171.865H304.6V173H303.465ZM304.613 169.281C304.613 170.949 305.365 172.098 306.719 172.098C308.127 172.098 308.865 170.867 308.865 169.281C308.865 167.736 308.154 166.533 306.719 166.533C305.352 166.533 304.613 167.641 304.613 169.281ZM311.586 173V165.576H312.762V173H311.586ZM311.682 164.564L310.178 162.322H311.545L312.707 164.564H311.682ZM315.811 168.543V173H314.635V165.576H315.77V166.738H315.865C316.221 165.986 316.904 165.48 318.039 165.48C319.543 165.48 320.541 166.396 320.541 168.283V173H319.365V168.365C319.365 167.217 318.736 166.533 317.684 166.533C316.604 166.533 315.811 167.258 315.811 168.543ZM323.604 168.543V173H322.428V163.102H323.604V166.738H323.699C324.041 165.973 324.711 165.48 325.887 165.48C327.404 165.48 328.416 166.383 328.416 168.283V173H327.24V168.365C327.24 167.203 326.598 166.533 325.531 166.533C324.424 166.533 323.604 167.258 323.604 168.543ZM130.119 188.543V193H128.943V185.576H130.078V186.738H130.174C130.529 185.986 131.213 185.48 132.348 185.48C133.852 185.48 134.85 186.396 134.85 188.283V193H133.674V188.365C133.674 187.217 133.045 186.533 131.992 186.533C130.912 186.533 130.119 187.258 130.119 188.543ZM137.912 188.543V193H136.736V183.102H137.912V186.738H138.008C138.35 185.973 139.02 185.48 140.195 185.48C141.713 185.48 142.725 186.383 142.725 188.283V193H141.549V188.365C141.549 187.203 140.906 186.533 139.84 186.533C138.732 186.533 137.912 187.258 137.912 188.543ZM144.256 190.895C144.256 189.186 145.76 188.803 147.045 188.707C147.517 188.673 148.72 188.611 149.055 188.598V187.996C149.055 187.053 148.494 186.506 147.373 186.506C146.43 186.506 145.869 186.943 145.705 187.504H144.475C144.625 186.314 145.787 185.48 147.428 185.48C148.398 185.48 150.217 185.768 150.217 188.105V193H149.055V191.988H149C148.754 192.494 148.07 193.178 146.785 193.178C145.377 193.178 144.256 192.344 144.256 190.895ZM145.432 190.949C145.432 191.729 146.088 192.125 146.99 192.125C148.316 192.125 149.055 191.236 149.055 190.307V189.555L147.182 189.691C146.115 189.76 145.432 190.143 145.432 190.949Z" fill="white"/>
<path d="M0 232C0 223.163 7.16344 216 16 216H334C342.837 216 350 223.163 350 232V300C350 308.837 342.837 316 334 316H16C7.16343 316 0 308.837 0 300V232Z" fill="#A5BF21"/>
<path d="M24.5938 241L25.0312 238.348H22.7207L22.2832 241H21.1074L21.5449 238.348H20.123L20.3008 237.186H21.7363L22.1055 234.916H20.6973L20.875 233.74H22.3105L22.7344 231.102H23.9102L23.4863 233.74H25.7969L26.2207 231.102H27.3828L26.959 233.74H28.3945L28.2031 234.916H26.7676L26.3984 237.186H27.8203L27.6152 238.348H26.207L25.7695 241H24.5938ZM22.9121 237.186H25.2227L25.5918 234.916H23.2812L22.9121 237.186ZM34.9023 233.713C34.8066 232.797 34 232.264 32.8652 232.264C31.6484 232.264 30.8828 232.879 30.8828 233.727C30.8828 234.67 31.9082 235.025 32.6875 235.217L33.6445 235.477C34.916 235.777 36.4883 236.475 36.502 238.266C36.4883 239.934 35.1621 241.164 32.8242 241.164C30.6094 241.164 29.2148 240.057 29.1191 238.252H30.623C30.7188 239.332 31.6621 239.852 32.8242 239.852C34.082 239.852 34.998 239.209 35.0117 238.238C34.998 237.377 34.1914 237.021 33.1387 236.748L31.9629 236.434C30.377 235.996 29.3789 235.189 29.3789 233.809C29.3789 232.1 30.9102 230.965 32.9062 230.965C34.916 230.965 36.3242 232.113 36.3652 233.713H34.9023ZM43.1738 231.061C43.1602 232.141 42.3398 232.893 41.0273 232.893C39.7148 232.893 38.8945 232.141 38.8945 231.061H40.084C40.084 231.539 40.3301 231.977 41.0273 231.977C41.6973 231.977 41.9707 231.539 41.9707 231.061H43.1738ZM41.0273 243.557C40.5215 243.557 40.0977 243.174 40.0977 242.695C40.0977 242.217 40.5215 241.834 41.0273 241.834C41.5195 241.834 41.9434 242.217 41.9434 242.695C41.9434 243.174 41.5195 243.557 41.0273 243.557ZM37.6504 238.908C37.6504 237.213 39.0859 236.775 40.4258 236.68C40.918 236.646 42.0322 236.584 42.3809 236.57L42.3672 235.982C42.3672 235.148 41.8613 234.656 40.8633 234.656C40.002 234.656 39.4824 235.053 39.332 235.6H37.8828C38.0195 234.369 39.168 233.48 40.918 233.48C42.0938 233.48 43.8301 233.918 43.8301 236.064V241H42.4082V239.988H42.3535C42.0664 240.549 41.3828 241.164 40.1523 241.164C38.7441 241.164 37.6504 240.357 37.6504 238.908ZM39.0723 238.922C39.0723 239.633 39.6602 240.002 40.4805 240.002C41.6699 240.002 42.3809 239.209 42.3809 238.32V237.637L40.6309 237.76C39.6738 237.828 39.0723 238.184 39.0723 238.922ZM48.7383 241.15C46.5781 241.15 45.2656 239.551 45.2656 237.322C45.2656 235.053 46.6191 233.48 48.7109 233.48C50.4062 233.48 51.6367 234.479 51.7871 235.982H50.3652C50.2148 235.285 49.6543 234.697 48.7383 234.697C47.5352 234.697 46.7285 235.695 46.7285 237.281C46.7285 238.908 47.5215 239.906 48.7383 239.906C49.5586 239.906 50.1875 239.455 50.3652 238.648H51.7871C51.623 240.084 50.4883 241.15 48.7383 241.15ZM60.7559 235.6C60.6191 235.012 60.1543 234.629 59.3477 234.629C58.5137 234.629 57.9121 235.066 57.9258 235.627C57.9121 236.064 58.2676 236.379 59.0879 236.57L60.2637 236.844C61.6309 237.145 62.2871 237.801 62.3008 238.854C62.2871 240.193 61.166 241.15 59.2656 241.15C57.4883 241.15 56.4219 240.357 56.2441 238.977H57.7344C57.8574 239.646 58.377 239.975 59.252 239.975C60.1953 239.975 60.7969 239.592 60.8105 238.963C60.7969 238.484 60.4414 238.17 59.6621 237.992L58.5 237.746C57.1602 237.445 56.4629 236.734 56.4629 235.709C56.4629 234.383 57.6113 233.48 59.334 233.48C60.9883 233.48 62.0137 234.328 62.1641 235.6H60.7559ZM71.0508 233.057C71.0508 234.171 70.7158 234.964 69.9023 235.312C70.1758 235.88 70.3262 236.563 70.3262 237.322C70.3262 239.619 68.959 241.15 66.8672 241.15C64.7617 241.15 63.3945 239.619 63.3945 237.322C63.3945 235.012 64.7617 233.48 66.8672 233.48C67.9336 233.48 68.8086 233.877 69.4238 234.574C69.8408 234.328 69.9297 233.781 69.9297 233.057H71.0508ZM66.8672 239.934C68.207 239.934 68.8496 238.744 68.8496 237.322C68.8496 235.9 68.207 234.684 66.8672 234.684C65.5 234.684 64.8574 235.9 64.8574 237.322C64.8574 238.744 65.5 239.934 66.8672 239.934ZM64.4199 232.646C64.4199 231.58 65.0898 230.883 65.9375 230.883C66.7305 230.883 67.0586 231.539 67.7012 231.539C68.0703 231.539 68.3301 231.225 68.3301 230.801L69.2871 230.855C69.2871 231.936 68.6309 232.592 67.7832 232.592C66.8672 232.592 66.7031 231.949 66.0059 231.949C65.6504 231.949 65.4043 232.264 65.4043 232.674L64.4199 232.646Z" fill="#F7F7F7"/>
<path d="M83.5938 241L84.0312 238.348H81.7207L81.2832 241H80.1074L80.5449 238.348H79.123L79.3008 237.186H80.7363L81.1055 234.916H79.6973L79.875 233.74H81.3105L81.7344 231.102H82.9102L82.4863 233.74H84.7969L85.2207 231.102H86.3828L85.959 233.74H87.3945L87.2031 234.916H85.7676L85.3984 237.186H86.8203L86.6152 238.348H85.207L84.7695 241H83.5938ZM81.9121 237.186H84.2227L84.5918 234.916H82.2812L81.9121 237.186ZM88.0234 232.4V231.102H95.6934V232.4H92.6172V241H91.1133V232.4H88.0234ZM98.5645 236.598V241H97.1016V231.102H98.5371V234.793H98.6328C98.9883 233.986 99.6719 233.48 100.834 233.48C102.365 233.48 103.377 234.424 103.377 236.283V241H101.914V236.461C101.914 235.367 101.326 234.738 100.342 234.738C99.3164 234.738 98.5645 235.408 98.5645 236.598ZM108.709 231.033L110.678 232.701H109.256L108.176 231.744L107.096 232.701H105.674L107.629 231.033H108.709ZM105.182 229.857L106.18 231.635H105.141L103.691 229.857H105.182ZM104.799 238.908C104.799 237.213 106.234 236.775 107.574 236.68C108.066 236.646 109.181 236.584 109.529 236.57L109.516 235.982C109.516 235.148 109.01 234.656 108.012 234.656C107.15 234.656 106.631 235.053 106.48 235.6H105.031C105.168 234.369 106.316 233.48 108.066 233.48C109.242 233.48 110.979 233.918 110.979 236.064V241H109.557V239.988H109.502C109.215 240.549 108.531 241.164 107.301 241.164C105.893 241.164 104.799 240.357 104.799 238.908ZM106.221 238.922C106.221 239.633 106.809 240.002 107.629 240.002C108.818 240.002 109.529 239.209 109.529 238.32V237.637L107.779 237.76C106.822 237.828 106.221 238.184 106.221 238.922ZM114.205 236.598V241H112.742V233.576H114.15V234.793H114.232C114.588 234 115.312 233.48 116.42 233.48C117.951 233.48 118.949 234.438 118.949 236.283V241H117.5V236.461C117.5 235.381 116.912 234.738 115.928 234.738C114.93 234.738 114.205 235.408 114.205 236.598ZM127.617 233.576V234.738H126.1V238.812C126.1 239.646 126.523 239.797 126.988 239.811C127.193 239.811 127.521 239.783 127.727 239.77V241.041C127.521 241.068 127.207 241.096 126.811 241.096C125.662 241.096 124.637 240.467 124.65 239.113V234.738H123.557V233.576H124.65V231.799H126.1V233.576H127.617ZM130.666 236.598V241H129.203V231.102H130.639V234.793H130.734C131.09 233.986 131.773 233.48 132.936 233.48C134.467 233.48 135.479 234.424 135.479 236.283V241H134.016V236.461C134.016 235.367 133.428 234.738 132.443 234.738C131.418 234.738 130.666 235.408 130.666 236.598ZM139.689 232.578L140.811 230.35H142.342L140.838 232.578H139.689ZM136.9 238.908C136.9 237.213 138.336 236.775 139.676 236.68C140.168 236.646 141.282 236.584 141.631 236.57L141.617 235.982C141.617 235.148 141.111 234.656 140.113 234.656C139.252 234.656 138.732 235.053 138.582 235.6H137.133C137.27 234.369 138.418 233.48 140.168 233.48C141.344 233.48 143.08 233.918 143.08 236.064V241H141.658V239.988H141.604C141.316 240.549 140.633 241.164 139.402 241.164C137.994 241.164 136.9 240.357 136.9 238.908ZM138.322 238.922C138.322 239.633 138.91 240.002 139.73 240.002C140.92 240.002 141.631 239.209 141.631 238.32V237.637L139.881 237.76C138.924 237.828 138.322 238.184 138.322 238.922ZM144.844 241V233.576H146.307V241H144.844ZM145.582 232.428C145.076 232.428 144.652 232.045 144.652 231.566C144.652 231.088 145.076 230.705 145.582 230.705C146.074 230.705 146.498 231.088 146.498 231.566C146.498 232.045 146.074 232.428 145.582 232.428Z" fill="#F7F7F7"/>
<path d="M27.8477 254.219C27.5605 252.852 26.3848 252.113 25.0859 252.113C23.2949 252.113 21.9004 253.494 21.9004 256.051C21.9004 258.607 23.2949 259.988 25.0859 259.988C26.3848 259.988 27.5469 259.25 27.8477 257.896H29.0781C28.7227 259.92 27.0957 261.137 25.0859 261.137C22.543 261.137 20.7109 259.182 20.7109 256.051C20.7109 252.92 22.543 250.965 25.0859 250.965C27.082 250.965 28.709 252.168 29.0781 254.219H27.8477ZM31.8262 256.543V261H30.6504V251.102H31.8262V254.738H31.9219C32.2637 253.973 32.9336 253.48 34.1094 253.48C35.627 253.48 36.6387 254.383 36.6387 256.283V261H35.4629V256.365C35.4629 255.203 34.8203 254.533 33.7539 254.533C32.6465 254.533 31.8262 255.258 31.8262 256.543ZM38.5254 261V253.576H39.7012V261H38.5254ZM39.6191 252.564H38.6484V251.539C39.3184 251.498 39.5781 251.361 39.5781 251.047C39.5781 250.705 39.1133 250.555 38.5254 250.555L38.5664 249.816C39.9199 249.816 40.6309 250.322 40.6309 251.088C40.6309 251.744 40.125 252.004 39.6191 252.086V252.564ZM48.123 261.15C46.0176 261.15 44.7324 259.551 44.7324 257.322C44.7324 255.066 46.0723 253.48 48.0957 253.48C49.6816 253.48 50.8574 254.41 51.0488 255.818H49.873C49.709 255.135 49.1074 254.52 48.123 254.52C46.7969 254.52 45.9082 255.613 45.9082 257.281C45.9082 259.004 46.7695 260.098 48.123 260.098C48.998 260.098 49.668 259.633 49.873 258.812H51.0488C50.8574 260.139 49.7773 261.15 48.123 261.15ZM55.957 250.91L57.9395 252.66H56.5449L55.4375 251.635L54.3438 252.66H52.9492L54.9043 250.91H55.957ZM52.5117 249.721L53.4551 251.498H52.457L51.0762 249.721H52.5117ZM52.1426 258.895C52.1426 257.186 53.6465 256.803 54.9316 256.707C55.4033 256.673 56.6064 256.611 56.9414 256.598V255.996C56.9414 255.053 56.3809 254.506 55.2598 254.506C54.3164 254.506 53.7559 254.943 53.5918 255.504H52.3613C52.5117 254.314 53.6738 253.48 55.3145 253.48C56.2852 253.48 58.1035 253.768 58.1035 256.105V261H56.9414V259.988H56.8867C56.6406 260.494 55.957 261.178 54.6719 261.178C53.2637 261.178 52.1426 260.344 52.1426 258.895ZM53.3184 258.949C53.3184 259.729 53.9746 260.125 54.877 260.125C56.2031 260.125 56.9414 259.236 56.9414 258.307V257.555L55.0684 257.691C54.002 257.76 53.3184 258.143 53.3184 258.949ZM61.166 256.543V261H59.9902V253.576H61.125V254.738H61.2207C61.5762 253.986 62.2598 253.48 63.3945 253.48C64.8984 253.48 65.8965 254.396 65.8965 256.283V261H64.7207V256.365C64.7207 255.217 64.0918 254.533 63.0391 254.533C61.959 254.533 61.166 255.258 61.166 256.543ZM72.4727 256.543V261H71.2969V253.576H72.4316V254.738H72.5273C72.8828 253.986 73.5664 253.48 74.7012 253.48C76.2051 253.48 77.2031 254.396 77.2031 256.283V261H76.0273V256.365C76.0273 255.217 75.3984 254.533 74.3457 254.533C73.2656 254.533 72.4727 255.258 72.4727 256.543ZM80.2656 256.543V261H79.0898V251.102H80.2656V254.738H80.3613C80.7031 253.973 81.373 253.48 82.5488 253.48C84.0664 253.48 85.0781 254.383 85.0781 256.283V261H83.9023V256.365C83.9023 255.203 83.2598 254.533 82.1934 254.533C81.0859 254.533 80.2656 255.258 80.2656 256.543ZM94.7031 253.248C94.7031 254.622 94.2793 255.367 92.8164 255.463V261H91.6543V259.742H91.5723C91.2168 260.494 90.4922 261.096 89.3711 261.096C87.9629 261.096 86.9648 260.18 86.9648 258.293V253.576H88.1406V258.211C88.1406 259.277 88.8105 259.961 89.7539 259.961C90.5879 259.961 91.6543 259.332 91.6543 257.951V253.576H92.8164V254.67C93.6709 254.581 93.6914 254.137 93.6914 253.248H94.7031ZM87.5117 252.646C87.5117 251.648 88.168 250.951 88.9883 250.951C89.7402 250.951 90.0684 251.566 90.752 251.566C91.1211 251.566 91.4082 251.252 91.4082 250.842L92.2969 250.91C92.2969 251.936 91.6406 252.564 90.8066 252.564C89.918 252.564 89.7812 251.949 89.0566 251.949C88.6875 251.949 88.4277 252.277 88.4277 252.688L87.5117 252.646ZM96.4395 256.543V261H95.2637V253.576H96.3984V254.738H96.4941C96.8496 253.986 97.5332 253.48 98.668 253.48C100.172 253.48 101.17 254.396 101.17 256.283V261H99.9941V256.365C99.9941 255.217 99.3652 254.533 98.3125 254.533C97.2324 254.533 96.4395 255.258 96.4395 256.543ZM106.064 263.939C104.273 263.939 103.057 263.16 102.92 261.779H104.15C104.314 262.531 105.012 262.914 106.064 262.914C107.336 262.914 108.115 262.367 108.115 261.137V259.633H108.02C107.773 260.043 107.295 260.891 105.859 260.891C104.055 260.891 102.701 259.523 102.701 257.186C102.701 254.902 104.014 253.48 105.873 253.48C107.309 253.48 107.773 254.355 108.047 254.752H108.143V253.576H109.291V261.205C109.291 263.119 107.869 263.939 106.064 263.939ZM106.023 259.838C107.377 259.838 108.143 258.867 108.143 257.227C108.143 255.641 107.404 254.533 106.023 254.533C104.602 254.533 103.891 255.736 103.891 257.227C103.891 258.771 104.615 259.838 106.023 259.838ZM114.678 261V253.576H115.812V254.738H115.908C116.223 253.945 116.934 253.48 117.904 253.48C118.875 253.48 119.531 253.945 119.887 254.738H119.969C120.352 253.973 121.131 253.48 122.197 253.48C123.523 253.48 124.467 254.287 124.467 256.037V261H123.291V256.051C123.291 254.957 122.594 254.533 121.787 254.533C120.748 254.533 120.16 255.23 120.16 256.174V261H118.971V255.928C118.971 255.094 118.369 254.533 117.521 254.533C116.633 254.533 115.854 255.285 115.854 256.365V261H114.678ZM128.801 252.564L127.297 250.322H128.664L129.826 252.564H128.801ZM125.998 258.895C125.998 257.186 127.502 256.803 128.787 256.707C129.259 256.673 130.462 256.611 130.797 256.598V255.996C130.797 255.053 130.236 254.506 129.115 254.506C128.172 254.506 127.611 254.943 127.447 255.504H126.217C126.367 254.314 127.529 253.48 129.17 253.48C130.141 253.48 131.959 253.768 131.959 256.105V261H130.797V259.988H130.742C130.496 260.494 129.812 261.178 128.527 261.178C127.119 261.178 125.998 260.344 125.998 258.895ZM127.174 258.949C127.174 259.729 127.83 260.125 128.732 260.125C130.059 260.125 130.797 259.236 130.797 258.307V257.555L128.924 257.691C127.857 257.76 127.174 258.143 127.174 258.949ZM138.535 257.951V253.576H139.697V261H138.535V259.742H138.453C138.098 260.494 137.373 261.096 136.252 261.096C134.844 261.096 133.846 260.18 133.846 258.293V253.576H135.021V258.211C135.021 259.277 135.691 259.961 136.635 259.961C137.469 259.961 138.535 259.332 138.535 257.951ZM148.133 261.15C146.027 261.15 144.742 259.551 144.742 257.322C144.742 255.066 146.082 253.48 148.105 253.48C149.691 253.48 150.867 254.41 151.059 255.818H149.883C149.719 255.135 149.117 254.52 148.133 254.52C146.807 254.52 145.918 255.613 145.918 257.281C145.918 259.004 146.779 260.098 148.133 260.098C149.008 260.098 149.678 259.633 149.883 258.812H151.059C150.867 260.139 149.787 261.15 148.133 261.15ZM155.543 261.15C153.52 261.15 152.152 259.633 152.152 257.322C152.152 255.012 153.52 253.48 155.543 253.48C157.553 253.48 158.906 255.012 158.906 257.322C158.906 259.633 157.553 261.15 155.543 261.15ZM155.543 260.111C157.033 260.111 157.73 258.799 157.73 257.322C157.73 255.846 157.033 254.52 155.543 254.52C154.025 254.52 153.328 255.846 153.328 257.322C153.328 258.799 154.025 260.111 155.543 260.111ZM155.023 252.564L156.199 250.322H157.553L156.035 252.564H155.023ZM166.768 261.15C164.922 261.15 163.609 259.66 163.609 257.309C163.609 254.957 164.922 253.48 166.781 253.48C168.217 253.48 168.682 254.355 168.928 254.752H169.01V252.934H166.986V252.031H169.01V251.102H170.199V252.031H171.266V252.934H170.199V261H169.051V259.865H168.928C168.668 260.275 168.189 261.15 166.768 261.15ZM166.932 260.098C168.285 260.098 169.051 258.949 169.051 257.281C169.051 255.641 168.312 254.533 166.932 254.533C165.51 254.533 164.799 255.736 164.799 257.281C164.799 258.867 165.523 260.098 166.932 260.098ZM175.271 261.15C173.248 261.15 171.881 259.633 171.881 257.322C171.881 255.012 173.248 253.48 175.271 253.48C177.281 253.48 178.635 255.012 178.635 257.322C178.635 259.633 177.281 261.15 175.271 261.15ZM175.271 260.111C176.762 260.111 177.459 258.799 177.459 257.322C177.459 255.846 176.762 254.52 175.271 254.52C173.754 254.52 173.057 255.846 173.057 257.322C173.057 258.799 173.754 260.111 175.271 260.111ZM176.27 252.688L175.258 251.348L174.26 252.688H173.139V252.605L174.725 250.596H175.791L177.377 252.605V252.688H176.27ZM175.326 263.461C174.875 263.461 174.506 263.119 174.506 262.682C174.506 262.244 174.875 261.902 175.326 261.902C175.777 261.902 176.16 262.244 176.16 262.682C176.16 263.119 175.777 263.461 175.326 263.461ZM183.844 261V251.102H185.02V254.752H185.115C185.375 254.355 185.812 253.48 187.262 253.48C189.121 253.48 190.434 254.957 190.434 257.309C190.434 259.66 189.121 261.15 187.275 261.15C185.854 261.15 185.375 260.275 185.115 259.865H184.979V261H183.844ZM184.992 257.281C184.992 258.949 185.744 260.098 187.098 260.098C188.506 260.098 189.244 258.867 189.244 257.281C189.244 255.736 188.533 254.533 187.098 254.533C185.73 254.533 184.992 255.641 184.992 257.281ZM192.512 252.646C192.512 251.648 193.168 250.951 193.988 250.951C194.74 250.951 195.068 251.566 195.752 251.566C196.121 251.566 196.408 251.252 196.408 250.842L197.297 250.91C197.297 251.936 196.641 252.564 195.807 252.564C194.918 252.564 194.781 251.949 194.057 251.949C193.688 251.949 193.428 252.277 193.428 252.688L192.512 252.646ZM191.609 258.895C191.609 257.186 193.113 256.803 194.398 256.707C194.87 256.673 196.073 256.611 196.408 256.598V255.996C196.408 255.053 195.848 254.506 194.727 254.506C193.783 254.506 193.223 254.943 193.059 255.504H191.828C191.979 254.314 193.141 253.48 194.781 253.48C195.752 253.48 197.57 253.768 197.57 256.105V261H196.408V259.988H196.354C196.107 260.494 195.424 261.178 194.139 261.178C192.73 261.178 191.609 260.344 191.609 258.895ZM192.785 258.949C192.785 259.729 193.441 260.125 194.344 260.125C195.67 260.125 196.408 259.236 196.408 258.307V257.555L194.535 257.691C193.469 257.76 192.785 258.143 192.785 258.949ZM202.492 261.15C200.469 261.15 199.102 259.633 199.102 257.322C199.102 255.012 200.469 253.48 202.492 253.48C204.502 253.48 205.855 255.012 205.855 257.322C205.855 259.633 204.502 261.15 202.492 261.15ZM202.492 260.111C203.982 260.111 204.68 258.799 204.68 257.322C204.68 255.846 203.982 254.52 202.492 254.52C200.975 254.52 200.277 255.846 200.277 257.322C200.277 258.799 200.975 260.111 202.492 260.111ZM212.09 256.543V261H210.914V251.102H212.09V254.738H212.186C212.527 253.973 213.197 253.48 214.373 253.48C215.891 253.48 216.902 254.383 216.902 256.283V261H215.727V256.365C215.727 255.203 215.084 254.533 214.018 254.533C212.91 254.533 212.09 255.258 212.09 256.543ZM221.824 261.15C219.801 261.15 218.434 259.633 218.434 257.322C218.434 255.012 219.801 253.48 221.824 253.48C223.834 253.48 225.188 255.012 225.188 257.322C225.188 259.633 223.834 261.15 221.824 261.15ZM221.824 260.111C223.314 260.111 224.012 258.799 224.012 257.322C224.012 255.846 223.314 254.52 221.824 254.52C220.307 254.52 219.609 255.846 219.609 257.322C219.609 258.799 220.307 260.111 221.824 260.111ZM229.18 252.564L227.676 250.322H229.043L230.205 252.564H229.18ZM226.377 258.895C226.377 257.186 227.881 256.803 229.166 256.707C229.638 256.673 230.841 256.611 231.176 256.598V255.996C231.176 255.053 230.615 254.506 229.494 254.506C228.551 254.506 227.99 254.943 227.826 255.504H226.596C226.746 254.314 227.908 253.48 229.549 253.48C230.52 253.48 232.338 253.768 232.338 256.105V261H231.176V259.988H231.121C230.875 260.494 230.191 261.178 228.906 261.178C227.498 261.178 226.377 260.344 226.377 258.895ZM227.553 258.949C227.553 259.729 228.209 260.125 229.111 260.125C230.438 260.125 231.176 259.236 231.176 258.307V257.555L229.303 257.691C228.236 257.76 227.553 258.143 227.553 258.949ZM240.773 261.15C238.668 261.15 237.383 259.551 237.383 257.322C237.383 255.066 238.723 253.48 240.746 253.48C242.332 253.48 243.508 254.41 243.699 255.818H242.523C242.359 255.135 241.758 254.52 240.773 254.52C239.447 254.52 238.559 255.613 238.559 257.281C238.559 259.004 239.42 260.098 240.773 260.098C241.648 260.098 242.318 259.633 242.523 258.812H243.699C243.508 260.139 242.428 261.15 240.773 261.15ZM244.793 258.895C244.793 257.186 246.297 256.803 247.582 256.707C248.054 256.673 249.257 256.611 249.592 256.598V255.996C249.592 255.053 249.031 254.506 247.91 254.506C246.967 254.506 246.406 254.943 246.242 255.504H245.012C245.162 254.314 246.324 253.48 247.965 253.48C248.936 253.48 250.754 253.768 250.754 256.105V261H249.592V259.988H249.537C249.291 260.494 248.607 261.178 247.322 261.178C245.914 261.178 244.793 260.344 244.793 258.895ZM245.969 258.949C245.969 259.729 246.625 260.125 247.527 260.125C248.854 260.125 249.592 259.236 249.592 258.307V257.555L247.719 257.691C246.652 257.76 245.969 258.143 245.969 258.949ZM255.676 261.15C253.652 261.15 252.285 259.633 252.285 257.322C252.285 255.012 253.652 253.48 255.676 253.48C257.686 253.48 259.039 255.012 259.039 257.322C259.039 259.633 257.686 261.15 255.676 261.15ZM255.676 260.111C257.166 260.111 257.863 258.799 257.863 257.322C257.863 255.846 257.166 254.52 255.676 254.52C254.158 254.52 253.461 255.846 253.461 257.322C253.461 258.799 254.158 260.111 255.676 260.111ZM267.338 253.576V254.561H265.779V258.867C265.779 259.824 266.244 259.975 266.75 259.975C266.969 259.975 267.27 259.961 267.447 259.947V261.041C267.27 261.068 266.969 261.096 266.627 261.096C265.643 261.096 264.59 260.48 264.59 259.168V254.561H263.469V253.576H264.59V251.799H265.779V253.576H267.338ZM270.195 256.543V261H269.02V251.102H270.195V254.738H270.291C270.633 253.973 271.303 253.48 272.479 253.48C273.996 253.48 275.008 254.383 275.008 256.283V261H273.832V256.365C273.832 255.203 273.189 254.533 272.123 254.533C271.016 254.533 270.195 255.258 270.195 256.543ZM276.895 261V253.576H278.07V261H276.895ZM276.99 252.564L275.486 250.322H276.854L278.016 252.564H276.99ZM286.26 261.15C284.414 261.15 283.102 259.66 283.102 257.309C283.102 254.957 284.414 253.48 286.273 253.48C287.709 253.48 288.174 254.355 288.42 254.752H288.502V252.934H286.479V252.031H288.502V251.102H289.691V252.031H290.758V252.934H289.691V261H288.543V259.865H288.42C288.16 260.275 287.682 261.15 286.26 261.15ZM286.424 260.098C287.777 260.098 288.543 258.949 288.543 257.281C288.543 255.641 287.805 254.533 286.424 254.533C285.002 254.533 284.291 255.736 284.291 257.281C284.291 258.867 285.016 260.098 286.424 260.098ZM294.846 261.15C292.699 261.15 291.373 259.633 291.373 257.35C291.373 255.066 292.713 253.48 294.736 253.48C296.295 253.48 297.936 254.438 297.936 257.186V257.678H292.549C292.604 259.25 293.52 260.111 294.846 260.111C295.734 260.111 296.295 259.729 296.568 259.264H297.826C297.471 260.385 296.377 261.15 294.846 261.15ZM295.188 250.91L297.17 252.66H295.775L294.668 251.635L293.574 252.66H292.18L294.135 250.91H295.188ZM291.742 249.721L292.686 251.498H291.688L290.307 249.721H291.742ZM292.562 256.68H296.746C296.746 255.436 295.953 254.52 294.736 254.52C293.451 254.52 292.631 255.531 292.562 256.68ZM304.156 257.951V253.576H305.318V261H304.156V259.742H304.074C303.719 260.494 302.994 261.096 301.873 261.096C300.465 261.096 299.467 260.18 299.467 258.293V253.576H300.643V258.211C300.643 259.277 301.312 259.961 302.256 259.961C303.09 259.961 304.156 259.332 304.156 257.951ZM22.1191 276.543V281H20.9434V271.102H22.1191V274.738H22.2148C22.5566 273.973 23.2266 273.48 24.4023 273.48C25.9199 273.48 26.9316 274.383 26.9316 276.283V281H25.7559V276.365C25.7559 275.203 25.1133 274.533 24.0469 274.533C22.9395 274.533 22.1191 275.258 22.1191 276.543ZM35.9277 273.029C35.9277 274.123 35.6064 274.923 34.7656 275.244C35.0596 275.832 35.2168 276.529 35.2168 277.322C35.2168 279.633 33.8633 281.15 31.8535 281.15C29.8301 281.15 28.4629 279.633 28.4629 277.322C28.4629 275.012 29.8301 273.48 31.8535 273.48C32.8516 273.48 33.6924 273.856 34.2871 274.52C34.7793 274.321 34.8613 273.768 34.8613 273.029H35.9277ZM31.8535 280.111C33.3438 280.111 34.041 278.799 34.041 277.322C34.041 275.846 33.3438 274.52 31.8535 274.52C30.3359 274.52 29.6387 275.846 29.6387 277.322C29.6387 278.799 30.3359 280.111 31.8535 280.111ZM31.9082 283.461C31.457 283.461 31.0879 283.119 31.0879 282.682C31.0879 282.244 31.457 281.902 31.9082 281.902C32.3594 281.902 32.7422 282.244 32.7422 282.682C32.7422 283.119 32.3594 283.461 31.9082 283.461ZM36.7617 283.789V273.576H37.8965V274.752H38.0332C38.2793 274.355 38.7441 273.48 40.1797 273.48C42.0391 273.48 43.3379 274.957 43.3379 277.309C43.3379 279.66 42.0391 281.15 40.1934 281.15C38.7715 281.15 38.2793 280.275 38.0332 279.865H37.9375V283.789H36.7617ZM37.9102 277.281C37.9102 278.949 38.6621 280.098 40.0293 280.098C41.4375 280.098 42.1621 278.867 42.1621 277.281C42.1621 275.736 41.4512 274.533 40.0293 274.533C38.6348 274.533 37.9102 275.641 37.9102 277.281ZM54.4941 273.576L51.7461 281H50.5293L47.7949 273.576H49.0801L51.1035 279.469H51.1855L53.209 273.576H54.4941ZM62.6289 273.029C62.6289 274.123 62.3076 274.923 61.4668 275.244C61.7607 275.832 61.918 276.529 61.918 277.322C61.918 279.633 60.5645 281.15 58.5547 281.15C56.5312 281.15 55.1641 279.633 55.1641 277.322C55.1641 275.012 56.5312 273.48 58.5547 273.48C59.5527 273.48 60.3936 273.856 60.9883 274.52C61.4805 274.321 61.5625 273.768 61.5625 273.029H62.6289ZM58.5547 280.111C60.0449 280.111 60.7422 278.799 60.7422 277.322C60.7422 275.846 60.0449 274.52 58.5547 274.52C57.0371 274.52 56.3398 275.846 56.3398 277.322C56.3398 278.799 57.0371 280.111 58.5547 280.111ZM58.0352 272.564L59.2109 270.322H60.5645L59.0469 272.564H58.0352ZM63.4629 281V273.576H64.6387V281H63.4629ZM64.0508 272.346C63.5996 272.346 63.2305 272.004 63.2305 271.566C63.2305 271.129 63.5996 270.787 64.0508 270.787C64.502 270.787 64.8848 271.129 64.8848 271.566C64.8848 272.004 64.502 272.346 64.0508 272.346ZM70.1758 281V271.102H71.3516V274.752H71.4473C71.707 274.355 72.1445 273.48 73.5938 273.48C75.4531 273.48 76.7656 274.957 76.7656 277.309C76.7656 279.66 75.4531 281.15 73.6074 281.15C72.1855 281.15 71.707 280.275 71.4473 279.865H71.3105V281H70.1758ZM71.3242 277.281C71.3242 278.949 72.0762 280.098 73.4297 280.098C74.8379 280.098 75.5762 278.867 75.5762 277.281C75.5762 275.736 74.8652 274.533 73.4297 274.533C72.0625 274.533 71.3242 275.641 71.3242 277.281ZM81.2227 283.461C80.7715 283.461 80.4023 283.119 80.4023 282.682C80.4023 282.244 80.7715 281.902 81.2227 281.902C81.6738 281.902 82.0566 282.244 82.0566 282.682C82.0566 283.119 81.6738 283.461 81.2227 283.461ZM77.9414 278.895C77.9414 277.186 79.4453 276.803 80.7305 276.707C81.2021 276.673 82.4053 276.611 82.7402 276.598V275.996C82.7402 275.053 82.1797 274.506 81.0586 274.506C80.1152 274.506 79.5547 274.943 79.3906 275.504H78.1602C78.3105 274.314 79.4727 273.48 81.1133 273.48C82.084 273.48 83.9023 273.768 83.9023 276.105V281H82.7402V279.988H82.6855C82.4395 280.494 81.7559 281.178 80.4707 281.178C79.0625 281.178 77.9414 280.344 77.9414 278.895ZM79.1172 278.949C79.1172 279.729 79.7734 280.125 80.6758 280.125C82.002 280.125 82.7402 279.236 82.7402 278.307V277.555L80.8672 277.691C79.8008 277.76 79.1172 278.143 79.1172 278.949ZM86.9648 276.543V281H85.7891V273.576H86.9238V274.738H87.0195C87.375 273.986 88.0586 273.48 89.1934 273.48C90.6973 273.48 91.6953 274.396 91.6953 276.283V281H90.5195V276.365C90.5195 275.217 89.8906 274.533 88.8379 274.533C87.7578 274.533 86.9648 275.258 86.9648 276.543ZM94.416 281.082C93.9375 281.082 93.5273 280.686 93.541 280.193C93.5273 279.715 93.9375 279.318 94.416 279.318C94.8945 279.318 95.291 279.715 95.291 280.193C95.291 280.686 94.8945 281.082 94.416 281.082ZM100.773 281V271.102H104.246C106.324 271.102 107.295 272.264 107.295 273.727C107.295 274.998 106.543 275.572 105.682 275.805V275.9C106.598 275.955 107.691 276.803 107.691 278.375C107.691 279.865 106.707 281 104.369 281H100.773ZM104.355 279.906C105.9 279.906 106.502 279.223 106.502 278.361C106.502 277.35 105.695 276.502 104.424 276.502H102.004V279.906H104.355ZM104.205 275.436C105.271 275.436 106.119 274.779 106.119 273.74C106.119 272.879 105.545 272.195 104.246 272.195H102.004V275.436H104.205ZM112.217 283.461C111.766 283.461 111.396 283.119 111.396 282.682C111.396 282.244 111.766 281.902 112.217 281.902C112.668 281.902 113.051 282.244 113.051 282.682C113.051 283.119 112.668 283.461 112.217 283.461ZM108.936 278.895C108.936 277.186 110.439 276.803 111.725 276.707C112.196 276.673 113.399 276.611 113.734 276.598V275.996C113.734 275.053 113.174 274.506 112.053 274.506C111.109 274.506 110.549 274.943 110.385 275.504H109.154C109.305 274.314 110.467 273.48 112.107 273.48C113.078 273.48 114.896 273.768 114.896 276.105V281H113.734V279.988H113.68C113.434 280.494 112.75 281.178 111.465 281.178C110.057 281.178 108.936 280.344 108.936 278.895ZM110.111 278.949C110.111 279.729 110.768 280.125 111.67 280.125C112.996 280.125 113.734 279.236 113.734 278.307V277.555L111.861 277.691C110.795 277.76 110.111 278.143 110.111 278.949ZM117.959 276.543V281H116.783V273.576H117.918V274.738H118.014C118.369 273.986 119.053 273.48 120.188 273.48C121.691 273.48 122.689 274.396 122.689 276.283V281H121.514V276.365C121.514 275.217 120.885 274.533 119.832 274.533C118.752 274.533 117.959 275.258 117.959 276.543ZM131.125 281.15C129.02 281.15 127.734 279.551 127.734 277.322C127.734 275.066 129.074 273.48 131.098 273.48C132.684 273.48 133.859 274.41 134.051 275.818H132.875C132.711 275.135 132.109 274.52 131.125 274.52C129.799 274.52 128.91 275.613 128.91 277.281C128.91 279.004 129.771 280.098 131.125 280.098C132 280.098 132.67 279.633 132.875 278.812H134.051C133.859 280.139 132.779 281.15 131.125 281.15ZM140.189 277.951V273.576H141.352V281H140.189V279.742H140.107C139.752 280.494 139.027 281.096 137.906 281.096C136.498 281.096 135.5 280.18 135.5 278.293V273.576H136.676V278.211C136.676 279.277 137.346 279.961 138.289 279.961C139.123 279.961 140.189 279.332 140.189 277.951ZM136.047 272.646C136.047 271.648 136.703 270.951 137.523 270.951C138.275 270.951 138.604 271.566 139.287 271.566C139.656 271.566 139.943 271.252 139.943 270.842L140.832 270.91C140.832 271.936 140.176 272.564 139.342 272.564C138.453 272.564 138.316 271.949 137.592 271.949C137.223 271.949 136.963 272.277 136.963 272.688L136.047 272.646ZM144.414 276.543V281H143.238V273.576H144.373V274.738H144.469C144.824 273.986 145.508 273.48 146.643 273.48C148.146 273.48 149.145 274.396 149.145 276.283V281H147.969V276.365C147.969 275.217 147.34 274.533 146.287 274.533C145.207 274.533 144.414 275.258 144.414 276.543ZM154.039 283.939C152.248 283.939 151.031 283.16 150.895 281.779H152.125C152.289 282.531 152.986 282.914 154.039 282.914C155.311 282.914 156.09 282.367 156.09 281.137V279.633H155.994C155.748 280.043 155.27 280.891 153.834 280.891C152.029 280.891 150.676 279.523 150.676 277.186C150.676 274.902 151.988 273.48 153.848 273.48C155.283 273.48 155.748 274.355 156.021 274.752H156.117V273.576H157.266V281.205C157.266 283.119 155.844 283.939 154.039 283.939ZM153.998 279.838C155.352 279.838 156.117 278.867 156.117 277.227C156.117 275.641 155.379 274.533 153.998 274.533C152.576 274.533 151.865 275.736 151.865 277.227C151.865 278.771 152.59 279.838 153.998 279.838ZM165.688 281.15C163.582 281.15 162.297 279.551 162.297 277.322C162.297 275.066 163.637 273.48 165.66 273.48C167.246 273.48 168.422 274.41 168.613 275.818H167.438C167.273 275.135 166.672 274.52 165.688 274.52C164.361 274.52 163.473 275.613 163.473 277.281C163.473 279.004 164.334 280.098 165.688 280.098C166.562 280.098 167.232 279.633 167.438 278.812H168.613C168.422 280.139 167.342 281.15 165.688 281.15ZM173.098 281.15C171.074 281.15 169.707 279.633 169.707 277.322C169.707 275.012 171.074 273.48 173.098 273.48C175.107 273.48 176.461 275.012 176.461 277.322C176.461 279.633 175.107 281.15 173.098 281.15ZM173.098 280.111C174.588 280.111 175.285 278.799 175.285 277.322C175.285 275.846 174.588 274.52 173.098 274.52C171.58 274.52 170.883 275.846 170.883 277.322C170.883 278.799 171.58 280.111 173.098 280.111ZM172.578 272.564L173.754 270.322H175.107L173.59 272.564H172.578ZM184.76 273.576V274.561H183.201V278.867C183.201 279.824 183.666 279.975 184.172 279.975C184.391 279.975 184.691 279.961 184.869 279.947V281.041C184.691 281.068 184.391 281.096 184.049 281.096C183.064 281.096 182.012 280.48 182.012 279.168V274.561H180.891V273.576H182.012V271.799H183.201V273.576H184.76ZM187.617 276.543V281H186.441V271.102H187.617V274.738H187.713C188.055 273.973 188.725 273.48 189.9 273.48C191.418 273.48 192.43 274.383 192.43 276.283V281H191.254V276.365C191.254 275.203 190.611 274.533 189.545 274.533C188.438 274.533 187.617 275.258 187.617 276.543ZM197.434 281.15C195.287 281.15 193.961 279.633 193.961 277.35C193.961 275.066 195.301 273.48 197.324 273.48C198.883 273.48 200.523 274.438 200.523 277.186V277.678H195.137C195.191 279.25 196.107 280.111 197.434 280.111C198.322 280.111 198.883 279.729 199.156 279.264H200.414C200.059 280.385 198.965 281.15 197.434 281.15ZM197.898 271.02L199.744 272.77H198.541L197.229 271.566L195.943 272.77H194.74L196.572 271.02H197.898ZM199.949 271.854H199.129L199.115 270.965C199.662 270.924 199.908 270.855 199.908 270.555C199.908 270.254 199.525 270.131 199.006 270.131L199.047 269.502C200.209 269.502 200.824 269.926 200.824 270.582C200.824 271.156 200.4 271.389 199.949 271.443V271.854ZM195.15 276.68H199.334C199.334 275.436 198.541 274.52 197.324 274.52C196.039 274.52 195.219 275.531 195.15 276.68ZM209.697 275.504C209.533 274.889 209.068 274.479 208.193 274.479C207.277 274.479 206.621 274.971 206.621 275.6C206.621 276.092 207.018 276.434 207.893 276.639L209 276.912C210.326 277.227 210.982 277.883 210.982 278.922C210.982 280.207 209.93 281.15 208.07 281.15C206.402 281.15 205.404 280.412 205.213 279.059H206.443C206.58 279.783 207.113 280.125 208.043 280.125C209.096 280.125 209.766 279.688 209.766 278.99C209.766 278.471 209.396 278.115 208.549 277.924L207.428 277.664C206.129 277.363 205.445 276.652 205.445 275.668C205.445 274.396 206.553 273.48 208.193 273.48C209.725 273.48 210.695 274.301 210.846 275.504H209.697ZM220.252 273.248C220.252 274.622 219.828 275.367 218.365 275.463V281H217.203V279.742H217.121C216.766 280.494 216.041 281.096 214.92 281.096C213.512 281.096 212.514 280.18 212.514 278.293V273.576H213.689V278.211C213.689 279.277 214.359 279.961 215.303 279.961C216.137 279.961 217.203 279.332 217.203 277.951V273.576H218.365V274.67C219.22 274.581 219.24 274.137 219.24 273.248H220.252ZM215.959 272.564H214.988V271.539C215.658 271.498 215.918 271.361 215.918 271.047C215.918 270.705 215.453 270.555 214.865 270.555L214.906 269.816C216.26 269.816 216.971 270.322 216.971 271.088C216.971 271.744 216.465 272.004 215.959 272.086V272.564ZM227.129 281.15C225.283 281.15 223.971 279.66 223.971 277.309C223.971 274.957 225.283 273.48 227.143 273.48C228.578 273.48 229.043 274.355 229.289 274.752H229.371V271.102H230.561V281H229.412V279.865H229.289C229.029 280.275 228.551 281.15 227.129 281.15ZM227.293 280.098C228.646 280.098 229.412 278.949 229.412 277.281C229.412 275.641 228.674 274.533 227.293 274.533C225.871 274.533 225.16 275.736 225.16 277.281C225.16 278.867 225.885 280.098 227.293 280.098ZM237.287 277.951V273.576H238.449V281H237.287V279.742H237.205C236.85 280.494 236.125 281.096 235.004 281.096C233.596 281.096 232.598 280.18 232.598 278.293V273.576H233.773V278.211C233.773 279.277 234.443 279.961 235.387 279.961C236.221 279.961 237.287 279.332 237.287 277.951ZM235.605 283.461C235.154 283.461 234.785 283.119 234.785 282.682C234.785 282.244 235.154 281.902 235.605 281.902C236.057 281.902 236.439 282.244 236.439 282.682C236.439 283.119 236.057 283.461 235.605 283.461ZM241.512 276.543V281H240.336V273.576H241.471V274.738H241.566C241.922 273.986 242.605 273.48 243.74 273.48C245.244 273.48 246.242 274.396 246.242 276.283V281H245.066V276.365C245.066 275.217 244.438 274.533 243.385 274.533C242.305 274.533 241.512 275.258 241.512 276.543ZM251.137 283.939C249.346 283.939 248.129 283.16 247.992 281.779H249.223C249.387 282.531 250.084 282.914 251.137 282.914C252.408 282.914 253.188 282.367 253.188 281.137V279.633H253.092C252.846 280.043 252.367 280.891 250.932 280.891C249.127 280.891 247.773 279.523 247.773 277.186C247.773 274.902 249.086 273.48 250.945 273.48C252.381 273.48 252.846 274.355 253.119 274.752H253.215V273.576H254.363V281.205C254.363 283.119 252.941 283.939 251.137 283.939ZM251.096 279.838C252.449 279.838 253.215 278.867 253.215 277.227C253.215 275.641 252.477 274.533 251.096 274.533C249.674 274.533 248.963 275.736 248.963 277.227C248.963 278.771 249.688 279.838 251.096 279.838ZM260.926 276.543V281H259.75V273.576H260.885V274.738H260.98C261.336 273.986 262.02 273.48 263.154 273.48C264.658 273.48 265.656 274.396 265.656 276.283V281H264.48V276.365C264.48 275.217 263.852 274.533 262.799 274.533C261.719 274.533 260.926 275.258 260.926 276.543ZM268.719 276.543V281H267.543V271.102H268.719V274.738H268.814C269.156 273.973 269.826 273.48 271.002 273.48C272.52 273.48 273.531 274.383 273.531 276.283V281H272.355V276.365C272.355 275.203 271.713 274.533 270.646 274.533C269.539 274.533 268.719 275.258 268.719 276.543ZM283.156 273.248C283.156 274.622 282.732 275.367 281.27 275.463V281H280.107V279.742H280.025C279.67 280.494 278.945 281.096 277.824 281.096C276.416 281.096 275.418 280.18 275.418 278.293V273.576H276.594V278.211C276.594 279.277 277.264 279.961 278.207 279.961C279.041 279.961 280.107 279.332 280.107 277.951V273.576H281.27V274.67C282.124 274.581 282.145 274.137 282.145 273.248H283.156ZM275.965 272.646C275.965 271.648 276.621 270.951 277.441 270.951C278.193 270.951 278.521 271.566 279.205 271.566C279.574 271.566 279.861 271.252 279.861 270.842L280.75 270.91C280.75 271.936 280.094 272.564 279.26 272.564C278.371 272.564 278.234 271.949 277.51 271.949C277.141 271.949 276.881 272.277 276.881 272.688L275.965 272.646ZM284.893 276.543V281H283.717V273.576H284.852V274.738H284.947C285.303 273.986 285.986 273.48 287.121 273.48C288.625 273.48 289.623 274.396 289.623 276.283V281H288.447V276.365C288.447 275.217 287.818 274.533 286.766 274.533C285.686 274.533 284.893 275.258 284.893 276.543ZM294.518 283.939C292.727 283.939 291.51 283.16 291.373 281.779H292.604C292.768 282.531 293.465 282.914 294.518 282.914C295.789 282.914 296.568 282.367 296.568 281.137V279.633H296.473C296.227 280.043 295.748 280.891 294.312 280.891C292.508 280.891 291.154 279.523 291.154 277.186C291.154 274.902 292.467 273.48 294.326 273.48C295.762 273.48 296.227 274.355 296.5 274.752H296.596V273.576H297.744V281.205C297.744 283.119 296.322 283.939 294.518 283.939ZM294.477 279.838C295.83 279.838 296.596 278.867 296.596 277.227C296.596 275.641 295.857 274.533 294.477 274.533C293.055 274.533 292.344 275.736 292.344 277.227C292.344 278.771 293.068 279.838 294.477 279.838ZM303.131 281V273.576H304.266V274.738H304.361C304.676 273.945 305.387 273.48 306.357 273.48C307.328 273.48 307.984 273.945 308.34 274.738H308.422C308.805 273.973 309.584 273.48 310.65 273.48C311.977 273.48 312.92 274.287 312.92 276.037V281H311.744V276.051C311.744 274.957 311.047 274.533 310.24 274.533C309.201 274.533 308.613 275.23 308.613 276.174V281H307.424V275.928C307.424 275.094 306.822 274.533 305.975 274.533C305.086 274.533 304.307 275.285 304.307 276.365V281H303.131ZM317.254 272.564L315.75 270.322H317.117L318.279 272.564H317.254ZM314.451 278.895C314.451 277.186 315.955 276.803 317.24 276.707C317.712 276.673 318.915 276.611 319.25 276.598V275.996C319.25 275.053 318.689 274.506 317.568 274.506C316.625 274.506 316.064 274.943 315.9 275.504H314.67C314.82 274.314 315.982 273.48 317.623 273.48C318.594 273.48 320.412 273.768 320.412 276.105V281H319.25V279.988H319.195C318.949 280.494 318.266 281.178 316.98 281.178C315.572 281.178 314.451 280.344 314.451 278.895ZM315.627 278.949C315.627 279.729 316.283 280.125 317.186 280.125C318.512 280.125 319.25 279.236 319.25 278.307V277.555L317.377 277.691C316.311 277.76 315.627 278.143 315.627 278.949ZM326.988 277.951V273.576H328.15V281H326.988V279.742H326.906C326.551 280.494 325.826 281.096 324.705 281.096C323.297 281.096 322.299 280.18 322.299 278.293V273.576H323.475V278.211C323.475 279.277 324.145 279.961 325.088 279.961C325.922 279.961 326.988 279.332 326.988 277.951ZM23.9785 301.15C21.873 301.15 20.5879 299.551 20.5879 297.322C20.5879 295.066 21.9277 293.48 23.9512 293.48C25.5371 293.48 26.7129 294.41 26.9043 295.818H25.7285C25.5645 295.135 24.9629 294.52 23.9785 294.52C22.6523 294.52 21.7637 295.613 21.7637 297.281C21.7637 299.004 22.625 300.098 23.9785 300.098C24.8535 300.098 25.5234 299.633 25.7285 298.812H26.9043C26.7129 300.139 25.6328 301.15 23.9785 301.15ZM33.043 297.951V293.576H34.2051V301H33.043V299.742H32.9609C32.6055 300.494 31.8809 301.096 30.7598 301.096C29.3516 301.096 28.3535 300.18 28.3535 298.293V293.576H29.5293V298.211C29.5293 299.277 30.1992 299.961 31.1426 299.961C31.9766 299.961 33.043 299.332 33.043 297.951ZM31.7988 292.564H30.8281V291.539C31.498 291.498 31.7578 291.361 31.7578 291.047C31.7578 290.705 31.293 290.555 30.7051 290.555L30.7461 289.816C32.0996 289.816 32.8105 290.322 32.8105 291.088C32.8105 291.744 32.3047 292.004 31.7988 292.086V292.564ZM35.7363 298.895C35.7363 297.186 37.2402 296.803 38.5254 296.707C38.9971 296.673 40.2002 296.611 40.5352 296.598V295.996C40.5352 295.053 39.9746 294.506 38.8535 294.506C37.9102 294.506 37.3496 294.943 37.1855 295.504H35.9551C36.1055 294.314 37.2676 293.48 38.9082 293.48C39.8789 293.48 41.6973 293.768 41.6973 296.105V301H40.5352V299.988H40.4805C40.2344 300.494 39.5508 301.178 38.2656 301.178C36.8574 301.178 35.7363 300.344 35.7363 298.895ZM36.9121 298.949C36.9121 299.729 37.5684 300.125 38.4707 300.125C39.7969 300.125 40.5352 299.236 40.5352 298.307V297.555L38.6621 297.691C37.5957 297.76 36.9121 298.143 36.9121 298.949ZM50.3379 293.576V294.561H48.7793V298.867C48.7793 299.824 49.2441 299.975 49.75 299.975C49.9688 299.975 50.2695 299.961 50.4473 299.947V301.041C50.2695 301.068 49.9688 301.096 49.627 301.096C48.6426 301.096 47.5898 300.48 47.5898 299.168V294.561H46.4688V293.576H47.5898V291.799H48.7793V293.576H50.3379ZM54.8086 301.15C52.7852 301.15 51.418 299.633 51.418 297.322C51.418 295.012 52.7852 293.48 54.8086 293.48C56.8184 293.48 58.1719 295.012 58.1719 297.322C58.1719 299.633 56.8184 301.15 54.8086 301.15ZM54.8086 300.111C56.2988 300.111 56.9961 298.799 56.9961 297.322C56.9961 295.846 56.2988 294.52 54.8086 294.52C53.291 294.52 52.5938 295.846 52.5938 297.322C52.5938 298.799 53.291 300.111 54.8086 300.111ZM55.8066 292.688L54.7949 291.348L53.7969 292.688H52.6758V292.605L54.2617 290.596H55.3281L56.9141 292.605V292.688H55.8066ZM60.8926 296.543V301H59.7168V293.576H60.8516V294.738H60.9473C61.3027 293.986 61.9863 293.48 63.1211 293.48C64.625 293.48 65.623 294.396 65.623 296.283V301H64.4473V296.365C64.4473 295.217 63.8184 294.533 62.7656 294.533C61.6855 294.533 60.8926 295.258 60.8926 296.543ZM70.5176 303.939C68.7266 303.939 67.5098 303.16 67.373 301.779H68.6035C68.7676 302.531 69.4648 302.914 70.5176 302.914C71.7891 302.914 72.5684 302.367 72.5684 301.137V299.633H72.4727C72.2266 300.043 71.748 300.891 70.3125 300.891C68.5078 300.891 67.1543 299.523 67.1543 297.186C67.1543 294.902 68.4668 293.48 70.3262 293.48C71.7617 293.48 72.2266 294.355 72.5 294.752H72.5957V293.576H73.7441V301.205C73.7441 303.119 72.3223 303.939 70.5176 303.939ZM70.4766 299.838C71.8301 299.838 72.5957 298.867 72.5957 297.227C72.5957 295.641 71.8574 294.533 70.4766 294.533C69.0547 294.533 68.3438 295.736 68.3438 297.227C68.3438 298.771 69.0684 299.838 70.4766 299.838ZM79.9102 291.102L82.4258 295.189H82.5078L85.0371 291.102H86.4863L83.3828 296.051L86.4863 301H85.0371L82.5078 296.994H82.4258L79.8965 301H78.4473L81.6328 296.051L78.4473 291.102H79.9102ZM92.3926 297.951V293.576H93.5547V301H92.3926V299.742H92.3105C91.9551 300.494 91.2305 301.096 90.1094 301.096C88.7012 301.096 87.7031 300.18 87.7031 298.293V293.576H88.8789V298.211C88.8789 299.277 89.5488 299.961 90.4922 299.961C91.3262 299.961 92.3926 299.332 92.3926 297.951ZM99.3789 292.688L98.3672 291.348L97.3691 292.688H96.248V292.605L97.834 290.596H98.9004L100.486 292.605V292.688H99.3789ZM95.0859 298.895C95.0859 297.186 96.5898 296.803 97.875 296.707C98.3467 296.673 99.5498 296.611 99.8848 296.598V295.996C99.8848 295.053 99.3242 294.506 98.2031 294.506C97.2598 294.506 96.6992 294.943 96.5352 295.504H95.3047C95.4551 294.314 96.6172 293.48 98.2578 293.48C99.2285 293.48 101.047 293.768 101.047 296.105V301H99.8848V299.988H99.8301C99.584 300.494 98.9004 301.178 97.6152 301.178C96.207 301.178 95.0859 300.344 95.0859 298.895ZM96.2617 298.949C96.2617 299.729 96.918 300.125 97.8203 300.125C99.1465 300.125 99.8848 299.236 99.8848 298.307V297.555L98.0117 297.691C96.9453 297.76 96.2617 298.143 96.2617 298.949ZM104.109 296.543V301H102.934V293.576H104.068V294.738H104.164C104.52 293.986 105.203 293.48 106.338 293.48C107.842 293.48 108.84 294.396 108.84 296.283V301H107.664V296.365C107.664 295.217 107.035 294.533 105.982 294.533C104.902 294.533 104.109 295.258 104.109 296.543ZM114.391 301V291.102H117.863C119.941 291.102 120.912 292.264 120.912 293.727C120.912 294.998 120.16 295.572 119.299 295.805V295.9C120.215 295.955 121.309 296.803 121.309 298.375C121.309 299.865 120.324 301 117.986 301H114.391ZM117.973 299.906C119.518 299.906 120.119 299.223 120.119 298.361C120.119 297.35 119.312 296.502 118.041 296.502H115.621V299.906H117.973ZM117.822 295.436C118.889 295.436 119.736 294.779 119.736 293.74C119.736 292.879 119.162 292.195 117.863 292.195H115.621V295.436H117.822ZM122.908 301V293.576H124.043V294.711H124.125C124.398 293.959 125.164 293.453 126.039 293.453C126.217 293.453 126.518 293.467 126.654 293.48V294.67C126.572 294.643 126.244 294.588 125.943 294.588C124.877 294.588 124.084 295.326 124.084 296.324V301H122.908ZM127.803 301V293.576H128.979V301H127.803ZM128.391 292.346C127.939 292.346 127.57 292.004 127.57 291.566C127.57 291.129 127.939 290.787 128.391 290.787C128.842 290.787 129.225 291.129 129.225 291.566C129.225 292.004 128.842 292.346 128.391 292.346ZM133.859 303.939C132.068 303.939 130.852 303.16 130.715 301.779H131.945C132.109 302.531 132.807 302.914 133.859 302.914C135.131 302.914 135.91 302.367 135.91 301.137V299.633H135.814C135.568 300.043 135.09 300.891 133.654 300.891C131.85 300.891 130.496 299.523 130.496 297.186C130.496 294.902 131.809 293.48 133.668 293.48C135.104 293.48 135.568 294.355 135.842 294.752H135.938V293.576H137.086V301.205C137.086 303.119 135.664 303.939 133.859 303.939ZM133.818 299.838C135.172 299.838 135.938 298.867 135.938 297.227C135.938 295.641 135.199 294.533 133.818 294.533C132.396 294.533 131.686 295.736 131.686 297.227C131.686 298.771 132.41 299.838 133.818 299.838ZM140.135 296.543V301H138.959V291.102H140.135V294.738H140.23C140.572 293.973 141.242 293.48 142.418 293.48C143.936 293.48 144.947 294.383 144.947 296.283V301H143.771V296.365C143.771 295.203 143.129 294.533 142.062 294.533C140.955 294.533 140.135 295.258 140.135 296.543ZM150.074 293.576V294.561H148.516V298.867C148.516 299.824 148.98 299.975 149.486 299.975C149.705 299.975 150.006 299.961 150.184 299.947V301.041C150.006 301.068 149.705 301.096 149.363 301.096C148.379 301.096 147.326 300.48 147.326 299.168V294.561H146.205V293.576H147.326V291.799H148.516V293.576H150.074ZM156.281 296.543V301H155.105V293.576H156.24V294.738H156.336C156.691 293.986 157.375 293.48 158.51 293.48C160.014 293.48 161.012 294.396 161.012 296.283V301H159.836V296.365C159.836 295.217 159.207 294.533 158.154 294.533C157.074 294.533 156.281 295.258 156.281 296.543ZM164.074 296.543V301H162.898V291.102H164.074V294.738H164.17C164.512 293.973 165.182 293.48 166.357 293.48C167.875 293.48 168.887 294.383 168.887 296.283V301H167.711V296.365C167.711 295.203 167.068 294.533 166.002 294.533C164.895 294.533 164.074 295.258 164.074 296.543ZM173.891 301.15C171.744 301.15 170.418 299.633 170.418 297.35C170.418 295.066 171.758 293.48 173.781 293.48C175.34 293.48 176.98 294.438 176.98 297.186V297.678H171.594C171.648 299.25 172.564 300.111 173.891 300.111C174.779 300.111 175.34 299.729 175.613 299.264H176.871C176.516 300.385 175.422 301.15 173.891 301.15ZM173.193 292.564L174.369 290.322H175.723L174.205 292.564H173.193ZM171.607 296.68H175.791C175.791 295.436 174.998 294.52 173.781 294.52C172.496 294.52 171.676 295.531 171.607 296.68Z" fill="white"/>
</svg>
