<svg width="32" height="32" viewBox="0 0 32 32" fill="none" xmlns="http://www.w3.org/2000/svg">
<g id="uil:redo">
<path id="Vector" d="M27.9994 14.667C27.6457 14.667 27.3066 14.8075 27.0565 15.0575C26.8065 15.3076 26.666 15.6467 26.666 16.0003C26.6819 18.4977 25.8264 20.9224 24.2469 22.8569C22.6674 24.7914 20.4627 26.1146 18.0126 26.5985C15.5625 27.0824 13.0204 26.6968 10.824 25.508C8.62765 24.3193 6.91456 22.4019 5.97978 20.086C5.04501 17.7701 4.94707 15.2007 5.70284 12.8204C6.45862 10.4401 8.02078 8.39784 10.1203 7.04536C12.2198 5.69289 14.7252 5.11488 17.205 5.41087C19.6849 5.70687 21.9838 6.85835 23.706 8.66699H20.506C20.1524 8.66699 19.8133 8.80747 19.5632 9.05752C19.3132 9.30756 19.1727 9.6467 19.1727 10.0003C19.1727 10.3539 19.3132 10.6931 19.5632 10.9431C19.8133 11.1932 20.1524 11.3337 20.506 11.3337H26.546C26.8996 11.3337 27.2388 11.1932 27.4888 10.9431C27.7389 10.6931 27.8794 10.3539 27.8794 10.0003V4.00033C27.8794 3.6467 27.7389 3.30756 27.4888 3.05752C27.2388 2.80747 26.8996 2.66699 26.546 2.66699C26.1924 2.66699 25.8533 2.80747 25.6032 3.05752C25.3532 3.30756 25.2127 3.6467 25.2127 4.00033V6.36033C22.9922 4.23774 20.107 2.94693 17.0447 2.7061C13.9824 2.46527 10.9309 3.28918 8.40591 5.03858C5.88097 6.78797 4.0375 9.35553 3.18712 12.3072C2.33675 15.259 2.53163 18.4138 3.73883 21.2384C4.94603 24.063 7.09149 26.3841 9.81255 27.8095C12.5336 29.2348 15.6634 29.6769 18.6727 29.061C21.6821 28.4451 24.3866 26.809 26.3289 24.4292C28.2712 22.0495 29.3322 19.0721 29.3327 16.0003C29.3327 15.6467 29.1922 15.3076 28.9422 15.0575C28.6921 14.8075 28.353 14.667 27.9994 14.667Z" fill="white"/>
</g>
</svg>
