<svg width="89" height="88" viewBox="0 0 89 88" fill="none" xmlns="http://www.w3.org/2000/svg">
<path d="M93.7503 12.5007C93.7503 9.04897 90.9482 6.2275 87.5052 6.474C66.5934 7.97122 46.8025 16.9484 31.8752 31.8757C16.948 46.803 7.97073 66.5938 6.47351 87.5057C6.22701 90.9486 9.04848 93.7507 12.5003 93.7507C12.5003 93.7507 14.4062 93.8084 15.6252 93.7507C21.8752 67.1882 23.8752 56.282 38.5002 41.6257C53.1565 26.9694 73.4377 18.7507 93.7502 15.6257L93.7503 12.5007Z" fill="#F8312F"/>
<path d="M93.75 25V15.625C73.0312 15.625 53.1563 23.8437 38.5 38.5C23.875 53.1562 15.625 73.0312 15.625 93.75H25C28.125 81.25 35.375 61.1562 48.25 48.25C61.125 35.375 73.4375 29.6875 93.75 25Z" fill="#FFB02E"/>
<path d="M93.75 25V34.375C78.125 35.9375 66 43.75 54.875 54.875C43.75 66.0312 37.5 78.125 34.375 93.75H25C25 75.5312 32.25 58.0312 45.125 45.125C58 32.25 75.5 25 93.75 25Z" fill="#FFF478"/>
<path d="M61.5313 61.5312C52.1563 70.9062 46.875 81.25 43.75 93.75H34.375C34.375 78 40.625 62.9062 51.75 51.75C62.875 40.625 78 34.375 93.75 34.375V43.75C79.6875 46.875 70.9063 52.1562 61.5313 61.5312Z" fill="#00D26A"/>
<path d="M93.75 53.125V43.75C80.5 43.75 67.7813 49.0312 58.4063 58.4062C49.0313 67.7812 43.75 80.5 43.75 93.75H53.125C53.125 82.9687 57.4062 72.625 65.0312 65.0312C72.6562 57.4062 83 53.125 93.75 53.125Z" fill="#3F5FFF"/>
<path d="M93.75 56.25C93.75 59.7018 90.9236 62.4348 87.5399 63.117C75.2631 65.5924 65.5924 75.2631 63.117 87.5399C62.4348 90.9236 59.7018 93.75 56.25 93.75L53.125 93.75C53.125 82.9687 57.4062 72.625 65.0312 65.0312C72.6562 57.4062 83 53.125 93.75 53.125V56.25Z" fill="#8D65C5"/>
</svg>
