<svg width="18" height="18" viewBox="0 0 18 18" fill="none" xmlns="http://www.w3.org/2000/svg">
<path id="Icon" fill-rule="evenodd" clip-rule="evenodd" d="M17.25 9C17.25 4.44365 13.5563 0.75 9 0.75C4.44365 0.75 0.75 4.44365 0.75 9C0.75 13.5563 4.44365 17.25 9 17.25C13.5563 17.25 17.25 13.5563 17.25 9ZM8.25 5.25C8.25 4.83579 8.58579 4.5 9 4.5C9.41421 4.5 9.75 4.83579 9.75 5.25V9.75C9.75 10.1642 9.41421 10.5 9 10.5C8.58579 10.5 8.25 10.1642 8.25 9.75V5.25ZM8.25 12C8.25 11.5858 8.58579 11.25 9 11.25C9.41421 11.25 9.75 11.5858 9.75 12C9.75 12.4142 9.41421 12.75 9 12.75C8.58579 12.75 8.25 12.4142 8.25 12Z" fill="#935DFF"/>
</svg>
