<svg width="48" height="48" viewBox="0 0 48 48" fill="none" xmlns="http://www.w3.org/2000/svg">
<rect width="48" height="48" rx="12" fill="#F4F5F8"/>
<path d="M36.3375 26.3751C35.4625 25.0251 35.4625 23.3626 36.3375 22.0251C36.95 21.0876 37.3125 19.9626 37.3125 18.7501C37.3125 16.1251 35.275 13.8376 32.65 13.0751C31.4625 12.7251 30.5875 11.7876 30.175 10.6251C29.375 8.37506 27.0875 6.48756 24.4375 6.50006C21.9 6.51256 19.8 8.38756 18.9 10.5751C18.45 11.6626 17.525 12.5501 16.375 12.7751C13.5375 13.3501 11.5 15.9751 11.5 18.6751C11.5 19.8876 11.8625 21.0001 12.475 21.9501C13.35 23.3001 13.35 24.9626 12.475 26.3001C11.8625 27.2376 11.5 28.3626 11.5 29.5751C11.5 32.2751 13.375 34.9001 16.0875 35.4876C17.1875 35.7251 18.125 36.5501 18.525 37.6001C19.3875 39.8751 21.575 41.5001 24.1625 41.5001C26.7375 41.5001 28.9375 39.8751 29.8 37.6001C30.2125 36.5126 31.1625 35.6876 32.3 35.4376C35.2 34.8126 37.3125 32.3376 37.3125 29.6376C37.3 28.4376 36.95 27.3126 36.3375 26.3751Z" fill="#F9C23C"/>
<path d="M31.3255 16.5617C29.7975 13.0547 27.2654 10.7617 24.4002 10.7617C19.7334 10.7617 15.9502 16.845 15.9502 24.3492C15.9502 26.7225 16.3286 28.9536 16.9937 30.8952L27.0834 27.3252L31.3255 16.5617Z" fill="#26EAFC"/>
<path d="M24.4 37.9375C29.0625 37.9375 32.85 31.85 32.85 24.35C32.85 21.45 32.2875 18.7625 31.325 16.5625L17 30.8875C18.4375 35.0875 21.2125 37.9375 24.4 37.9375Z" fill="#B4F6FC"/>
</svg>
