<svg width="12" height="12" viewBox="0 0 12 12" fill="none" xmlns="http://www.w3.org/2000/svg">
<path d="M5.18017 10.2778L5.17945 10.2771C3.71065 8.9452 2.53212 7.87529 1.71476 6.87599C0.903147 5.88372 0.5 5.02219 0.5 4.11575C0.5 2.64707 1.64707 1.5 3.11575 1.5C3.95007 1.5 4.75864 1.89083 5.28432 2.50815L5.665 2.95519L6.04568 2.50815C6.57136 1.89083 7.37993 1.5 8.21425 1.5C9.68293 1.5 10.83 2.64707 10.83 4.11575C10.83 5.0222 10.4269 5.88375 9.61513 6.87683C8.79776 7.87683 7.61936 8.94801 6.1507 10.2826C6.15052 10.2828 6.15034 10.283 6.15016 10.2831L5.66628 10.7203L5.18017 10.2778Z" stroke="#4E505B"/>
</svg>
