<svg width="24" height="24" viewBox="0 0 24 24" fill="none" xmlns="http://www.w3.org/2000/svg">
<path d="M11.3698 16.9836L11.3691 16.9829C9.6424 15.4172 8.24976 14.1532 7.28278 12.9709C6.32154 11.7957 5.83325 10.7624 5.83325 9.66667C5.83325 7.88948 7.22273 6.5 8.99992 6.5C10.0085 6.5 10.9844 6.97197 11.6192 7.7175L11.9999 8.16454L12.3806 7.7175C13.0155 6.97197 13.9913 6.5 14.9999 6.5C16.7771 6.5 18.1666 7.88948 18.1666 9.66667C18.1666 10.7624 17.6783 11.7958 16.717 12.9719C15.75 14.155 14.3575 15.4205 12.6309 16.9895C12.6307 16.9896 12.6305 16.9898 12.6303 16.99L12.0012 17.5583L11.3698 16.9836Z" stroke="#535358"/>
</svg>
