<svg width="90" height="90" viewBox="0 0 90 90" fill="none" xmlns="http://www.w3.org/2000/svg">
<path d="M47.3344 56.6992H41.7094V79.9093C39.6046 74.6864 34.5092 70.9586 28.5469 70.9586H22.725C22.275 70.9586 21.9375 71.3242 21.9375 71.7461V72.9274C21.9375 79.6774 27.4219 85.1617 33.9187 85.218L42.0187 85.2461C42.1145 85.2461 42.207 85.2261 42.2917 85.1898H47.3344V85.1713C47.4355 85.2191 47.5495 85.2461 47.6719 85.2461H53.4937C61.0875 85.2461 67.275 79.1992 67.6687 71.718C67.6969 71.2961 67.3594 70.9586 66.9656 70.9586L58.8656 70.9867C53.4688 71.0335 48.7707 74.8257 47.3344 79.9776V56.6992Z" fill="#86D72F"/>
<path d="M58.5846 54.1688H30.4033V37.2375C30.4033 26.8031 34.5658 16.8187 41.9346 9.47812L41.9627 9.45C43.3127 8.1 45.5064 8.1 46.8564 9.45C54.3658 16.8187 58.5846 26.9156 58.5846 37.4344V54.1688Z" fill="#F70A8D"/>
<path d="M69.3 11.5599C69.3 9.92869 68.2594 8.52244 66.9656 8.49432C57.7688 8.43807 49.8656 21.9099 46.3781 35.1006C45.7594 37.4349 43.2281 37.3787 42.6094 35.0443C39.15 21.9099 31.275 8.49432 22.1063 8.49432C20.7844 8.49432 19.7156 9.87244 19.7156 11.5599V29.0256L19.6875 28.9974C19.6875 30.0943 19.7438 31.1912 19.8281 32.2599C20.0531 35.3537 20.6438 40.9224 21.5719 43.6506C25.2844 55.1537 34.1438 60.6099 44.5219 60.6099C54.1125 60.6099 62.4375 56.2787 66.5438 46.1256C68.3156 42.0193 69.3281 34.7068 69.3281 29.7006L69.3 11.5599Z" fill="#FF6DC6"/>
</svg>
