<svg width="350" height="316" viewBox="0 0 350 316" fill="none" xmlns="http://www.w3.org/2000/svg">
<rect width="242" height="100" rx="16" fill="#8D8DC9"/>
<path d="M31.5625 44.5938C31.375 42.6562 29.7188 41.5312 27.2812 41.5312C24.7188 41.5312 23.1562 42.7812 23.1562 44.4688C23.1562 46.375 25.1562 47.1562 27.0312 47.5938L29.1562 48.1562C32.5312 48.9375 35.7812 50.7188 35.7812 54.6562C35.7812 58.625 32.6562 61.3438 27.2188 61.3438C21.9375 61.3438 18.625 58.8125 18.4375 54.3438H22.4375C22.625 56.7188 24.625 57.875 27.1875 57.875C29.875 57.875 31.7188 56.5625 31.7188 54.625C31.7188 52.8438 30.0625 52.0938 27.625 51.4688L25.0625 50.8125C21.3438 49.8438 19.0312 47.9688 19.0312 44.7188C19.0312 40.7188 22.5938 38.0625 27.3438 38.0625C32.1562 38.0625 35.4062 40.7812 35.4688 44.5938H31.5625ZM49.8125 53.875V44.0312H53.7812V61H49.9375V58H49.75C48.9688 59.875 47.1875 61.2188 44.6562 61.2188C41.3125 61.2188 39 58.9062 38.9688 54.8438V44.0312H42.9688V54.2188C42.9688 56.375 44.25 57.75 46.1875 57.75C47.9375 57.75 49.8125 56.4688 49.8125 53.875ZM57.5938 61V44.0312H61.4062V46.9062H61.625C62.3125 44.9688 64.0312 43.8125 66.2812 43.8125C68.5938 43.8125 70.2188 44.9688 70.875 46.9062H71.0625C71.8125 45.0312 73.6875 43.8125 76.1562 43.8125C79.25 43.8125 81.4375 45.8125 81.4375 49.5938V61H77.4688V50.2188C77.4688 48.0938 76.1875 47.1562 74.5625 47.1562C72.5938 47.1562 71.4688 48.5 71.4688 50.4062V61H67.5938V50.0625C67.5938 48.3125 66.4062 47.1562 64.7188 47.1562C63 47.1562 61.5938 48.5625 61.5938 50.6875V61H57.5938ZM85.25 61V44.0312H89.0625V46.9062H89.2812C89.9688 44.9688 91.6875 43.8125 93.9375 43.8125C96.25 43.8125 97.875 44.9688 98.5312 46.9062H98.7188C99.4688 45.0312 101.344 43.8125 103.812 43.8125C106.906 43.8125 109.094 45.8125 109.094 49.5938V61H105.125V50.2188C105.125 48.0938 103.844 47.1562 102.219 47.1562C100.25 47.1562 99.125 48.5 99.125 50.4062V61H95.25V50.0625C95.25 48.3125 94.0625 47.1562 92.375 47.1562C90.6562 47.1562 89.25 48.5625 89.25 50.6875V61H85.25ZM120.438 61.3438C115.312 61.3438 112.188 57.9375 112.188 52.625C112.188 47.375 115.375 43.8125 120.219 43.8125C124.375 43.8125 127.969 46.4062 127.969 52.375V53.625H116.125C116.172 56.5156 117.875 58.2188 120.469 58.2188C122.219 58.2188 123.406 57.4688 123.906 56.4688H127.812C127.094 59.4062 124.375 61.3438 120.438 61.3438ZM116.156 50.9062H124.156C124.125 48.5938 122.594 46.9062 120.281 46.9062C117.875 46.9062 116.281 48.7344 116.156 50.9062ZM131.062 61V44.0312H134.938V46.8438H135.125C135.719 44.9062 137.375 43.7812 139.312 43.7812C139.75 43.7812 140.375 43.8125 140.75 43.875V47.5625C140.406 47.4375 139.562 47.3125 138.906 47.3125C136.688 47.3125 135.062 48.8438 135.062 51V61H131.062ZM150.906 38.375H155.906L162.625 54.8125H162.906L169.625 38.375H174.625V61H170.719V45.4375H170.5L164.219 60.9375H161.312L155.031 45.375H154.844V61H150.906V38.375ZM189.469 53.875V44.0312H193.438V61H189.594V58H189.406C188.625 59.875 186.844 61.2188 184.312 61.2188C180.969 61.2188 178.656 58.9062 178.625 54.8438V44.0312H182.625V54.2188C182.625 56.375 183.906 57.75 185.844 57.75C187.594 57.75 189.469 56.4688 189.469 53.875ZM205.719 44.0312V47.0938H202.375V55.9062C202.375 57.5312 203.188 57.875 204.188 57.875C204.656 57.875 205.438 57.8438 205.938 57.8125V61.0625C205.469 61.1562 204.688 61.2188 203.688 61.2188C200.688 61.2188 198.375 59.75 198.406 56.5625V47.0938H195.969V44.0312H198.406V39.9688H202.375V44.0312H205.719ZM216.125 61.3438C211 61.3438 207.875 57.9375 207.875 52.625C207.875 47.375 211.062 43.8125 215.906 43.8125C220.062 43.8125 223.656 46.4062 223.656 52.375V53.625H211.812C211.859 56.5156 213.562 58.2188 216.156 58.2188C217.906 58.2188 219.094 57.4688 219.594 56.4688H223.5C222.781 59.4062 220.062 61.3438 216.125 61.3438ZM211.844 50.9062H219.844C219.812 48.5938 218.281 46.9062 215.969 46.9062C213.562 46.9062 211.969 48.7344 211.844 50.9062Z" fill="#CACA8D"/>
<rect x="250" width="100" height="100" rx="16" fill="#CACA8D"/>
<path d="M282.828 70.3662H317.172C319.766 70.3662 321.875 68.2568 321.875 65.6631V56.2881C321.875 54.5693 320.484 53.1631 318.75 53.1631H281.25C279.531 53.1631 278.125 54.5537 278.125 56.2881V65.6631C278.125 68.2725 280.234 70.3662 282.828 70.3662Z" fill="#FFCF80"/>
<path d="M318.75 51.6162H281.25C279.531 51.6162 278.125 53.0068 278.125 54.7412V57.8662H321.859V54.7412C321.859 53.0225 320.469 51.6162 318.75 51.6162Z" fill="#67DAFF"/>
<path d="M312.891 35.8975L286.125 62.6631C285.813 62.9756 285.813 63.4756 286.125 63.7881C286.438 64.1006 286.938 64.1006 287.25 63.7881L314.016 37.0225C314.328 36.71 314.328 36.21 314.016 35.8975C313.703 35.585 313.203 35.585 312.891 35.8975Z" fill="#7D4533"/>
<path d="M310.656 63.9755C311.844 65.163 313.703 65.2567 314.594 64.1005C320.687 56.1317 320.047 44.6317 312.703 37.288C305.359 29.9442 293.828 29.288 285.859 35.3817C284.703 36.2567 284.797 38.1161 285.984 39.3036L287.172 40.4911L304.641 45.3036L309.453 62.7724L310.656 63.9755Z" fill="#FF4644"/>
<path d="M309.438 62.7725C317.375 54.835 318.813 43.4288 312.656 37.2725C306.5 31.1163 295.109 32.5538 287.172 40.4913L309.438 62.7725Z" fill="#F4F4F4"/>
<path d="M303.859 57.1789C311.797 49.2414 315.734 40.3195 312.656 37.257C309.578 34.1945 300.672 38.132 292.734 46.0695L303.859 57.1789Z" fill="#FF4644"/>
<circle cx="49.9995" cy="120" r="12" fill="#CACA8D"/>
<circle cx="49.9995" cy="195.999" r="12" fill="#8D8DC9"/>
<circle cx="31.0002" cy="125.091" r="12" transform="rotate(-30 31.0002 125.091)" fill="#D9D95F"/>
<circle cx="68.9997" cy="190.909" r="12" transform="rotate(-30 68.9997 190.909)" fill="#5F5FD9"/>
<circle cx="17.0905" cy="139" r="12" transform="rotate(-60 17.0905 139)" fill="#CB5F95"/>
<circle cx="82.9094" cy="177" r="12" transform="rotate(-60 82.9094 177)" fill="#8D95C4"/>
<circle cx="12" cy="158.001" r="12" transform="rotate(-90 12 158.001)" fill="#BE8BB1"/>
<circle cx="88" cy="158.001" r="12" transform="rotate(-90 88 158.001)" fill="#5FAA91"/>
<circle cx="17.091" cy="177" r="12" transform="rotate(-120 17.091 177)" fill="#C160C1"/>
<circle cx="82.9089" cy="139" r="12" transform="rotate(-120 82.9089 139)" fill="#8DB39A"/>
<circle cx="30.9998" cy="190.908" r="12" transform="rotate(-150 30.9998 190.908)" fill="#AF8CC1"/>
<circle cx="68.9998" cy="125.091" r="12" transform="rotate(-150 68.9998 125.091)" fill="#A8C497"/>
<rect x="108" y="108" width="242" height="100" rx="16" fill="#8DB39A"/>
<path d="M131.938 142L132.312 139.727H130.332L129.957 142H128.949L129.324 139.727H128.105L128.258 138.73H129.488L129.805 136.785H128.598L128.75 135.777H129.98L130.344 133.516H131.352L130.988 135.777H132.969L133.332 133.516H134.328L133.965 135.777H135.195L135.031 136.785H133.801L133.484 138.73H134.703L134.527 139.727H133.32L132.945 142H131.938ZM130.496 138.73H132.477L132.793 136.785H130.812L130.496 138.73ZM136.156 142V133.516H137.445V140.887H141.277V142H136.156ZM142.496 142V135.637H143.75V142H142.496ZM143.129 134.652C142.695 134.652 142.332 134.324 142.332 133.914C142.332 133.504 142.695 133.176 143.129 133.176C143.551 133.176 143.914 133.504 143.914 133.914C143.914 134.324 143.551 134.652 143.129 134.652ZM147.945 144.52C146.34 144.52 145.285 143.805 145.168 142.621H146.445C146.562 143.219 147.125 143.512 147.957 143.512C148.953 143.512 149.586 143.09 149.586 142.094V140.84H149.504C149.281 141.25 148.824 141.906 147.652 141.906C146.152 141.906 144.992 140.781 144.992 138.754C144.992 136.727 146.129 135.555 147.664 135.555C148.848 135.555 149.281 136.27 149.516 136.668H149.598V135.637H150.816V142.141C150.816 143.77 149.586 144.52 147.945 144.52ZM147.934 140.875C149 140.875 149.598 140.09 149.598 138.777C149.598 137.488 149.012 136.621 147.934 136.621C146.82 136.621 146.27 137.559 146.27 138.777C146.27 140.02 146.844 140.875 147.934 140.875ZM153.594 138.227V142H152.34V133.516H153.57V136.68H153.652C153.957 135.988 154.543 135.555 155.539 135.555C156.852 135.555 157.719 136.363 157.719 137.957V142H156.465V138.109C156.465 137.172 155.961 136.633 155.117 136.633C154.238 136.633 153.594 137.207 153.594 138.227ZM162.207 135.637V136.633H160.906V140.125C160.906 140.84 161.27 140.969 161.668 140.98C161.844 140.98 162.125 140.957 162.301 140.945V142.035C162.125 142.059 161.855 142.082 161.516 142.082C160.531 142.082 159.652 141.543 159.664 140.383V136.633H158.727V135.637H159.664V134.113H160.906V135.637H162.207ZM169.262 136.199C168.945 135.191 168.184 134.582 167.059 134.582C165.629 134.582 164.527 135.707 164.527 137.758C164.527 139.809 165.617 140.934 167.117 140.934C168.471 140.934 169.367 140.078 169.391 138.719H167.305V137.652H170.645V138.613C170.645 140.758 169.168 142.117 167.105 142.117C164.809 142.117 163.25 140.441 163.25 137.758C163.25 135.051 164.855 133.398 167.047 133.398C168.887 133.398 170.293 134.547 170.586 136.199H169.262ZM172.027 142V135.637H173.234V136.645H173.305C173.539 135.965 174.172 135.543 174.922 135.543C175.074 135.543 175.32 135.555 175.449 135.566V136.762C175.344 136.738 175.051 136.691 174.793 136.691C173.926 136.691 173.281 137.289 173.281 138.121V142H172.027ZM176.023 140.207C176.023 138.754 177.254 138.379 178.402 138.297C178.824 138.268 179.779 138.215 180.078 138.203L180.066 137.699C180.066 136.984 179.633 136.562 178.777 136.562C178.039 136.562 177.594 136.902 177.465 137.371H176.223C176.34 136.316 177.324 135.555 178.824 135.555C179.832 135.555 181.32 135.93 181.32 137.77V142H180.102V141.133H180.055C179.809 141.613 179.223 142.141 178.168 142.141C176.961 142.141 176.023 141.449 176.023 140.207ZM177.242 140.219C177.242 140.828 177.746 141.145 178.449 141.145C179.469 141.145 180.078 140.465 180.078 139.703V139.117L178.578 139.223C177.758 139.281 177.242 139.586 177.242 140.219ZM183.371 144.391C183.113 144.391 182.867 144.379 182.703 144.355V143.312C182.844 143.324 183.09 143.336 183.266 143.336C183.652 143.336 183.98 143.301 184.273 142.504L184.426 142.082L182.094 135.637H183.43L185.035 140.57H185.105L186.711 135.637H188.059L185.434 142.844C185.07 143.852 184.414 144.391 183.371 144.391ZM189.078 142V135.637H190.332V142H189.078ZM189.711 134.652C189.277 134.652 188.914 134.324 188.914 133.914C188.914 133.504 189.277 133.176 189.711 133.176C190.133 133.176 190.496 133.504 190.496 133.914C190.496 134.324 190.133 134.652 189.711 134.652ZM195.43 137.371C195.312 136.867 194.914 136.539 194.223 136.539C193.508 136.539 192.992 136.914 193.004 137.395C192.992 137.77 193.297 138.039 194 138.203L195.008 138.438C196.18 138.695 196.742 139.258 196.754 140.16C196.742 141.309 195.781 142.129 194.152 142.129C192.629 142.129 191.715 141.449 191.562 140.266H192.84C192.945 140.84 193.391 141.121 194.141 141.121C194.949 141.121 195.465 140.793 195.477 140.254C195.465 139.844 195.16 139.574 194.492 139.422L193.496 139.211C192.348 138.953 191.75 138.344 191.75 137.465C191.75 136.328 192.734 135.555 194.211 135.555C195.629 135.555 196.508 136.281 196.637 137.371H195.43ZM199.227 138.227V142H197.973V133.516H199.203V136.68H199.285C199.59 135.988 200.176 135.555 201.172 135.555C202.484 135.555 203.352 136.363 203.352 137.957V142H202.098V138.109C202.098 137.172 201.594 136.633 200.75 136.633C199.871 136.633 199.227 137.207 199.227 138.227Z" fill="#F7F7F7"/>
<path d="M212.938 142L213.312 139.727H211.332L210.957 142H209.949L210.324 139.727H209.105L209.258 138.73H210.488L210.805 136.785H209.598L209.75 135.777H210.98L211.344 133.516H212.352L211.988 135.777H213.969L214.332 133.516H215.328L214.965 135.777H216.195L216.031 136.785H214.801L214.484 138.73H215.703L215.527 139.727H214.32L213.945 142H212.938ZM211.496 138.73H213.477L213.793 136.785H211.812L211.496 138.73ZM221.773 135.754C221.691 134.969 221 134.512 220.027 134.512C218.984 134.512 218.328 135.039 218.328 135.766C218.328 136.574 219.207 136.879 219.875 137.043L220.695 137.266C221.785 137.523 223.133 138.121 223.145 139.656C223.133 141.086 221.996 142.141 219.992 142.141C218.094 142.141 216.898 141.191 216.816 139.645H218.105C218.188 140.57 218.996 141.016 219.992 141.016C221.07 141.016 221.855 140.465 221.867 139.633C221.855 138.895 221.164 138.59 220.262 138.355L219.254 138.086C217.895 137.711 217.039 137.02 217.039 135.836C217.039 134.371 218.352 133.398 220.062 133.398C221.785 133.398 222.992 134.383 223.027 135.754H221.773ZM227.117 142.129C225.312 142.129 224.141 140.816 224.141 138.848C224.141 136.867 225.312 135.555 227.117 135.555C228.91 135.555 230.082 136.867 230.082 138.848C230.082 140.816 228.91 142.129 227.117 142.129ZM227.117 141.086C228.266 141.086 228.816 140.066 228.816 138.848C228.816 137.629 228.266 136.586 227.117 136.586C225.945 136.586 225.395 137.629 225.395 138.848C225.395 140.066 225.945 141.086 227.117 141.086ZM234.348 135.637V136.633H232.977V142H231.723V136.633H230.738V135.637H231.723V134.898C231.723 133.762 232.449 133.117 233.621 133.117C233.926 133.117 234.23 133.152 234.477 133.199V134.242C234.242 134.207 234.066 134.195 233.949 134.195C233.281 134.195 232.977 134.465 232.977 135.086V135.637H234.348ZM238.461 135.637V136.633H237.16V140.125C237.16 140.84 237.523 140.969 237.922 140.98C238.098 140.98 238.379 140.957 238.555 140.945V142.035C238.379 142.059 238.109 142.082 237.77 142.082C236.785 142.082 235.906 141.543 235.918 140.383V136.633H234.98V135.637H235.918V134.113H237.16V135.637H238.461Z" fill="#F7F7F7"/>
<path d="M246.938 142L247.312 139.727H245.332L244.957 142H243.949L244.324 139.727H243.105L243.258 138.73H244.488L244.805 136.785H243.598L243.75 135.777H244.98L245.344 133.516H246.352L245.988 135.777H247.969L248.332 133.516H249.328L248.965 135.777H250.195L250.031 136.785H248.801L248.484 138.73H249.703L249.527 139.727H248.32L247.945 142H246.938ZM245.496 138.73H247.477L247.793 136.785H245.812L245.496 138.73ZM253.91 142H251.156V133.516H253.992C256.488 133.516 257.988 135.109 257.988 137.746C257.988 140.395 256.488 142 253.91 142ZM252.445 140.875H253.84C255.762 140.875 256.711 139.75 256.711 137.746C256.711 135.754 255.762 134.641 253.91 134.641H252.445V140.875ZM263.379 139.352V135.637H264.621V142H263.402V140.898H263.332C263.039 141.578 262.383 142.082 261.434 142.082C260.203 142.082 259.336 141.262 259.336 139.68V135.637H260.59V139.527C260.59 140.395 261.117 140.945 261.879 140.945C262.57 140.945 263.379 140.441 263.379 139.352ZM267.398 133.516V142H266.145V133.516H267.398ZM270.176 133.516V142H268.922V133.516H270.176Z" fill="#F7F7F7"/>
<path d="M278.938 142L279.312 139.727H277.332L276.957 142H275.949L276.324 139.727H275.105L275.258 138.73H276.488L276.805 136.785H275.598L275.75 135.777H276.98L277.344 133.516H278.352L277.988 135.777H279.969L280.332 133.516H281.328L280.965 135.777H282.195L282.031 136.785H280.801L280.484 138.73H281.703L281.527 139.727H280.32L279.945 142H278.938ZM277.496 138.73H279.477L279.793 136.785H277.812L277.496 138.73ZM288.887 136.199C288.57 135.191 287.809 134.582 286.684 134.582C285.254 134.582 284.152 135.707 284.152 137.758C284.152 139.809 285.242 140.934 286.742 140.934C288.096 140.934 288.992 140.078 289.016 138.719H286.93V137.652H290.27V138.613C290.27 140.758 288.793 142.117 286.73 142.117C284.434 142.117 282.875 140.441 282.875 137.758C282.875 135.051 284.48 133.398 286.672 133.398C288.512 133.398 289.918 134.547 290.211 136.199H288.887ZM291.652 142V135.637H292.859V136.645H292.93C293.164 135.965 293.797 135.543 294.547 135.543C294.699 135.543 294.945 135.555 295.074 135.566V136.762C294.969 136.738 294.676 136.691 294.418 136.691C293.551 136.691 292.906 137.289 292.906 138.121V142H291.652ZM295.648 140.207C295.648 138.754 296.879 138.379 298.027 138.297C298.449 138.268 299.404 138.215 299.703 138.203L299.691 137.699C299.691 136.984 299.258 136.562 298.402 136.562C297.664 136.562 297.219 136.902 297.09 137.371H295.848C295.965 136.316 296.949 135.555 298.449 135.555C299.457 135.555 300.945 135.93 300.945 137.77V142H299.727V141.133H299.68C299.434 141.613 298.848 142.141 297.793 142.141C296.586 142.141 295.648 141.449 295.648 140.207ZM296.867 140.219C296.867 140.828 297.371 141.145 298.074 141.145C299.094 141.145 299.703 140.465 299.703 139.703V139.117L298.203 139.223C297.383 139.281 296.867 139.586 296.867 140.219ZM302.996 144.391C302.738 144.391 302.492 144.379 302.328 144.355V143.312C302.469 143.324 302.715 143.336 302.891 143.336C303.277 143.336 303.605 143.301 303.898 142.504L304.051 142.082L301.719 135.637H303.055L304.66 140.57H304.73L306.336 135.637H307.684L305.059 142.844C304.695 143.852 304.039 144.391 302.996 144.391ZM308.703 142V135.637H309.957V142H308.703ZM309.336 134.652C308.902 134.652 308.539 134.324 308.539 133.914C308.539 133.504 308.902 133.176 309.336 133.176C309.758 133.176 310.121 133.504 310.121 133.914C310.121 134.324 309.758 134.652 309.336 134.652ZM315.055 137.371C314.938 136.867 314.539 136.539 313.848 136.539C313.133 136.539 312.617 136.914 312.629 137.395C312.617 137.77 312.922 138.039 313.625 138.203L314.633 138.438C315.805 138.695 316.367 139.258 316.379 140.16C316.367 141.309 315.406 142.129 313.777 142.129C312.254 142.129 311.34 141.449 311.188 140.266H312.465C312.57 140.84 313.016 141.121 313.766 141.121C314.574 141.121 315.09 140.793 315.102 140.254C315.09 139.844 314.785 139.574 314.117 139.422L313.121 139.211C311.973 138.953 311.375 138.344 311.375 137.465C311.375 136.328 312.359 135.555 313.836 135.555C315.254 135.555 316.133 136.281 316.262 137.371H315.055ZM318.852 138.227V142H317.598V133.516H318.828V136.68H318.91C319.215 135.988 319.801 135.555 320.797 135.555C322.109 135.555 322.977 136.363 322.977 137.957V142H321.723V138.109C321.723 137.172 321.219 136.633 320.375 136.633C319.496 136.633 318.852 137.207 318.852 138.227Z" fill="#F7F7F7"/>
<path d="M129.094 163V153.102H132.566C134.645 153.102 135.615 154.264 135.615 155.727C135.615 156.998 134.863 157.572 134.002 157.805V157.9C134.918 157.955 136.012 158.803 136.012 160.375C136.012 161.865 135.027 163 132.689 163H129.094ZM132.676 161.906C134.221 161.906 134.822 161.223 134.822 160.361C134.822 159.35 134.016 158.502 132.744 158.502H130.324V161.906H132.676ZM132.525 157.436C133.592 157.436 134.439 156.779 134.439 155.74C134.439 154.879 133.865 154.195 132.566 154.195H130.324V157.436H132.525ZM140.537 165.461C140.086 165.461 139.717 165.119 139.717 164.682C139.717 164.244 140.086 163.902 140.537 163.902C140.988 163.902 141.371 164.244 141.371 164.682C141.371 165.119 140.988 165.461 140.537 165.461ZM137.256 160.895C137.256 159.186 138.76 158.803 140.045 158.707C140.517 158.673 141.72 158.611 142.055 158.598V157.996C142.055 157.053 141.494 156.506 140.373 156.506C139.43 156.506 138.869 156.943 138.705 157.504H137.475C137.625 156.314 138.787 155.48 140.428 155.48C141.398 155.48 143.217 155.768 143.217 158.105V163H142.055V161.988H142C141.754 162.494 141.07 163.178 139.785 163.178C138.377 163.178 137.256 162.344 137.256 160.895ZM138.432 160.949C138.432 161.729 139.088 162.125 139.99 162.125C141.316 162.125 142.055 161.236 142.055 160.307V159.555L140.182 159.691C139.115 159.76 138.432 160.143 138.432 160.949ZM146.279 158.543V163H145.104V155.576H146.238V156.738H146.334C146.689 155.986 147.373 155.48 148.508 155.48C150.012 155.48 151.01 156.396 151.01 158.283V163H149.834V158.365C149.834 157.217 149.205 156.533 148.152 156.533C147.072 156.533 146.279 157.258 146.279 158.543ZM157.586 158.543V163H156.41V153.102H157.586V156.738H157.682C158.023 155.973 158.693 155.48 159.869 155.48C161.387 155.48 162.398 156.383 162.398 158.283V163H161.223V158.365C161.223 157.203 160.58 156.533 159.514 156.533C158.406 156.533 157.586 157.258 157.586 158.543ZM171.395 155.029C171.395 156.123 171.073 156.923 170.232 157.244C170.526 157.832 170.684 158.529 170.684 159.322C170.684 161.633 169.33 163.15 167.32 163.15C165.297 163.15 163.93 161.633 163.93 159.322C163.93 157.012 165.297 155.48 167.32 155.48C168.318 155.48 169.159 155.856 169.754 156.52C170.246 156.321 170.328 155.768 170.328 155.029H171.395ZM167.32 162.111C168.811 162.111 169.508 160.799 169.508 159.322C169.508 157.846 168.811 156.52 167.32 156.52C165.803 156.52 165.105 157.846 165.105 159.322C165.105 160.799 165.803 162.111 167.32 162.111ZM167.375 165.461C166.924 165.461 166.555 165.119 166.555 164.682C166.555 164.244 166.924 163.902 167.375 163.902C167.826 163.902 168.209 164.244 168.209 164.682C168.209 165.119 167.826 165.461 167.375 165.461ZM172.229 165.789V155.576H173.363V156.752H173.5C173.746 156.355 174.211 155.48 175.646 155.48C177.506 155.48 178.805 156.957 178.805 159.309C178.805 161.66 177.506 163.15 175.66 163.15C174.238 163.15 173.746 162.275 173.5 161.865H173.404V165.789H172.229ZM173.377 159.281C173.377 160.949 174.129 162.098 175.496 162.098C176.904 162.098 177.629 160.867 177.629 159.281C177.629 157.736 176.918 156.533 175.496 156.533C174.102 156.533 173.377 157.641 173.377 159.281ZM189.961 155.576L187.213 163H185.996L183.262 155.576H184.547L186.57 161.469H186.652L188.676 155.576H189.961ZM198.096 155.029C198.096 156.123 197.774 156.923 196.934 157.244C197.228 157.832 197.385 158.529 197.385 159.322C197.385 161.633 196.031 163.15 194.021 163.15C191.998 163.15 190.631 161.633 190.631 159.322C190.631 157.012 191.998 155.48 194.021 155.48C195.02 155.48 195.86 155.856 196.455 156.52C196.947 156.321 197.029 155.768 197.029 155.029H198.096ZM194.021 162.111C195.512 162.111 196.209 160.799 196.209 159.322C196.209 157.846 195.512 156.52 194.021 156.52C192.504 156.52 191.807 157.846 191.807 159.322C191.807 160.799 192.504 162.111 194.021 162.111ZM193.502 154.564L194.678 152.322H196.031L194.514 154.564H193.502ZM198.93 163V155.576H200.105V163H198.93ZM199.518 154.346C199.066 154.346 198.697 154.004 198.697 153.566C198.697 153.129 199.066 152.787 199.518 152.787C199.969 152.787 200.352 153.129 200.352 153.566C200.352 154.004 199.969 154.346 199.518 154.346ZM206.668 158.543V163H205.492V155.576H206.627V156.738H206.723C207.078 155.986 207.762 155.48 208.896 155.48C210.4 155.48 211.398 156.396 211.398 158.283V163H210.223V158.365C210.223 157.217 209.594 156.533 208.541 156.533C207.461 156.533 206.668 157.258 206.668 158.543ZM214.461 158.543V163H213.285V153.102H214.461V156.738H214.557C214.898 155.973 215.568 155.48 216.744 155.48C218.262 155.48 219.273 156.383 219.273 158.283V163H218.098V158.365C218.098 157.203 217.455 156.533 216.389 156.533C215.281 156.533 214.461 157.258 214.461 158.543ZM228.898 155.248C228.898 156.622 228.475 157.367 227.012 157.463V163H225.85V161.742H225.768C225.412 162.494 224.688 163.096 223.566 163.096C222.158 163.096 221.16 162.18 221.16 160.293V155.576H222.336V160.211C222.336 161.277 223.006 161.961 223.949 161.961C224.783 161.961 225.85 161.332 225.85 159.951V155.576H227.012V156.67C227.866 156.581 227.887 156.137 227.887 155.248H228.898ZM221.707 154.646C221.707 153.648 222.363 152.951 223.184 152.951C223.936 152.951 224.264 153.566 224.947 153.566C225.316 153.566 225.604 153.252 225.604 152.842L226.492 152.91C226.492 153.936 225.836 154.564 225.002 154.564C224.113 154.564 223.977 153.949 223.252 153.949C222.883 153.949 222.623 154.277 222.623 154.688L221.707 154.646ZM230.635 158.543V163H229.459V155.576H230.594V156.738H230.689C231.045 155.986 231.729 155.48 232.863 155.48C234.367 155.48 235.365 156.396 235.365 158.283V163H234.189V158.365C234.189 157.217 233.561 156.533 232.508 156.533C231.428 156.533 230.635 157.258 230.635 158.543ZM240.26 165.939C238.469 165.939 237.252 165.16 237.115 163.779H238.346C238.51 164.531 239.207 164.914 240.26 164.914C241.531 164.914 242.311 164.367 242.311 163.137V161.633H242.215C241.969 162.043 241.49 162.891 240.055 162.891C238.25 162.891 236.896 161.523 236.896 159.186C236.896 156.902 238.209 155.48 240.068 155.48C241.504 155.48 241.969 156.355 242.242 156.752H242.338V155.576H243.486V163.205C243.486 165.119 242.064 165.939 240.26 165.939ZM240.219 161.838C241.572 161.838 242.338 160.867 242.338 159.227C242.338 157.641 241.6 156.533 240.219 156.533C238.797 156.533 238.086 157.736 238.086 159.227C238.086 160.771 238.811 161.838 240.219 161.838ZM251.881 165.939C250.09 165.939 248.873 165.16 248.736 163.779H249.967C250.131 164.531 250.828 164.914 251.881 164.914C253.152 164.914 253.932 164.367 253.932 163.137V161.633H253.836C253.59 162.043 253.111 162.891 251.676 162.891C249.871 162.891 248.518 161.523 248.518 159.186C248.518 156.902 249.83 155.48 251.689 155.48C253.125 155.48 253.59 156.355 253.863 156.752H253.959V155.576H255.107V163.205C255.107 165.119 253.686 165.939 251.881 165.939ZM251.84 161.838C253.193 161.838 253.959 160.867 253.959 159.227C253.959 157.641 253.221 156.533 251.84 156.533C250.418 156.533 249.707 157.736 249.707 159.227C249.707 160.771 250.432 161.838 251.84 161.838ZM256.625 160.895C256.625 159.186 258.129 158.803 259.414 158.707C259.886 158.673 261.089 158.611 261.424 158.598V157.996C261.424 157.053 260.863 156.506 259.742 156.506C258.799 156.506 258.238 156.943 258.074 157.504H256.844C256.994 156.314 258.156 155.48 259.797 155.48C260.768 155.48 262.586 155.768 262.586 158.105V163H261.424V161.988H261.369C261.123 162.494 260.439 163.178 259.154 163.178C257.746 163.178 256.625 162.344 256.625 160.895ZM257.801 160.949C257.801 161.729 258.457 162.125 259.359 162.125C260.686 162.125 261.424 161.236 261.424 160.307V159.555L259.551 159.691C258.484 159.76 257.801 160.143 257.801 160.949ZM264.473 163V155.576H265.607V156.738H265.703C266.018 155.945 266.729 155.48 267.699 155.48C268.67 155.48 269.326 155.945 269.682 156.738H269.764C270.146 155.973 270.926 155.48 271.992 155.48C273.318 155.48 274.262 156.287 274.262 158.037V163H273.086V158.051C273.086 156.957 272.389 156.533 271.582 156.533C270.543 156.533 269.955 157.23 269.955 158.174V163H268.766V157.928C268.766 157.094 268.164 156.533 267.316 156.533C266.428 156.533 265.648 157.285 265.648 158.365V163H264.473ZM279.662 163V155.576H280.797V156.738H280.893C281.207 155.945 281.918 155.48 282.889 155.48C283.859 155.48 284.516 155.945 284.871 156.738H284.953C285.336 155.973 286.115 155.48 287.182 155.48C288.508 155.48 289.451 156.287 289.451 158.037V163H288.275V158.051C288.275 156.957 287.578 156.533 286.771 156.533C285.732 156.533 285.145 157.23 285.145 158.174V163H283.955V157.928C283.955 157.094 283.354 156.533 282.506 156.533C281.617 156.533 280.838 157.285 280.838 158.365V163H279.662ZM293.785 154.564L292.281 152.322H293.648L294.811 154.564H293.785ZM290.982 160.895C290.982 159.186 292.486 158.803 293.771 158.707C294.243 158.673 295.446 158.611 295.781 158.598V157.996C295.781 157.053 295.221 156.506 294.1 156.506C293.156 156.506 292.596 156.943 292.432 157.504H291.201C291.352 156.314 292.514 155.48 294.154 155.48C295.125 155.48 296.943 155.768 296.943 158.105V163H295.781V161.988H295.727C295.48 162.494 294.797 163.178 293.512 163.178C292.104 163.178 290.982 162.344 290.982 160.895ZM292.158 160.949C292.158 161.729 292.814 162.125 293.717 162.125C295.043 162.125 295.781 161.236 295.781 160.307V159.555L293.908 159.691C292.842 159.76 292.158 160.143 292.158 160.949ZM303.52 159.951V155.576H304.682V163H303.52V161.742H303.438C303.082 162.494 302.357 163.096 301.236 163.096C299.828 163.096 298.83 162.18 298.83 160.293V155.576H300.006V160.211C300.006 161.277 300.676 161.961 301.619 161.961C302.453 161.961 303.52 161.332 303.52 159.951ZM128.943 185.789V175.576H130.078V176.752H130.215C130.461 176.355 130.926 175.48 132.361 175.48C134.221 175.48 135.52 176.957 135.52 179.309C135.52 181.66 134.221 183.15 132.375 183.15C130.953 183.15 130.461 182.275 130.215 181.865H130.119V185.789H128.943ZM130.092 179.281C130.092 180.949 130.844 182.098 132.211 182.098C133.619 182.098 134.344 180.867 134.344 179.281C134.344 177.736 133.633 176.533 132.211 176.533C130.816 176.533 130.092 177.641 130.092 179.281ZM136.695 180.895C136.695 179.186 138.199 178.803 139.484 178.707C139.956 178.673 141.159 178.611 141.494 178.598V177.996C141.494 177.053 140.934 176.506 139.812 176.506C138.869 176.506 138.309 176.943 138.145 177.504H136.914C137.064 176.314 138.227 175.48 139.867 175.48C140.838 175.48 142.656 175.768 142.656 178.105V183H141.494V181.988H141.439C141.193 182.494 140.51 183.178 139.225 183.178C137.816 183.178 136.695 182.344 136.695 180.895ZM137.871 180.949C137.871 181.729 138.527 182.125 139.43 182.125C140.756 182.125 141.494 181.236 141.494 180.307V179.555L139.621 179.691C138.555 179.76 137.871 180.143 137.871 180.949ZM148.672 177.504C148.508 176.889 148.043 176.479 147.168 176.479C146.252 176.479 145.596 176.971 145.596 177.6C145.596 178.092 145.992 178.434 146.867 178.639L147.975 178.912C149.301 179.227 149.957 179.883 149.957 180.922C149.957 182.207 148.904 183.15 147.045 183.15C145.377 183.15 144.379 182.412 144.188 181.059H145.418C145.555 181.783 146.088 182.125 147.018 182.125C148.07 182.125 148.74 181.688 148.74 180.99C148.74 180.471 148.371 180.115 147.523 179.924L146.402 179.664C145.104 179.363 144.42 178.652 144.42 177.668C144.42 176.396 145.527 175.48 147.168 175.48C148.699 175.48 149.67 176.301 149.82 177.504H148.672ZM154.729 175.576V176.561H153.17V180.867C153.17 181.824 153.635 181.975 154.141 181.975C154.359 181.975 154.66 181.961 154.838 181.947V183.041C154.66 183.068 154.359 183.096 154.018 183.096C153.033 183.096 151.98 182.48 151.98 181.168V176.561H150.859V175.576H151.98V173.799H153.17V175.576H154.729ZM159.281 183.15C157.135 183.15 155.809 181.633 155.809 179.35C155.809 177.066 157.148 175.48 159.172 175.48C160.73 175.48 162.371 176.438 162.371 179.186V179.678H156.984C157.039 181.25 157.955 182.111 159.281 182.111C160.17 182.111 160.73 181.729 161.004 181.264H162.262C161.906 182.385 160.812 183.15 159.281 183.15ZM156.998 178.68H161.182C161.182 177.436 160.389 176.52 159.172 176.52C157.887 176.52 157.066 177.531 156.998 178.68ZM165.078 173.102V183H163.902V173.102H165.078ZM173.705 175.576V176.561H172.146V180.867C172.146 181.824 172.611 181.975 173.117 181.975C173.336 181.975 173.637 181.961 173.814 181.947V183.041C173.637 183.068 173.336 183.096 172.994 183.096C172.01 183.096 170.957 182.48 170.957 181.168V176.561H169.836V175.576H170.957V173.799H172.146V175.576H173.705ZM175.223 183V175.576H176.357V176.711H176.439C176.713 175.959 177.479 175.453 178.354 175.453C178.531 175.453 178.832 175.467 178.969 175.48V176.67C178.887 176.643 178.559 176.588 178.258 176.588C177.191 176.588 176.398 177.326 176.398 178.324V183H175.223ZM183.562 172.91L185.545 174.66H184.15L183.043 173.635L181.949 174.66H180.555L182.51 172.91H183.562ZM180.117 171.721L181.061 173.498H180.062L178.682 171.721H180.117ZM179.748 180.895C179.748 179.186 181.252 178.803 182.537 178.707C183.009 178.673 184.212 178.611 184.547 178.598V177.996C184.547 177.053 183.986 176.506 182.865 176.506C181.922 176.506 181.361 176.943 181.197 177.504H179.967C180.117 176.314 181.279 175.48 182.92 175.48C183.891 175.48 185.709 175.768 185.709 178.105V183H184.547V181.988H184.492C184.246 182.494 183.562 183.178 182.277 183.178C180.869 183.178 179.748 182.344 179.748 180.895ZM180.924 180.949C180.924 181.729 181.58 182.125 182.482 182.125C183.809 182.125 184.547 181.236 184.547 180.307V179.555L182.674 179.691C181.607 179.76 180.924 180.143 180.924 180.949ZM187.596 183V175.576H188.73V176.738H188.826C189.141 175.945 189.852 175.48 190.822 175.48C191.793 175.48 192.449 175.945 192.805 176.738H192.887C193.27 175.973 194.049 175.48 195.115 175.48C196.441 175.48 197.385 176.287 197.385 178.037V183H196.209V178.051C196.209 176.957 195.512 176.533 194.705 176.533C193.666 176.533 193.078 177.23 193.078 178.174V183H191.889V177.928C191.889 177.094 191.287 176.533 190.439 176.533C189.551 176.533 188.771 177.285 188.771 178.365V183H187.596ZM200.105 183.082C199.627 183.082 199.217 182.686 199.23 182.193C199.217 181.715 199.627 181.318 200.105 181.318C200.584 181.318 200.98 181.715 200.98 182.193C200.98 182.686 200.584 183.082 200.105 183.082Z" fill="white"/>
<rect y="216" width="242" height="100" rx="16" fill="#BE8BB1"/>
<path d="M24.5938 251L25.0312 248.348H22.7207L22.2832 251H21.1074L21.5449 248.348H20.123L20.3008 247.186H21.7363L22.1055 244.916H20.6973L20.875 243.74H22.3105L22.7344 241.102H23.9102L23.4863 243.74H25.7969L26.2207 241.102H27.3828L26.959 243.74H28.3945L28.2031 244.916H26.7676L26.3984 247.186H27.8203L27.6152 248.348H26.207L25.7695 251H24.5938ZM22.9121 247.186H25.2227L25.5918 244.916H23.2812L22.9121 247.186ZM29.0234 242.4V241.102H36.6934V242.4H33.6172V251H32.1133V242.4H29.0234ZM37.3223 251V243.576H38.7305V244.752H38.8125C39.0859 243.959 39.8242 243.467 40.6992 243.467C40.877 243.467 41.1641 243.48 41.3145 243.494V244.889C41.1914 244.861 40.8496 244.807 40.5488 244.807C39.5371 244.807 38.7852 245.504 38.7852 246.475V251H37.3223ZM45.8945 241.033L47.8633 242.701H46.4414L45.3613 241.744L44.2812 242.701H42.8594L44.8145 241.033H45.8945ZM42.3672 239.857L43.3652 241.635H42.3262L40.877 239.857H42.3672ZM41.9844 248.908C41.9844 247.213 43.4199 246.775 44.7598 246.68C45.252 246.646 46.3662 246.584 46.7148 246.57L46.7012 245.982C46.7012 245.148 46.1953 244.656 45.1973 244.656C44.3359 244.656 43.8164 245.053 43.666 245.6H42.2168C42.3535 244.369 43.502 243.48 45.252 243.48C46.4277 243.48 48.1641 243.918 48.1641 246.064V251H46.7422V249.988H46.6875C46.4004 250.549 45.7168 251.164 44.4863 251.164C43.0781 251.164 41.9844 250.357 41.9844 248.908ZM43.4062 248.922C43.4062 249.633 43.9941 250.002 44.8145 250.002C46.0039 250.002 46.7148 249.209 46.7148 248.32V247.637L44.9648 247.76C44.0078 247.828 43.4062 248.184 43.4062 248.922ZM49.9277 251V243.576H51.3359V244.793H51.418C51.7324 243.959 52.457 243.48 53.4414 243.48C54.4258 243.48 55.123 243.973 55.4375 244.793H55.5195C55.875 243.986 56.668 243.48 57.748 243.48C59.0879 243.48 60.0449 244.328 60.0449 246.023V251H58.582V246.16C58.582 245.162 57.9531 244.738 57.1875 244.738C56.2441 244.738 55.7109 245.381 55.7109 246.27V251H54.2617V246.078C54.2617 245.271 53.7012 244.738 52.9082 244.738C52.0879 244.738 51.3906 245.422 51.3906 246.42V251H49.9277ZM68.6992 243.576V244.738H67.1816V248.812C67.1816 249.646 67.6055 249.797 68.0703 249.811C68.2754 249.811 68.6035 249.783 68.8086 249.77V251.041C68.6035 251.068 68.2891 251.096 67.8926 251.096C66.7441 251.096 65.7188 250.467 65.7324 249.113V244.738H64.6387V243.576H65.7324V241.799H67.1816V243.576H68.6992ZM70.3535 251V243.576H71.8164V251H70.3535ZM68.6582 242.646C68.6582 241.58 69.3281 240.883 70.1758 240.883C70.9688 240.883 71.2969 241.539 71.9395 241.539C72.3086 241.539 72.5684 241.225 72.5684 240.801L73.5254 240.855C73.5254 241.936 72.8691 242.592 72.0215 242.592C71.1055 242.592 70.9414 241.949 70.2441 241.949C69.8887 241.949 69.6426 242.264 69.6426 242.674L68.6582 242.646ZM75.2617 246.598V251H73.7988V243.576H75.207V244.793H75.2891C75.6445 244 76.3691 243.48 77.4766 243.48C79.0078 243.48 80.0059 244.438 80.0059 246.283V251H78.5566V246.461C78.5566 245.381 77.9688 244.738 76.9844 244.738C75.9863 244.738 75.2617 245.408 75.2617 246.598ZM83.2461 246.598V251H81.7832V241.102H83.2188V244.793H83.3145C83.6699 243.986 84.3535 243.48 85.5156 243.48C87.0469 243.48 88.0586 244.424 88.0586 246.283V251H86.5957V246.461C86.5957 245.367 86.0078 244.738 85.0234 244.738C83.998 244.738 83.2461 245.408 83.2461 246.598Z" fill="white"/>
<path d="M101.594 251L102.031 248.348H99.7207L99.2832 251H98.1074L98.5449 248.348H97.123L97.3008 247.186H98.7363L99.1055 244.916H97.6973L97.875 243.74H99.3105L99.7344 241.102H100.91L100.486 243.74H102.797L103.221 241.102H104.383L103.959 243.74H105.395L105.203 244.916H103.768L103.398 247.186H104.82L104.615 248.348H103.207L102.77 251H101.594ZM99.9121 247.186H102.223L102.592 244.916H100.281L99.9121 247.186ZM109.729 251H106.516V246.352H105.039V245.354H106.516V241.102H109.824C112.736 241.102 114.486 242.961 114.486 246.037C114.486 249.127 112.736 251 109.729 251ZM108.02 249.688H109.646C111.889 249.688 112.996 248.375 112.996 246.037C112.996 243.713 111.889 242.414 109.729 242.414H108.02V245.354H109.482V246.352H108.02V249.688ZM124.221 243.221C124.221 244.643 123.756 245.429 122.238 245.545V251H120.816V249.715H120.734C120.393 250.508 119.627 251.096 118.52 251.096C117.084 251.096 116.072 250.139 116.072 248.293V243.576H117.535V248.115C117.535 249.127 118.15 249.77 119.039 249.77C119.846 249.77 120.789 249.182 120.789 247.91V243.576H122.238V244.684C123.1 244.595 123.141 244.13 123.141 243.221H124.221ZM118.574 242.578L119.695 240.35H121.227L119.723 242.578H118.574ZM126.23 246.598V251H124.768V243.576H126.176V244.793H126.258C126.613 244 127.338 243.48 128.445 243.48C129.977 243.48 130.975 244.438 130.975 246.283V251H129.525V246.461C129.525 245.381 128.938 244.738 127.953 244.738C126.955 244.738 126.23 245.408 126.23 246.598ZM135.869 253.939C133.996 253.939 132.766 253.105 132.629 251.725H134.119C134.256 252.422 134.912 252.764 135.883 252.764C137.045 252.764 137.783 252.271 137.783 251.109V249.646H137.688C137.428 250.125 136.895 250.891 135.527 250.891C133.777 250.891 132.424 249.578 132.424 247.213C132.424 244.848 133.75 243.48 135.541 243.48C136.922 243.48 137.428 244.314 137.701 244.779H137.797V243.576H139.219V251.164C139.219 253.064 137.783 253.939 135.869 253.939ZM135.855 249.688C137.1 249.688 137.797 248.771 137.797 247.24C137.797 245.736 137.113 244.725 135.855 244.725C134.557 244.725 133.914 245.818 133.914 247.24C133.914 248.689 134.584 249.688 135.855 249.688ZM147.189 251.15C145.398 251.15 144.086 249.701 144.086 247.309C144.086 244.889 145.412 243.48 147.203 243.48C148.584 243.48 149.09 244.314 149.35 244.779H149.418V242.975H147.422V241.977H149.418V241.102H150.881V241.977H151.865V242.975H150.881V251H149.459V249.838H149.35C149.076 250.33 148.543 251.15 147.189 251.15ZM147.518 249.906C148.762 249.906 149.459 248.84 149.459 247.281C149.459 245.736 148.775 244.725 147.518 244.725C146.219 244.725 145.576 245.818 145.576 247.281C145.576 248.771 146.246 249.906 147.518 249.906ZM157.949 241.279C157.936 242.141 157.115 242.742 155.775 242.742C154.449 242.742 153.629 242.141 153.629 241.279H154.791C154.791 241.689 155.051 242.045 155.775 242.045C156.486 242.045 156.773 241.689 156.773 241.279H157.949ZM155.324 241.184L156.09 239.898H157.293L156.172 241.184H155.324ZM152.439 248.908C152.439 247.213 153.875 246.775 155.215 246.68C155.707 246.646 156.821 246.584 157.17 246.57L157.156 245.982C157.156 245.148 156.65 244.656 155.652 244.656C154.791 244.656 154.271 245.053 154.121 245.6H152.672C152.809 244.369 153.957 243.48 155.707 243.48C156.883 243.48 158.619 243.918 158.619 246.064V251H157.197V249.988H157.143C156.855 250.549 156.172 251.164 154.941 251.164C153.533 251.164 152.439 250.357 152.439 248.908ZM153.861 248.922C153.861 249.633 154.449 250.002 155.27 250.002C156.459 250.002 157.17 249.209 157.17 248.32V247.637L155.42 247.76C154.463 247.828 153.861 248.184 153.861 248.922ZM161.846 246.598V251H160.383V243.576H161.791V244.793H161.873C162.229 244 162.953 243.48 164.061 243.48C165.592 243.48 166.59 244.438 166.59 246.283V251H165.141V246.461C165.141 245.381 164.553 244.738 163.568 244.738C162.57 244.738 161.846 245.408 161.846 246.598Z" fill="white"/>
<path d="M28.9551 261.102V271H27.7793L22.4199 263.289H22.3242V271H21.0938V261.102H22.2832L27.6426 268.826H27.7383V261.102H28.9551ZM32.168 266.543V271H30.9922V261.102H32.168V264.738H32.2637C32.6055 263.973 33.2754 263.48 34.4512 263.48C35.9688 263.48 36.9805 264.383 36.9805 266.283V271H35.8047V266.365C35.8047 265.203 35.1621 264.533 34.0957 264.533C32.9883 264.533 32.168 265.258 32.168 266.543ZM46.6055 263.248C46.6055 264.622 46.1816 265.367 44.7188 265.463V271H43.5566V269.742H43.4746C43.1191 270.494 42.3945 271.096 41.2734 271.096C39.8652 271.096 38.8672 270.18 38.8672 268.293V263.576H40.043V268.211C40.043 269.277 40.7129 269.961 41.6562 269.961C42.4902 269.961 43.5566 269.332 43.5566 267.951V263.576H44.7188V264.67C45.5732 264.581 45.5938 264.137 45.5938 263.248H46.6055ZM39.4141 262.646C39.4141 261.648 40.0703 260.951 40.8906 260.951C41.6426 260.951 41.9707 261.566 42.6543 261.566C43.0234 261.566 43.3105 261.252 43.3105 260.842L44.1992 260.91C44.1992 261.936 43.543 262.564 42.709 262.564C41.8203 262.564 41.6836 261.949 40.959 261.949C40.5898 261.949 40.3301 262.277 40.3301 262.688L39.4141 262.646ZM48.3418 266.543V271H47.166V263.576H48.3008V264.738H48.3965C48.752 263.986 49.4355 263.48 50.5703 263.48C52.0742 263.48 53.0723 264.396 53.0723 266.283V271H51.8965V266.365C51.8965 265.217 51.2676 264.533 50.2148 264.533C49.1348 264.533 48.3418 265.258 48.3418 266.543ZM57.9668 273.939C56.1758 273.939 54.959 273.16 54.8223 271.779H56.0527C56.2168 272.531 56.9141 272.914 57.9668 272.914C59.2383 272.914 60.0176 272.367 60.0176 271.137V269.633H59.9219C59.6758 270.043 59.1973 270.891 57.7617 270.891C55.957 270.891 54.6035 269.523 54.6035 267.186C54.6035 264.902 55.916 263.48 57.7754 263.48C59.2109 263.48 59.6758 264.355 59.9492 264.752H60.0449V263.576H61.1934V271.205C61.1934 273.119 59.7715 273.939 57.9668 273.939ZM57.9258 269.838C59.2793 269.838 60.0449 268.867 60.0449 267.227C60.0449 265.641 59.3066 264.533 57.9258 264.533C56.5039 264.533 55.793 265.736 55.793 267.227C55.793 268.771 56.5176 269.838 57.9258 269.838ZM66.5801 271V263.576H67.7148V264.738H67.8105C68.125 263.945 68.8359 263.48 69.8066 263.48C70.7773 263.48 71.4336 263.945 71.7891 264.738H71.8711C72.2539 263.973 73.0332 263.48 74.0996 263.48C75.4258 263.48 76.3691 264.287 76.3691 266.037V271H75.1934V266.051C75.1934 264.957 74.4961 264.533 73.6895 264.533C72.6504 264.533 72.0625 265.23 72.0625 266.174V271H70.873V265.928C70.873 265.094 70.2715 264.533 69.4238 264.533C68.5352 264.533 67.7559 265.285 67.7559 266.365V271H66.5801ZM80.7031 262.564L79.1992 260.322H80.5664L81.7285 262.564H80.7031ZM77.9004 268.895C77.9004 267.186 79.4043 266.803 80.6895 266.707C81.1611 266.673 82.3643 266.611 82.6992 266.598V265.996C82.6992 265.053 82.1387 264.506 81.0176 264.506C80.0742 264.506 79.5137 264.943 79.3496 265.504H78.1191C78.2695 264.314 79.4316 263.48 81.0723 263.48C82.043 263.48 83.8613 263.768 83.8613 266.105V271H82.6992V269.988H82.6445C82.3984 270.494 81.7148 271.178 80.4297 271.178C79.0215 271.178 77.9004 270.344 77.9004 268.895ZM79.0762 268.949C79.0762 269.729 79.7324 270.125 80.6348 270.125C81.9609 270.125 82.6992 269.236 82.6992 268.307V267.555L80.8262 267.691C79.7598 267.76 79.0762 268.143 79.0762 268.949ZM90.4375 267.951V263.576H91.5996V271H90.4375V269.742H90.3555C90 270.494 89.2754 271.096 88.1543 271.096C86.7461 271.096 85.748 270.18 85.748 268.293V263.576H86.9238V268.211C86.9238 269.277 87.5938 269.961 88.5371 269.961C89.3711 269.961 90.4375 269.332 90.4375 267.951ZM101.129 265.504C100.965 264.889 100.5 264.479 99.625 264.479C98.709 264.479 98.0527 264.971 98.0527 265.6C98.0527 266.092 98.4492 266.434 99.3242 266.639L100.432 266.912C101.758 267.227 102.414 267.883 102.414 268.922C102.414 270.207 101.361 271.15 99.502 271.15C97.834 271.15 96.8359 270.412 96.6445 269.059H97.875C98.0117 269.783 98.5449 270.125 99.4746 270.125C100.527 270.125 101.197 269.688 101.197 268.99C101.197 268.471 100.828 268.115 99.9805 267.924L98.8594 267.664C97.5605 267.363 96.877 266.652 96.877 265.668C96.877 264.396 97.9844 263.48 99.625 263.48C101.156 263.48 102.127 264.301 102.277 265.504H101.129ZM108.895 261.307C108.895 262.141 108.115 262.715 106.844 262.715C105.586 262.715 104.807 262.141 104.807 261.307H105.9C105.9 261.717 106.146 262.072 106.844 262.072C107.541 262.072 107.801 261.717 107.801 261.307H108.895ZM106.447 261.17L107.172 259.857H108.266L107.186 261.17H106.447ZM103.59 268.895C103.59 267.186 105.094 266.803 106.379 266.707C106.851 266.673 108.054 266.611 108.389 266.598V265.996C108.389 265.053 107.828 264.506 106.707 264.506C105.764 264.506 105.203 264.943 105.039 265.504H103.809C103.959 264.314 105.121 263.48 106.762 263.48C107.732 263.48 109.551 263.768 109.551 266.105V271H108.389V269.988H108.334C108.088 270.494 107.404 271.178 106.119 271.178C104.711 271.178 103.59 270.344 103.59 268.895ZM104.766 268.949C104.766 269.729 105.422 270.125 106.324 270.125C107.65 270.125 108.389 269.236 108.389 268.307V267.555L106.516 267.691C105.449 267.76 104.766 268.143 104.766 268.949ZM114.473 271.15C112.367 271.15 111.082 269.551 111.082 267.322C111.082 265.066 112.422 263.48 114.445 263.48C116.031 263.48 117.207 264.41 117.398 265.818H116.223C116.059 265.135 115.457 264.52 114.473 264.52C113.146 264.52 112.258 265.613 112.258 267.281C112.258 269.004 113.119 270.098 114.473 270.098C115.348 270.098 116.018 269.633 116.223 268.812H117.398C117.207 270.139 116.127 271.15 114.473 271.15ZM125.602 263.576V264.561H124.043V268.867C124.043 269.824 124.508 269.975 125.014 269.975C125.232 269.975 125.533 269.961 125.711 269.947V271.041C125.533 271.068 125.232 271.096 124.891 271.096C123.906 271.096 122.854 270.48 122.854 269.168V264.561H121.732V263.576H122.854V261.799H124.043V263.576H125.602ZM127.119 271V263.576H128.254V264.711H128.336C128.609 263.959 129.375 263.453 130.25 263.453C130.428 263.453 130.729 263.467 130.865 263.48V264.67C130.783 264.643 130.455 264.588 130.154 264.588C129.088 264.588 128.295 265.326 128.295 266.324V271H127.119ZM135.459 260.91L137.441 262.66H136.047L134.939 261.635L133.846 262.66H132.451L134.406 260.91H135.459ZM132.014 259.721L132.957 261.498H131.959L130.578 259.721H132.014ZM131.645 268.895C131.645 267.186 133.148 266.803 134.434 266.707C134.905 266.673 136.108 266.611 136.443 266.598V265.996C136.443 265.053 135.883 264.506 134.762 264.506C133.818 264.506 133.258 264.943 133.094 265.504H131.863C132.014 264.314 133.176 263.48 134.816 263.48C135.787 263.48 137.605 263.768 137.605 266.105V271H136.443V269.988H136.389C136.143 270.494 135.459 271.178 134.174 271.178C132.766 271.178 131.645 270.344 131.645 268.895ZM132.82 268.949C132.82 269.729 133.477 270.125 134.379 270.125C135.705 270.125 136.443 269.236 136.443 268.307V267.555L134.57 267.691C133.504 267.76 132.82 268.143 132.82 268.949ZM139.492 271V263.576H140.627V264.738H140.723C141.037 263.945 141.748 263.48 142.719 263.48C143.689 263.48 144.346 263.945 144.701 264.738H144.783C145.166 263.973 145.945 263.48 147.012 263.48C148.338 263.48 149.281 264.287 149.281 266.037V271H148.105V266.051C148.105 264.957 147.408 264.533 146.602 264.533C145.562 264.533 144.975 265.23 144.975 266.174V271H143.785V265.928C143.785 265.094 143.184 264.533 142.336 264.533C141.447 264.533 140.668 265.285 140.668 266.365V271H139.492ZM160.793 263.576L158.045 271H156.828L154.094 263.576H155.379L157.402 269.469H157.484L159.508 263.576H160.793ZM168.928 263.029C168.928 264.123 168.606 264.923 167.766 265.244C168.06 265.832 168.217 266.529 168.217 267.322C168.217 269.633 166.863 271.15 164.854 271.15C162.83 271.15 161.463 269.633 161.463 267.322C161.463 265.012 162.83 263.48 164.854 263.48C165.852 263.48 166.692 263.856 167.287 264.52C167.779 264.321 167.861 263.768 167.861 263.029H168.928ZM164.854 270.111C166.344 270.111 167.041 268.799 167.041 267.322C167.041 265.846 166.344 264.52 164.854 264.52C163.336 264.52 162.639 265.846 162.639 267.322C162.639 268.799 163.336 270.111 164.854 270.111ZM164.334 262.564L165.51 260.322H166.863L165.346 262.564H164.334ZM169.762 271V263.576H170.938V271H169.762ZM170.35 262.346C169.898 262.346 169.529 262.004 169.529 261.566C169.529 261.129 169.898 260.787 170.35 260.787C170.801 260.787 171.184 261.129 171.184 261.566C171.184 262.004 170.801 262.346 170.35 262.346ZM179.564 263.576V264.561H178.006V268.867C178.006 269.824 178.471 269.975 178.977 269.975C179.195 269.975 179.496 269.961 179.674 269.947V271.041C179.496 271.068 179.195 271.096 178.854 271.096C177.869 271.096 176.816 270.48 176.816 269.168V264.561H175.695V263.576H176.816V261.799H178.006V263.576H179.564ZM184.035 271.15C182.012 271.15 180.645 269.633 180.645 267.322C180.645 265.012 182.012 263.48 184.035 263.48C186.045 263.48 187.398 265.012 187.398 267.322C187.398 269.633 186.045 271.15 184.035 271.15ZM184.035 270.111C185.525 270.111 186.223 268.799 186.223 267.322C186.223 265.846 185.525 264.52 184.035 264.52C182.518 264.52 181.82 265.846 181.82 267.322C181.82 268.799 182.518 270.111 184.035 270.111ZM185.033 262.688L184.021 261.348L183.023 262.688H181.902V262.605L183.488 260.596H184.555L186.141 262.605V262.688H185.033ZM190.119 266.543V271H188.943V263.576H190.078V264.738H190.174C190.529 263.986 191.213 263.48 192.348 263.48C193.852 263.48 194.85 264.396 194.85 266.283V271H193.674V266.365C193.674 265.217 193.045 264.533 191.992 264.533C190.912 264.533 190.119 265.258 190.119 266.543ZM199.744 273.939C197.953 273.939 196.736 273.16 196.6 271.779H197.83C197.994 272.531 198.691 272.914 199.744 272.914C201.016 272.914 201.795 272.367 201.795 271.137V269.633H201.699C201.453 270.043 200.975 270.891 199.539 270.891C197.734 270.891 196.381 269.523 196.381 267.186C196.381 264.902 197.693 263.48 199.553 263.48C200.988 263.48 201.453 264.355 201.727 264.752H201.822V263.576H202.971V271.205C202.971 273.119 201.549 273.939 199.744 273.939ZM199.703 269.838C201.057 269.838 201.822 268.867 201.822 267.227C201.822 265.641 201.084 264.533 199.703 264.533C198.281 264.533 197.57 265.736 197.57 267.227C197.57 268.771 198.295 269.838 199.703 269.838ZM24.1836 283.576V284.561H22.625V288.867C22.625 289.824 23.0898 289.975 23.5957 289.975C23.8145 289.975 24.1152 289.961 24.293 289.947V291.041C24.1152 291.068 23.8145 291.096 23.4727 291.096C22.4883 291.096 21.4355 290.48 21.4355 289.168V284.561H20.3145V283.576H21.4355V281.799H22.625V283.576H24.1836ZM28.6543 291.15C26.6309 291.15 25.2637 289.633 25.2637 287.322C25.2637 285.012 26.6309 283.48 28.6543 283.48C30.6641 283.48 32.0176 285.012 32.0176 287.322C32.0176 289.633 30.6641 291.15 28.6543 291.15ZM28.6543 290.111C30.1445 290.111 30.8418 288.799 30.8418 287.322C30.8418 285.846 30.1445 284.52 28.6543 284.52C27.1367 284.52 26.4395 285.846 26.4395 287.322C26.4395 288.799 27.1367 290.111 28.6543 290.111ZM26.166 282.646L28.1348 280.896H29.2012L31.1699 282.646H29.7754L28.668 281.635L27.5742 282.646H26.166ZM30.6504 281.484L31.6074 279.748H33.0293L31.6621 281.484H30.6504ZM33.5625 291V283.576H34.7383V291H33.5625ZM34.1504 282.346C33.6992 282.346 33.3301 282.004 33.3301 281.566C33.3301 281.129 33.6992 280.787 34.1504 280.787C34.6016 280.787 34.9844 281.129 34.9844 281.566C34.9844 282.004 34.6016 282.346 34.1504 282.346ZM44.2539 285.504C44.0898 284.889 43.625 284.479 42.75 284.479C41.834 284.479 41.1777 284.971 41.1777 285.6C41.1777 286.092 41.5742 286.434 42.4492 286.639L43.5566 286.912C44.8828 287.227 45.5391 287.883 45.5391 288.922C45.5391 290.207 44.4863 291.15 42.627 291.15C40.959 291.15 39.9609 290.412 39.7695 289.059H41C41.1367 289.783 41.6699 290.125 42.5996 290.125C43.6523 290.125 44.3223 289.688 44.3223 288.99C44.3223 288.471 43.9531 288.115 43.1055 287.924L41.9844 287.664C40.6855 287.363 40.002 286.652 40.002 285.668C40.002 284.396 41.1094 283.48 42.75 283.48C44.2812 283.48 45.252 284.301 45.4023 285.504H44.2539ZM50.1875 291.15C48.041 291.15 46.7148 289.633 46.7148 287.35C46.7148 285.066 48.0547 283.48 50.0781 283.48C51.6367 283.48 53.2773 284.438 53.2773 287.186V287.678H47.8906C47.9453 289.25 48.8613 290.111 50.1875 290.111C51.0762 290.111 51.6367 289.729 51.9102 289.264H53.168C52.8125 290.385 51.7188 291.15 50.1875 291.15ZM47.6172 282.646C47.6172 281.648 48.2734 280.951 49.0938 280.951C49.8457 280.951 50.1738 281.566 50.8574 281.566C51.2266 281.566 51.5137 281.252 51.5137 280.842L52.4023 280.91C52.4023 281.936 51.7461 282.564 50.9121 282.564C50.0234 282.564 49.8867 281.949 49.1621 281.949C48.793 281.949 48.5332 282.277 48.5332 282.688L47.6172 282.646ZM47.9043 286.68H52.0879C52.0879 285.436 51.2949 284.52 50.0781 284.52C48.793 284.52 47.9727 285.531 47.9043 286.68ZM58.3223 291V281.102H59.498V286.857H59.6348L62.8477 283.576H64.2969L61.166 286.748L64.5293 291H63.0391L60.291 287.5L59.498 288.225V291H58.3223ZM66.7305 286.543V291H65.5547V281.102H66.7305V284.738H66.8262C67.168 283.973 67.8379 283.48 69.0137 283.48C70.5312 283.48 71.543 284.383 71.543 286.283V291H70.3672V286.365C70.3672 285.203 69.7246 284.533 68.6582 284.533C67.5508 284.533 66.7305 285.258 66.7305 286.543ZM73.4297 291V283.576H74.6055V291H73.4297ZM74.0176 282.346C73.5664 282.346 73.1973 282.004 73.1973 281.566C73.1973 281.129 73.5664 280.787 74.0176 280.787C74.4688 280.787 74.8516 281.129 74.8516 281.566C74.8516 282.004 74.4688 282.346 74.0176 282.346ZM79.5957 291.15C77.4492 291.15 76.123 289.633 76.123 287.35C76.123 285.066 77.4629 283.48 79.4863 283.48C81.0449 283.48 82.6855 284.438 82.6855 287.186V287.678H77.2988C77.3535 289.25 78.2695 290.111 79.5957 290.111C80.4844 290.111 81.0449 289.729 81.3184 289.264H82.5762C82.2207 290.385 81.127 291.15 79.5957 291.15ZM76.9297 282.646L78.8984 280.896H79.9648L81.9336 282.646H80.5391L79.4316 281.635L78.3379 282.646H76.9297ZM81.4141 281.484L82.3711 279.748H83.793L82.4258 281.484H81.4141ZM77.3125 286.68H81.4961C81.4961 285.436 80.7031 284.52 79.4863 284.52C78.2012 284.52 77.3809 285.531 77.3125 286.68ZM85.3926 286.543V291H84.2168V283.576H85.3516V284.738H85.4473C85.8027 283.986 86.4863 283.48 87.6211 283.48C89.125 283.48 90.123 284.396 90.123 286.283V291H88.9473V286.365C88.9473 285.217 88.3184 284.533 87.2656 284.533C86.1855 284.533 85.3926 285.258 85.3926 286.543ZM95.6738 291V281.102H96.8496V284.752H96.9453C97.2051 284.355 97.6426 283.48 99.0918 283.48C100.951 283.48 102.264 284.957 102.264 287.309C102.264 289.66 100.951 291.15 99.1055 291.15C97.6836 291.15 97.2051 290.275 96.9453 289.865H96.8086V291H95.6738ZM96.8223 287.281C96.8223 288.949 97.5742 290.098 98.9277 290.098C100.336 290.098 101.074 288.867 101.074 287.281C101.074 285.736 100.363 284.533 98.9277 284.533C97.5605 284.533 96.8223 285.641 96.8223 287.281ZM106.721 293.461C106.27 293.461 105.9 293.119 105.9 292.682C105.9 292.244 106.27 291.902 106.721 291.902C107.172 291.902 107.555 292.244 107.555 292.682C107.555 293.119 107.172 293.461 106.721 293.461ZM103.439 288.895C103.439 287.186 104.943 286.803 106.229 286.707C106.7 286.673 107.903 286.611 108.238 286.598V285.996C108.238 285.053 107.678 284.506 106.557 284.506C105.613 284.506 105.053 284.943 104.889 285.504H103.658C103.809 284.314 104.971 283.48 106.611 283.48C107.582 283.48 109.4 283.768 109.4 286.105V291H108.238V289.988H108.184C107.938 290.494 107.254 291.178 105.969 291.178C104.561 291.178 103.439 290.344 103.439 288.895ZM104.615 288.949C104.615 289.729 105.271 290.125 106.174 290.125C107.5 290.125 108.238 289.236 108.238 288.307V287.555L106.365 287.691C105.299 287.76 104.615 288.143 104.615 288.949ZM112.463 286.543V291H111.287V283.576H112.422V284.738H112.518C112.873 283.986 113.557 283.48 114.691 283.48C116.195 283.48 117.193 284.396 117.193 286.283V291H116.018V286.365C116.018 285.217 115.389 284.533 114.336 284.533C113.256 284.533 112.463 285.258 112.463 286.543ZM126.723 285.504C126.559 284.889 126.094 284.479 125.219 284.479C124.303 284.479 123.646 284.971 123.646 285.6C123.646 286.092 124.043 286.434 124.918 286.639L126.025 286.912C127.352 287.227 128.008 287.883 128.008 288.922C128.008 290.207 126.955 291.15 125.096 291.15C123.428 291.15 122.43 290.412 122.238 289.059H123.469C123.605 289.783 124.139 290.125 125.068 290.125C126.121 290.125 126.791 289.688 126.791 288.99C126.791 288.471 126.422 288.115 125.574 287.924L124.453 287.664C123.154 287.363 122.471 286.652 122.471 285.668C122.471 284.396 123.578 283.48 125.219 283.48C126.75 283.48 127.721 284.301 127.871 285.504H126.723ZM130.715 281.102V291H129.539V281.102H130.715ZM132.232 288.895C132.232 287.186 133.736 286.803 135.021 286.707C135.493 286.673 136.696 286.611 137.031 286.598V285.996C137.031 285.053 136.471 284.506 135.35 284.506C134.406 284.506 133.846 284.943 133.682 285.504H132.451C132.602 284.314 133.764 283.48 135.404 283.48C136.375 283.48 138.193 283.768 138.193 286.105V291H137.031V289.988H136.977C136.73 290.494 136.047 291.178 134.762 291.178C133.354 291.178 132.232 290.344 132.232 288.895ZM133.408 288.949C133.408 289.729 134.064 290.125 134.967 290.125C136.293 290.125 137.031 289.236 137.031 288.307V287.555L135.158 287.691C134.092 287.76 133.408 288.143 133.408 288.949ZM140.559 293.789C140.299 293.789 140.053 293.775 139.902 293.762V292.709C140.025 292.723 140.299 292.736 140.477 292.736C140.955 292.736 141.352 292.695 141.748 291.615L141.967 291.055L139.219 283.576H140.504L142.527 289.469H142.609L144.633 283.576H145.918L142.773 292.066C142.336 293.229 141.611 293.789 140.559 293.789ZM151.906 281.102V291H150.73V281.102H151.906ZM158.729 281.307C158.729 282.141 157.949 282.715 156.678 282.715C155.42 282.715 154.641 282.141 154.641 281.307H155.734C155.734 281.717 155.98 282.072 156.678 282.072C157.375 282.072 157.635 281.717 157.635 281.307H158.729ZM156.281 281.17L157.006 279.857H158.1L157.02 281.17H156.281ZM153.424 288.895C153.424 287.186 154.928 286.803 156.213 286.707C156.685 286.673 157.888 286.611 158.223 286.598V285.996C158.223 285.053 157.662 284.506 156.541 284.506C155.598 284.506 155.037 284.943 154.873 285.504H153.643C153.793 284.314 154.955 283.48 156.596 283.48C157.566 283.48 159.385 283.768 159.385 286.105V291H158.223V289.988H158.168C157.922 290.494 157.238 291.178 155.953 291.178C154.545 291.178 153.424 290.344 153.424 288.895ZM154.6 288.949C154.6 289.729 155.256 290.125 156.158 290.125C157.484 290.125 158.223 289.236 158.223 288.307V287.555L156.35 287.691C155.283 287.76 154.6 288.143 154.6 288.949ZM161.271 291V283.576H162.406V284.738H162.502C162.816 283.945 163.527 283.48 164.498 283.48C165.469 283.48 166.125 283.945 166.48 284.738H166.562C166.945 283.973 167.725 283.48 168.791 283.48C170.117 283.48 171.061 284.287 171.061 286.037V291H169.885V286.051C169.885 284.957 169.188 284.533 168.381 284.533C167.342 284.533 166.754 285.23 166.754 286.174V291H165.564V285.928C165.564 285.094 164.963 284.533 164.115 284.533C163.227 284.533 162.447 285.285 162.447 286.365V291H161.271ZM177.637 286.543V291H176.461V283.576H177.596V284.738H177.691C178.047 283.986 178.73 283.48 179.865 283.48C181.369 283.48 182.367 284.396 182.367 286.283V291H181.191V286.365C181.191 285.217 180.562 284.533 179.51 284.533C178.43 284.533 177.637 285.258 177.637 286.543ZM185.43 286.543V291H184.254V281.102H185.43V284.738H185.525C185.867 283.973 186.537 283.48 187.713 283.48C189.23 283.48 190.242 284.383 190.242 286.283V291H189.066V286.365C189.066 285.203 188.424 284.533 187.357 284.533C186.25 284.533 185.43 285.258 185.43 286.543ZM191.773 288.895C191.773 287.186 193.277 286.803 194.562 286.707C195.034 286.673 196.237 286.611 196.572 286.598V285.996C196.572 285.053 196.012 284.506 194.891 284.506C193.947 284.506 193.387 284.943 193.223 285.504H191.992C192.143 284.314 193.305 283.48 194.945 283.48C195.916 283.48 197.734 283.768 197.734 286.105V291H196.572V289.988H196.518C196.271 290.494 195.588 291.178 194.303 291.178C192.895 291.178 191.773 290.344 191.773 288.895ZM192.949 288.949C192.949 289.729 193.605 290.125 194.508 290.125C195.834 290.125 196.572 289.236 196.572 288.307V287.555L194.699 287.691C193.633 287.76 192.949 288.143 192.949 288.949ZM200.455 291.082C199.977 291.082 199.566 290.686 199.58 290.193C199.566 289.715 199.977 289.318 200.455 289.318C200.934 289.318 201.33 289.715 201.33 290.193C201.33 290.686 200.934 291.082 200.455 291.082Z" fill="white"/>
<circle cx="299.999" cy="228" r="12" fill="#828249"/>
<circle cx="299.999" cy="304" r="12" fill="#494981"/>
<circle cx="281" cy="233.092" r="12" transform="rotate(-30 281 233.092)" fill="#A6A633"/>
<circle cx="319" cy="298.91" r="12" transform="rotate(-30 319 298.91)" fill="#3232A6"/>
<circle cx="267.091" cy="247" r="12" transform="rotate(-60 267.091 247)" fill="#9B3456"/>
<circle cx="332.909" cy="285" r="12" transform="rotate(-60 332.909 285)" fill="#485878"/>
<circle cx="262" cy="266.001" r="12" transform="rotate(-90 262 266.001)" fill="#74476A"/>
<circle cx="338" cy="266.001" r="12" transform="rotate(-90 338 266.001)" fill="#32755F"/>
<circle cx="267.091" cy="285" r="12" transform="rotate(-120 267.091 285)" fill="#AD1FAD"/>
<circle cx="332.909" cy="247.001" r="12" transform="rotate(-120 332.909 247.001)" fill="#466651"/>
<circle cx="281" cy="298.909" r="12" transform="rotate(-150 281 298.909)" fill="#753296"/>
<circle cx="319" cy="233.091" r="12" transform="rotate(-150 319 233.091)" fill="#607A51"/>
</svg>
