<svg width="23" height="22" viewBox="0 0 23 22" fill="none" xmlns="http://www.w3.org/2000/svg">
<g clip-path="url(#clip0_1831_8835)">
<path d="M18.8461 4.49661C18.3822 3.96295 17.6427 3.78594 17.0018 3.99173C17.028 3.61764 16.9294 3.23484 16.5815 2.83459C16.3495 2.56776 15.8682 2.28349 15.2447 2.23989C14.8706 2.21373 14.6125 2.32099 14.3631 2.30355C14.3806 2.05416 14.2646 1.92075 14.1573 1.66264C13.5862 0.870864 12.3392 0.783669 11.6634 1.48824C11.3966 1.7202 11.1298 1.95215 11.1123 2.20154C10.8629 2.1841 10.6223 2.04197 10.3729 2.02453C9.7494 1.98093 9.35787 2.20416 8.95762 2.55209C8.29055 3.13197 8.22079 4.12953 8.22079 4.12953L7.88945 8.86796C7.54152 8.46772 6.96164 7.80064 6.08877 7.73961C5.83938 7.72217 5.45658 7.8207 5.19847 7.92796C4.68224 8.14247 4.40669 8.49912 4.24712 8.98918C3.78584 10.21 4.78602 12.0342 4.7773 12.1589C4.89328 12.2923 6.03822 15.6303 7.18926 17.0891C8.33158 18.6727 9.6422 19.6415 13.1337 19.8856C16.7498 20.1385 18.5104 18.2567 18.8156 13.8924L19.2952 7.03412C19.3039 6.90942 19.5332 5.42179 18.8461 4.49661ZM12.0227 3.51825C12.0489 3.14416 11.9852 2.26258 12.7334 2.31489C13.3568 2.35849 13.3132 2.98197 13.2697 3.60545L12.9209 8.59327C12.8947 8.96735 13.1267 9.23418 13.5007 9.26034C13.8748 9.2865 14.1417 9.05455 14.1678 8.68046L14.4992 3.94203C14.4992 3.94203 14.534 3.44325 15.1575 3.48685C15.9057 3.53917 15.7025 4.65271 15.7025 4.65271L15.4148 8.76766C15.3886 9.14175 15.6206 9.40858 15.9947 9.43473C16.3687 9.46089 16.6356 9.22894 16.6617 8.85485L16.871 5.86216C16.8797 5.73747 16.9233 5.11399 17.5468 5.15759C18.1703 5.20118 18.0831 6.44814 18.0831 6.44814L17.5686 13.8052C17.2722 18.0448 15.5901 18.8043 13.2209 18.6387C10.2282 18.4294 9.14951 17.7274 8.24786 16.286C7.2128 14.9606 5.94316 11.6139 5.95188 11.4892C5.60395 11.0889 5.18365 9.93181 5.34322 9.44175C5.35194 9.31705 5.48536 9.20107 5.61877 9.0851C5.74347 9.09382 5.87688 8.97784 5.87688 8.97784C6.37566 9.01272 6.83085 9.67108 6.93811 9.92919L7.6078 11.1038C7.71506 11.3619 8.08043 11.5127 8.33854 11.4055C8.83732 11.4403 8.97945 11.1997 8.99689 10.9503L9.45031 4.46612C9.48519 3.96734 9.5375 3.21916 10.161 3.26276C10.6598 3.29764 10.7583 3.68045 10.7147 4.30392L10.427 8.41888C10.4008 8.79296 10.6328 9.05979 11.0068 9.08595C11.3809 9.11211 11.6478 8.88016 11.6739 8.50607L12.0227 3.51825Z" fill="white"/>
</g>
<defs>
<clipPath id="clip0_1831_8835">
<rect width="20" height="20" fill="white" transform="translate(2.22168 0.326782) rotate(4)"/>
</clipPath>
</defs>
</svg>
