<svg width="40" height="40" viewBox="0 0 40 40" fill="none" xmlns="http://www.w3.org/2000/svg">
<path fill-rule="evenodd" clip-rule="evenodd" d="M17.7649 10.9986C18.0462 10.6844 18.3907 10.4331 18.7757 10.261C19.1608 10.0889 19.5778 10 19.9995 10C20.4212 10 20.8382 10.0889 21.2233 10.261C21.6083 10.4331 21.9528 10.6844 22.2341 10.9986L22.934 11.7805C23.034 11.8924 23.1579 11.9803 23.2965 12.0378C23.4352 12.0952 23.585 12.1207 23.7348 12.1124L24.7846 12.0544C25.2056 12.0313 25.6267 12.0972 26.0205 12.2478C26.4143 12.3984 26.7719 12.6303 27.07 12.9284C27.3681 13.2265 27.6001 13.5842 27.7507 13.978C27.9013 14.3717 27.9671 14.7929 27.944 15.2138L27.886 16.2636C27.8779 16.4133 27.9034 16.5629 27.9609 16.7014C28.0184 16.8398 28.1062 16.9636 28.218 17.0635L29.0008 17.7634C29.3152 18.0447 29.5667 18.3892 29.7388 18.7743C29.911 19.1594 30 19.5766 30 19.9984C30 20.4203 29.911 20.8374 29.7388 21.2226C29.5667 21.6077 29.3152 21.9522 29.0008 22.2335L28.218 22.9334C28.1061 23.0334 28.0181 23.1573 27.9607 23.296C27.9032 23.4346 27.8777 23.5844 27.886 23.7342L27.944 24.784C27.9671 25.205 27.9013 25.6261 27.7507 26.0199C27.6001 26.4137 27.3681 26.7713 27.07 27.0695C26.7719 27.3676 26.4143 27.5995 26.0205 27.7501C25.6267 27.9007 25.2056 27.9666 24.7846 27.9435L23.7348 27.8855C23.5851 27.8773 23.4355 27.9029 23.2971 27.9603C23.1586 28.0178 23.0349 28.1057 22.935 28.2174L22.2351 29.0003C21.9537 29.3146 21.6093 29.5661 21.2241 29.7383C20.839 29.9104 20.4219 29.9994 20 29.9994C19.5781 29.9994 19.161 29.9104 18.7759 29.7383C18.3907 29.5661 18.0463 29.3146 17.7649 29.0003L17.065 28.2174C16.965 28.1055 16.8411 28.0176 16.7025 27.9601C16.5638 27.9027 16.414 27.8771 16.2642 27.8855L15.2144 27.9435C14.7934 27.9666 14.3723 27.9007 13.9785 27.7501C13.5847 27.5995 13.2271 27.3676 12.929 27.0695C12.6309 26.7713 12.3989 26.4137 12.2483 26.0199C12.0977 25.6261 12.0319 25.205 12.055 24.784L12.113 23.7342C12.1211 23.5846 12.0956 23.435 12.0381 23.2965C11.9806 23.1581 11.8928 23.0343 11.781 22.9344L10.9992 22.2345C10.6848 21.9532 10.4333 21.6087 10.2612 21.2236C10.089 20.8384 10 20.4213 10 19.9994C10 19.5776 10.089 19.1604 10.2612 18.7753C10.4333 18.3902 10.6848 18.0457 10.9992 17.7644L11.781 17.0645C11.8929 16.9645 11.9809 16.8405 12.0383 16.7019C12.0958 16.5633 12.1213 16.4135 12.113 16.2636L12.055 15.2138C12.0319 14.7929 12.0977 14.3717 12.2483 13.978C12.3989 13.5842 12.6309 13.2265 12.929 12.9284C13.2271 12.6303 13.5847 12.3984 13.9785 12.2478C14.3723 12.0972 14.7934 12.0313 15.2144 12.0544L16.2642 12.1124C16.4139 12.1206 16.5635 12.095 16.7019 12.0375C16.8404 11.9801 16.9641 11.8922 17.064 11.7805L17.7649 10.9986ZM23.7058 16.2926C23.8932 16.4801 23.9985 16.7344 23.9985 16.9995C23.9985 17.2646 23.8932 17.5189 23.7058 17.7064L17.7069 23.7052C17.5184 23.8874 17.2658 23.9881 17.0037 23.9859C16.7415 23.9836 16.4907 23.8784 16.3054 23.6931C16.12 23.5077 16.0148 23.2569 16.0126 22.9948C16.0103 22.7326 16.1111 22.4801 16.2932 22.2915L22.2921 16.2926C22.4796 16.1052 22.7338 15.9999 22.9989 15.9999C23.2641 15.9999 23.5183 16.1052 23.7058 16.2926ZM17.5 15.9997C17.1022 15.9997 16.7208 16.1577 16.4395 16.4389C16.1583 16.7202 16.0002 17.1017 16.0002 17.4994V17.5094C16.0002 17.9072 16.1583 18.2886 16.4395 18.5699C16.7208 18.8511 17.1022 19.0091 17.5 19.0091H17.51C17.9077 19.0091 18.2892 18.8511 18.5704 18.5699C18.8517 18.2886 19.0097 17.9072 19.0097 17.5094V17.4994C19.0097 17.1017 18.8517 16.7202 18.5704 16.4389C18.2892 16.1577 17.9077 15.9997 17.51 15.9997H17.5ZM22.499 20.9988C22.1013 20.9988 21.7198 21.1568 21.4386 21.438C21.1573 21.7193 20.9993 22.1007 20.9993 22.4985V22.5085C20.9993 22.9062 21.1573 23.2877 21.4386 23.5689C21.7198 23.8502 22.1013 24.0082 22.499 24.0082H22.509C22.9068 24.0082 23.2882 23.8502 23.5695 23.5689C23.8507 23.2877 24.0088 22.9062 24.0088 22.5085V22.4985C24.0088 22.1007 23.8507 21.7193 23.5695 21.438C23.2882 21.1568 22.9068 20.9988 22.509 20.9988H22.499Z" fill="#111111"/>
</svg>
