<svg width="26" height="26" viewBox="0 0 26 26" fill="none" xmlns="http://www.w3.org/2000/svg">
<g id="mdi:paper">
<path id="Subtract" fill-rule="evenodd" clip-rule="evenodd" d="M15.5006 4.00024V9.00024H20.5006L15.5006 4.00024ZM4.33398 4.33366C4.33398 3.13116 5.33523 2.16699 6.58398 2.16699H14.7776C15.2949 2.16699 15.7922 2.36748 16.1649 2.72635L21.7213 8.07697C22.1128 8.45398 22.334 8.97409 22.334 9.51761V21.667C22.334 22.2416 22.0969 22.7927 21.675 23.1991C21.253 23.6054 20.6807 23.8337 20.084 23.8337H6.58398C5.98725 23.8337 5.41495 23.6054 4.99299 23.1991C4.57104 22.7927 4.33398 22.2416 4.33398 21.667V4.33366ZM10.9669 12.6926L11.3306 14.231L9.33057 15.0002L11.3306 15.7695L10.7851 17.5002L12.4215 17.1156L13.3306 20.0002L14.2397 17.1156L15.6942 17.5002L15.3306 15.7695L17.3306 15.0002L15.3306 14.231L15.6942 12.6926L14.2397 13.0772L13.3306 10.0002L12.4215 13.0772L10.9669 12.6926Z" fill="#111111"/>
</g>
</svg>
