<svg width="32" height="32" viewBox="0 0 32 32" fill="none" xmlns="http://www.w3.org/2000/svg">
<rect width="32" height="32" rx="16" fill="#F4F5F8" fill-opacity="0.7"/>
<path d="M25 15.0015C24.7348 15.0015 24.4804 15.1068 24.2929 15.2944C24.1054 15.4819 24 15.7362 24 16.0015C24.0119 17.8745 23.3703 19.693 22.1857 21.1439C21.001 22.5948 19.3475 23.5871 17.51 23.9501C15.6724 24.313 13.7658 24.0238 12.1185 23.1322C10.4712 22.2407 9.18641 20.8026 8.48533 19.0657C7.78425 17.3288 7.71079 15.4018 8.27762 13.6165C8.84445 11.8313 10.0161 10.2996 11.5907 9.28524C13.1653 8.27089 15.0444 7.83738 16.9043 8.05938C18.7641 8.28137 20.4884 9.14498 21.78 10.5015H19.38C19.1148 10.5015 18.8604 10.6068 18.6729 10.7944C18.4854 10.9819 18.38 11.2362 18.38 11.5015C18.38 11.7667 18.4854 12.021 18.6729 12.2086C18.8604 12.3961 19.1148 12.5015 19.38 12.5015H23.91C24.1752 12.5015 24.4296 12.3961 24.6171 12.2086C24.8046 12.021 24.91 11.7667 24.91 11.5015V7.00146C24.91 6.73625 24.8046 6.48189 24.6171 6.29436C24.4296 6.10682 24.1752 6.00146 23.91 6.00146C23.6448 6.00146 23.3904 6.10682 23.2029 6.29436C23.0154 6.48189 22.91 6.73625 22.91 7.00146V8.77146C21.2447 7.17952 19.0808 6.21142 16.784 6.03079C14.4873 5.85017 12.1986 6.46811 10.3049 7.78015C8.41121 9.0922 7.02861 11.0179 6.39083 13.2317C5.75305 15.4454 5.89921 17.8115 6.80461 19.93C7.71001 22.0484 9.31911 23.7893 11.3599 24.8583C13.4007 25.9273 15.748 26.2589 18.005 25.7969C20.2621 25.335 22.2904 24.1079 23.7471 22.3231C25.2039 20.5383 25.9997 18.3053 26 16.0015C26 15.7362 25.8946 15.4819 25.7071 15.2944C25.5196 15.1068 25.2652 15.0015 25 15.0015Z" fill="#4E505B"/>
</svg>
