<svg width="24" height="24" viewBox="0 0 24 24" fill="none" xmlns="http://www.w3.org/2000/svg">
<path d="M18.781 18.2198C18.8507 18.2895 18.906 18.3722 18.9437 18.4632C18.9814 18.5543 19.0008 18.6519 19.0008 18.7504C19.0008 18.849 18.9814 18.9465 18.9437 19.0376C18.906 19.1286 18.8507 19.2114 18.781 19.281C18.7114 19.3507 18.6286 19.406 18.5376 19.4437C18.4465 19.4814 18.349 19.5008 18.2504 19.5008C18.1519 19.5008 18.0543 19.4814 17.9632 19.4437C17.8722 19.406 17.7895 19.3507 17.7198 19.281L11.5004 13.0607L5.28104 19.281C5.14031 19.4218 4.94944 19.5008 4.75042 19.5008C4.55139 19.5008 4.36052 19.4218 4.21979 19.281C4.07906 19.1403 4 18.9494 4 18.7504C4 18.5514 4.07906 18.3605 4.21979 18.2198L10.4401 12.0004L4.21979 5.78104C4.07906 5.64031 4 5.44944 4 5.25042C4 5.05139 4.07906 4.86052 4.21979 4.71979C4.36052 4.57906 4.55139 4.5 4.75042 4.5C4.94944 4.5 5.14031 4.57906 5.28104 4.71979L11.5004 10.9401L17.7198 4.71979C17.8605 4.57906 18.0514 4.5 18.2504 4.5C18.4494 4.5 18.6403 4.57906 18.781 4.71979C18.9218 4.86052 19.0008 5.05139 19.0008 5.25042C19.0008 5.44944 18.9218 5.64031 18.781 5.78104L12.5607 12.0004L18.781 18.2198Z" fill="black"/>
</svg>
