<svg width="125" height="125" viewBox="0 0 125 125" fill="none" xmlns="http://www.w3.org/2000/svg">
<path d="M51.2227 93.51C50.5104 93.5077 49.8061 93.3589 49.1537 93.073C48.5013 92.787 47.9147 92.3699 47.4303 91.8476L22.1826 64.9894C21.2389 63.9837 20.7333 62.6441 20.7771 61.2656C20.8209 59.887 21.4106 58.5823 22.4164 57.6385C23.4222 56.6947 24.7617 56.1891 26.1403 56.233C27.5189 56.2768 28.8236 56.8665 29.7673 57.8723L51.1707 80.6783L94.8607 32.8843C95.3041 32.3322 95.8556 31.8766 96.4815 31.5454C97.1074 31.2142 97.7944 31.0145 98.5002 30.9585C99.2061 30.9024 99.916 30.9913 100.586 31.2196C101.257 31.4479 101.873 31.8109 102.398 32.2861C102.923 32.7614 103.345 33.3389 103.639 33.9833C103.932 34.6277 104.091 35.3253 104.105 36.0332C104.119 36.7412 103.989 37.4446 103.721 38.1002C103.454 38.7558 103.055 39.3498 102.549 39.8457L55.067 91.7956C54.5872 92.3274 54.0026 92.7542 53.35 93.0492C52.6974 93.3442 51.9908 93.5011 51.2746 93.51H51.2227Z" fill="#231F20"/>
</svg>
