<svg width="350" height="316" viewBox="0 0 350 316" fill="none" xmlns="http://www.w3.org/2000/svg">
<path d="M0 16C0 7.16345 7.16344 0 16 0H226C234.837 0 242 7.16344 242 16V84C242 92.8366 234.837 100 226 100H16C7.16344 100 0 92.8366 0 84V16Z" fill="#9400DE"/>
<path d="M29.25 61L22.875 38.375H27.25L31.3438 55.0312H31.5625L35.9062 38.375H39.9062L44.2812 55.0625H44.4688L48.5625 38.375H52.9375L46.5625 61H42.5312L38 45.0938H37.8438L33.2812 61H29.25ZM55.3438 61V44.0312H59.3438V61H55.3438ZM57.375 41.625C56.125 41.625 55.0625 40.6562 55.0625 39.4375C55.0625 38.25 56.125 37.2812 57.375 37.2812C58.6562 37.2812 59.6875 38.25 59.6875 39.4375C59.6875 40.6562 58.6562 41.625 57.375 41.625ZM67.1562 51.0625V61H63.1562V44.0312H66.9688V46.9062H67.1875C67.9688 45 69.6875 43.8125 72.2188 43.8125C75.75 43.8125 78.0625 46.125 78.0312 50.1875V61H74.0625V50.8125C74.0625 48.5312 72.8438 47.1875 70.75 47.1875C68.625 47.1875 67.1562 48.5938 67.1562 51.0625ZM90.3125 44.0312V47.0938H86.9688V55.9062C86.9688 57.5312 87.7812 57.875 88.7812 57.875C89.25 57.875 90.0312 57.8438 90.5312 57.8125V61.0625C90.0625 61.1562 89.2812 61.2188 88.2812 61.2188C85.2812 61.2188 82.9688 59.75 83 56.5625V47.0938H80.5625V44.0312H83V39.9688H86.9688V44.0312H90.3125ZM100.719 61.3438C95.5938 61.3438 92.4688 57.9375 92.4688 52.625C92.4688 47.375 95.6562 43.8125 100.5 43.8125C104.656 43.8125 108.25 46.4062 108.25 52.375V53.625H96.4062C96.4531 56.5156 98.1562 58.2188 100.75 58.2188C102.5 58.2188 103.688 57.4688 104.188 56.4688H108.094C107.375 59.4062 104.656 61.3438 100.719 61.3438ZM96.4375 50.9062H104.438C104.406 48.5938 102.875 46.9062 100.562 46.9062C98.1562 46.9062 96.5625 48.7344 96.4375 50.9062ZM111.344 61V44.0312H115.219V46.8438H115.406C116 44.9062 117.656 43.7812 119.594 43.7812C120.031 43.7812 120.656 43.8125 121.031 43.875V47.5625C120.688 47.4375 119.844 47.3125 119.188 47.3125C116.969 47.3125 115.344 48.8438 115.344 51V61H111.344ZM131.188 61V38.375H139.844C144.75 38.375 147.188 40.875 147.188 44.25C147.188 47 145.438 48.5312 143.219 49.0625V49.2812C145.625 49.4062 148.062 51.4062 148.062 54.8438C148.062 58.375 145.531 61 140.344 61H131.188ZM139.719 57.5938C142.688 57.5938 143.938 56.3125 143.938 54.5312C143.938 52.5 142.344 50.9375 139.812 50.9375H135.25V57.5938H139.719ZM139.344 48C141.5 48 143.125 46.75 143.125 44.75C143.125 43 141.875 41.75 139.438 41.75H135.25V48H139.344ZM151.188 61V44.0312H155.062V46.8438H155.25C155.844 44.9062 157.5 43.7812 159.438 43.7812C159.875 43.7812 160.5 43.8125 160.875 43.875V47.5625C160.531 47.4375 159.688 47.3125 159.031 47.3125C156.812 47.3125 155.188 48.8438 155.188 51V61H151.188ZM163.25 61V44.0312H167.25V61H163.25ZM165.281 41.625C164.031 41.625 162.969 40.6562 162.969 39.4375C162.969 38.25 164.031 37.2812 165.281 37.2812C166.562 37.2812 167.594 38.25 167.594 39.4375C167.594 40.6562 166.562 41.625 165.281 41.625ZM178.469 67.7188C173.969 67.7188 171.125 65.7188 170.844 62.5312H174.812C175.094 64 176.5 64.7188 178.531 64.7188C180.906 64.7188 182.469 63.6875 182.469 61.1875V57.9375H182.281C181.656 59.1875 180.312 60.75 177.375 60.75C173.469 60.75 170.375 57.9062 170.375 52.375C170.375 46.7812 173.469 43.8125 177.406 43.8125C180.406 43.8125 181.656 45.5938 182.281 46.8125H182.469V44.0312H186.406V61.2812C186.406 65.625 183.062 67.7188 178.469 67.7188ZM178.469 57.625C181.031 57.625 182.5 55.6875 182.5 52.4375C182.5 49.2188 181.062 47.0625 178.469 47.0625C175.812 47.0625 174.438 49.3438 174.438 52.4375C174.438 55.5625 175.844 57.625 178.469 57.625ZM194.219 51.0625V61H190.219V38.375H194.125V46.9062H194.344C195.125 45 196.75 43.8125 199.375 43.8125C202.906 43.8125 205.219 46.0938 205.219 50.1875V61H201.25V50.8125C201.25 48.5 200 47.1875 197.906 47.1875C195.75 47.1875 194.219 48.5938 194.219 51.0625ZM217.469 44.0312V47.0938H214.125V55.9062C214.125 57.5312 214.938 57.875 215.938 57.875C216.406 57.875 217.188 57.8438 217.688 57.8125V61.0625C217.219 61.1562 216.438 61.2188 215.438 61.2188C212.438 61.2188 210.125 59.75 210.156 56.5625V47.0938H207.719V44.0312H210.156V39.9688H214.125V44.0312H217.469Z" fill="#FEFE00"/>
<path d="M250 16C250 7.16345 257.163 0 266 0H334C342.837 0 350 7.16344 350 16V84C350 92.8366 342.837 100 334 100H266C257.163 100 250 92.8366 250 84V16Z" fill="#0028ED"/>
<path d="M311.818 54.5312L319.806 52.4062C320.67 52.1719 321.582 52.6406 321.818 53.5156C322.054 54.3906 321.535 55.2656 320.67 55.5L315.812 56.7969L319.287 58.7813C320.041 59.2188 320.309 60.1719 319.868 60.9219C319.428 61.6719 318.469 61.9375 317.714 61.5L314.24 59.5156L315.545 64.3438C315.781 65.2188 315.277 66.0938 314.397 66.3281C313.517 66.5625 312.636 66.0469 312.4 65.1875L310.262 57.25L306.646 55.1719C305.529 56.4062 304.052 57.3125 302.354 57.6562V61.7656L308.202 67.5781C308.831 68.2031 308.831 69.2344 308.202 69.8594C307.573 70.4844 306.536 70.4844 305.907 69.8594L302.354 66.3281V70.3125C302.354 71.1719 301.646 71.875 300.781 71.875C299.917 71.875 299.209 71.1719 299.209 70.3125V66.3438L295.656 69.875C295.027 70.5 293.989 70.5 293.36 69.875C292.731 69.25 292.731 68.2188 293.36 67.5938L299.209 61.7812V57.6719C297.495 57.3281 296.033 56.4219 294.917 55.1875L291.316 57.25L289.178 65.1875C288.942 66.0469 288.046 66.5625 287.181 66.3281C286.316 66.0938 285.798 65.2031 286.033 64.3438L287.338 59.5156L283.864 61.5156C283.109 61.9375 282.15 61.6875 281.71 60.9375C281.27 60.1875 281.537 59.2344 282.276 58.8281L285.75 56.8281L280.892 55.5313C280.027 55.2969 279.509 54.4062 279.744 53.5469C279.98 52.6875 280.876 52.1719 281.741 52.4062L289.728 54.5312L293.344 52.4531C293.077 51.6875 292.904 50.8594 292.904 50C292.904 49.1406 293.077 48.3125 293.344 47.5781L289.728 45.5L281.741 47.625C280.861 47.8594 279.98 47.3438 279.744 46.4844C279.509 45.6094 280.027 44.7344 280.892 44.5L285.75 43.2031L282.276 41.2031C281.537 40.7656 281.27 39.8125 281.71 39.0625C282.134 38.3125 283.109 38.0625 283.848 38.4844L287.338 40.4844L286.033 35.6563C285.798 34.7969 286.316 33.9219 287.181 33.6875C288.046 33.4531 288.926 33.9688 289.162 34.8281L291.301 42.7656L294.901 44.8281C296.017 43.5937 297.495 42.6875 299.193 42.3438V38.2344L293.344 32.4219C292.716 31.7969 292.716 30.7656 293.344 30.1406C293.973 29.5156 295.011 29.5156 295.64 30.1406L299.193 33.6719V29.6875C299.193 28.8281 299.901 28.125 300.766 28.125C301.63 28.125 302.338 28.8281 302.338 29.6875V33.6719L305.891 30.1406C306.52 29.5156 307.558 29.5156 308.187 30.1406C308.815 30.7656 308.815 31.7969 308.187 32.4219L302.338 38.2344V42.3438C304.036 42.6875 305.514 43.5938 306.614 44.8125L310.231 42.7344L312.369 34.7969C312.605 33.9375 313.501 33.4219 314.366 33.6562C315.23 33.8906 315.749 34.7812 315.513 35.6406L314.208 40.4688L317.683 38.4844C318.438 38.0625 319.397 38.3125 319.837 39.0625C320.262 39.8125 320.01 40.7656 319.271 41.1875L315.796 43.1719L320.655 44.4688C321.519 44.7031 322.038 45.5937 321.802 46.4531C321.566 47.3125 320.67 47.8281 319.806 47.5938L311.818 45.4688L308.202 47.5469C308.47 48.3125 308.643 49.1406 308.643 50C308.643 50.8594 308.47 51.6719 308.202 52.4531L311.818 54.5312ZM305.482 50C305.482 47.4112 303.371 45.3125 300.766 45.3125C298.161 45.3125 296.049 47.4112 296.049 50C296.049 52.5888 298.161 54.6875 300.766 54.6875C303.371 54.6875 305.482 52.5888 305.482 50Z" fill="#71D4FF"/>
<circle cx="50" cy="120" r="12" fill="#FEFE00"/>
<circle cx="50" cy="195.999" r="12" fill="#0000FE"/>
<circle cx="30.9997" cy="125.091" r="12" transform="rotate(-30 30.9997 125.091)" fill="#ED004F"/>
<circle cx="68.9997" cy="190.909" r="12" transform="rotate(-30 68.9997 190.909)" fill="#0028ED"/>
<circle cx="17.0905" cy="139" r="12" transform="rotate(-60 17.0905 139)" fill="#E50073"/>
<circle cx="82.9089" cy="177" r="12" transform="rotate(-60 82.9089 177)" fill="#004ADE"/>
<circle cx="12" cy="158.001" r="12" transform="rotate(-90 12 158.001)" fill="#D900A2"/>
<circle cx="88" cy="158.001" r="12" transform="rotate(-90 88 158.001)" fill="#00A16B"/>
<circle cx="17.0905" cy="177" r="12" transform="rotate(-120 17.0905 177)" fill="#CC00CC"/>
<circle cx="82.9089" cy="139" r="12" transform="rotate(-120 82.9089 139)" fill="#00A536"/>
<circle cx="31.0003" cy="190.908" r="12" transform="rotate(-150 31.0003 190.908)" fill="#9400DE"/>
<circle cx="68.9993" cy="125.091" r="12" transform="rotate(-150 68.9993 125.091)" fill="#6EEA26"/>
<path d="M108 124C108 115.163 115.163 108 124 108H334C342.837 108 350 115.163 350 124V192C350 200.837 342.837 208 334 208H124C115.163 208 108 200.837 108 192V124Z" fill="#6DC73A"/>
<path d="M132.594 143L133.031 140.348H130.721L130.283 143H129.107L129.545 140.348H128.123L128.301 139.186H129.736L130.105 136.916H128.697L128.875 135.74H130.311L130.734 133.102H131.91L131.486 135.74H133.797L134.221 133.102H135.383L134.959 135.74H136.395L136.203 136.916H134.768L134.398 139.186H135.82L135.615 140.348H134.207L133.77 143H132.594ZM130.912 139.186H133.223L133.592 136.916H131.281L130.912 139.186ZM137.516 143V133.102H141.139C143.244 133.102 144.27 134.236 144.27 135.699C144.27 136.93 143.518 137.559 142.602 137.791V137.887C143.586 137.941 144.652 138.803 144.652 140.334C144.652 141.852 143.613 143 141.303 143H137.516ZM141.166 141.715C142.588 141.715 143.162 141.086 143.162 140.266C143.162 139.322 142.41 138.557 141.221 138.557H139.02V141.715H141.166ZM141.016 137.381C142.014 137.381 142.793 136.766 142.793 135.822C142.793 135.002 142.232 134.387 141.043 134.387H139.02V137.381H141.016ZM146.143 143V135.576H147.551V136.752H147.633C147.906 135.959 148.645 135.467 149.52 135.467C149.697 135.467 149.984 135.48 150.135 135.494V136.889C150.012 136.861 149.67 136.807 149.369 136.807C148.357 136.807 147.605 137.504 147.605 138.475V143H146.143ZM151.229 143V135.576H152.691V143H151.229ZM151.967 134.428C151.461 134.428 151.037 134.045 151.037 133.566C151.037 133.088 151.461 132.705 151.967 132.705C152.459 132.705 152.883 133.088 152.883 133.566C152.883 134.045 152.459 134.428 151.967 134.428ZM157.586 145.939C155.713 145.939 154.482 145.105 154.346 143.725H155.836C155.973 144.422 156.629 144.764 157.6 144.764C158.762 144.764 159.5 144.271 159.5 143.109V141.646H159.404C159.145 142.125 158.611 142.891 157.244 142.891C155.494 142.891 154.141 141.578 154.141 139.213C154.141 136.848 155.467 135.48 157.258 135.48C158.639 135.48 159.145 136.314 159.418 136.779H159.514V135.576H160.936V143.164C160.936 145.064 159.5 145.939 157.586 145.939ZM157.572 141.688C158.816 141.688 159.514 140.771 159.514 139.24C159.514 137.736 158.83 136.725 157.572 136.725C156.273 136.725 155.631 137.818 155.631 139.24C155.631 140.689 156.301 141.688 157.572 141.688ZM164.176 138.598V143H162.713V133.102H164.148V136.793H164.244C164.6 135.986 165.283 135.48 166.445 135.48C167.977 135.48 168.988 136.424 168.988 138.283V143H167.525V138.461C167.525 137.367 166.938 136.738 165.953 136.738C164.928 136.738 164.176 137.408 164.176 138.598ZM174.225 135.576V136.738H172.707V140.812C172.707 141.646 173.131 141.797 173.596 141.811C173.801 141.811 174.129 141.783 174.334 141.77V143.041C174.129 143.068 173.814 143.096 173.418 143.096C172.27 143.096 171.244 142.467 171.258 141.113V136.738H170.164V135.576H171.258V133.799H172.707V135.576H174.225Z" fill="white"/>
<path d="M187.594 143L188.031 140.348H185.721L185.283 143H184.107L184.545 140.348H183.123L183.301 139.186H184.736L185.105 136.916H183.697L183.875 135.74H185.311L185.734 133.102H186.91L186.486 135.74H188.797L189.221 133.102H190.383L189.959 135.74H191.395L191.203 136.916H189.768L189.398 139.186H190.82L190.615 140.348H189.207L188.77 143H187.594ZM185.912 139.186H188.223L188.592 136.916H186.281L185.912 139.186ZM193.391 133.102L196.139 141.154H196.248L198.996 133.102H200.623L197.055 143H195.318L191.764 133.102H193.391ZM201.758 143V135.576H203.221V143H201.758ZM202.496 134.428C201.99 134.428 201.566 134.045 201.566 133.566C201.566 133.088 201.99 132.705 202.496 132.705C202.988 132.705 203.412 133.088 203.412 133.566C203.412 134.045 202.988 134.428 202.496 134.428ZM211.369 135.576L208.676 143H207.104L204.41 135.576H205.982L207.855 141.277H207.924L209.797 135.576H211.369ZM212.559 143V135.576H214.021V143H212.559ZM213.297 134.428C212.791 134.428 212.367 134.045 212.367 133.566C212.367 133.088 212.791 132.705 213.297 132.705C213.789 132.705 214.213 133.088 214.213 133.566C214.213 134.045 213.789 134.428 213.297 134.428ZM218.574 143.15C216.783 143.15 215.471 141.701 215.471 139.309C215.471 136.889 216.797 135.48 218.588 135.48C219.969 135.48 220.475 136.314 220.734 136.779H220.803V133.102H222.266V143H220.844V141.838H220.734C220.461 142.33 219.928 143.15 218.574 143.15ZM218.902 141.906C220.146 141.906 220.844 140.84 220.844 139.281C220.844 137.736 220.16 136.725 218.902 136.725C217.604 136.725 216.961 137.818 216.961 139.281C216.961 140.771 217.631 141.906 218.902 141.906Z" fill="white"/>
<path d="M136.955 153.102V163H135.779L130.42 155.289H130.324V163H129.094V153.102H130.283L135.643 160.826H135.738V153.102H136.955ZM140.168 158.543V163H138.992V153.102H140.168V156.738H140.264C140.605 155.973 141.275 155.48 142.451 155.48C143.969 155.48 144.98 156.383 144.98 158.283V163H143.805V158.365C143.805 157.203 143.162 156.533 142.096 156.533C140.988 156.533 140.168 157.258 140.168 158.543ZM154.605 155.248C154.605 156.622 154.182 157.367 152.719 157.463V163H151.557V161.742H151.475C151.119 162.494 150.395 163.096 149.273 163.096C147.865 163.096 146.867 162.18 146.867 160.293V155.576H148.043V160.211C148.043 161.277 148.713 161.961 149.656 161.961C150.49 161.961 151.557 161.332 151.557 159.951V155.576H152.719V156.67C153.573 156.581 153.594 156.137 153.594 155.248H154.605ZM147.414 154.646C147.414 153.648 148.07 152.951 148.891 152.951C149.643 152.951 149.971 153.566 150.654 153.566C151.023 153.566 151.311 153.252 151.311 152.842L152.199 152.91C152.199 153.936 151.543 154.564 150.709 154.564C149.82 154.564 149.684 153.949 148.959 153.949C148.59 153.949 148.33 154.277 148.33 154.688L147.414 154.646ZM156.342 158.543V163H155.166V155.576H156.301V156.738H156.396C156.752 155.986 157.436 155.48 158.57 155.48C160.074 155.48 161.072 156.396 161.072 158.283V163H159.896V158.365C159.896 157.217 159.268 156.533 158.215 156.533C157.135 156.533 156.342 157.258 156.342 158.543ZM165.967 165.939C164.176 165.939 162.959 165.16 162.822 163.779H164.053C164.217 164.531 164.914 164.914 165.967 164.914C167.238 164.914 168.018 164.367 168.018 163.137V161.633H167.922C167.676 162.043 167.197 162.891 165.762 162.891C163.957 162.891 162.604 161.523 162.604 159.186C162.604 156.902 163.916 155.48 165.775 155.48C167.211 155.48 167.676 156.355 167.949 156.752H168.045V155.576H169.193V163.205C169.193 165.119 167.771 165.939 165.967 165.939ZM165.926 161.838C167.279 161.838 168.045 160.867 168.045 159.227C168.045 157.641 167.307 156.533 165.926 156.533C164.504 156.533 163.793 157.736 163.793 159.227C163.793 160.771 164.518 161.838 165.926 161.838ZM174.58 163V155.576H175.715V156.738H175.811C176.125 155.945 176.836 155.48 177.807 155.48C178.777 155.48 179.434 155.945 179.789 156.738H179.871C180.254 155.973 181.033 155.48 182.1 155.48C183.426 155.48 184.369 156.287 184.369 158.037V163H183.193V158.051C183.193 156.957 182.496 156.533 181.689 156.533C180.65 156.533 180.062 157.23 180.062 158.174V163H178.873V157.928C178.873 157.094 178.271 156.533 177.424 156.533C176.535 156.533 175.756 157.285 175.756 158.365V163H174.58ZM188.703 154.564L187.199 152.322H188.566L189.729 154.564H188.703ZM185.9 160.895C185.9 159.186 187.404 158.803 188.689 158.707C189.161 158.673 190.364 158.611 190.699 158.598V157.996C190.699 157.053 190.139 156.506 189.018 156.506C188.074 156.506 187.514 156.943 187.35 157.504H186.119C186.27 156.314 187.432 155.48 189.072 155.48C190.043 155.48 191.861 155.768 191.861 158.105V163H190.699V161.988H190.645C190.398 162.494 189.715 163.178 188.43 163.178C187.021 163.178 185.9 162.344 185.9 160.895ZM187.076 160.949C187.076 161.729 187.732 162.125 188.635 162.125C189.961 162.125 190.699 161.236 190.699 160.307V159.555L188.826 159.691C187.76 159.76 187.076 160.143 187.076 160.949ZM198.438 159.951V155.576H199.6V163H198.438V161.742H198.355C198 162.494 197.275 163.096 196.154 163.096C194.746 163.096 193.748 162.18 193.748 160.293V155.576H194.924V160.211C194.924 161.277 195.594 161.961 196.537 161.961C197.371 161.961 198.438 161.332 198.438 159.951ZM208.035 163.15C205.93 163.15 204.645 161.551 204.645 159.322C204.645 157.066 205.984 155.48 208.008 155.48C209.594 155.48 210.77 156.41 210.961 157.818H209.785C209.621 157.135 209.02 156.52 208.035 156.52C206.709 156.52 205.82 157.613 205.82 159.281C205.82 161.004 206.682 162.098 208.035 162.098C208.91 162.098 209.58 161.633 209.785 160.812H210.961C210.77 162.139 209.689 163.15 208.035 163.15ZM215.445 163.15C213.422 163.15 212.055 161.633 212.055 159.322C212.055 157.012 213.422 155.48 215.445 155.48C217.455 155.48 218.809 157.012 218.809 159.322C218.809 161.633 217.455 163.15 215.445 163.15ZM215.445 162.111C216.936 162.111 217.633 160.799 217.633 159.322C217.633 157.846 216.936 156.52 215.445 156.52C213.928 156.52 213.23 157.846 213.23 159.322C213.23 160.799 213.928 162.111 215.445 162.111ZM214.926 154.564L216.102 152.322H217.455L215.938 154.564H214.926ZM226.67 163.15C224.824 163.15 223.512 161.66 223.512 159.309C223.512 156.957 224.824 155.48 226.684 155.48C228.119 155.48 228.584 156.355 228.83 156.752H228.912V154.934H226.889V154.031H228.912V153.102H230.102V154.031H231.168V154.934H230.102V163H228.953V161.865H228.83C228.57 162.275 228.092 163.15 226.67 163.15ZM226.834 162.098C228.188 162.098 228.953 160.949 228.953 159.281C228.953 157.641 228.215 156.533 226.834 156.533C225.412 156.533 224.701 157.736 224.701 159.281C224.701 160.867 225.426 162.098 226.834 162.098ZM235.174 163.15C233.15 163.15 231.783 161.633 231.783 159.322C231.783 157.012 233.15 155.48 235.174 155.48C237.184 155.48 238.537 157.012 238.537 159.322C238.537 161.633 237.184 163.15 235.174 163.15ZM235.174 162.111C236.664 162.111 237.361 160.799 237.361 159.322C237.361 157.846 236.664 156.52 235.174 156.52C233.656 156.52 232.959 157.846 232.959 159.322C232.959 160.799 233.656 162.111 235.174 162.111ZM236.172 154.688L235.16 153.348L234.162 154.688H233.041V154.605L234.627 152.596H235.693L237.279 154.605V154.688H236.172ZM235.229 165.461C234.777 165.461 234.408 165.119 234.408 164.682C234.408 164.244 234.777 163.902 235.229 163.902C235.68 163.902 236.062 164.244 236.062 164.682C236.062 165.119 235.68 165.461 235.229 165.461ZM243.746 163V153.102H244.922V156.752H245.018C245.277 156.355 245.715 155.48 247.164 155.48C249.023 155.48 250.336 156.957 250.336 159.309C250.336 161.66 249.023 163.15 247.178 163.15C245.756 163.15 245.277 162.275 245.018 161.865H244.881V163H243.746ZM244.895 159.281C244.895 160.949 245.646 162.098 247 162.098C248.408 162.098 249.146 160.867 249.146 159.281C249.146 157.736 248.436 156.533 247 156.533C245.633 156.533 244.895 157.641 244.895 159.281ZM252.414 154.646C252.414 153.648 253.07 152.951 253.891 152.951C254.643 152.951 254.971 153.566 255.654 153.566C256.023 153.566 256.311 153.252 256.311 152.842L257.199 152.91C257.199 153.936 256.543 154.564 255.709 154.564C254.82 154.564 254.684 153.949 253.959 153.949C253.59 153.949 253.33 154.277 253.33 154.688L252.414 154.646ZM251.512 160.895C251.512 159.186 253.016 158.803 254.301 158.707C254.772 158.673 255.976 158.611 256.311 158.598V157.996C256.311 157.053 255.75 156.506 254.629 156.506C253.686 156.506 253.125 156.943 252.961 157.504H251.73C251.881 156.314 253.043 155.48 254.684 155.48C255.654 155.48 257.473 155.768 257.473 158.105V163H256.311V161.988H256.256C256.01 162.494 255.326 163.178 254.041 163.178C252.633 163.178 251.512 162.344 251.512 160.895ZM252.688 160.949C252.688 161.729 253.344 162.125 254.246 162.125C255.572 162.125 256.311 161.236 256.311 160.307V159.555L254.438 159.691C253.371 159.76 252.688 160.143 252.688 160.949ZM262.395 163.15C260.371 163.15 259.004 161.633 259.004 159.322C259.004 157.012 260.371 155.48 262.395 155.48C264.404 155.48 265.758 157.012 265.758 159.322C265.758 161.633 264.404 163.15 262.395 163.15ZM262.395 162.111C263.885 162.111 264.582 160.799 264.582 159.322C264.582 157.846 263.885 156.52 262.395 156.52C260.877 156.52 260.18 157.846 260.18 159.322C260.18 160.799 260.877 162.111 262.395 162.111ZM271.992 158.543V163H270.816V153.102H271.992V156.738H272.088C272.43 155.973 273.1 155.48 274.275 155.48C275.793 155.48 276.805 156.383 276.805 158.283V163H275.629V158.365C275.629 157.203 274.986 156.533 273.92 156.533C272.812 156.533 271.992 157.258 271.992 158.543ZM281.727 163.15C279.703 163.15 278.336 161.633 278.336 159.322C278.336 157.012 279.703 155.48 281.727 155.48C283.736 155.48 285.09 157.012 285.09 159.322C285.09 161.633 283.736 163.15 281.727 163.15ZM281.727 162.111C283.217 162.111 283.914 160.799 283.914 159.322C283.914 157.846 283.217 156.52 281.727 156.52C280.209 156.52 279.512 157.846 279.512 159.322C279.512 160.799 280.209 162.111 281.727 162.111ZM289.082 154.564L287.578 152.322H288.945L290.107 154.564H289.082ZM286.279 160.895C286.279 159.186 287.783 158.803 289.068 158.707C289.54 158.673 290.743 158.611 291.078 158.598V157.996C291.078 157.053 290.518 156.506 289.396 156.506C288.453 156.506 287.893 156.943 287.729 157.504H286.498C286.648 156.314 287.811 155.48 289.451 155.48C290.422 155.48 292.24 155.768 292.24 158.105V163H291.078V161.988H291.023C290.777 162.494 290.094 163.178 288.809 163.178C287.4 163.178 286.279 162.344 286.279 160.895ZM287.455 160.949C287.455 161.729 288.111 162.125 289.014 162.125C290.34 162.125 291.078 161.236 291.078 160.307V159.555L289.205 159.691C288.139 159.76 287.455 160.143 287.455 160.949ZM300.676 163.15C298.57 163.15 297.285 161.551 297.285 159.322C297.285 157.066 298.625 155.48 300.648 155.48C302.234 155.48 303.41 156.41 303.602 157.818H302.426C302.262 157.135 301.66 156.52 300.676 156.52C299.35 156.52 298.461 157.613 298.461 159.281C298.461 161.004 299.322 162.098 300.676 162.098C301.551 162.098 302.221 161.633 302.426 160.812H303.602C303.41 162.139 302.33 163.15 300.676 163.15ZM304.695 160.895C304.695 159.186 306.199 158.803 307.484 158.707C307.956 158.673 309.159 158.611 309.494 158.598V157.996C309.494 157.053 308.934 156.506 307.812 156.506C306.869 156.506 306.309 156.943 306.145 157.504H304.914C305.064 156.314 306.227 155.48 307.867 155.48C308.838 155.48 310.656 155.768 310.656 158.105V163H309.494V161.988H309.439C309.193 162.494 308.51 163.178 307.225 163.178C305.816 163.178 304.695 162.344 304.695 160.895ZM305.871 160.949C305.871 161.729 306.527 162.125 307.43 162.125C308.756 162.125 309.494 161.236 309.494 160.307V159.555L307.621 159.691C306.555 159.76 305.871 160.143 305.871 160.949ZM315.578 163.15C313.555 163.15 312.188 161.633 312.188 159.322C312.188 157.012 313.555 155.48 315.578 155.48C317.588 155.48 318.941 157.012 318.941 159.322C318.941 161.633 317.588 163.15 315.578 163.15ZM315.578 162.111C317.068 162.111 317.766 160.799 317.766 159.322C317.766 157.846 317.068 156.52 315.578 156.52C314.061 156.52 313.363 157.846 313.363 159.322C313.363 160.799 314.061 162.111 315.578 162.111ZM322.031 162.084L320.965 165.803H319.953L320.705 162.084H322.031ZM128.943 183V175.576H130.078V176.738H130.174C130.488 175.945 131.199 175.48 132.17 175.48C133.141 175.48 133.797 175.945 134.152 176.738H134.234C134.617 175.973 135.396 175.48 136.463 175.48C137.789 175.48 138.732 176.287 138.732 178.037V183H137.557V178.051C137.557 176.957 136.859 176.533 136.053 176.533C135.014 176.533 134.426 177.23 134.426 178.174V183H133.236V177.928C133.236 177.094 132.635 176.533 131.787 176.533C130.898 176.533 130.119 177.285 130.119 178.365V183H128.943ZM143.066 174.564L141.562 172.322H142.93L144.092 174.564H143.066ZM140.264 180.895C140.264 179.186 141.768 178.803 143.053 178.707C143.524 178.673 144.728 178.611 145.062 178.598V177.996C145.062 177.053 144.502 176.506 143.381 176.506C142.438 176.506 141.877 176.943 141.713 177.504H140.482C140.633 176.314 141.795 175.48 143.436 175.48C144.406 175.48 146.225 175.768 146.225 178.105V183H145.062V181.988H145.008C144.762 182.494 144.078 183.178 142.793 183.178C141.385 183.178 140.264 182.344 140.264 180.895ZM141.439 180.949C141.439 181.729 142.096 182.125 142.998 182.125C144.324 182.125 145.062 181.236 145.062 180.307V179.555L143.189 179.691C142.123 179.76 141.439 180.143 141.439 180.949ZM152.801 179.951V175.576H153.963V183H152.801V181.742H152.719C152.363 182.494 151.639 183.096 150.518 183.096C149.109 183.096 148.111 182.18 148.111 180.293V175.576H149.287V180.211C149.287 181.277 149.957 181.961 150.9 181.961C151.734 181.961 152.801 181.332 152.801 179.951ZM162.371 185.939C160.58 185.939 159.363 185.16 159.227 183.779H160.457C160.621 184.531 161.318 184.914 162.371 184.914C163.643 184.914 164.422 184.367 164.422 183.137V181.633H164.326C164.08 182.043 163.602 182.891 162.166 182.891C160.361 182.891 159.008 181.523 159.008 179.186C159.008 176.902 160.32 175.48 162.18 175.48C163.615 175.48 164.08 176.355 164.354 176.752H164.449V175.576H165.598V183.205C165.598 185.119 164.176 185.939 162.371 185.939ZM162.33 181.838C163.684 181.838 164.449 180.867 164.449 179.227C164.449 177.641 163.711 176.533 162.33 176.533C160.908 176.533 160.197 177.736 160.197 179.227C160.197 180.771 160.922 181.838 162.33 181.838ZM170.506 183.15C168.482 183.15 167.115 181.633 167.115 179.322C167.115 177.012 168.482 175.48 170.506 175.48C172.516 175.48 173.869 177.012 173.869 179.322C173.869 181.633 172.516 183.15 170.506 183.15ZM170.506 182.111C171.996 182.111 172.693 180.799 172.693 179.322C172.693 177.846 171.996 176.52 170.506 176.52C168.988 176.52 168.291 177.846 168.291 179.322C168.291 180.799 168.988 182.111 170.506 182.111ZM168.018 174.646L169.986 172.896H171.053L173.021 174.646H171.627L170.52 173.635L169.426 174.646H168.018ZM172.502 173.484L173.459 171.748H174.881L173.514 173.484H172.502ZM178.449 183.15C176.344 183.15 175.059 181.551 175.059 179.322C175.059 177.066 176.398 175.48 178.422 175.48C180.008 175.48 181.184 176.41 181.375 177.818H180.199C180.035 177.135 179.434 176.52 178.449 176.52C177.123 176.52 176.234 177.613 176.234 179.281C176.234 181.004 177.096 182.098 178.449 182.098C179.324 182.098 179.994 181.633 180.199 180.812H181.375C181.184 182.139 180.104 183.15 178.449 183.15ZM186.338 183V175.576H187.473V176.711H187.555C187.828 175.959 188.594 175.453 189.469 175.453C189.646 175.453 189.947 175.467 190.084 175.48V176.67C190.002 176.643 189.674 176.588 189.373 176.588C188.307 176.588 187.514 177.326 187.514 178.324V183H186.338ZM191.67 174.646L193.639 172.896H194.705L196.674 174.646H195.279L194.172 173.635L193.078 174.646H191.67ZM196.154 173.484L197.111 171.748H198.533L197.166 173.484H196.154ZM190.863 180.895C190.863 179.186 192.367 178.803 193.652 178.707C194.124 178.673 195.327 178.611 195.662 178.598V177.996C195.662 177.053 195.102 176.506 193.98 176.506C193.037 176.506 192.477 176.943 192.312 177.504H191.082C191.232 176.314 192.395 175.48 194.035 175.48C195.006 175.48 196.824 175.768 196.824 178.105V183H195.662V181.988H195.607C195.361 182.494 194.678 183.178 193.393 183.178C191.984 183.178 190.863 182.344 190.863 180.895ZM192.039 180.949C192.039 181.729 192.695 182.125 193.598 182.125C194.924 182.125 195.662 181.236 195.662 180.307V179.555L193.789 179.691C192.723 179.76 192.039 180.143 192.039 180.949ZM201.951 175.576V176.561H200.393V180.867C200.393 181.824 200.857 181.975 201.363 181.975C201.582 181.975 201.883 181.961 202.061 181.947V183.041C201.883 183.068 201.582 183.096 201.24 183.096C200.256 183.096 199.203 182.48 199.203 181.168V176.561H198.082V175.576H199.203V173.799H200.393V175.576H201.951ZM208.158 178.543V183H206.982V173.102H208.158V176.738H208.254C208.596 175.973 209.266 175.48 210.441 175.48C211.959 175.48 212.971 176.383 212.971 178.283V183H211.795V178.365C211.795 177.203 211.152 176.533 210.086 176.533C208.979 176.533 208.158 177.258 208.158 178.543ZM221.967 175.029C221.967 176.123 221.646 176.923 220.805 177.244C221.099 177.832 221.256 178.529 221.256 179.322C221.256 181.633 219.902 183.15 217.893 183.15C215.869 183.15 214.502 181.633 214.502 179.322C214.502 177.012 215.869 175.48 217.893 175.48C218.891 175.48 219.731 175.856 220.326 176.52C220.818 176.321 220.9 175.768 220.9 175.029H221.967ZM217.893 182.111C219.383 182.111 220.08 180.799 220.08 179.322C220.08 177.846 219.383 176.52 217.893 176.52C216.375 176.52 215.678 177.846 215.678 179.322C215.678 180.799 216.375 182.111 217.893 182.111ZM217.947 185.461C217.496 185.461 217.127 185.119 217.127 184.682C217.127 184.244 217.496 183.902 217.947 183.902C218.398 183.902 218.781 184.244 218.781 184.682C218.781 185.119 218.398 185.461 217.947 185.461ZM222.801 185.789V175.576H223.936V176.752H224.072C224.318 176.355 224.783 175.48 226.219 175.48C228.078 175.48 229.377 176.957 229.377 179.309C229.377 181.66 228.078 183.15 226.232 183.15C224.811 183.15 224.318 182.275 224.072 181.865H223.977V185.789H222.801ZM223.949 179.281C223.949 180.949 224.701 182.098 226.068 182.098C227.477 182.098 228.201 180.867 228.201 179.281C228.201 177.736 227.49 176.533 226.068 176.533C224.674 176.533 223.949 177.641 223.949 179.281ZM240.533 175.576L237.785 183H236.568L233.834 175.576H235.119L237.143 181.469H237.225L239.248 175.576H240.533ZM248.668 175.029C248.668 176.123 248.347 176.923 247.506 177.244C247.8 177.832 247.957 178.529 247.957 179.322C247.957 181.633 246.604 183.15 244.594 183.15C242.57 183.15 241.203 181.633 241.203 179.322C241.203 177.012 242.57 175.48 244.594 175.48C245.592 175.48 246.433 175.856 247.027 176.52C247.52 176.321 247.602 175.768 247.602 175.029H248.668ZM244.594 182.111C246.084 182.111 246.781 180.799 246.781 179.322C246.781 177.846 246.084 176.52 244.594 176.52C243.076 176.52 242.379 177.846 242.379 179.322C242.379 180.799 243.076 182.111 244.594 182.111ZM244.074 174.564L245.25 172.322H246.604L245.086 174.564H244.074ZM249.502 183V175.576H250.678V183H249.502ZM250.09 174.346C249.639 174.346 249.27 174.004 249.27 173.566C249.27 173.129 249.639 172.787 250.09 172.787C250.541 172.787 250.924 173.129 250.924 173.566C250.924 174.004 250.541 174.346 250.09 174.346ZM256.215 183V173.102H257.391V176.752H257.486C257.746 176.355 258.184 175.48 259.633 175.48C261.492 175.48 262.805 176.957 262.805 179.309C262.805 181.66 261.492 183.15 259.646 183.15C258.225 183.15 257.746 182.275 257.486 181.865H257.35V183H256.215ZM257.363 179.281C257.363 180.949 258.115 182.098 259.469 182.098C260.877 182.098 261.615 180.867 261.615 179.281C261.615 177.736 260.904 176.533 259.469 176.533C258.102 176.533 257.363 177.641 257.363 179.281ZM267.262 185.461C266.811 185.461 266.441 185.119 266.441 184.682C266.441 184.244 266.811 183.902 267.262 183.902C267.713 183.902 268.096 184.244 268.096 184.682C268.096 185.119 267.713 185.461 267.262 185.461ZM263.98 180.895C263.98 179.186 265.484 178.803 266.77 178.707C267.241 178.673 268.444 178.611 268.779 178.598V177.996C268.779 177.053 268.219 176.506 267.098 176.506C266.154 176.506 265.594 176.943 265.43 177.504H264.199C264.35 176.314 265.512 175.48 267.152 175.48C268.123 175.48 269.941 175.768 269.941 178.105V183H268.779V181.988H268.725C268.479 182.494 267.795 183.178 266.51 183.178C265.102 183.178 263.98 182.344 263.98 180.895ZM265.156 180.949C265.156 181.729 265.812 182.125 266.715 182.125C268.041 182.125 268.779 181.236 268.779 180.307V179.555L266.906 179.691C265.84 179.76 265.156 180.143 265.156 180.949ZM273.004 178.543V183H271.828V175.576H272.963V176.738H273.059C273.414 175.986 274.098 175.48 275.232 175.48C276.736 175.48 277.734 176.396 277.734 178.283V183H276.559V178.365C276.559 177.217 275.93 176.533 274.877 176.533C273.797 176.533 273.004 177.258 273.004 178.543ZM284.311 178.543V183H283.135V175.576H284.27V176.738H284.365C284.721 175.986 285.404 175.48 286.539 175.48C288.043 175.48 289.041 176.396 289.041 178.283V183H287.865V178.365C287.865 177.217 287.236 176.533 286.184 176.533C285.104 176.533 284.311 177.258 284.311 178.543ZM294.045 183.15C291.898 183.15 290.572 181.633 290.572 179.35C290.572 177.066 291.912 175.48 293.936 175.48C295.494 175.48 297.135 176.438 297.135 179.186V179.678H291.748C291.803 181.25 292.719 182.111 294.045 182.111C294.934 182.111 295.494 181.729 295.768 181.264H297.025C296.67 182.385 295.576 183.15 294.045 183.15ZM293.375 174.564L291.871 172.322H293.238L294.4 174.564H293.375ZM291.762 178.68H295.945C295.945 177.436 295.152 176.52 293.936 176.52C292.65 176.52 291.83 177.531 291.762 178.68ZM299.5 183.082C299.021 183.082 298.611 182.686 298.625 182.193C298.611 181.715 299.021 181.318 299.5 181.318C299.979 181.318 300.375 181.715 300.375 182.193C300.375 182.686 299.979 183.082 299.5 183.082Z" fill="white"/>
<path d="M0 232C0 223.163 7.16344 216 16 216H226C234.837 216 242 223.163 242 232V300C242 308.837 234.837 316 226 316H16C7.16344 316 0 308.837 0 300V232Z" fill="#D900A2"/>
<path d="M24.5938 251L25.0312 248.348H22.7207L22.2832 251H21.1074L21.5449 248.348H20.123L20.3008 247.186H21.7363L22.1055 244.916H20.6973L20.875 243.74H22.3105L22.7344 241.102H23.9102L23.4863 243.74H25.7969L26.2207 241.102H27.3828L26.959 243.74H28.3945L28.2031 244.916H26.7676L26.3984 247.186H27.8203L27.6152 248.348H26.207L25.7695 251H24.5938ZM22.9121 247.186H25.2227L25.5918 244.916H23.2812L22.9121 247.186ZM34.9023 243.713C34.8066 242.797 34 242.264 32.8652 242.264C31.6484 242.264 30.8828 242.879 30.8828 243.727C30.8828 244.67 31.9082 245.025 32.6875 245.217L33.6445 245.477C34.916 245.777 36.4883 246.475 36.502 248.266C36.4883 249.934 35.1621 251.164 32.8242 251.164C30.6094 251.164 29.2148 250.057 29.1191 248.252H30.623C30.7188 249.332 31.6621 249.852 32.8242 249.852C34.082 249.852 34.998 249.209 35.0117 248.238C34.998 247.377 34.1914 247.021 33.1387 246.748L31.9629 246.434C30.377 245.996 29.3789 245.189 29.3789 243.809C29.3789 242.1 30.9102 240.965 32.9062 240.965C34.916 240.965 36.3242 242.113 36.3652 243.713H34.9023ZM43.1738 241.061C43.1602 242.141 42.3398 242.893 41.0273 242.893C39.7148 242.893 38.8945 242.141 38.8945 241.061H40.084C40.084 241.539 40.3301 241.977 41.0273 241.977C41.6973 241.977 41.9707 241.539 41.9707 241.061H43.1738ZM41.0273 253.557C40.5215 253.557 40.0977 253.174 40.0977 252.695C40.0977 252.217 40.5215 251.834 41.0273 251.834C41.5195 251.834 41.9434 252.217 41.9434 252.695C41.9434 253.174 41.5195 253.557 41.0273 253.557ZM37.6504 248.908C37.6504 247.213 39.0859 246.775 40.4258 246.68C40.918 246.646 42.0322 246.584 42.3809 246.57L42.3672 245.982C42.3672 245.148 41.8613 244.656 40.8633 244.656C40.002 244.656 39.4824 245.053 39.332 245.6H37.8828C38.0195 244.369 39.168 243.48 40.918 243.48C42.0938 243.48 43.8301 243.918 43.8301 246.064V251H42.4082V249.988H42.3535C42.0664 250.549 41.3828 251.164 40.1523 251.164C38.7441 251.164 37.6504 250.357 37.6504 248.908ZM39.0723 248.922C39.0723 249.633 39.6602 250.002 40.4805 250.002C41.6699 250.002 42.3809 249.209 42.3809 248.32V247.637L40.6309 247.76C39.6738 247.828 39.0723 248.184 39.0723 248.922ZM48.7383 251.15C46.5781 251.15 45.2656 249.551 45.2656 247.322C45.2656 245.053 46.6191 243.48 48.7109 243.48C50.4062 243.48 51.6367 244.479 51.7871 245.982H50.3652C50.2148 245.285 49.6543 244.697 48.7383 244.697C47.5352 244.697 46.7285 245.695 46.7285 247.281C46.7285 248.908 47.5215 249.906 48.7383 249.906C49.5586 249.906 50.1875 249.455 50.3652 248.648H51.7871C51.623 250.084 50.4883 251.15 48.7383 251.15ZM60.7559 245.6C60.6191 245.012 60.1543 244.629 59.3477 244.629C58.5137 244.629 57.9121 245.066 57.9258 245.627C57.9121 246.064 58.2676 246.379 59.0879 246.57L60.2637 246.844C61.6309 247.145 62.2871 247.801 62.3008 248.854C62.2871 250.193 61.166 251.15 59.2656 251.15C57.4883 251.15 56.4219 250.357 56.2441 248.977H57.7344C57.8574 249.646 58.377 249.975 59.252 249.975C60.1953 249.975 60.7969 249.592 60.8105 248.963C60.7969 248.484 60.4414 248.17 59.6621 247.992L58.5 247.746C57.1602 247.445 56.4629 246.734 56.4629 245.709C56.4629 244.383 57.6113 243.48 59.334 243.48C60.9883 243.48 62.0137 244.328 62.1641 245.6H60.7559ZM71.0508 243.057C71.0508 244.171 70.7158 244.964 69.9023 245.312C70.1758 245.88 70.3262 246.563 70.3262 247.322C70.3262 249.619 68.959 251.15 66.8672 251.15C64.7617 251.15 63.3945 249.619 63.3945 247.322C63.3945 245.012 64.7617 243.48 66.8672 243.48C67.9336 243.48 68.8086 243.877 69.4238 244.574C69.8408 244.328 69.9297 243.781 69.9297 243.057H71.0508ZM66.8672 249.934C68.207 249.934 68.8496 248.744 68.8496 247.322C68.8496 245.9 68.207 244.684 66.8672 244.684C65.5 244.684 64.8574 245.9 64.8574 247.322C64.8574 248.744 65.5 249.934 66.8672 249.934ZM64.4199 242.646C64.4199 241.58 65.0898 240.883 65.9375 240.883C66.7305 240.883 67.0586 241.539 67.7012 241.539C68.0703 241.539 68.3301 241.225 68.3301 240.801L69.2871 240.855C69.2871 241.936 68.6309 242.592 67.7832 242.592C66.8672 242.592 66.7031 241.949 66.0059 241.949C65.6504 241.949 65.4043 242.264 65.4043 242.674L64.4199 242.646Z" fill="white"/>
<path d="M83.5938 251L84.0312 248.348H81.7207L81.2832 251H80.1074L80.5449 248.348H79.123L79.3008 247.186H80.7363L81.1055 244.916H79.6973L79.875 243.74H81.3105L81.7344 241.102H82.9102L82.4863 243.74H84.7969L85.2207 241.102H86.3828L85.959 243.74H87.3945L87.2031 244.916H85.7676L85.3984 247.186H86.8203L86.6152 248.348H85.207L84.7695 251H83.5938ZM81.9121 247.186H84.2227L84.5918 244.916H82.2812L81.9121 247.186ZM93.9023 243.713C93.8066 242.797 93 242.264 91.8652 242.264C90.6484 242.264 89.8828 242.879 89.8828 243.727C89.8828 244.67 90.9082 245.025 91.6875 245.217L92.6445 245.477C93.916 245.777 95.4883 246.475 95.502 248.266C95.4883 249.934 94.1621 251.164 91.8242 251.164C89.6094 251.164 88.2148 250.057 88.1191 248.252H89.623C89.7188 249.332 90.6621 249.852 91.8242 249.852C93.082 249.852 93.998 249.209 94.0117 248.238C93.998 247.377 93.1914 247.021 92.1387 246.748L90.9629 246.434C89.377 245.996 88.3789 245.189 88.3789 243.809C88.3789 242.1 89.9102 240.965 91.9062 240.965C93.916 240.965 95.3242 242.113 95.3652 243.713H93.9023ZM100.137 251.15C98.0312 251.15 96.6641 249.619 96.6641 247.322C96.6641 245.012 98.0312 243.48 100.137 243.48C102.229 243.48 103.596 245.012 103.596 247.322C103.596 249.619 102.229 251.15 100.137 251.15ZM100.137 249.934C101.477 249.934 102.119 248.744 102.119 247.322C102.119 245.9 101.477 244.684 100.137 244.684C98.7695 244.684 98.127 245.9 98.127 247.322C98.127 248.744 98.7695 249.934 100.137 249.934ZM97.6348 242.688L99.5898 241.02H100.67L102.639 242.688H101.217L100.137 241.744L99.0566 242.688H97.6348ZM102.119 241.621L103.131 239.857H104.621L103.186 241.621H102.119ZM106.494 246.598V251H105.031V243.576H106.439V244.793H106.521C106.877 244 107.602 243.48 108.709 243.48C110.24 243.48 111.238 244.438 111.238 246.283V251H109.789V246.461C109.789 245.381 109.201 244.738 108.217 244.738C107.219 244.738 106.494 245.408 106.494 246.598ZM116.133 253.939C114.26 253.939 113.029 253.105 112.893 251.725H114.383C114.52 252.422 115.176 252.764 116.146 252.764C117.309 252.764 118.047 252.271 118.047 251.109V249.646H117.951C117.691 250.125 117.158 250.891 115.791 250.891C114.041 250.891 112.688 249.578 112.688 247.213C112.688 244.848 114.014 243.48 115.805 243.48C117.186 243.48 117.691 244.314 117.965 244.779H118.061V243.576H119.482V251.164C119.482 253.064 118.047 253.939 116.133 253.939ZM116.119 249.688C117.363 249.688 118.061 248.771 118.061 247.24C118.061 245.736 117.377 244.725 116.119 244.725C114.82 244.725 114.178 245.818 114.178 247.24C114.178 248.689 114.848 249.688 116.119 249.688ZM127.453 251.15C125.662 251.15 124.35 249.701 124.35 247.309C124.35 244.889 125.676 243.48 127.467 243.48C128.848 243.48 129.354 244.314 129.613 244.779H129.682V242.975H127.686V241.977H129.682V241.102H131.145V241.977H132.129V242.975H131.145V251H129.723V249.838H129.613C129.34 250.33 128.807 251.15 127.453 251.15ZM127.781 249.906C129.025 249.906 129.723 248.84 129.723 247.281C129.723 245.736 129.039 244.725 127.781 244.725C126.482 244.725 125.84 245.818 125.84 247.281C125.84 248.771 126.51 249.906 127.781 249.906ZM136.189 251.15C134.084 251.15 132.717 249.619 132.717 247.322C132.717 245.012 134.084 243.48 136.189 243.48C138.281 243.48 139.648 245.012 139.648 247.322C139.648 249.619 138.281 251.15 136.189 251.15ZM136.189 249.934C137.529 249.934 138.172 248.744 138.172 247.322C138.172 245.9 137.529 244.684 136.189 244.684C134.822 244.684 134.18 245.9 134.18 247.322C134.18 248.744 134.822 249.934 136.189 249.934ZM137.174 242.674L136.189 241.389L135.191 242.674H133.879V242.605L135.574 240.555H136.791L138.5 242.605V242.674H137.174ZM136.258 253.557C135.752 253.557 135.328 253.174 135.328 252.695C135.328 252.217 135.752 251.834 136.258 251.834C136.75 251.834 137.174 252.217 137.174 252.695C137.174 253.174 136.75 253.557 136.258 253.557ZM142.547 246.598V251H141.084V243.576H142.492V244.793H142.574C142.93 244 143.654 243.48 144.762 243.48C146.293 243.48 147.291 244.438 147.291 246.283V251H145.842V246.461C145.842 245.381 145.254 244.738 144.27 244.738C143.271 244.738 142.547 245.408 142.547 246.598ZM152.186 253.939C150.312 253.939 149.082 253.105 148.945 251.725H150.436C150.572 252.422 151.229 252.764 152.199 252.764C153.361 252.764 154.1 252.271 154.1 251.109V249.646H154.004C153.744 250.125 153.211 250.891 151.844 250.891C150.094 250.891 148.74 249.578 148.74 247.213C148.74 244.848 150.066 243.48 151.857 243.48C153.238 243.48 153.744 244.314 154.018 244.779H154.113V243.576H155.535V251.164C155.535 253.064 154.1 253.939 152.186 253.939ZM152.172 249.688C153.416 249.688 154.113 248.771 154.113 247.24C154.113 245.736 153.43 244.725 152.172 244.725C150.873 244.725 150.23 245.818 150.23 247.24C150.23 248.689 150.9 249.688 152.172 249.688Z" fill="white"/>
<path d="M21.0938 261.102H22.5703L25.9062 269.25H26.0293L29.3652 261.102H30.8418V271H29.6797V263.521H29.584L26.5078 271H25.4141L22.3379 263.521H22.2559V271H21.0938V261.102ZM32.5234 268.895C32.5234 267.186 34.0273 266.803 35.3125 266.707C35.7842 266.673 36.9873 266.611 37.3223 266.598V265.996C37.3223 265.053 36.7617 264.506 35.6406 264.506C34.6973 264.506 34.1367 264.943 33.9727 265.504H32.7422C32.8926 264.314 34.0547 263.48 35.6953 263.48C36.666 263.48 38.4844 263.768 38.4844 266.105V271H37.3223V269.988H37.2676C37.0215 270.494 36.3379 271.178 35.0527 271.178C33.6445 271.178 32.5234 270.344 32.5234 268.895ZM33.6992 268.949C33.6992 269.729 34.3555 270.125 35.2578 270.125C36.584 270.125 37.3223 269.236 37.3223 268.307V267.555L35.4492 267.691C34.3828 267.76 33.6992 268.143 33.6992 268.949ZM43.4883 271.15C41.3418 271.15 40.0156 269.633 40.0156 267.35C40.0156 265.066 41.3555 263.48 43.3789 263.48C44.9375 263.48 46.5781 264.438 46.5781 267.186V267.678H41.1914C41.2461 269.25 42.1621 270.111 43.4883 270.111C44.377 270.111 44.9375 269.729 45.2109 269.264H46.4688C46.1133 270.385 45.0195 271.15 43.4883 271.15ZM41.2051 266.68H45.3887C45.3887 265.436 44.5957 264.52 43.3789 264.52C42.0938 264.52 41.2734 265.531 41.2051 266.68ZM48.1094 271V261.102H49.2852V266.857H49.4219L52.6348 263.576H54.084L50.9531 266.748L54.3164 271H52.8262L50.0781 267.5L49.2852 268.225V271H48.1094ZM60.0312 267.951V263.576H61.1934V271H60.0312V269.742H59.9492C59.5938 270.494 58.8691 271.096 57.748 271.096C56.3398 271.096 55.3418 270.18 55.3418 268.293V263.576H56.5176V268.211C56.5176 269.277 57.1875 269.961 58.1309 269.961C58.9648 269.961 60.0312 269.332 60.0312 267.951ZM63.0801 273.789V263.576H64.2148V264.752H64.3516C64.5977 264.355 65.0625 263.48 66.498 263.48C68.3574 263.48 69.6562 264.957 69.6562 267.309C69.6562 269.66 68.3574 271.15 66.5117 271.15C65.0898 271.15 64.5977 270.275 64.3516 269.865H64.2559V273.789H63.0801ZM64.2285 267.281C64.2285 268.949 64.9805 270.098 66.3477 270.098C67.7559 270.098 68.4805 268.867 68.4805 267.281C68.4805 265.736 67.7695 264.533 66.3477 264.533C64.9531 264.533 64.2285 265.641 64.2285 267.281ZM75.877 261.102V271H74.7012V261.102H75.877ZM80.7852 271.15C78.7617 271.15 77.3945 269.633 77.3945 267.322C77.3945 265.012 78.7617 263.48 80.7852 263.48C82.7949 263.48 84.1484 265.012 84.1484 267.322C84.1484 269.633 82.7949 271.15 80.7852 271.15ZM80.7852 270.111C82.2754 270.111 82.9727 268.799 82.9727 267.322C82.9727 265.846 82.2754 264.52 80.7852 264.52C79.2676 264.52 78.5703 265.846 78.5703 267.322C78.5703 268.799 79.2676 270.111 80.7852 270.111ZM88.7285 271.15C86.7051 271.15 85.3379 269.633 85.3379 267.322C85.3379 265.012 86.7051 263.48 88.7285 263.48C90.7383 263.48 92.0918 265.012 92.0918 267.322C92.0918 269.633 90.7383 271.15 88.7285 271.15ZM88.7285 270.111C90.2188 270.111 90.916 268.799 90.916 267.322C90.916 265.846 90.2188 264.52 88.7285 264.52C87.2109 264.52 86.5137 265.846 86.5137 267.322C86.5137 268.799 87.2109 270.111 88.7285 270.111ZM93.6367 271V261.102H94.8125V266.857H94.9492L98.1621 263.576H99.6113L96.4805 266.748L99.8438 271H98.3535L95.6055 267.5L94.8125 268.225V271H93.6367ZM107.418 271.15C105.312 271.15 104.027 269.551 104.027 267.322C104.027 265.066 105.367 263.48 107.391 263.48C108.977 263.48 110.152 264.41 110.344 265.818H109.168C109.004 265.135 108.402 264.52 107.418 264.52C106.092 264.52 105.203 265.613 105.203 267.281C105.203 269.004 106.064 270.098 107.418 270.098C108.293 270.098 108.963 269.633 109.168 268.812H110.344C110.152 270.139 109.072 271.15 107.418 271.15ZM114.828 271.15C112.805 271.15 111.438 269.633 111.438 267.322C111.438 265.012 112.805 263.48 114.828 263.48C116.838 263.48 118.191 265.012 118.191 267.322C118.191 269.633 116.838 271.15 114.828 271.15ZM114.828 270.111C116.318 270.111 117.016 268.799 117.016 267.322C117.016 265.846 116.318 264.52 114.828 264.52C113.311 264.52 112.613 265.846 112.613 267.322C112.613 268.799 113.311 270.111 114.828 270.111ZM114.309 262.564L115.484 260.322H116.838L115.32 262.564H114.309ZM126.053 271.15C124.207 271.15 122.895 269.66 122.895 267.309C122.895 264.957 124.207 263.48 126.066 263.48C127.502 263.48 127.967 264.355 128.213 264.752H128.295V262.934H126.271V262.031H128.295V261.102H129.484V262.031H130.551V262.934H129.484V271H128.336V269.865H128.213C127.953 270.275 127.475 271.15 126.053 271.15ZM126.217 270.098C127.57 270.098 128.336 268.949 128.336 267.281C128.336 265.641 127.598 264.533 126.217 264.533C124.795 264.533 124.084 265.736 124.084 267.281C124.084 268.867 124.809 270.098 126.217 270.098ZM131.986 271V263.576H133.162V271H131.986ZM132.574 262.346C132.123 262.346 131.754 262.004 131.754 261.566C131.754 261.129 132.123 260.787 132.574 260.787C133.025 260.787 133.408 261.129 133.408 261.566C133.408 262.004 133.025 262.346 132.574 262.346ZM138.152 271.15C136.006 271.15 134.68 269.633 134.68 267.35C134.68 265.066 136.02 263.48 138.043 263.48C139.602 263.48 141.242 264.438 141.242 267.186V267.678H135.855C135.91 269.25 136.826 270.111 138.152 270.111C139.041 270.111 139.602 269.729 139.875 269.264H141.133C140.777 270.385 139.684 271.15 138.152 271.15ZM138.617 261.02L140.463 262.77H139.26L137.947 261.566L136.662 262.77H135.459L137.291 261.02H138.617ZM140.668 261.854H139.848L139.834 260.965C140.381 260.924 140.627 260.855 140.627 260.555C140.627 260.254 140.244 260.131 139.725 260.131L139.766 259.502C140.928 259.502 141.543 259.926 141.543 260.582C141.543 261.156 141.119 261.389 140.668 261.443V261.854ZM135.869 266.68H140.053C140.053 265.436 139.26 264.52 138.043 264.52C136.758 264.52 135.938 265.531 135.869 266.68ZM142.773 271V263.576H143.908V264.738H144.004C144.318 263.945 145.029 263.48 146 263.48C146.971 263.48 147.627 263.945 147.982 264.738H148.064C148.447 263.973 149.227 263.48 150.293 263.48C151.619 263.48 152.562 264.287 152.562 266.037V271H151.387V266.051C151.387 264.957 150.689 264.533 149.883 264.533C148.844 264.533 148.256 265.23 148.256 266.174V271H147.066V265.928C147.066 265.094 146.465 264.533 145.617 264.533C144.729 264.533 143.949 265.285 143.949 266.365V271H142.773ZM159.139 266.543V271H157.963V263.576H159.098V264.738H159.193C159.549 263.986 160.232 263.48 161.367 263.48C162.871 263.48 163.869 264.396 163.869 266.283V271H162.693V266.365C162.693 265.217 162.064 264.533 161.012 264.533C159.932 264.533 159.139 265.258 159.139 266.543ZM166.932 266.543V271H165.756V261.102H166.932V264.738H167.027C167.369 263.973 168.039 263.48 169.215 263.48C170.732 263.48 171.744 264.383 171.744 266.283V271H170.568V266.365C170.568 265.203 169.926 264.533 168.859 264.533C167.752 264.533 166.932 265.258 166.932 266.543ZM174.082 262.646L176.051 260.896H177.117L179.086 262.646H177.691L176.584 261.635L175.49 262.646H174.082ZM178.566 261.484L179.523 259.748H180.945L179.578 261.484H178.566ZM173.275 268.895C173.275 267.186 174.779 266.803 176.064 266.707C176.536 266.673 177.739 266.611 178.074 266.598V265.996C178.074 265.053 177.514 264.506 176.393 264.506C175.449 264.506 174.889 264.943 174.725 265.504H173.494C173.645 264.314 174.807 263.48 176.447 263.48C177.418 263.48 179.236 263.768 179.236 266.105V271H178.074V269.988H178.02C177.773 270.494 177.09 271.178 175.805 271.178C174.396 271.178 173.275 270.344 173.275 268.895ZM174.451 268.949C174.451 269.729 175.107 270.125 176.01 270.125C177.336 270.125 178.074 269.236 178.074 268.307V267.555L176.201 267.691C175.135 267.76 174.451 268.143 174.451 268.949ZM182.299 266.543V271H181.123V263.576H182.258V264.738H182.354C182.709 263.986 183.393 263.48 184.527 263.48C186.031 263.48 187.029 264.396 187.029 266.283V271H185.854V266.365C185.854 265.217 185.225 264.533 184.172 264.533C183.092 264.533 182.299 265.258 182.299 266.543ZM23.9785 291.15C21.873 291.15 20.5879 289.551 20.5879 287.322C20.5879 285.066 21.9277 283.48 23.9512 283.48C25.5371 283.48 26.7129 284.41 26.9043 285.818H25.7285C25.5645 285.135 24.9629 284.52 23.9785 284.52C22.6523 284.52 21.7637 285.613 21.7637 287.281C21.7637 289.004 22.625 290.098 23.9785 290.098C24.8535 290.098 25.5234 289.633 25.7285 288.812H26.9043C26.7129 290.139 25.6328 291.15 23.9785 291.15ZM29.5293 286.543V291H28.3535V281.102H29.5293V284.738H29.625C29.9668 283.973 30.6367 283.48 31.8125 283.48C33.3301 283.48 34.3418 284.383 34.3418 286.283V291H33.166V286.365C33.166 285.203 32.5234 284.533 31.457 284.533C30.3496 284.533 29.5293 285.258 29.5293 286.543ZM36.2285 291V283.576H37.4043V291H36.2285ZM36.2969 282.564L37.4727 280.322H38.8262L37.3086 282.564H36.2969ZM40.4531 286.543V291H39.2773V283.576H40.4121V284.738H40.5078C40.8633 283.986 41.5469 283.48 42.6816 283.48C44.1855 283.48 45.1836 284.396 45.1836 286.283V291H44.0078V286.365C44.0078 285.217 43.3789 284.533 42.3262 284.533C41.2461 284.533 40.4531 285.258 40.4531 286.543ZM48.2461 286.543V291H47.0703V281.102H48.2461V284.738H48.3418C48.6836 283.973 49.3535 283.48 50.5293 283.48C52.0469 283.48 53.0586 284.383 53.0586 286.283V291H51.8828V286.365C51.8828 285.203 51.2402 284.533 50.1738 284.533C49.0664 284.533 48.2461 285.258 48.2461 286.543ZM59.6348 281.102V291H58.459V281.102H59.6348ZM63.9551 282.564L62.4512 280.322H63.8184L64.9805 282.564H63.9551ZM61.1523 288.895C61.1523 287.186 62.6562 286.803 63.9414 286.707C64.4131 286.673 65.6162 286.611 65.9512 286.598V285.996C65.9512 285.053 65.3906 284.506 64.2695 284.506C63.3262 284.506 62.7656 284.943 62.6016 285.504H61.3711C61.5215 284.314 62.6836 283.48 64.3242 283.48C65.2949 283.48 67.1133 283.768 67.1133 286.105V291H65.9512V289.988H65.8965C65.6504 290.494 64.9668 291.178 63.6816 291.178C62.2734 291.178 61.1523 290.344 61.1523 288.895ZM62.3281 288.949C62.3281 289.729 62.9844 290.125 63.8867 290.125C65.2129 290.125 65.9512 289.236 65.9512 288.307V287.555L64.0781 287.691C63.0117 287.76 62.3281 288.143 62.3281 288.949ZM75.3164 291.15C73.4707 291.15 72.1582 289.66 72.1582 287.309C72.1582 284.957 73.4707 283.48 75.3301 283.48C76.7656 283.48 77.2305 284.355 77.4766 284.752H77.5586V281.102H78.748V291H77.5996V289.865H77.4766C77.2168 290.275 76.7383 291.15 75.3164 291.15ZM75.4805 290.098C76.834 290.098 77.5996 288.949 77.5996 287.281C77.5996 285.641 76.8613 284.533 75.4805 284.533C74.0586 284.533 73.3477 285.736 73.3477 287.281C73.3477 288.867 74.0723 290.098 75.4805 290.098ZM83.2324 282.564L81.7285 280.322H83.0957L84.2578 282.564H83.2324ZM80.4297 288.895C80.4297 287.186 81.9336 286.803 83.2188 286.707C83.6904 286.673 84.8936 286.611 85.2285 286.598V285.996C85.2285 285.053 84.668 284.506 83.5469 284.506C82.6035 284.506 82.043 284.943 81.8789 285.504H80.6484C80.7988 284.314 81.9609 283.48 83.6016 283.48C84.5723 283.48 86.3906 283.768 86.3906 286.105V291H85.2285V289.988H85.1738C84.9277 290.494 84.2441 291.178 82.959 291.178C81.5508 291.178 80.4297 290.344 80.4297 288.895ZM81.6055 288.949C81.6055 289.729 82.2617 290.125 83.1641 290.125C84.4902 290.125 85.2285 289.236 85.2285 288.307V287.555L83.3555 287.691C82.2891 287.76 81.6055 288.143 81.6055 288.949ZM89.4531 286.543V291H88.2773V283.576H89.4121V284.738H89.5078C89.8633 283.986 90.5469 283.48 91.6816 283.48C93.1855 283.48 94.1836 284.396 94.1836 286.283V291H93.0078V286.365C93.0078 285.217 92.3789 284.533 91.3262 284.533C90.2461 284.533 89.4531 285.258 89.4531 286.543ZM97.2461 286.543V291H96.0703V281.102H97.2461V284.738H97.3418C97.6836 283.973 98.3535 283.48 99.5293 283.48C101.047 283.48 102.059 284.383 102.059 286.283V291H100.883V286.365C100.883 285.203 100.24 284.533 99.1738 284.533C98.0664 284.533 97.2461 285.258 97.2461 286.543ZM110.494 291.15C108.389 291.15 107.104 289.551 107.104 287.322C107.104 285.066 108.443 283.48 110.467 283.48C112.053 283.48 113.229 284.41 113.42 285.818H112.244C112.08 285.135 111.479 284.52 110.494 284.52C109.168 284.52 108.279 285.613 108.279 287.281C108.279 289.004 109.141 290.098 110.494 290.098C111.369 290.098 112.039 289.633 112.244 288.812H113.42C113.229 290.139 112.148 291.15 110.494 291.15ZM116.045 286.543V291H114.869V281.102H116.045V284.738H116.141C116.482 283.973 117.152 283.48 118.328 283.48C119.846 283.48 120.857 284.383 120.857 286.283V291H119.682V286.365C119.682 285.203 119.039 284.533 117.973 284.533C116.865 284.533 116.045 285.258 116.045 286.543ZM125.779 291.15C123.756 291.15 122.389 289.633 122.389 287.322C122.389 285.012 123.756 283.48 125.779 283.48C127.789 283.48 129.143 285.012 129.143 287.322C129.143 289.633 127.789 291.15 125.779 291.15ZM125.779 290.111C127.27 290.111 127.967 288.799 127.967 287.322C127.967 285.846 127.27 284.52 125.779 284.52C124.262 284.52 123.564 285.846 123.564 287.322C123.564 288.799 124.262 290.111 125.779 290.111ZM134.352 291V281.102H135.527V284.752H135.623C135.883 284.355 136.32 283.48 137.77 283.48C139.629 283.48 140.941 284.957 140.941 287.309C140.941 289.66 139.629 291.15 137.783 291.15C136.361 291.15 135.883 290.275 135.623 289.865H135.486V291H134.352ZM135.5 287.281C135.5 288.949 136.252 290.098 137.605 290.098C139.014 290.098 139.752 288.867 139.752 287.281C139.752 285.736 139.041 284.533 137.605 284.533C136.238 284.533 135.5 285.641 135.5 287.281ZM145.398 293.461C144.947 293.461 144.578 293.119 144.578 292.682C144.578 292.244 144.947 291.902 145.398 291.902C145.85 291.902 146.232 292.244 146.232 292.682C146.232 293.119 145.85 293.461 145.398 293.461ZM142.117 288.895C142.117 287.186 143.621 286.803 144.906 286.707C145.378 286.673 146.581 286.611 146.916 286.598V285.996C146.916 285.053 146.355 284.506 145.234 284.506C144.291 284.506 143.73 284.943 143.566 285.504H142.336C142.486 284.314 143.648 283.48 145.289 283.48C146.26 283.48 148.078 283.768 148.078 286.105V291H146.916V289.988H146.861C146.615 290.494 145.932 291.178 144.646 291.178C143.238 291.178 142.117 290.344 142.117 288.895ZM143.293 288.949C143.293 289.729 143.949 290.125 144.852 290.125C146.178 290.125 146.916 289.236 146.916 288.307V287.555L145.043 287.691C143.977 287.76 143.293 288.143 143.293 288.949ZM151.141 286.543V291H149.965V283.576H151.1V284.738H151.195C151.551 283.986 152.234 283.48 153.369 283.48C154.873 283.48 155.871 284.396 155.871 286.283V291H154.695V286.365C154.695 285.217 154.066 284.533 153.014 284.533C151.934 284.533 151.141 285.258 151.141 286.543ZM164.074 291.15C162.229 291.15 160.916 289.66 160.916 287.309C160.916 284.957 162.229 283.48 164.088 283.48C165.523 283.48 165.988 284.355 166.234 284.752H166.316V282.934H164.293V282.031H166.316V281.102H167.506V282.031H168.572V282.934H167.506V291H166.357V289.865H166.234C165.975 290.275 165.496 291.15 164.074 291.15ZM164.238 290.098C165.592 290.098 166.357 288.949 166.357 287.281C166.357 285.641 165.619 284.533 164.238 284.533C162.816 284.533 162.105 285.736 162.105 287.281C162.105 288.867 162.83 290.098 164.238 290.098ZM172.578 291.15C170.555 291.15 169.188 289.633 169.188 287.322C169.188 285.012 170.555 283.48 172.578 283.48C174.588 283.48 175.941 285.012 175.941 287.322C175.941 289.633 174.588 291.15 172.578 291.15ZM172.578 290.111C174.068 290.111 174.766 288.799 174.766 287.322C174.766 285.846 174.068 284.52 172.578 284.52C171.061 284.52 170.363 285.846 170.363 287.322C170.363 288.799 171.061 290.111 172.578 290.111ZM172.059 282.564L173.234 280.322H174.588L173.07 282.564H172.059ZM178.32 291.082C177.842 291.082 177.432 290.686 177.445 290.193C177.432 289.715 177.842 289.318 178.32 289.318C178.799 289.318 179.195 289.715 179.195 290.193C179.195 290.686 178.799 291.082 178.32 291.082Z" fill="white"/>
<circle cx="300" cy="228" r="12" fill="#D9D920"/>
<circle cx="300" cy="304" r="12" fill="#2020D8"/>
<circle cx="281" cy="233.092" r="12" transform="rotate(-30 281 233.092)" fill="#C92059"/>
<circle cx="319" cy="298.91" r="12" transform="rotate(-30 319 298.91)" fill="#203BC8"/>
<circle cx="267.091" cy="247" r="12" transform="rotate(-60 267.091 247)" fill="#C21F70"/>
<circle cx="332.909" cy="285" r="12" transform="rotate(-60 332.909 285)" fill="#2054BD"/>
<circle cx="262" cy="266.001" r="12" transform="rotate(-90 262 266.001)" fill="#BA2093"/>
<circle cx="338" cy="266.001" r="12" transform="rotate(-90 338 266.001)" fill="#1E8A66"/>
<circle cx="267.091" cy="285" r="12" transform="rotate(-120 267.091 285)" fill="#AD1EAD"/>
<circle cx="332.909" cy="247.001" r="12" transform="rotate(-120 332.909 247.001)" fill="#1D8C42"/>
<circle cx="281" cy="298.909" r="12" transform="rotate(-150 281 298.909)" fill="#8820BD"/>
<circle cx="318.999" cy="233.091" r="12" transform="rotate(-150 318.999 233.091)" fill="#6DC73A"/>
</svg>
