<svg width="40" height="40" viewBox="0 0 40 40" fill="none" xmlns="http://www.w3.org/2000/svg">
<path d="M21.0837 28.1619C22.8795 28.1619 24.635 27.6294 26.1282 26.6317C27.6214 25.634 28.7852 24.2159 29.4725 22.5567C30.1597 20.8976 30.3395 19.0719 29.9892 17.3105C29.6388 15.5492 28.774 13.9313 27.5042 12.6614C26.2343 11.3916 24.6164 10.5268 22.8551 10.1764C21.0937 9.82607 19.268 10.0059 17.6089 10.6931C15.9497 11.3804 14.5316 12.5442 13.5339 14.0374C12.5362 15.5306 12.0037 17.2861 12.0037 19.082C12.0037 20.5832 12.3669 21.9986 13.0126 23.2456L12.0037 28.1619L16.92 27.1531C18.167 27.7987 19.5834 28.1619 21.0837 28.1619Z" fill="#D3D4DA"/>
<rect x="29" y="6" width="7" height="7" rx="3.5" fill="#FF4E4E"/>
</svg>
