<svg width="20" height="20" viewBox="0 0 20 20" fill="none" xmlns="http://www.w3.org/2000/svg">
<path d="M17.7083 10.0002H7.41249M3.77832 10.0002H2.29166M3.77832 10.0002C3.77832 9.51842 3.96972 9.05635 4.31041 8.71566C4.6511 8.37497 5.11318 8.18357 5.59499 8.18357C6.0768 8.18357 6.53888 8.37497 6.87957 8.71566C7.22026 9.05635 7.41166 9.51842 7.41166 10.0002C7.41166 10.482 7.22026 10.9441 6.87957 11.2848C6.53888 11.6255 6.0768 11.8169 5.59499 11.8169C5.11318 11.8169 4.6511 11.6255 4.31041 11.2848C3.96972 10.9441 3.77832 10.482 3.77832 10.0002ZM17.7083 15.5061H12.9183M12.9183 15.5061C12.9183 15.988 12.7265 16.4506 12.3857 16.7914C12.0449 17.1321 11.5827 17.3236 11.1008 17.3236C10.619 17.3236 10.1569 17.1313 9.81625 16.7906C9.47556 16.45 9.28416 15.9879 9.28416 15.5061M12.9183 15.5061C12.9183 15.0241 12.7265 14.5624 12.3857 14.2216C12.0449 13.8808 11.5827 13.6894 11.1008 13.6894C10.619 13.6894 10.1569 13.8808 9.81625 14.2215C9.47556 14.5622 9.28416 15.0243 9.28416 15.5061M9.28416 15.5061H2.29166M17.7083 4.4944H15.1208M11.4867 4.4944H2.29166M11.4867 4.4944C11.4867 4.01259 11.6781 3.55051 12.0187 3.20982C12.3594 2.86913 12.8215 2.67773 13.3033 2.67773C13.5419 2.67773 13.7781 2.72472 13.9985 2.81602C14.2189 2.90732 14.4192 3.04113 14.5879 3.20982C14.7566 3.37852 14.8904 3.57878 14.9817 3.79919C15.073 4.0196 15.12 4.25583 15.12 4.4944C15.12 4.73297 15.073 4.9692 14.9817 5.18961C14.8904 5.41002 14.7566 5.61028 14.5879 5.77898C14.4192 5.94767 14.2189 6.08149 13.9985 6.17278C13.7781 6.26408 13.5419 6.31107 13.3033 6.31107C12.8215 6.31107 12.3594 6.11967 12.0187 5.77898C11.6781 5.43829 11.4867 4.97621 11.4867 4.4944Z" stroke="#535358" stroke-width="1.5" stroke-miterlimit="10" stroke-linecap="round"/>
</svg>
