<svg width="40" height="40" viewBox="0 0 40 40" fill="none" xmlns="http://www.w3.org/2000/svg">
<path d="M30.1838 19.8363L20.5299 10.1894C20.4604 10.1198 20.3778 10.0645 20.2869 10.0268C20.196 9.98913 20.0986 9.96973 20.0002 9.96973C19.9018 9.96973 19.8044 9.98913 19.7135 10.0268C19.6226 10.0645 19.54 10.1198 19.4705 10.1894L9.8166 19.8363C9.53535 20.1176 9.37598 20.4996 9.37598 20.898C9.37598 21.7254 10.0486 22.398 10.876 22.398H11.8932V29.2816C11.8932 29.6965 12.2283 30.0316 12.6432 30.0316H18.5002V24.7816H21.1252V30.0316H27.3572C27.7721 30.0316 28.1072 29.6965 28.1072 29.2816V22.398H29.1244C29.5229 22.398 29.9049 22.241 30.1861 21.9574C30.7697 21.3715 30.7697 20.4222 30.1838 19.8363Z" fill="#111111"/>
</svg>
