<svg width="350" height="316" viewBox="0 0 350 316" fill="none" xmlns="http://www.w3.org/2000/svg">
<path d="M0 16C0 7.16345 7.16344 0 16 0H226C234.837 0 242 7.16344 242 16V84C242 92.8366 234.837 100 226 100H16C7.16344 100 0 92.8366 0 84V16Z" fill="#EEF7BF"/>
<path d="M45.4219 44.5938C45.2344 42.6562 43.5781 41.5312 41.1406 41.5312C38.5781 41.5312 37.0156 42.7812 37.0156 44.4688C37.0156 46.375 39.0156 47.1562 40.8906 47.5938L43.0156 48.1562C46.3906 48.9375 49.6406 50.7188 49.6406 54.6562C49.6406 58.625 46.5156 61.3438 41.0781 61.3438C35.7969 61.3438 32.4844 58.8125 32.2969 54.3438H36.2969C36.4844 56.7188 38.4844 57.875 41.0469 57.875C43.7344 57.875 45.5781 56.5625 45.5781 54.625C45.5781 52.8438 43.9219 52.0938 41.4844 51.4688L38.9219 50.8125C35.2031 49.8438 32.8906 47.9688 32.8906 44.7188C32.8906 40.7188 36.4531 38.0625 41.2031 38.0625C46.0156 38.0625 49.2656 40.7812 49.3281 44.5938H45.4219ZM52.8281 67.375V44.0312H56.7344V46.8125H56.9844C57.6094 45.5938 58.8594 43.8125 61.8594 43.8125C65.7656 43.8125 68.8594 46.875 68.8594 52.5312C68.8594 58.125 65.8594 61.3125 61.8594 61.3125C58.9219 61.3125 57.6094 59.5625 56.9844 58.3125H56.8281V67.375H52.8281ZM56.7344 52.5C56.7344 55.8125 58.1719 58.0312 60.7656 58.0312C63.3906 58.0312 64.7969 55.7188 64.7969 52.5C64.7969 49.3438 63.4219 47.0625 60.7656 47.0625C58.1719 47.0625 56.7344 49.2188 56.7344 52.5ZM71.9844 61V44.0312H75.8594V46.8438H76.0469C76.6406 44.9062 78.2969 43.7812 80.2344 43.7812C80.6719 43.7812 81.2969 43.8125 81.6719 43.875V47.5625C81.3281 47.4375 80.4844 47.3125 79.8281 47.3125C77.6094 47.3125 75.9844 48.8438 75.9844 51V61H71.9844ZM84.0469 61V44.0312H88.0469V61H84.0469ZM86.0781 41.625C84.8281 41.625 83.7656 40.6562 83.7656 39.4375C83.7656 38.25 84.8281 37.2812 86.0781 37.2812C87.3594 37.2812 88.3906 38.25 88.3906 39.4375C88.3906 40.6562 87.3594 41.625 86.0781 41.625ZM95.8594 51.0625V61H91.8594V44.0312H95.6719V46.9062H95.8906C96.6719 45 98.3906 43.8125 100.922 43.8125C104.453 43.8125 106.766 46.125 106.734 50.1875V61H102.766V50.8125C102.766 48.5312 101.547 47.1875 99.4531 47.1875C97.3281 47.1875 95.8594 48.5938 95.8594 51.0625ZM117.953 67.7188C113.453 67.7188 110.609 65.7188 110.328 62.5312H114.297C114.578 64 115.984 64.7188 118.016 64.7188C120.391 64.7188 121.953 63.6875 121.953 61.1875V57.9375H121.766C121.141 59.1875 119.797 60.75 116.859 60.75C112.953 60.75 109.859 57.9062 109.859 52.375C109.859 46.7812 112.953 43.8125 116.891 43.8125C119.891 43.8125 121.141 45.5938 121.766 46.8125H121.953V44.0312H125.891V61.2812C125.891 65.625 122.547 67.7188 117.953 67.7188ZM117.953 57.625C120.516 57.625 121.984 55.6875 121.984 52.4375C121.984 49.2188 120.547 47.0625 117.953 47.0625C115.297 47.0625 113.922 49.3438 113.922 52.4375C113.922 55.5625 115.328 57.625 117.953 57.625ZM137.484 61V38.375H141.547V57.5625H151.547V61H137.484ZM154.609 61V44.0312H158.609V61H154.609ZM156.641 41.625C155.391 41.625 154.328 40.6562 154.328 39.4375C154.328 38.25 155.391 37.2812 156.641 37.2812C157.922 37.2812 158.953 38.25 158.953 39.4375C158.953 40.6562 157.922 41.625 156.641 41.625ZM169.828 67.7188C165.328 67.7188 162.484 65.7188 162.203 62.5312H166.172C166.453 64 167.859 64.7188 169.891 64.7188C172.266 64.7188 173.828 63.6875 173.828 61.1875V57.9375H173.641C173.016 59.1875 171.672 60.75 168.734 60.75C164.828 60.75 161.734 57.9062 161.734 52.375C161.734 46.7812 164.828 43.8125 168.766 43.8125C171.766 43.8125 173.016 45.5937 173.641 46.8125H173.828V44.0312H177.766V61.2812C177.766 65.625 174.422 67.7188 169.828 67.7188ZM169.828 57.625C172.391 57.625 173.859 55.6875 173.859 52.4375C173.859 49.2187 172.422 47.0625 169.828 47.0625C167.172 47.0625 165.797 49.3437 165.797 52.4375C165.797 55.5625 167.203 57.625 169.828 57.625ZM185.578 51.0625V61H181.578V38.375H185.484V46.9062H185.703C186.484 45 188.109 43.8125 190.734 43.8125C194.266 43.8125 196.578 46.0937 196.578 50.1875V61H192.609V50.8125C192.609 48.5 191.359 47.1875 189.266 47.1875C187.109 47.1875 185.578 48.5937 185.578 51.0625ZM208.828 44.0312V47.0937H205.484V55.9062C205.484 57.5312 206.297 57.875 207.297 57.875C207.766 57.875 208.547 57.8437 209.047 57.8125V61.0625C208.578 61.1562 207.797 61.2187 206.797 61.2187C203.797 61.2187 201.484 59.75 201.516 56.5625V47.0937H199.078V44.0312H201.516V39.9688H205.484V44.0312H208.828Z" fill="#80BEDD"/>
<path d="M250 16C250 7.16345 257.163 0 266 0H334C342.837 0 350 7.16344 350 16V84C350 92.8366 342.837 100 334 100H266C257.163 100 250 92.8366 250 84V16Z" fill="#FFD480"/>
<path d="M301.297 56.5015H298.172V69.396C297.003 66.4943 294.172 64.4234 290.859 64.4234H287.625C287.375 64.4234 287.188 64.6265 287.188 64.8609V65.5171C287.188 69.2671 290.234 72.314 293.844 72.3452L298.344 72.3609C298.397 72.3609 298.448 72.3498 298.495 72.3296H301.297V72.3193C301.353 72.3458 301.416 72.3609 301.484 72.3609H304.719C308.937 72.3609 312.375 69.0015 312.594 64.8452C312.609 64.6109 312.422 64.4234 312.203 64.4234L307.703 64.439C304.705 64.4649 302.095 66.5717 301.297 69.4339V56.5015Z" fill="#86D72F"/>
<path d="M307.547 55.0933H291.891V45.687C291.891 39.8901 294.203 34.3433 298.297 30.2651L298.312 30.2495C299.062 29.4995 300.281 29.4995 301.031 30.2495C305.203 34.3433 307.547 39.9526 307.547 45.7964V55.0933Z" fill="#F70A8D"/>
<path d="M313.5 31.4215C313.5 30.5152 312.922 29.734 312.203 29.7184C307.094 29.6871 302.703 37.1715 300.766 44.4996C300.422 45.7965 299.016 45.7652 298.672 44.4684C296.75 37.1715 292.375 29.7184 287.281 29.7184C286.547 29.7184 285.953 30.484 285.953 31.4215V41.1246L285.938 41.109C285.938 41.7184 285.969 42.3277 286.016 42.9215C286.141 44.6402 286.469 47.734 286.984 49.2496C289.047 55.6402 293.969 58.6715 299.734 58.6715C305.063 58.6715 309.688 56.2652 311.969 50.6246C312.953 48.3434 313.516 44.2809 313.516 41.4996L313.5 31.4215Z" fill="#FF6DC6"/>
<circle cx="50.4995" cy="120.121" r="12.1201" fill="#FFF9BE"/>
<circle cx="50.4995" cy="196.879" r="12.1201" fill="#BED9F2"/>
<circle cx="31.3093" cy="125.263" r="12.1201" transform="rotate(-30 31.3093 125.263)" fill="#FEE9BF"/>
<circle cx="69.6896" cy="191.74" r="12.1201" transform="rotate(-30 69.6896 191.74)" fill="#BEDDED"/>
<circle cx="17.2614" cy="139.311" r="12.1201" transform="rotate(-60 17.2614 139.311)" fill="#FFD3BF"/>
<circle cx="83.7375" cy="177.69" r="12.1201" transform="rotate(-60 83.7375 177.69)" fill="#BFE3EA"/>
<circle cx="12.1196" cy="158.502" r="12.1201" transform="rotate(-90 12.1196 158.502)" fill="#FFBFBF"/>
<circle cx="88.8803" cy="158.502" r="12.1201" transform="rotate(-90 88.8803 158.502)" fill="#BEE5E5"/>
<circle cx="17.261" cy="177.692" r="12.1201" transform="rotate(-120 17.261 177.692)" fill="#FCBFC8"/>
<circle cx="83.738" cy="139.31" r="12.1201" transform="rotate(-120 83.738 139.31)" fill="#BFEAC5"/>
<circle cx="31.3098" cy="191.737" r="12.1201" transform="rotate(-150 31.3098 191.737)" fill="#DCBFF8"/>
<circle cx="69.6892" cy="125.263" r="12.1201" transform="rotate(-150 69.6892 125.263)" fill="#EEF7BF"/>
<path d="M108 124C108 115.163 115.164 108 124 108H334C342.837 108 350 115.163 350 124V192C350 200.837 342.837 208 334 208H124C115.164 208 108 200.837 108 192V124Z" fill="#FFD3BF"/>
<path d="M132.621 141.001L133.072 138.266H130.583L130.132 141.001H129.134L129.585 138.266H128.123L128.287 137.282H129.75L130.16 134.821H128.71L128.861 133.837H130.31L130.761 131.102H131.759L131.308 133.837H133.796L134.248 131.102H135.246L134.794 133.837H136.271L136.107 134.821H134.644L134.234 137.282H135.683L135.519 138.266H134.07L133.619 141.001H132.621ZM130.748 137.282H133.236L133.646 134.821H131.158L130.748 137.282ZM137.488 141.001V131.102H140.851C143.175 131.102 144.228 132.483 144.228 134.247C144.228 135.997 143.175 137.405 140.865 137.405H138.718V141.001H137.488ZM138.718 136.311H140.81C142.382 136.311 143.011 135.423 143.011 134.247C143.011 133.057 142.382 132.196 140.796 132.196H138.718V136.311ZM145.431 138.895C145.431 137.186 146.935 136.803 148.22 136.708C148.692 136.674 149.895 136.612 150.23 136.598V135.997C150.23 135.053 149.669 134.507 148.548 134.507C147.605 134.507 147.044 134.944 146.88 135.505H145.65C145.8 134.315 146.962 133.481 148.603 133.481C149.574 133.481 151.392 133.768 151.392 136.106V141.001H150.23V139.989H150.175C149.929 140.495 149.246 141.178 147.96 141.178C146.552 141.178 145.431 140.344 145.431 138.895ZM146.607 138.95C146.607 139.729 147.263 140.126 148.166 140.126C149.492 140.126 150.23 139.237 150.23 138.307V137.555L148.357 137.692C147.291 137.76 146.607 138.143 146.607 138.95ZM154.455 131.102V141.001H153.279V131.102H154.455ZM159.445 141.151C157.298 141.151 155.972 139.634 155.972 137.35C155.972 135.067 157.312 133.481 159.335 133.481C160.894 133.481 162.535 134.438 162.535 137.186V137.678H157.148C157.203 139.251 158.119 140.112 159.445 140.112C160.333 140.112 160.894 139.729 161.167 139.264H162.425C162.07 140.385 160.976 141.151 159.445 141.151ZM157.162 136.68H161.345C161.345 135.436 160.552 134.52 159.335 134.52C158.05 134.52 157.23 135.532 157.162 136.68Z" fill="#535358"/>
<path d="M176.621 141.001L177.072 138.266H174.583L174.132 141.001H173.134L173.585 138.266H172.123L172.287 137.282H173.75L174.16 134.821H172.71L172.861 133.837H174.31L174.761 131.102H175.759L175.308 133.837H177.796L178.248 131.102H179.246L178.794 133.837H180.271L180.107 134.821H178.644L178.234 137.282H179.683L179.519 138.266H178.07L177.619 141.001H176.621ZM174.748 137.282H177.236L177.646 134.821H175.158L174.748 137.282ZM181.488 141.001V131.102H182.718V139.907H187.312V141.001H181.488ZM188.802 141.001V133.577H189.978V141.001H188.802ZM189.39 132.346C188.939 132.346 188.57 132.005 188.57 131.567C188.57 131.13 188.939 130.788 189.39 130.788C189.841 130.788 190.224 131.13 190.224 131.567C190.224 132.005 189.841 132.346 189.39 132.346ZM194.859 143.94C193.068 143.94 191.851 143.161 191.714 141.78H192.945C193.109 142.532 193.806 142.915 194.859 142.915C196.13 142.915 196.91 142.368 196.91 141.137V139.634H196.814C196.568 140.044 196.089 140.891 194.654 140.891C192.849 140.891 191.496 139.524 191.496 137.186C191.496 134.903 192.808 133.481 194.667 133.481C196.103 133.481 196.568 134.356 196.841 134.753H196.937V133.577H198.085V141.206C198.085 143.12 196.664 143.94 194.859 143.94ZM194.818 139.839C196.171 139.839 196.937 138.868 196.937 137.227C196.937 135.641 196.199 134.534 194.818 134.534C193.396 134.534 192.685 135.737 192.685 137.227C192.685 138.772 193.41 139.839 194.818 139.839ZM201.134 136.544V141.001H199.958V131.102H201.134V134.739H201.23C201.572 133.973 202.242 133.481 203.417 133.481C204.935 133.481 205.947 134.384 205.947 136.284V141.001H204.771V136.366C204.771 135.204 204.128 134.534 203.062 134.534C201.955 134.534 201.134 135.259 201.134 136.544ZM211.074 133.577V134.561H209.515V138.868C209.515 139.825 209.98 139.975 210.486 139.975C210.705 139.975 211.005 139.962 211.183 139.948V141.042C211.005 141.069 210.705 141.096 210.363 141.096C209.378 141.096 208.326 140.481 208.326 139.169V134.561H207.205V133.577H208.326V131.8H209.515V133.577H211.074Z" fill="#535358"/>
<path d="M129.544 153.102L132.457 161.401H132.566L135.492 153.102H136.791L133.167 163.001H131.869L128.246 153.102H129.544ZM144.378 155.03C144.378 156.124 144.057 156.924 143.216 157.245C143.51 157.833 143.667 158.53 143.667 159.323C143.667 161.634 142.314 163.151 140.304 163.151C138.281 163.151 136.914 161.634 136.914 159.323C136.914 157.012 138.281 155.481 140.304 155.481C141.302 155.481 142.143 155.857 142.738 156.52C143.23 156.322 143.312 155.768 143.312 155.03H144.378ZM140.304 162.112C141.794 162.112 142.492 160.8 142.492 159.323C142.492 157.846 141.794 156.52 140.304 156.52C138.787 156.52 138.089 157.846 138.089 159.323C138.089 160.8 138.787 162.112 140.304 162.112ZM139.785 154.565L140.96 152.323H142.314L140.796 154.565H139.785ZM145.212 163.001V155.577H146.388V163.001H145.212ZM145.8 154.346C145.349 154.346 144.98 154.005 144.98 153.567C144.98 153.13 145.349 152.788 145.8 152.788C146.251 152.788 146.634 153.13 146.634 153.567C146.634 154.005 146.251 154.346 145.8 154.346ZM154.578 163.151C152.732 163.151 151.419 161.661 151.419 159.309C151.419 156.958 152.732 155.481 154.591 155.481C156.027 155.481 156.492 156.356 156.738 156.753H156.82V154.934H154.796V154.032H156.82V153.102H158.009V154.032H159.076V154.934H158.009V163.001H156.861V161.866H156.738C156.478 162.276 156 163.151 154.578 163.151ZM154.742 162.098C156.095 162.098 156.861 160.95 156.861 159.282C156.861 157.641 156.123 156.534 154.742 156.534C153.32 156.534 152.609 157.737 152.609 159.282C152.609 160.868 153.333 162.098 154.742 162.098ZM163.082 163.151C161.058 163.151 159.691 161.634 159.691 159.323C159.691 157.012 161.058 155.481 163.082 155.481C165.091 155.481 166.445 157.012 166.445 159.323C166.445 161.634 165.091 163.151 163.082 163.151ZM163.082 162.112C164.572 162.112 165.269 160.8 165.269 159.323C165.269 157.846 164.572 156.52 163.082 156.52C161.564 156.52 160.867 157.846 160.867 159.323C160.867 160.8 161.564 162.112 163.082 162.112ZM164.08 154.688L163.068 153.348L162.07 154.688H160.949V154.606L162.535 152.596H163.601L165.187 154.606V154.688H164.08ZM163.136 165.462C162.685 165.462 162.316 165.12 162.316 164.682C162.316 164.245 162.685 163.903 163.136 163.903C163.587 163.903 163.97 164.245 163.97 164.682C163.97 165.12 163.587 165.462 163.136 165.462ZM175.632 157.505C175.468 156.889 175.003 156.479 174.128 156.479C173.212 156.479 172.556 156.971 172.556 157.6C172.556 158.093 172.953 158.434 173.828 158.639L174.935 158.913C176.261 159.227 176.917 159.884 176.917 160.923C176.917 162.208 175.865 163.151 174.005 163.151C172.337 163.151 171.339 162.413 171.148 161.059H172.378C172.515 161.784 173.048 162.126 173.978 162.126C175.031 162.126 175.701 161.688 175.701 160.991C175.701 160.471 175.332 160.116 174.484 159.925L173.363 159.665C172.064 159.364 171.38 158.653 171.38 157.669C171.38 156.397 172.488 155.481 174.128 155.481C175.66 155.481 176.63 156.302 176.781 157.505H175.632ZM180.869 154.565L182.044 152.323H183.398L181.88 154.565H180.869ZM178.093 160.895C178.093 159.186 179.597 158.803 180.882 158.708C181.354 158.674 182.557 158.612 182.892 158.598V157.997C182.892 157.053 182.332 156.507 181.21 156.507C180.267 156.507 179.707 156.944 179.542 157.505H178.312C178.462 156.315 179.625 155.481 181.265 155.481C182.236 155.481 184.054 155.768 184.054 158.106V163.001H182.892V161.989H182.837C182.591 162.495 181.908 163.178 180.623 163.178C179.214 163.178 178.093 162.344 178.093 160.895ZM179.269 160.95C179.269 161.729 179.925 162.126 180.828 162.126C182.154 162.126 182.892 161.237 182.892 160.307V159.555L181.019 159.692C179.953 159.76 179.269 160.143 179.269 160.95ZM187.117 158.544V163.001H185.941V155.577H187.076V156.739H187.171C187.527 155.987 188.21 155.481 189.345 155.481C190.849 155.481 191.847 156.397 191.847 158.284V163.001H190.671V158.366C190.671 157.218 190.042 156.534 188.99 156.534C187.91 156.534 187.117 157.259 187.117 158.544ZM196.742 165.94C194.951 165.94 193.734 165.161 193.597 163.78H194.828C194.992 164.532 195.689 164.915 196.742 164.915C198.013 164.915 198.792 164.368 198.792 163.137V161.634H198.697C198.451 162.044 197.972 162.891 196.537 162.891C194.732 162.891 193.378 161.524 193.378 159.186C193.378 156.903 194.691 155.481 196.55 155.481C197.986 155.481 198.451 156.356 198.724 156.753H198.82V155.577H199.968V163.206C199.968 165.12 198.546 165.94 196.742 165.94ZM196.701 161.839C198.054 161.839 198.82 160.868 198.82 159.227C198.82 157.641 198.082 156.534 196.701 156.534C195.279 156.534 194.568 157.737 194.568 159.227C194.568 160.772 195.292 161.839 196.701 161.839ZM208.39 163.151C206.285 163.151 205 161.552 205 159.323C205 157.067 206.339 155.481 208.363 155.481C209.949 155.481 211.125 156.411 211.316 157.819H210.14C209.976 157.135 209.375 156.52 208.39 156.52C207.064 156.52 206.175 157.614 206.175 159.282C206.175 161.005 207.037 162.098 208.39 162.098C209.265 162.098 209.935 161.634 210.14 160.813H211.316C211.125 162.139 210.044 163.151 208.39 163.151ZM212.41 160.895C212.41 159.186 213.914 158.803 215.199 158.708C215.67 158.674 216.874 158.612 217.208 158.598V157.997C217.208 157.053 216.648 156.507 215.527 156.507C214.583 156.507 214.023 156.944 213.859 157.505H212.628C212.779 156.315 213.941 155.481 215.582 155.481C216.552 155.481 218.371 155.768 218.371 158.106V163.001H217.208V161.989H217.154C216.908 162.495 216.224 163.178 214.939 163.178C213.531 163.178 212.41 162.344 212.41 160.895ZM213.585 160.95C213.585 161.729 214.242 162.126 215.144 162.126C216.47 162.126 217.208 161.237 217.208 160.307V159.555L215.335 159.692C214.269 159.76 213.585 160.143 213.585 160.95ZM223.292 163.151C221.269 163.151 219.902 161.634 219.902 159.323C219.902 157.012 221.269 155.481 223.292 155.481C225.302 155.481 226.656 157.012 226.656 159.323C226.656 161.634 225.302 163.151 223.292 163.151ZM223.292 162.112C224.783 162.112 225.48 160.8 225.48 159.323C225.48 157.846 224.783 156.52 223.292 156.52C221.775 156.52 221.078 157.846 221.078 159.323C221.078 160.8 221.775 162.112 223.292 162.112ZM229.746 162.085L228.679 165.803H227.667L228.419 162.085H229.746ZM235.296 163.001V155.577H236.431V156.739H236.527C236.841 155.946 237.552 155.481 238.523 155.481C239.494 155.481 240.15 155.946 240.505 156.739H240.587C240.97 155.973 241.75 155.481 242.816 155.481C244.142 155.481 245.085 156.288 245.085 158.038V163.001H243.91V158.052C243.91 156.958 243.212 156.534 242.406 156.534C241.367 156.534 240.779 157.231 240.779 158.175V163.001H239.589V157.928C239.589 157.094 238.988 156.534 238.14 156.534C237.251 156.534 236.472 157.286 236.472 158.366V163.001H235.296ZM249.419 154.565L247.916 152.323H249.283L250.445 154.565H249.419ZM246.617 160.895C246.617 159.186 248.121 158.803 249.406 158.708C249.877 158.674 251.081 158.612 251.416 158.598V157.997C251.416 157.053 250.855 156.507 249.734 156.507C248.791 156.507 248.23 156.944 248.066 157.505H246.835C246.986 156.315 248.148 155.481 249.789 155.481C250.759 155.481 252.578 155.768 252.578 158.106V163.001H251.416V161.989H251.361C251.115 162.495 250.431 163.178 249.146 163.178C247.738 163.178 246.617 162.344 246.617 160.895ZM247.792 160.95C247.792 161.729 248.449 162.126 249.351 162.126C250.677 162.126 251.416 161.237 251.416 160.307V159.555L249.542 159.692C248.476 159.76 247.792 160.143 247.792 160.95ZM259.154 159.952V155.577H260.316V163.001H259.154V161.743H259.072C258.716 162.495 257.992 163.096 256.871 163.096C255.462 163.096 254.464 162.18 254.464 160.294V155.577H255.64V160.212C255.64 161.278 256.31 161.962 257.253 161.962C258.087 161.962 259.154 161.333 259.154 159.952ZM265.716 165.79V155.577H266.851V156.753H266.988C267.234 156.356 267.699 155.481 269.134 155.481C270.994 155.481 272.292 156.958 272.292 159.309C272.292 161.661 270.994 163.151 269.148 163.151C267.726 163.151 267.234 162.276 266.988 161.866H266.892V165.79H265.716ZM266.865 159.282C266.865 160.95 267.617 162.098 268.984 162.098C270.392 162.098 271.117 160.868 271.117 159.282C271.117 157.737 270.406 156.534 268.984 156.534C267.589 156.534 266.865 157.641 266.865 159.282ZM273.468 160.895C273.468 159.186 274.972 158.803 276.257 158.708C276.729 158.674 277.932 158.612 278.267 158.598V157.997C278.267 157.053 277.707 156.507 276.585 156.507C275.642 156.507 275.082 156.944 274.917 157.505H273.687C273.837 156.315 274.999 155.481 276.64 155.481C277.611 155.481 279.429 155.768 279.429 158.106V163.001H278.267V161.989H278.212C277.966 162.495 277.283 163.178 275.998 163.178C274.589 163.178 273.468 162.344 273.468 160.895ZM274.644 160.95C274.644 161.729 275.3 162.126 276.203 162.126C277.529 162.126 278.267 161.237 278.267 160.307V159.555L276.394 159.692C275.328 159.76 274.644 160.143 274.644 160.95ZM285.445 157.505C285.281 156.889 284.816 156.479 283.941 156.479C283.025 156.479 282.369 156.971 282.369 157.6C282.369 158.093 282.765 158.434 283.64 158.639L284.748 158.913C286.074 159.227 286.73 159.884 286.73 160.923C286.73 162.208 285.677 163.151 283.818 163.151C282.15 163.151 281.152 162.413 280.96 161.059H282.191C282.328 161.784 282.861 162.126 283.791 162.126C284.843 162.126 285.513 161.688 285.513 160.991C285.513 160.471 285.144 160.116 284.296 159.925L283.175 159.665C281.876 159.364 281.193 158.653 281.193 157.669C281.193 156.397 282.3 155.481 283.941 155.481C285.472 155.481 286.443 156.302 286.593 157.505H285.445ZM291.501 155.577V156.561H289.943V160.868C289.943 161.825 290.408 161.975 290.914 161.975C291.132 161.975 291.433 161.962 291.611 161.948V163.042C291.433 163.069 291.132 163.096 290.791 163.096C289.806 163.096 288.753 162.481 288.753 161.169V156.561H287.632V155.577H288.753V153.8H289.943V155.577H291.501ZM296.054 163.151C293.908 163.151 292.582 161.634 292.582 159.35C292.582 157.067 293.921 155.481 295.945 155.481C297.503 155.481 299.144 156.438 299.144 159.186V159.678H293.757C293.812 161.251 294.728 162.112 296.054 162.112C296.943 162.112 297.503 161.729 297.777 161.264H299.035C298.679 162.385 297.585 163.151 296.054 163.151ZM293.771 158.68H297.955C297.955 157.436 297.162 156.52 295.945 156.52C294.66 156.52 293.839 157.532 293.771 158.68ZM301.851 153.102V163.001H300.675V153.102H301.851ZM307.689 154.647L309.658 152.897H310.724L312.693 154.647H311.298L310.191 153.635L309.097 154.647H307.689ZM312.173 153.485L313.13 151.749H314.552L313.185 153.485H312.173ZM306.882 160.895C306.882 159.186 308.386 158.803 309.671 158.708C310.143 158.674 311.346 158.612 311.681 158.598V157.997C311.681 157.053 311.121 156.507 309.999 156.507C309.056 156.507 308.496 156.944 308.332 157.505H307.101C307.251 156.315 308.414 155.481 310.054 155.481C311.025 155.481 312.843 155.768 312.843 158.106V163.001H311.681V161.989H311.626C311.38 162.495 310.697 163.178 309.412 163.178C308.003 163.178 306.882 162.344 306.882 160.895ZM308.058 160.95C308.058 161.729 308.714 162.126 309.617 162.126C310.943 162.126 311.681 161.237 311.681 160.307V159.555L309.808 159.692C308.742 159.76 308.058 160.143 308.058 160.95ZM314.73 163.001V155.577H315.865V156.739H315.96C316.275 155.946 316.986 155.481 317.957 155.481C318.927 155.481 319.583 155.946 319.939 156.739H320.021C320.404 155.973 321.183 155.481 322.249 155.481C323.576 155.481 324.519 156.288 324.519 158.038V163.001H323.343V158.052C323.343 156.958 322.646 156.534 321.839 156.534C320.8 156.534 320.212 157.231 320.212 158.175V163.001H319.023V157.928C319.023 157.094 318.421 156.534 317.574 156.534C316.685 156.534 315.906 157.286 315.906 158.366V163.001H314.73ZM131.363 174.565L132.539 172.323H133.892L132.375 174.565H131.363ZM128.587 180.895C128.587 179.186 130.091 178.803 131.376 178.708C131.848 178.674 133.051 178.612 133.386 178.598V177.997C133.386 177.053 132.826 176.507 131.705 176.507C130.761 176.507 130.201 176.944 130.037 177.505H128.806C128.957 176.315 130.119 175.481 131.759 175.481C132.73 175.481 134.548 175.768 134.548 178.106V183.001H133.386V181.989H133.332C133.085 182.495 132.402 183.178 131.117 183.178C129.708 183.178 128.587 182.344 128.587 180.895ZM129.763 180.95C129.763 181.729 130.419 182.126 131.322 182.126C132.648 182.126 133.386 181.237 133.386 180.307V179.555L131.513 179.692C130.447 179.76 129.763 180.143 129.763 180.95ZM136.435 185.79V175.577H137.57V176.753H137.707C137.953 176.356 138.417 175.481 139.853 175.481C141.712 175.481 143.011 176.958 143.011 179.309C143.011 181.661 141.712 183.151 139.867 183.151C138.445 183.151 137.953 182.276 137.707 181.866H137.611V185.79H136.435ZM137.583 179.282C137.583 180.95 138.335 182.098 139.703 182.098C141.111 182.098 141.835 180.868 141.835 179.282C141.835 177.737 141.125 176.534 139.703 176.534C138.308 176.534 137.583 177.641 137.583 179.282ZM152.185 177.505C152.021 176.889 151.556 176.479 150.681 176.479C149.765 176.479 149.109 176.971 149.109 177.6C149.109 178.093 149.505 178.434 150.38 178.639L151.488 178.913C152.814 179.227 153.47 179.884 153.47 180.923C153.47 182.208 152.417 183.151 150.558 183.151C148.89 183.151 147.892 182.413 147.701 181.059H148.931C149.068 181.784 149.601 182.126 150.531 182.126C151.583 182.126 152.253 181.688 152.253 180.991C152.253 180.471 151.884 180.116 151.037 179.925L149.916 179.665C148.617 179.364 147.933 178.653 147.933 177.669C147.933 176.397 149.041 175.481 150.681 175.481C152.212 175.481 153.183 176.302 153.333 177.505H152.185ZM158.119 183.151C155.972 183.151 154.646 181.634 154.646 179.35C154.646 177.067 155.986 175.481 158.009 175.481C159.568 175.481 161.208 176.438 161.208 179.186V179.678H155.822C155.876 181.251 156.792 182.112 158.119 182.112C159.007 182.112 159.568 181.729 159.841 181.264H161.099C160.744 182.385 159.65 183.151 158.119 183.151ZM155.548 174.647C155.548 173.649 156.205 172.952 157.025 172.952C157.777 172.952 158.105 173.567 158.789 173.567C159.158 173.567 159.445 173.253 159.445 172.843L160.333 172.911C160.333 173.936 159.677 174.565 158.843 174.565C157.955 174.565 157.818 173.95 157.093 173.95C156.724 173.95 156.464 174.278 156.464 174.688L155.548 174.647ZM155.835 178.68H160.019C160.019 177.436 159.226 176.52 158.009 176.52C156.724 176.52 155.904 177.532 155.835 178.68ZM167.429 178.544V183.001H166.253V173.102H167.429V176.739H167.525C167.867 175.973 168.537 175.481 169.712 175.481C171.23 175.481 172.242 176.384 172.242 178.284V183.001H171.066V178.366C171.066 177.204 170.423 176.534 169.357 176.534C168.25 176.534 167.429 177.259 167.429 178.544ZM181.238 175.03C181.238 176.124 180.916 176.924 180.076 177.245C180.37 177.833 180.527 178.53 180.527 179.323C180.527 181.634 179.173 183.151 177.164 183.151C175.14 183.151 173.773 181.634 173.773 179.323C173.773 177.012 175.14 175.481 177.164 175.481C178.162 175.481 179.002 175.857 179.597 176.52C180.089 176.322 180.171 175.768 180.171 175.03H181.238ZM177.164 182.112C178.654 182.112 179.351 180.8 179.351 179.323C179.351 177.846 178.654 176.52 177.164 176.52C175.646 176.52 174.949 177.846 174.949 179.323C174.949 180.8 175.646 182.112 177.164 182.112ZM177.218 185.462C176.767 185.462 176.398 185.12 176.398 184.682C176.398 184.245 176.767 183.903 177.218 183.903C177.669 183.903 178.052 184.245 178.052 184.682C178.052 185.12 177.669 185.462 177.218 185.462ZM182.072 185.79V175.577H183.207V176.753H183.343C183.589 176.356 184.054 175.481 185.49 175.481C187.349 175.481 188.648 176.958 188.648 179.309C188.648 181.661 187.349 183.151 185.503 183.151C184.082 183.151 183.589 182.276 183.343 181.866H183.248V185.79H182.072ZM183.22 179.282C183.22 180.95 183.972 182.098 185.339 182.098C186.748 182.098 187.472 180.868 187.472 179.282C187.472 177.737 186.761 176.534 185.339 176.534C183.945 176.534 183.22 177.641 183.22 179.282ZM199.804 175.577L197.056 183.001H195.839L193.105 175.577H194.39L196.414 181.469H196.496L198.519 175.577H199.804ZM207.939 175.03C207.939 176.124 207.618 176.924 206.777 177.245C207.071 177.833 207.228 178.53 207.228 179.323C207.228 181.634 205.875 183.151 203.865 183.151C201.841 183.151 200.474 181.634 200.474 179.323C200.474 177.012 201.841 175.481 203.865 175.481C204.863 175.481 205.704 175.857 206.298 176.52C206.791 176.322 206.873 175.768 206.873 175.03H207.939ZM203.865 182.112C205.355 182.112 206.052 180.8 206.052 179.323C206.052 177.846 205.355 176.52 203.865 176.52C202.347 176.52 201.65 177.846 201.65 179.323C201.65 180.8 202.347 182.112 203.865 182.112ZM203.345 174.565L204.521 172.323H205.875L204.357 174.565H203.345ZM208.773 183.001V175.577H209.949V183.001H208.773ZM209.361 174.346C208.91 174.346 208.541 174.005 208.541 173.567C208.541 173.13 208.91 172.788 209.361 172.788C209.812 172.788 210.195 173.13 210.195 173.567C210.195 174.005 209.812 174.346 209.361 174.346ZM215.486 183.001V173.102H216.662V176.753H216.757C217.017 176.356 217.455 175.481 218.904 175.481C220.763 175.481 222.076 176.958 222.076 179.309C222.076 181.661 220.763 183.151 218.917 183.151C217.496 183.151 217.017 182.276 216.757 181.866H216.621V183.001H215.486ZM216.634 179.282C216.634 180.95 217.386 182.098 218.74 182.098C220.148 182.098 220.886 180.868 220.886 179.282C220.886 177.737 220.175 176.534 218.74 176.534C217.373 176.534 216.634 177.641 216.634 179.282ZM226.533 185.462C226.082 185.462 225.712 185.12 225.712 184.682C225.712 184.245 226.082 183.903 226.533 183.903C226.984 183.903 227.367 184.245 227.367 184.682C227.367 185.12 226.984 185.462 226.533 185.462ZM223.251 180.895C223.251 179.186 224.755 178.803 226.041 178.708C226.512 178.674 227.715 178.612 228.05 178.598V177.997C228.05 177.053 227.49 176.507 226.369 176.507C225.425 176.507 224.865 176.944 224.701 177.505H223.47C223.621 176.315 224.783 175.481 226.423 175.481C227.394 175.481 229.212 175.768 229.212 178.106V183.001H228.05V181.989H227.996C227.75 182.495 227.066 183.178 225.781 183.178C224.373 183.178 223.251 182.344 223.251 180.895ZM224.427 180.95C224.427 181.729 225.083 182.126 225.986 182.126C227.312 182.126 228.05 181.237 228.05 180.307V179.555L226.177 179.692C225.111 179.76 224.427 180.143 224.427 180.95ZM232.275 178.544V183.001H231.099V175.577H232.234V176.739H232.33C232.685 175.987 233.369 175.481 234.503 175.481C236.007 175.481 237.005 176.397 237.005 178.284V183.001H235.83V178.366C235.83 177.218 235.201 176.534 234.148 176.534C233.068 176.534 232.275 177.259 232.275 178.544ZM245.208 183.151C243.363 183.151 242.05 181.661 242.05 179.309C242.05 176.958 243.363 175.481 245.222 175.481C246.658 175.481 247.123 176.356 247.369 176.753H247.451V174.934H245.427V174.032H247.451V173.102H248.64V174.032H249.707V174.934H248.64V183.001H247.492V181.866H247.369C247.109 182.276 246.63 183.151 245.208 183.151ZM245.373 182.098C246.726 182.098 247.492 180.95 247.492 179.282C247.492 177.641 246.753 176.534 245.373 176.534C243.951 176.534 243.24 177.737 243.24 179.282C243.24 180.868 243.964 182.098 245.373 182.098ZM253.712 183.151C251.689 183.151 250.322 181.634 250.322 179.323C250.322 177.012 251.689 175.481 253.712 175.481C255.722 175.481 257.076 177.012 257.076 179.323C257.076 181.634 255.722 183.151 253.712 183.151ZM253.712 182.112C255.203 182.112 255.9 180.8 255.9 179.323C255.9 177.846 255.203 176.52 253.712 176.52C252.195 176.52 251.498 177.846 251.498 179.323C251.498 180.8 252.195 182.112 253.712 182.112ZM253.193 174.565L254.369 172.323H255.722L254.205 174.565H253.193ZM259.455 183.083C258.976 183.083 258.566 182.686 258.58 182.194C258.566 181.716 258.976 181.319 259.455 181.319C259.933 181.319 260.33 181.716 260.33 182.194C260.33 182.686 259.933 183.083 259.455 183.083Z" fill="#2C2C2C"/>
<path d="M0 232C0 223.163 7.16344 216 16 216H226C234.837 216 242 223.163 242 232V300C242 308.837 234.837 316 226 316H16C7.16344 316 0 308.837 0 300V232Z" fill="#BED9F2"/>
<path d="M24.6211 249.001L25.0723 246.266H22.584L22.1328 249.001H21.1348L21.5859 246.266H20.123L20.2871 245.282H21.75L22.1602 242.821H20.7109L20.8613 241.837H22.3105L22.7617 239.102H23.7598L23.3086 241.837H25.7969L26.248 239.102H27.2461L26.7949 241.837H28.2715L28.1074 242.821H26.6445L26.2344 245.282H27.6836L27.5195 246.266H26.0703L25.6191 249.001H24.6211ZM22.748 245.282H25.2363L25.6465 242.821H23.1582L22.748 245.282ZM34.8887 241.591C34.7793 240.62 33.8906 240.059 32.7012 240.059C31.3887 240.059 30.5273 240.743 30.5273 241.686C30.5273 242.725 31.6895 243.108 32.4414 243.3L33.4258 243.573C34.4922 243.846 36.2285 244.462 36.2285 246.307C36.2285 247.921 34.9297 249.178 32.6328 249.178C30.5 249.178 29.1738 248.071 29.0645 246.43H30.3223C30.4316 247.538 31.457 248.057 32.6328 248.057C34 248.057 35.0254 247.36 35.0254 246.28C35.0254 245.323 34.1094 244.954 33.0703 244.653L31.8535 244.325C30.2949 243.874 29.3379 243.081 29.3379 241.741C29.3379 240.073 30.8281 238.966 32.7422 238.966C34.6562 238.966 36.0371 240.087 36.0918 241.591H34.8887ZM40.2617 240.565L41.4375 238.323H42.791L41.2734 240.565H40.2617ZM37.4863 246.895C37.4863 245.186 38.9902 244.803 40.2754 244.708C40.7471 244.674 41.9502 244.612 42.2852 244.598V243.997C42.2852 243.053 41.7246 242.507 40.6035 242.507C39.6602 242.507 39.0996 242.944 38.9355 243.505H37.7051C37.8555 242.315 39.0176 241.481 40.6582 241.481C41.6289 241.481 43.4473 241.768 43.4473 244.106V249.001H42.2852V247.989H42.2305C41.9844 248.495 41.3008 249.178 40.0156 249.178C38.6074 249.178 37.4863 248.344 37.4863 246.895ZM38.6621 246.95C38.6621 247.729 39.3184 248.126 40.2207 248.126C41.5469 248.126 42.2852 247.237 42.2852 246.307V245.555L40.4121 245.692C39.3457 245.76 38.6621 246.143 38.6621 246.95ZM46.5098 244.544V249.001H45.334V241.577H46.4687V242.739H46.5645C46.9199 241.987 47.6035 241.481 48.7383 241.481C50.2422 241.481 51.2402 242.397 51.2402 244.284V249.001H50.0645V244.366C50.0645 243.218 49.4355 242.534 48.3828 242.534C47.3027 242.534 46.5098 243.259 46.5098 244.544ZM56.1348 251.94C54.3437 251.94 53.1269 251.161 52.9902 249.78H54.2207C54.3848 250.532 55.082 250.915 56.1348 250.915C57.4062 250.915 58.1855 250.368 58.1855 249.137V247.634H58.0898C57.8437 248.044 57.3652 248.891 55.9297 248.891C54.125 248.891 52.7715 247.524 52.7715 245.186C52.7715 242.903 54.084 241.481 55.9434 241.481C57.3789 241.481 57.8437 242.356 58.1172 242.753H58.2129V241.577H59.3613V249.206C59.3613 251.12 57.9394 251.94 56.1348 251.94ZM56.0937 247.839C57.4473 247.839 58.2129 246.868 58.2129 245.227C58.2129 243.641 57.4746 242.534 56.0937 242.534C54.6719 242.534 53.9609 243.737 53.9609 245.227C53.9609 246.772 54.6855 247.839 56.0937 247.839Z" fill="#535358"/>
<path d="M73.6211 249.001L74.0723 246.266H71.584L71.1328 249.001H70.1348L70.5859 246.266H69.123L69.2871 245.282H70.75L71.1602 242.821H69.7109L69.8613 241.837H71.3105L71.7617 239.102H72.7598L72.3086 241.837H74.7969L75.248 239.102H76.2461L75.7949 241.837H77.2715L77.1074 242.821H75.6445L75.2344 245.282H76.6836L76.5195 246.266H75.0703L74.6191 249.001H73.6211ZM71.748 245.282H74.2363L74.6465 242.821H72.1582L71.748 245.282ZM86.3496 239.102V249.001H85.1738L79.8145 241.29H79.7187V249.001H78.4883V239.102H79.6777L85.0371 246.827H85.1328V239.102H86.3496ZM89.5625 244.544V249.001H88.3867V239.102H89.5625V242.739H89.6582C90 241.973 90.6699 241.481 91.8457 241.481C93.3633 241.481 94.375 242.384 94.375 244.284V249.001H93.1992V244.366C93.1992 243.204 92.5566 242.534 91.4902 242.534C90.3828 242.534 89.5625 243.259 89.5625 244.544ZM99.3789 249.151C97.2324 249.151 95.9062 247.634 95.9062 245.35C95.9062 243.067 97.2461 241.481 99.2695 241.481C100.828 241.481 102.469 242.438 102.469 245.186V245.678H97.082C97.1367 247.251 98.0527 248.112 99.3789 248.112C100.268 248.112 100.828 247.729 101.102 247.264H102.359C102.004 248.385 100.91 249.151 99.3789 249.151ZM99.2559 251.462C98.8047 251.462 98.4355 251.12 98.4355 250.682C98.4355 250.245 98.8047 249.903 99.2559 249.903C99.707 249.903 100.09 250.245 100.09 250.682C100.09 251.12 99.707 251.462 99.2559 251.462ZM97.0957 244.68H101.279C101.279 243.436 100.486 242.52 99.2695 242.52C97.9844 242.52 97.1641 243.532 97.0957 244.68ZM108.689 244.544V249.001H107.514V241.577H108.648V242.739H108.744C109.1 241.987 109.783 241.481 110.918 241.481C112.422 241.481 113.42 242.397 113.42 244.284V249.001H112.244V244.366C112.244 243.218 111.615 242.534 110.562 242.534C109.482 242.534 108.689 243.259 108.689 244.544ZM116.482 244.544V249.001H115.307V239.102H116.482V242.739H116.578C116.92 241.973 117.59 241.481 118.766 241.481C120.283 241.481 121.295 242.384 121.295 244.284V249.001H120.119V244.366C120.119 243.204 119.477 242.534 118.41 242.534C117.303 242.534 116.482 243.259 116.482 244.544ZM125.629 240.565L124.125 238.323H125.492L126.654 240.565H125.629ZM122.826 246.895C122.826 245.186 124.33 244.803 125.615 244.708C126.087 244.674 127.29 244.612 127.625 244.598V243.997C127.625 243.053 127.064 242.507 125.943 242.507C125 242.507 124.439 242.944 124.275 243.505H123.045C123.195 242.315 124.357 241.481 125.998 241.481C126.969 241.481 128.787 241.768 128.787 244.106V249.001H127.625V247.989H127.57C127.324 248.495 126.641 249.178 125.355 249.178C123.947 249.178 122.826 248.344 122.826 246.895ZM124.002 246.95C124.002 247.729 124.658 248.126 125.561 248.126C126.887 248.126 127.625 247.237 127.625 246.307V245.555L125.752 245.692C124.686 245.76 124.002 246.143 124.002 246.95ZM131.85 244.544V249.001H130.674V241.577H131.809V242.739H131.904C132.26 241.987 132.943 241.481 134.078 241.481C135.582 241.481 136.58 242.397 136.58 244.284V249.001H135.404V244.366C135.404 243.218 134.775 242.534 133.723 242.534C132.643 242.534 131.85 243.259 131.85 244.544ZM141.475 251.94C139.684 251.94 138.467 251.161 138.33 249.78H139.561C139.725 250.532 140.422 250.915 141.475 250.915C142.746 250.915 143.525 250.368 143.525 249.137V247.634H143.43C143.184 248.044 142.705 248.891 141.27 248.891C139.465 248.891 138.111 247.524 138.111 245.186C138.111 242.903 139.424 241.481 141.283 241.481C142.719 241.481 143.184 242.356 143.457 242.753H143.553V241.577H144.701V249.206C144.701 251.12 143.279 251.94 141.475 251.94ZM141.434 247.839C142.787 247.839 143.553 246.868 143.553 245.227C143.553 243.641 142.814 242.534 141.434 242.534C140.012 242.534 139.301 243.737 139.301 245.227C139.301 246.772 140.025 247.839 141.434 247.839Z" fill="#535358"/>
<path d="M21.7227 261.102L24.2383 265.19H24.3203L26.8496 261.102H28.2988L25.1953 266.052L28.2988 271.001H26.8496L24.3203 266.995H24.2383L21.709 271.001H20.2598L23.4453 266.052L20.2598 261.102H21.7227ZM32.2363 271.151C30.0898 271.151 28.7637 269.634 28.7637 267.35C28.7637 265.067 30.1035 263.481 32.127 263.481C33.6855 263.481 35.3262 264.438 35.3262 267.186V267.678H29.9395C29.9941 269.251 30.9102 270.112 32.2363 270.112C33.125 270.112 33.6855 269.729 33.959 269.264H35.2168C34.8613 270.385 33.7676 271.151 32.2363 271.151ZM29.9531 266.68H34.1367C34.1367 265.436 33.3437 264.52 32.127 264.52C30.8418 264.52 30.0215 265.532 29.9531 266.68ZM36.8574 271.001V263.577H37.9922V264.739H38.0879C38.4023 263.946 39.1133 263.481 40.084 263.481C41.0547 263.481 41.7109 263.946 42.0664 264.739H42.1484C42.5312 263.973 43.3105 263.481 44.377 263.481C45.7031 263.481 46.6465 264.288 46.6465 266.038V271.001H45.4707V266.052C45.4707 264.958 44.7734 264.534 43.9668 264.534C42.9277 264.534 42.3398 265.231 42.3398 266.175V271.001H41.1504V265.928C41.1504 265.094 40.5488 264.534 39.7012 264.534C38.8125 264.534 38.0332 265.286 38.0332 266.366V271.001H36.8574ZM55.2871 263.577V264.561H53.7285V268.868C53.7285 269.825 54.1934 269.975 54.6992 269.975C54.918 269.975 55.2187 269.962 55.3965 269.948V271.042C55.2187 271.069 54.918 271.096 54.5762 271.096C53.5918 271.096 52.5391 270.481 52.5391 269.169V264.561H51.418V263.577H52.5391V261.8H53.7285V263.577H55.2871ZM58.1445 266.544V271.001H56.9687V261.102H58.1445V264.739H58.2402C58.582 263.973 59.2519 263.481 60.4277 263.481C61.9453 263.481 62.957 264.384 62.957 266.284V271.001H61.7812V266.366C61.7812 265.204 61.1387 264.534 60.0723 264.534C58.9648 264.534 58.1445 265.259 58.1445 266.544ZM67.9609 271.151C65.8144 271.151 64.4883 269.634 64.4883 267.35C64.4883 265.067 65.8281 263.481 67.8516 263.481C69.4102 263.481 71.0508 264.438 71.0508 267.186V267.678H65.6641C65.7187 269.251 66.6348 270.112 67.9609 270.112C68.8496 270.112 69.4102 269.729 69.6836 269.264H70.9414C70.5859 270.385 69.4922 271.151 67.9609 271.151ZM68.7812 262.688L67.7695 261.348L66.7715 262.688H65.6504V262.606L67.2363 260.596H68.3027L69.8887 262.606V262.688H68.7812ZM65.6777 266.68H69.8613C69.8613 265.436 69.0684 264.52 67.8516 264.52C66.5664 264.52 65.7461 265.532 65.6777 266.68ZM72.582 271.001V263.577H73.7168V264.739H73.8125C74.1269 263.946 74.8379 263.481 75.8086 263.481C76.7793 263.481 77.4355 263.946 77.791 264.739H77.873C78.2559 263.973 79.0352 263.481 80.1016 263.481C81.4277 263.481 82.3711 264.288 82.3711 266.038V271.001H81.1953V266.052C81.1953 264.958 80.498 264.534 79.6914 264.534C78.6523 264.534 78.0644 265.231 78.0644 266.175V271.001H76.875V265.928C76.875 265.094 76.2734 264.534 75.4258 264.534C74.5371 264.534 73.7578 265.286 73.7578 266.366V271.001H72.582ZM87.9219 271.001V261.102H89.0976V264.753H89.1934C89.4531 264.356 89.8906 263.481 91.3398 263.481C93.1992 263.481 94.5117 264.958 94.5117 267.309C94.5117 269.661 93.1992 271.151 91.3535 271.151C89.9316 271.151 89.4531 270.276 89.1934 269.866H89.0566V271.001H87.9219ZM89.0703 267.282C89.0703 268.95 89.8223 270.098 91.1758 270.098C92.584 270.098 93.3223 268.868 93.3223 267.282C93.3223 265.737 92.6113 264.534 91.1758 264.534C89.8086 264.534 89.0703 265.641 89.0703 267.282ZM98.4902 262.565L96.9863 260.323H98.3535L99.5156 262.565H98.4902ZM95.6875 268.895C95.6875 267.186 97.1914 266.803 98.4766 266.708C98.9482 266.674 100.151 266.612 100.486 266.598V265.997C100.486 265.053 99.9258 264.507 98.8047 264.507C97.8613 264.507 97.3008 264.944 97.1367 265.505H95.9062C96.0566 264.315 97.2187 263.481 98.8594 263.481C99.8301 263.481 101.648 263.768 101.648 266.106V271.001H100.486V269.989H100.432C100.186 270.495 99.5019 271.178 98.2168 271.178C96.8086 271.178 95.6875 270.344 95.6875 268.895ZM96.8633 268.95C96.8633 269.729 97.5195 270.126 98.4219 270.126C99.748 270.126 100.486 269.237 100.486 268.307V267.555L98.6133 267.692C97.5469 267.76 96.8633 268.143 96.8633 268.95ZM103.535 271.001V263.577H104.711V271.001H103.535ZM104.123 262.346C103.672 262.346 103.303 262.005 103.303 261.567C103.303 261.13 103.672 260.788 104.123 260.788C104.574 260.788 104.957 261.13 104.957 261.567C104.957 262.005 104.574 262.346 104.123 262.346ZM116.209 263.577L113.461 271.001H112.244L109.51 263.577H110.795L112.818 269.469H112.9L114.924 263.577H116.209ZM117.508 271.001V263.577H118.684V271.001H117.508ZM118.096 262.346C117.645 262.346 117.275 262.005 117.275 261.567C117.275 261.13 117.645 260.788 118.096 260.788C118.547 260.788 118.93 261.13 118.93 261.567C118.93 262.005 118.547 262.346 118.096 262.346ZM123.674 271.151C121.527 271.151 120.201 269.634 120.201 267.35C120.201 265.067 121.541 263.481 123.564 263.481C125.123 263.481 126.764 264.438 126.764 267.186V267.678H121.377C121.432 269.251 122.348 270.112 123.674 270.112C124.562 270.112 125.123 269.729 125.396 269.264H126.654C126.299 270.385 125.205 271.151 123.674 271.151ZM121.008 262.647L122.977 260.897H124.043L126.012 262.647H124.617L123.51 261.635L122.416 262.647H121.008ZM125.492 261.485L126.449 259.749H127.871L126.504 261.485H125.492ZM121.391 266.68H125.574C125.574 265.436 124.781 264.52 123.564 264.52C122.279 264.52 121.459 265.532 121.391 266.68ZM131.535 263.577V264.561H129.977V268.868C129.977 269.825 130.441 269.975 130.947 269.975C131.166 269.975 131.467 269.962 131.645 269.948V271.042C131.467 271.069 131.166 271.096 130.824 271.096C129.84 271.096 128.787 270.481 128.787 269.169V264.561H127.666V263.577H128.787V261.8H129.977V263.577H131.535ZM142.678 263.577L139.93 271.001H138.713L135.979 263.577H137.264L139.287 269.469H139.369L141.393 263.577H142.678ZM146.82 271.151C144.674 271.151 143.348 269.634 143.348 267.35C143.348 265.067 144.687 263.481 146.711 263.481C148.27 263.481 149.91 264.438 149.91 267.186V267.678H144.523C144.578 269.251 145.494 270.112 146.82 270.112C147.709 270.112 148.27 269.729 148.543 269.264H149.801C149.445 270.385 148.352 271.151 146.82 271.151ZM147.162 260.911L149.145 262.661H147.75L146.643 261.635L145.549 262.661H144.154L146.109 260.911H147.162ZM143.717 259.721L144.66 261.499H143.662L142.281 259.721H143.717ZM144.537 266.68H148.721C148.721 265.436 147.928 264.52 146.711 264.52C145.426 264.52 144.605 265.532 144.537 266.68ZM154.955 271.001V263.577H156.09V264.739H156.186C156.5 263.946 157.211 263.481 158.182 263.481C159.152 263.481 159.809 263.946 160.164 264.739H160.246C160.629 263.973 161.408 263.481 162.475 263.481C163.801 263.481 164.744 264.288 164.744 266.038V271.001H163.568V266.052C163.568 264.958 162.871 264.534 162.064 264.534C161.025 264.534 160.437 265.231 160.437 266.175V271.001H159.248V265.928C159.248 265.094 158.646 264.534 157.799 264.534C156.91 264.534 156.131 265.286 156.131 266.366V271.001H154.955ZM169.078 262.565L167.574 260.323H168.941L170.104 262.565H169.078ZM166.275 268.895C166.275 267.186 167.779 266.803 169.064 266.708C169.536 266.674 170.739 266.612 171.074 266.598V265.997C171.074 265.053 170.514 264.507 169.393 264.507C168.449 264.507 167.889 264.944 167.725 265.505H166.494C166.645 264.315 167.807 263.481 169.447 263.481C170.418 263.481 172.236 263.768 172.236 266.106V271.001H171.074V269.989H171.02C170.773 270.495 170.09 271.178 168.805 271.178C167.396 271.178 166.275 270.344 166.275 268.895ZM167.451 268.95C167.451 269.729 168.107 270.126 169.01 270.126C170.336 270.126 171.074 269.237 171.074 268.307V267.555L169.201 267.692C168.135 267.76 167.451 268.143 167.451 268.95ZM178.812 267.952V263.577H179.975V271.001H178.812V269.743H178.73C178.375 270.495 177.65 271.096 176.529 271.096C175.121 271.096 174.123 270.18 174.123 268.294V263.577H175.299V268.212C175.299 269.278 175.969 269.962 176.912 269.962C177.746 269.962 178.812 269.333 178.812 267.952ZM189.504 265.505C189.34 264.889 188.875 264.479 188 264.479C187.084 264.479 186.428 264.971 186.428 265.6C186.428 266.093 186.824 266.434 187.699 266.639L188.807 266.913C190.133 267.227 190.789 267.884 190.789 268.923C190.789 270.208 189.736 271.151 187.877 271.151C186.209 271.151 185.211 270.413 185.02 269.059H186.25C186.387 269.784 186.92 270.126 187.85 270.126C188.902 270.126 189.572 269.688 189.572 268.991C189.572 268.471 189.203 268.116 188.355 267.925L187.234 267.665C185.936 267.364 185.252 266.653 185.252 265.669C185.252 264.397 186.359 263.481 188 263.481C189.531 263.481 190.502 264.302 190.652 265.505H189.504ZM197.27 261.307C197.27 262.141 196.49 262.716 195.219 262.716C193.961 262.716 193.182 262.141 193.182 261.307H194.275C194.275 261.718 194.521 262.073 195.219 262.073C195.916 262.073 196.176 261.718 196.176 261.307H197.27ZM194.822 261.171L195.547 259.858H196.641L195.561 261.171H194.822ZM191.965 268.895C191.965 267.186 193.469 266.803 194.754 266.708C195.226 266.674 196.429 266.612 196.764 266.598V265.997C196.764 265.053 196.203 264.507 195.082 264.507C194.139 264.507 193.578 264.944 193.414 265.505H192.184C192.334 264.315 193.496 263.481 195.137 263.481C196.107 263.481 197.926 263.768 197.926 266.106V271.001H196.764V269.989H196.709C196.463 270.495 195.779 271.178 194.494 271.178C193.086 271.178 191.965 270.344 191.965 268.895ZM193.141 268.95C193.141 269.729 193.797 270.126 194.699 270.126C196.025 270.126 196.764 269.237 196.764 268.307V267.555L194.891 267.692C193.824 267.76 193.141 268.143 193.141 268.95ZM202.848 271.151C200.742 271.151 199.457 269.552 199.457 267.323C199.457 265.067 200.797 263.481 202.82 263.481C204.406 263.481 205.582 264.411 205.773 265.819H204.598C204.434 265.135 203.832 264.52 202.848 264.52C201.521 264.52 200.633 265.614 200.633 267.282C200.633 269.005 201.494 270.098 202.848 270.098C203.723 270.098 204.393 269.634 204.598 268.813H205.773C205.582 270.139 204.502 271.151 202.848 271.151ZM23.9785 291.151C21.873 291.151 20.5879 289.552 20.5879 287.323C20.5879 285.067 21.9277 283.481 23.9512 283.481C25.5371 283.481 26.7129 284.411 26.9043 285.819H25.7285C25.5645 285.135 24.9629 284.52 23.9785 284.52C22.6523 284.52 21.7637 285.614 21.7637 287.282C21.7637 289.005 22.625 290.098 23.9785 290.098C24.8535 290.098 25.5234 289.634 25.7285 288.813H26.9043C26.7129 290.139 25.6328 291.151 23.9785 291.151ZM30.7734 282.565L31.9492 280.323H33.3027L31.7852 282.565H30.7734ZM27.998 288.895C27.998 287.186 29.502 286.803 30.7871 286.708C31.2588 286.674 32.4619 286.612 32.7969 286.598V285.997C32.7969 285.053 32.2363 284.507 31.1152 284.507C30.1719 284.507 29.6113 284.944 29.4473 285.505H28.2168C28.3672 284.315 29.5293 283.481 31.1699 283.481C32.1406 283.481 33.959 283.768 33.959 286.106V291.001H32.7969V289.989H32.7422C32.4961 290.495 31.8125 291.178 30.5273 291.178C29.1191 291.178 27.998 290.344 27.998 288.895ZM29.1738 288.95C29.1738 289.729 29.8301 290.126 30.7324 290.126C32.0586 290.126 32.7969 289.237 32.7969 288.307V287.555L30.9238 287.692C29.8574 287.76 29.1738 288.143 29.1738 288.95ZM40.5352 286.544V291.001H39.3594V283.577H40.4941V284.739H40.5898C40.9453 283.987 41.6289 283.481 42.7637 283.481C44.2676 283.481 45.2656 284.397 45.2656 286.284V291.001H44.0898V286.366C44.0898 285.218 43.4609 284.534 42.4082 284.534C41.3281 284.534 40.5352 285.259 40.5352 286.544ZM48.3281 286.544V291.001H47.1523V281.102H48.3281V284.739H48.4238C48.7656 283.973 49.4355 283.481 50.6113 283.481C52.1289 283.481 53.1406 284.384 53.1406 286.284V291.001H51.9648V286.366C51.9648 285.204 51.3223 284.534 50.2559 284.534C49.1484 284.534 48.3281 285.259 48.3281 286.544ZM58.9648 282.688L57.9531 281.348L56.9551 282.688H55.834V282.606L57.4199 280.596H58.4863L60.0723 282.606V282.688H58.9648ZM54.6719 288.895C54.6719 287.186 56.1758 286.803 57.4609 286.708C57.9326 286.674 59.1357 286.612 59.4707 286.598V285.997C59.4707 285.053 58.9102 284.507 57.7891 284.507C56.8457 284.507 56.2852 284.944 56.1211 285.505H54.8906C55.041 284.315 56.2031 283.481 57.8437 283.481C58.8144 283.481 60.6328 283.768 60.6328 286.106V291.001H59.4707V289.989H59.416C59.1699 290.495 58.4863 291.178 57.2012 291.178C55.793 291.178 54.6719 290.344 54.6719 288.895ZM55.8477 288.95C55.8477 289.729 56.5039 290.126 57.4062 290.126C58.7324 290.126 59.4707 289.237 59.4707 288.307V287.555L57.5977 287.692C56.5312 287.76 55.8477 288.143 55.8477 288.95ZM63.6953 286.544V291.001H62.5195V283.577H63.6543V284.739H63.75C64.1055 283.987 64.7891 283.481 65.9238 283.481C67.4277 283.481 68.4258 284.397 68.4258 286.284V291.001H67.25V286.366C67.25 285.218 66.6211 284.534 65.5684 284.534C64.4883 284.534 63.6953 285.259 63.6953 286.544ZM80.9355 283.03C80.9355 284.124 80.6143 284.924 79.7734 285.245C80.0674 285.833 80.2246 286.53 80.2246 287.323C80.2246 289.634 78.8711 291.151 76.8613 291.151C74.8379 291.151 73.4707 289.634 73.4707 287.323C73.4707 285.012 74.8379 283.481 76.8613 283.481C77.8594 283.481 78.7002 283.857 79.2949 284.52C79.7871 284.322 79.8691 283.768 79.8691 283.03H80.9355ZM76.8613 290.112C78.3516 290.112 79.0488 288.8 79.0488 287.323C79.0488 285.846 78.3516 284.52 76.8613 284.52C75.3437 284.52 74.6465 285.846 74.6465 287.323C74.6465 288.8 75.3437 290.112 76.8613 290.112ZM77.3672 282.565H76.3965V281.54C77.0664 281.499 77.3262 281.362 77.3262 281.048C77.3262 280.706 76.8613 280.555 76.2734 280.555L76.3144 279.817C77.668 279.817 78.3789 280.323 78.3789 281.089C78.3789 281.745 77.873 282.005 77.3672 282.087V282.565ZM88.0859 291.151C86.2402 291.151 84.9277 289.661 84.9277 287.309C84.9277 284.958 86.2402 283.481 88.0996 283.481C89.5351 283.481 90 284.356 90.2461 284.753H90.3281V282.934H88.3047V282.032H90.3281V281.102H91.5176V282.032H92.584V282.934H91.5176V291.001H90.3691V289.866H90.2461C89.9863 290.276 89.5078 291.151 88.0859 291.151ZM88.25 290.098C89.6035 290.098 90.3691 288.95 90.3691 287.282C90.3691 285.641 89.6309 284.534 88.25 284.534C86.8281 284.534 86.1172 285.737 86.1172 287.282C86.1172 288.868 86.8418 290.098 88.25 290.098ZM97.4922 282.688L96.4805 281.348L95.4824 282.688H94.3613V282.606L95.9473 280.596H97.0137L98.5996 282.606V282.688H97.4922ZM93.1992 288.895C93.1992 287.186 94.7031 286.803 95.9883 286.708C96.46 286.674 97.6631 286.612 97.998 286.598V285.997C97.998 285.053 97.4375 284.507 96.3164 284.507C95.373 284.507 94.8125 284.944 94.6484 285.505H93.418C93.5684 284.315 94.7305 283.481 96.3711 283.481C97.3418 283.481 99.1601 283.768 99.1601 286.106V291.001H97.998V289.989H97.9434C97.6973 290.495 97.0137 291.178 95.7285 291.178C94.3203 291.178 93.1992 290.344 93.1992 288.895ZM94.375 288.95C94.375 289.729 95.0312 290.126 95.9336 290.126C97.2598 290.126 97.998 289.237 97.998 288.307V287.555L96.125 287.692C95.0586 287.76 94.375 288.143 94.375 288.95ZM101.525 293.79C101.266 293.79 101.02 293.776 100.869 293.762V292.71C100.992 292.723 101.266 292.737 101.443 292.737C101.922 292.737 102.318 292.696 102.715 291.616L102.934 291.055L100.186 283.577H101.471L103.494 289.469H103.576L105.6 283.577H106.885L103.74 292.067C103.303 293.229 102.578 293.79 101.525 293.79ZM112.873 286.544V291.001H111.697V283.577H112.832V284.739H112.928C113.283 283.987 113.967 283.481 115.102 283.481C116.605 283.481 117.604 284.397 117.604 286.284V291.001H116.428V286.366C116.428 285.218 115.799 284.534 114.746 284.534C113.666 284.534 112.873 285.259 112.873 286.544ZM122.607 291.151C120.461 291.151 119.135 289.634 119.135 287.35C119.135 285.067 120.475 283.481 122.498 283.481C124.057 283.481 125.697 284.438 125.697 287.186V287.678H120.311C120.365 289.251 121.281 290.112 122.607 290.112C123.496 290.112 124.057 289.729 124.33 289.264H125.588C125.232 290.385 124.139 291.151 122.607 291.151ZM121.937 282.565L120.434 280.323H121.801L122.963 282.565H121.937ZM120.324 286.68H124.508C124.508 285.436 123.715 284.52 122.498 284.52C121.213 284.52 120.393 285.532 120.324 286.68ZM128.062 291.083C127.584 291.083 127.174 290.686 127.187 290.194C127.174 289.716 127.584 289.319 128.062 289.319C128.541 289.319 128.937 289.716 128.937 290.194C128.937 290.686 128.541 291.083 128.062 291.083Z" fill="#2C2C2C"/>
<circle cx="300" cy="228.001" r="12" fill="#FFF580"/>
<circle cx="300" cy="304.001" r="12" fill="#80B3E6"/>
<circle cx="281" cy="233.092" r="12" transform="rotate(-30 281 233.092)" fill="#FFD480"/>
<circle cx="319" cy="298.911" r="12" transform="rotate(-30 319 298.911)" fill="#80BEDD"/>
<circle cx="267.091" cy="247" r="12" transform="rotate(-60 267.091 247)" fill="#FEAA80"/>
<circle cx="332.909" cy="285.001" r="12" transform="rotate(-60 332.909 285.001)" fill="#80C7D5"/>
<circle cx="262" cy="266.001" r="12" transform="rotate(-90 262 266.001)" fill="#FF8080"/>
<circle cx="338" cy="266.001" r="12" transform="rotate(-90 338 266.001)" fill="#80CBCB"/>
<circle cx="267.091" cy="285" r="12" transform="rotate(-120 267.091 285)" fill="#FB8094"/>
<circle cx="332.909" cy="247.002" r="12" transform="rotate(-120 332.909 247.002)" fill="#80D58E"/>
<circle cx="281" cy="298.91" r="12" transform="rotate(-150 281 298.91)" fill="#B880F2"/>
<circle cx="318.999" cy="233.093" r="12" transform="rotate(-150 318.999 233.093)" fill="#DCEF80"/>
</svg>
