<svg width="158" height="57" viewBox="0 0 158 57" fill="none" xmlns="http://www.w3.org/2000/svg">
<path d="M25.4062 22.9844C24.4453 19.7969 21.8906 17.8516 18.1875 17.8281C12.9375 17.8516 9.375 21.8594 9.375 28.9844C9.375 36.1562 12.8203 40.2109 18.2344 40.2344C23.0859 40.2109 25.9688 37.4688 26.0625 33.2031H18.7031V27.9062H32.8594V32.125C32.8594 41.0312 26.7422 46.4688 18.1875 46.4688C8.67188 46.4688 2.20312 39.8125 2.20312 29.0781C2.20312 18.0625 9.09375 11.5938 18.0469 11.5938C25.7109 11.5938 31.5938 16.3047 32.5312 22.9844H25.4062ZM44.8125 12.0625V46H37.875V12.0625H44.8125ZM61.6406 46.5156C53.9531 46.4922 49.1484 41.2188 49.1719 33.3438C49.1484 25.4922 53.9531 20.2188 61.6406 20.2188C69.3516 20.2188 74.1328 25.4922 74.1562 33.3438C74.1328 41.2188 69.3516 46.4922 61.6406 46.5156ZM56.2031 33.3438C56.2031 37.7969 58.0547 41.1016 61.6875 41.125C65.2266 41.1016 67.1016 37.7969 67.0781 33.3438C67.1016 28.8672 65.2266 25.5156 61.6875 25.5156C58.0547 25.5156 56.2031 28.8672 56.2031 33.3438ZM82.875 46L75.9375 20.5469H82.9688L86.9531 37.75H87.1875L91.3594 20.5469H98.25L102.469 37.6562H102.703L106.641 20.5469H113.672L106.688 46H99.375L94.9688 29.8281H94.6406L90.2344 46H82.875Z" fill="#111111"/>
<path d="M129.859 46V12.0625H143.359C150.836 12.0625 154.633 15.6719 154.609 20.7812C154.633 24.7656 152.008 27.2734 148.516 28.0469V28.375C152.336 28.5625 155.945 31.6094 155.969 36.625C155.945 42.0156 151.914 46 144.25 46H129.859ZM136.891 40.1875H142.844C146.922 40.2109 148.68 38.5234 148.656 35.9688C148.68 33.1094 146.5 31.0938 143.031 31.0938H136.891V40.1875ZM136.891 26.2656H142.328C145.281 26.2891 147.508 24.625 147.484 21.9062C147.508 19.4453 145.68 17.7812 142.469 17.7812H136.891V26.2656Z" fill="#111111"/>
<path d="M115.75 40.6154L115.068 37.8462L117.795 38.5385L119.5 33L121.205 38.5385L123.932 37.8462L123.25 40.6154L127 42L123.25 43.3846L123.932 46.5L121.205 45.8077L119.5 51L117.795 45.8077L114.727 46.5L115.75 43.3846L112 42L115.75 40.6154Z" fill="#111111"/>
</svg>
