<svg width="228" height="152" viewBox="0 0 228 152" fill="none" xmlns="http://www.w3.org/2000/svg">
<path d="M111.205 19.6321C111.207 20.8574 112.294 21.8524 113.629 21.8524C114.964 21.8524 116.046 20.8574 116.043 19.6229L116.04 18.0211C116.039 17.9166 116.109 17.8249 116.209 17.7934C119.378 16.798 121.572 14.0391 121.566 10.8799L121.563 9.70069C121.554 5.71154 118.054 2.38571 113.757 2.30279C111.599 2.25673 109.563 3.00297 108.02 4.38489C106.487 5.76682 105.637 7.62781 105.642 9.60856C105.644 10.8431 106.741 11.8381 108.076 11.8381C109.411 11.8381 110.493 10.8431 110.49 9.61778C110.489 8.8439 110.818 8.11609 111.419 7.57253C112.021 7.02897 112.813 6.73416 113.666 6.75259C115.353 6.78944 116.721 8.11609 116.724 9.70991L116.727 10.8799C116.73 12.2619 115.668 13.4503 114.193 13.6991C112.457 13.9939 111.195 15.385 111.199 17.0065L111.205 19.6321Z" fill="#F8312F"/>
<path d="M113.555 28.2303C114.862 28.2303 115.92 27.1771 115.917 25.8778C115.914 24.5786 114.852 23.5254 113.545 23.5254C112.237 23.5254 111.18 24.5786 111.183 25.8778C111.186 27.1771 112.248 28.2303 113.555 28.2303Z" fill="#F8312F"/>
<path d="M57.5937 114.111H51.3437V139.9C49.0051 134.097 43.3436 129.955 36.7188 129.955H30.25C29.75 129.955 29.375 130.361 29.375 130.83V132.143C29.375 139.643 35.4687 145.736 42.6875 145.799L51.6875 145.83C51.7939 145.83 51.8966 145.808 51.9907 145.768H57.5937V145.747C57.7062 145.8 57.8328 145.83 57.9687 145.83H64.4375C72.875 145.83 79.75 139.111 80.1875 130.799C80.2187 130.33 79.8437 129.955 79.4062 129.955L70.4062 129.986C64.4098 130.038 59.1896 134.252 57.5937 139.976V114.111Z" fill="#86D72F"/>
<path d="M70.0938 111.299H38.7812V92.4863C38.7812 80.8926 43.4062 69.7988 51.5938 61.6426L51.625 61.6113C53.125 60.1113 55.5625 60.1113 57.0625 61.6113C65.4062 69.7988 70.0938 81.0176 70.0938 92.7051V111.299Z" fill="#F70A8D"/>
<path d="M82 63.9553C82 62.1428 80.8438 60.5803 79.4063 60.549C69.1875 60.4865 60.4062 75.4553 56.5313 90.1115C55.8438 92.7053 53.0312 92.6428 52.3438 90.049C48.5 75.4553 39.75 60.549 29.5625 60.549C28.0938 60.549 26.9062 62.0803 26.9062 63.9553V83.3615L26.875 83.3303C26.875 84.549 26.9375 85.7678 27.0313 86.9553C27.2813 90.3928 27.9375 96.5803 28.9688 99.6115C33.0938 112.393 42.9375 118.455 54.4688 118.455C65.125 118.455 74.375 113.643 78.9375 102.362C80.9063 97.799 82.0313 89.674 82.0313 84.1115L82 63.9553Z" fill="#FF6DC6"/>
<path d="M215.864 106.744L208.614 105.369C208.176 105.275 207.958 104.775 208.176 104.4L214.926 93.5565C215.208 93.0878 214.864 92.5253 214.333 92.5565L201.614 93.7128C201.176 93.744 200.801 93.3377 200.926 92.9002L202.926 85.9003C203.083 85.3378 202.458 84.8691 201.958 85.1816L188.364 93.7753C187.895 94.0566 187.301 93.6815 187.364 93.1503L191.364 63.994C191.426 63.4627 190.864 63.0566 190.395 63.3691L180.114 69.6191C179.801 69.8066 179.364 69.6816 179.208 69.3691L173.395 57.7129C173.145 57.2441 172.489 57.2441 172.239 57.7129L166.426 69.3691C166.27 69.7128 165.833 69.8379 165.52 69.6504L154.895 63.3691C154.426 63.0879 153.833 63.494 153.926 64.0253L159.02 93.1503C159.114 93.6815 158.52 94.0879 158.051 93.8066L143.645 85.1503C143.145 84.8378 142.52 85.3065 142.676 85.869L144.708 92.9315C144.833 93.369 144.489 93.8065 144.02 93.744L131.301 92.5878C130.77 92.5253 130.426 93.1191 130.708 93.5878L137.458 104.431C137.708 104.806 137.489 105.338 137.02 105.4L129.77 106.775C129.208 106.869 129.051 107.619 129.551 107.963L149.989 121.369C150.52 121.713 150.645 122.4 150.301 122.932L144.27 131.525C143.989 131.932 144.395 132.494 144.864 132.307L171.051 122.744C172.176 122.338 173.426 122.338 174.551 122.744L200.739 132.307C201.208 132.494 201.645 131.932 201.333 131.525L195.301 122.932C194.958 122.432 195.083 121.713 195.614 121.369L216.051 107.963C216.583 107.588 216.426 106.838 215.864 106.744Z" fill="#FF8A00"/>
<path d="M172.833 86.3379C174.558 86.3379 175.958 87.737 175.958 89.4629V114.841L192.965 106.091C194.5 105.301 196.384 105.905 197.174 107.44C197.963 108.974 197.359 110.859 195.825 111.648L175.958 121.87V141.65C175.958 143.376 174.558 144.775 172.833 144.775C171.107 144.775 169.708 143.376 169.708 141.65V121.87L149.84 111.648C148.306 110.859 147.702 108.974 148.491 107.44C149.281 105.905 151.165 105.301 152.7 106.091L169.708 114.841V89.4629C169.708 87.737 171.107 86.3379 172.833 86.3379Z" fill="#CA0B4A"/>
</svg>
