<svg width="208" height="163" viewBox="0 0 208 163" fill="none" xmlns="http://www.w3.org/2000/svg">
<path d="M164.637 59.0625L180.611 54.8125C182.341 54.3438 184.164 55.2812 184.636 57.0312C185.108 58.7812 184.07 60.5313 182.341 61L172.624 63.5938L179.573 67.5625C181.083 68.4375 181.617 70.3438 180.737 71.8438C179.856 73.3438 177.938 73.875 176.429 73L169.48 69.0312L172.089 78.6875C172.561 80.4375 171.555 82.1875 169.794 82.6562C168.033 83.125 166.272 82.0937 165.8 80.375L161.524 64.5L154.292 60.3438C152.059 62.8125 149.103 64.625 145.707 65.3125V73.5312L157.405 85.1562C158.662 86.4062 158.662 88.4688 157.405 89.7188C156.147 90.9687 154.071 90.9687 152.814 89.7188L145.707 82.6562V90.625C145.707 92.3438 144.292 93.75 142.562 93.75C140.833 93.75 139.418 92.3438 139.418 90.625V82.6875L132.311 89.75C131.054 91 128.978 91 127.72 89.75C126.463 88.5 126.463 86.4375 127.72 85.1875L139.418 73.5625V65.3438C135.99 64.6562 133.066 62.8438 130.833 60.375L123.633 64.5L119.356 80.375C118.884 82.0937 117.092 83.125 115.362 82.6562C113.633 82.1875 112.595 80.4062 113.067 78.6875L115.677 69.0312L108.728 73.0312C107.218 73.875 105.3 73.375 104.42 71.875C103.539 70.375 104.074 68.4688 105.552 67.6562L112.501 63.6563L102.784 61.0625C101.055 60.5938 100.017 58.8125 100.489 57.0938C100.961 55.375 102.753 54.3438 104.482 54.8125L120.457 59.0625L127.689 54.9062C127.154 53.375 126.808 51.7188 126.808 50C126.808 48.2812 127.154 46.625 127.689 45.1562L120.457 41L104.482 45.25C102.721 45.7187 100.961 44.6875 100.489 42.9688C100.017 41.2188 101.055 39.4687 102.784 39L112.501 36.4062L105.552 32.4062C104.074 31.5312 103.539 29.625 104.42 28.125C105.269 26.625 107.218 26.125 108.696 26.9688L115.677 30.9688L113.067 21.3125C112.595 19.5938 113.633 17.8438 115.362 17.375C117.092 16.9062 118.853 17.9375 119.325 19.6562L123.601 35.5312L130.802 39.6562C133.035 37.1875 135.99 35.375 139.387 34.6875V26.4688L127.689 14.8438C126.431 13.5937 126.431 11.5312 127.689 10.2812C128.947 9.03125 131.022 9.03125 132.28 10.2812L139.387 17.3438V9.375C139.387 7.65625 140.802 6.25 142.531 6.25C144.261 6.25 145.676 7.65625 145.676 9.375V17.3438L152.782 10.2812C154.04 9.03125 156.115 9.03125 157.373 10.2812C158.631 11.5312 158.631 13.5937 157.373 14.8438L145.676 26.4688V34.6875C149.072 35.375 152.027 37.1875 154.229 39.625L161.461 35.4688L165.738 19.5938C166.209 17.875 168.002 16.8438 169.731 17.3125C171.461 17.7812 172.498 19.5625 172.027 21.2812L169.417 30.9375L176.366 26.9688C177.875 26.125 179.794 26.625 180.674 28.125C181.523 29.625 181.02 31.5312 179.542 32.375L172.593 36.3438L182.309 38.9375C184.039 39.4062 185.076 41.1875 184.605 42.9062C184.133 44.625 182.341 45.6562 180.611 45.1875L164.637 40.9375L157.405 45.0938C157.939 46.625 158.285 48.2812 158.285 50C158.285 51.7188 157.939 53.3438 157.405 54.9062L164.637 59.0625ZM151.965 50C151.965 44.8223 147.741 40.625 142.531 40.625C137.321 40.625 133.098 44.8223 133.098 50C133.098 55.1777 137.321 59.375 142.531 59.375C147.741 59.375 151.965 55.1777 151.965 50Z" fill="#71D4FF"/>
<path d="M127.818 142.531L135.806 140.406C136.67 140.172 137.582 140.641 137.818 141.516C138.054 142.391 137.535 143.266 136.67 143.5L131.812 144.797L135.287 146.781C136.041 147.219 136.309 148.172 135.868 148.922C135.428 149.672 134.469 149.938 133.714 149.5L130.24 147.516L131.545 152.344C131.781 153.219 131.277 154.094 130.397 154.328C129.517 154.562 128.636 154.047 128.4 153.188L126.262 145.25L122.646 143.172C121.529 144.406 120.052 145.312 118.354 145.656V149.766L124.202 155.578C124.831 156.203 124.831 157.234 124.202 157.859C123.573 158.484 122.536 158.484 121.907 157.859L118.354 154.328V158.312C118.354 159.172 117.646 159.875 116.781 159.875C115.917 159.875 115.209 159.172 115.209 158.312V154.344L111.656 157.875C111.027 158.5 109.989 158.5 109.36 157.875C108.731 157.25 108.731 156.219 109.36 155.594L115.209 149.781V145.672C113.495 145.328 112.033 144.422 110.917 143.188L107.316 145.25L105.178 153.188C104.942 154.047 104.046 154.562 103.181 154.328C102.316 154.094 101.798 153.203 102.033 152.344L103.338 147.516L99.8638 149.516C99.1091 149.938 98.15 149.688 97.7098 148.938C97.2695 148.188 97.5368 147.234 98.2758 146.828L101.75 144.828L96.8922 143.531C96.0274 143.297 95.5086 142.406 95.7444 141.547C95.9803 140.688 96.8765 140.172 97.7412 140.406L105.728 142.531L109.344 140.453C109.077 139.688 108.904 138.859 108.904 138C108.904 137.141 109.077 136.312 109.344 135.578L105.728 133.5L97.7412 135.625C96.8607 135.859 95.9803 135.344 95.7444 134.484C95.5086 133.609 96.0274 132.734 96.8922 132.5L101.75 131.203L98.2758 129.203C97.5368 128.766 97.2695 127.812 97.7098 127.062C98.1343 126.312 99.1091 126.062 99.848 126.484L103.338 128.484L102.033 123.656C101.798 122.797 102.316 121.922 103.181 121.688C104.046 121.453 104.926 121.969 105.162 122.828L107.301 130.766L110.901 132.828C112.017 131.594 113.495 130.688 115.193 130.344V126.234L109.344 120.422C108.716 119.797 108.716 118.766 109.344 118.141C109.973 117.516 111.011 117.516 111.64 118.141L115.193 121.672V117.688C115.193 116.828 115.901 116.125 116.766 116.125C117.63 116.125 118.338 116.828 118.338 117.688V121.672L121.891 118.141C122.52 117.516 123.558 117.516 124.187 118.141C124.815 118.766 124.815 119.797 124.187 120.422L118.338 126.234V130.344C120.036 130.688 121.514 131.594 122.614 132.812L126.231 130.734L128.369 122.797C128.605 121.938 129.501 121.422 130.366 121.656C131.23 121.891 131.749 122.781 131.513 123.641L130.208 128.469L133.683 126.484C134.438 126.062 135.397 126.312 135.837 127.062C136.262 127.812 136.01 128.766 135.271 129.187L131.796 131.172L136.655 132.469C137.519 132.703 138.038 133.594 137.802 134.453C137.566 135.312 136.67 135.828 135.806 135.594L127.818 133.469L124.202 135.547C124.47 136.312 124.643 137.141 124.643 138C124.643 138.859 124.47 139.672 124.202 140.453L127.818 142.531ZM121.482 138C121.482 135.411 119.371 133.312 116.766 133.312C114.161 133.312 112.049 135.411 112.049 138C112.049 140.589 114.161 142.688 116.766 142.688C119.371 142.688 121.482 140.589 121.482 138Z" fill="#A7E5FF"/>
<path d="M65.3368 91.5719L76.0395 88.7244C77.1982 88.4103 78.4202 89.0384 78.7362 90.2109C79.0522 91.3834 78.357 92.5559 77.1982 92.87L70.6881 94.6078L75.3442 97.2669C76.3555 97.8531 76.7136 99.1303 76.1237 100.135C75.5338 101.14 74.2487 101.496 73.2374 100.91L68.5813 98.2509L70.33 104.721C70.646 105.893 69.9718 107.066 68.792 107.38C67.6122 107.694 66.4323 107.003 66.1163 105.851L63.251 95.215L58.4053 92.4303C56.9095 94.0844 54.9291 95.2988 52.6537 95.7594V101.266L60.4911 109.055C61.3338 109.892 61.3338 111.274 60.4911 112.112C59.6484 112.949 58.2579 112.949 57.4151 112.112L52.6537 107.38V112.719C52.6537 113.87 51.7056 114.812 50.5469 114.812C49.3881 114.812 48.44 113.87 48.44 112.719V107.401L43.6786 112.132C42.8359 112.97 41.4454 112.97 40.6027 112.132C39.7599 111.295 39.7599 109.913 40.6027 109.076L48.44 101.287V95.7803C46.1436 95.3197 44.1843 94.1053 42.6884 92.4512L37.8638 95.215L34.9985 105.851C34.6825 107.003 33.4816 107.694 32.3228 107.38C31.1641 107.066 30.4688 105.872 30.7849 104.721L32.5335 98.2509L27.8774 100.931C26.8662 101.496 25.581 101.161 24.9911 100.156C24.4012 99.1513 24.7593 97.8741 25.7495 97.3297L30.4056 94.6497L23.8955 92.9119C22.7368 92.5978 22.0415 91.4044 22.3576 90.2528C22.6736 89.1012 23.8745 88.4103 25.0332 88.7244L35.7359 91.5719L40.5816 88.7872C40.2234 87.7612 39.9917 86.6516 39.9917 85.5C39.9917 84.3484 40.2234 83.2388 40.5816 82.2547L35.7359 79.47L25.0332 82.3175C23.8534 82.6316 22.6736 81.9406 22.3576 80.7891C22.0415 79.6166 22.7368 78.4441 23.8955 78.13L30.4056 76.3922L25.7495 73.7122C24.7593 73.1259 24.4012 71.8488 24.9911 70.8438C25.5599 69.8387 26.8662 69.5037 27.8564 70.0691L32.5335 72.7491L30.7849 66.2794C30.4688 65.1278 31.1641 63.9553 32.3228 63.6412C33.4816 63.3272 34.6614 64.0181 34.9774 65.1697L37.8427 75.8059L42.6673 78.5697C44.1632 76.9156 46.1436 75.7013 48.419 75.2406V69.7341L40.5816 61.9453C39.7389 61.1078 39.7389 59.7259 40.5816 58.8884C41.4243 58.0509 42.8148 58.0509 43.6576 58.8884L48.419 63.6203V58.2812C48.419 57.1297 49.3671 56.1875 50.5258 56.1875C51.6846 56.1875 52.6326 57.1297 52.6326 58.2812V63.6203L57.3941 58.8884C58.2368 58.0509 59.6273 58.0509 60.47 58.8884C61.3128 59.7259 61.3128 61.1078 60.47 61.9453L52.6326 69.7341V75.2406C54.908 75.7013 56.8884 76.9156 58.3632 78.5487L63.2089 75.7641L66.0742 65.1278C66.3902 63.9763 67.5911 63.2853 68.7498 63.5994C69.9086 63.9134 70.6039 65.1069 70.2878 66.2584L68.5392 72.7281L73.1952 70.0691C74.2065 69.5037 75.4917 69.8387 76.0816 70.8438C76.6504 71.8488 76.3133 73.1259 75.3231 73.6912L70.667 76.3503L77.1771 78.0881C78.3359 78.4022 79.0312 79.5956 78.7151 80.7472C78.3991 81.8988 77.1982 82.5897 76.0395 82.2756L65.3368 79.4281L60.4911 82.2128C60.8492 83.2388 61.081 84.3484 61.081 85.5C61.081 86.6516 60.8492 87.7403 60.4911 88.7872L65.3368 91.5719ZM56.8464 85.5C56.8464 82.031 54.0166 79.2188 50.5259 79.2188C47.0352 79.2188 44.2054 82.031 44.2054 85.5C44.2054 88.969 47.0352 91.7812 50.5259 91.7812C54.0166 91.7812 56.8464 88.969 56.8464 85.5Z" fill="#9BE1FF"/>
</svg>
