<svg width="52" height="53" viewBox="0 0 52 53" fill="none" xmlns="http://www.w3.org/2000/svg">
<rect x="0.5" y="0.958984" width="51" height="51" rx="25.5" fill="#F4F5F8"/>
<rect x="0.5" y="0.958984" width="51" height="51" rx="25.5" stroke="#E5E6EA"/>
<path d="M32.9021 22.0096C34.9599 23.4859 37.4808 24.3544 40.2035 24.3544V19.0965C39.6882 19.0966 39.1743 19.0427 38.6702 18.9355V23.0742C35.9477 23.0742 33.4271 22.2057 31.3688 20.7295V31.4595C31.3688 36.8272 27.0329 41.1782 21.6846 41.1782C19.689 41.1782 17.8342 40.5728 16.2935 39.5344C18.052 41.3389 20.5044 42.4583 23.2176 42.4583C28.5662 42.4583 32.9023 38.1073 32.9023 32.7394V22.0096H32.9021ZM34.7937 16.705C33.742 15.552 33.0515 14.0619 32.9021 12.4146V11.7383H31.449C31.8148 13.832 33.0623 15.6208 34.7937 16.705ZM19.6762 35.4154C19.0887 34.6423 18.7712 33.6965 18.7726 32.724C18.7726 30.269 20.7558 28.2785 23.2025 28.2785C23.6585 28.2784 24.1118 28.3485 24.5463 28.4868V23.1114C24.0385 23.0415 23.526 23.0119 23.0136 23.0227V27.2067C22.5788 27.0684 22.1253 26.9981 21.6692 26.9985C19.2224 26.9985 17.2393 28.9888 17.2393 31.4441C17.2393 33.1802 18.2306 34.6832 19.6762 35.4154Z" fill="#FF004F"/>
<path d="M31.3686 20.7294C33.427 22.2055 35.9475 23.0741 38.67 23.0741V18.9354C37.1503 18.6105 35.805 17.8135 34.7935 16.705C33.0621 15.6207 31.8147 13.8319 31.4489 11.7383H27.6321V32.7391C27.6235 35.1874 25.6437 37.1698 23.2022 37.1698C21.7634 37.1698 20.4853 36.4816 19.6758 35.4154C18.2303 34.6832 17.239 33.1801 17.239 31.4442C17.239 28.9892 19.2221 26.9986 21.6688 26.9986C22.1376 26.9986 22.5894 27.0719 23.0133 27.2069V23.0228C17.7589 23.1318 13.5332 27.4403 13.5332 32.7393C13.5332 35.3844 14.5855 37.7824 16.2934 39.5345C17.8342 40.5728 19.689 41.1783 21.6846 41.1783C27.0329 41.1783 31.3687 36.8271 31.3687 31.4595V20.7294H31.3686Z" fill="black"/>
<path d="M38.6701 18.9361V17.817C37.2997 17.819 35.9562 17.4339 34.7935 16.7056C35.8228 17.8364 37.1781 18.6161 38.6701 18.9361ZM31.4489 11.739C31.414 11.5389 31.3872 11.3375 31.3686 11.1353V10.459H26.0987V31.4601C26.0903 33.908 24.1106 35.8904 21.6688 35.8904C20.952 35.8904 20.2752 35.7196 19.6758 35.4162C20.4853 36.4822 21.7635 37.1704 23.2022 37.1704C25.6435 37.1704 27.6236 35.1882 27.6321 32.7399V11.739H31.4489ZM23.0135 23.0235V21.8322C22.5732 21.7718 22.1292 21.7415 21.6847 21.7417C16.3359 21.7416 12 26.0928 12 31.4601C12 34.825 13.7041 37.7906 16.2936 39.535C14.5857 37.783 13.5333 35.3849 13.5333 32.7398C13.5333 27.441 17.759 23.1325 23.0135 23.0235Z" fill="#00F2EA"/>
</svg>
