<svg width="228" height="152" viewBox="0 0 228 152" fill="none" xmlns="http://www.w3.org/2000/svg">
<path d="M111.205 19.6321C111.207 20.8574 112.294 21.8524 113.629 21.8524C114.964 21.8524 116.046 20.8574 116.043 19.6229L116.04 18.0211C116.039 17.9166 116.109 17.8249 116.209 17.7934C119.378 16.798 121.572 14.0391 121.566 10.8799L121.563 9.70069C121.554 5.71154 118.054 2.38571 113.757 2.30279C111.599 2.25673 109.563 3.00297 108.02 4.38489C106.487 5.76682 105.637 7.62781 105.642 9.60856C105.644 10.8431 106.741 11.8381 108.076 11.8381C109.411 11.8381 110.493 10.8431 110.49 9.61778C110.489 8.8439 110.818 8.11609 111.419 7.57253C112.021 7.02897 112.813 6.73416 113.666 6.75259C115.353 6.78944 116.721 8.11609 116.724 9.70991L116.727 10.8799C116.73 12.2619 115.668 13.4503 114.193 13.6991C112.457 13.9939 111.195 15.385 111.199 17.0065L111.205 19.6321Z" fill="#F8312F"/>
<path d="M113.555 28.2303C114.862 28.2303 115.92 27.1771 115.917 25.8778C115.914 24.5786 114.852 23.5254 113.545 23.5254C112.237 23.5254 111.18 24.5786 111.183 25.8778C111.186 27.1771 112.248 28.2303 113.555 28.2303Z" fill="#F8312F"/>
<path d="M15.6563 141.844H84.3438C89.5312 141.844 93.75 137.625 93.75 132.438V113.688C93.75 110.25 90.9688 107.438 87.5 107.438H12.5C9.0625 107.438 6.25 110.219 6.25 113.688L6.25 132.438C6.25 137.656 10.4688 141.844 15.6563 141.844Z" fill="#FFCF80"/>
<path d="M87.5 104.344H12.5C9.0625 104.344 6.25 107.125 6.25 110.594V116.844H93.7188V110.594C93.7188 107.156 90.9375 104.344 87.5 104.344Z" fill="#67DAFF"/>
<path d="M75.7813 72.9063L22.25 126.438C21.625 127.063 21.625 128.062 22.25 128.688C22.875 129.312 23.875 129.312 24.5 128.688L78.0312 75.1562C78.6562 74.5312 78.6562 73.5312 78.0312 72.9063C77.4062 72.2813 76.4063 72.2813 75.7813 72.9063Z" fill="#7D4533"/>
<path d="M71.3124 129.062C73.6874 131.437 77.4062 131.625 79.1874 129.312C91.3749 113.375 90.0937 90.3748 75.4062 75.6873C60.7187 60.9998 37.6562 59.6873 21.7187 71.8748C19.4062 73.6248 19.5937 77.3436 21.9687 79.7186L24.3437 82.0936L59.2812 91.7186L68.9062 126.656L71.3124 129.062Z" fill="#FF4644"/>
<path d="M68.875 126.656C84.75 110.781 87.625 87.9689 75.3125 75.6564C63 63.3439 40.2188 66.2189 24.3438 82.0939L68.875 126.656Z" fill="#F4F4F4"/>
<path d="M57.7187 115.468C73.5937 99.5931 81.4688 81.7493 75.3125 75.6243C69.1562 69.4993 51.3438 77.3743 35.4688 93.2493L57.7187 115.468Z" fill="#FF4644"/>
<path d="M201.637 110.174L217.611 105.924C219.341 105.455 221.164 106.393 221.636 108.143C222.108 109.893 221.07 111.643 219.341 112.111L209.624 114.705L216.573 118.674C218.083 119.549 218.617 121.455 217.737 122.955C216.856 124.455 214.938 124.986 213.429 124.111L206.48 120.143L209.089 129.799C209.561 131.549 208.555 133.299 206.794 133.768C205.033 134.236 203.272 133.205 202.8 131.486L198.524 115.611L191.292 111.455C189.059 113.924 186.103 115.736 182.707 116.424V124.643L194.405 136.268C195.662 137.518 195.662 139.58 194.405 140.83C193.147 142.08 191.071 142.08 189.814 140.83L182.707 133.768V141.736C182.707 143.455 181.292 144.861 179.562 144.861C177.833 144.861 176.418 143.455 176.418 141.736V133.799L169.311 140.861C168.054 142.111 165.978 142.111 164.72 140.861C163.463 139.611 163.463 137.549 164.72 136.299L176.418 124.674V116.455C172.99 115.768 170.066 113.955 167.833 111.486L160.633 115.611L156.356 131.486C155.884 133.205 154.092 134.236 152.362 133.768C150.633 133.299 149.595 131.518 150.067 129.799L152.677 120.143L145.728 124.143C144.218 124.986 142.3 124.486 141.42 122.986C140.539 121.486 141.074 119.58 142.552 118.768L149.501 114.768L139.784 112.174C138.055 111.705 137.017 109.924 137.489 108.205C137.961 106.486 139.753 105.455 141.482 105.924L157.457 110.174L164.689 106.018C164.154 104.486 163.808 102.83 163.808 101.111C163.808 99.3926 164.154 97.7363 164.689 96.2676L157.457 92.1113L141.482 96.3613C139.721 96.8301 137.961 95.7988 137.489 94.0801C137.017 92.3301 138.055 90.5801 139.784 90.1113L149.501 87.5176L142.552 83.5176C141.074 82.6426 140.539 80.7363 141.42 79.2363C142.269 77.7363 144.218 77.2363 145.696 78.0801L152.677 82.0801L150.067 72.4238C149.595 70.7051 150.633 68.9551 152.362 68.4863C154.092 68.0176 155.853 69.0488 156.325 70.7676L160.601 86.6426L167.802 90.7676C170.035 88.2988 172.99 86.4863 176.387 85.7988V77.5801L164.689 65.9551C163.431 64.7051 163.431 62.6426 164.689 61.3926C165.947 60.1426 168.022 60.1426 169.28 61.3926L176.387 68.4551V60.4863C176.387 58.7676 177.802 57.3613 179.531 57.3613C181.261 57.3613 182.676 58.7676 182.676 60.4863V68.4551L189.782 61.3926C191.04 60.1426 193.115 60.1426 194.373 61.3926C195.631 62.6426 195.631 64.7051 194.373 65.9551L182.676 77.5801V85.7988C186.072 86.4863 189.027 88.2988 191.229 90.7363L198.461 86.5801L202.738 70.7051C203.209 68.9863 205.002 67.9551 206.731 68.4238C208.461 68.8926 209.498 70.6738 209.027 72.3926L206.417 82.0488L213.366 78.0801C214.875 77.2363 216.794 77.7363 217.674 79.2363C218.523 80.7363 218.02 82.6426 216.542 83.4863L209.593 87.4551L219.309 90.0488C221.039 90.5176 222.076 92.2988 221.605 94.0176C221.133 95.7363 219.341 96.7676 217.611 96.2988L201.637 92.0488L194.405 96.2051C194.939 97.7363 195.285 99.3926 195.285 101.111C195.285 102.83 194.939 104.455 194.405 106.018L201.637 110.174ZM188.965 101.111C188.965 95.9337 184.741 91.7363 179.531 91.7363C174.321 91.7363 170.098 95.9337 170.098 101.111C170.098 106.289 174.321 110.486 179.531 110.486C184.741 110.486 188.965 106.289 188.965 101.111Z" fill="#71D4FF"/>
</svg>
