<svg width="24" height="24" viewBox="0 0 24 24" fill="none" xmlns="http://www.w3.org/2000/svg">
<g clip-path="url(#clip0_1423_12338)">
<path d="M18.3531 15.9982C17.9041 15.9999 17.4601 16.0923 17.0477 16.2699C16.6352 16.4475 16.263 16.7065 15.9531 17.0315L7.82647 12.9649C8.02638 12.3587 8.02638 11.7044 7.82647 11.0982L15.9665 6.95821C16.5495 7.57263 17.3402 7.94831 18.1848 8.01225C19.0294 8.07618 19.8676 7.82379 20.5365 7.30414C21.2054 6.78448 21.6572 6.03469 21.8041 5.20049C21.9509 4.36629 21.7824 3.50729 21.3312 2.79043C20.88 2.07358 20.1784 1.55009 19.3627 1.32172C18.5471 1.09335 17.6756 1.17641 16.9178 1.55475C16.16 1.9331 15.5699 2.5797 15.2622 3.36888C14.9546 4.15806 14.9513 5.03344 15.2531 5.82488L7.19314 9.92488C6.75783 9.39251 6.16853 9.0078 5.50601 8.82349C4.84349 8.63919 4.14018 8.6643 3.49249 8.89539C2.8448 9.12648 2.28444 9.55223 1.88821 10.1143C1.49199 10.6763 1.2793 11.3472 1.2793 12.0349C1.2793 12.7226 1.49199 13.3934 1.88821 13.9555C2.28444 14.5175 2.8448 14.9433 3.49249 15.1744C4.14018 15.4055 4.84349 15.4306 5.50601 15.2463C6.16853 15.062 6.75783 14.6772 7.19314 14.1449L15.2331 18.1915C15.0973 18.5563 15.0273 18.9423 15.0265 19.3315C15.0265 19.9908 15.222 20.6353 15.5882 21.1834C15.9545 21.7316 16.4751 22.1588 17.0842 22.4111C17.6933 22.6634 18.3635 22.7294 19.0101 22.6008C19.6567 22.4722 20.2507 22.1547 20.7168 21.6886C21.183 21.2224 21.5005 20.6284 21.6291 19.9818C21.7577 19.3352 21.6917 18.665 21.4394 18.0559C21.1871 17.4468 20.7599 16.9262 20.2117 16.56C19.6635 16.1937 19.0191 15.9982 18.3598 15.9982H18.3531Z" fill="#535358"/>
</g>
<defs>
<clipPath id="clip0_1423_12338">
<rect width="24" height="24" fill="white"/>
</clipPath>
</defs>
</svg>
