<svg width="24" height="18" viewBox="0 0 24 18" fill="none" xmlns="http://www.w3.org/2000/svg">
<rect x="0.214286" y="0.214286" width="23.5714" height="16.7143" rx="1.5" fill="white" stroke="#F5F5F5" stroke-width="0.428571"/>
<mask id="mask0_4286_36242" style="mask-type:luminance" maskUnits="userSpaceOnUse" x="0" y="0" width="24" height="18">
<rect x="0.214286" y="0.214286" width="23.5714" height="16.7143" rx="1.5" fill="white" stroke="white" stroke-width="0.428571"/>
</mask>
<g mask="url(#mask0_4286_36242)">
<path fill-rule="evenodd" clip-rule="evenodd" d="M0 17.1429L24 17.1429V8H10.6667L11.4286 8.57143L0 17.1429Z" fill="#DD1C34"/>
<path fill-rule="evenodd" clip-rule="evenodd" d="M24 8H10.6667L0 0H24V8Z" fill="#0D4BC3"/>
<path fill-rule="evenodd" clip-rule="evenodd" d="M1.71431 3.42856C2.0299 3.42856 2.28574 3.17273 2.28574 2.85713C2.28574 2.54154 2.0299 2.28571 1.71431 2.28571C1.39872 2.28571 1.14288 2.54154 1.14288 2.85713C1.14288 3.17273 1.39872 3.42856 1.71431 3.42856ZM8.57146 9.14285C8.88705 9.14285 9.14288 8.88701 9.14288 8.57142C9.14288 8.25583 8.88705 7.99999 8.57146 7.99999C8.25586 7.99999 8.00003 8.25583 8.00003 8.57142C8.00003 8.88701 8.25586 9.14285 8.57146 9.14285ZM2.28574 14.2857C2.28574 14.6013 2.0299 14.8571 1.71431 14.8571C1.39872 14.8571 1.14288 14.6013 1.14288 14.2857C1.14288 13.9701 1.39872 13.7143 1.71431 13.7143C2.0299 13.7143 2.28574 13.9701 2.28574 14.2857ZM3.88466 9.70853L2.90665 11.2111L3.27756 9.45699C3.21787 9.40824 3.1632 9.35358 3.11445 9.29389L1.36037 9.6648L2.86292 8.68678C2.85912 8.64885 2.85717 8.61036 2.85717 8.57142C2.85717 8.53248 2.85912 8.49399 2.86292 8.45606L1.36037 7.47804L3.11445 7.84895C3.1632 7.78926 3.21787 7.7346 3.27756 7.68585L2.90665 5.93176L3.88466 7.43431C3.9226 7.43051 3.96109 7.42856 4.00003 7.42856C4.03897 7.42856 4.07745 7.43051 4.11539 7.43431L5.09341 5.93176L4.7225 7.68585C4.78218 7.7346 4.83685 7.78926 4.8856 7.84895L6.63968 7.47804L5.13713 8.45606C5.14094 8.49399 5.14288 8.53248 5.14288 8.57142C5.14288 8.61036 5.14094 8.64885 5.13713 8.68678L6.63968 9.6648L4.8856 9.29389C4.83685 9.35358 4.78218 9.40824 4.7225 9.45699L5.09341 11.2111L4.11539 9.70853C4.07745 9.71233 4.03897 9.71428 4.00003 9.71428C3.96109 9.71428 3.9226 9.71233 3.88466 9.70853Z" fill="#FDD64D"/>
</g>
</svg>
