<svg width="16" height="16" viewBox="0 0 16 16" fill="none" xmlns="http://www.w3.org/2000/svg">
<rect x="0.5" y="0.5" width="15" height="15" rx="5.5" fill="#935DFF" fill-opacity="0.2" stroke="#935DFF"/>
<path fill-rule="evenodd" clip-rule="evenodd" d="M12.7806 4.23101C12.9211 4.37912 13 4.57989 13 4.78922C13 4.99855 12.9211 5.19932 12.7806 5.34743L6.68145 11.7689C6.61103 11.843 6.52733 11.9015 6.43521 11.9412C6.34309 11.9809 6.2444 12.0009 6.14487 12C6.04535 11.9991 5.94699 11.9774 5.85551 11.9361C5.76404 11.8948 5.68129 11.8347 5.61207 11.7594L3.20823 9.14323C3.07114 8.99242 2.99633 8.7906 3.00014 8.58189C3.00395 8.37318 3.08608 8.17454 3.22857 8.02938C3.37107 7.88423 3.56234 7.80436 3.7606 7.80724C3.95885 7.81011 4.14796 7.89549 4.28661 8.04472L6.16026 10.0838L11.7202 4.23101C11.8609 4.08309 12.0516 4 12.2504 4C12.4492 4 12.6399 4.08309 12.7806 4.23101Z" fill="#935DFF"/>
</svg>
