<svg width="25" height="24" viewBox="0 0 25 24" fill="none" xmlns="http://www.w3.org/2000/svg">
<g id="mingcute:sad-line">
<rect x="0.5" width="24" height="24" rx="6" fill="#F4F5F8"/>
<g id="Group">
<path id="Vector" fill-rule="evenodd" clip-rule="evenodd" d="M12.5013 3.66406C17.1038 3.66406 20.8346 7.3949 20.8346 11.9974C20.8346 16.5999 17.1038 20.3307 12.5013 20.3307C7.8988 20.3307 4.16797 16.5999 4.16797 11.9974C4.16797 7.3949 7.8988 3.66406 12.5013 3.66406ZM12.5013 5.33073C10.7332 5.33073 9.0375 6.03311 7.78726 7.28335C6.53701 8.53359 5.83464 10.2293 5.83464 11.9974C5.83464 13.7655 6.53701 15.4612 7.78726 16.7114C9.0375 17.9617 10.7332 18.6641 12.5013 18.6641C14.2694 18.6641 15.9651 17.9617 17.2153 16.7114C18.4656 15.4612 19.168 13.7655 19.168 11.9974C19.168 10.2293 18.4656 8.53359 17.2153 7.28335C15.9651 6.03311 14.2694 5.33073 12.5013 5.33073ZM12.5013 12.8307C13.5571 12.8307 14.5238 13.2249 15.258 13.8724C15.4237 14.0187 15.5246 14.2249 15.5383 14.4455C15.5521 14.6662 15.4776 14.8833 15.3313 15.0491C15.185 15.2148 14.9788 15.3157 14.7582 15.3294C14.5375 15.3432 14.3204 15.2687 14.1546 15.1224C13.6986 14.7187 13.1103 14.4963 12.5013 14.4974C11.8671 14.4974 11.2888 14.7324 10.848 15.1224C10.7659 15.1948 10.6704 15.2503 10.5668 15.2858C10.4633 15.3212 10.3538 15.336 10.2446 15.3291C10.1353 15.3223 10.0285 15.294 9.93025 15.2459C9.83196 15.1977 9.74411 15.1307 9.67172 15.0486C9.59933 14.9666 9.54381 14.871 9.50834 14.7675C9.47287 14.664 9.45814 14.5545 9.46498 14.4452C9.47183 14.336 9.50013 14.2292 9.54825 14.1309C9.59638 14.0326 9.66339 13.9448 9.74547 13.8724C10.506 13.2002 11.4863 12.8296 12.5013 12.8307ZM9.58463 8.66406C9.91615 8.66406 10.2341 8.79576 10.4685 9.03018C10.7029 9.2646 10.8346 9.58254 10.8346 9.91406C10.8346 10.2456 10.7029 10.5635 10.4685 10.7979C10.2341 11.0324 9.91615 11.1641 9.58463 11.1641C9.25311 11.1641 8.93517 11.0324 8.70075 10.7979C8.46633 10.5635 8.33463 10.2456 8.33463 9.91406C8.33463 9.58254 8.46633 9.2646 8.70075 9.03018C8.93517 8.79576 9.25311 8.66406 9.58463 8.66406ZM15.418 8.66406C15.7495 8.66406 16.0674 8.79576 16.3018 9.03018C16.5363 9.2646 16.668 9.58254 16.668 9.91406C16.668 10.2456 16.5363 10.5635 16.3018 10.7979C16.0674 11.0324 15.7495 11.1641 15.418 11.1641C15.0864 11.1641 14.7685 11.0324 14.5341 10.7979C14.2997 10.5635 14.168 10.2456 14.168 9.91406C14.168 9.58254 14.2997 9.2646 14.5341 9.03018C14.7685 8.79576 15.0864 8.66406 15.418 8.66406Z" fill="#FF3E60"/>
</g>
</g>
</svg>
