<svg width="24" height="24" viewBox="0 0 24 24" fill="none" xmlns="http://www.w3.org/2000/svg">
<rect width="24" height="24" rx="6" fill="#F7F7F7"/>
<path fill-rule="evenodd" clip-rule="evenodd" d="M12.0008 3.66406C16.6033 3.66406 20.3341 7.3949 20.3341 11.9974C20.3341 16.5999 16.6033 20.3307 12.0008 20.3307C7.39831 20.3307 3.66748 16.5999 3.66748 11.9974C3.66748 7.3949 7.39831 3.66406 12.0008 3.66406ZM12.0008 5.33073C10.2327 5.33073 8.53701 6.03311 7.28677 7.28335C6.03653 8.53359 5.33415 10.2293 5.33415 11.9974C5.33415 13.7655 6.03653 15.4612 7.28677 16.7114C8.53701 17.9617 10.2327 18.6641 12.0008 18.6641C13.7689 18.6641 15.4646 17.9617 16.7149 16.7114C17.9651 15.4612 18.6675 13.7655 18.6675 11.9974C18.6675 10.2293 17.9651 8.53359 16.7149 7.28335C15.4646 6.03311 13.7689 5.33073 12.0008 5.33073ZM12.0008 12.8307C13.0566 12.8307 14.0233 13.2249 14.7575 13.8724C14.9232 14.0187 15.0241 14.2249 15.0378 14.4455C15.0516 14.6662 14.9771 14.8833 14.8308 15.0491C14.6845 15.2148 14.4783 15.3157 14.2577 15.3294C14.037 15.3432 13.8199 15.2687 13.6541 15.1224C13.1981 14.7187 12.6099 14.4963 12.0008 14.4974C11.3666 14.4974 10.7883 14.7324 10.3475 15.1224C10.2654 15.1948 10.1699 15.2503 10.0663 15.2858C9.96281 15.3212 9.8533 15.336 9.74408 15.3291C9.63486 15.3223 9.52805 15.294 9.42976 15.2459C9.33147 15.1977 9.24362 15.1307 9.17123 15.0486C9.09884 14.9666 9.04332 14.871 9.00785 14.7675C8.97238 14.664 8.95765 14.5545 8.9645 14.4452C8.97134 14.336 8.99964 14.2292 9.04776 14.1309C9.09589 14.0326 9.1629 13.9448 9.24498 13.8724C10.0055 13.2002 10.9858 12.8296 12.0008 12.8307ZM9.08415 8.66406C9.41567 8.66406 9.73361 8.79576 9.96803 9.03018C10.2025 9.2646 10.3341 9.58254 10.3341 9.91406C10.3341 10.2456 10.2025 10.5635 9.96803 10.7979C9.73361 11.0324 9.41567 11.1641 9.08415 11.1641C8.75263 11.1641 8.43468 11.0324 8.20026 10.7979C7.96584 10.5635 7.83415 10.2456 7.83415 9.91406C7.83415 9.58254 7.96584 9.2646 8.20026 9.03018C8.43468 8.79576 8.75263 8.66406 9.08415 8.66406ZM14.9175 8.66406C15.249 8.66406 15.5669 8.79576 15.8014 9.03018C16.0358 9.2646 16.1675 9.58254 16.1675 9.91406C16.1675 10.2456 16.0358 10.5635 15.8014 10.7979C15.5669 11.0324 15.249 11.1641 14.9175 11.1641C14.586 11.1641 14.268 11.0324 14.0336 10.7979C13.7992 10.5635 13.6675 10.2456 13.6675 9.91406C13.6675 9.58254 13.7992 9.2646 14.0336 9.03018C14.268 8.79576 14.586 8.66406 14.9175 8.66406Z" fill="#535358"/>
</svg>
