<svg width="15" height="16" viewBox="0 0 15 16" fill="none" xmlns="http://www.w3.org/2000/svg">
<path d="M9.62471 1.5V0.5C9.62471 0.400544 9.66422 0.305161 9.73455 0.234835C9.80487 0.164509 9.90026 0.125 9.99971 0.125C10.0992 0.125 10.1946 0.164509 10.2649 0.234835C10.3352 0.305161 10.3747 0.400544 10.3747 0.5V1.5C10.3747 1.59946 10.3352 1.69484 10.2649 1.76517C10.1946 1.83549 10.0992 1.875 9.99971 1.875C9.90026 1.875 9.80487 1.83549 9.73455 1.76517C9.66422 1.69484 9.62471 1.59946 9.62471 1.5ZM11.8041 2.45312C11.8461 2.4788 11.8928 2.49593 11.9415 2.50354C11.9902 2.51115 12.0399 2.50909 12.0878 2.49748C12.1357 2.48587 12.1808 2.46494 12.2206 2.43588C12.2604 2.40682 12.2941 2.37021 12.3197 2.32812L12.8197 1.50875C12.8468 1.46671 12.8651 1.41968 12.8737 1.37044C12.8823 1.32119 12.881 1.27073 12.8698 1.22201C12.8586 1.17328 12.8378 1.12729 12.8086 1.08673C12.7794 1.04616 12.7423 1.01185 12.6997 0.985809C12.657 0.959766 12.6096 0.942516 12.5601 0.935075C12.5107 0.927634 12.4603 0.930152 12.4118 0.94248C12.3634 0.954807 12.3179 0.976697 12.278 1.00686C12.2382 1.03702 12.2047 1.07485 12.1797 1.11812L11.6797 1.9375C11.654 1.97952 11.6368 2.02619 11.6292 2.07485C11.6215 2.12351 11.6235 2.17319 11.6351 2.22108C11.6466 2.26896 11.6675 2.3141 11.6965 2.35391C11.7255 2.39373 11.7621 2.42744 11.8041 2.45312ZM14.5853 3.38562C14.5703 3.33871 14.5462 3.29521 14.5143 3.25763C14.4824 3.22005 14.4435 3.18911 14.3997 3.16659C14.3558 3.14407 14.308 3.13041 14.2589 3.12638C14.2098 3.12235 14.1604 3.12804 14.1135 3.14313L13.176 3.44625C13.0905 3.47332 13.0175 3.53014 12.9703 3.60641C12.9231 3.68267 12.9048 3.77332 12.9187 3.86192C12.9326 3.95051 12.9778 4.0312 13.0461 4.08932C13.1144 4.14745 13.2013 4.17918 13.291 4.17875C13.33 4.17862 13.3689 4.17229 13.406 4.16L14.3435 3.8575C14.4381 3.82699 14.5167 3.76014 14.5621 3.67165C14.6075 3.58316 14.6158 3.48027 14.5853 3.38562ZM12.721 5.90562C13.2626 6.83728 13.479 7.9226 13.3361 8.99073C13.1932 10.0589 12.6991 11.0491 11.9316 11.8056C11.6743 12.7307 11.1495 13.5591 10.4232 14.1871C9.69684 14.8151 8.80122 15.2145 7.84869 15.3354C6.89617 15.4563 5.92915 15.2932 5.06896 14.8666C4.20876 14.4401 3.4937 13.7689 3.01346 12.9375L0.825962 9.14812C0.694295 8.92007 0.624985 8.66137 0.625 8.39804C0.625015 8.13471 0.694354 7.87602 0.826046 7.64798C0.957739 7.41994 1.14714 7.23059 1.37522 7.09896C1.60329 6.96733 1.862 6.89807 2.12534 6.89813L1.77471 6.29C1.64708 6.06815 1.57834 5.81734 1.57502 5.56142C1.57171 5.3055 1.63393 5.05299 1.75577 4.82791C1.87761 4.60283 2.05502 4.41267 2.27112 4.27552C2.48721 4.13838 2.7348 4.0588 2.99034 4.04437C2.83011 3.71705 2.79452 3.34259 2.89023 2.99095C2.98594 2.6393 3.20639 2.33453 3.51041 2.13356C3.81442 1.93259 4.18121 1.84918 4.54223 1.8989C4.90326 1.94862 5.23384 2.12808 5.47221 2.40375C5.60035 2.17088 5.78806 1.97624 6.01614 1.83975C6.24422 1.70326 6.50447 1.62983 6.77025 1.62697C7.03603 1.6241 7.2978 1.69192 7.52877 1.82346C7.75973 1.95501 7.95159 2.14557 8.08471 2.37562L8.93721 3.84938C9.0689 3.62148 9.25824 3.43225 9.48621 3.30069C9.71418 3.16913 9.97275 3.09987 10.236 3.09987C10.4992 3.09987 10.7577 3.16913 10.9857 3.30069C11.2137 3.43225 11.403 3.62148 11.5347 3.84938L12.721 5.90562ZM6.13596 3.5L6.51659 4.16C6.63773 4.26748 6.74035 4.39418 6.82034 4.535L7.67221 6.0075C7.79578 5.79186 7.9711 5.61039 8.18235 5.47945C8.39359 5.34851 8.63412 5.27223 8.88221 5.2575L7.43721 2.75C7.33776 2.57769 7.17392 2.45195 6.98176 2.40044C6.78959 2.34892 6.58483 2.37586 6.41252 2.47531C6.24022 2.57477 6.11447 2.7386 6.06296 2.93077C6.01145 3.12293 6.03838 3.32769 6.13784 3.5H6.13596ZM3.68721 3.75938L4.06846 4.41937C4.11809 4.46389 4.16465 4.51171 4.20784 4.5625C4.32969 4.33908 4.50656 4.15046 4.7217 4.01451C4.93683 3.87855 5.18311 3.79977 5.43721 3.78562L4.98659 3.00938C4.93734 2.92406 4.87177 2.84927 4.79363 2.7893C4.71548 2.72932 4.62628 2.68532 4.53113 2.65981C4.43598 2.6343 4.33674 2.62779 4.23907 2.64064C4.1414 2.65348 4.04722 2.68544 3.9619 2.73469C3.78959 2.83414 3.66385 2.99798 3.61234 3.19014C3.56082 3.38231 3.58776 3.58707 3.68721 3.75938ZM11.2197 11.5681C11.3613 11.045 11.3978 10.4989 11.3271 9.96159C11.2564 9.42423 11.0799 8.90623 10.8078 8.4375L9.62034 6.38062C9.52254 6.21395 9.36419 6.09145 9.17829 6.03867C8.99238 5.98589 8.79328 6.00691 8.6225 6.09734C8.45171 6.18777 8.32242 6.34063 8.26159 6.52406C8.20075 6.70748 8.21307 6.90731 8.29596 7.08187L9.00846 8.31312C9.03416 8.35581 9.05109 8.40318 9.05828 8.45248C9.06546 8.50178 9.06275 8.55202 9.0503 8.60026C9.03785 8.6485 9.01591 8.69378 8.98576 8.73345C8.95562 8.77311 8.91787 8.80637 8.87473 8.83129C8.83158 8.8562 8.78391 8.87227 8.73448 8.87855C8.68506 8.88484 8.63488 8.88121 8.58687 8.86788C8.53887 8.85455 8.494 8.83179 8.45489 8.80093C8.41578 8.77006 8.38321 8.73172 8.35909 8.68812L6.17159 4.90688C6.12279 4.82131 6.05762 4.74619 5.9798 4.68582C5.90197 4.62544 5.81302 4.58098 5.71801 4.55498C5.62301 4.52898 5.52381 4.52195 5.42609 4.53428C5.32836 4.54662 5.23403 4.57808 5.14846 4.62687C4.97566 4.72542 4.84908 4.88857 4.79657 5.08045C4.74406 5.27232 4.76992 5.47719 4.86846 5.65L6.40784 8.3125C6.43353 8.35518 6.45047 8.40256 6.45765 8.45186C6.46483 8.50116 6.46212 8.5514 6.44967 8.59964C6.43722 8.64788 6.41528 8.69315 6.38514 8.73282C6.35499 8.77249 6.31725 8.80575 6.2741 8.83066C6.23096 8.85558 6.18328 8.87165 6.13386 8.87793C6.08443 8.88421 6.03425 8.88058 5.98625 8.86725C5.93824 8.85393 5.89337 8.83117 5.85426 8.8003C5.81515 8.76944 5.78259 8.73109 5.75846 8.6875L3.72284 5.16625C3.62146 4.99787 3.45804 4.87601 3.26773 4.82689C3.07743 4.77778 2.87544 4.80532 2.70524 4.90361C2.53504 5.0019 2.41022 5.16307 2.35764 5.35245C2.30506 5.54183 2.32892 5.74428 2.42409 5.91625L4.67409 9.81375C4.72167 9.89973 4.7336 10.001 4.70731 10.0956C4.68102 10.1903 4.61861 10.2709 4.53351 10.3201C4.44841 10.3692 4.34742 10.383 4.25226 10.3584C4.15711 10.3339 4.0754 10.2729 4.02471 10.1888L2.77471 8.02375C2.67526 7.85144 2.51142 7.7257 2.31926 7.67419C2.12709 7.62267 1.92233 7.64961 1.75002 7.74906C1.57772 7.84852 1.45197 8.01235 1.40046 8.20452C1.34895 8.39668 1.37588 8.60144 1.47534 8.77375L3.66284 12.5631C4.07076 13.2697 4.67905 13.8394 5.41078 14.2003C6.14251 14.5611 6.96482 14.6969 7.7737 14.5904C8.58259 14.4839 9.34173 14.1399 9.95512 13.6019C10.5685 13.064 11.0086 12.3562 11.2197 11.5681ZM12.0716 6.28062L10.8841 4.22375C10.7846 4.05144 10.6208 3.9257 10.4286 3.87419C10.2365 3.82267 10.0317 3.84961 9.8594 3.94906C9.68709 4.04852 9.56135 4.21235 9.50984 4.40452C9.45832 4.59668 9.48526 4.80144 9.58471 4.97375L9.96596 5.63438C10.0865 5.74103 10.189 5.86638 10.2697 6.00562L11.4572 8.0625C11.8601 8.75743 12.0843 9.54148 12.1097 10.3444C12.4559 9.72173 12.6344 9.01984 12.6277 8.30746C12.621 7.59509 12.4294 6.89667 12.0716 6.28062Z" fill="white"/>
</svg>
