<svg width="31" height="31" viewBox="0 0 31 31" fill="none" xmlns="http://www.w3.org/2000/svg">
<path d="M12.3866 19.6321C12.3892 20.8574 13.4755 21.8524 14.8107 21.8524C16.1458 21.8524 17.2278 20.8574 17.2252 19.6229L17.2217 18.0211C17.2215 17.9166 17.291 17.8249 17.3912 17.7934C20.5605 16.798 22.7544 14.0391 22.7476 10.8799L22.7451 9.70069C22.7365 5.71154 19.2359 2.38571 14.9392 2.30279C12.7808 2.25673 10.7445 3.00297 9.20155 4.38489C7.66862 5.76682 6.81935 7.62781 6.82362 9.60856C6.82628 10.8431 7.92264 11.8381 9.25778 11.8381C10.5929 11.8381 11.6749 10.8431 11.6723 9.61778C11.6706 8.8439 12.0003 8.11609 12.6015 7.57253C13.2026 7.02897 13.995 6.73416 14.8484 6.75259C16.5349 6.78944 17.9031 8.11609 17.9065 9.70991L17.909 10.8799C17.912 12.2619 16.8505 13.4503 15.3753 13.6991C13.6393 13.9939 12.3774 15.385 12.3809 17.0065L12.3866 19.6321Z" fill="#F8312F"/>
<path d="M14.7369 28.2303C16.0442 28.2303 17.1018 27.1771 17.099 25.8778C17.0961 24.5786 16.0341 23.5254 14.7268 23.5254C13.4195 23.5254 12.362 24.5786 12.3648 25.8778C12.3676 27.1771 13.4296 28.2303 14.7369 28.2303Z" fill="#F8312F"/>
</svg>
