<svg width="24" height="18" viewBox="0 0 24 18" fill="none" xmlns="http://www.w3.org/2000/svg">
<rect x="0.25" y="0.25" width="23.5" height="16.6429" rx="1.75" fill="white" stroke="#F5F5F5" stroke-width="0.5"/>
<mask id="mask0_4037_3191" style="mask-type:luminance" maskUnits="userSpaceOnUse" x="0" y="0" width="24" height="18">
<rect x="0.25" y="0.25" width="23.5" height="16.6429" rx="1.75" fill="white" stroke="white" stroke-width="0.5"/>
</mask>
<g mask="url(#mask0_4037_3191)">
<path fill-rule="evenodd" clip-rule="evenodd" d="M12 13C14.2091 13 16 11.2091 16 9C16 6.79086 14.2091 5 12 5C9.79086 5 8 6.79086 8 9C8 11.2091 9.79086 13 12 13Z" fill="#E01B41"/>
<mask id="mask1_4037_3191" style="mask-type:luminance" maskUnits="userSpaceOnUse" x="8" y="5" width="8" height="8">
<path fill-rule="evenodd" clip-rule="evenodd" d="M12 13C14.2091 13 16 11.2091 16 9C16 6.79086 14.2091 5 12 5C9.79086 5 8 6.79086 8 9C8 11.2091 9.79086 13 12 13Z" fill="white"/>
</mask>
<g mask="url(#mask1_4037_3191)">
<path fill-rule="evenodd" clip-rule="evenodd" d="M8 9.57144C9.14286 10.6429 10.8571 11.2857 12 9.57144C13.1429 7.85715 15.4286 7.85715 16 9.57144C16.5714 11.2857 16 13 16 13H8C8 13 6.85714 8.50001 8 9.57144Z" fill="#0E4B9C"/>
</g>
<path opacity="0.75" fill-rule="evenodd" clip-rule="evenodd" d="M17.8648 3.20586C17.7054 3.29791 17.6508 3.50177 17.7428 3.6612L19.1238 6.05308C19.2158 6.21251 19.4197 6.26714 19.5791 6.17509L19.9915 5.93699C20.151 5.84495 20.2056 5.64108 20.1135 5.48165L18.7326 3.08977C18.6405 2.93034 18.4367 2.87572 18.2772 2.96776L17.8648 3.20586ZM16.3802 4.06301C16.2208 4.15505 16.1662 4.35892 16.2582 4.51835L17.6392 6.91023C17.7312 7.06966 17.9351 7.12428 18.0945 7.03224L18.5069 6.79414C18.6663 6.70209 18.721 6.49823 18.6289 6.3388L17.248 3.94692C17.1559 3.78749 16.9521 3.73286 16.7926 3.82491L16.3802 4.06301ZM3.88645 11.6612C3.7944 11.5018 3.84903 11.2979 4.00846 11.2059L4.42085 10.9678C4.58028 10.8757 4.78415 10.9303 4.87619 11.0898L6.25715 13.4817C6.34919 13.6411 6.29457 13.8449 6.13514 13.937L5.72274 14.1751C5.56331 14.2671 5.35945 14.2125 5.2674 14.0531L3.88645 11.6612ZM5.49307 10.3487C5.33364 10.4408 5.27902 10.6446 5.37106 10.8041L6.75202 13.1959C6.84406 13.3554 7.04793 13.41 7.20736 13.3179L7.61975 13.0799C7.77918 12.9878 7.83381 12.7839 7.74176 12.6245L6.36081 10.2326C6.26876 10.0732 6.0649 10.0186 5.90547 10.1106L5.49307 10.3487ZM17.6392 10.2326C17.7312 10.0732 17.9351 10.0186 18.0945 10.1106L18.5069 10.3487C18.6664 10.4408 18.721 10.6446 18.6289 10.8041L17.248 13.1959C17.1559 13.3554 16.9521 13.41 16.7926 13.3179L16.3803 13.0799C16.2208 12.9878 16.1662 12.7839 16.2582 12.6245L17.6392 10.2326ZM19.5791 10.9678C19.4197 10.8757 19.2159 10.9303 19.1238 11.0898L17.7429 13.4817C17.6508 13.6411 17.7054 13.8449 17.8649 13.937L18.2773 14.1751C18.4367 14.2671 18.6406 14.2125 18.7326 14.0531L20.1136 11.6612C20.2056 11.5018 20.151 11.2979 19.9915 11.2059L19.5791 10.9678ZM5.26742 3.08977C5.35946 2.93034 5.56333 2.87572 5.72276 2.96777L6.13515 3.20586C6.29458 3.29791 6.34921 3.50177 6.25716 3.6612L4.87621 6.05308C4.78416 6.21251 4.5803 6.26714 4.42086 6.17509L4.00847 5.937C3.84904 5.84495 3.79442 5.64109 3.88646 5.48165L5.26742 3.08977ZM7.20738 3.8249C7.04795 3.73285 6.84408 3.78748 6.75203 3.94691L5.37108 6.33879C5.27903 6.49822 5.33366 6.70208 5.49309 6.79413L5.90548 7.03222C6.06491 7.12427 6.26878 7.06965 6.36083 6.91022L7.74178 4.51834C7.83383 4.3589 7.7792 4.15504 7.61977 4.06299L7.20738 3.8249Z" fill="#262626"/>
</g>
</svg>
