<svg width="24" height="24" viewBox="0 0 24 24" fill="none" xmlns="http://www.w3.org/2000/svg">
<g clip-path="url(#clip0_660_5050)">
<path d="M10.7749 9.62258L11.2767 10.4993C11.5963 11.0589 11.7555 11.338 11.7555 11.6449C11.7555 11.9518 11.5963 12.2309 11.2767 12.7893L10.7749 13.6672C9.34667 16.1672 8.63257 17.4165 9.18863 18.0372C9.74583 18.6567 11.0656 18.0799 13.7028 16.9262L20.943 13.7584C23.0138 12.8528 24.0498 12.3994 24.0498 11.6449C24.0498 10.8904 23.0138 10.437 20.943 9.53144L13.7028 6.36356C11.0656 5.20992 9.74583 4.63311 9.18863 5.25261C8.63257 5.87211 9.34667 7.1215 10.7749 9.62258Z" fill="#111111"/>
</g>
<defs>
<clipPath id="clip0_660_5050">
<rect width="24" height="24" fill="white"/>
</clipPath>
</defs>
</svg>
