<svg width="390" height="844" viewBox="0 0 390 844" fill="none" xmlns="http://www.w3.org/2000/svg">
<rect width="390" height="844" fill="black"/>
<path d="M89.4062 312.984C88.4688 309.797 85.8906 307.828 82.1875 307.828C76.9375 307.828 73.375 311.859 73.375 318.984C73.375 326.156 76.8438 330.234 82.2344 330.234C87.0859 330.234 89.9688 327.492 90.0625 323.203H82.7031V317.906H96.8594V322.125C96.8594 331.031 90.7656 336.469 82.1875 336.469C72.6719 336.469 66.2031 329.812 66.2031 319.078C66.2031 308.062 73.0938 301.594 82.0469 301.594C89.6875 301.594 95.5938 306.281 96.5312 312.984H89.4062ZM108.812 302.062V336H101.875V302.062H108.812ZM125.641 336.516C117.953 336.516 113.172 331.219 113.172 323.344C113.172 315.469 117.953 310.219 125.641 310.219C133.328 310.219 138.156 315.469 138.156 323.344C138.156 331.219 133.328 336.516 125.641 336.516ZM125.688 331.125C129.25 331.125 131.078 327.797 131.078 323.344C131.078 318.844 129.25 315.516 125.688 315.516C122.078 315.516 120.203 318.844 120.203 323.344C120.203 327.797 122.078 331.125 125.688 331.125ZM146.875 336L139.938 310.547H146.969L150.953 327.75H151.188L155.359 310.547H162.25L166.469 327.656H166.703L170.641 310.547H177.672L170.688 336H163.375L158.969 319.828H158.641L154.234 336H146.875Z" fill="white"/>
<path d="M193.859 336V302.062H207.359C214.859 302.062 218.609 305.672 218.609 310.781C218.609 314.766 216.031 317.25 212.516 318.047V318.375C216.359 318.562 219.969 321.609 219.969 326.625C219.969 332.016 215.938 336 208.25 336H193.859ZM206.844 330.188C210.922 330.188 212.656 328.5 212.656 325.969C212.656 323.109 210.5 321.094 207.031 321.094H200.891V330.188H206.844ZM206.328 316.266C209.281 316.266 211.484 314.625 211.484 311.906C211.484 309.469 209.703 307.781 206.469 307.781H200.891V316.266H206.328Z" fill="white"/>
<path d="M179.75 330.615L179.068 327.846L181.795 328.538L183.5 323L185.205 328.538L187.932 327.846L187.25 330.615L191 332L187.25 333.385L187.932 336.5L185.205 335.808L183.5 341L181.795 335.808L178.727 336.5L179.75 333.385L176 332L179.75 330.615Z" fill="white"/>
</svg>
