<svg width="350" height="316" viewBox="0 0 350 316" fill="none" xmlns="http://www.w3.org/2000/svg">
<path d="M0 16C0 7.16345 7.16344 0 16 0H226C234.837 0 242 7.16344 242 16V84C242 92.8366 234.837 100 226 100H16C7.16344 100 0 92.8366 0 84V16Z" fill="#124D4D"/>
<path d="M24.1562 61H19.8125L27.7812 38.375H32.7812L40.7812 61H36.4375L34.5625 55.4062H26.0312L24.1562 61ZM27.125 52.125H33.4688L30.375 43H30.1875L27.125 52.125ZM54.125 53.875V44.0312H58.0938V61H54.25V58H54.0625C53.2812 59.875 51.5 61.2188 48.9688 61.2188C45.625 61.2188 43.3125 58.9062 43.2812 54.8438V44.0312H47.2812V54.2188C47.2812 56.375 48.5625 57.75 50.5 57.75C52.25 57.75 54.125 56.4688 54.125 53.875ZM70.375 44.0312V47.0938H67.0312V55.9062C67.0312 57.5312 67.8438 57.875 68.8438 57.875C69.3125 57.875 70.0938 57.8438 70.5938 57.8125V61.0625C70.125 61.1562 69.3438 61.2188 68.3438 61.2188C65.3438 61.2188 63.0312 59.75 63.0625 56.5625V47.0938H60.625V44.0312H63.0625V39.9688H67.0312V44.0312H70.375ZM84.2812 53.875V44.0312H88.25V61H84.4062V58H84.2188C83.4375 59.875 81.6562 61.2188 79.125 61.2188C75.7812 61.2188 73.4688 58.9062 73.4375 54.8438V44.0312H77.4375V54.2188C77.4375 56.375 78.7188 57.75 80.6562 57.75C82.4062 57.75 84.2812 56.4688 84.2812 53.875ZM92.0625 61V44.0312H95.875V46.9062H96.0938C96.7812 44.9688 98.5 43.8125 100.75 43.8125C103.062 43.8125 104.688 44.9688 105.344 46.9062H105.531C106.281 45.0312 108.156 43.8125 110.625 43.8125C113.719 43.8125 115.906 45.8125 115.906 49.5938V61H111.938V50.2188C111.938 48.0938 110.656 47.1562 109.031 47.1562C107.062 47.1562 105.938 48.5 105.938 50.4062V61H102.062V50.0625C102.062 48.3125 100.875 47.1562 99.1875 47.1562C97.4688 47.1562 96.0625 48.5625 96.0625 50.6875V61H92.0625ZM123.719 51.0625V61H119.719V44.0312H123.531V46.9062H123.75C124.531 45 126.25 43.8125 128.781 43.8125C132.312 43.8125 134.625 46.125 134.594 50.1875V61H130.625V50.8125C130.625 48.5312 129.406 47.1875 127.312 47.1875C125.188 47.1875 123.719 48.5938 123.719 51.0625ZM153.875 61H146.188V38.375H154C160.75 38.375 164.844 42.625 164.844 49.6562C164.844 56.7188 160.75 61 153.875 61ZM150.25 57.4688H153.656C158.375 57.4688 160.781 54.875 160.781 49.6562C160.781 44.4688 158.375 41.9062 153.781 41.9062H150.25V57.4688ZM175.781 61.3438C170.656 61.3438 167.531 57.9375 167.531 52.625C167.531 47.375 170.719 43.8125 175.562 43.8125C179.719 43.8125 183.312 46.4062 183.312 52.375V53.625H171.469C171.516 56.5156 173.219 58.2188 175.812 58.2188C177.562 58.2188 178.75 57.4688 179.25 56.4688H183.156C182.438 59.4062 179.719 61.3438 175.781 61.3438ZM171.5 50.9062H179.5C179.469 48.5938 177.938 46.9062 175.625 46.9062C173.219 46.9062 171.625 48.7344 171.5 50.9062ZM193.938 61.3438C188.812 61.3438 185.688 57.9375 185.688 52.625C185.688 47.375 188.875 43.8125 193.719 43.8125C197.875 43.8125 201.469 46.4062 201.469 52.375V53.625H189.625C189.672 56.5156 191.375 58.2188 193.969 58.2188C195.719 58.2188 196.906 57.4688 197.406 56.4688H201.312C200.594 59.4062 197.875 61.3438 193.938 61.3438ZM189.656 50.9062H197.656C197.625 48.5938 196.094 46.9062 193.781 46.9062C191.375 46.9062 189.781 48.7344 189.656 50.9062ZM204.562 67.375V44.0312H208.469V46.8125H208.719C209.344 45.5938 210.594 43.8125 213.594 43.8125C217.5 43.8125 220.594 46.875 220.594 52.5312C220.594 58.125 217.594 61.3125 213.594 61.3125C210.656 61.3125 209.344 59.5625 208.719 58.3125H208.562V67.375H204.562ZM208.469 52.5C208.469 55.8125 209.906 58.0312 212.5 58.0312C215.125 58.0312 216.531 55.7188 216.531 52.5C216.531 49.3438 215.156 47.0625 212.5 47.0625C209.906 47.0625 208.469 49.2188 208.469 52.5Z" fill="#B1A300"/>
<path d="M250 16C250 7.16345 257.163 0 266 0H334C342.837 0 350 7.16344 350 16V84C350 92.8366 342.837 100 334 100H266C257.163 100 250 92.8366 250 84V16Z" fill="#B1A300"/>
<path d="M321.432 52.8164L317.807 52.1289C317.588 52.082 317.479 51.832 317.588 51.6445L320.963 46.2226C321.104 45.9882 320.932 45.707 320.666 45.7226L314.307 46.3007C314.088 46.3163 313.901 46.1132 313.963 45.8945L314.963 42.3945C315.041 42.1132 314.729 41.8789 314.479 42.0351L307.682 46.332C307.448 46.4726 307.151 46.2851 307.182 46.0195L309.182 31.4413C309.213 31.1757 308.932 30.9727 308.698 31.1289L303.557 34.2539C303.401 34.3477 303.182 34.2851 303.104 34.1289L300.198 28.3008C300.073 28.0664 299.744 28.0664 299.619 28.3008L296.713 34.1289C296.635 34.3008 296.416 34.3633 296.26 34.2695L290.948 31.1289C290.713 30.9883 290.416 31.1913 290.463 31.457L293.01 46.0195C293.057 46.2851 292.76 46.4883 292.526 46.3476L285.323 42.0195C285.073 41.8632 284.76 42.0976 284.838 42.3788L285.854 45.9101C285.916 46.1288 285.744 46.3476 285.51 46.3164L279.151 45.7382C278.885 45.707 278.713 46.0039 278.854 46.2383L282.229 51.6601C282.354 51.8476 282.244 52.1132 282.01 52.1445L278.385 52.832C278.104 52.8788 278.026 53.2538 278.276 53.4257L288.494 60.1289C288.76 60.3008 288.823 60.6445 288.651 60.9101L285.635 65.207C285.494 65.4101 285.698 65.6914 285.932 65.5976L299.026 60.8164C299.588 60.6133 300.213 60.6133 300.776 60.8164L313.869 65.5976C314.104 65.6914 314.323 65.4101 314.166 65.207L311.151 60.9101C310.979 60.6601 311.041 60.3008 311.307 60.1289L321.526 53.4257C321.791 53.2382 321.713 52.8633 321.432 52.8164Z" fill="#FF8A00"/>
<path d="M299.916 42.6133C300.779 42.6133 301.479 43.3128 301.479 44.1758V56.8648L309.983 52.4896C310.75 52.0948 311.692 52.3969 312.087 53.1642C312.482 53.9315 312.18 54.8736 311.412 55.2684L301.479 60.3791V70.2696C301.479 71.1325 300.779 71.8321 299.916 71.8321C299.053 71.8321 298.354 71.1325 298.354 70.2696V60.3792L288.42 55.2684C287.653 54.8736 287.351 53.9315 287.746 53.1642C288.14 52.3969 289.083 52.0948 289.85 52.4896L298.354 56.8648V44.1758C298.354 43.3128 299.053 42.6133 299.916 42.6133Z" fill="#CA0B4A"/>
<circle cx="50" cy="120" r="12" fill="#B1A300"/>
<circle cx="50" cy="195.999" r="12" fill="#00478E"/>
<circle cx="30.9997" cy="125.091" r="12" transform="rotate(-30 30.9997 125.091)" fill="#B27700"/>
<circle cx="68.9997" cy="190.909" r="12" transform="rotate(-30 68.9997 190.909)" fill="#005782"/>
<circle cx="17.0915" cy="139" r="12" transform="rotate(-60 17.0915 139)" fill="#B23B00"/>
<circle cx="82.9089" cy="177" r="12" transform="rotate(-60 82.9089 177)" fill="#006377"/>
<circle cx="12" cy="158" r="12" transform="rotate(-90 12 158)" fill="#B20000"/>
<circle cx="88" cy="158" r="12" transform="rotate(-90 88 158)" fill="#006B6B"/>
<circle cx="17.0905" cy="177" r="12" transform="rotate(-120 17.0905 177)" fill="#AC001C"/>
<circle cx="82.9089" cy="139" r="12" transform="rotate(-120 82.9089 139)" fill="#007613"/>
<circle cx="31.0003" cy="190.908" r="12" transform="rotate(-150 31.0003 190.908)" fill="#5000A0"/>
<circle cx="68.9993" cy="125.091" r="12" transform="rotate(-150 68.9993 125.091)" fill="#829C00"/>
<path d="M108 124C108 115.163 115.163 108 124 108H334C342.837 108 350 115.163 350 124V192C350 200.837 342.837 208 334 208H124C115.163 208 108 200.837 108 192V124Z" fill="#805B13"/>
<path d="M132.594 143L133.031 140.348H130.721L130.283 143H129.107L129.545 140.348H128.123L128.301 139.186H129.736L130.105 136.916H128.697L128.875 135.74H130.311L130.734 133.102H131.91L131.486 135.74H133.797L134.221 133.102H135.383L134.959 135.74H136.395L136.203 136.916H134.768L134.398 139.186H135.82L135.615 140.348H134.207L133.77 143H132.594ZM130.912 139.186H133.223L133.592 136.916H131.281L130.912 139.186ZM140.729 143H137.516V133.102H140.824C143.736 133.102 145.486 134.961 145.486 138.037C145.486 141.127 143.736 143 140.729 143ZM139.02 141.688H140.646C142.889 141.688 143.996 140.375 143.996 138.037C143.996 135.713 142.889 134.414 140.729 134.414H139.02V141.688ZM150.258 143.15C148.07 143.15 146.73 141.646 146.73 139.336C146.73 137.053 148.098 135.48 150.162 135.48C151.857 135.48 153.457 136.533 153.457 139.213V139.732H148.18C148.221 141.141 149.048 141.947 150.271 141.947C151.105 141.947 151.639 141.592 151.885 141.141H153.361C153.033 142.344 151.885 143.15 150.258 143.15ZM148.193 138.639H152.021C152.021 137.504 151.297 136.684 150.176 136.684C149.007 136.684 148.248 137.586 148.193 138.639ZM158.105 143.15C155.918 143.15 154.578 141.646 154.578 139.336C154.578 137.053 155.945 135.48 158.01 135.48C159.705 135.48 161.305 136.533 161.305 139.213V139.732H156.027C156.068 141.141 156.896 141.947 158.119 141.947C158.953 141.947 159.486 141.592 159.732 141.141H161.209C160.881 142.344 159.732 143.15 158.105 143.15ZM156.041 138.639H159.869C159.869 137.504 159.145 136.684 158.023 136.684C156.854 136.684 156.096 137.586 156.041 138.639ZM162.754 145.789V135.576H164.176V136.779H164.299C164.559 136.314 165.064 135.48 166.432 135.48C168.223 135.48 169.549 136.889 169.549 139.309C169.549 141.701 168.25 143.15 166.445 143.15C165.092 143.15 164.559 142.33 164.299 141.838H164.217V145.789H162.754ZM164.189 139.281C164.189 140.84 164.873 141.906 166.117 141.906C167.402 141.906 168.072 140.771 168.072 139.281C168.072 137.818 167.416 136.725 166.117 136.725C164.859 136.725 164.189 137.736 164.189 139.281Z" fill="#F7F7F7"/>
<path d="M183.594 143L184.031 140.348H181.721L181.283 143H180.107L180.545 140.348H179.123L179.301 139.186H180.736L181.105 136.916H179.697L179.875 135.74H181.311L181.734 133.102H182.91L182.486 135.74H184.797L185.221 133.102H186.383L185.959 135.74H187.395L187.203 136.916H185.768L185.398 139.186H186.82L186.615 140.348H185.207L184.77 143H183.594ZM181.912 139.186H184.223L184.592 136.916H182.281L181.912 139.186ZM191.729 143H188.516V133.102H191.824C194.736 133.102 196.486 134.961 196.486 138.037C196.486 141.127 194.736 143 191.729 143ZM190.02 141.688H191.646C193.889 141.688 194.996 140.375 194.996 138.037C194.996 135.713 193.889 134.414 191.729 134.414H190.02V141.688ZM197.717 140.908C197.717 139.213 199.152 138.775 200.492 138.68C200.984 138.646 202.099 138.584 202.447 138.57L202.434 137.982C202.434 137.148 201.928 136.656 200.93 136.656C200.068 136.656 199.549 137.053 199.398 137.6H197.949C198.086 136.369 199.234 135.48 200.984 135.48C202.16 135.48 203.896 135.918 203.896 138.064V143H202.475V141.988H202.42C202.133 142.549 201.449 143.164 200.219 143.164C198.811 143.164 197.717 142.357 197.717 140.908ZM199.139 140.922C199.139 141.633 199.727 142.002 200.547 142.002C201.736 142.002 202.447 141.209 202.447 140.32V139.637L200.697 139.76C199.74 139.828 199.139 140.184 199.139 140.922ZM205.66 143V135.576H207.068V136.752H207.15C207.424 135.959 208.162 135.467 209.037 135.467C209.215 135.467 209.502 135.48 209.652 135.494V136.889C209.529 136.861 209.188 136.807 208.887 136.807C207.875 136.807 207.123 137.504 207.123 138.475V143H205.66ZM210.746 143V133.102H212.209V138.707H212.332L215.271 135.576H217.021L214.027 138.762L217.227 143H215.436L212.92 139.664L212.209 140.361V143H210.746Z" fill="#F7F7F7"/>
<path d="M230.594 143L231.031 140.348H228.721L228.283 143H227.107L227.545 140.348H226.123L226.301 139.186H227.736L228.105 136.916H226.697L226.875 135.74H228.311L228.734 133.102H229.91L229.486 135.74H231.797L232.221 133.102H233.383L232.959 135.74H234.395L234.203 136.916H232.768L232.398 139.186H233.82L233.615 140.348H232.207L231.77 143H230.594ZM228.912 139.186H231.223L231.592 136.916H229.281L228.912 139.186ZM238.729 143H235.516V133.102H238.824C241.736 133.102 243.486 134.961 243.486 138.037C243.486 141.127 241.736 143 238.729 143ZM237.02 141.688H238.646C240.889 141.688 241.996 140.375 241.996 138.037C241.996 135.713 240.889 134.414 238.729 134.414H237.02V141.688ZM244.717 140.908C244.717 139.213 246.152 138.775 247.492 138.68C247.984 138.646 249.099 138.584 249.447 138.57L249.434 137.982C249.434 137.148 248.928 136.656 247.93 136.656C247.068 136.656 246.549 137.053 246.398 137.6H244.949C245.086 136.369 246.234 135.48 247.984 135.48C249.16 135.48 250.896 135.918 250.896 138.064V143H249.475V141.988H249.42C249.133 142.549 248.449 143.164 247.219 143.164C245.811 143.164 244.717 142.357 244.717 140.908ZM246.139 140.922C246.139 141.633 246.727 142.002 247.547 142.002C248.736 142.002 249.447 141.209 249.447 140.32V139.637L247.697 139.76C246.74 139.828 246.139 140.184 246.139 140.922ZM252.66 143V135.576H254.068V136.752H254.15C254.424 135.959 255.162 135.467 256.037 135.467C256.215 135.467 256.502 135.48 256.652 135.494V136.889C256.529 136.861 256.188 136.807 255.887 136.807C254.875 136.807 254.123 137.504 254.123 138.475V143H252.66ZM257.746 143V133.102H259.209V138.707H259.332L262.271 135.576H264.021L261.027 138.762L264.227 143H262.436L259.92 139.664L259.209 140.361V143H257.746ZM271.979 136.232C271.609 135.057 270.721 134.346 269.408 134.346C267.74 134.346 266.455 135.658 266.455 138.051C266.455 140.443 267.727 141.756 269.477 141.756C271.056 141.756 272.102 140.758 272.129 139.172H269.695V137.928H273.592V139.049C273.592 141.551 271.869 143.137 269.463 143.137C266.783 143.137 264.965 141.182 264.965 138.051C264.965 134.893 266.838 132.965 269.395 132.965C271.541 132.965 273.182 134.305 273.523 136.232H271.979ZM275.205 143V135.576H276.613V136.752H276.695C276.969 135.959 277.707 135.467 278.582 135.467C278.76 135.467 279.047 135.48 279.197 135.494V136.889C279.074 136.861 278.732 136.807 278.432 136.807C277.42 136.807 276.668 137.504 276.668 138.475V143H275.205ZM279.867 140.908C279.867 139.213 281.303 138.775 282.643 138.68C283.135 138.646 284.249 138.584 284.598 138.57L284.584 137.982C284.584 137.148 284.078 136.656 283.08 136.656C282.219 136.656 281.699 137.053 281.549 137.6H280.1C280.236 136.369 281.385 135.48 283.135 135.48C284.311 135.48 286.047 135.918 286.047 138.064V143H284.625V141.988H284.57C284.283 142.549 283.6 143.164 282.369 143.164C280.961 143.164 279.867 142.357 279.867 140.908ZM281.289 140.922C281.289 141.633 281.877 142.002 282.697 142.002C283.887 142.002 284.598 141.209 284.598 140.32V139.637L282.848 139.76C281.891 139.828 281.289 140.184 281.289 140.922ZM288.439 145.789C288.139 145.789 287.852 145.775 287.66 145.748V144.531C287.824 144.545 288.111 144.559 288.316 144.559C288.768 144.559 289.15 144.518 289.492 143.588L289.67 143.096L286.949 135.576H288.508L290.381 141.332H290.463L292.336 135.576H293.908L290.846 143.984C290.422 145.16 289.656 145.789 288.439 145.789ZM295.098 143V135.576H296.561V143H295.098ZM295.836 134.428C295.33 134.428 294.906 134.045 294.906 133.566C294.906 133.088 295.33 132.705 295.836 132.705C296.328 132.705 296.752 133.088 296.752 133.566C296.752 134.045 296.328 134.428 295.836 134.428ZM302.508 137.6C302.371 137.012 301.906 136.629 301.1 136.629C300.266 136.629 299.664 137.066 299.678 137.627C299.664 138.064 300.02 138.379 300.84 138.57L302.016 138.844C303.383 139.145 304.039 139.801 304.053 140.854C304.039 142.193 302.918 143.15 301.018 143.15C299.24 143.15 298.174 142.357 297.996 140.977H299.486C299.609 141.646 300.129 141.975 301.004 141.975C301.947 141.975 302.549 141.592 302.562 140.963C302.549 140.484 302.193 140.17 301.414 139.992L300.252 139.746C298.912 139.445 298.215 138.734 298.215 137.709C298.215 136.383 299.363 135.48 301.086 135.48C302.74 135.48 303.766 136.328 303.916 137.6H302.508ZM306.938 138.598V143H305.475V133.102H306.91V136.793H307.006C307.361 135.986 308.045 135.48 309.207 135.48C310.738 135.48 311.75 136.424 311.75 138.283V143H310.287V138.461C310.287 137.367 309.699 136.738 308.715 136.738C307.689 136.738 306.938 137.408 306.938 138.598Z" fill="#F7F7F7"/>
<path d="M129.545 153.102L132.457 161.4H132.566L135.492 153.102H136.791L133.168 163H131.869L128.246 153.102H129.545ZM144.379 155.029C144.379 156.123 144.058 156.923 143.217 157.244C143.511 157.832 143.668 158.529 143.668 159.322C143.668 161.633 142.314 163.15 140.305 163.15C138.281 163.15 136.914 161.633 136.914 159.322C136.914 157.012 138.281 155.48 140.305 155.48C141.303 155.48 142.144 155.856 142.738 156.52C143.23 156.321 143.312 155.768 143.312 155.029H144.379ZM140.305 162.111C141.795 162.111 142.492 160.799 142.492 159.322C142.492 157.846 141.795 156.52 140.305 156.52C138.787 156.52 138.09 157.846 138.09 159.322C138.09 160.799 138.787 162.111 140.305 162.111ZM139.785 154.564L140.961 152.322H142.314L140.797 154.564H139.785ZM145.213 163V155.576H146.389V163H145.213ZM145.801 154.346C145.35 154.346 144.98 154.004 144.98 153.566C144.98 153.129 145.35 152.787 145.801 152.787C146.252 152.787 146.635 153.129 146.635 153.566C146.635 154.004 146.252 154.346 145.801 154.346ZM154.578 163.15C152.732 163.15 151.42 161.66 151.42 159.309C151.42 156.957 152.732 155.48 154.592 155.48C156.027 155.48 156.492 156.355 156.738 156.752H156.82V154.934H154.797V154.031H156.82V153.102H158.01V154.031H159.076V154.934H158.01V163H156.861V161.865H156.738C156.479 162.275 156 163.15 154.578 163.15ZM154.742 162.098C156.096 162.098 156.861 160.949 156.861 159.281C156.861 157.641 156.123 156.533 154.742 156.533C153.32 156.533 152.609 157.736 152.609 159.281C152.609 160.867 153.334 162.098 154.742 162.098ZM163.082 163.15C161.059 163.15 159.691 161.633 159.691 159.322C159.691 157.012 161.059 155.48 163.082 155.48C165.092 155.48 166.445 157.012 166.445 159.322C166.445 161.633 165.092 163.15 163.082 163.15ZM163.082 162.111C164.572 162.111 165.27 160.799 165.27 159.322C165.27 157.846 164.572 156.52 163.082 156.52C161.564 156.52 160.867 157.846 160.867 159.322C160.867 160.799 161.564 162.111 163.082 162.111ZM164.08 154.688L163.068 153.348L162.07 154.688H160.949V154.605L162.535 152.596H163.602L165.188 154.605V154.688H164.08ZM163.137 165.461C162.686 165.461 162.316 165.119 162.316 164.682C162.316 164.244 162.686 163.902 163.137 163.902C163.588 163.902 163.971 164.244 163.971 164.682C163.971 165.119 163.588 165.461 163.137 165.461ZM175.633 157.504C175.469 156.889 175.004 156.479 174.129 156.479C173.213 156.479 172.557 156.971 172.557 157.6C172.557 158.092 172.953 158.434 173.828 158.639L174.936 158.912C176.262 159.227 176.918 159.883 176.918 160.922C176.918 162.207 175.865 163.15 174.006 163.15C172.338 163.15 171.34 162.412 171.148 161.059H172.379C172.516 161.783 173.049 162.125 173.979 162.125C175.031 162.125 175.701 161.688 175.701 160.99C175.701 160.471 175.332 160.115 174.484 159.924L173.363 159.664C172.064 159.363 171.381 158.652 171.381 157.668C171.381 156.396 172.488 155.48 174.129 155.48C175.66 155.48 176.631 156.301 176.781 157.504H175.633ZM180.869 154.564L182.045 152.322H183.398L181.881 154.564H180.869ZM178.094 160.895C178.094 159.186 179.598 158.803 180.883 158.707C181.354 158.673 182.558 158.611 182.893 158.598V157.996C182.893 157.053 182.332 156.506 181.211 156.506C180.268 156.506 179.707 156.943 179.543 157.504H178.312C178.463 156.314 179.625 155.48 181.266 155.48C182.236 155.48 184.055 155.768 184.055 158.105V163H182.893V161.988H182.838C182.592 162.494 181.908 163.178 180.623 163.178C179.215 163.178 178.094 162.344 178.094 160.895ZM179.27 160.949C179.27 161.729 179.926 162.125 180.828 162.125C182.154 162.125 182.893 161.236 182.893 160.307V159.555L181.02 159.691C179.953 159.76 179.27 160.143 179.27 160.949ZM187.117 158.543V163H185.941V155.576H187.076V156.738H187.172C187.527 155.986 188.211 155.48 189.346 155.48C190.85 155.48 191.848 156.396 191.848 158.283V163H190.672V158.365C190.672 157.217 190.043 156.533 188.99 156.533C187.91 156.533 187.117 157.258 187.117 158.543ZM196.742 165.939C194.951 165.939 193.734 165.16 193.598 163.779H194.828C194.992 164.531 195.689 164.914 196.742 164.914C198.014 164.914 198.793 164.367 198.793 163.137V161.633H198.697C198.451 162.043 197.973 162.891 196.537 162.891C194.732 162.891 193.379 161.523 193.379 159.186C193.379 156.902 194.691 155.48 196.551 155.48C197.986 155.48 198.451 156.355 198.725 156.752H198.82V155.576H199.969V163.205C199.969 165.119 198.547 165.939 196.742 165.939ZM196.701 161.838C198.055 161.838 198.82 160.867 198.82 159.227C198.82 157.641 198.082 156.533 196.701 156.533C195.279 156.533 194.568 157.736 194.568 159.227C194.568 160.771 195.293 161.838 196.701 161.838ZM208.596 155.576V156.561H207.037V160.867C207.037 161.824 207.502 161.975 208.008 161.975C208.227 161.975 208.527 161.961 208.705 161.947V163.041C208.527 163.068 208.227 163.096 207.885 163.096C206.9 163.096 205.848 162.48 205.848 161.168V156.561H204.727V155.576H205.848V153.799H207.037V155.576H208.596ZM211.453 158.543V163H210.277V153.102H211.453V156.738H211.549C211.891 155.973 212.561 155.48 213.736 155.48C215.254 155.48 216.266 156.383 216.266 158.283V163H215.09V158.365C215.09 157.203 214.447 156.533 213.381 156.533C212.273 156.533 211.453 157.258 211.453 158.543ZM218.604 154.646L220.572 152.896H221.639L223.607 154.646H222.213L221.105 153.635L220.012 154.646H218.604ZM223.088 153.484L224.045 151.748H225.467L224.1 153.484H223.088ZM217.797 160.895C217.797 159.186 219.301 158.803 220.586 158.707C221.058 158.673 222.261 158.611 222.596 158.598V157.996C222.596 157.053 222.035 156.506 220.914 156.506C219.971 156.506 219.41 156.943 219.246 157.504H218.016C218.166 156.314 219.328 155.48 220.969 155.48C221.939 155.48 223.758 155.768 223.758 158.105V163H222.596V161.988H222.541C222.295 162.494 221.611 163.178 220.326 163.178C218.918 163.178 217.797 162.344 217.797 160.895ZM218.973 160.949C218.973 161.729 219.629 162.125 220.531 162.125C221.857 162.125 222.596 161.236 222.596 160.307V159.555L220.723 159.691C219.656 159.76 218.973 160.143 218.973 160.949ZM225.645 165.789V155.576H226.779V156.752H226.916C227.162 156.355 227.627 155.48 229.062 155.48C230.922 155.48 232.221 156.957 232.221 159.309C232.221 161.66 230.922 163.15 229.076 163.15C227.654 163.15 227.162 162.275 226.916 161.865H226.82V165.789H225.645ZM226.793 159.281C226.793 160.949 227.545 162.098 228.912 162.098C230.32 162.098 231.045 160.867 231.045 159.281C231.045 157.736 230.334 156.533 228.912 156.533C227.518 156.533 226.793 157.641 226.793 159.281ZM235.297 162.084L234.23 165.803H233.219L233.971 162.084H235.297ZM243.855 165.939C242.064 165.939 240.848 165.16 240.711 163.779H241.941C242.105 164.531 242.803 164.914 243.855 164.914C245.127 164.914 245.906 164.367 245.906 163.137V161.633H245.811C245.564 162.043 245.086 162.891 243.65 162.891C241.846 162.891 240.492 161.523 240.492 159.186C240.492 156.902 241.805 155.48 243.664 155.48C245.1 155.48 245.564 156.355 245.838 156.752H245.934V155.576H247.082V163.205C247.082 165.119 245.66 165.939 243.855 165.939ZM243.814 161.838C245.168 161.838 245.934 160.867 245.934 159.227C245.934 157.641 245.195 156.533 243.814 156.533C242.393 156.533 241.682 157.736 241.682 159.227C241.682 160.771 242.406 161.838 243.814 161.838ZM248.6 160.895C248.6 159.186 250.104 158.803 251.389 158.707C251.86 158.673 253.063 158.611 253.398 158.598V157.996C253.398 157.053 252.838 156.506 251.717 156.506C250.773 156.506 250.213 156.943 250.049 157.504H248.818C248.969 156.314 250.131 155.48 251.771 155.48C252.742 155.48 254.561 155.768 254.561 158.105V163H253.398V161.988H253.344C253.098 162.494 252.414 163.178 251.129 163.178C249.721 163.178 248.6 162.344 248.6 160.895ZM249.775 160.949C249.775 161.729 250.432 162.125 251.334 162.125C252.66 162.125 253.398 161.236 253.398 160.307V159.555L251.525 159.691C250.459 159.76 249.775 160.143 249.775 160.949ZM256.447 163V155.576H257.582V156.738H257.678C257.992 155.945 258.703 155.48 259.674 155.48C260.645 155.48 261.301 155.945 261.656 156.738H261.738C262.121 155.973 262.9 155.48 263.967 155.48C265.293 155.48 266.236 156.287 266.236 158.037V163H265.061V158.051C265.061 156.957 264.363 156.533 263.557 156.533C262.518 156.533 261.93 157.23 261.93 158.174V163H260.74V157.928C260.74 157.094 260.139 156.533 259.291 156.533C258.402 156.533 257.623 157.285 257.623 158.365V163H256.447ZM271.637 163V155.576H272.771V156.738H272.867C273.182 155.945 273.893 155.48 274.863 155.48C275.834 155.48 276.49 155.945 276.846 156.738H276.928C277.311 155.973 278.09 155.48 279.156 155.48C280.482 155.48 281.426 156.287 281.426 158.037V163H280.25V158.051C280.25 156.957 279.553 156.533 278.746 156.533C277.707 156.533 277.119 157.23 277.119 158.174V163H275.93V157.928C275.93 157.094 275.328 156.533 274.48 156.533C273.592 156.533 272.812 157.285 272.812 158.365V163H271.637ZM285.76 154.564L284.256 152.322H285.623L286.785 154.564H285.76ZM282.957 160.895C282.957 159.186 284.461 158.803 285.746 158.707C286.218 158.673 287.421 158.611 287.756 158.598V157.996C287.756 157.053 287.195 156.506 286.074 156.506C285.131 156.506 284.57 156.943 284.406 157.504H283.176C283.326 156.314 284.488 155.48 286.129 155.48C287.1 155.48 288.918 155.768 288.918 158.105V163H287.756V161.988H287.701C287.455 162.494 286.771 163.178 285.486 163.178C284.078 163.178 282.957 162.344 282.957 160.895ZM284.133 160.949C284.133 161.729 284.789 162.125 285.691 162.125C287.018 162.125 287.756 161.236 287.756 160.307V159.555L285.883 159.691C284.816 159.76 284.133 160.143 284.133 160.949ZM295.494 159.951V155.576H296.656V163H295.494V161.742H295.412C295.057 162.494 294.332 163.096 293.211 163.096C291.803 163.096 290.805 162.18 290.805 160.293V155.576H291.98V160.211C291.98 161.277 292.65 161.961 293.594 161.961C294.428 161.961 295.494 161.332 295.494 159.951ZM305.297 155.576V156.561H303.738V160.867C303.738 161.824 304.203 161.975 304.709 161.975C304.928 161.975 305.229 161.961 305.406 161.947V163.041C305.229 163.068 304.928 163.096 304.586 163.096C303.602 163.096 302.549 162.48 302.549 161.168V156.561H301.428V155.576H302.549V153.799H303.738V155.576H305.297ZM309.768 163.15C307.744 163.15 306.377 161.633 306.377 159.322C306.377 157.012 307.744 155.48 309.768 155.48C311.777 155.48 313.131 157.012 313.131 159.322C313.131 161.633 311.777 163.15 309.768 163.15ZM309.768 162.111C311.258 162.111 311.955 160.799 311.955 159.322C311.955 157.846 311.258 156.52 309.768 156.52C308.25 156.52 307.553 157.846 307.553 159.322C307.553 160.799 308.25 162.111 309.768 162.111ZM307.279 154.646L309.248 152.896H310.314L312.283 154.646H310.889L309.781 153.635L308.688 154.646H307.279ZM311.764 153.484L312.721 151.748H314.143L312.775 153.484H311.764ZM314.676 163V155.576H315.852V163H314.676ZM315.264 154.346C314.812 154.346 314.443 154.004 314.443 153.566C314.443 153.129 314.812 152.787 315.264 152.787C315.715 152.787 316.098 153.129 316.098 153.566C316.098 154.004 315.715 154.346 315.264 154.346ZM133.072 177.504C132.908 176.889 132.443 176.479 131.568 176.479C130.652 176.479 129.996 176.971 129.996 177.6C129.996 178.092 130.393 178.434 131.268 178.639L132.375 178.912C133.701 179.227 134.357 179.883 134.357 180.922C134.357 182.207 133.305 183.15 131.445 183.15C129.777 183.15 128.779 182.412 128.588 181.059H129.818C129.955 181.783 130.488 182.125 131.418 182.125C132.471 182.125 133.141 181.688 133.141 180.99C133.141 180.471 132.771 180.115 131.924 179.924L130.803 179.664C129.504 179.363 128.82 178.652 128.82 177.668C128.82 176.396 129.928 175.48 131.568 175.48C133.1 175.48 134.07 176.301 134.221 177.504H133.072ZM139.006 183.15C136.859 183.15 135.533 181.633 135.533 179.35C135.533 177.066 136.873 175.48 138.896 175.48C140.455 175.48 142.096 176.438 142.096 179.186V179.678H136.709C136.764 181.25 137.68 182.111 139.006 182.111C139.895 182.111 140.455 181.729 140.729 181.264H141.986C141.631 182.385 140.537 183.15 139.006 183.15ZM136.436 174.646C136.436 173.648 137.092 172.951 137.912 172.951C138.664 172.951 138.992 173.566 139.676 173.566C140.045 173.566 140.332 173.252 140.332 172.842L141.221 172.91C141.221 173.936 140.564 174.564 139.73 174.564C138.842 174.564 138.705 173.949 137.98 173.949C137.611 173.949 137.352 174.277 137.352 174.688L136.436 174.646ZM136.723 178.68H140.906C140.906 177.436 140.113 176.52 138.896 176.52C137.611 176.52 136.791 177.531 136.723 178.68ZM148.316 178.543V183H147.141V173.102H148.316V176.738H148.412C148.754 175.973 149.424 175.48 150.6 175.48C152.117 175.48 153.129 176.383 153.129 178.283V183H151.953V178.365C151.953 177.203 151.311 176.533 150.244 176.533C149.137 176.533 148.316 177.258 148.316 178.543ZM162.125 175.029C162.125 176.123 161.804 176.923 160.963 177.244C161.257 177.832 161.414 178.529 161.414 179.322C161.414 181.633 160.061 183.15 158.051 183.15C156.027 183.15 154.66 181.633 154.66 179.322C154.66 177.012 156.027 175.48 158.051 175.48C159.049 175.48 159.89 175.856 160.484 176.52C160.977 176.321 161.059 175.768 161.059 175.029H162.125ZM158.051 182.111C159.541 182.111 160.238 180.799 160.238 179.322C160.238 177.846 159.541 176.52 158.051 176.52C156.533 176.52 155.836 177.846 155.836 179.322C155.836 180.799 156.533 182.111 158.051 182.111ZM158.105 185.461C157.654 185.461 157.285 185.119 157.285 184.682C157.285 184.244 157.654 183.902 158.105 183.902C158.557 183.902 158.939 184.244 158.939 184.682C158.939 185.119 158.557 185.461 158.105 185.461ZM162.959 185.789V175.576H164.094V176.752H164.23C164.477 176.355 164.941 175.48 166.377 175.48C168.236 175.48 169.535 176.957 169.535 179.309C169.535 181.66 168.236 183.15 166.391 183.15C164.969 183.15 164.477 182.275 164.23 181.865H164.135V185.789H162.959ZM164.107 179.281C164.107 180.949 164.859 182.098 166.227 182.098C167.635 182.098 168.359 180.867 168.359 179.281C168.359 177.736 167.648 176.533 166.227 176.533C164.832 176.533 164.107 177.641 164.107 179.281ZM180.691 175.576L177.943 183H176.727L173.992 175.576H175.277L177.301 181.469H177.383L179.406 175.576H180.691ZM188.826 175.029C188.826 176.123 188.505 176.923 187.664 177.244C187.958 177.832 188.115 178.529 188.115 179.322C188.115 181.633 186.762 183.15 184.752 183.15C182.729 183.15 181.361 181.633 181.361 179.322C181.361 177.012 182.729 175.48 184.752 175.48C185.75 175.48 186.591 175.856 187.186 176.52C187.678 176.321 187.76 175.768 187.76 175.029H188.826ZM184.752 182.111C186.242 182.111 186.939 180.799 186.939 179.322C186.939 177.846 186.242 176.52 184.752 176.52C183.234 176.52 182.537 177.846 182.537 179.322C182.537 180.799 183.234 182.111 184.752 182.111ZM184.232 174.564L185.408 172.322H186.762L185.244 174.564H184.232ZM189.66 183V175.576H190.836V183H189.66ZM190.248 174.346C189.797 174.346 189.428 174.004 189.428 173.566C189.428 173.129 189.797 172.787 190.248 172.787C190.699 172.787 191.082 173.129 191.082 173.566C191.082 174.004 190.699 174.346 190.248 174.346ZM196.373 183V173.102H197.549V176.752H197.645C197.904 176.355 198.342 175.48 199.791 175.48C201.65 175.48 202.963 176.957 202.963 179.309C202.963 181.66 201.65 183.15 199.805 183.15C198.383 183.15 197.904 182.275 197.645 181.865H197.508V183H196.373ZM197.521 179.281C197.521 180.949 198.273 182.098 199.627 182.098C201.035 182.098 201.773 180.867 201.773 179.281C201.773 177.736 201.062 176.533 199.627 176.533C198.26 176.533 197.521 177.641 197.521 179.281ZM207.42 185.461C206.969 185.461 206.6 185.119 206.6 184.682C206.6 184.244 206.969 183.902 207.42 183.902C207.871 183.902 208.254 184.244 208.254 184.682C208.254 185.119 207.871 185.461 207.42 185.461ZM204.139 180.895C204.139 179.186 205.643 178.803 206.928 178.707C207.399 178.673 208.603 178.611 208.938 178.598V177.996C208.938 177.053 208.377 176.506 207.256 176.506C206.312 176.506 205.752 176.943 205.588 177.504H204.357C204.508 176.314 205.67 175.48 207.311 175.48C208.281 175.48 210.1 175.768 210.1 178.105V183H208.938V181.988H208.883C208.637 182.494 207.953 183.178 206.668 183.178C205.26 183.178 204.139 182.344 204.139 180.895ZM205.314 180.949C205.314 181.729 205.971 182.125 206.873 182.125C208.199 182.125 208.938 181.236 208.938 180.307V179.555L207.064 179.691C205.998 179.76 205.314 180.143 205.314 180.949ZM213.162 178.543V183H211.986V175.576H213.121V176.738H213.217C213.572 175.986 214.256 175.48 215.391 175.48C216.895 175.48 217.893 176.396 217.893 178.283V183H216.717V178.365C216.717 177.217 216.088 176.533 215.035 176.533C213.955 176.533 213.162 177.258 213.162 178.543ZM226.096 183.15C224.25 183.15 222.938 181.66 222.938 179.309C222.938 176.957 224.25 175.48 226.109 175.48C227.545 175.48 228.01 176.355 228.256 176.752H228.338V174.934H226.314V174.031H228.338V173.102H229.527V174.031H230.594V174.934H229.527V183H228.379V181.865H228.256C227.996 182.275 227.518 183.15 226.096 183.15ZM226.26 182.098C227.613 182.098 228.379 180.949 228.379 179.281C228.379 177.641 227.641 176.533 226.26 176.533C224.838 176.533 224.127 177.736 224.127 179.281C224.127 180.867 224.852 182.098 226.26 182.098ZM234.6 183.15C232.576 183.15 231.209 181.633 231.209 179.322C231.209 177.012 232.576 175.48 234.6 175.48C236.609 175.48 237.963 177.012 237.963 179.322C237.963 181.633 236.609 183.15 234.6 183.15ZM234.6 182.111C236.09 182.111 236.787 180.799 236.787 179.322C236.787 177.846 236.09 176.52 234.6 176.52C233.082 176.52 232.385 177.846 232.385 179.322C232.385 180.799 233.082 182.111 234.6 182.111ZM234.08 174.564L235.256 172.322H236.609L235.092 174.564H234.08ZM240.342 183.082C239.863 183.082 239.453 182.686 239.467 182.193C239.453 181.715 239.863 181.318 240.342 181.318C240.82 181.318 241.217 181.715 241.217 182.193C241.217 182.686 240.82 183.082 240.342 183.082Z" fill="white"/>
<path d="M0 232C0 223.163 7.16344 216 16 216H226C234.837 216 242 223.163 242 232V300C242 308.837 234.837 316 226 316H16C7.16344 316 0 308.837 0 300V232Z" fill="#4A171F"/>
<path d="M24.5938 251L25.0312 248.348H22.7207L22.2832 251H21.1074L21.5449 248.348H20.123L20.3008 247.186H21.7363L22.1055 244.916H20.6973L20.875 243.74H22.3105L22.7344 241.102H23.9102L23.4863 243.74H25.7969L26.2207 241.102H27.3828L26.959 243.74H28.3945L28.2031 244.916H26.7676L26.3984 247.186H27.8203L27.6152 248.348H26.207L25.7695 251H24.5938ZM22.9121 247.186H25.2227L25.5918 244.916H23.2812L22.9121 247.186ZM34.9023 243.713C34.8066 242.797 34 242.264 32.8652 242.264C31.6484 242.264 30.8828 242.879 30.8828 243.727C30.8828 244.67 31.9082 245.025 32.6875 245.217L33.6445 245.477C34.916 245.777 36.4883 246.475 36.502 248.266C36.4883 249.934 35.1621 251.164 32.8242 251.164C30.6094 251.164 29.2148 250.057 29.1191 248.252H30.623C30.7188 249.332 31.6621 249.852 32.8242 249.852C34.082 249.852 34.998 249.209 35.0117 248.238C34.998 247.377 34.1914 247.021 33.1387 246.748L31.9629 246.434C30.377 245.996 29.3789 245.189 29.3789 243.809C29.3789 242.1 30.9102 240.965 32.9062 240.965C34.916 240.965 36.3242 242.113 36.3652 243.713H34.9023ZM37.6504 248.908C37.6504 247.213 39.0859 246.775 40.4258 246.68C40.918 246.646 42.0322 246.584 42.3809 246.57L42.3672 245.982C42.3672 245.148 41.8613 244.656 40.8633 244.656C40.002 244.656 39.4824 245.053 39.332 245.6H37.8828C38.0195 244.369 39.168 243.48 40.918 243.48C42.0938 243.48 43.8301 243.918 43.8301 246.064V251H42.4082V249.988H42.3535C42.0664 250.549 41.3828 251.164 40.1523 251.164C38.7441 251.164 37.6504 250.357 37.6504 248.908ZM39.0723 248.922C39.0723 249.633 39.6602 250.002 40.4805 250.002C41.6699 250.002 42.3809 249.209 42.3809 248.32V247.637L40.6309 247.76C39.6738 247.828 39.0723 248.184 39.0723 248.922ZM47.0566 246.598V251H45.5938V243.576H47.002V244.793H47.084C47.4395 244 48.1641 243.48 49.2715 243.48C50.8027 243.48 51.8008 244.438 51.8008 246.283V251H50.3516V246.461C50.3516 245.381 49.7637 244.738 48.7793 244.738C47.7812 244.738 47.0566 245.408 47.0566 246.598ZM56.6953 253.939C54.8223 253.939 53.5918 253.105 53.4551 251.725H54.9453C55.082 252.422 55.7383 252.764 56.709 252.764C57.8711 252.764 58.6094 252.271 58.6094 251.109V249.646H58.5137C58.2539 250.125 57.7207 250.891 56.3535 250.891C54.6035 250.891 53.25 249.578 53.25 247.213C53.25 244.848 54.5762 243.48 56.3672 243.48C57.748 243.48 58.2539 244.314 58.5273 244.779H58.623V243.576H60.0449V251.164C60.0449 253.064 58.6094 253.939 56.6953 253.939ZM56.6816 249.688C57.9258 249.688 58.623 248.771 58.623 247.24C58.623 245.736 57.9395 244.725 56.6816 244.725C55.3828 244.725 54.7402 245.818 54.7402 247.24C54.7402 248.689 55.4102 249.688 56.6816 249.688ZM68.7129 243.576V244.738H67.1953V248.812C67.1953 249.646 67.6191 249.797 68.084 249.811C68.2891 249.811 68.6172 249.783 68.8223 249.77V251.041C68.6172 251.068 68.3027 251.096 67.9062 251.096C66.7578 251.096 65.7324 250.467 65.7461 249.113V244.738H64.6523V243.576H65.7461V241.799H67.1953V243.576H68.7129ZM70.1348 251V243.576H71.543V244.752H71.625C71.8984 243.959 72.6367 243.467 73.5117 243.467C73.6895 243.467 73.9766 243.48 74.127 243.494V244.889C74.0039 244.861 73.6621 244.807 73.3613 244.807C72.3496 244.807 71.5977 245.504 71.5977 246.475V251H70.1348ZM78.1191 251.15C76.0137 251.15 74.6465 249.619 74.6465 247.322C74.6465 245.012 76.0137 243.48 78.1191 243.48C80.2109 243.48 81.5781 245.012 81.5781 247.322C81.5781 249.619 80.2109 251.15 78.1191 251.15ZM78.1191 249.934C79.459 249.934 80.1016 248.744 80.1016 247.322C80.1016 245.9 79.459 244.684 78.1191 244.684C76.752 244.684 76.1094 245.9 76.1094 247.322C76.1094 248.744 76.752 249.934 78.1191 249.934ZM78.1875 253.557C77.6816 253.557 77.2578 253.174 77.2578 252.695C77.2578 252.217 77.6816 251.834 78.1875 251.834C78.6797 251.834 79.1035 252.217 79.1035 252.695C79.1035 253.174 78.6797 253.557 78.1875 253.557ZM84.4766 246.598V251H83.0137V243.576H84.4219V244.793H84.5039C84.8594 244 85.584 243.48 86.6914 243.48C88.2227 243.48 89.2207 244.438 89.2207 246.283V251H87.7715V246.461C87.7715 245.381 87.1836 244.738 86.1992 244.738C85.2012 244.738 84.4766 245.408 84.4766 246.598ZM94.1152 253.939C92.2422 253.939 91.0117 253.105 90.875 251.725H92.3652C92.502 252.422 93.1582 252.764 94.1289 252.764C95.291 252.764 96.0293 252.271 96.0293 251.109V249.646H95.9336C95.6738 250.125 95.1406 250.891 93.7734 250.891C92.0234 250.891 90.6699 249.578 90.6699 247.213C90.6699 244.848 91.9961 243.48 93.7871 243.48C95.168 243.48 95.6738 244.314 95.9473 244.779H96.043V243.576H97.4648V251.164C97.4648 253.064 96.0293 253.939 94.1152 253.939ZM94.1016 249.688C95.3457 249.688 96.043 248.771 96.043 247.24C96.043 245.736 95.3594 244.725 94.1016 244.725C92.8027 244.725 92.1602 245.818 92.1602 247.24C92.1602 248.689 92.8301 249.688 94.1016 249.688Z" fill="#F7F7F7"/>
<path d="M111.594 251L112.031 248.348H109.721L109.283 251H108.107L108.545 248.348H107.123L107.301 247.186H108.736L109.105 244.916H107.697L107.875 243.74H109.311L109.734 241.102H110.91L110.486 243.74H112.797L113.221 241.102H114.383L113.959 243.74H115.395L115.203 244.916H113.768L113.398 247.186H114.82L114.615 248.348H113.207L112.77 251H111.594ZM109.912 247.186H112.223L112.592 244.916H110.281L109.912 247.186ZM116.023 242.4V241.102H123.693V242.4H120.617V251H119.113V242.4H116.023ZM124.322 251V243.576H125.73V244.752H125.812C126.086 243.959 126.824 243.467 127.699 243.467C127.877 243.467 128.164 243.48 128.314 243.494V244.889C128.191 244.861 127.85 244.807 127.549 244.807C126.537 244.807 125.785 245.504 125.785 246.475V251H124.322ZM137.57 243.221C137.57 244.643 137.105 245.429 135.588 245.545V251H134.166V249.715H134.084C133.742 250.508 132.977 251.096 131.869 251.096C130.434 251.096 129.422 250.139 129.422 248.293V243.576H130.885V248.115C130.885 249.127 131.5 249.77 132.389 249.77C133.195 249.77 134.139 249.182 134.139 247.91V243.576H135.588V244.684C136.449 244.595 136.49 244.13 136.49 243.221H137.57ZM145.445 243.057C145.445 244.171 145.11 244.964 144.297 245.312C144.57 245.88 144.721 246.563 144.721 247.322C144.721 249.619 143.354 251.15 141.262 251.15C139.156 251.15 137.789 249.619 137.789 247.322C137.789 245.012 139.156 243.48 141.262 243.48C142.328 243.48 143.203 243.877 143.818 244.574C144.235 244.328 144.324 243.781 144.324 243.057H145.445ZM141.262 249.934C142.602 249.934 143.244 248.744 143.244 247.322C143.244 245.9 142.602 244.684 141.262 244.684C139.895 244.684 139.252 245.9 139.252 247.322C139.252 248.744 139.895 249.934 141.262 249.934ZM141.836 242.551H140.688L140.66 241.566C141.33 241.539 141.59 241.389 141.59 241.102C141.59 240.76 141.139 240.623 140.564 240.623L140.605 239.816C142.082 239.816 142.861 240.322 142.848 241.115C142.861 241.73 142.342 242.018 141.836 242.086V242.551ZM147.715 246.598V251H146.252V243.576H147.66V244.793H147.742C148.098 244 148.822 243.48 149.93 243.48C151.461 243.48 152.459 244.438 152.459 246.283V251H151.01V246.461C151.01 245.381 150.422 244.738 149.438 244.738C148.439 244.738 147.715 245.408 147.715 246.598ZM157.354 253.939C155.48 253.939 154.25 253.105 154.113 251.725H155.604C155.74 252.422 156.396 252.764 157.367 252.764C158.529 252.764 159.268 252.271 159.268 251.109V249.646H159.172C158.912 250.125 158.379 250.891 157.012 250.891C155.262 250.891 153.908 249.578 153.908 247.213C153.908 244.848 155.234 243.48 157.025 243.48C158.406 243.48 158.912 244.314 159.186 244.779H159.281V243.576H160.703V251.164C160.703 253.064 159.268 253.939 157.354 253.939ZM157.34 249.688C158.584 249.688 159.281 248.771 159.281 247.24C159.281 245.736 158.598 244.725 157.34 244.725C156.041 244.725 155.398 245.818 155.398 247.24C155.398 248.689 156.068 249.688 157.34 249.688ZM169.371 243.576V244.738H167.854V248.812C167.854 249.646 168.277 249.797 168.742 249.811C168.947 249.811 169.275 249.783 169.48 249.77V251.041C169.275 251.068 168.961 251.096 168.564 251.096C167.416 251.096 166.391 250.467 166.404 249.113V244.738H165.311V243.576H166.404V241.799H167.854V243.576H169.371ZM172.42 246.598V251H170.957V241.102H172.393V244.793H172.488C172.844 243.986 173.527 243.48 174.689 243.48C176.221 243.48 177.232 244.424 177.232 246.283V251H175.77V246.461C175.77 245.367 175.182 244.738 174.197 244.738C173.172 244.738 172.42 245.408 172.42 246.598ZM181.457 242.578L179.953 240.35H181.498L182.619 242.578H181.457ZM178.654 248.908C178.654 247.213 180.09 246.775 181.43 246.68C181.922 246.646 183.036 246.584 183.385 246.57L183.371 245.982C183.371 245.148 182.865 244.656 181.867 244.656C181.006 244.656 180.486 245.053 180.336 245.6H178.887C179.023 244.369 180.172 243.48 181.922 243.48C183.098 243.48 184.834 243.918 184.834 246.064V251H183.412V249.988H183.357C183.07 250.549 182.387 251.164 181.156 251.164C179.748 251.164 178.654 250.357 178.654 248.908ZM180.076 248.922C180.076 249.633 180.664 250.002 181.484 250.002C182.674 250.002 183.385 249.209 183.385 248.32V247.637L181.635 247.76C180.678 247.828 180.076 248.184 180.076 248.922ZM188.061 246.598V251H186.598V243.576H188.006V244.793H188.088C188.443 244 189.168 243.48 190.275 243.48C191.807 243.48 192.805 244.438 192.805 246.283V251H191.355V246.461C191.355 245.381 190.768 244.738 189.783 244.738C188.785 244.738 188.061 245.408 188.061 246.598ZM196.045 246.598V251H194.582V241.102H196.018V244.793H196.113C196.469 243.986 197.152 243.48 198.314 243.48C199.846 243.48 200.857 244.424 200.857 246.283V251H199.395V246.461C199.395 245.367 198.807 244.738 197.822 244.738C196.797 244.738 196.045 245.408 196.045 246.598Z" fill="#F7F7F7"/>
<path d="M21.0938 261.102H22.5703L25.9062 269.25H26.0293L29.3652 261.102H30.8418V271H29.6797V263.521H29.584L26.5078 271H25.4141L22.3379 263.521H22.2559V271H21.0938V261.102ZM32.5234 268.895C32.5234 267.186 34.0273 266.803 35.3125 266.707C35.7842 266.673 36.9873 266.611 37.3223 266.598V265.996C37.3223 265.053 36.7617 264.506 35.6406 264.506C34.6973 264.506 34.1367 264.943 33.9727 265.504H32.7422C32.8926 264.314 34.0547 263.48 35.6953 263.48C36.666 263.48 38.4844 263.768 38.4844 266.105V271H37.3223V269.988H37.2676C37.0215 270.494 36.3379 271.178 35.0527 271.178C33.6445 271.178 32.5234 270.344 32.5234 268.895ZM33.6992 268.949C33.6992 269.729 34.3555 270.125 35.2578 270.125C36.584 270.125 37.3223 269.236 37.3223 268.307V267.555L35.4492 267.691C34.3828 267.76 33.6992 268.143 33.6992 268.949ZM40.3711 271V261.102H41.5469V266.857H41.6836L44.8965 263.576H46.3457L43.2148 266.748L46.5781 271H45.0879L42.3398 267.5L41.5469 268.225V271H40.3711ZM50.4062 271.15C48.2598 271.15 46.9336 269.633 46.9336 267.35C46.9336 265.066 48.2734 263.48 50.2969 263.48C51.8555 263.48 53.4961 264.438 53.4961 267.186V267.678H48.1094C48.1641 269.25 49.0801 270.111 50.4062 270.111C51.2949 270.111 51.8555 269.729 52.1289 269.264H53.3867C53.0312 270.385 51.9375 271.15 50.4062 271.15ZM48.123 266.68H52.3066C52.3066 265.436 51.5137 264.52 50.2969 264.52C49.0117 264.52 48.1914 265.531 48.123 266.68ZM59.7168 267.951V263.576H60.8789V271H59.7168V269.742H59.6348C59.2793 270.494 58.5547 271.096 57.4336 271.096C56.0254 271.096 55.0273 270.18 55.0273 268.293V263.576H56.2031V268.211C56.2031 269.277 56.873 269.961 57.8164 269.961C58.6504 269.961 59.7168 269.332 59.7168 267.951ZM62.7656 273.789V263.576H63.9004V264.752H64.0371C64.2832 264.355 64.748 263.48 66.1836 263.48C68.043 263.48 69.3418 264.957 69.3418 267.309C69.3418 269.66 68.043 271.15 66.1973 271.15C64.7754 271.15 64.2832 270.275 64.0371 269.865H63.9414V273.789H62.7656ZM63.9141 267.281C63.9141 268.949 64.666 270.098 66.0332 270.098C67.4414 270.098 68.166 268.867 68.166 267.281C68.166 265.736 67.4551 264.533 66.0332 264.533C64.6387 264.533 63.9141 265.641 63.9141 267.281ZM75.5625 261.102V271H74.3867V261.102H75.5625ZM80.4707 271.15C78.4473 271.15 77.0801 269.633 77.0801 267.322C77.0801 265.012 78.4473 263.48 80.4707 263.48C82.4805 263.48 83.834 265.012 83.834 267.322C83.834 269.633 82.4805 271.15 80.4707 271.15ZM80.4707 270.111C81.9609 270.111 82.6582 268.799 82.6582 267.322C82.6582 265.846 81.9609 264.52 80.4707 264.52C78.9531 264.52 78.2559 265.846 78.2559 267.322C78.2559 268.799 78.9531 270.111 80.4707 270.111ZM88.4141 271.15C86.3906 271.15 85.0234 269.633 85.0234 267.322C85.0234 265.012 86.3906 263.48 88.4141 263.48C90.4238 263.48 91.7773 265.012 91.7773 267.322C91.7773 269.633 90.4238 271.15 88.4141 271.15ZM88.4141 270.111C89.9043 270.111 90.6016 268.799 90.6016 267.322C90.6016 265.846 89.9043 264.52 88.4141 264.52C86.8965 264.52 86.1992 265.846 86.1992 267.322C86.1992 268.799 86.8965 270.111 88.4141 270.111ZM93.3223 271V261.102H94.498V266.857H94.6348L97.8477 263.576H99.2969L96.166 266.748L99.5293 271H98.0391L95.291 267.5L94.498 268.225V271H93.3223ZM106.871 271.15C105.025 271.15 103.713 269.66 103.713 267.309C103.713 264.957 105.025 263.48 106.885 263.48C108.32 263.48 108.785 264.355 109.031 264.752H109.113V262.934H107.09V262.031H109.113V261.102H110.303V262.031H111.369V262.934H110.303V271H109.154V269.865H109.031C108.771 270.275 108.293 271.15 106.871 271.15ZM107.035 270.098C108.389 270.098 109.154 268.949 109.154 267.281C109.154 265.641 108.416 264.533 107.035 264.533C105.613 264.533 104.902 265.736 104.902 267.281C104.902 268.867 105.627 270.098 107.035 270.098ZM116.277 262.688L115.266 261.348L114.268 262.688H113.146V262.605L114.732 260.596H115.799L117.385 262.605V262.688H116.277ZM115.266 273.461C114.814 273.461 114.445 273.119 114.445 272.682C114.445 272.244 114.814 271.902 115.266 271.902C115.717 271.902 116.1 272.244 116.1 272.682C116.1 273.119 115.717 273.461 115.266 273.461ZM111.984 268.895C111.984 267.186 113.488 266.803 114.773 266.707C115.245 266.673 116.448 266.611 116.783 266.598V265.996C116.783 265.053 116.223 264.506 115.102 264.506C114.158 264.506 113.598 264.943 113.434 265.504H112.203C112.354 264.314 113.516 263.48 115.156 263.48C116.127 263.48 117.945 263.768 117.945 266.105V271H116.783V269.988H116.729C116.482 270.494 115.799 271.178 114.514 271.178C113.105 271.178 111.984 270.344 111.984 268.895ZM113.16 268.949C113.16 269.729 113.816 270.125 114.719 270.125C116.045 270.125 116.783 269.236 116.783 268.307V267.555L114.91 267.691C113.844 267.76 113.16 268.143 113.16 268.949ZM119.832 271V263.576H120.967V264.738H121.062C121.377 263.945 122.088 263.48 123.059 263.48C124.029 263.48 124.686 263.945 125.041 264.738H125.123C125.506 263.973 126.285 263.48 127.352 263.48C128.678 263.48 129.621 264.287 129.621 266.037V271H128.445V266.051C128.445 264.957 127.748 264.533 126.941 264.533C125.902 264.533 125.314 265.23 125.314 266.174V271H124.125V265.928C124.125 265.094 123.523 264.533 122.676 264.533C121.787 264.533 121.008 265.285 121.008 266.365V271H119.832ZM141.133 263.576L138.385 271H137.168L134.434 263.576H135.719L137.742 269.469H137.824L139.848 263.576H141.133ZM144.646 262.564L143.143 260.322H144.51L145.672 262.564H144.646ZM141.844 268.895C141.844 267.186 143.348 266.803 144.633 266.707C145.104 266.673 146.308 266.611 146.643 266.598V265.996C146.643 265.053 146.082 264.506 144.961 264.506C144.018 264.506 143.457 264.943 143.293 265.504H142.062C142.213 264.314 143.375 263.48 145.016 263.48C145.986 263.48 147.805 263.768 147.805 266.105V271H146.643V269.988H146.588C146.342 270.494 145.658 271.178 144.373 271.178C142.965 271.178 141.844 270.344 141.844 268.895ZM143.02 268.949C143.02 269.729 143.676 270.125 144.578 270.125C145.904 270.125 146.643 269.236 146.643 268.307V267.555L144.77 267.691C143.703 267.76 143.02 268.143 143.02 268.949ZM154.381 261.102V271H153.205V261.102H154.381ZM159.18 273.461C158.729 273.461 158.359 273.119 158.359 272.682C158.359 272.244 158.729 271.902 159.18 271.902C159.631 271.902 160.014 272.244 160.014 272.682C160.014 273.119 159.631 273.461 159.18 273.461ZM155.898 268.895C155.898 267.186 157.402 266.803 158.688 266.707C159.159 266.673 160.362 266.611 160.697 266.598V265.996C160.697 265.053 160.137 264.506 159.016 264.506C158.072 264.506 157.512 264.943 157.348 265.504H156.117C156.268 264.314 157.43 263.48 159.07 263.48C160.041 263.48 161.859 263.768 161.859 266.105V271H160.697V269.988H160.643C160.396 270.494 159.713 271.178 158.428 271.178C157.02 271.178 155.898 270.344 155.898 268.895ZM157.074 268.949C157.074 269.729 157.73 270.125 158.633 270.125C159.959 270.125 160.697 269.236 160.697 268.307V267.555L158.824 267.691C157.758 267.76 157.074 268.143 157.074 268.949ZM164.922 266.543V271H163.746V263.576H164.881V264.738H164.977C165.332 263.986 166.016 263.48 167.15 263.48C168.654 263.48 169.652 264.396 169.652 266.283V271H168.477V266.365C168.477 265.217 167.848 264.533 166.795 264.533C165.715 264.533 164.922 265.258 164.922 266.543ZM172.715 266.543V271H171.539V261.102H172.715V264.738H172.811C173.152 263.973 173.822 263.48 174.998 263.48C176.516 263.48 177.527 264.383 177.527 266.283V271H176.352V266.365C176.352 265.203 175.709 264.533 174.643 264.533C173.535 264.533 172.715 265.258 172.715 266.543ZM185.73 271.15C183.885 271.15 182.572 269.66 182.572 267.309C182.572 264.957 183.885 263.48 185.744 263.48C187.18 263.48 187.645 264.355 187.891 264.752H187.973V261.102H189.162V271H188.014V269.865H187.891C187.631 270.275 187.152 271.15 185.73 271.15ZM185.895 270.098C187.248 270.098 188.014 268.949 188.014 267.281C188.014 265.641 187.275 264.533 185.895 264.533C184.473 264.533 183.762 265.736 183.762 267.281C183.762 268.867 184.486 270.098 185.895 270.098ZM193.646 262.564L192.143 260.322H193.51L194.672 262.564H193.646ZM190.844 268.895C190.844 267.186 192.348 266.803 193.633 266.707C194.104 266.673 195.308 266.611 195.643 266.598V265.996C195.643 265.053 195.082 264.506 193.961 264.506C193.018 264.506 192.457 264.943 192.293 265.504H191.062C191.213 264.314 192.375 263.48 194.016 263.48C194.986 263.48 196.805 263.768 196.805 266.105V271H195.643V269.988H195.588C195.342 270.494 194.658 271.178 193.373 271.178C191.965 271.178 190.844 270.344 190.844 268.895ZM192.02 268.949C192.02 269.729 192.676 270.125 193.578 270.125C194.904 270.125 195.643 269.236 195.643 268.307V267.555L193.77 267.691C192.703 267.76 192.02 268.143 192.02 268.949ZM199.867 266.543V271H198.691V263.576H199.826V264.738H199.922C200.277 263.986 200.961 263.48 202.096 263.48C203.6 263.48 204.598 264.396 204.598 266.283V271H203.422V266.365C203.422 265.217 202.793 264.533 201.74 264.533C200.66 264.533 199.867 265.258 199.867 266.543ZM207.66 266.543V271H206.484V261.102H207.66V264.738H207.756C208.098 263.973 208.768 263.48 209.943 263.48C211.461 263.48 212.473 264.383 212.473 266.283V271H211.297V266.365C211.297 265.203 210.654 264.533 209.588 264.533C208.48 264.533 207.66 265.258 207.66 266.543ZM23.9785 291.15C21.873 291.15 20.5879 289.551 20.5879 287.322C20.5879 285.066 21.9277 283.48 23.9512 283.48C25.5371 283.48 26.7129 284.41 26.9043 285.818H25.7285C25.5645 285.135 24.9629 284.52 23.9785 284.52C22.6523 284.52 21.7637 285.613 21.7637 287.281C21.7637 289.004 22.625 290.098 23.9785 290.098C24.8535 290.098 25.5234 289.633 25.7285 288.812H26.9043C26.7129 290.139 25.6328 291.15 23.9785 291.15ZM29.5293 286.543V291H28.3535V281.102H29.5293V284.738H29.625C29.9668 283.973 30.6367 283.48 31.8125 283.48C33.3301 283.48 34.3418 284.383 34.3418 286.283V291H33.166V286.365C33.166 285.203 32.5234 284.533 31.457 284.533C30.3496 284.533 29.5293 285.258 29.5293 286.543ZM39.2637 291.15C37.2402 291.15 35.873 289.633 35.873 287.322C35.873 285.012 37.2402 283.48 39.2637 283.48C41.2734 283.48 42.627 285.012 42.627 287.322C42.627 289.633 41.2734 291.15 39.2637 291.15ZM39.2637 290.111C40.7539 290.111 41.4512 288.799 41.4512 287.322C41.4512 285.846 40.7539 284.52 39.2637 284.52C37.7461 284.52 37.0488 285.846 37.0488 287.322C37.0488 288.799 37.7461 290.111 39.2637 290.111ZM47.8359 291V281.102H49.0117V284.752H49.1074C49.3672 284.355 49.8047 283.48 51.2539 283.48C53.1133 283.48 54.4258 284.957 54.4258 287.309C54.4258 289.66 53.1133 291.15 51.2676 291.15C49.8457 291.15 49.3672 290.275 49.1074 289.865H48.9707V291H47.8359ZM48.9844 287.281C48.9844 288.949 49.7363 290.098 51.0898 290.098C52.498 290.098 53.2363 288.867 53.2363 287.281C53.2363 285.736 52.5254 284.533 51.0898 284.533C49.7227 284.533 48.9844 285.641 48.9844 287.281ZM58.8828 293.461C58.4316 293.461 58.0625 293.119 58.0625 292.682C58.0625 292.244 58.4316 291.902 58.8828 291.902C59.334 291.902 59.7168 292.244 59.7168 292.682C59.7168 293.119 59.334 293.461 58.8828 293.461ZM55.6016 288.895C55.6016 287.186 57.1055 286.803 58.3906 286.707C58.8623 286.673 60.0654 286.611 60.4004 286.598V285.996C60.4004 285.053 59.8398 284.506 58.7188 284.506C57.7754 284.506 57.2148 284.943 57.0508 285.504H55.8203C55.9707 284.314 57.1328 283.48 58.7734 283.48C59.7441 283.48 61.5625 283.768 61.5625 286.105V291H60.4004V289.988H60.3457C60.0996 290.494 59.416 291.178 58.1309 291.178C56.7227 291.178 55.6016 290.344 55.6016 288.895ZM56.7773 288.949C56.7773 289.729 57.4336 290.125 58.3359 290.125C59.6621 290.125 60.4004 289.236 60.4004 288.307V287.555L58.5273 287.691C57.4609 287.76 56.7773 288.143 56.7773 288.949ZM64.625 286.543V291H63.4492V283.576H64.584V284.738H64.6797C65.0352 283.986 65.7188 283.48 66.8535 283.48C68.3574 283.48 69.3555 284.396 69.3555 286.283V291H68.1797V286.365C68.1797 285.217 67.5508 284.533 66.498 284.533C65.418 284.533 64.625 285.258 64.625 286.543ZM77.5586 291.15C75.7129 291.15 74.4004 289.66 74.4004 287.309C74.4004 284.957 75.7129 283.48 77.5723 283.48C79.0078 283.48 79.4727 284.355 79.7188 284.752H79.8008V282.934H77.7773V282.031H79.8008V281.102H80.9902V282.031H82.0566V282.934H80.9902V291H79.8418V289.865H79.7188C79.459 290.275 78.9805 291.15 77.5586 291.15ZM77.7227 290.098C79.0762 290.098 79.8418 288.949 79.8418 287.281C79.8418 285.641 79.1035 284.533 77.7227 284.533C76.3008 284.533 75.5898 285.736 75.5898 287.281C75.5898 288.867 76.3145 290.098 77.7227 290.098ZM86.0625 291.15C84.0391 291.15 82.6719 289.633 82.6719 287.322C82.6719 285.012 84.0391 283.48 86.0625 283.48C88.0723 283.48 89.4258 285.012 89.4258 287.322C89.4258 289.633 88.0723 291.15 86.0625 291.15ZM86.0625 290.111C87.5527 290.111 88.25 288.799 88.25 287.322C88.25 285.846 87.5527 284.52 86.0625 284.52C84.5449 284.52 83.8477 285.846 83.8477 287.322C83.8477 288.799 84.5449 290.111 86.0625 290.111ZM85.543 282.564L86.7188 280.322H88.0723L86.5547 282.564H85.543ZM91.8047 291.082C91.3262 291.082 90.916 290.686 90.9297 290.193C90.916 289.715 91.3262 289.318 91.8047 289.318C92.2832 289.318 92.6797 289.715 92.6797 290.193C92.6797 290.686 92.2832 291.082 91.8047 291.082Z" fill="white"/>
<circle cx="300" cy="228" r="12" fill="#807613"/>
<circle cx="300" cy="304" r="12" fill="#113B65"/>
<circle cx="281" cy="233.092" r="12" transform="rotate(-30 281 233.092)" fill="#805B13"/>
<circle cx="319" cy="298.91" r="12" transform="rotate(-30 319 298.91)" fill="#2D1645"/>
<circle cx="267.091" cy="247.001" r="12" transform="rotate(-60 267.091 247.001)" fill="#4C3B17"/>
<circle cx="332.909" cy="285" r="12" transform="rotate(-60 332.909 285)" fill="#143319"/>
<circle cx="262" cy="266.001" r="12" transform="rotate(-90 262 266.001)" fill="#801313"/>
<circle cx="338" cy="266.001" r="12" transform="rotate(-90 338 266.001)" fill="#124D4D"/>
<circle cx="267.091" cy="285" r="12" transform="rotate(-120 267.091 285)" fill="#4A171F"/>
<circle cx="332.909" cy="247.001" r="12" transform="rotate(-120 332.909 247.001)" fill="#11531C"/>
<circle cx="281" cy="298.908" r="12" transform="rotate(-150 281 298.908)" fill="#421172"/>
<circle cx="318.999" cy="233.091" r="12" transform="rotate(-150 318.999 233.091)" fill="#3B4216"/>
</svg>
