<svg width="41" height="40" viewBox="0 0 41 40" fill="none" xmlns="http://www.w3.org/2000/svg">
<path d="M12.5 12H15.5L17.5 10H23.5L25.5 12H28.5C29.0304 12 29.5391 12.2107 29.9142 12.5858C30.2893 12.9609 30.5 13.4696 30.5 14V26C30.5 26.5304 30.2893 27.0391 29.9142 27.4142C29.5391 27.7893 29.0304 28 28.5 28H12.5C11.9696 28 11.4609 27.7893 11.0858 27.4142C10.7107 27.0391 10.5 26.5304 10.5 26V14C10.5 13.4696 10.7107 12.9609 11.0858 12.5858C11.4609 12.2107 11.9696 12 12.5 12ZM20.5 15C19.1739 15 17.9021 15.5268 16.9645 16.4645C16.0268 17.4021 15.5 18.6739 15.5 20C15.5 21.3261 16.0268 22.5979 16.9645 23.5355C17.9021 24.4732 19.1739 25 20.5 25C21.8261 25 23.0979 24.4732 24.0355 23.5355C24.9732 22.5979 25.5 21.3261 25.5 20C25.5 18.6739 24.9732 17.4021 24.0355 16.4645C23.0979 15.5268 21.8261 15 20.5 15ZM20.5 17C21.2956 17 22.0587 17.3161 22.6213 17.8787C23.1839 18.4413 23.5 19.2044 23.5 20C23.5 20.7956 23.1839 21.5587 22.6213 22.1213C22.0587 22.6839 21.2956 23 20.5 23C19.7044 23 18.9413 22.6839 18.3787 22.1213C17.8161 21.5587 17.5 20.7956 17.5 20C17.5 19.2044 17.8161 18.4413 18.3787 17.8787C18.9413 17.3161 19.7044 17 20.5 17Z" fill="#111111"/>
</svg>
