<svg width="88" height="70" viewBox="0 0 88 70" fill="none" xmlns="http://www.w3.org/2000/svg">
<g id="fa6-solid:box-open">
<path id="Vector" d="M8.09861 5.75548C8.51111 4.92149 9.41861 4.44298 10.3399 4.56602L43.9999 8.74962L77.6599 4.56602C78.5811 4.45665 79.4886 4.93516 79.9011 5.75548L85.6349 17.1578C86.8724 19.6051 85.5524 22.5719 82.9124 23.3238L60.4449 29.7086C58.5336 30.2555 56.4849 29.4488 55.4674 27.7535L43.9999 8.74962L32.5324 27.7535C31.5149 29.4488 29.4661 30.2555 27.5549 29.7086L5.10111 23.3238C2.44736 22.5719 1.14111 19.6051 2.37861 17.1578L8.09861 5.75548ZM44.1511 17.4996L51.6999 29.9957C53.7486 33.3863 57.8324 34.9996 61.6686 33.9059L79.1999 28.9293V51.7613C79.1999 54.7691 77.1374 57.3941 74.1949 58.1324L46.1311 65.1051C44.7286 65.4606 43.2574 65.4606 41.8686 65.1051L13.8049 58.1324C10.8624 57.3805 8.79986 54.7555 8.79986 51.7477V28.9156L26.3449 33.9059C30.1674 34.9996 34.2649 33.3863 36.3136 29.9957L43.8486 17.4996H44.1511Z" fill="#B5B8C2"/>
</g>
</svg>
