<svg width="350" height="316" viewBox="0 0 350 316" fill="none" xmlns="http://www.w3.org/2000/svg">
<path d="M0 16C0 7.16345 7.16344 0 16 0H226C234.837 0 242 7.16344 242 16V84C242 92.8366 234.837 100 226 100H16C7.16344 100 0 92.8366 0 84V16Z" fill="#0000B2"/>
<path d="M35.1562 61L28.7812 38.375H33.1562L37.25 55.0312H37.4688L41.8125 38.375H45.8125L50.1875 55.0625H50.375L54.4688 38.375H58.8438L52.4688 61H48.4375L43.9062 45.0938H43.75L39.1875 61H35.1562ZM61.25 61V44.0312H65.25V61H61.25ZM63.2812 41.625C62.0312 41.625 60.9688 40.6562 60.9688 39.4375C60.9688 38.25 62.0312 37.2812 63.2812 37.2812C64.5625 37.2812 65.5938 38.25 65.5938 39.4375C65.5938 40.6562 64.5625 41.625 63.2812 41.625ZM73.0625 51.0625V61H69.0625V44.0312H72.875V46.9062H73.0938C73.875 45 75.5938 43.8125 78.125 43.8125C81.6562 43.8125 83.9688 46.125 83.9375 50.1875V61H79.9688V50.8125C79.9688 48.5312 78.75 47.1875 76.6562 47.1875C74.5312 47.1875 73.0625 48.5938 73.0625 51.0625ZM96.2188 44.0312V47.0938H92.875V55.9062C92.875 57.5312 93.6875 57.875 94.6875 57.875C95.1562 57.875 95.9375 57.8438 96.4375 57.8125V61.0625C95.9688 61.1562 95.1875 61.2188 94.1875 61.2188C91.1875 61.2188 88.875 59.75 88.9062 56.5625V47.0938H86.4688V44.0312H88.9062V39.9688H92.875V44.0312H96.2188ZM106.625 61.3438C101.5 61.3438 98.375 57.9375 98.375 52.625C98.375 47.375 101.562 43.8125 106.406 43.8125C110.562 43.8125 114.156 46.4062 114.156 52.375V53.625H102.312C102.359 56.5156 104.062 58.2188 106.656 58.2188C108.406 58.2188 109.594 57.4688 110.094 56.4688H114C113.281 59.4062 110.562 61.3438 106.625 61.3438ZM102.344 50.9062H110.344C110.312 48.5938 108.781 46.9062 106.469 46.9062C104.062 46.9062 102.469 48.7344 102.344 50.9062ZM117.25 61V44.0312H121.125V46.8438H121.312C121.906 44.9062 123.562 43.7812 125.5 43.7812C125.938 43.7812 126.562 43.8125 126.938 43.875V47.5625C126.594 47.4375 125.75 47.3125 125.094 47.3125C122.875 47.3125 121.25 48.8438 121.25 51V61H117.25ZM144.781 61H137.094V38.375H144.906C151.656 38.375 155.75 42.625 155.75 49.6562C155.75 56.7188 151.656 61 144.781 61ZM141.156 57.4688H144.562C149.281 57.4688 151.688 54.875 151.688 49.6562C151.688 44.4688 149.281 41.9062 144.688 41.9062H141.156V57.4688ZM166.688 61.3438C161.562 61.3438 158.438 57.9375 158.438 52.625C158.438 47.375 161.625 43.8125 166.469 43.8125C170.625 43.8125 174.219 46.4062 174.219 52.375V53.625H162.375C162.422 56.5156 164.125 58.2188 166.719 58.2188C168.469 58.2188 169.656 57.4688 170.156 56.4688H174.062C173.344 59.4062 170.625 61.3438 166.688 61.3438ZM162.406 50.9062H170.406C170.375 48.5938 168.844 46.9062 166.531 46.9062C164.125 46.9062 162.531 48.7344 162.406 50.9062ZM184.844 61.3438C179.719 61.3438 176.594 57.9375 176.594 52.625C176.594 47.375 179.781 43.8125 184.625 43.8125C188.781 43.8125 192.375 46.4062 192.375 52.375V53.625H180.531C180.578 56.5156 182.281 58.2188 184.875 58.2188C186.625 58.2188 187.812 57.4688 188.312 56.4688H192.219C191.5 59.4062 188.781 61.3438 184.844 61.3438ZM180.562 50.9062H188.562C188.531 48.5938 187 46.9062 184.688 46.9062C182.281 46.9062 180.688 48.7344 180.562 50.9062ZM195.469 67.375V44.0312H199.375V46.8125H199.625C200.25 45.5938 201.5 43.8125 204.5 43.8125C208.406 43.8125 211.5 46.875 211.5 52.5312C211.5 58.125 208.5 61.3125 204.5 61.3125C201.562 61.3125 200.25 59.5625 199.625 58.3125H199.469V67.375H195.469ZM199.375 52.5C199.375 55.8125 200.812 58.0312 203.406 58.0312C206.031 58.0312 207.438 55.7188 207.438 52.5C207.438 49.3438 206.062 47.0625 203.406 47.0625C200.812 47.0625 199.375 49.2188 199.375 52.5Z" fill="#B2B200"/>
<path d="M250 16C250 7.16345 257.163 0 266 0H334C342.837 0 350 7.16344 350 16V84C350 92.8366 342.837 100 334 100H266C257.163 100 250 92.8366 250 84V16Z" fill="#511370"/>
<path d="M311.818 54.5312L319.806 52.4062C320.67 52.1719 321.582 52.6406 321.818 53.5156C322.054 54.3906 321.535 55.2656 320.67 55.5L315.812 56.7969L319.287 58.7813C320.041 59.2188 320.309 60.1719 319.868 60.9219C319.428 61.6719 318.469 61.9375 317.714 61.5L314.24 59.5156L315.545 64.3438C315.781 65.2188 315.277 66.0938 314.397 66.3281C313.517 66.5625 312.636 66.0469 312.4 65.1875L310.262 57.25L306.646 55.1719C305.529 56.4062 304.052 57.3125 302.354 57.6562V61.7656L308.202 67.5781C308.831 68.2031 308.831 69.2344 308.202 69.8594C307.573 70.4844 306.536 70.4844 305.907 69.8594L302.354 66.3281V70.3125C302.354 71.1719 301.646 71.875 300.781 71.875C299.917 71.875 299.209 71.1719 299.209 70.3125V66.3438L295.656 69.875C295.027 70.5 293.989 70.5 293.36 69.875C292.731 69.25 292.731 68.2188 293.36 67.5938L299.209 61.7812V57.6719C297.495 57.3281 296.033 56.4219 294.917 55.1875L291.316 57.25L289.178 65.1875C288.942 66.0469 288.046 66.5625 287.181 66.3281C286.316 66.0938 285.798 65.2031 286.033 64.3438L287.338 59.5156L283.864 61.5156C283.109 61.9375 282.15 61.6875 281.71 60.9375C281.27 60.1875 281.537 59.2344 282.276 58.8281L285.75 56.8281L280.892 55.5313C280.027 55.2969 279.509 54.4062 279.744 53.5469C279.98 52.6875 280.876 52.1719 281.741 52.4062L289.728 54.5312L293.344 52.4531C293.077 51.6875 292.904 50.8594 292.904 50C292.904 49.1406 293.077 48.3125 293.344 47.5781L289.728 45.5L281.741 47.625C280.861 47.8594 279.98 47.3438 279.744 46.4844C279.509 45.6094 280.027 44.7344 280.892 44.5L285.75 43.2031L282.276 41.2031C281.537 40.7656 281.27 39.8125 281.71 39.0625C282.134 38.3125 283.109 38.0625 283.848 38.4844L287.338 40.4844L286.033 35.6563C285.798 34.7969 286.316 33.9219 287.181 33.6875C288.046 33.4531 288.926 33.9688 289.162 34.8281L291.301 42.7656L294.901 44.8281C296.017 43.5937 297.495 42.6875 299.193 42.3438V38.2344L293.344 32.4219C292.716 31.7969 292.716 30.7656 293.344 30.1406C293.973 29.5156 295.011 29.5156 295.64 30.1406L299.193 33.6719V29.6875C299.193 28.8281 299.901 28.125 300.766 28.125C301.63 28.125 302.338 28.8281 302.338 29.6875V33.6719L305.891 30.1406C306.52 29.5156 307.558 29.5156 308.187 30.1406C308.815 30.7656 308.815 31.7969 308.187 32.4219L302.338 38.2344V42.3438C304.036 42.6875 305.514 43.5938 306.614 44.8125L310.231 42.7344L312.369 34.7969C312.605 33.9375 313.501 33.4219 314.366 33.6562C315.23 33.8906 315.749 34.7812 315.513 35.6406L314.208 40.4688L317.683 38.4844C318.438 38.0625 319.397 38.3125 319.837 39.0625C320.262 39.8125 320.01 40.7656 319.271 41.1875L315.796 43.1719L320.655 44.4688C321.519 44.7031 322.038 45.5937 321.802 46.4531C321.566 47.3125 320.67 47.8281 319.806 47.5938L311.818 45.4688L308.202 47.5469C308.47 48.3125 308.643 49.1406 308.643 50C308.643 50.8594 308.47 51.6719 308.202 52.4531L311.818 54.5312ZM305.482 50C305.482 47.4112 303.371 45.3125 300.766 45.3125C298.161 45.3125 296.049 47.4112 296.049 50C296.049 52.5888 298.161 54.6875 300.766 54.6875C303.371 54.6875 305.482 52.5888 305.482 50Z" fill="#71D4FF"/>
<circle cx="49.9995" cy="120" r="12" fill="#B2B200"/>
<circle cx="49.9995" cy="195.999" r="12" fill="#0000B2"/>
<circle cx="31.0002" cy="125.091" r="12" transform="rotate(-30 31.0002 125.091)" fill="#A50037"/>
<circle cx="68.9997" cy="190.909" r="12" transform="rotate(-30 68.9997 190.909)" fill="#001BA5"/>
<circle cx="17.0905" cy="139" r="12" transform="rotate(-60 17.0905 139)" fill="#9F004F"/>
<circle cx="82.9094" cy="177" r="12" transform="rotate(-60 82.9094 177)" fill="#00339B"/>
<circle cx="12" cy="158.001" r="12" transform="rotate(-90 12 158.001)" fill="#960072"/>
<circle cx="88" cy="158.001" r="12" transform="rotate(-90 88 158.001)" fill="#00704B"/>
<circle cx="17.091" cy="177" r="12" transform="rotate(-120 17.091 177)" fill="#8D008D"/>
<circle cx="82.9089" cy="139" r="12" transform="rotate(-120 82.9089 139)" fill="#007426"/>
<circle cx="30.9998" cy="190.908" r="12" transform="rotate(-150 30.9998 190.908)" fill="#67009A"/>
<circle cx="68.9998" cy="125.091" r="12" transform="rotate(-150 68.9998 125.091)" fill="#4CA41B"/>
<path d="M108 124C108 115.163 115.163 108 124 108H334C342.837 108 350 115.163 350 124V192C350 200.837 342.837 208 334 208H124C115.163 208 108 200.837 108 192V124Z" fill="#8D008D"/>
<path d="M132.594 143L133.031 140.348H130.721L130.283 143H129.107L129.545 140.348H128.123L128.301 139.186H129.736L130.105 136.916H128.697L128.875 135.74H130.311L130.734 133.102H131.91L131.486 135.74H133.797L134.221 133.102H135.383L134.959 135.74H136.395L136.203 136.916H134.768L134.398 139.186H135.82L135.615 140.348H134.207L133.77 143H132.594ZM130.912 139.186H133.223L133.592 136.916H131.281L130.912 139.186ZM140.729 143H137.516V133.102H140.824C143.736 133.102 145.486 134.961 145.486 138.037C145.486 141.127 143.736 143 140.729 143ZM139.02 141.688H140.646C142.889 141.688 143.996 140.375 143.996 138.037C143.996 135.713 142.889 134.414 140.729 134.414H139.02V141.688ZM150.258 143.15C148.07 143.15 146.73 141.646 146.73 139.336C146.73 137.053 148.098 135.48 150.162 135.48C151.857 135.48 153.457 136.533 153.457 139.213V139.732H148.18C148.221 141.141 149.048 141.947 150.271 141.947C151.105 141.947 151.639 141.592 151.885 141.141H153.361C153.033 142.344 151.885 143.15 150.258 143.15ZM148.193 138.639H152.021C152.021 137.504 151.297 136.684 150.176 136.684C149.007 136.684 148.248 137.586 148.193 138.639ZM158.105 143.15C155.918 143.15 154.578 141.646 154.578 139.336C154.578 137.053 155.945 135.48 158.01 135.48C159.705 135.48 161.305 136.533 161.305 139.213V139.732H156.027C156.068 141.141 156.896 141.947 158.119 141.947C158.953 141.947 159.486 141.592 159.732 141.141H161.209C160.881 142.344 159.732 143.15 158.105 143.15ZM156.041 138.639H159.869C159.869 137.504 159.145 136.684 158.023 136.684C156.854 136.684 156.096 137.586 156.041 138.639ZM162.754 145.789V135.576H164.176V136.779H164.299C164.559 136.314 165.064 135.48 166.432 135.48C168.223 135.48 169.549 136.889 169.549 139.309C169.549 141.701 168.25 143.15 166.445 143.15C165.092 143.15 164.559 142.33 164.299 141.838H164.217V145.789H162.754ZM164.189 139.281C164.189 140.84 164.873 141.906 166.117 141.906C167.402 141.906 168.072 140.771 168.072 139.281C168.072 137.818 167.416 136.725 166.117 136.725C164.859 136.725 164.189 137.736 164.189 139.281Z" fill="white"/>
<path d="M183.594 143L184.031 140.348H181.721L181.283 143H180.107L180.545 140.348H179.123L179.301 139.186H180.736L181.105 136.916H179.697L179.875 135.74H181.311L181.734 133.102H182.91L182.486 135.74H184.797L185.221 133.102H186.383L185.959 135.74H187.395L187.203 136.916H185.768L185.398 139.186H186.82L186.615 140.348H185.207L184.77 143H183.594ZM181.912 139.186H184.223L184.592 136.916H182.281L181.912 139.186ZM191.729 143H188.516V133.102H191.824C194.736 133.102 196.486 134.961 196.486 138.037C196.486 141.127 194.736 143 191.729 143ZM190.02 141.688H191.646C193.889 141.688 194.996 140.375 194.996 138.037C194.996 135.713 193.889 134.414 191.729 134.414H190.02V141.688ZM197.717 140.908C197.717 139.213 199.152 138.775 200.492 138.68C200.984 138.646 202.099 138.584 202.447 138.57L202.434 137.982C202.434 137.148 201.928 136.656 200.93 136.656C200.068 136.656 199.549 137.053 199.398 137.6H197.949C198.086 136.369 199.234 135.48 200.984 135.48C202.16 135.48 203.896 135.918 203.896 138.064V143H202.475V141.988H202.42C202.133 142.549 201.449 143.164 200.219 143.164C198.811 143.164 197.717 142.357 197.717 140.908ZM199.139 140.922C199.139 141.633 199.727 142.002 200.547 142.002C201.736 142.002 202.447 141.209 202.447 140.32V139.637L200.697 139.76C199.74 139.828 199.139 140.184 199.139 140.922ZM205.66 143V135.576H207.068V136.752H207.15C207.424 135.959 208.162 135.467 209.037 135.467C209.215 135.467 209.502 135.48 209.652 135.494V136.889C209.529 136.861 209.188 136.807 208.887 136.807C207.875 136.807 207.123 137.504 207.123 138.475V143H205.66ZM210.746 143V133.102H212.209V138.707H212.332L215.271 135.576H217.021L214.027 138.762L217.227 143H215.436L212.92 139.664L212.209 140.361V143H210.746Z" fill="white"/>
<path d="M230.594 143L231.031 140.348H228.721L228.283 143H227.107L227.545 140.348H226.123L226.301 139.186H227.736L228.105 136.916H226.697L226.875 135.74H228.311L228.734 133.102H229.91L229.486 135.74H231.797L232.221 133.102H233.383L232.959 135.74H234.395L234.203 136.916H232.768L232.398 139.186H233.82L233.615 140.348H232.207L231.77 143H230.594ZM228.912 139.186H231.223L231.592 136.916H229.281L228.912 139.186ZM238.729 143H235.516V133.102H238.824C241.736 133.102 243.486 134.961 243.486 138.037C243.486 141.127 241.736 143 238.729 143ZM237.02 141.688H238.646C240.889 141.688 241.996 140.375 241.996 138.037C241.996 135.713 240.889 134.414 238.729 134.414H237.02V141.688ZM244.717 140.908C244.717 139.213 246.152 138.775 247.492 138.68C247.984 138.646 249.099 138.584 249.447 138.57L249.434 137.982C249.434 137.148 248.928 136.656 247.93 136.656C247.068 136.656 246.549 137.053 246.398 137.6H244.949C245.086 136.369 246.234 135.48 247.984 135.48C249.16 135.48 250.896 135.918 250.896 138.064V143H249.475V141.988H249.42C249.133 142.549 248.449 143.164 247.219 143.164C245.811 143.164 244.717 142.357 244.717 140.908ZM246.139 140.922C246.139 141.633 246.727 142.002 247.547 142.002C248.736 142.002 249.447 141.209 249.447 140.32V139.637L247.697 139.76C246.74 139.828 246.139 140.184 246.139 140.922ZM252.66 143V135.576H254.068V136.752H254.15C254.424 135.959 255.162 135.467 256.037 135.467C256.215 135.467 256.502 135.48 256.652 135.494V136.889C256.529 136.861 256.188 136.807 255.887 136.807C254.875 136.807 254.123 137.504 254.123 138.475V143H252.66ZM257.746 143V133.102H259.209V138.707H259.332L262.271 135.576H264.021L261.027 138.762L264.227 143H262.436L259.92 139.664L259.209 140.361V143H257.746ZM271.979 136.232C271.609 135.057 270.721 134.346 269.408 134.346C267.74 134.346 266.455 135.658 266.455 138.051C266.455 140.443 267.727 141.756 269.477 141.756C271.056 141.756 272.102 140.758 272.129 139.172H269.695V137.928H273.592V139.049C273.592 141.551 271.869 143.137 269.463 143.137C266.783 143.137 264.965 141.182 264.965 138.051C264.965 134.893 266.838 132.965 269.395 132.965C271.541 132.965 273.182 134.305 273.523 136.232H271.979ZM275.205 143V135.576H276.613V136.752H276.695C276.969 135.959 277.707 135.467 278.582 135.467C278.76 135.467 279.047 135.48 279.197 135.494V136.889C279.074 136.861 278.732 136.807 278.432 136.807C277.42 136.807 276.668 137.504 276.668 138.475V143H275.205ZM279.867 140.908C279.867 139.213 281.303 138.775 282.643 138.68C283.135 138.646 284.249 138.584 284.598 138.57L284.584 137.982C284.584 137.148 284.078 136.656 283.08 136.656C282.219 136.656 281.699 137.053 281.549 137.6H280.1C280.236 136.369 281.385 135.48 283.135 135.48C284.311 135.48 286.047 135.918 286.047 138.064V143H284.625V141.988H284.57C284.283 142.549 283.6 143.164 282.369 143.164C280.961 143.164 279.867 142.357 279.867 140.908ZM281.289 140.922C281.289 141.633 281.877 142.002 282.697 142.002C283.887 142.002 284.598 141.209 284.598 140.32V139.637L282.848 139.76C281.891 139.828 281.289 140.184 281.289 140.922ZM288.439 145.789C288.139 145.789 287.852 145.775 287.66 145.748V144.531C287.824 144.545 288.111 144.559 288.316 144.559C288.768 144.559 289.15 144.518 289.492 143.588L289.67 143.096L286.949 135.576H288.508L290.381 141.332H290.463L292.336 135.576H293.908L290.846 143.984C290.422 145.16 289.656 145.789 288.439 145.789ZM295.098 143V135.576H296.561V143H295.098ZM295.836 134.428C295.33 134.428 294.906 134.045 294.906 133.566C294.906 133.088 295.33 132.705 295.836 132.705C296.328 132.705 296.752 133.088 296.752 133.566C296.752 134.045 296.328 134.428 295.836 134.428ZM302.508 137.6C302.371 137.012 301.906 136.629 301.1 136.629C300.266 136.629 299.664 137.066 299.678 137.627C299.664 138.064 300.02 138.379 300.84 138.57L302.016 138.844C303.383 139.145 304.039 139.801 304.053 140.854C304.039 142.193 302.918 143.15 301.018 143.15C299.24 143.15 298.174 142.357 297.996 140.977H299.486C299.609 141.646 300.129 141.975 301.004 141.975C301.947 141.975 302.549 141.592 302.562 140.963C302.549 140.484 302.193 140.17 301.414 139.992L300.252 139.746C298.912 139.445 298.215 138.734 298.215 137.709C298.215 136.383 299.363 135.48 301.086 135.48C302.74 135.48 303.766 136.328 303.916 137.6H302.508ZM306.938 138.598V143H305.475V133.102H306.91V136.793H307.006C307.361 135.986 308.045 135.48 309.207 135.48C310.738 135.48 311.75 136.424 311.75 138.283V143H310.287V138.461C310.287 137.367 309.699 136.738 308.715 136.738C307.689 136.738 306.938 137.408 306.938 138.598Z" fill="white"/>
<path d="M136.955 153.102V163H135.779L130.42 155.289H130.324V163H129.094V153.102H130.283L135.643 160.826H135.738V153.102H136.955ZM140.168 158.543V163H138.992V153.102H140.168V156.738H140.264C140.605 155.973 141.275 155.48 142.451 155.48C143.969 155.48 144.98 156.383 144.98 158.283V163H143.805V158.365C143.805 157.203 143.162 156.533 142.096 156.533C140.988 156.533 140.168 157.258 140.168 158.543ZM154.605 155.248C154.605 156.622 154.182 157.367 152.719 157.463V163H151.557V161.742H151.475C151.119 162.494 150.395 163.096 149.273 163.096C147.865 163.096 146.867 162.18 146.867 160.293V155.576H148.043V160.211C148.043 161.277 148.713 161.961 149.656 161.961C150.49 161.961 151.557 161.332 151.557 159.951V155.576H152.719V156.67C153.573 156.581 153.594 156.137 153.594 155.248H154.605ZM147.414 154.646C147.414 153.648 148.07 152.951 148.891 152.951C149.643 152.951 149.971 153.566 150.654 153.566C151.023 153.566 151.311 153.252 151.311 152.842L152.199 152.91C152.199 153.936 151.543 154.564 150.709 154.564C149.82 154.564 149.684 153.949 148.959 153.949C148.59 153.949 148.33 154.277 148.33 154.688L147.414 154.646ZM156.342 158.543V163H155.166V155.576H156.301V156.738H156.396C156.752 155.986 157.436 155.48 158.57 155.48C160.074 155.48 161.072 156.396 161.072 158.283V163H159.896V158.365C159.896 157.217 159.268 156.533 158.215 156.533C157.135 156.533 156.342 157.258 156.342 158.543ZM165.967 165.939C164.176 165.939 162.959 165.16 162.822 163.779H164.053C164.217 164.531 164.914 164.914 165.967 164.914C167.238 164.914 168.018 164.367 168.018 163.137V161.633H167.922C167.676 162.043 167.197 162.891 165.762 162.891C163.957 162.891 162.604 161.523 162.604 159.186C162.604 156.902 163.916 155.48 165.775 155.48C167.211 155.48 167.676 156.355 167.949 156.752H168.045V155.576H169.193V163.205C169.193 165.119 167.771 165.939 165.967 165.939ZM165.926 161.838C167.279 161.838 168.045 160.867 168.045 159.227C168.045 157.641 167.307 156.533 165.926 156.533C164.504 156.533 163.793 157.736 163.793 159.227C163.793 160.771 164.518 161.838 165.926 161.838ZM174.58 163V155.576H175.715V156.738H175.811C176.125 155.945 176.836 155.48 177.807 155.48C178.777 155.48 179.434 155.945 179.789 156.738H179.871C180.254 155.973 181.033 155.48 182.1 155.48C183.426 155.48 184.369 156.287 184.369 158.037V163H183.193V158.051C183.193 156.957 182.496 156.533 181.689 156.533C180.65 156.533 180.062 157.23 180.062 158.174V163H178.873V157.928C178.873 157.094 178.271 156.533 177.424 156.533C176.535 156.533 175.756 157.285 175.756 158.365V163H174.58ZM188.703 154.564L187.199 152.322H188.566L189.729 154.564H188.703ZM185.9 160.895C185.9 159.186 187.404 158.803 188.689 158.707C189.161 158.673 190.364 158.611 190.699 158.598V157.996C190.699 157.053 190.139 156.506 189.018 156.506C188.074 156.506 187.514 156.943 187.35 157.504H186.119C186.27 156.314 187.432 155.48 189.072 155.48C190.043 155.48 191.861 155.768 191.861 158.105V163H190.699V161.988H190.645C190.398 162.494 189.715 163.178 188.43 163.178C187.021 163.178 185.9 162.344 185.9 160.895ZM187.076 160.949C187.076 161.729 187.732 162.125 188.635 162.125C189.961 162.125 190.699 161.236 190.699 160.307V159.555L188.826 159.691C187.76 159.76 187.076 160.143 187.076 160.949ZM198.438 159.951V155.576H199.6V163H198.438V161.742H198.355C198 162.494 197.275 163.096 196.154 163.096C194.746 163.096 193.748 162.18 193.748 160.293V155.576H194.924V160.211C194.924 161.277 195.594 161.961 196.537 161.961C197.371 161.961 198.438 161.332 198.438 159.951ZM208.035 163.15C205.93 163.15 204.645 161.551 204.645 159.322C204.645 157.066 205.984 155.48 208.008 155.48C209.594 155.48 210.77 156.41 210.961 157.818H209.785C209.621 157.135 209.02 156.52 208.035 156.52C206.709 156.52 205.82 157.613 205.82 159.281C205.82 161.004 206.682 162.098 208.035 162.098C208.91 162.098 209.58 161.633 209.785 160.812H210.961C210.77 162.139 209.689 163.15 208.035 163.15ZM215.445 163.15C213.422 163.15 212.055 161.633 212.055 159.322C212.055 157.012 213.422 155.48 215.445 155.48C217.455 155.48 218.809 157.012 218.809 159.322C218.809 161.633 217.455 163.15 215.445 163.15ZM215.445 162.111C216.936 162.111 217.633 160.799 217.633 159.322C217.633 157.846 216.936 156.52 215.445 156.52C213.928 156.52 213.23 157.846 213.23 159.322C213.23 160.799 213.928 162.111 215.445 162.111ZM214.926 154.564L216.102 152.322H217.455L215.938 154.564H214.926ZM226.67 163.15C224.824 163.15 223.512 161.66 223.512 159.309C223.512 156.957 224.824 155.48 226.684 155.48C228.119 155.48 228.584 156.355 228.83 156.752H228.912V154.934H226.889V154.031H228.912V153.102H230.102V154.031H231.168V154.934H230.102V163H228.953V161.865H228.83C228.57 162.275 228.092 163.15 226.67 163.15ZM226.834 162.098C228.188 162.098 228.953 160.949 228.953 159.281C228.953 157.641 228.215 156.533 226.834 156.533C225.412 156.533 224.701 157.736 224.701 159.281C224.701 160.867 225.426 162.098 226.834 162.098ZM235.174 163.15C233.15 163.15 231.783 161.633 231.783 159.322C231.783 157.012 233.15 155.48 235.174 155.48C237.184 155.48 238.537 157.012 238.537 159.322C238.537 161.633 237.184 163.15 235.174 163.15ZM235.174 162.111C236.664 162.111 237.361 160.799 237.361 159.322C237.361 157.846 236.664 156.52 235.174 156.52C233.656 156.52 232.959 157.846 232.959 159.322C232.959 160.799 233.656 162.111 235.174 162.111ZM236.172 154.688L235.16 153.348L234.162 154.688H233.041V154.605L234.627 152.596H235.693L237.279 154.605V154.688H236.172ZM235.229 165.461C234.777 165.461 234.408 165.119 234.408 164.682C234.408 164.244 234.777 163.902 235.229 163.902C235.68 163.902 236.062 164.244 236.062 164.682C236.062 165.119 235.68 165.461 235.229 165.461ZM243.746 163V153.102H244.922V156.752H245.018C245.277 156.355 245.715 155.48 247.164 155.48C249.023 155.48 250.336 156.957 250.336 159.309C250.336 161.66 249.023 163.15 247.178 163.15C245.756 163.15 245.277 162.275 245.018 161.865H244.881V163H243.746ZM244.895 159.281C244.895 160.949 245.646 162.098 247 162.098C248.408 162.098 249.146 160.867 249.146 159.281C249.146 157.736 248.436 156.533 247 156.533C245.633 156.533 244.895 157.641 244.895 159.281ZM252.414 154.646C252.414 153.648 253.07 152.951 253.891 152.951C254.643 152.951 254.971 153.566 255.654 153.566C256.023 153.566 256.311 153.252 256.311 152.842L257.199 152.91C257.199 153.936 256.543 154.564 255.709 154.564C254.82 154.564 254.684 153.949 253.959 153.949C253.59 153.949 253.33 154.277 253.33 154.688L252.414 154.646ZM251.512 160.895C251.512 159.186 253.016 158.803 254.301 158.707C254.772 158.673 255.976 158.611 256.311 158.598V157.996C256.311 157.053 255.75 156.506 254.629 156.506C253.686 156.506 253.125 156.943 252.961 157.504H251.73C251.881 156.314 253.043 155.48 254.684 155.48C255.654 155.48 257.473 155.768 257.473 158.105V163H256.311V161.988H256.256C256.01 162.494 255.326 163.178 254.041 163.178C252.633 163.178 251.512 162.344 251.512 160.895ZM252.688 160.949C252.688 161.729 253.344 162.125 254.246 162.125C255.572 162.125 256.311 161.236 256.311 160.307V159.555L254.438 159.691C253.371 159.76 252.688 160.143 252.688 160.949ZM262.395 163.15C260.371 163.15 259.004 161.633 259.004 159.322C259.004 157.012 260.371 155.48 262.395 155.48C264.404 155.48 265.758 157.012 265.758 159.322C265.758 161.633 264.404 163.15 262.395 163.15ZM262.395 162.111C263.885 162.111 264.582 160.799 264.582 159.322C264.582 157.846 263.885 156.52 262.395 156.52C260.877 156.52 260.18 157.846 260.18 159.322C260.18 160.799 260.877 162.111 262.395 162.111ZM271.992 158.543V163H270.816V153.102H271.992V156.738H272.088C272.43 155.973 273.1 155.48 274.275 155.48C275.793 155.48 276.805 156.383 276.805 158.283V163H275.629V158.365C275.629 157.203 274.986 156.533 273.92 156.533C272.812 156.533 271.992 157.258 271.992 158.543ZM281.727 163.15C279.703 163.15 278.336 161.633 278.336 159.322C278.336 157.012 279.703 155.48 281.727 155.48C283.736 155.48 285.09 157.012 285.09 159.322C285.09 161.633 283.736 163.15 281.727 163.15ZM281.727 162.111C283.217 162.111 283.914 160.799 283.914 159.322C283.914 157.846 283.217 156.52 281.727 156.52C280.209 156.52 279.512 157.846 279.512 159.322C279.512 160.799 280.209 162.111 281.727 162.111ZM289.082 154.564L287.578 152.322H288.945L290.107 154.564H289.082ZM286.279 160.895C286.279 159.186 287.783 158.803 289.068 158.707C289.54 158.673 290.743 158.611 291.078 158.598V157.996C291.078 157.053 290.518 156.506 289.396 156.506C288.453 156.506 287.893 156.943 287.729 157.504H286.498C286.648 156.314 287.811 155.48 289.451 155.48C290.422 155.48 292.24 155.768 292.24 158.105V163H291.078V161.988H291.023C290.777 162.494 290.094 163.178 288.809 163.178C287.4 163.178 286.279 162.344 286.279 160.895ZM287.455 160.949C287.455 161.729 288.111 162.125 289.014 162.125C290.34 162.125 291.078 161.236 291.078 160.307V159.555L289.205 159.691C288.139 159.76 287.455 160.143 287.455 160.949ZM300.881 155.576V156.561H299.322V160.867C299.322 161.824 299.787 161.975 300.293 161.975C300.512 161.975 300.812 161.961 300.99 161.947V163.041C300.812 163.068 300.512 163.096 300.17 163.096C299.186 163.096 298.133 162.48 298.133 161.168V156.561H297.012V155.576H298.133V153.799H299.322V155.576H300.881ZM303.738 158.543V163H302.562V153.102H303.738V156.738H303.834C304.176 155.973 304.846 155.48 306.021 155.48C307.539 155.48 308.551 156.383 308.551 158.283V163H307.375V158.365C307.375 157.203 306.732 156.533 305.666 156.533C304.559 156.533 303.738 157.258 303.738 158.543ZM310.889 154.646L312.857 152.896H313.924L315.893 154.646H314.498L313.391 153.635L312.297 154.646H310.889ZM315.373 153.484L316.33 151.748H317.752L316.385 153.484H315.373ZM310.082 160.895C310.082 159.186 311.586 158.803 312.871 158.707C313.343 158.673 314.546 158.611 314.881 158.598V157.996C314.881 157.053 314.32 156.506 313.199 156.506C312.256 156.506 311.695 156.943 311.531 157.504H310.301C310.451 156.314 311.613 155.48 313.254 155.48C314.225 155.48 316.043 155.768 316.043 158.105V163H314.881V161.988H314.826C314.58 162.494 313.896 163.178 312.611 163.178C311.203 163.178 310.082 162.344 310.082 160.895ZM311.258 160.949C311.258 161.729 311.914 162.125 312.816 162.125C314.143 162.125 314.881 161.236 314.881 160.307V159.555L313.008 159.691C311.941 159.76 311.258 160.143 311.258 160.949ZM317.93 165.789V155.576H319.064V156.752H319.201C319.447 156.355 319.912 155.48 321.348 155.48C323.207 155.48 324.506 156.957 324.506 159.309C324.506 161.66 323.207 163.15 321.361 163.15C319.939 163.15 319.447 162.275 319.201 161.865H319.105V165.789H317.93ZM319.078 159.281C319.078 160.949 319.83 162.098 321.197 162.098C322.605 162.098 323.33 160.867 323.33 159.281C323.33 157.736 322.619 156.533 321.197 156.533C319.803 156.533 319.078 157.641 319.078 159.281ZM327.582 162.084L326.516 165.803H325.504L326.256 162.084H327.582ZM131.746 183.15C129.9 183.15 128.588 181.66 128.588 179.309C128.588 176.957 129.9 175.48 131.76 175.48C133.195 175.48 133.66 176.355 133.906 176.752H133.988V174.934H131.965V174.031H133.988V173.102H135.178V174.031H136.244V174.934H135.178V183H134.029V181.865H133.906C133.646 182.275 133.168 183.15 131.746 183.15ZM131.91 182.098C133.264 182.098 134.029 180.949 134.029 179.281C134.029 177.641 133.291 176.533 131.91 176.533C130.488 176.533 129.777 177.736 129.777 179.281C129.777 180.867 130.502 182.098 131.91 182.098ZM140.25 183.15C138.227 183.15 136.859 181.633 136.859 179.322C136.859 177.012 138.227 175.48 140.25 175.48C142.26 175.48 143.613 177.012 143.613 179.322C143.613 181.633 142.26 183.15 140.25 183.15ZM140.25 182.111C141.74 182.111 142.438 180.799 142.438 179.322C142.438 177.846 141.74 176.52 140.25 176.52C138.732 176.52 138.035 177.846 138.035 179.322C138.035 180.799 138.732 182.111 140.25 182.111ZM141.248 174.688L140.236 173.348L139.238 174.688H138.117V174.605L139.703 172.596H140.77L142.355 174.605V174.688H141.248ZM140.305 185.461C139.854 185.461 139.484 185.119 139.484 184.682C139.484 184.244 139.854 183.902 140.305 183.902C140.756 183.902 141.139 184.244 141.139 184.682C141.139 185.119 140.756 185.461 140.305 185.461ZM152.801 177.504C152.637 176.889 152.172 176.479 151.297 176.479C150.381 176.479 149.725 176.971 149.725 177.6C149.725 178.092 150.121 178.434 150.996 178.639L152.104 178.912C153.43 179.227 154.086 179.883 154.086 180.922C154.086 182.207 153.033 183.15 151.174 183.15C149.506 183.15 148.508 182.412 148.316 181.059H149.547C149.684 181.783 150.217 182.125 151.146 182.125C152.199 182.125 152.869 181.688 152.869 180.99C152.869 180.471 152.5 180.115 151.652 179.924L150.531 179.664C149.232 179.363 148.549 178.652 148.549 177.668C148.549 176.396 149.656 175.48 151.297 175.48C152.828 175.48 153.799 176.301 153.949 177.504H152.801ZM158.037 174.564L159.213 172.322H160.566L159.049 174.564H158.037ZM155.262 180.895C155.262 179.186 156.766 178.803 158.051 178.707C158.522 178.673 159.726 178.611 160.061 178.598V177.996C160.061 177.053 159.5 176.506 158.379 176.506C157.436 176.506 156.875 176.943 156.711 177.504H155.48C155.631 176.314 156.793 175.48 158.434 175.48C159.404 175.48 161.223 175.768 161.223 178.105V183H160.061V181.988H160.006C159.76 182.494 159.076 183.178 157.791 183.178C156.383 183.178 155.262 182.344 155.262 180.895ZM156.438 180.949C156.438 181.729 157.094 182.125 157.996 182.125C159.322 182.125 160.061 181.236 160.061 180.307V179.555L158.188 179.691C157.121 179.76 156.438 180.143 156.438 180.949ZM164.285 178.543V183H163.109V175.576H164.244V176.738H164.34C164.695 175.986 165.379 175.48 166.514 175.48C168.018 175.48 169.016 176.396 169.016 178.283V183H167.84V178.365C167.84 177.217 167.211 176.533 166.158 176.533C165.078 176.533 164.285 177.258 164.285 178.543ZM173.91 185.939C172.119 185.939 170.902 185.16 170.766 183.779H171.996C172.16 184.531 172.857 184.914 173.91 184.914C175.182 184.914 175.961 184.367 175.961 183.137V181.633H175.865C175.619 182.043 175.141 182.891 173.705 182.891C171.9 182.891 170.547 181.523 170.547 179.186C170.547 176.902 171.859 175.48 173.719 175.48C175.154 175.48 175.619 176.355 175.893 176.752H175.988V175.576H177.137V183.205C177.137 185.119 175.715 185.939 173.91 185.939ZM173.869 181.838C175.223 181.838 175.988 180.867 175.988 179.227C175.988 177.641 175.25 176.533 173.869 176.533C172.447 176.533 171.736 177.736 171.736 179.227C171.736 180.771 172.461 181.838 173.869 181.838ZM185.764 175.576V176.561H184.205V180.867C184.205 181.824 184.67 181.975 185.176 181.975C185.395 181.975 185.695 181.961 185.873 181.947V183.041C185.695 183.068 185.395 183.096 185.053 183.096C184.068 183.096 183.016 182.48 183.016 181.168V176.561H181.895V175.576H183.016V173.799H184.205V175.576H185.764ZM188.621 178.543V183H187.445V173.102H188.621V176.738H188.717C189.059 175.973 189.729 175.48 190.904 175.48C192.422 175.48 193.434 176.383 193.434 178.283V183H192.258V178.365C192.258 177.203 191.615 176.533 190.549 176.533C189.441 176.533 188.621 177.258 188.621 178.543ZM195.771 174.646L197.74 172.896H198.807L200.775 174.646H199.381L198.273 173.635L197.18 174.646H195.771ZM200.256 173.484L201.213 171.748H202.635L201.268 173.484H200.256ZM194.965 180.895C194.965 179.186 196.469 178.803 197.754 178.707C198.226 178.673 199.429 178.611 199.764 178.598V177.996C199.764 177.053 199.203 176.506 198.082 176.506C197.139 176.506 196.578 176.943 196.414 177.504H195.184C195.334 176.314 196.496 175.48 198.137 175.48C199.107 175.48 200.926 175.768 200.926 178.105V183H199.764V181.988H199.709C199.463 182.494 198.779 183.178 197.494 183.178C196.086 183.178 194.965 182.344 194.965 180.895ZM196.141 180.949C196.141 181.729 196.797 182.125 197.699 182.125C199.025 182.125 199.764 181.236 199.764 180.307V179.555L197.891 179.691C196.824 179.76 196.141 180.143 196.141 180.949ZM202.812 185.789V175.576H203.947V176.752H204.084C204.33 176.355 204.795 175.48 206.23 175.48C208.09 175.48 209.389 176.957 209.389 179.309C209.389 181.66 208.09 183.15 206.244 183.15C204.822 183.15 204.33 182.275 204.084 181.865H203.988V185.789H202.812ZM203.961 179.281C203.961 180.949 204.713 182.098 206.08 182.098C207.488 182.098 208.213 180.867 208.213 179.281C208.213 177.736 207.502 176.533 206.08 176.533C204.686 176.533 203.961 177.641 203.961 179.281ZM215.609 178.543V183H214.434V173.102H215.609V176.738H215.705C216.047 175.973 216.717 175.48 217.893 175.48C219.41 175.48 220.422 176.383 220.422 178.283V183H219.246V178.365C219.246 177.203 218.604 176.533 217.537 176.533C216.43 176.533 215.609 177.258 215.609 178.543ZM229.418 175.029C229.418 176.123 229.097 176.923 228.256 177.244C228.55 177.832 228.707 178.529 228.707 179.322C228.707 181.633 227.354 183.15 225.344 183.15C223.32 183.15 221.953 181.633 221.953 179.322C221.953 177.012 223.32 175.48 225.344 175.48C226.342 175.48 227.183 175.856 227.777 176.52C228.27 176.321 228.352 175.768 228.352 175.029H229.418ZM225.344 182.111C226.834 182.111 227.531 180.799 227.531 179.322C227.531 177.846 226.834 176.52 225.344 176.52C223.826 176.52 223.129 177.846 223.129 179.322C223.129 180.799 223.826 182.111 225.344 182.111ZM225.398 185.461C224.947 185.461 224.578 185.119 224.578 184.682C224.578 184.244 224.947 183.902 225.398 183.902C225.85 183.902 226.232 184.244 226.232 184.682C226.232 185.119 225.85 185.461 225.398 185.461ZM230.252 185.789V175.576H231.387V176.752H231.523C231.77 176.355 232.234 175.48 233.67 175.48C235.529 175.48 236.828 176.957 236.828 179.309C236.828 181.66 235.529 183.15 233.684 183.15C232.262 183.15 231.77 182.275 231.523 181.865H231.428V185.789H230.252ZM231.4 179.281C231.4 180.949 232.152 182.098 233.52 182.098C234.928 182.098 235.652 180.867 235.652 179.281C235.652 177.736 234.941 176.533 233.52 176.533C232.125 176.533 231.4 177.641 231.4 179.281ZM247.984 175.576L245.236 183H244.02L241.285 175.576H242.57L244.594 181.469H244.676L246.699 175.576H247.984ZM256.119 175.029C256.119 176.123 255.798 176.923 254.957 177.244C255.251 177.832 255.408 178.529 255.408 179.322C255.408 181.633 254.055 183.15 252.045 183.15C250.021 183.15 248.654 181.633 248.654 179.322C248.654 177.012 250.021 175.48 252.045 175.48C253.043 175.48 253.884 175.856 254.479 176.52C254.971 176.321 255.053 175.768 255.053 175.029H256.119ZM252.045 182.111C253.535 182.111 254.232 180.799 254.232 179.322C254.232 177.846 253.535 176.52 252.045 176.52C250.527 176.52 249.83 177.846 249.83 179.322C249.83 180.799 250.527 182.111 252.045 182.111ZM251.525 174.564L252.701 172.322H254.055L252.537 174.564H251.525ZM256.953 183V175.576H258.129V183H256.953ZM257.541 174.346C257.09 174.346 256.721 174.004 256.721 173.566C256.721 173.129 257.09 172.787 257.541 172.787C257.992 172.787 258.375 173.129 258.375 173.566C258.375 174.004 257.992 174.346 257.541 174.346ZM263.666 183V173.102H264.842V176.752H264.938C265.197 176.355 265.635 175.48 267.084 175.48C268.943 175.48 270.256 176.957 270.256 179.309C270.256 181.66 268.943 183.15 267.098 183.15C265.676 183.15 265.197 182.275 264.938 181.865H264.801V183H263.666ZM264.814 179.281C264.814 180.949 265.566 182.098 266.92 182.098C268.328 182.098 269.066 180.867 269.066 179.281C269.066 177.736 268.355 176.533 266.92 176.533C265.553 176.533 264.814 177.641 264.814 179.281ZM274.713 185.461C274.262 185.461 273.893 185.119 273.893 184.682C273.893 184.244 274.262 183.902 274.713 183.902C275.164 183.902 275.547 184.244 275.547 184.682C275.547 185.119 275.164 185.461 274.713 185.461ZM271.432 180.895C271.432 179.186 272.936 178.803 274.221 178.707C274.692 178.673 275.896 178.611 276.23 178.598V177.996C276.23 177.053 275.67 176.506 274.549 176.506C273.605 176.506 273.045 176.943 272.881 177.504H271.65C271.801 176.314 272.963 175.48 274.604 175.48C275.574 175.48 277.393 175.768 277.393 178.105V183H276.23V181.988H276.176C275.93 182.494 275.246 183.178 273.961 183.178C272.553 183.178 271.432 182.344 271.432 180.895ZM272.607 180.949C272.607 181.729 273.264 182.125 274.166 182.125C275.492 182.125 276.23 181.236 276.23 180.307V179.555L274.357 179.691C273.291 179.76 272.607 180.143 272.607 180.949ZM280.455 178.543V183H279.279V175.576H280.414V176.738H280.51C280.865 175.986 281.549 175.48 282.684 175.48C284.188 175.48 285.186 176.396 285.186 178.283V183H284.01V178.365C284.01 177.217 283.381 176.533 282.328 176.533C281.248 176.533 280.455 177.258 280.455 178.543ZM291.762 178.543V183H290.586V175.576H291.721V176.738H291.816C292.172 175.986 292.855 175.48 293.99 175.48C295.494 175.48 296.492 176.396 296.492 178.283V183H295.316V178.365C295.316 177.217 294.688 176.533 293.635 176.533C292.555 176.533 291.762 177.258 291.762 178.543ZM301.496 183.15C299.35 183.15 298.023 181.633 298.023 179.35C298.023 177.066 299.363 175.48 301.387 175.48C302.945 175.48 304.586 176.438 304.586 179.186V179.678H299.199C299.254 181.25 300.17 182.111 301.496 182.111C302.385 182.111 302.945 181.729 303.219 181.264H304.477C304.121 182.385 303.027 183.15 301.496 183.15ZM300.826 174.564L299.322 172.322H300.689L301.852 174.564H300.826ZM299.213 178.68H303.396C303.396 177.436 302.604 176.52 301.387 176.52C300.102 176.52 299.281 177.531 299.213 178.68Z" fill="white"/>
<path d="M0 232C0 223.163 7.16344 216 16 216H226C234.837 216 242 223.163 242 232V300C242 308.837 234.837 316 226 316H16C7.16344 316 0 308.837 0 300V232Z" fill="#00704B"/>
<path d="M24.5938 251L25.0312 248.348H22.7207L22.2832 251H21.1074L21.5449 248.348H20.123L20.3008 247.186H21.7363L22.1055 244.916H20.6973L20.875 243.74H22.3105L22.7344 241.102H23.9102L23.4863 243.74H25.7969L26.2207 241.102H27.3828L26.959 243.74H28.3945L28.2031 244.916H26.7676L26.3984 247.186H27.8203L27.6152 248.348H26.207L25.7695 251H24.5938ZM22.9121 247.186H25.2227L25.5918 244.916H23.2812L22.9121 247.186ZM29.5156 251V241.102H31.0195V245.395H35.9414V241.102H37.4453V251H35.9414V246.68H31.0195V251H29.5156ZM39.3457 251V243.576H40.8086V251H39.3457ZM40.084 242.428C39.5781 242.428 39.1543 242.045 39.1543 241.566C39.1543 241.088 39.5781 240.705 40.084 240.705C40.5762 240.705 41 241.088 41 241.566C41 242.045 40.5762 242.428 40.084 242.428ZM45.7852 251.15C43.5977 251.15 42.2578 249.646 42.2578 247.336C42.2578 245.053 43.625 243.48 45.6895 243.48C47.3848 243.48 48.9844 244.533 48.9844 247.213V247.732H43.707C43.748 249.141 44.5752 249.947 45.7988 249.947C46.6328 249.947 47.166 249.592 47.4121 249.141H48.8887C48.5605 250.344 47.4121 251.15 45.7852 251.15ZM46.6328 242.674L45.6484 241.389L44.6504 242.674H43.3379V242.605L45.0332 240.555H46.25L47.959 242.605V242.674H46.6328ZM45.7031 253.557C45.1973 253.557 44.7734 253.174 44.7734 252.695C44.7734 252.217 45.1973 251.834 45.7031 251.834C46.1953 251.834 46.6191 252.217 46.6191 252.695C46.6191 253.174 46.1953 253.557 45.7031 253.557ZM43.7207 246.639H47.5488C47.5488 245.504 46.8242 244.684 45.7031 244.684C44.5342 244.684 43.7754 245.586 43.7207 246.639ZM51.8965 246.598V251H50.4336V243.576H51.8418V244.793H51.9238C52.2793 244 53.0039 243.48 54.1113 243.48C55.6426 243.48 56.6406 244.438 56.6406 246.283V251H55.1914V246.461C55.1914 245.381 54.6035 244.738 53.6191 244.738C52.6211 244.738 51.8965 245.408 51.8965 246.598ZM64.6113 251.15C62.8203 251.15 61.5078 249.701 61.5078 247.309C61.5078 244.889 62.834 243.48 64.625 243.48C66.0059 243.48 66.5117 244.314 66.7715 244.779H66.8398V242.975H64.8438V241.977H66.8398V241.102H68.3027V241.977H69.2871V242.975H68.3027V251H66.8809V249.838H66.7715C66.498 250.33 65.9648 251.15 64.6113 251.15ZM64.9395 249.906C66.1836 249.906 66.8809 248.84 66.8809 247.281C66.8809 245.736 66.1973 244.725 64.9395 244.725C63.6406 244.725 62.998 245.818 62.998 247.281C62.998 248.771 63.668 249.906 64.9395 249.906ZM73.2383 253.557C72.7324 253.557 72.3086 253.174 72.3086 252.695C72.3086 252.217 72.7324 251.834 73.2383 251.834C73.7305 251.834 74.1543 252.217 74.1543 252.695C74.1543 253.174 73.7305 253.557 73.2383 253.557ZM69.8613 248.908C69.8613 247.213 71.2969 246.775 72.6367 246.68C73.1289 246.646 74.2432 246.584 74.5918 246.57L74.5781 245.982C74.5781 245.148 74.0723 244.656 73.0742 244.656C72.2129 244.656 71.6934 245.053 71.543 245.6H70.0938C70.2305 244.369 71.3789 243.48 73.1289 243.48C74.3047 243.48 76.041 243.918 76.041 246.064V251H74.6191V249.988H74.5645C74.2773 250.549 73.5938 251.164 72.3633 251.164C70.9551 251.164 69.8613 250.357 69.8613 248.908ZM71.2832 248.922C71.2832 249.633 71.8711 250.002 72.6914 250.002C73.8809 250.002 74.5918 249.209 74.5918 248.32V247.637L72.8418 247.76C71.8848 247.828 71.2832 248.184 71.2832 248.922ZM77.8047 251V243.576H79.2676V251H77.8047ZM78.543 242.428C78.0371 242.428 77.6133 242.045 77.6133 241.566C77.6133 241.088 78.0371 240.705 78.543 240.705C79.0352 240.705 79.459 241.088 79.459 241.566C79.459 242.045 79.0352 242.428 78.543 242.428Z" fill="white"/>
<path d="M93.5938 251L94.0312 248.348H91.7207L91.2832 251H90.1074L90.5449 248.348H89.123L89.3008 247.186H90.7363L91.1055 244.916H89.6973L89.875 243.74H91.3105L91.7344 241.102H92.9102L92.4863 243.74H94.7969L95.2207 241.102H96.3828L95.959 243.74H97.3945L97.2031 244.916H95.7676L95.3984 247.186H96.8203L96.6152 248.348H95.207L94.7695 251H93.5938ZM91.9121 247.186H94.2227L94.5918 244.916H92.2812L91.9121 247.186ZM98.5156 251V241.102H100.02V249.701H104.49V251H98.5156ZM108.947 253.557C108.441 253.557 108.018 253.174 108.018 252.695C108.018 252.217 108.441 251.834 108.947 251.834C109.439 251.834 109.863 252.217 109.863 252.695C109.863 253.174 109.439 253.557 108.947 253.557ZM105.57 248.908C105.57 247.213 107.006 246.775 108.346 246.68C108.838 246.646 109.952 246.584 110.301 246.57L110.287 245.982C110.287 245.148 109.781 244.656 108.783 244.656C107.922 244.656 107.402 245.053 107.252 245.6H105.803C105.939 244.369 107.088 243.48 108.838 243.48C110.014 243.48 111.75 243.918 111.75 246.064V251H110.328V249.988H110.273C109.986 250.549 109.303 251.164 108.072 251.164C106.664 251.164 105.57 250.357 105.57 248.908ZM106.992 248.922C106.992 249.633 107.58 250.002 108.4 250.002C109.59 250.002 110.301 249.209 110.301 248.32V247.637L108.551 247.76C107.594 247.828 106.992 248.184 106.992 248.922ZM114.977 246.598V251H113.514V243.576H114.922V244.793H115.004C115.359 244 116.084 243.48 117.191 243.48C118.723 243.48 119.721 244.438 119.721 246.283V251H118.271V246.461C118.271 245.381 117.684 244.738 116.699 244.738C115.701 244.738 114.977 245.408 114.977 246.598ZM122.961 246.598V251H121.498V241.102H122.934V244.793H123.029C123.385 243.986 124.068 243.48 125.23 243.48C126.762 243.48 127.773 244.424 127.773 246.283V251H126.311V246.461C126.311 245.367 125.723 244.738 124.738 244.738C123.713 244.738 122.961 245.408 122.961 246.598ZM134.418 241.102V251H132.955V241.102H134.418ZM140.912 247.91V243.576H142.361V251H140.939V249.715H140.857C140.516 250.508 139.75 251.096 138.643 251.096C137.207 251.096 136.195 250.139 136.195 248.293V243.576H137.658V248.115C137.658 249.127 138.273 249.77 139.162 249.77C139.969 249.77 140.912 249.182 140.912 247.91ZM138.725 242.578L137.221 240.35H138.766L139.887 242.578H138.725ZM145.602 246.598V251H144.139V243.576H145.547V244.793H145.629C145.984 244 146.709 243.48 147.816 243.48C149.348 243.48 150.346 244.438 150.346 246.283V251H148.896V246.461C148.896 245.381 148.309 244.738 147.324 244.738C146.326 244.738 145.602 245.408 145.602 246.598ZM155.24 253.939C153.367 253.939 152.137 253.105 152 251.725H153.49C153.627 252.422 154.283 252.764 155.254 252.764C156.416 252.764 157.154 252.271 157.154 251.109V249.646H157.059C156.799 250.125 156.266 250.891 154.898 250.891C153.148 250.891 151.795 249.578 151.795 247.213C151.795 244.848 153.121 243.48 154.912 243.48C156.293 243.48 156.799 244.314 157.072 244.779H157.168V243.576H158.59V251.164C158.59 253.064 157.154 253.939 155.24 253.939ZM155.227 249.688C156.471 249.688 157.168 248.771 157.168 247.24C157.168 245.736 156.484 244.725 155.227 244.725C153.928 244.725 153.285 245.818 153.285 247.24C153.285 248.689 153.955 249.688 155.227 249.688Z" fill="white"/>
<path d="M28.9551 261.102V271H27.7793L22.4199 263.289H22.3242V271H21.0938V261.102H22.2832L27.6426 268.826H27.7383V261.102H28.9551ZM32.168 266.543V271H30.9922V261.102H32.168V264.738H32.2637C32.6055 263.973 33.2754 263.48 34.4512 263.48C35.9688 263.48 36.9805 264.383 36.9805 266.283V271H35.8047V266.365C35.8047 265.203 35.1621 264.533 34.0957 264.533C32.9883 264.533 32.168 265.258 32.168 266.543ZM46.6055 263.248C46.6055 264.622 46.1816 265.367 44.7188 265.463V271H43.5566V269.742H43.4746C43.1191 270.494 42.3945 271.096 41.2734 271.096C39.8652 271.096 38.8672 270.18 38.8672 268.293V263.576H40.043V268.211C40.043 269.277 40.7129 269.961 41.6562 269.961C42.4902 269.961 43.5566 269.332 43.5566 267.951V263.576H44.7188V264.67C45.5732 264.581 45.5938 264.137 45.5938 263.248H46.6055ZM39.4141 262.646C39.4141 261.648 40.0703 260.951 40.8906 260.951C41.6426 260.951 41.9707 261.566 42.6543 261.566C43.0234 261.566 43.3105 261.252 43.3105 260.842L44.1992 260.91C44.1992 261.936 43.543 262.564 42.709 262.564C41.8203 262.564 41.6836 261.949 40.959 261.949C40.5898 261.949 40.3301 262.277 40.3301 262.688L39.4141 262.646ZM48.3418 266.543V271H47.166V263.576H48.3008V264.738H48.3965C48.752 263.986 49.4355 263.48 50.5703 263.48C52.0742 263.48 53.0723 264.396 53.0723 266.283V271H51.8965V266.365C51.8965 265.217 51.2676 264.533 50.2148 264.533C49.1348 264.533 48.3418 265.258 48.3418 266.543ZM57.9668 273.939C56.1758 273.939 54.959 273.16 54.8223 271.779H56.0527C56.2168 272.531 56.9141 272.914 57.9668 272.914C59.2383 272.914 60.0176 272.367 60.0176 271.137V269.633H59.9219C59.6758 270.043 59.1973 270.891 57.7617 270.891C55.957 270.891 54.6035 269.523 54.6035 267.186C54.6035 264.902 55.916 263.48 57.7754 263.48C59.2109 263.48 59.6758 264.355 59.9492 264.752H60.0449V263.576H61.1934V271.205C61.1934 273.119 59.7715 273.939 57.9668 273.939ZM57.9258 269.838C59.2793 269.838 60.0449 268.867 60.0449 267.227C60.0449 265.641 59.3066 264.533 57.9258 264.533C56.5039 264.533 55.793 265.736 55.793 267.227C55.793 268.771 56.5176 269.838 57.9258 269.838ZM66.5801 271V263.576H67.7148V264.738H67.8105C68.125 263.945 68.8359 263.48 69.8066 263.48C70.7773 263.48 71.4336 263.945 71.7891 264.738H71.8711C72.2539 263.973 73.0332 263.48 74.0996 263.48C75.4258 263.48 76.3691 264.287 76.3691 266.037V271H75.1934V266.051C75.1934 264.957 74.4961 264.533 73.6895 264.533C72.6504 264.533 72.0625 265.23 72.0625 266.174V271H70.873V265.928C70.873 265.094 70.2715 264.533 69.4238 264.533C68.5352 264.533 67.7559 265.285 67.7559 266.365V271H66.5801ZM80.7031 262.564L79.1992 260.322H80.5664L81.7285 262.564H80.7031ZM77.9004 268.895C77.9004 267.186 79.4043 266.803 80.6895 266.707C81.1611 266.673 82.3643 266.611 82.6992 266.598V265.996C82.6992 265.053 82.1387 264.506 81.0176 264.506C80.0742 264.506 79.5137 264.943 79.3496 265.504H78.1191C78.2695 264.314 79.4316 263.48 81.0723 263.48C82.043 263.48 83.8613 263.768 83.8613 266.105V271H82.6992V269.988H82.6445C82.3984 270.494 81.7148 271.178 80.4297 271.178C79.0215 271.178 77.9004 270.344 77.9004 268.895ZM79.0762 268.949C79.0762 269.729 79.7324 270.125 80.6348 270.125C81.9609 270.125 82.6992 269.236 82.6992 268.307V267.555L80.8262 267.691C79.7598 267.76 79.0762 268.143 79.0762 268.949ZM90.4375 267.951V263.576H91.5996V271H90.4375V269.742H90.3555C90 270.494 89.2754 271.096 88.1543 271.096C86.7461 271.096 85.748 270.18 85.748 268.293V263.576H86.9238V268.211C86.9238 269.277 87.5938 269.961 88.5371 269.961C89.3711 269.961 90.4375 269.332 90.4375 267.951ZM98.1758 266.543V271H97V263.576H98.1348V264.738H98.2305C98.5859 263.986 99.2695 263.48 100.404 263.48C101.908 263.48 102.906 264.396 102.906 266.283V271H101.73V266.365C101.73 265.217 101.102 264.533 100.049 264.533C98.9688 264.533 98.1758 265.258 98.1758 266.543ZM105.969 266.543V271H104.793V261.102H105.969V264.738H106.064C106.406 263.973 107.076 263.48 108.252 263.48C109.77 263.48 110.781 264.383 110.781 266.283V271H109.605V266.365C109.605 265.203 108.963 264.533 107.896 264.533C106.789 264.533 105.969 265.258 105.969 266.543ZM120.406 263.248C120.406 264.622 119.982 265.367 118.52 265.463V271H117.357V269.742H117.275C116.92 270.494 116.195 271.096 115.074 271.096C113.666 271.096 112.668 270.18 112.668 268.293V263.576H113.844V268.211C113.844 269.277 114.514 269.961 115.457 269.961C116.291 269.961 117.357 269.332 117.357 267.951V263.576H118.52V264.67C119.374 264.581 119.395 264.137 119.395 263.248H120.406ZM127.283 271.15C125.438 271.15 124.125 269.66 124.125 267.309C124.125 264.957 125.438 263.48 127.297 263.48C128.732 263.48 129.197 264.355 129.443 264.752H129.525V262.934H127.502V262.031H129.525V261.102H130.715V262.031H131.781V262.934H130.715V271H129.566V269.865H129.443C129.184 270.275 128.705 271.15 127.283 271.15ZM127.447 270.098C128.801 270.098 129.566 268.949 129.566 267.281C129.566 265.641 128.828 264.533 127.447 264.533C126.025 264.533 125.314 265.736 125.314 267.281C125.314 268.867 126.039 270.098 127.447 270.098ZM135.787 271.15C133.764 271.15 132.396 269.633 132.396 267.322C132.396 265.012 133.764 263.48 135.787 263.48C137.797 263.48 139.15 265.012 139.15 267.322C139.15 269.633 137.797 271.15 135.787 271.15ZM135.787 270.111C137.277 270.111 137.975 268.799 137.975 267.322C137.975 265.846 137.277 264.52 135.787 264.52C134.27 264.52 133.572 265.846 133.572 267.322C133.572 268.799 134.27 270.111 135.787 270.111ZM136.293 262.564H135.322V261.539C135.992 261.498 136.252 261.361 136.252 261.047C136.252 260.705 135.787 260.555 135.199 260.555L135.24 259.816C136.594 259.816 137.305 260.322 137.305 261.088C137.305 261.744 136.799 262.004 136.293 262.086V262.564ZM147.012 271.15C145.166 271.15 143.854 269.66 143.854 267.309C143.854 264.957 145.166 263.48 147.025 263.48C148.461 263.48 148.926 264.355 149.172 264.752H149.254V262.934H147.23V262.031H149.254V261.102H150.443V262.031H151.51V262.934H150.443V271H149.295V269.865H149.172C148.912 270.275 148.434 271.15 147.012 271.15ZM147.176 270.098C148.529 270.098 149.295 268.949 149.295 267.281C149.295 265.641 148.557 264.533 147.176 264.533C145.754 264.533 145.043 265.736 145.043 267.281C145.043 268.867 145.768 270.098 147.176 270.098ZM155.516 271.15C153.492 271.15 152.125 269.633 152.125 267.322C152.125 265.012 153.492 263.48 155.516 263.48C157.525 263.48 158.879 265.012 158.879 267.322C158.879 269.633 157.525 271.15 155.516 271.15ZM155.516 270.111C157.006 270.111 157.703 268.799 157.703 267.322C157.703 265.846 157.006 264.52 155.516 264.52C153.998 264.52 153.301 265.846 153.301 267.322C153.301 268.799 153.998 270.111 155.516 270.111ZM156.514 262.688L155.502 261.348L154.504 262.688H153.383V262.605L154.969 260.596H156.035L157.621 262.605V262.688H156.514ZM165.113 266.543V271H163.938V261.102H165.113V264.738H165.209C165.551 263.973 166.221 263.48 167.396 263.48C168.914 263.48 169.926 264.383 169.926 266.283V271H168.75V266.365C168.75 265.203 168.107 264.533 167.041 264.533C165.934 264.533 165.113 265.258 165.113 266.543ZM171.457 268.895C171.457 267.186 172.961 266.803 174.246 266.707C174.718 266.673 175.921 266.611 176.256 266.598V265.996C176.256 265.053 175.695 264.506 174.574 264.506C173.631 264.506 173.07 264.943 172.906 265.504H171.676C171.826 264.314 172.988 263.48 174.629 263.48C175.6 263.48 177.418 263.768 177.418 266.105V271H176.256V269.988H176.201C175.955 270.494 175.271 271.178 173.986 271.178C172.578 271.178 171.457 270.344 171.457 268.895ZM172.633 268.949C172.633 269.729 173.289 270.125 174.191 270.125C175.518 270.125 176.256 269.236 176.256 268.307V267.555L174.383 267.691C173.316 267.76 172.633 268.143 172.633 268.949ZM179.783 273.789C179.523 273.789 179.277 273.775 179.127 273.762V272.709C179.25 272.723 179.523 272.736 179.701 272.736C180.18 272.736 180.576 272.695 180.973 271.615L181.191 271.055L178.443 263.576H179.729L181.752 269.469H181.834L183.857 263.576H185.143L181.998 272.066C181.561 273.229 180.836 273.789 179.783 273.789ZM192.758 271.15C190.912 271.15 189.6 269.66 189.6 267.309C189.6 264.957 190.912 263.48 192.771 263.48C194.207 263.48 194.672 264.355 194.918 264.752H195V262.934H192.977V262.031H195V261.102H196.189V262.031H197.256V262.934H196.189V271H195.041V269.865H194.918C194.658 270.275 194.18 271.15 192.758 271.15ZM192.922 270.098C194.275 270.098 195.041 268.949 195.041 267.281C195.041 265.641 194.303 264.533 192.922 264.533C191.5 264.533 190.789 265.736 190.789 267.281C190.789 268.867 191.514 270.098 192.922 270.098ZM201.262 271.15C199.238 271.15 197.871 269.633 197.871 267.322C197.871 265.012 199.238 263.48 201.262 263.48C203.271 263.48 204.625 265.012 204.625 267.322C204.625 269.633 203.271 271.15 201.262 271.15ZM201.262 270.111C202.752 270.111 203.449 268.799 203.449 267.322C203.449 265.846 202.752 264.52 201.262 264.52C199.744 264.52 199.047 265.846 199.047 267.322C199.047 268.799 199.744 270.111 201.262 270.111ZM201.768 262.564H200.797V261.539C201.467 261.498 201.727 261.361 201.727 261.047C201.727 260.705 201.262 260.555 200.674 260.555L200.715 259.816C202.068 259.816 202.779 260.322 202.779 261.088C202.779 261.744 202.273 262.004 201.768 262.086V262.564ZM20.9434 291V283.576H22.0781V284.711H22.1602C22.4336 283.959 23.1992 283.453 24.0742 283.453C24.252 283.453 24.5527 283.467 24.6895 283.48V284.67C24.6074 284.643 24.2793 284.588 23.9785 284.588C22.9121 284.588 22.1191 285.326 22.1191 286.324V291H20.9434ZM33.5762 283.248C33.5762 284.622 33.1523 285.367 31.6895 285.463V291H30.5273V289.742H30.4453C30.0898 290.494 29.3652 291.096 28.2441 291.096C26.8359 291.096 25.8379 290.18 25.8379 288.293V283.576H27.0137V288.211C27.0137 289.277 27.6836 289.961 28.627 289.961C29.4609 289.961 30.5273 289.332 30.5273 287.951V283.576H31.6895V284.67C32.5439 284.581 32.5645 284.137 32.5645 283.248H33.5762ZM41.2461 283.029C41.2461 284.123 40.9248 284.923 40.084 285.244C40.3779 285.832 40.5352 286.529 40.5352 287.322C40.5352 289.633 39.1816 291.15 37.1719 291.15C35.1484 291.15 33.7812 289.633 33.7812 287.322C33.7812 285.012 35.1484 283.48 37.1719 283.48C38.1699 283.48 39.0107 283.856 39.6055 284.52C40.0977 284.321 40.1797 283.768 40.1797 283.029H41.2461ZM37.1719 290.111C38.6621 290.111 39.3594 288.799 39.3594 287.322C39.3594 285.846 38.6621 284.52 37.1719 284.52C35.6543 284.52 34.957 285.846 34.957 287.322C34.957 288.799 35.6543 290.111 37.1719 290.111ZM37.2266 293.461C36.7754 293.461 36.4062 293.119 36.4062 292.682C36.4062 292.244 36.7754 291.902 37.2266 291.902C37.6777 291.902 38.0605 292.244 38.0605 292.682C38.0605 293.119 37.6777 293.461 37.2266 293.461ZM46.7695 287.951V283.576H47.9316V291H46.7695V289.742H46.6875C46.332 290.494 45.6074 291.096 44.4863 291.096C43.0781 291.096 42.0801 290.18 42.0801 288.293V283.576H43.2559V288.211C43.2559 289.277 43.9258 289.961 44.8691 289.961C45.7031 289.961 46.7695 289.332 46.7695 287.951ZM56.3672 291.15C54.2617 291.15 52.9766 289.551 52.9766 287.322C52.9766 285.066 54.3164 283.48 56.3398 283.48C57.9258 283.48 59.1016 284.41 59.293 285.818H58.1172C57.9531 285.135 57.3516 284.52 56.3672 284.52C55.041 284.52 54.1523 285.613 54.1523 287.281C54.1523 289.004 55.0137 290.098 56.3672 290.098C57.2422 290.098 57.9121 289.633 58.1172 288.812H59.293C59.1016 290.139 58.0215 291.15 56.3672 291.15ZM61.918 286.543V291H60.7422V281.102H61.918V284.738H62.0137C62.3555 283.973 63.0254 283.48 64.2012 283.48C65.7188 283.48 66.7305 284.383 66.7305 286.283V291H65.5547V286.365C65.5547 285.203 64.9121 284.533 63.8457 284.533C62.7383 284.533 61.918 285.258 61.918 286.543ZM68.6172 291V283.576H69.793V291H68.6172ZM68.6855 282.564L69.8613 280.322H71.2148L69.6973 282.564H68.6855ZM72.8418 286.543V291H71.666V283.576H72.8008V284.738H72.8965C73.252 283.986 73.9355 283.48 75.0703 283.48C76.5742 283.48 77.5723 284.396 77.5723 286.283V291H76.3965V286.365C76.3965 285.217 75.7676 284.533 74.7148 284.533C73.6348 284.533 72.8418 285.258 72.8418 286.543ZM80.6348 286.543V291H79.459V281.102H80.6348V284.738H80.7305C81.0723 283.973 81.7422 283.48 82.918 283.48C84.4355 283.48 85.4473 284.383 85.4473 286.283V291H84.2715V286.365C84.2715 285.203 83.6289 284.533 82.5625 284.533C81.4551 284.533 80.6348 285.258 80.6348 286.543ZM92.0234 281.102V291H90.8477V281.102H92.0234ZM96.3438 282.564L94.8398 280.322H96.207L97.3691 282.564H96.3438ZM93.541 288.895C93.541 287.186 95.0449 286.803 96.3301 286.707C96.8018 286.673 98.0049 286.611 98.3398 286.598V285.996C98.3398 285.053 97.7793 284.506 96.6582 284.506C95.7148 284.506 95.1543 284.943 94.9902 285.504H93.7598C93.9102 284.314 95.0723 283.48 96.7129 283.48C97.6836 283.48 99.502 283.768 99.502 286.105V291H98.3398V289.988H98.2852C98.0391 290.494 97.3555 291.178 96.0703 291.178C94.6621 291.178 93.541 290.344 93.541 288.895ZM94.7168 288.949C94.7168 289.729 95.373 290.125 96.2754 290.125C97.6016 290.125 98.3398 289.236 98.3398 288.307V287.555L96.4668 287.691C95.4004 287.76 94.7168 288.143 94.7168 288.949ZM107.938 291.15C105.832 291.15 104.547 289.551 104.547 287.322C104.547 285.066 105.887 283.48 107.91 283.48C109.496 283.48 110.672 284.41 110.863 285.818H109.688C109.523 285.135 108.922 284.52 107.938 284.52C106.611 284.52 105.723 285.613 105.723 287.281C105.723 289.004 106.584 290.098 107.938 290.098C108.812 290.098 109.482 289.633 109.688 288.812H110.863C110.672 290.139 109.592 291.15 107.938 291.15ZM117.002 287.951V283.576H118.164V291H117.002V289.742H116.92C116.564 290.494 115.84 291.096 114.719 291.096C113.311 291.096 112.312 290.18 112.312 288.293V283.576H113.488V288.211C113.488 289.277 114.158 289.961 115.102 289.961C115.936 289.961 117.002 289.332 117.002 287.951ZM115.758 282.564H114.787V281.539C115.457 281.498 115.717 281.361 115.717 281.047C115.717 280.705 115.252 280.555 114.664 280.555L114.705 279.816C116.059 279.816 116.77 280.322 116.77 281.088C116.77 281.744 116.264 282.004 115.758 282.086V282.564ZM119.695 288.895C119.695 287.186 121.199 286.803 122.484 286.707C122.956 286.673 124.159 286.611 124.494 286.598V285.996C124.494 285.053 123.934 284.506 122.812 284.506C121.869 284.506 121.309 284.943 121.145 285.504H119.914C120.064 284.314 121.227 283.48 122.867 283.48C123.838 283.48 125.656 283.768 125.656 286.105V291H124.494V289.988H124.439C124.193 290.494 123.51 291.178 122.225 291.178C120.816 291.178 119.695 290.344 119.695 288.895ZM120.871 288.949C120.871 289.729 121.527 290.125 122.43 290.125C123.756 290.125 124.494 289.236 124.494 288.307V287.555L122.621 287.691C121.555 287.76 120.871 288.143 120.871 288.949ZM131.207 291V281.102H132.383V284.752H132.479C132.738 284.355 133.176 283.48 134.625 283.48C136.484 283.48 137.797 284.957 137.797 287.309C137.797 289.66 136.484 291.15 134.639 291.15C133.217 291.15 132.738 290.275 132.479 289.865H132.342V291H131.207ZM132.355 287.281C132.355 288.949 133.107 290.098 134.461 290.098C135.869 290.098 136.607 288.867 136.607 287.281C136.607 285.736 135.896 284.533 134.461 284.533C133.094 284.533 132.355 285.641 132.355 287.281ZM142.254 293.461C141.803 293.461 141.434 293.119 141.434 292.682C141.434 292.244 141.803 291.902 142.254 291.902C142.705 291.902 143.088 292.244 143.088 292.682C143.088 293.119 142.705 293.461 142.254 293.461ZM138.973 288.895C138.973 287.186 140.477 286.803 141.762 286.707C142.233 286.673 143.437 286.611 143.771 286.598V285.996C143.771 285.053 143.211 284.506 142.09 284.506C141.146 284.506 140.586 284.943 140.422 285.504H139.191C139.342 284.314 140.504 283.48 142.145 283.48C143.115 283.48 144.934 283.768 144.934 286.105V291H143.771V289.988H143.717C143.471 290.494 142.787 291.178 141.502 291.178C140.094 291.178 138.973 290.344 138.973 288.895ZM140.148 288.949C140.148 289.729 140.805 290.125 141.707 290.125C143.033 290.125 143.771 289.236 143.771 288.307V287.555L141.898 287.691C140.832 287.76 140.148 288.143 140.148 288.949ZM147.996 286.543V291H146.82V283.576H147.955V284.738H148.051C148.406 283.986 149.09 283.48 150.225 283.48C151.729 283.48 152.727 284.396 152.727 286.283V291H151.551V286.365C151.551 285.217 150.922 284.533 149.869 284.533C148.789 284.533 147.996 285.258 147.996 286.543ZM159.303 286.543V291H158.127V283.576H159.262V284.738H159.357C159.713 283.986 160.396 283.48 161.531 283.48C163.035 283.48 164.033 284.396 164.033 286.283V291H162.857V286.365C162.857 285.217 162.229 284.533 161.176 284.533C160.096 284.533 159.303 285.258 159.303 286.543ZM167.096 286.543V291H165.92V281.102H167.096V284.738H167.191C167.533 283.973 168.203 283.48 169.379 283.48C170.896 283.48 171.908 284.383 171.908 286.283V291H170.732V286.365C170.732 285.203 170.09 284.533 169.023 284.533C167.916 284.533 167.096 285.258 167.096 286.543ZM173.439 288.895C173.439 287.186 174.943 286.803 176.229 286.707C176.7 286.673 177.903 286.611 178.238 286.598V285.996C178.238 285.053 177.678 284.506 176.557 284.506C175.613 284.506 175.053 284.943 174.889 285.504H173.658C173.809 284.314 174.971 283.48 176.611 283.48C177.582 283.48 179.4 283.768 179.4 286.105V291H178.238V289.988H178.184C177.938 290.494 177.254 291.178 175.969 291.178C174.561 291.178 173.439 290.344 173.439 288.895ZM174.615 288.949C174.615 289.729 175.271 290.125 176.174 290.125C177.5 290.125 178.238 289.236 178.238 288.307V287.555L176.365 287.691C175.299 287.76 174.615 288.143 174.615 288.949ZM182.121 291.082C181.643 291.082 181.232 290.686 181.246 290.193C181.232 289.715 181.643 289.318 182.121 289.318C182.6 289.318 182.996 289.715 182.996 290.193C182.996 290.686 182.6 291.082 182.121 291.082Z" fill="white"/>
<circle cx="300" cy="228" r="12" fill="#2B441D"/>
<circle cx="300" cy="304" r="12" fill="#17174D"/>
<circle cx="281" cy="233.092" r="12" transform="rotate(-30 281 233.092)" fill="#751334"/>
<circle cx="319" cy="298.91" r="12" transform="rotate(-30 319 298.91)" fill="#131380"/>
<circle cx="267.091" cy="247" r="12" transform="rotate(-60 267.091 247)" fill="#401535"/>
<circle cx="332.909" cy="285" r="12" transform="rotate(-60 332.909 285)" fill="#13316F"/>
<circle cx="262" cy="266.001" r="12" transform="rotate(-90 262 266.001)" fill="#6A1254"/>
<circle cx="338" cy="266.001" r="12" transform="rotate(-90 338 266.001)" fill="#143027"/>
<circle cx="267.091" cy="285" r="12" transform="rotate(-120 267.091 285)" fill="#331642"/>
<circle cx="332.909" cy="247.001" r="12" transform="rotate(-120 332.909 247.001)" fill="#125428"/>
<circle cx="281" cy="298.909" r="12" transform="rotate(-150 281 298.909)" fill="#511370"/>
<circle cx="318.999" cy="233.091" r="12" transform="rotate(-150 318.999 233.091)" fill="#417522"/>
</svg>
