<svg width="20" height="20" viewBox="0 0 20 20" fill="none" xmlns="http://www.w3.org/2000/svg">
<circle cx="10" cy="10" r="9.5" fill="white" stroke="#38C1EE"/>
<path fill-rule="evenodd" clip-rule="evenodd" d="M14.78 6.62001C14.9204 6.76063 14.9993 6.95125 14.9993 7.15001C14.9993 7.34876 14.9204 7.53938 14.78 7.68001L8.68296 13.777C8.61258 13.8473 8.5289 13.9029 8.43681 13.9406C8.34473 13.9783 8.24607 13.9972 8.14658 13.9964C8.04709 13.9956 7.94876 13.9749 7.85732 13.9357C7.76588 13.8965 7.68315 13.8395 7.61396 13.768L5.21096 11.284C5.07392 11.1408 4.99914 10.9492 5.00295 10.751C5.00676 10.5529 5.08886 10.3643 5.2313 10.2264C5.37374 10.0886 5.56495 10.0128 5.76314 10.0155C5.96132 10.0182 6.15037 10.0993 6.28896 10.241L8.16196 12.177L13.72 6.62001C13.8606 6.47955 14.0512 6.40067 14.25 6.40067C14.4487 6.40067 14.6393 6.47955 14.78 6.62001Z" fill="#38C1EE"/>
</svg>
