<svg width="24" height="24" viewBox="0 0 24 24" fill="none" xmlns="http://www.w3.org/2000/svg">
<rect width="24" height="24" rx="12" fill="#F4F5F8"/>
<path d="M16.1412 9.33079C17.3759 10.2165 18.8884 10.7377 20.5221 10.7377V7.5829C20.2129 7.58297 19.9045 7.55061 19.6021 7.4863V9.96956C17.9686 9.96956 16.4562 9.44841 15.2212 8.56274V15.0007C15.2212 18.2213 12.6197 20.8319 9.41071 20.8319C8.21337 20.8319 7.10049 20.4687 6.17603 19.8456C7.23115 20.9283 8.70261 21.6 10.3305 21.6C13.5397 21.6 16.1413 18.9894 16.1413 15.7686V9.33079H16.1412ZM17.2761 6.14801C16.6452 5.4562 16.2309 4.56215 16.1412 3.57376V3.16798H15.2694C15.4888 4.42424 16.2374 5.49751 17.2761 6.14801ZM8.2057 17.3743C7.85316 16.9104 7.66264 16.3429 7.6635 15.7594C7.6635 14.2864 8.85342 13.0921 10.3215 13.0921C10.5951 13.092 10.867 13.1341 11.1277 13.2171V9.99183C10.823 9.94992 10.5155 9.93213 10.2081 9.93865V12.4491C9.9472 12.366 9.67512 12.3239 9.40146 12.3241C7.93342 12.3241 6.74356 13.5183 6.74356 14.9915C6.74356 16.0331 7.33832 16.9349 8.2057 17.3743Z" fill="#FF004F"/>
<path d="M15.2211 8.56267C16.4562 9.44834 17.9685 9.96949 19.602 9.96949V7.48624C18.6902 7.29133 17.883 6.81314 17.2761 6.14801C16.2372 5.49745 15.4888 4.42417 15.2693 3.16798H12.9792V15.7685C12.9741 17.2375 11.7862 18.4269 10.3213 18.4269C9.45803 18.4269 8.69113 18.014 8.20544 17.3743C7.33813 16.9349 6.74336 16.0331 6.74336 14.9916C6.74336 13.5185 7.93322 12.3242 9.40127 12.3242C9.68254 12.3242 9.95364 12.3681 10.2079 12.4491V9.93872C7.05535 10.0041 4.5199 12.5892 4.5199 15.7686C4.5199 17.3557 5.15128 18.7945 6.17603 19.8457C7.1005 20.4687 8.21338 20.832 9.41072 20.832C12.6197 20.832 15.2212 18.2213 15.2212 15.0007V8.56267H15.2211Z" fill="black"/>
<path d="M19.602 7.48624V6.81479C18.7798 6.81604 17.9737 6.58495 17.2761 6.14795C17.8936 6.82645 18.7068 7.29429 19.602 7.48624ZM15.2693 3.16799C15.2484 3.04793 15.2323 2.92708 15.2212 2.80577V2.4H12.0592V15.0007C12.0541 16.4694 10.8663 17.6589 9.40128 17.6589C8.97117 17.6589 8.56508 17.5564 8.20545 17.3743C8.69115 18.014 9.45805 18.4268 10.3213 18.4268C11.7861 18.4268 12.9741 17.2375 12.9793 15.7686V3.16799H15.2693ZM10.2081 9.93873V9.22391C9.94388 9.18767 9.6775 9.16949 9.4108 9.16962C6.20151 9.16955 3.59998 11.7803 3.59998 15.0007C3.59998 17.0196 4.62242 18.7989 6.17611 19.8456C5.15137 18.7944 4.51998 17.3555 4.51998 15.7685C4.51998 12.5892 7.05536 10.0041 10.2081 9.93873Z" fill="#00F2EA"/>
</svg>
