<svg width="90" height="90" viewBox="0 0 90 90" fill="none" xmlns="http://www.w3.org/2000/svg">
<path d="M66.2733 53.1562L80.65 49.3312C82.2066 48.9094 83.848 49.7531 84.2725 51.3281C84.697 52.9031 83.7631 54.4781 82.2066 54.9L73.4617 57.2344L79.7161 60.8063C81.0745 61.5938 81.5556 63.3094 80.7632 64.6594C79.9708 66.0094 78.2445 66.4875 76.886 65.7L70.6316 62.1281L72.9805 70.8187C73.4051 72.3938 72.4994 73.9688 70.9146 74.3906C69.3298 74.8125 67.7449 73.8844 67.3204 72.3375L63.4715 58.05L56.9624 54.3094C54.953 56.5312 52.2928 58.1625 49.2363 58.7812V66.1781L59.7641 76.6406C60.8962 77.7656 60.8962 79.6219 59.7641 80.7469C58.6321 81.8719 56.7643 81.8719 55.6323 80.7469L49.2363 74.3906V81.5625C49.2363 83.1094 47.9628 84.375 46.4062 84.375C44.8497 84.375 43.5762 83.1094 43.5762 81.5625V74.4187L37.1802 80.775C36.0482 81.9 34.1804 81.9 33.0483 80.775C31.9163 79.65 31.9163 77.7937 33.0483 76.6687L43.5762 66.2063V58.8094C40.4914 58.1906 37.8595 56.5594 35.8501 54.3375L29.3693 58.05L25.5204 72.3375C25.0959 73.8844 23.4827 74.8125 21.9262 74.3906C20.3697 73.9688 19.4357 72.3656 19.8603 70.8187L22.2092 62.1281L15.9548 65.7281C14.5963 66.4875 12.87 66.0375 12.0776 64.6875C11.2852 63.3375 11.7663 61.6219 13.0964 60.8906L19.3508 57.2906L10.6059 54.9563C9.04941 54.5344 8.11549 52.9312 8.54 51.3844C8.96451 49.8375 10.5776 48.9094 12.1342 49.3312L26.5109 53.1562L33.0201 49.4156C32.5389 48.0375 32.2276 46.5469 32.2276 45C32.2276 43.4531 32.5389 41.9625 33.0201 40.6406L26.5109 36.9L12.1342 40.725C10.5493 41.1469 8.96451 40.2188 8.54 38.6719C8.11549 37.0969 9.04941 35.5219 10.6059 35.1L19.3508 32.7656L13.0964 29.1656C11.7663 28.3781 11.2852 26.6625 12.0776 25.3125C12.8417 23.9625 14.5963 23.5125 15.9265 24.2719L22.2092 27.8719L19.8603 19.1813C19.4357 17.6344 20.3697 16.0594 21.9262 15.6375C23.4827 15.2156 25.0676 16.1438 25.4921 17.6906L29.341 31.9781L35.8218 35.6906C37.8312 33.4687 40.4914 31.8375 43.5479 31.2188V23.8219L33.0201 13.3594C31.888 12.2344 31.888 10.3781 33.0201 9.25312C34.1521 8.12812 36.0199 8.12812 37.1519 9.25312L43.5479 15.6094V8.4375C43.5479 6.89062 44.8214 5.625 46.3779 5.625C47.9345 5.625 49.208 6.89062 49.208 8.4375V15.6094L55.604 9.25312C56.736 8.12812 58.6038 8.12812 59.7358 9.25312C60.8679 10.3781 60.8679 12.2344 59.7358 13.3594L49.208 23.8219V31.2188C52.2645 31.8375 54.9247 33.4688 56.9058 35.6625L63.4149 31.9219L67.2638 17.6344C67.6883 16.0875 69.3015 15.1594 70.858 15.5813C72.4145 16.0031 73.3485 17.6062 72.924 19.1531L70.575 27.8438L76.8294 24.2719C78.1879 23.5125 79.9142 23.9625 80.7066 25.3125C81.4707 26.6625 81.0179 28.3781 79.6878 29.1375L73.4333 32.7094L82.1783 35.0438C83.7348 35.4656 84.6687 37.0687 84.2442 38.6156C83.8197 40.1625 82.2066 41.0906 80.65 40.6688L66.2733 36.8438L59.7641 40.5844C60.2453 41.9625 60.5566 43.4531 60.5566 45C60.5566 46.5469 60.2453 48.0094 59.7641 49.4156L66.2733 53.1562ZM54.8682 45C54.8682 40.3401 51.067 36.5625 46.378 36.5625C41.689 36.5625 37.8879 40.3401 37.8879 45C37.8879 49.6599 41.689 53.4375 46.378 53.4375C51.067 53.4375 54.8682 49.6599 54.8682 45Z" fill="#71D4FF"/>
</svg>
