<svg width="24" height="24" viewBox="0 0 24 24" fill="none" xmlns="http://www.w3.org/2000/svg">
<path d="M21.0464 11.2515C21.145 11.2515 21.2426 11.2709 21.3336 11.3087C21.4247 11.3464 21.5074 11.4016 21.5771 11.4713C21.6468 11.541 21.702 11.6237 21.7397 11.7148C21.7775 11.8058 21.7969 11.9034 21.7969 12.002C21.7969 12.1005 21.7775 12.1981 21.7397 12.2891C21.702 12.3802 21.6468 12.4629 21.5771 12.5326C21.5074 12.6023 21.4247 12.6575 21.3336 12.6952C21.2426 12.733 21.145 12.7524 21.0464 12.7524L12.2503 12.7517L12.2509 21.5479C12.2509 21.7469 12.1719 21.9378 12.0311 22.0785C11.8904 22.2193 11.6995 22.2983 11.5005 22.2983C11.3015 22.2983 11.1106 22.2193 10.9699 22.0785C10.8291 21.9378 10.7501 21.7469 10.7501 21.5479L10.7507 12.7517L1.95456 12.7524C1.75554 12.7524 1.56467 12.6733 1.42394 12.5326C1.28321 12.3918 1.20414 12.201 1.20414 12.002C1.20414 11.8029 1.28321 11.6121 1.42394 11.4713C1.56467 11.3306 1.75554 11.2515 1.95456 11.2515L10.7507 11.2522L10.7501 2.45601C10.7501 2.25699 10.8291 2.06612 10.9699 1.92539C11.1106 1.78466 11.3015 1.70559 11.5005 1.70559C11.6995 1.70559 11.8904 1.78466 12.0311 1.92539C12.1719 2.06612 12.2509 2.25699 12.2509 2.45601L12.2503 11.2522L21.0464 11.2515Z" fill="#535358"/>
</svg>
