<svg width="24" height="22" viewBox="0 0 24 22" fill="none" xmlns="http://www.w3.org/2000/svg">
<path d="M0.75 13.9248C0.948912 13.9248 1.13968 14.0038 1.28033 14.1445C1.42098 14.2851 1.5 14.4759 1.5 14.6748V18.4248C1.5 18.8226 1.65804 19.2042 1.93934 19.4855C2.22064 19.7668 2.60218 19.9248 3 19.9248H21C21.3978 19.9248 21.7794 19.7668 22.0607 19.4855C22.342 19.2042 22.5 18.8226 22.5 18.4248V14.6748C22.5 14.4759 22.579 14.2851 22.7197 14.1445C22.8603 14.0038 23.0511 13.9248 23.25 13.9248C23.4489 13.9248 23.6397 14.0038 23.7803 14.1445C23.921 14.2851 24 14.4759 24 14.6748V18.4248C24 19.2205 23.6839 19.9835 23.1213 20.5461C22.5587 21.1087 21.7956 21.4248 21 21.4248H3C2.20435 21.4248 1.44129 21.1087 0.87868 20.5461C0.316071 19.9835 0 19.2205 0 18.4248V14.6748C0 14.4759 0.0790176 14.2851 0.21967 14.1445C0.360322 14.0038 0.551088 13.9248 0.75 13.9248Z" fill="#535358"/>
<path d="M11.469 16.8562C11.5386 16.926 11.6214 16.9815 11.7125 17.0193C11.8036 17.0571 11.9013 17.0765 12 17.0765C12.0986 17.0765 12.1963 17.0571 12.2874 17.0193C12.3785 16.9815 12.4613 16.926 12.531 16.8562L17.031 12.3562C17.1718 12.2154 17.2509 12.0244 17.2509 11.8252C17.2509 11.626 17.1718 11.435 17.031 11.2942C16.8901 11.1534 16.6991 11.0742 16.5 11.0742C16.3008 11.0742 16.1098 11.1534 15.969 11.2942L12.75 14.5147V1.3252C12.75 1.12628 12.671 0.935517 12.5303 0.794865C12.3896 0.654213 12.1989 0.575195 12 0.575195C11.8011 0.575195 11.6103 0.654213 11.4696 0.794865C11.329 0.935517 11.25 1.12628 11.25 1.3252V14.5147L8.03097 11.2942C7.89014 11.1534 7.69913 11.0742 7.49997 11.0742C7.30081 11.0742 7.1098 11.1534 6.96897 11.2942C6.82814 11.435 6.74902 11.626 6.74902 11.8252C6.74902 12.0244 6.82814 12.2154 6.96897 12.3562L11.469 16.8562Z" fill="#535358"/>
</svg>
