<svg width="52" height="53" viewBox="0 0 52 53" fill="none" xmlns="http://www.w3.org/2000/svg">
<g clip-path="url(#clip0_445_7826)">
<path d="M52 26.459C52 12.0996 40.3594 0.458984 26 0.458984C11.6406 0.458984 0 12.0996 0 26.459C0 39.4361 9.50777 50.1926 21.9375 52.1431V33.9746H15.3359V26.459H21.9375V20.7309C21.9375 14.2146 25.8192 10.6152 31.7581 10.6152C34.6018 10.6152 37.5781 11.123 37.5781 11.123V17.5215H34.2997C31.07 17.5215 30.0625 19.5258 30.0625 21.584V26.459H37.2734L36.1207 33.9746H30.0625V52.1431C42.4922 50.1926 52 39.4361 52 26.459Z" fill="#3875E9"/>
</g>
<defs>
<clipPath id="clip0_445_7826">
<rect width="52" height="52" fill="white" transform="translate(0 0.458984)"/>
</clipPath>
</defs>
</svg>
