<svg width="66" height="24" viewBox="0 0 66 24" fill="none" xmlns="http://www.w3.org/2000/svg">
<path d="M10.5385 9.45311C10.1399 8.13093 9.08024 7.32402 7.54418 7.31429C5.36648 7.32402 3.88875 8.98646 3.88875 11.9419C3.88875 14.9168 5.31787 16.5987 7.56363 16.6084C9.57606 16.5987 10.7718 15.4612 10.8107 13.6919H7.75806V11.4947H13.6301V13.2446C13.6301 16.939 11.0927 19.1944 7.54418 19.1944C3.5971 19.1944 0.913857 16.4334 0.913857 11.9808C0.913857 7.41151 3.77209 4.72827 7.48585 4.72827C10.6649 4.72827 13.1051 6.68237 13.494 9.45311H10.5385ZM18.5882 4.92271V19H15.7106V4.92271H18.5882ZM25.5686 19.2139C22.3798 19.2042 20.3868 17.0167 20.3965 13.7502C20.3868 10.4934 22.3798 8.30593 25.5686 8.30593C28.7671 8.30593 30.7503 10.4934 30.76 13.7502C30.7503 17.0167 28.7671 19.2042 25.5686 19.2139ZM23.3131 13.7502C23.3131 15.5973 24.0811 16.9681 25.588 16.9778C27.056 16.9681 27.8338 15.5973 27.824 13.7502C27.8338 11.8933 27.056 10.5031 25.588 10.5031C24.0811 10.5031 23.3131 11.8933 23.3131 13.7502ZM34.3766 19L31.4989 8.44203H34.4155L36.0682 15.5779H36.1654L37.8959 8.44203H40.7541L42.5041 15.539H42.6013L44.2346 8.44203H47.1511L44.254 19H41.2208L39.3931 12.2919H39.257L37.4293 19H34.3766Z" fill="#111111"/>
<path d="M54.1636 19V4.92271H59.7634C62.8647 4.92271 64.4396 6.41988 64.4299 8.53925C64.4396 10.192 63.3508 11.2322 61.9022 11.553V11.6891C63.4869 11.7669 64.9841 13.0308 64.9938 15.1112C64.9841 17.3473 63.3119 19 60.1328 19H54.1636ZM57.0802 16.589H59.5495C61.2411 16.5987 61.9703 15.8987 61.9606 14.839C61.9703 13.653 61.0661 12.8169 59.6273 12.8169H57.0802V16.589ZM57.0802 10.8142H59.3357C60.5606 10.8239 61.4842 10.1336 61.4745 9.0059C61.4842 7.9851 60.7259 7.29485 59.394 7.29485H57.0802V10.8142Z" fill="#111111"/>
<path d="M48.013 16.8464L47.7302 15.6977L48.8615 15.9849L49.5685 13.6875L50.2756 15.9849L51.4068 15.6977L51.124 16.8464L52.6795 17.4207L51.124 17.995L51.4068 19.2873L50.2756 19.0001L49.5685 21.1539L48.8615 19.0001L47.5888 19.2873L48.013 17.995L46.4575 17.4207L48.013 16.8464Z" fill="#111111"/>
</svg>
