<svg width="350" height="316" viewBox="0 0 350 316" fill="none" xmlns="http://www.w3.org/2000/svg">
<path d="M0 16C0 7.16345 7.16344 0 16 0H226C234.837 0 242 7.16344 242 16V84C242 92.8366 234.837 100 226 100H16C7.16344 100 0 92.8366 0 84V16Z" fill="#A68032"/>
<path d="M25 61H20.6562L28.625 38.375H33.625L41.625 61H37.2812L35.4062 55.4062H26.875L25 61ZM27.9688 52.125H34.3125L31.2188 43H31.0312L27.9688 52.125ZM54.9688 53.875V44.0312H58.9375V61H55.0938V58H54.9062C54.125 59.875 52.3438 61.2188 49.8125 61.2188C46.4688 61.2188 44.1562 58.9062 44.125 54.8438V44.0312H48.125V54.2188C48.125 56.375 49.4062 57.75 51.3438 57.75C53.0938 57.75 54.9688 56.4688 54.9688 53.875ZM71.2188 44.0312V47.0938H67.875V55.9062C67.875 57.5312 68.6875 57.875 69.6875 57.875C70.1562 57.875 70.9375 57.8438 71.4375 57.8125V61.0625C70.9688 61.1562 70.1875 61.2188 69.1875 61.2188C66.1875 61.2188 63.875 59.75 63.9062 56.5625V47.0938H61.4688V44.0312H63.9062V39.9688H67.875V44.0312H71.2188ZM85.125 53.875V44.0312H89.0938V61H85.25V58H85.0625C84.2812 59.875 82.5 61.2188 79.9688 61.2188C76.625 61.2188 74.3125 58.9062 74.2812 54.8438V44.0312H78.2812V54.2188C78.2812 56.375 79.5625 57.75 81.5 57.75C83.25 57.75 85.125 56.4688 85.125 53.875ZM92.9062 61V44.0312H96.7188V46.9062H96.9375C97.625 44.9688 99.3438 43.8125 101.594 43.8125C103.906 43.8125 105.531 44.9688 106.188 46.9062H106.375C107.125 45.0312 109 43.8125 111.469 43.8125C114.562 43.8125 116.75 45.8125 116.75 49.5938V61H112.781V50.2188C112.781 48.0938 111.5 47.1562 109.875 47.1562C107.906 47.1562 106.781 48.5 106.781 50.4062V61H102.906V50.0625C102.906 48.3125 101.719 47.1562 100.031 47.1562C98.3125 47.1562 96.9062 48.5625 96.9062 50.6875V61H92.9062ZM124.562 51.0625V61H120.562V44.0312H124.375V46.9062H124.594C125.375 45 127.094 43.8125 129.625 43.8125C133.156 43.8125 135.469 46.125 135.438 50.1875V61H131.469V50.8125C131.469 48.5312 130.25 47.1875 128.156 47.1875C126.031 47.1875 124.562 48.5938 124.562 51.0625ZM147.031 38.375H152.031L158.75 54.8125H159.031L165.75 38.375H170.75V61H166.844V45.4375H166.625L160.344 60.9375H157.438L151.156 45.375H150.969V61H147.031V38.375ZM185.594 53.875V44.0312H189.562V61H185.719V58H185.531C184.75 59.875 182.969 61.2188 180.438 61.2188C177.094 61.2188 174.781 58.9062 174.75 54.8438V44.0312H178.75V54.2188C178.75 56.375 180.031 57.75 181.969 57.75C183.719 57.75 185.594 56.4688 185.594 53.875ZM201.844 44.0312V47.0938H198.5V55.9062C198.5 57.5312 199.312 57.875 200.312 57.875C200.781 57.875 201.562 57.8438 202.062 57.8125V61.0625C201.594 61.1562 200.812 61.2188 199.812 61.2188C196.812 61.2188 194.5 59.75 194.531 56.5625V47.0938H192.094V44.0312H194.531V39.9688H198.5V44.0312H201.844ZM212.25 61.3438C207.125 61.3438 204 57.9375 204 52.625C204 47.375 207.188 43.8125 212.031 43.8125C216.188 43.8125 219.781 46.4062 219.781 52.375V53.625H207.938C207.984 56.5156 209.688 58.2188 212.281 58.2188C214.031 58.2188 215.219 57.4688 215.719 56.4688H219.625C218.906 59.4062 216.188 61.3438 212.25 61.3438ZM207.969 50.9062H215.969C215.938 48.5938 214.406 46.9062 212.094 46.9062C209.688 46.9062 208.094 48.7344 207.969 50.9062Z" fill="#D9CE5F"/>
<path d="M250 16C250 7.16345 257.163 0 266 0H334C342.837 0 350 7.16344 350 16V84C350 92.8366 342.837 100 334 100H266C257.163 100 250 92.8366 250 84V16Z" fill="#8CAEAE"/>
<path d="M321.432 52.8164L317.807 52.1289C317.588 52.082 317.479 51.832 317.588 51.6445L320.963 46.2226C321.104 45.9882 320.932 45.707 320.666 45.7226L314.307 46.3007C314.088 46.3163 313.901 46.1132 313.963 45.8945L314.963 42.3945C315.041 42.1132 314.729 41.8789 314.479 42.0351L307.682 46.332C307.448 46.4726 307.151 46.2851 307.182 46.0195L309.182 31.4413C309.213 31.1757 308.932 30.9727 308.698 31.1289L303.557 34.2539C303.401 34.3477 303.182 34.2851 303.104 34.1289L300.198 28.3008C300.073 28.0664 299.744 28.0664 299.619 28.3008L296.713 34.1289C296.635 34.3008 296.416 34.3633 296.26 34.2695L290.948 31.1289C290.713 30.9883 290.416 31.1913 290.463 31.457L293.01 46.0195C293.057 46.2851 292.76 46.4883 292.526 46.3476L285.323 42.0195C285.073 41.8632 284.76 42.0976 284.838 42.3788L285.854 45.9101C285.916 46.1288 285.744 46.3476 285.51 46.3164L279.151 45.7382C278.885 45.707 278.713 46.0039 278.854 46.2383L282.229 51.6601C282.354 51.8476 282.244 52.1132 282.01 52.1445L278.385 52.832C278.104 52.8788 278.026 53.2538 278.276 53.4257L288.494 60.1289C288.76 60.3008 288.823 60.6445 288.651 60.9101L285.635 65.207C285.494 65.4101 285.698 65.6914 285.932 65.5976L299.026 60.8164C299.588 60.6133 300.213 60.6133 300.776 60.8164L313.869 65.5976C314.104 65.6914 314.323 65.4101 314.166 65.207L311.151 60.9101C310.979 60.6601 311.041 60.3008 311.307 60.1289L321.526 53.4257C321.791 53.2382 321.713 52.8633 321.432 52.8164Z" fill="#FF8A00"/>
<path d="M299.916 42.6133C300.779 42.6133 301.479 43.3128 301.479 44.1758V56.8648L309.983 52.4896C310.75 52.0948 311.692 52.3969 312.087 53.1642C312.482 53.9315 312.18 54.8736 311.412 55.2684L301.479 60.3791V70.2696C301.479 71.1325 300.779 71.8321 299.916 71.8321C299.053 71.8321 298.354 71.1325 298.354 70.2696V60.3792L288.42 55.2684C287.653 54.8736 287.351 53.9315 287.746 53.1642C288.14 52.3969 289.083 52.0948 289.85 52.4896L298.354 56.8648V44.1758C298.354 43.3128 299.053 42.6133 299.916 42.6133Z" fill="#CA0B4A"/>
<circle cx="50" cy="120" r="12" fill="#A59C33"/>
<circle cx="50" cy="195.999" r="12" fill="#305D89"/>
<circle cx="31.0002" cy="125.091" r="12" transform="rotate(-30 31.0002 125.091)" fill="#A68032"/>
<circle cx="69.0002" cy="190.909" r="12" transform="rotate(-30 69.0002 190.909)" fill="#47616E"/>
<circle cx="17.091" cy="139" r="12" transform="rotate(-60 17.091 139)" fill="#A65A32"/>
<circle cx="82.9089" cy="177" r="12" transform="rotate(-60 82.9089 177)" fill="#2F6B77"/>
<circle cx="12" cy="158" r="12" transform="rotate(-90 12 158)" fill="#A63333"/>
<circle cx="88" cy="158" r="12" transform="rotate(-90 88 158)" fill="#456565"/>
<circle cx="17.091" cy="177" r="12" transform="rotate(-120 17.091 177)" fill="#804952"/>
<circle cx="82.9089" cy="139" r="12" transform="rotate(-120 82.9089 139)" fill="#30773C"/>
<circle cx="30.9998" cy="190.908" r="12" transform="rotate(-150 30.9998 190.908)" fill="#663398"/>
<circle cx="68.9998" cy="125.091" r="12" transform="rotate(-150 68.9998 125.091)" fill="#869633"/>
<path d="M108 124C108 115.163 115.163 108 124 108H334C342.837 108 350 115.163 350 124V192C350 200.837 342.837 208 334 208H124C115.163 208 108 200.837 108 192V124Z" fill="#A65A32"/>
<path d="M131.938 132L132.312 129.727H130.332L129.957 132H128.949L129.324 129.727H128.105L128.258 128.73H129.488L129.805 126.785H128.598L128.75 125.777H129.98L130.344 123.516H131.352L130.988 125.777H132.969L133.332 123.516H134.328L133.965 125.777H135.195L135.031 126.785H133.801L133.484 128.73H134.703L134.527 129.727H133.32L132.945 132H131.938ZM130.496 128.73H132.477L132.793 126.785H130.812L130.496 128.73ZM136.156 132V123.516H137.445V130.887H141.277V132H136.156ZM142.496 132V125.637H143.75V132H142.496ZM143.129 124.652C142.695 124.652 142.332 124.324 142.332 123.914C142.332 123.504 142.695 123.176 143.129 123.176C143.551 123.176 143.914 123.504 143.914 123.914C143.914 124.324 143.551 124.652 143.129 124.652ZM147.945 134.52C146.34 134.52 145.285 133.805 145.168 132.621H146.445C146.562 133.219 147.125 133.512 147.957 133.512C148.953 133.512 149.586 133.09 149.586 132.094V130.84H149.504C149.281 131.25 148.824 131.906 147.652 131.906C146.152 131.906 144.992 130.781 144.992 128.754C144.992 126.727 146.129 125.555 147.664 125.555C148.848 125.555 149.281 126.27 149.516 126.668H149.598V125.637H150.816V132.141C150.816 133.77 149.586 134.52 147.945 134.52ZM147.934 130.875C149 130.875 149.598 130.09 149.598 128.777C149.598 127.488 149.012 126.621 147.934 126.621C146.82 126.621 146.27 127.559 146.27 128.777C146.27 130.02 146.844 130.875 147.934 130.875ZM153.594 128.227V132H152.34V123.516H153.57V126.68H153.652C153.957 125.988 154.543 125.555 155.539 125.555C156.852 125.555 157.719 126.363 157.719 127.957V132H156.465V128.109C156.465 127.172 155.961 126.633 155.117 126.633C154.238 126.633 153.594 127.207 153.594 128.227ZM162.207 125.637V126.633H160.906V130.125C160.906 130.84 161.27 130.969 161.668 130.98C161.844 130.98 162.125 130.957 162.301 130.945V132.035C162.125 132.059 161.855 132.082 161.516 132.082C160.531 132.082 159.652 131.543 159.664 130.383V126.633H158.727V125.637H159.664V124.113H160.906V125.637H162.207ZM169.262 126.199C168.945 125.191 168.184 124.582 167.059 124.582C165.629 124.582 164.527 125.707 164.527 127.758C164.527 129.809 165.617 130.934 167.117 130.934C168.471 130.934 169.367 130.078 169.391 128.719H167.305V127.652H170.645V128.613C170.645 130.758 169.168 132.117 167.105 132.117C164.809 132.117 163.25 130.441 163.25 127.758C163.25 125.051 164.855 123.398 167.047 123.398C168.887 123.398 170.293 124.547 170.586 126.199H169.262ZM172.027 132V125.637H173.234V126.645H173.305C173.539 125.965 174.172 125.543 174.922 125.543C175.074 125.543 175.32 125.555 175.449 125.566V126.762C175.344 126.738 175.051 126.691 174.793 126.691C173.926 126.691 173.281 127.289 173.281 128.121V132H172.027ZM176.023 130.207C176.023 128.754 177.254 128.379 178.402 128.297C178.824 128.268 179.779 128.215 180.078 128.203L180.066 127.699C180.066 126.984 179.633 126.562 178.777 126.562C178.039 126.562 177.594 126.902 177.465 127.371H176.223C176.34 126.316 177.324 125.555 178.824 125.555C179.832 125.555 181.32 125.93 181.32 127.77V132H180.102V131.133H180.055C179.809 131.613 179.223 132.141 178.168 132.141C176.961 132.141 176.023 131.449 176.023 130.207ZM177.242 130.219C177.242 130.828 177.746 131.145 178.449 131.145C179.469 131.145 180.078 130.465 180.078 129.703V129.117L178.578 129.223C177.758 129.281 177.242 129.586 177.242 130.219ZM183.371 134.391C183.113 134.391 182.867 134.379 182.703 134.355V133.312C182.844 133.324 183.09 133.336 183.266 133.336C183.652 133.336 183.98 133.301 184.273 132.504L184.426 132.082L182.094 125.637H183.43L185.035 130.57H185.105L186.711 125.637H188.059L185.434 132.844C185.07 133.852 184.414 134.391 183.371 134.391ZM189.078 132V125.637H190.332V132H189.078ZM189.711 124.652C189.277 124.652 188.914 124.324 188.914 123.914C188.914 123.504 189.277 123.176 189.711 123.176C190.133 123.176 190.496 123.504 190.496 123.914C190.496 124.324 190.133 124.652 189.711 124.652ZM195.43 127.371C195.312 126.867 194.914 126.539 194.223 126.539C193.508 126.539 192.992 126.914 193.004 127.395C192.992 127.77 193.297 128.039 194 128.203L195.008 128.438C196.18 128.695 196.742 129.258 196.754 130.16C196.742 131.309 195.781 132.129 194.152 132.129C192.629 132.129 191.715 131.449 191.562 130.266H192.84C192.945 130.84 193.391 131.121 194.141 131.121C194.949 131.121 195.465 130.793 195.477 130.254C195.465 129.844 195.16 129.574 194.492 129.422L193.496 129.211C192.348 128.953 191.75 128.344 191.75 127.465C191.75 126.328 192.734 125.555 194.211 125.555C195.629 125.555 196.508 126.281 196.637 127.371H195.43ZM199.227 128.227V132H197.973V123.516H199.203V126.68H199.285C199.59 125.988 200.176 125.555 201.172 125.555C202.484 125.555 203.352 126.363 203.352 127.957V132H202.098V128.109C202.098 127.172 201.594 126.633 200.75 126.633C199.871 126.633 199.227 127.207 199.227 128.227Z" fill="#F7F7F7"/>
<path d="M212.938 132L213.312 129.727H211.332L210.957 132H209.949L210.324 129.727H209.105L209.258 128.73H210.488L210.805 126.785H209.598L209.75 125.777H210.98L211.344 123.516H212.352L211.988 125.777H213.969L214.332 123.516H215.328L214.965 125.777H216.195L216.031 126.785H214.801L214.484 128.73H215.703L215.527 129.727H214.32L213.945 132H212.938ZM211.496 128.73H213.477L213.793 126.785H211.812L211.496 128.73ZM221.773 125.754C221.691 124.969 221 124.512 220.027 124.512C218.984 124.512 218.328 125.039 218.328 125.766C218.328 126.574 219.207 126.879 219.875 127.043L220.695 127.266C221.785 127.523 223.133 128.121 223.145 129.656C223.133 131.086 221.996 132.141 219.992 132.141C218.094 132.141 216.898 131.191 216.816 129.645H218.105C218.188 130.57 218.996 131.016 219.992 131.016C221.07 131.016 221.855 130.465 221.867 129.633C221.855 128.895 221.164 128.59 220.262 128.355L219.254 128.086C217.895 127.711 217.039 127.02 217.039 125.836C217.039 124.371 218.352 123.398 220.062 123.398C221.785 123.398 222.992 124.383 223.027 125.754H221.773ZM227.117 132.129C225.312 132.129 224.141 130.816 224.141 128.848C224.141 126.867 225.312 125.555 227.117 125.555C228.91 125.555 230.082 126.867 230.082 128.848C230.082 130.816 228.91 132.129 227.117 132.129ZM227.117 131.086C228.266 131.086 228.816 130.066 228.816 128.848C228.816 127.629 228.266 126.586 227.117 126.586C225.945 126.586 225.395 127.629 225.395 128.848C225.395 130.066 225.945 131.086 227.117 131.086ZM234.348 125.637V126.633H232.977V132H231.723V126.633H230.738V125.637H231.723V124.898C231.723 123.762 232.449 123.117 233.621 123.117C233.926 123.117 234.23 123.152 234.477 123.199V124.242C234.242 124.207 234.066 124.195 233.949 124.195C233.281 124.195 232.977 124.465 232.977 125.086V125.637H234.348ZM238.461 125.637V126.633H237.16V130.125C237.16 130.84 237.523 130.969 237.922 130.98C238.098 130.98 238.379 130.957 238.555 130.945V132.035C238.379 132.059 238.109 132.082 237.77 132.082C236.785 132.082 235.906 131.543 235.918 130.383V126.633H234.98V125.637H235.918V124.113H237.16V125.637H238.461Z" fill="#F7F7F7"/>
<path d="M246.938 132L247.312 129.727H245.332L244.957 132H243.949L244.324 129.727H243.105L243.258 128.73H244.488L244.805 126.785H243.598L243.75 125.777H244.98L245.344 123.516H246.352L245.988 125.777H247.969L248.332 123.516H249.328L248.965 125.777H250.195L250.031 126.785H248.801L248.484 128.73H249.703L249.527 129.727H248.32L247.945 132H246.938ZM245.496 128.73H247.477L247.793 126.785H245.812L245.496 128.73ZM253.91 132H251.156V123.516H253.992C256.488 123.516 257.988 125.109 257.988 127.746C257.988 130.395 256.488 132 253.91 132ZM252.445 130.875H253.84C255.762 130.875 256.711 129.75 256.711 127.746C256.711 125.754 255.762 124.641 253.91 124.641H252.445V130.875ZM263.379 129.352V125.637H264.621V132H263.402V130.898H263.332C263.039 131.578 262.383 132.082 261.434 132.082C260.203 132.082 259.336 131.262 259.336 129.68V125.637H260.59V129.527C260.59 130.395 261.117 130.945 261.879 130.945C262.57 130.945 263.379 130.441 263.379 129.352ZM267.398 123.516V132H266.145V123.516H267.398ZM270.176 123.516V132H268.922V123.516H270.176Z" fill="#F7F7F7"/>
<path d="M278.938 132L279.312 129.727H277.332L276.957 132H275.949L276.324 129.727H275.105L275.258 128.73H276.488L276.805 126.785H275.598L275.75 125.777H276.98L277.344 123.516H278.352L277.988 125.777H279.969L280.332 123.516H281.328L280.965 125.777H282.195L282.031 126.785H280.801L280.484 128.73H281.703L281.527 129.727H280.32L279.945 132H278.938ZM277.496 128.73H279.477L279.793 126.785H277.812L277.496 128.73ZM288.887 126.199C288.57 125.191 287.809 124.582 286.684 124.582C285.254 124.582 284.152 125.707 284.152 127.758C284.152 129.809 285.242 130.934 286.742 130.934C288.096 130.934 288.992 130.078 289.016 128.719H286.93V127.652H290.27V128.613C290.27 130.758 288.793 132.117 286.73 132.117C284.434 132.117 282.875 130.441 282.875 127.758C282.875 125.051 284.48 123.398 286.672 123.398C288.512 123.398 289.918 124.547 290.211 126.199H288.887ZM291.652 132V125.637H292.859V126.645H292.93C293.164 125.965 293.797 125.543 294.547 125.543C294.699 125.543 294.945 125.555 295.074 125.566V126.762C294.969 126.738 294.676 126.691 294.418 126.691C293.551 126.691 292.906 127.289 292.906 128.121V132H291.652ZM295.648 130.207C295.648 128.754 296.879 128.379 298.027 128.297C298.449 128.268 299.404 128.215 299.703 128.203L299.691 127.699C299.691 126.984 299.258 126.562 298.402 126.562C297.664 126.562 297.219 126.902 297.09 127.371H295.848C295.965 126.316 296.949 125.555 298.449 125.555C299.457 125.555 300.945 125.93 300.945 127.77V132H299.727V131.133H299.68C299.434 131.613 298.848 132.141 297.793 132.141C296.586 132.141 295.648 131.449 295.648 130.207ZM296.867 130.219C296.867 130.828 297.371 131.145 298.074 131.145C299.094 131.145 299.703 130.465 299.703 129.703V129.117L298.203 129.223C297.383 129.281 296.867 129.586 296.867 130.219ZM302.996 134.391C302.738 134.391 302.492 134.379 302.328 134.355V133.312C302.469 133.324 302.715 133.336 302.891 133.336C303.277 133.336 303.605 133.301 303.898 132.504L304.051 132.082L301.719 125.637H303.055L304.66 130.57H304.73L306.336 125.637H307.684L305.059 132.844C304.695 133.852 304.039 134.391 302.996 134.391ZM308.703 132V125.637H309.957V132H308.703ZM309.336 124.652C308.902 124.652 308.539 124.324 308.539 123.914C308.539 123.504 308.902 123.176 309.336 123.176C309.758 123.176 310.121 123.504 310.121 123.914C310.121 124.324 309.758 124.652 309.336 124.652ZM315.055 127.371C314.938 126.867 314.539 126.539 313.848 126.539C313.133 126.539 312.617 126.914 312.629 127.395C312.617 127.77 312.922 128.039 313.625 128.203L314.633 128.438C315.805 128.695 316.367 129.258 316.379 130.16C316.367 131.309 315.406 132.129 313.777 132.129C312.254 132.129 311.34 131.449 311.188 130.266H312.465C312.57 130.84 313.016 131.121 313.766 131.121C314.574 131.121 315.09 130.793 315.102 130.254C315.09 129.844 314.785 129.574 314.117 129.422L313.121 129.211C311.973 128.953 311.375 128.344 311.375 127.465C311.375 126.328 312.359 125.555 313.836 125.555C315.254 125.555 316.133 126.281 316.262 127.371H315.055ZM318.852 128.227V132H317.598V123.516H318.828V126.68H318.91C319.215 125.988 319.801 125.555 320.797 125.555C322.109 125.555 322.977 126.363 322.977 127.957V132H321.723V128.109C321.723 127.172 321.219 126.633 320.375 126.633C319.496 126.633 318.852 127.207 318.852 128.227Z" fill="#F7F7F7"/>
<path d="M136.955 143.102V153H135.779L130.42 145.289H130.324V153H129.094V143.102H130.283L135.643 150.826H135.738V143.102H136.955ZM140.168 148.543V153H138.992V143.102H140.168V146.738H140.264C140.605 145.973 141.275 145.48 142.451 145.48C143.969 145.48 144.98 146.383 144.98 148.283V153H143.805V148.365C143.805 147.203 143.162 146.533 142.096 146.533C140.988 146.533 140.168 147.258 140.168 148.543ZM154.605 145.248C154.605 146.622 154.182 147.367 152.719 147.463V153H151.557V151.742H151.475C151.119 152.494 150.395 153.096 149.273 153.096C147.865 153.096 146.867 152.18 146.867 150.293V145.576H148.043V150.211C148.043 151.277 148.713 151.961 149.656 151.961C150.49 151.961 151.557 151.332 151.557 149.951V145.576H152.719V146.67C153.573 146.581 153.594 146.137 153.594 145.248H154.605ZM147.414 144.646C147.414 143.648 148.07 142.951 148.891 142.951C149.643 142.951 149.971 143.566 150.654 143.566C151.023 143.566 151.311 143.252 151.311 142.842L152.199 142.91C152.199 143.936 151.543 144.564 150.709 144.564C149.82 144.564 149.684 143.949 148.959 143.949C148.59 143.949 148.33 144.277 148.33 144.688L147.414 144.646ZM156.342 148.543V153H155.166V145.576H156.301V146.738H156.396C156.752 145.986 157.436 145.48 158.57 145.48C160.074 145.48 161.072 146.396 161.072 148.283V153H159.896V148.365C159.896 147.217 159.268 146.533 158.215 146.533C157.135 146.533 156.342 147.258 156.342 148.543ZM165.967 155.939C164.176 155.939 162.959 155.16 162.822 153.779H164.053C164.217 154.531 164.914 154.914 165.967 154.914C167.238 154.914 168.018 154.367 168.018 153.137V151.633H167.922C167.676 152.043 167.197 152.891 165.762 152.891C163.957 152.891 162.604 151.523 162.604 149.186C162.604 146.902 163.916 145.48 165.775 145.48C167.211 145.48 167.676 146.355 167.949 146.752H168.045V145.576H169.193V153.205C169.193 155.119 167.771 155.939 165.967 155.939ZM165.926 151.838C167.279 151.838 168.045 150.867 168.045 149.227C168.045 147.641 167.307 146.533 165.926 146.533C164.504 146.533 163.793 147.736 163.793 149.227C163.793 150.771 164.518 151.838 165.926 151.838ZM174.58 153V145.576H175.715V146.738H175.811C176.125 145.945 176.836 145.48 177.807 145.48C178.777 145.48 179.434 145.945 179.789 146.738H179.871C180.254 145.973 181.033 145.48 182.1 145.48C183.426 145.48 184.369 146.287 184.369 148.037V153H183.193V148.051C183.193 146.957 182.496 146.533 181.689 146.533C180.65 146.533 180.062 147.23 180.062 148.174V153H178.873V147.928C178.873 147.094 178.271 146.533 177.424 146.533C176.535 146.533 175.756 147.285 175.756 148.365V153H174.58ZM188.703 144.564L187.199 142.322H188.566L189.729 144.564H188.703ZM185.9 150.895C185.9 149.186 187.404 148.803 188.689 148.707C189.161 148.673 190.364 148.611 190.699 148.598V147.996C190.699 147.053 190.139 146.506 189.018 146.506C188.074 146.506 187.514 146.943 187.35 147.504H186.119C186.27 146.314 187.432 145.48 189.072 145.48C190.043 145.48 191.861 145.768 191.861 148.105V153H190.699V151.988H190.645C190.398 152.494 189.715 153.178 188.43 153.178C187.021 153.178 185.9 152.344 185.9 150.895ZM187.076 150.949C187.076 151.729 187.732 152.125 188.635 152.125C189.961 152.125 190.699 151.236 190.699 150.307V149.555L188.826 149.691C187.76 149.76 187.076 150.143 187.076 150.949ZM198.438 149.951V145.576H199.6V153H198.438V151.742H198.355C198 152.494 197.275 153.096 196.154 153.096C194.746 153.096 193.748 152.18 193.748 150.293V145.576H194.924V150.211C194.924 151.277 195.594 151.961 196.537 151.961C197.371 151.961 198.438 151.332 198.438 149.951ZM208.035 153.15C205.93 153.15 204.645 151.551 204.645 149.322C204.645 147.066 205.984 145.48 208.008 145.48C209.594 145.48 210.77 146.41 210.961 147.818H209.785C209.621 147.135 209.02 146.52 208.035 146.52C206.709 146.52 205.82 147.613 205.82 149.281C205.82 151.004 206.682 152.098 208.035 152.098C208.91 152.098 209.58 151.633 209.785 150.812H210.961C210.77 152.139 209.689 153.15 208.035 153.15ZM215.445 153.15C213.422 153.15 212.055 151.633 212.055 149.322C212.055 147.012 213.422 145.48 215.445 145.48C217.455 145.48 218.809 147.012 218.809 149.322C218.809 151.633 217.455 153.15 215.445 153.15ZM215.445 152.111C216.936 152.111 217.633 150.799 217.633 149.322C217.633 147.846 216.936 146.52 215.445 146.52C213.928 146.52 213.23 147.846 213.23 149.322C213.23 150.799 213.928 152.111 215.445 152.111ZM214.926 144.564L216.102 142.322H217.455L215.938 144.564H214.926ZM226.67 153.15C224.824 153.15 223.512 151.66 223.512 149.309C223.512 146.957 224.824 145.48 226.684 145.48C228.119 145.48 228.584 146.355 228.83 146.752H228.912V144.934H226.889V144.031H228.912V143.102H230.102V144.031H231.168V144.934H230.102V153H228.953V151.865H228.83C228.57 152.275 228.092 153.15 226.67 153.15ZM226.834 152.098C228.188 152.098 228.953 150.949 228.953 149.281C228.953 147.641 228.215 146.533 226.834 146.533C225.412 146.533 224.701 147.736 224.701 149.281C224.701 150.867 225.426 152.098 226.834 152.098ZM235.174 153.15C233.15 153.15 231.783 151.633 231.783 149.322C231.783 147.012 233.15 145.48 235.174 145.48C237.184 145.48 238.537 147.012 238.537 149.322C238.537 151.633 237.184 153.15 235.174 153.15ZM235.174 152.111C236.664 152.111 237.361 150.799 237.361 149.322C237.361 147.846 236.664 146.52 235.174 146.52C233.656 146.52 232.959 147.846 232.959 149.322C232.959 150.799 233.656 152.111 235.174 152.111ZM236.172 144.688L235.16 143.348L234.162 144.688H233.041V144.605L234.627 142.596H235.693L237.279 144.605V144.688H236.172ZM235.229 155.461C234.777 155.461 234.408 155.119 234.408 154.682C234.408 154.244 234.777 153.902 235.229 153.902C235.68 153.902 236.062 154.244 236.062 154.682C236.062 155.119 235.68 155.461 235.229 155.461ZM243.746 153V143.102H244.922V146.752H245.018C245.277 146.355 245.715 145.48 247.164 145.48C249.023 145.48 250.336 146.957 250.336 149.309C250.336 151.66 249.023 153.15 247.178 153.15C245.756 153.15 245.277 152.275 245.018 151.865H244.881V153H243.746ZM244.895 149.281C244.895 150.949 245.646 152.098 247 152.098C248.408 152.098 249.146 150.867 249.146 149.281C249.146 147.736 248.436 146.533 247 146.533C245.633 146.533 244.895 147.641 244.895 149.281ZM252.414 144.646C252.414 143.648 253.07 142.951 253.891 142.951C254.643 142.951 254.971 143.566 255.654 143.566C256.023 143.566 256.311 143.252 256.311 142.842L257.199 142.91C257.199 143.936 256.543 144.564 255.709 144.564C254.82 144.564 254.684 143.949 253.959 143.949C253.59 143.949 253.33 144.277 253.33 144.688L252.414 144.646ZM251.512 150.895C251.512 149.186 253.016 148.803 254.301 148.707C254.772 148.673 255.976 148.611 256.311 148.598V147.996C256.311 147.053 255.75 146.506 254.629 146.506C253.686 146.506 253.125 146.943 252.961 147.504H251.73C251.881 146.314 253.043 145.48 254.684 145.48C255.654 145.48 257.473 145.768 257.473 148.105V153H256.311V151.988H256.256C256.01 152.494 255.326 153.178 254.041 153.178C252.633 153.178 251.512 152.344 251.512 150.895ZM252.688 150.949C252.688 151.729 253.344 152.125 254.246 152.125C255.572 152.125 256.311 151.236 256.311 150.307V149.555L254.438 149.691C253.371 149.76 252.688 150.143 252.688 150.949ZM262.395 153.15C260.371 153.15 259.004 151.633 259.004 149.322C259.004 147.012 260.371 145.48 262.395 145.48C264.404 145.48 265.758 147.012 265.758 149.322C265.758 151.633 264.404 153.15 262.395 153.15ZM262.395 152.111C263.885 152.111 264.582 150.799 264.582 149.322C264.582 147.846 263.885 146.52 262.395 146.52C260.877 146.52 260.18 147.846 260.18 149.322C260.18 150.799 260.877 152.111 262.395 152.111ZM271.992 148.543V153H270.816V143.102H271.992V146.738H272.088C272.43 145.973 273.1 145.48 274.275 145.48C275.793 145.48 276.805 146.383 276.805 148.283V153H275.629V148.365C275.629 147.203 274.986 146.533 273.92 146.533C272.812 146.533 271.992 147.258 271.992 148.543ZM281.727 153.15C279.703 153.15 278.336 151.633 278.336 149.322C278.336 147.012 279.703 145.48 281.727 145.48C283.736 145.48 285.09 147.012 285.09 149.322C285.09 151.633 283.736 153.15 281.727 153.15ZM281.727 152.111C283.217 152.111 283.914 150.799 283.914 149.322C283.914 147.846 283.217 146.52 281.727 146.52C280.209 146.52 279.512 147.846 279.512 149.322C279.512 150.799 280.209 152.111 281.727 152.111ZM289.082 144.564L287.578 142.322H288.945L290.107 144.564H289.082ZM286.279 150.895C286.279 149.186 287.783 148.803 289.068 148.707C289.54 148.673 290.743 148.611 291.078 148.598V147.996C291.078 147.053 290.518 146.506 289.396 146.506C288.453 146.506 287.893 146.943 287.729 147.504H286.498C286.648 146.314 287.811 145.48 289.451 145.48C290.422 145.48 292.24 145.768 292.24 148.105V153H291.078V151.988H291.023C290.777 152.494 290.094 153.178 288.809 153.178C287.4 153.178 286.279 152.344 286.279 150.895ZM287.455 150.949C287.455 151.729 288.111 152.125 289.014 152.125C290.34 152.125 291.078 151.236 291.078 150.307V149.555L289.205 149.691C288.139 149.76 287.455 150.143 287.455 150.949ZM300.881 145.576V146.561H299.322V150.867C299.322 151.824 299.787 151.975 300.293 151.975C300.512 151.975 300.812 151.961 300.99 151.947V153.041C300.812 153.068 300.512 153.096 300.17 153.096C299.186 153.096 298.133 152.48 298.133 151.168V146.561H297.012V145.576H298.133V143.799H299.322V145.576H300.881ZM302.398 153V145.576H303.533V146.711H303.615C303.889 145.959 304.654 145.453 305.529 145.453C305.707 145.453 306.008 145.467 306.145 145.48V146.67C306.062 146.643 305.734 146.588 305.434 146.588C304.367 146.588 303.574 147.326 303.574 148.324V153H302.398ZM311.982 149.951V145.576H313.145V153H311.982V151.742H311.9C311.545 152.494 310.82 153.096 309.699 153.096C308.291 153.096 307.293 152.18 307.293 150.293V145.576H308.469V150.211C308.469 151.277 309.139 151.961 310.082 151.961C310.916 151.961 311.982 151.332 311.982 149.951ZM316.207 148.543V153H315.031V145.576H316.166V146.738H316.262C316.617 145.986 317.301 145.48 318.436 145.48C319.939 145.48 320.938 146.396 320.938 148.283V153H319.762V148.365C319.762 147.217 319.133 146.533 318.08 146.533C317 146.533 316.207 147.258 316.207 148.543ZM325.832 155.939C324.041 155.939 322.824 155.16 322.688 153.779H323.918C324.082 154.531 324.779 154.914 325.832 154.914C327.104 154.914 327.883 154.367 327.883 153.137V151.633H327.787C327.541 152.043 327.062 152.891 325.627 152.891C323.822 152.891 322.469 151.523 322.469 149.186C322.469 146.902 323.781 145.48 325.641 145.48C327.076 145.48 327.541 146.355 327.814 146.752H327.91V145.576H329.059V153.205C329.059 155.119 327.637 155.939 325.832 155.939ZM325.791 151.838C327.145 151.838 327.91 150.867 327.91 149.227C327.91 147.641 327.172 146.533 325.791 146.533C324.369 146.533 323.658 147.736 323.658 149.227C323.658 150.771 324.383 151.838 325.791 151.838ZM129.094 173V163.102H130.27V166.752H130.365C130.625 166.355 131.062 165.48 132.512 165.48C134.371 165.48 135.684 166.957 135.684 169.309C135.684 171.66 134.371 173.15 132.525 173.15C131.104 173.15 130.625 172.275 130.365 171.865H130.229V173H129.094ZM130.242 169.281C130.242 170.949 130.994 172.098 132.348 172.098C133.756 172.098 134.494 170.867 134.494 169.281C134.494 167.736 133.783 166.533 132.348 166.533C130.98 166.533 130.242 167.641 130.242 169.281ZM137.215 173V165.576H138.391V173H137.215ZM137.311 164.564L135.807 162.322H137.174L138.336 164.564H137.311ZM141.439 168.543V173H140.264V165.576H141.398V166.738H141.494C141.85 165.986 142.533 165.48 143.668 165.48C145.172 165.48 146.17 166.396 146.17 168.283V173H144.994V168.365C144.994 167.217 144.365 166.533 143.312 166.533C142.232 166.533 141.439 167.258 141.439 168.543ZM149.232 168.543V173H148.057V163.102H149.232V166.738H149.328C149.67 165.973 150.34 165.48 151.516 165.48C153.033 165.48 154.045 166.383 154.045 168.283V173H152.869V168.365C152.869 167.203 152.227 166.533 151.16 166.533C150.053 166.533 149.232 167.258 149.232 168.543ZM157.477 172.084L156.41 175.803H155.398L156.15 172.084H157.477ZM165.83 173.15C163.984 173.15 162.672 171.66 162.672 169.309C162.672 166.957 163.984 165.48 165.844 165.48C167.279 165.48 167.744 166.355 167.99 166.752H168.072V164.934H166.049V164.031H168.072V163.102H169.262V164.031H170.328V164.934H169.262V173H168.113V171.865H167.99C167.73 172.275 167.252 173.15 165.83 173.15ZM165.994 172.098C167.348 172.098 168.113 170.949 168.113 169.281C168.113 167.641 167.375 166.533 165.994 166.533C164.572 166.533 163.861 167.736 163.861 169.281C163.861 170.867 164.586 172.098 165.994 172.098ZM174.334 173.15C172.311 173.15 170.943 171.633 170.943 169.322C170.943 167.012 172.311 165.48 174.334 165.48C176.344 165.48 177.697 167.012 177.697 169.322C177.697 171.633 176.344 173.15 174.334 173.15ZM174.334 172.111C175.824 172.111 176.521 170.799 176.521 169.322C176.521 167.846 175.824 166.52 174.334 166.52C172.816 166.52 172.119 167.846 172.119 169.322C172.119 170.799 172.816 172.111 174.334 172.111ZM175.332 164.688L174.32 163.348L173.322 164.688H172.201V164.605L173.787 162.596H174.854L176.439 164.605V164.688H175.332ZM174.389 175.461C173.938 175.461 173.568 175.119 173.568 174.682C173.568 174.244 173.938 173.902 174.389 173.902C174.84 173.902 175.223 174.244 175.223 174.682C175.223 175.119 174.84 175.461 174.389 175.461ZM186.885 167.504C186.721 166.889 186.256 166.479 185.381 166.479C184.465 166.479 183.809 166.971 183.809 167.6C183.809 168.092 184.205 168.434 185.08 168.639L186.188 168.912C187.514 169.227 188.17 169.883 188.17 170.922C188.17 172.207 187.117 173.15 185.258 173.15C183.59 173.15 182.592 172.412 182.4 171.059H183.631C183.768 171.783 184.301 172.125 185.23 172.125C186.283 172.125 186.953 171.688 186.953 170.99C186.953 170.471 186.584 170.115 185.736 169.924L184.615 169.664C183.316 169.363 182.633 168.652 182.633 167.668C182.633 166.396 183.74 165.48 185.381 165.48C186.912 165.48 187.883 166.301 188.033 167.504H186.885ZM192.121 164.564L193.297 162.322H194.65L193.133 164.564H192.121ZM189.346 170.895C189.346 169.186 190.85 168.803 192.135 168.707C192.606 168.673 193.81 168.611 194.145 168.598V167.996C194.145 167.053 193.584 166.506 192.463 166.506C191.52 166.506 190.959 166.943 190.795 167.504H189.564C189.715 166.314 190.877 165.48 192.518 165.48C193.488 165.48 195.307 165.768 195.307 168.105V173H194.145V171.988H194.09C193.844 172.494 193.16 173.178 191.875 173.178C190.467 173.178 189.346 172.344 189.346 170.895ZM190.521 170.949C190.521 171.729 191.178 172.125 192.08 172.125C193.406 172.125 194.145 171.236 194.145 170.307V169.555L192.271 169.691C191.205 169.76 190.521 170.143 190.521 170.949ZM198.369 168.543V173H197.193V165.576H198.328V166.738H198.424C198.779 165.986 199.463 165.48 200.598 165.48C202.102 165.48 203.1 166.396 203.1 168.283V173H201.924V168.365C201.924 167.217 201.295 166.533 200.242 166.533C199.162 166.533 198.369 167.258 198.369 168.543ZM207.994 175.939C206.203 175.939 204.986 175.16 204.85 173.779H206.08C206.244 174.531 206.941 174.914 207.994 174.914C209.266 174.914 210.045 174.367 210.045 173.137V171.633H209.949C209.703 172.043 209.225 172.891 207.789 172.891C205.984 172.891 204.631 171.523 204.631 169.186C204.631 166.902 205.943 165.48 207.803 165.48C209.238 165.48 209.703 166.355 209.977 166.752H210.072V165.576H211.221V173.205C211.221 175.119 209.799 175.939 207.994 175.939ZM207.953 171.838C209.307 171.838 210.072 170.867 210.072 169.227C210.072 167.641 209.334 166.533 207.953 166.533C206.531 166.533 205.82 167.736 205.82 169.227C205.82 170.771 206.545 171.838 207.953 171.838ZM219.848 165.576V166.561H218.289V170.867C218.289 171.824 218.754 171.975 219.26 171.975C219.479 171.975 219.779 171.961 219.957 171.947V173.041C219.779 173.068 219.479 173.096 219.137 173.096C218.152 173.096 217.1 172.48 217.1 171.168V166.561H215.979V165.576H217.1V163.799H218.289V165.576H219.848ZM221.365 173V165.576H222.5V166.711H222.582C222.855 165.959 223.621 165.453 224.496 165.453C224.674 165.453 224.975 165.467 225.111 165.48V166.67C225.029 166.643 224.701 166.588 224.4 166.588C223.334 166.588 222.541 167.326 222.541 168.324V173H221.365ZM230.949 169.951V165.576H232.111V173H230.949V171.742H230.867C230.512 172.494 229.787 173.096 228.666 173.096C227.258 173.096 226.26 172.18 226.26 170.293V165.576H227.436V170.211C227.436 171.277 228.105 171.961 229.049 171.961C229.883 171.961 230.949 171.332 230.949 169.951ZM235.174 168.543V173H233.998V165.576H235.133V166.738H235.229C235.584 165.986 236.268 165.48 237.402 165.48C238.906 165.48 239.904 166.396 239.904 168.283V173H238.729V168.365C238.729 167.217 238.1 166.533 237.047 166.533C235.967 166.533 235.174 167.258 235.174 168.543ZM244.799 175.939C243.008 175.939 241.791 175.16 241.654 173.779H242.885C243.049 174.531 243.746 174.914 244.799 174.914C246.07 174.914 246.85 174.367 246.85 173.137V171.633H246.754C246.508 172.043 246.029 172.891 244.594 172.891C242.789 172.891 241.436 171.523 241.436 169.186C241.436 166.902 242.748 165.48 244.607 165.48C246.043 165.48 246.508 166.355 246.781 166.752H246.877V165.576H248.025V173.205C248.025 175.119 246.604 175.939 244.799 175.939ZM244.758 171.838C246.111 171.838 246.877 170.867 246.877 169.227C246.877 167.641 246.139 166.533 244.758 166.533C243.336 166.533 242.625 167.736 242.625 169.227C242.625 170.771 243.35 171.838 244.758 171.838ZM253.562 173V163.102H254.738V166.752H254.834C255.094 166.355 255.531 165.48 256.98 165.48C258.84 165.48 260.152 166.957 260.152 169.309C260.152 171.66 258.84 173.15 256.994 173.15C255.572 173.15 255.094 172.275 254.834 171.865H254.697V173H253.562ZM254.711 169.281C254.711 170.949 255.463 172.098 256.816 172.098C258.225 172.098 258.963 170.867 258.963 169.281C258.963 167.736 258.252 166.533 256.816 166.533C255.449 166.533 254.711 167.641 254.711 169.281ZM261.684 173V165.576H262.859V173H261.684ZM261.779 164.564L260.275 162.322H261.643L262.805 164.564H261.779ZM265.908 168.543V173H264.732V165.576H265.867V166.738H265.963C266.318 165.986 267.002 165.48 268.137 165.48C269.641 165.48 270.639 166.396 270.639 168.283V173H269.463V168.365C269.463 167.217 268.834 166.533 267.781 166.533C266.701 166.533 265.908 167.258 265.908 168.543ZM273.701 168.543V173H272.525V163.102H273.701V166.738H273.797C274.139 165.973 274.809 165.48 275.984 165.48C277.502 165.48 278.514 166.383 278.514 168.283V173H277.338V168.365C277.338 167.203 276.695 166.533 275.629 166.533C274.521 166.533 273.701 167.258 273.701 168.543ZM285.09 168.543V173H283.914V163.102H285.09V166.738H285.186C285.527 165.973 286.197 165.48 287.373 165.48C288.891 165.48 289.902 166.383 289.902 168.283V173H288.727V168.365C288.727 167.203 288.084 166.533 287.018 166.533C285.91 166.533 285.09 167.258 285.09 168.543ZM298.898 165.029C298.898 166.123 298.577 166.923 297.736 167.244C298.03 167.832 298.188 168.529 298.188 169.322C298.188 171.633 296.834 173.15 294.824 173.15C292.801 173.15 291.434 171.633 291.434 169.322C291.434 167.012 292.801 165.48 294.824 165.48C295.822 165.48 296.663 165.856 297.258 166.52C297.75 166.321 297.832 165.768 297.832 165.029H298.898ZM294.824 172.111C296.314 172.111 297.012 170.799 297.012 169.322C297.012 167.846 296.314 166.52 294.824 166.52C293.307 166.52 292.609 167.846 292.609 169.322C292.609 170.799 293.307 172.111 294.824 172.111ZM294.879 175.461C294.428 175.461 294.059 175.119 294.059 174.682C294.059 174.244 294.428 173.902 294.879 173.902C295.33 173.902 295.713 174.244 295.713 174.682C295.713 175.119 295.33 175.461 294.879 175.461ZM299.732 175.789V165.576H300.867V166.752H301.004C301.25 166.355 301.715 165.48 303.15 165.48C305.01 165.48 306.309 166.957 306.309 169.309C306.309 171.66 305.01 173.15 303.164 173.15C301.742 173.15 301.25 172.275 301.004 171.865H300.908V175.789H299.732ZM300.881 169.281C300.881 170.949 301.633 172.098 303 172.098C304.408 172.098 305.133 170.867 305.133 169.281C305.133 167.736 304.422 166.533 303 166.533C301.605 166.533 300.881 167.641 300.881 169.281ZM317.465 165.576L314.717 173H313.5L310.766 165.576H312.051L314.074 171.469H314.156L316.18 165.576H317.465ZM325.6 165.029C325.6 166.123 325.278 166.923 324.438 167.244C324.731 167.832 324.889 168.529 324.889 169.322C324.889 171.633 323.535 173.15 321.525 173.15C319.502 173.15 318.135 171.633 318.135 169.322C318.135 167.012 319.502 165.48 321.525 165.48C322.523 165.48 323.364 165.856 323.959 166.52C324.451 166.321 324.533 165.768 324.533 165.029H325.6ZM321.525 172.111C323.016 172.111 323.713 170.799 323.713 169.322C323.713 167.846 323.016 166.52 321.525 166.52C320.008 166.52 319.311 167.846 319.311 169.322C319.311 170.799 320.008 172.111 321.525 172.111ZM321.006 164.564L322.182 162.322H323.535L322.018 164.564H321.006ZM326.434 173V165.576H327.609V173H326.434ZM327.021 164.346C326.57 164.346 326.201 164.004 326.201 163.566C326.201 163.129 326.57 162.787 327.021 162.787C327.473 162.787 327.855 163.129 327.855 163.566C327.855 164.004 327.473 164.346 327.021 164.346ZM129.094 193V183.102H130.27V186.752H130.365C130.625 186.355 131.062 185.48 132.512 185.48C134.371 185.48 135.684 186.957 135.684 189.309C135.684 191.66 134.371 193.15 132.525 193.15C131.104 193.15 130.625 192.275 130.365 191.865H130.229V193H129.094ZM130.242 189.281C130.242 190.949 130.994 192.098 132.348 192.098C133.756 192.098 134.494 190.867 134.494 189.281C134.494 187.736 133.783 186.533 132.348 186.533C130.98 186.533 130.242 187.641 130.242 189.281ZM140.141 195.461C139.689 195.461 139.32 195.119 139.32 194.682C139.32 194.244 139.689 193.902 140.141 193.902C140.592 193.902 140.975 194.244 140.975 194.682C140.975 195.119 140.592 195.461 140.141 195.461ZM136.859 190.895C136.859 189.186 138.363 188.803 139.648 188.707C140.12 188.673 141.323 188.611 141.658 188.598V187.996C141.658 187.053 141.098 186.506 139.977 186.506C139.033 186.506 138.473 186.943 138.309 187.504H137.078C137.229 186.314 138.391 185.48 140.031 185.48C141.002 185.48 142.82 185.768 142.82 188.105V193H141.658V191.988H141.604C141.357 192.494 140.674 193.178 139.389 193.178C137.98 193.178 136.859 192.344 136.859 190.895ZM138.035 190.949C138.035 191.729 138.691 192.125 139.594 192.125C140.92 192.125 141.658 191.236 141.658 190.307V189.555L139.785 189.691C138.719 189.76 138.035 190.143 138.035 190.949ZM145.883 188.543V193H144.707V185.576H145.842V186.738H145.938C146.293 185.986 146.977 185.48 148.111 185.48C149.615 185.48 150.613 186.396 150.613 188.283V193H149.438V188.365C149.438 187.217 148.809 186.533 147.756 186.533C146.676 186.533 145.883 187.258 145.883 188.543ZM157.189 188.543V193H156.014V185.576H157.148V186.738H157.244C157.6 185.986 158.283 185.48 159.418 185.48C160.922 185.48 161.92 186.396 161.92 188.283V193H160.744V188.365C160.744 187.217 160.115 186.533 159.062 186.533C157.982 186.533 157.189 187.258 157.189 188.543ZM166.924 193.15C164.777 193.15 163.451 191.633 163.451 189.35C163.451 187.066 164.791 185.48 166.814 185.48C168.373 185.48 170.014 186.438 170.014 189.186V189.678H164.627C164.682 191.25 165.598 192.111 166.924 192.111C167.812 192.111 168.373 191.729 168.646 191.264H169.904C169.549 192.385 168.455 193.15 166.924 193.15ZM166.254 184.564L164.75 182.322H166.117L167.279 184.564H166.254ZM164.641 188.68H168.824C168.824 187.436 168.031 186.52 166.814 186.52C165.529 186.52 164.709 187.531 164.641 188.68Z" fill="white"/>
<path d="M0 232C0 223.163 7.16344 216 16 216H226C234.837 216 242 223.163 242 232V300C242 308.837 234.837 316 226 316H16C7.16344 316 0 308.837 0 300V232Z" fill="#456565"/>
<path d="M24.5938 249L25.0312 246.348H22.7207L22.2832 249H21.1074L21.5449 246.348H20.123L20.3008 245.186H21.7363L22.1055 242.916H20.6973L20.875 241.74H22.3105L22.7344 239.102H23.9102L23.4863 241.74H25.7969L26.2207 239.102H27.3828L26.959 241.74H28.3945L28.2031 242.916H26.7676L26.3984 245.186H27.8203L27.6152 246.348H26.207L25.7695 249H24.5938ZM22.9121 245.186H25.2227L25.5918 242.916H23.2812L22.9121 245.186ZM32.7285 249H29.5156V239.102H32.8242C35.7363 239.102 37.4863 240.961 37.4863 244.037C37.4863 247.127 35.7363 249 32.7285 249ZM31.0195 247.688H32.6465C34.8887 247.688 35.9961 246.375 35.9961 244.037C35.9961 241.713 34.8887 240.414 32.7285 240.414H31.0195V247.688ZM39.0586 249V241.576H40.5215V249H39.0586ZM39.7969 240.428C39.291 240.428 38.8672 240.045 38.8672 239.566C38.8672 239.088 39.291 238.705 39.7969 238.705C40.2891 238.705 40.7129 239.088 40.7129 239.566C40.7129 240.045 40.2891 240.428 39.7969 240.428ZM39.8789 251.557C39.373 251.557 38.9492 251.174 38.9492 250.695C38.9492 250.217 39.373 249.834 39.8789 249.834C40.3711 249.834 40.7949 250.217 40.7949 250.695C40.7949 251.174 40.3711 251.557 39.8789 251.557ZM47.0156 245.91V241.576H48.4648V249H47.043V247.715H46.9609C46.6191 248.508 45.8535 249.096 44.7461 249.096C43.3105 249.096 42.2988 248.139 42.2988 246.293V241.576H43.7617V246.115C43.7617 247.127 44.377 247.77 45.2656 247.77C46.0723 247.77 47.0156 247.182 47.0156 245.91ZM56.4355 249.15C54.6445 249.15 53.332 247.701 53.332 245.309C53.332 242.889 54.6582 241.48 56.4492 241.48C57.8301 241.48 58.3359 242.314 58.5957 242.779H58.6641V239.102H60.127V249H58.7051V247.838H58.5957C58.3223 248.33 57.7891 249.15 56.4355 249.15ZM56.7637 247.906C58.0078 247.906 58.7051 246.84 58.7051 245.281C58.7051 243.736 58.0215 242.725 56.7637 242.725C55.4648 242.725 54.8223 243.818 54.8223 245.281C54.8223 246.771 55.4922 247.906 56.7637 247.906ZM64.4883 240.578L62.9844 238.35H64.5293L65.6504 240.578H64.4883ZM61.6855 246.908C61.6855 245.213 63.1211 244.775 64.4609 244.68C64.9531 244.646 66.0674 244.584 66.416 244.57L66.4023 243.982C66.4023 243.148 65.8965 242.656 64.8984 242.656C64.0371 242.656 63.5176 243.053 63.3672 243.6H61.918C62.0547 242.369 63.2031 241.48 64.9531 241.48C66.1289 241.48 67.8652 241.918 67.8652 244.064V249H66.4434V247.988H66.3887C66.1016 248.549 65.418 249.164 64.1875 249.164C62.7793 249.164 61.6855 248.357 61.6855 246.908ZM63.1074 246.922C63.1074 247.633 63.6953 248.002 64.5156 248.002C65.7051 248.002 66.416 247.209 66.416 246.32V245.637L64.666 245.76C63.709 245.828 63.1074 246.184 63.1074 246.922ZM71.0918 244.598V249H69.6289V241.576H71.0371V242.793H71.1191C71.4746 242 72.1992 241.48 73.3066 241.48C74.8379 241.48 75.8359 242.438 75.8359 244.283V249H74.3867V244.461C74.3867 243.381 73.7988 242.738 72.8145 242.738C71.8164 242.738 71.0918 243.408 71.0918 244.598ZM80.7305 251.939C78.8574 251.939 77.627 251.105 77.4902 249.725H78.9805C79.1172 250.422 79.7734 250.764 80.7441 250.764C81.9062 250.764 82.6445 250.271 82.6445 249.109V247.646H82.5488C82.2891 248.125 81.7559 248.891 80.3887 248.891C78.6387 248.891 77.2852 247.578 77.2852 245.213C77.2852 242.848 78.6113 241.48 80.4023 241.48C81.7832 241.48 82.2891 242.314 82.5625 242.779H82.6582V241.576H84.0801V249.164C84.0801 251.064 82.6445 251.939 80.7305 251.939ZM80.7168 247.688C81.9609 247.688 82.6582 246.771 82.6582 245.24C82.6582 243.736 81.9746 242.725 80.7168 242.725C79.418 242.725 78.7754 243.818 78.7754 245.24C78.7754 246.689 79.4453 247.688 80.7168 247.688Z" fill="white"/>
<path d="M97.5938 249L98.0312 246.348H95.7207L95.2832 249H94.1074L94.5449 246.348H93.123L93.3008 245.186H94.7363L95.1055 242.916H93.6973L93.875 241.74H95.3105L95.7344 239.102H96.9102L96.4863 241.74H98.7969L99.2207 239.102H100.383L99.959 241.74H101.395L101.203 242.916H99.7676L99.3984 245.186H100.82L100.615 246.348H99.207L98.7695 249H97.5938ZM95.9121 245.186H98.2227L98.5918 242.916H96.2812L95.9121 245.186ZM102.023 240.4V239.102H109.693V240.4H106.617V249H105.113V240.4H102.023ZM110.322 249V241.576H111.73V242.752H111.812C112.086 241.959 112.824 241.467 113.699 241.467C113.877 241.467 114.164 241.48 114.314 241.494V242.889C114.191 242.861 113.85 242.807 113.549 242.807C112.537 242.807 111.785 243.504 111.785 244.475V249H110.322ZM114.984 246.908C114.984 245.213 116.42 244.775 117.76 244.68C118.252 244.646 119.366 244.584 119.715 244.57L119.701 243.982C119.701 243.148 119.195 242.656 118.197 242.656C117.336 242.656 116.816 243.053 116.666 243.6H115.217C115.354 242.369 116.502 241.48 118.252 241.48C119.428 241.48 121.164 241.918 121.164 244.064V249H119.742V247.988H119.688C119.4 248.549 118.717 249.164 117.486 249.164C116.078 249.164 114.984 248.357 114.984 246.908ZM116.406 246.922C116.406 247.633 116.994 248.002 117.814 248.002C119.004 248.002 119.715 247.209 119.715 246.32V245.637L117.965 245.76C117.008 245.828 116.406 246.184 116.406 246.922ZM124.391 244.598V249H122.928V241.576H124.336V242.793H124.418C124.773 242 125.498 241.48 126.605 241.48C128.137 241.48 129.135 242.438 129.135 244.283V249H127.686V244.461C127.686 243.381 127.098 242.738 126.113 242.738C125.115 242.738 124.391 243.408 124.391 244.598ZM134.029 251.939C132.156 251.939 130.926 251.105 130.789 249.725H132.279C132.416 250.422 133.072 250.764 134.043 250.764C135.205 250.764 135.943 250.271 135.943 249.109V247.646H135.848C135.588 248.125 135.055 248.891 133.688 248.891C131.938 248.891 130.584 247.578 130.584 245.213C130.584 242.848 131.91 241.48 133.701 241.48C135.082 241.48 135.588 242.314 135.861 242.779H135.957V241.576H137.379V249.164C137.379 251.064 135.943 251.939 134.029 251.939ZM134.016 247.688C135.26 247.688 135.957 246.771 135.957 245.24C135.957 243.736 135.273 242.725 134.016 242.725C132.717 242.725 132.074 243.818 132.074 245.24C132.074 246.689 132.744 247.688 134.016 247.688ZM144.037 244.598V249H142.574V241.576H143.982V242.793H144.064C144.42 242 145.145 241.48 146.252 241.48C147.783 241.48 148.781 242.438 148.781 244.283V249H147.332V244.461C147.332 243.381 146.744 242.738 145.76 242.738C144.762 242.738 144.037 243.408 144.037 244.598ZM152.021 244.598V249H150.559V239.102H151.994V242.793H152.09C152.445 241.986 153.129 241.48 154.291 241.48C155.822 241.48 156.834 242.424 156.834 244.283V249H155.371V244.461C155.371 243.367 154.783 242.738 153.799 242.738C152.773 242.738 152.021 243.408 152.021 244.598ZM159.186 240.646C159.186 239.58 159.855 238.883 160.703 238.883C161.496 238.883 161.824 239.539 162.467 239.539C162.836 239.539 163.096 239.225 163.096 238.801L164.053 238.855C164.053 239.936 163.396 240.592 162.549 240.592C161.633 240.592 161.469 239.949 160.771 239.949C160.416 239.949 160.17 240.264 160.17 240.674L159.186 240.646ZM158.256 246.908C158.256 245.213 159.691 244.775 161.031 244.68C161.523 244.646 162.638 244.584 162.986 244.57L162.973 243.982C162.973 243.148 162.467 242.656 161.469 242.656C160.607 242.656 160.088 243.053 159.938 243.6H158.488C158.625 242.369 159.773 241.48 161.523 241.48C162.699 241.48 164.436 241.918 164.436 244.064V249H163.014V247.988H162.959C162.672 248.549 161.988 249.164 160.758 249.164C159.35 249.164 158.256 248.357 158.256 246.908ZM159.678 246.922C159.678 247.633 160.266 248.002 161.086 248.002C162.275 248.002 162.986 247.209 162.986 246.32V245.637L161.236 245.76C160.279 245.828 159.678 246.184 159.678 246.922Z" fill="white"/>
<path d="M21.0938 271V261.102H24.5664C26.6445 261.102 27.6152 262.264 27.6152 263.727C27.6152 264.998 26.8633 265.572 26.002 265.805V265.9C26.918 265.955 28.0117 266.803 28.0117 268.375C28.0117 269.865 27.0273 271 24.6895 271H21.0938ZM24.6758 269.906C26.2207 269.906 26.8223 269.223 26.8223 268.361C26.8223 267.35 26.0156 266.502 24.7441 266.502H22.3242V269.906H24.6758ZM24.5254 265.436C25.5918 265.436 26.4395 264.779 26.4395 263.74C26.4395 262.879 25.8652 262.195 24.5664 262.195H22.3242V265.436H24.5254ZM32.5371 273.461C32.0859 273.461 31.7168 273.119 31.7168 272.682C31.7168 272.244 32.0859 271.902 32.5371 271.902C32.9883 271.902 33.3711 272.244 33.3711 272.682C33.3711 273.119 32.9883 273.461 32.5371 273.461ZM29.2559 268.895C29.2559 267.186 30.7598 266.803 32.0449 266.707C32.5166 266.673 33.7197 266.611 34.0547 266.598V265.996C34.0547 265.053 33.4941 264.506 32.373 264.506C31.4297 264.506 30.8691 264.943 30.7051 265.504H29.4746C29.625 264.314 30.7871 263.48 32.4277 263.48C33.3984 263.48 35.2168 263.768 35.2168 266.105V271H34.0547V269.988H34C33.7539 270.494 33.0703 271.178 31.7852 271.178C30.377 271.178 29.2559 270.344 29.2559 268.895ZM30.4316 268.949C30.4316 269.729 31.0879 270.125 31.9902 270.125C33.3164 270.125 34.0547 269.236 34.0547 268.307V267.555L32.1816 267.691C31.1152 267.76 30.4316 268.143 30.4316 268.949ZM38.2793 266.543V271H37.1035V263.576H38.2383V264.738H38.334C38.6895 263.986 39.373 263.48 40.5078 263.48C42.0117 263.48 43.0098 264.396 43.0098 266.283V271H41.834V266.365C41.834 265.217 41.2051 264.533 40.1523 264.533C39.0723 264.533 38.2793 265.258 38.2793 266.543ZM49.5859 266.543V271H48.4102V263.576H49.5449V264.738H49.6406C49.9961 263.986 50.6797 263.48 51.8145 263.48C53.3184 263.48 54.3164 264.396 54.3164 266.283V271H53.1406V266.365C53.1406 265.217 52.5117 264.533 51.459 264.533C50.3789 264.533 49.5859 265.258 49.5859 266.543ZM59.3203 271.15C57.1738 271.15 55.8477 269.633 55.8477 267.35C55.8477 265.066 57.1875 263.48 59.2109 263.48C60.7695 263.48 62.4102 264.438 62.4102 267.186V267.678H57.0234C57.0781 269.25 57.9941 270.111 59.3203 270.111C60.209 270.111 60.7695 269.729 61.043 269.264H62.3008C61.9453 270.385 60.8516 271.15 59.3203 271.15ZM60.1406 262.688L59.1289 261.348L58.1309 262.688H57.0098V262.605L58.5957 260.596H59.6621L61.248 262.605V262.688H60.1406ZM57.0371 266.68H61.2207C61.2207 265.436 60.4277 264.52 59.2109 264.52C57.9258 264.52 57.1055 265.531 57.0371 266.68ZM65.1172 266.543V271H63.9414V263.576H65.0762V264.738H65.1719C65.5273 263.986 66.2109 263.48 67.3457 263.48C68.8496 263.48 69.8477 264.396 69.8477 266.283V271H68.6719V266.365C68.6719 265.217 68.043 264.533 66.9902 264.533C65.9102 264.533 65.1172 265.258 65.1172 266.543ZM78.2832 271.15C76.1777 271.15 74.8926 269.551 74.8926 267.322C74.8926 265.066 76.2324 263.48 78.2559 263.48C79.8418 263.48 81.0176 264.41 81.209 265.818H80.0332C79.8691 265.135 79.2676 264.52 78.2832 264.52C76.957 264.52 76.0684 265.613 76.0684 267.281C76.0684 269.004 76.9297 270.098 78.2832 270.098C79.1582 270.098 79.8281 269.633 80.0332 268.812H81.209C81.0176 270.139 79.9375 271.15 78.2832 271.15ZM83.834 266.543V271H82.6582V261.102H83.834V264.738H83.9297C84.2715 263.973 84.9414 263.48 86.1172 263.48C87.6348 263.48 88.6465 264.383 88.6465 266.283V271H87.4707V266.365C87.4707 265.203 86.8281 264.533 85.7617 264.533C84.6543 264.533 83.834 265.258 83.834 266.543ZM93.5684 271.15C91.5449 271.15 90.1777 269.633 90.1777 267.322C90.1777 265.012 91.5449 263.48 93.5684 263.48C95.5781 263.48 96.9316 265.012 96.9316 267.322C96.9316 269.633 95.5781 271.15 93.5684 271.15ZM93.5684 270.111C95.0586 270.111 95.7559 268.799 95.7559 267.322C95.7559 265.846 95.0586 264.52 93.5684 264.52C92.0508 264.52 91.3535 265.846 91.3535 267.322C91.3535 268.799 92.0508 270.111 93.5684 270.111ZM93.623 273.461C93.1719 273.461 92.8027 273.119 92.8027 272.682C92.8027 272.244 93.1719 271.902 93.623 271.902C94.0742 271.902 94.457 272.244 94.457 272.682C94.457 273.119 94.0742 273.461 93.623 273.461ZM99.6523 266.543V271H98.4766V263.576H99.6113V264.738H99.707C100.062 263.986 100.746 263.48 101.881 263.48C103.385 263.48 104.383 264.396 104.383 266.283V271H103.207V266.365C103.207 265.217 102.578 264.533 101.525 264.533C100.445 264.533 99.6523 265.258 99.6523 266.543ZM110.959 266.543V271H109.783V263.576H110.918V264.738H111.014C111.369 263.986 112.053 263.48 113.188 263.48C114.691 263.48 115.689 264.396 115.689 266.283V271H114.514V266.365C114.514 265.217 113.885 264.533 112.832 264.533C111.752 264.533 110.959 265.258 110.959 266.543ZM118.752 266.543V271H117.576V261.102H118.752V264.738H118.848C119.189 263.973 119.859 263.48 121.035 263.48C122.553 263.48 123.564 264.383 123.564 266.283V271H122.389V266.365C122.389 265.203 121.746 264.533 120.68 264.533C119.572 264.533 118.752 265.258 118.752 266.543ZM133.189 263.248C133.189 264.622 132.766 265.367 131.303 265.463V271H130.141V269.742H130.059C129.703 270.494 128.979 271.096 127.857 271.096C126.449 271.096 125.451 270.18 125.451 268.293V263.576H126.627V268.211C126.627 269.277 127.297 269.961 128.24 269.961C129.074 269.961 130.141 269.332 130.141 267.951V263.576H131.303V264.67C132.157 264.581 132.178 264.137 132.178 263.248H133.189ZM125.998 262.646C125.998 261.648 126.654 260.951 127.475 260.951C128.227 260.951 128.555 261.566 129.238 261.566C129.607 261.566 129.895 261.252 129.895 260.842L130.783 260.91C130.783 261.936 130.127 262.564 129.293 262.564C128.404 262.564 128.268 261.949 127.543 261.949C127.174 261.949 126.914 262.277 126.914 262.688L125.998 262.646ZM134.926 266.543V271H133.75V263.576H134.885V264.738H134.98C135.336 263.986 136.02 263.48 137.154 263.48C138.658 263.48 139.656 264.396 139.656 266.283V271H138.48V266.365C138.48 265.217 137.852 264.533 136.799 264.533C135.719 264.533 134.926 265.258 134.926 266.543ZM144.551 273.939C142.76 273.939 141.543 273.16 141.406 271.779H142.637C142.801 272.531 143.498 272.914 144.551 272.914C145.822 272.914 146.602 272.367 146.602 271.137V269.633H146.506C146.26 270.043 145.781 270.891 144.346 270.891C142.541 270.891 141.188 269.523 141.188 267.186C141.188 264.902 142.5 263.48 144.359 263.48C145.795 263.48 146.26 264.355 146.533 264.752H146.629V263.576H147.777V271.205C147.777 273.119 146.355 273.939 144.551 273.939ZM144.51 269.838C145.863 269.838 146.629 268.867 146.629 267.227C146.629 265.641 145.891 264.533 144.51 264.533C143.088 264.533 142.377 265.736 142.377 267.227C142.377 268.771 143.102 269.838 144.51 269.838ZM153.164 271V263.576H154.299V264.738H154.395C154.709 263.945 155.42 263.48 156.391 263.48C157.361 263.48 158.018 263.945 158.373 264.738H158.455C158.838 263.973 159.617 263.48 160.684 263.48C162.01 263.48 162.953 264.287 162.953 266.037V271H161.777V266.051C161.777 264.957 161.08 264.533 160.273 264.533C159.234 264.533 158.646 265.23 158.646 266.174V271H157.457V265.928C157.457 265.094 156.855 264.533 156.008 264.533C155.119 264.533 154.34 265.285 154.34 266.365V271H153.164ZM164.484 268.895C164.484 267.186 165.988 266.803 167.273 266.707C167.745 266.673 168.948 266.611 169.283 266.598V265.996C169.283 265.053 168.723 264.506 167.602 264.506C166.658 264.506 166.098 264.943 165.934 265.504H164.703C164.854 264.314 166.016 263.48 167.656 263.48C168.627 263.48 170.445 263.768 170.445 266.105V271H169.283V269.988H169.229C168.982 270.494 168.299 271.178 167.014 271.178C165.605 271.178 164.484 270.344 164.484 268.895ZM165.66 268.949C165.66 269.729 166.316 270.125 167.219 270.125C168.545 270.125 169.283 269.236 169.283 268.307V267.555L167.41 267.691C166.344 267.76 165.66 268.143 165.66 268.949ZM172.332 271V261.102H173.508V266.857H173.645L176.857 263.576H178.307L175.176 266.748L178.539 271H177.049L174.301 267.5L173.508 268.225V271H172.332ZM182.367 271.15C180.221 271.15 178.895 269.633 178.895 267.35C178.895 265.066 180.234 263.48 182.258 263.48C183.816 263.48 185.457 264.438 185.457 267.186V267.678H180.07C180.125 269.25 181.041 270.111 182.367 270.111C183.256 270.111 183.816 269.729 184.09 269.264H185.348C184.992 270.385 183.898 271.15 182.367 271.15ZM180.084 266.68H184.268C184.268 265.436 183.475 264.52 182.258 264.52C180.973 264.52 180.152 265.531 180.084 266.68ZM191.678 267.951V263.576H192.84V271H191.678V269.742H191.596C191.24 270.494 190.516 271.096 189.395 271.096C187.986 271.096 186.988 270.18 186.988 268.293V263.576H188.164V268.211C188.164 269.277 188.834 269.961 189.777 269.961C190.611 269.961 191.678 269.332 191.678 267.951ZM194.727 273.789V263.576H195.861V264.752H195.998C196.244 264.355 196.709 263.48 198.145 263.48C200.004 263.48 201.303 264.957 201.303 267.309C201.303 269.66 200.004 271.15 198.158 271.15C196.736 271.15 196.244 270.275 195.998 269.865H195.902V273.789H194.727ZM195.875 267.281C195.875 268.949 196.627 270.098 197.994 270.098C199.402 270.098 200.127 268.867 200.127 267.281C200.127 265.736 199.416 264.533 197.994 264.533C196.6 264.533 195.875 265.641 195.875 267.281ZM22.1191 281.102V291H20.9434V281.102H22.1191ZM27.0273 291.15C25.0039 291.15 23.6367 289.633 23.6367 287.322C23.6367 285.012 25.0039 283.48 27.0273 283.48C29.0371 283.48 30.3906 285.012 30.3906 287.322C30.3906 289.633 29.0371 291.15 27.0273 291.15ZM27.0273 290.111C28.5176 290.111 29.2148 288.799 29.2148 287.322C29.2148 285.846 28.5176 284.52 27.0273 284.52C25.5098 284.52 24.8125 285.846 24.8125 287.322C24.8125 288.799 25.5098 290.111 27.0273 290.111ZM34.9707 291.15C32.9473 291.15 31.5801 289.633 31.5801 287.322C31.5801 285.012 32.9473 283.48 34.9707 283.48C36.9805 283.48 38.334 285.012 38.334 287.322C38.334 289.633 36.9805 291.15 34.9707 291.15ZM34.9707 290.111C36.4609 290.111 37.1582 288.799 37.1582 287.322C37.1582 285.846 36.4609 284.52 34.9707 284.52C33.4531 284.52 32.7559 285.846 32.7559 287.322C32.7559 288.799 33.4531 290.111 34.9707 290.111ZM39.8789 291V281.102H41.0547V286.857H41.1914L44.4043 283.576H45.8535L42.7227 286.748L46.0859 291H44.5957L41.8477 287.5L41.0547 288.225V291H39.8789ZM50.625 291V281.102H51.8008V286.857H51.9375L55.1504 283.576H56.5996L53.4688 286.748L56.832 291H55.3418L52.5938 287.5L51.8008 288.225V291H50.625ZM59.0332 286.543V291H57.8574V281.102H59.0332V284.738H59.1289C59.4707 283.973 60.1406 283.48 61.3164 283.48C62.834 283.48 63.8457 284.383 63.8457 286.283V291H62.6699V286.365C62.6699 285.203 62.0273 284.533 60.9609 284.533C59.8535 284.533 59.0332 285.258 59.0332 286.543ZM68.7676 291.15C66.7441 291.15 65.377 289.633 65.377 287.322C65.377 285.012 66.7441 283.48 68.7676 283.48C70.7773 283.48 72.1309 285.012 72.1309 287.322C72.1309 289.633 70.7773 291.15 68.7676 291.15ZM68.7676 290.111C70.2578 290.111 70.9551 288.799 70.9551 287.322C70.9551 285.846 70.2578 284.52 68.7676 284.52C67.25 284.52 66.5527 285.846 66.5527 287.322C66.5527 288.799 67.25 290.111 68.7676 290.111ZM68.248 282.564L69.4238 280.322H70.7773L69.2598 282.564H68.248ZM73.6758 291V283.576H74.8516V291H73.6758ZM74.2637 282.346C73.8125 282.346 73.4434 282.004 73.4434 281.566C73.4434 281.129 73.8125 280.787 74.2637 280.787C74.7148 280.787 75.0977 281.129 75.0977 281.566C75.0977 282.004 74.7148 282.346 74.2637 282.346ZM81.4141 286.543V291H80.2383V283.576H81.373V284.738H81.4688C81.8242 283.986 82.5078 283.48 83.6426 283.48C85.1465 283.48 86.1445 284.396 86.1445 286.283V291H84.9688V286.365C84.9688 285.217 84.3398 284.533 83.2871 284.533C82.207 284.533 81.4141 285.258 81.4141 286.543ZM89.207 286.543V291H88.0312V281.102H89.207V284.738H89.3027C89.6445 283.973 90.3145 283.48 91.4902 283.48C93.0078 283.48 94.0195 284.383 94.0195 286.283V291H92.8438V286.365C92.8438 285.203 92.2012 284.533 91.1348 284.533C90.0273 284.533 89.207 285.258 89.207 286.543ZM95.5508 288.895C95.5508 287.186 97.0547 286.803 98.3398 286.707C98.8115 286.673 100.015 286.611 100.35 286.598V285.996C100.35 285.053 99.7891 284.506 98.668 284.506C97.7246 284.506 97.1641 284.943 97 285.504H95.7695C95.9199 284.314 97.082 283.48 98.7227 283.48C99.6934 283.48 101.512 283.768 101.512 286.105V291H100.35V289.988H100.295C100.049 290.494 99.3652 291.178 98.0801 291.178C96.6719 291.178 95.5508 290.344 95.5508 288.895ZM96.7266 288.949C96.7266 289.729 97.3828 290.125 98.2852 290.125C99.6113 290.125 100.35 289.236 100.35 288.307V287.555L98.4766 287.691C97.4102 287.76 96.7266 288.143 96.7266 288.949ZM104.232 291.082C103.754 291.082 103.344 290.686 103.357 290.193C103.344 289.715 103.754 289.318 104.232 289.318C104.711 289.318 105.107 289.715 105.107 290.193C105.107 290.686 104.711 291.082 104.232 291.082Z" fill="white"/>
<circle cx="300" cy="228" r="12" fill="#D9CE5F"/>
<circle cx="300" cy="304" r="12" fill="#5E8EBF"/>
<circle cx="281" cy="233.092" r="12" transform="rotate(-30 281 233.092)" fill="#D9B05F"/>
<circle cx="319" cy="298.91" r="12" transform="rotate(-30 319 298.91)" fill="#8EA5BD"/>
<circle cx="267.091" cy="247.001" r="12" transform="rotate(-60 267.091 247.001)" fill="#D9885F"/>
<circle cx="332.909" cy="285" r="12" transform="rotate(-60 332.909 285)" fill="#8CAEAE"/>
<circle cx="262" cy="266.001" r="12" transform="rotate(-90 262 266.001)" fill="#D95F5F"/>
<circle cx="338" cy="266.001" r="12" transform="rotate(-90 338 266.001)" fill="#5FA6A6"/>
<circle cx="267.091" cy="285" r="12" transform="rotate(-120 267.091 285)" fill="#C88D97"/>
<circle cx="332.909" cy="247.001" r="12" transform="rotate(-120 332.909 247.001)" fill="#5EAE6B"/>
<circle cx="281" cy="298.908" r="12" transform="rotate(-150 281 298.908)" fill="#965FCC"/>
<circle cx="319" cy="233.091" r="12" transform="rotate(-150 319 233.091)" fill="#B8C18C"/>
</svg>
