<svg width="350" height="316" viewBox="0 0 350 316" fill="none" xmlns="http://www.w3.org/2000/svg">
<path d="M0 16C0 7.16345 7.16344 0 16 0H226C234.837 0 242 7.16344 242 16V84C242 92.8366 234.837 100 226 100H16C7.16344 100 0 92.8366 0 84V16Z" fill="#BFD1F7"/>
<path d="M31.7812 44.5938C31.5938 42.6562 29.9375 41.5312 27.5 41.5312C24.9375 41.5312 23.375 42.7812 23.375 44.4688C23.375 46.375 25.375 47.1562 27.25 47.5938L29.375 48.1562C32.75 48.9375 36 50.7188 36 54.6562C36 58.625 32.875 61.3438 27.4375 61.3438C22.1562 61.3438 18.8438 58.8125 18.6562 54.3438H22.6562C22.8438 56.7188 24.8438 57.875 27.4062 57.875C30.0938 57.875 31.9375 56.5625 31.9375 54.625C31.9375 52.8438 30.2812 52.0938 27.8438 51.4688L25.2812 50.8125C21.5625 49.8438 19.25 47.9688 19.25 44.7188C19.25 40.7188 22.8125 38.0625 27.5625 38.0625C32.375 38.0625 35.625 40.7812 35.6875 44.5938H31.7812ZM50.0312 53.875V44.0312H54V61H50.1562V58H49.9688C49.1875 59.875 47.4062 61.2188 44.875 61.2188C41.5312 61.2188 39.2188 58.9062 39.1875 54.8438V44.0312H43.1875V54.2188C43.1875 56.375 44.4688 57.75 46.4062 57.75C48.1562 57.75 50.0312 56.4688 50.0312 53.875ZM57.8125 61V44.0312H61.625V46.9062H61.8438C62.5312 44.9688 64.25 43.8125 66.5 43.8125C68.8125 43.8125 70.4375 44.9688 71.0938 46.9062H71.2812C72.0312 45.0312 73.9062 43.8125 76.375 43.8125C79.4688 43.8125 81.6562 45.8125 81.6562 49.5938V61H77.6875V50.2188C77.6875 48.0938 76.4062 47.1562 74.7812 47.1562C72.8125 47.1562 71.6875 48.5 71.6875 50.4062V61H67.8125V50.0625C67.8125 48.3125 66.625 47.1562 64.9375 47.1562C63.2188 47.1562 61.8125 48.5625 61.8125 50.6875V61H57.8125ZM85.4688 61V44.0312H89.2812V46.9062H89.5C90.1875 44.9688 91.9062 43.8125 94.1562 43.8125C96.4688 43.8125 98.0938 44.9688 98.75 46.9062H98.9375C99.6875 45.0312 101.562 43.8125 104.031 43.8125C107.125 43.8125 109.312 45.8125 109.312 49.5938V61H105.344V50.2188C105.344 48.0938 104.062 47.1562 102.438 47.1562C100.469 47.1562 99.3438 48.5 99.3438 50.4062V61H95.4688V50.0625C95.4688 48.3125 94.2812 47.1562 92.5938 47.1562C90.875 47.1562 89.4688 48.5625 89.4688 50.6875V61H85.4688ZM120.656 61.3438C115.531 61.3438 112.406 57.9375 112.406 52.625C112.406 47.375 115.594 43.8125 120.438 43.8125C124.594 43.8125 128.188 46.4062 128.188 52.375V53.625H116.344C116.391 56.5156 118.094 58.2188 120.688 58.2188C122.438 58.2188 123.625 57.4688 124.125 56.4688H128.031C127.312 59.4062 124.594 61.3438 120.656 61.3438ZM116.375 50.9062H124.375C124.344 48.5938 122.812 46.9062 120.5 46.9062C118.094 46.9062 116.5 48.7344 116.375 50.9062ZM131.281 61V44.0312H135.156V46.8438H135.344C135.938 44.9062 137.594 43.7812 139.531 43.7812C139.969 43.7812 140.594 43.8125 140.969 43.875V47.5625C140.625 47.4375 139.781 47.3125 139.125 47.3125C136.906 47.3125 135.281 48.8438 135.281 51V61H131.281ZM151.125 61V38.375H155.188V57.5625H165.188V61H151.125ZM168.25 61V44.0312H172.25V61H168.25ZM170.281 41.625C169.031 41.625 167.969 40.6562 167.969 39.4375C167.969 38.25 169.031 37.2812 170.281 37.2812C171.562 37.2812 172.594 38.25 172.594 39.4375C172.594 40.6562 171.562 41.625 170.281 41.625ZM183.469 67.7188C178.969 67.7188 176.125 65.7188 175.844 62.5312H179.812C180.094 64 181.5 64.7188 183.531 64.7188C185.906 64.7188 187.469 63.6875 187.469 61.1875V57.9375H187.281C186.656 59.1875 185.312 60.75 182.375 60.75C178.469 60.75 175.375 57.9062 175.375 52.375C175.375 46.7812 178.469 43.8125 182.406 43.8125C185.406 43.8125 186.656 45.5938 187.281 46.8125H187.469V44.0312H191.406V61.2812C191.406 65.625 188.062 67.7188 183.469 67.7188ZM183.469 57.625C186.031 57.625 187.5 55.6875 187.5 52.4375C187.5 49.2188 186.062 47.0625 183.469 47.0625C180.812 47.0625 179.438 49.3438 179.438 52.4375C179.438 55.5625 180.844 57.625 183.469 57.625ZM199.219 51.0625V61H195.219V38.375H199.125V46.9062H199.344C200.125 45 201.75 43.8125 204.375 43.8125C207.906 43.8125 210.219 46.0938 210.219 50.1875V61H206.25V50.8125C206.25 48.5 205 47.1875 202.906 47.1875C200.75 47.1875 199.219 48.5938 199.219 51.0625ZM222.469 44.0312V47.0938H219.125V55.9062C219.125 57.5312 219.938 57.875 220.938 57.875C221.406 57.875 222.188 57.8438 222.688 57.8125V61.0625C222.219 61.1562 221.438 61.2188 220.438 61.2188C217.438 61.2188 215.125 59.75 215.156 56.5625V47.0938H212.719V44.0312H215.156V39.9688H219.125V44.0312H222.469Z" fill="#FFFFBF"/>
<path d="M250 16C250 7.16345 257.163 0 266 0H334C342.837 0 350 7.16344 350 16V84C350 92.8366 342.837 100 334 100H266C257.163 100 250 92.8366 250 84V16Z" fill="#FFFFBF"/>
<path d="M282.828 70.3662H317.172C319.766 70.3662 321.875 68.2568 321.875 65.6631V56.2881C321.875 54.5693 320.484 53.1631 318.75 53.1631H281.25C279.531 53.1631 278.125 54.5537 278.125 56.2881V65.6631C278.125 68.2725 280.234 70.3662 282.828 70.3662Z" fill="#FFCF80"/>
<path d="M318.75 51.6162H281.25C279.531 51.6162 278.125 53.0068 278.125 54.7412V57.8662H321.859V54.7412C321.859 53.0225 320.469 51.6162 318.75 51.6162Z" fill="#67DAFF"/>
<path d="M312.891 35.8975L286.125 62.6631C285.813 62.9756 285.813 63.4756 286.125 63.7881C286.438 64.1006 286.938 64.1006 287.25 63.7881L314.016 37.0225C314.328 36.71 314.328 36.21 314.016 35.8975C313.703 35.585 313.203 35.585 312.891 35.8975Z" fill="#7D4533"/>
<path d="M310.656 63.9755C311.844 65.163 313.703 65.2567 314.594 64.1005C320.687 56.1317 320.047 44.6317 312.703 37.288C305.359 29.9442 293.828 29.288 285.859 35.3817C284.703 36.2567 284.797 38.1161 285.984 39.3036L287.172 40.4911L304.641 45.3036L309.453 62.7724L310.656 63.9755Z" fill="#FF4644"/>
<path d="M309.438 62.7725C317.375 54.835 318.813 43.4288 312.656 37.2725C306.5 31.1163 295.109 32.5538 287.172 40.4913L309.438 62.7725Z" fill="#F4F4F4"/>
<path d="M303.859 57.1789C311.797 49.2414 315.734 40.3195 312.656 37.257C309.578 34.1945 300.672 38.132 292.734 46.0695L303.859 57.1789Z" fill="#FF4644"/>
<circle cx="50" cy="120" r="12" fill="#FFFFBF"/>
<circle cx="50" cy="195.999" r="12" fill="#BFBFFF"/>
<circle cx="31.0002" cy="125.091" r="12" transform="rotate(-30 31.0002 125.091)" fill="#F9BFD2"/>
<circle cx="69.0002" cy="190.909" r="12" transform="rotate(-30 69.0002 190.909)" fill="#BFC9FA"/>
<circle cx="17.091" cy="139" r="12" transform="rotate(-60 17.091 139)" fill="#F7BFDB"/>
<circle cx="82.9089" cy="177" r="12" transform="rotate(-60 82.9089 177)" fill="#BFD1F7"/>
<circle cx="12" cy="158.001" r="12" transform="rotate(-90 12 158.001)" fill="#F5BFE7"/>
<circle cx="88" cy="158.001" r="12" transform="rotate(-90 88 158.001)" fill="#BFE7DA"/>
<circle cx="17.091" cy="177" r="12" transform="rotate(-120 17.091 177)" fill="#F1BFF1"/>
<circle cx="82.9089" cy="139" r="12" transform="rotate(-120 82.9089 139)" fill="#BFE9CC"/>
<circle cx="30.9998" cy="190.908" r="12" transform="rotate(-150 30.9998 190.908)" fill="#E4BFF7"/>
<circle cx="68.9998" cy="125.091" r="12" transform="rotate(-150 68.9998 125.091)" fill="#DBFAC9"/>
<path d="M108 124C108 115.163 115.163 108 124 108H334C342.837 108 350 115.163 350 124V192C350 200.837 342.837 208 334 208H124C115.163 208 108 200.837 108 192V124Z" fill="#BFE7DA"/>
<path d="M132.594 143L133.031 140.348H130.721L130.283 143H129.107L129.545 140.348H128.123L128.301 139.186H129.736L130.105 136.916H128.697L128.875 135.74H130.311L130.734 133.102H131.91L131.486 135.74H133.797L134.221 133.102H135.383L134.959 135.74H136.395L136.203 136.916H134.768L134.398 139.186H135.82L135.615 140.348H134.207L133.77 143H132.594ZM130.912 139.186H133.223L133.592 136.916H131.281L130.912 139.186ZM137.516 143V133.102H141.043C143.34 133.102 144.475 134.482 144.475 136.314C144.475 138.133 143.34 139.527 141.043 139.527H139.02V143H137.516ZM139.02 138.242H140.893C142.355 138.242 142.957 137.422 142.957 136.314C142.957 135.193 142.355 134.387 140.893 134.387H139.02V138.242ZM145.527 140.908C145.527 139.213 146.963 138.775 148.303 138.68C148.795 138.646 149.909 138.584 150.258 138.57L150.244 137.982C150.244 137.148 149.738 136.656 148.74 136.656C147.879 136.656 147.359 137.053 147.209 137.6H145.76C145.896 136.369 147.045 135.48 148.795 135.48C149.971 135.48 151.707 135.918 151.707 138.064V143H150.285V141.988H150.23C149.943 142.549 149.26 143.164 148.029 143.164C146.621 143.164 145.527 142.357 145.527 140.908ZM146.949 140.922C146.949 141.633 147.537 142.002 148.357 142.002C149.547 142.002 150.258 141.209 150.258 140.32V139.637L148.508 139.76C147.551 139.828 146.949 140.184 146.949 140.922ZM154.934 133.102V143H153.471V133.102H154.934ZM159.91 143.15C157.723 143.15 156.383 141.646 156.383 139.336C156.383 137.053 157.75 135.48 159.814 135.48C161.51 135.48 163.109 136.533 163.109 139.213V139.732H157.832C157.873 141.141 158.7 141.947 159.924 141.947C160.758 141.947 161.291 141.592 161.537 141.141H163.014C162.686 142.344 161.537 143.15 159.91 143.15ZM157.846 138.639H161.674C161.674 137.504 160.949 136.684 159.828 136.684C158.659 136.684 157.9 137.586 157.846 138.639Z" fill="#111111"/>
<path d="M176.594 143L177.031 140.348H174.721L174.283 143H173.107L173.545 140.348H172.123L172.301 139.186H173.736L174.105 136.916H172.697L172.875 135.74H174.311L174.734 133.102H175.91L175.486 135.74H177.797L178.221 133.102H179.383L178.959 135.74H180.395L180.203 136.916H178.768L178.398 139.186H179.82L179.615 140.348H178.207L177.77 143H176.594ZM174.912 139.186H177.223L177.592 136.916H175.281L174.912 139.186ZM181.516 143V133.102H183.02V141.701H187.49V143H181.516ZM188.912 143V135.576H190.375V143H188.912ZM189.65 134.428C189.145 134.428 188.721 134.045 188.721 133.566C188.721 133.088 189.145 132.705 189.65 132.705C190.143 132.705 190.566 133.088 190.566 133.566C190.566 134.045 190.143 134.428 189.65 134.428ZM195.27 145.939C193.396 145.939 192.166 145.105 192.029 143.725H193.52C193.656 144.422 194.312 144.764 195.283 144.764C196.445 144.764 197.184 144.271 197.184 143.109V141.646H197.088C196.828 142.125 196.295 142.891 194.928 142.891C193.178 142.891 191.824 141.578 191.824 139.213C191.824 136.848 193.15 135.48 194.941 135.48C196.322 135.48 196.828 136.314 197.102 136.779H197.197V135.576H198.619V143.164C198.619 145.064 197.184 145.939 195.27 145.939ZM195.256 141.688C196.5 141.688 197.197 140.771 197.197 139.24C197.197 137.736 196.514 136.725 195.256 136.725C193.957 136.725 193.314 137.818 193.314 139.24C193.314 140.689 193.984 141.688 195.256 141.688ZM201.859 138.598V143H200.396V133.102H201.832V136.793H201.928C202.283 135.986 202.967 135.48 204.129 135.48C205.66 135.48 206.672 136.424 206.672 138.283V143H205.209V138.461C205.209 137.367 204.621 136.738 203.637 136.738C202.611 136.738 201.859 137.408 201.859 138.598ZM211.908 135.576V136.738H210.391V140.812C210.391 141.646 210.814 141.797 211.279 141.811C211.484 141.811 211.812 141.783 212.018 141.77V143.041C211.812 143.068 211.498 143.096 211.102 143.096C209.953 143.096 208.928 142.467 208.941 141.113V136.738H207.848V135.576H208.941V133.799H210.391V135.576H211.908Z" fill="#111111"/>
<path d="M129.545 153.102L132.457 161.4H132.566L135.492 153.102H136.791L133.168 163H131.869L128.246 153.102H129.545ZM144.379 155.029C144.379 156.123 144.058 156.923 143.217 157.244C143.511 157.832 143.668 158.529 143.668 159.322C143.668 161.633 142.314 163.15 140.305 163.15C138.281 163.15 136.914 161.633 136.914 159.322C136.914 157.012 138.281 155.48 140.305 155.48C141.303 155.48 142.144 155.856 142.738 156.52C143.23 156.321 143.312 155.768 143.312 155.029H144.379ZM140.305 162.111C141.795 162.111 142.492 160.799 142.492 159.322C142.492 157.846 141.795 156.52 140.305 156.52C138.787 156.52 138.09 157.846 138.09 159.322C138.09 160.799 138.787 162.111 140.305 162.111ZM139.785 154.564L140.961 152.322H142.314L140.797 154.564H139.785ZM145.213 163V155.576H146.389V163H145.213ZM145.801 154.346C145.35 154.346 144.98 154.004 144.98 153.566C144.98 153.129 145.35 152.787 145.801 152.787C146.252 152.787 146.635 153.129 146.635 153.566C146.635 154.004 146.252 154.346 145.801 154.346ZM154.578 163.15C152.732 163.15 151.42 161.66 151.42 159.309C151.42 156.957 152.732 155.48 154.592 155.48C156.027 155.48 156.492 156.355 156.738 156.752H156.82V154.934H154.797V154.031H156.82V153.102H158.01V154.031H159.076V154.934H158.01V163H156.861V161.865H156.738C156.479 162.275 156 163.15 154.578 163.15ZM154.742 162.098C156.096 162.098 156.861 160.949 156.861 159.281C156.861 157.641 156.123 156.533 154.742 156.533C153.32 156.533 152.609 157.736 152.609 159.281C152.609 160.867 153.334 162.098 154.742 162.098ZM163.082 163.15C161.059 163.15 159.691 161.633 159.691 159.322C159.691 157.012 161.059 155.48 163.082 155.48C165.092 155.48 166.445 157.012 166.445 159.322C166.445 161.633 165.092 163.15 163.082 163.15ZM163.082 162.111C164.572 162.111 165.27 160.799 165.27 159.322C165.27 157.846 164.572 156.52 163.082 156.52C161.564 156.52 160.867 157.846 160.867 159.322C160.867 160.799 161.564 162.111 163.082 162.111ZM164.08 154.688L163.068 153.348L162.07 154.688H160.949V154.605L162.535 152.596H163.602L165.188 154.605V154.688H164.08ZM163.137 165.461C162.686 165.461 162.316 165.119 162.316 164.682C162.316 164.244 162.686 163.902 163.137 163.902C163.588 163.902 163.971 164.244 163.971 164.682C163.971 165.119 163.588 165.461 163.137 165.461ZM175.633 157.504C175.469 156.889 175.004 156.479 174.129 156.479C173.213 156.479 172.557 156.971 172.557 157.6C172.557 158.092 172.953 158.434 173.828 158.639L174.936 158.912C176.262 159.227 176.918 159.883 176.918 160.922C176.918 162.207 175.865 163.15 174.006 163.15C172.338 163.15 171.34 162.412 171.148 161.059H172.379C172.516 161.783 173.049 162.125 173.979 162.125C175.031 162.125 175.701 161.688 175.701 160.99C175.701 160.471 175.332 160.115 174.484 159.924L173.363 159.664C172.064 159.363 171.381 158.652 171.381 157.668C171.381 156.396 172.488 155.48 174.129 155.48C175.66 155.48 176.631 156.301 176.781 157.504H175.633ZM180.869 154.564L182.045 152.322H183.398L181.881 154.564H180.869ZM178.094 160.895C178.094 159.186 179.598 158.803 180.883 158.707C181.354 158.673 182.558 158.611 182.893 158.598V157.996C182.893 157.053 182.332 156.506 181.211 156.506C180.268 156.506 179.707 156.943 179.543 157.504H178.312C178.463 156.314 179.625 155.48 181.266 155.48C182.236 155.48 184.055 155.768 184.055 158.105V163H182.893V161.988H182.838C182.592 162.494 181.908 163.178 180.623 163.178C179.215 163.178 178.094 162.344 178.094 160.895ZM179.27 160.949C179.27 161.729 179.926 162.125 180.828 162.125C182.154 162.125 182.893 161.236 182.893 160.307V159.555L181.02 159.691C179.953 159.76 179.27 160.143 179.27 160.949ZM187.117 158.543V163H185.941V155.576H187.076V156.738H187.172C187.527 155.986 188.211 155.48 189.346 155.48C190.85 155.48 191.848 156.396 191.848 158.283V163H190.672V158.365C190.672 157.217 190.043 156.533 188.99 156.533C187.91 156.533 187.117 157.258 187.117 158.543ZM196.742 165.939C194.951 165.939 193.734 165.16 193.598 163.779H194.828C194.992 164.531 195.689 164.914 196.742 164.914C198.014 164.914 198.793 164.367 198.793 163.137V161.633H198.697C198.451 162.043 197.973 162.891 196.537 162.891C194.732 162.891 193.379 161.523 193.379 159.186C193.379 156.902 194.691 155.48 196.551 155.48C197.986 155.48 198.451 156.355 198.725 156.752H198.82V155.576H199.969V163.205C199.969 165.119 198.547 165.939 196.742 165.939ZM196.701 161.838C198.055 161.838 198.82 160.867 198.82 159.227C198.82 157.641 198.082 156.533 196.701 156.533C195.279 156.533 194.568 157.736 194.568 159.227C194.568 160.771 195.293 161.838 196.701 161.838ZM208.391 163.15C206.285 163.15 205 161.551 205 159.322C205 157.066 206.34 155.48 208.363 155.48C209.949 155.48 211.125 156.41 211.316 157.818H210.141C209.977 157.135 209.375 156.52 208.391 156.52C207.064 156.52 206.176 157.613 206.176 159.281C206.176 161.004 207.037 162.098 208.391 162.098C209.266 162.098 209.936 161.633 210.141 160.812H211.316C211.125 162.139 210.045 163.15 208.391 163.15ZM212.41 160.895C212.41 159.186 213.914 158.803 215.199 158.707C215.671 158.673 216.874 158.611 217.209 158.598V157.996C217.209 157.053 216.648 156.506 215.527 156.506C214.584 156.506 214.023 156.943 213.859 157.504H212.629C212.779 156.314 213.941 155.48 215.582 155.48C216.553 155.48 218.371 155.768 218.371 158.105V163H217.209V161.988H217.154C216.908 162.494 216.225 163.178 214.939 163.178C213.531 163.178 212.41 162.344 212.41 160.895ZM213.586 160.949C213.586 161.729 214.242 162.125 215.145 162.125C216.471 162.125 217.209 161.236 217.209 160.307V159.555L215.336 159.691C214.27 159.76 213.586 160.143 213.586 160.949ZM223.293 163.15C221.27 163.15 219.902 161.633 219.902 159.322C219.902 157.012 221.27 155.48 223.293 155.48C225.303 155.48 226.656 157.012 226.656 159.322C226.656 161.633 225.303 163.15 223.293 163.15ZM223.293 162.111C224.783 162.111 225.48 160.799 225.48 159.322C225.48 157.846 224.783 156.52 223.293 156.52C221.775 156.52 221.078 157.846 221.078 159.322C221.078 160.799 221.775 162.111 223.293 162.111ZM229.746 162.084L228.68 165.803H227.668L228.42 162.084H229.746ZM238.305 165.939C236.514 165.939 235.297 165.16 235.16 163.779H236.391C236.555 164.531 237.252 164.914 238.305 164.914C239.576 164.914 240.355 164.367 240.355 163.137V161.633H240.26C240.014 162.043 239.535 162.891 238.1 162.891C236.295 162.891 234.941 161.523 234.941 159.186C234.941 156.902 236.254 155.48 238.113 155.48C239.549 155.48 240.014 156.355 240.287 156.752H240.383V155.576H241.531V163.205C241.531 165.119 240.109 165.939 238.305 165.939ZM238.264 161.838C239.617 161.838 240.383 160.867 240.383 159.227C240.383 157.641 239.645 156.533 238.264 156.533C236.842 156.533 236.131 157.736 236.131 159.227C236.131 160.771 236.855 161.838 238.264 161.838ZM243.049 160.895C243.049 159.186 244.553 158.803 245.838 158.707C246.31 158.673 247.513 158.611 247.848 158.598V157.996C247.848 157.053 247.287 156.506 246.166 156.506C245.223 156.506 244.662 156.943 244.498 157.504H243.268C243.418 156.314 244.58 155.48 246.221 155.48C247.191 155.48 249.01 155.768 249.01 158.105V163H247.848V161.988H247.793C247.547 162.494 246.863 163.178 245.578 163.178C244.17 163.178 243.049 162.344 243.049 160.895ZM244.225 160.949C244.225 161.729 244.881 162.125 245.783 162.125C247.109 162.125 247.848 161.236 247.848 160.307V159.555L245.975 159.691C244.908 159.76 244.225 160.143 244.225 160.949ZM250.896 163V155.576H252.031V156.738H252.127C252.441 155.945 253.152 155.48 254.123 155.48C255.094 155.48 255.75 155.945 256.105 156.738H256.188C256.57 155.973 257.35 155.48 258.416 155.48C259.742 155.48 260.686 156.287 260.686 158.037V163H259.51V158.051C259.51 156.957 258.812 156.533 258.006 156.533C256.967 156.533 256.379 157.23 256.379 158.174V163H255.189V157.928C255.189 157.094 254.588 156.533 253.74 156.533C252.852 156.533 252.072 157.285 252.072 158.365V163H250.896ZM266.086 165.789V155.576H267.221V156.752H267.357C267.604 156.355 268.068 155.48 269.504 155.48C271.363 155.48 272.662 156.957 272.662 159.309C272.662 161.66 271.363 163.15 269.518 163.15C268.096 163.15 267.604 162.275 267.357 161.865H267.262V165.789H266.086ZM267.234 159.281C267.234 160.949 267.986 162.098 269.354 162.098C270.762 162.098 271.486 160.867 271.486 159.281C271.486 157.736 270.775 156.533 269.354 156.533C267.959 156.533 267.234 157.641 267.234 159.281ZM273.838 160.895C273.838 159.186 275.342 158.803 276.627 158.707C277.099 158.673 278.302 158.611 278.637 158.598V157.996C278.637 157.053 278.076 156.506 276.955 156.506C276.012 156.506 275.451 156.943 275.287 157.504H274.057C274.207 156.314 275.369 155.48 277.01 155.48C277.98 155.48 279.799 155.768 279.799 158.105V163H278.637V161.988H278.582C278.336 162.494 277.652 163.178 276.367 163.178C274.959 163.178 273.838 162.344 273.838 160.895ZM275.014 160.949C275.014 161.729 275.67 162.125 276.572 162.125C277.898 162.125 278.637 161.236 278.637 160.307V159.555L276.764 159.691C275.697 159.76 275.014 160.143 275.014 160.949ZM285.814 157.504C285.65 156.889 285.186 156.479 284.311 156.479C283.395 156.479 282.738 156.971 282.738 157.6C282.738 158.092 283.135 158.434 284.01 158.639L285.117 158.912C286.443 159.227 287.1 159.883 287.1 160.922C287.1 162.207 286.047 163.15 284.188 163.15C282.52 163.15 281.521 162.412 281.33 161.059H282.561C282.697 161.783 283.23 162.125 284.16 162.125C285.213 162.125 285.883 161.688 285.883 160.99C285.883 160.471 285.514 160.115 284.666 159.924L283.545 159.664C282.246 159.363 281.562 158.652 281.562 157.668C281.562 156.396 282.67 155.48 284.311 155.48C285.842 155.48 286.812 156.301 286.963 157.504H285.814ZM291.871 155.576V156.561H290.312V160.867C290.312 161.824 290.777 161.975 291.283 161.975C291.502 161.975 291.803 161.961 291.98 161.947V163.041C291.803 163.068 291.502 163.096 291.16 163.096C290.176 163.096 289.123 162.48 289.123 161.168V156.561H288.002V155.576H289.123V153.799H290.312V155.576H291.871ZM296.424 163.15C294.277 163.15 292.951 161.633 292.951 159.35C292.951 157.066 294.291 155.48 296.314 155.48C297.873 155.48 299.514 156.438 299.514 159.186V159.678H294.127C294.182 161.25 295.098 162.111 296.424 162.111C297.312 162.111 297.873 161.729 298.146 161.264H299.404C299.049 162.385 297.955 163.15 296.424 163.15ZM294.141 158.68H298.324C298.324 157.436 297.531 156.52 296.314 156.52C295.029 156.52 294.209 157.531 294.141 158.68ZM302.221 153.102V163H301.045V153.102H302.221ZM130.119 173.102V183H128.943V173.102H130.119ZM134.918 185.461C134.467 185.461 134.098 185.119 134.098 184.682C134.098 184.244 134.467 183.902 134.918 183.902C135.369 183.902 135.752 184.244 135.752 184.682C135.752 185.119 135.369 185.461 134.918 185.461ZM131.637 180.895C131.637 179.186 133.141 178.803 134.426 178.707C134.897 178.673 136.101 178.611 136.436 178.598V177.996C136.436 177.053 135.875 176.506 134.754 176.506C133.811 176.506 133.25 176.943 133.086 177.504H131.855C132.006 176.314 133.168 175.48 134.809 175.48C135.779 175.48 137.598 175.768 137.598 178.105V183H136.436V181.988H136.381C136.135 182.494 135.451 183.178 134.166 183.178C132.758 183.178 131.637 182.344 131.637 180.895ZM132.812 180.949C132.812 181.729 133.469 182.125 134.371 182.125C135.697 182.125 136.436 181.236 136.436 180.307V179.555L134.562 179.691C133.496 179.76 132.812 180.143 132.812 180.949ZM140.66 178.543V183H139.484V175.576H140.619V176.738H140.715C141.07 175.986 141.754 175.48 142.889 175.48C144.393 175.48 145.391 176.396 145.391 178.283V183H144.215V178.365C144.215 177.217 143.586 176.533 142.533 176.533C141.453 176.533 140.66 177.258 140.66 178.543ZM148.453 178.543V183H147.277V173.102H148.453V176.738H148.549C148.891 175.973 149.561 175.48 150.736 175.48C152.254 175.48 153.266 176.383 153.266 178.283V183H152.09V178.365C152.09 177.203 151.447 176.533 150.381 176.533C149.273 176.533 148.453 177.258 148.453 178.543ZM162.795 177.504C162.631 176.889 162.166 176.479 161.291 176.479C160.375 176.479 159.719 176.971 159.719 177.6C159.719 178.092 160.115 178.434 160.99 178.639L162.098 178.912C163.424 179.227 164.08 179.883 164.08 180.922C164.08 182.207 163.027 183.15 161.168 183.15C159.5 183.15 158.502 182.412 158.311 181.059H159.541C159.678 181.783 160.211 182.125 161.141 182.125C162.193 182.125 162.863 181.688 162.863 180.99C162.863 180.471 162.494 180.115 161.646 179.924L160.525 179.664C159.227 179.363 158.543 178.652 158.543 177.668C158.543 176.396 159.65 175.48 161.291 175.48C162.822 175.48 163.793 176.301 163.943 177.504H162.795ZM168.729 183.15C166.582 183.15 165.256 181.633 165.256 179.35C165.256 177.066 166.596 175.48 168.619 175.48C170.178 175.48 171.818 176.438 171.818 179.186V179.678H166.432C166.486 181.25 167.402 182.111 168.729 182.111C169.617 182.111 170.178 181.729 170.451 181.264H171.709C171.354 182.385 170.26 183.15 168.729 183.15ZM166.158 174.646C166.158 173.648 166.814 172.951 167.635 172.951C168.387 172.951 168.715 173.566 169.398 173.566C169.768 173.566 170.055 173.252 170.055 172.842L170.943 172.91C170.943 173.936 170.287 174.564 169.453 174.564C168.564 174.564 168.428 173.949 167.703 173.949C167.334 173.949 167.074 174.277 167.074 174.688L166.158 174.646ZM166.445 178.68H170.629C170.629 177.436 169.836 176.52 168.619 176.52C167.334 176.52 166.514 177.531 166.445 178.68ZM178.039 178.543V183H176.863V173.102H178.039V176.738H178.135C178.477 175.973 179.146 175.48 180.322 175.48C181.84 175.48 182.852 176.383 182.852 178.283V183H181.676V178.365C181.676 177.203 181.033 176.533 179.967 176.533C178.859 176.533 178.039 177.258 178.039 178.543ZM191.848 175.029C191.848 176.123 191.526 176.923 190.686 177.244C190.979 177.832 191.137 178.529 191.137 179.322C191.137 181.633 189.783 183.15 187.773 183.15C185.75 183.15 184.383 181.633 184.383 179.322C184.383 177.012 185.75 175.48 187.773 175.48C188.771 175.48 189.612 175.856 190.207 176.52C190.699 176.321 190.781 175.768 190.781 175.029H191.848ZM187.773 182.111C189.264 182.111 189.961 180.799 189.961 179.322C189.961 177.846 189.264 176.52 187.773 176.52C186.256 176.52 185.559 177.846 185.559 179.322C185.559 180.799 186.256 182.111 187.773 182.111ZM187.828 185.461C187.377 185.461 187.008 185.119 187.008 184.682C187.008 184.244 187.377 183.902 187.828 183.902C188.279 183.902 188.662 184.244 188.662 184.682C188.662 185.119 188.279 185.461 187.828 185.461ZM192.682 185.789V175.576H193.816V176.752H193.953C194.199 176.355 194.664 175.48 196.1 175.48C197.959 175.48 199.258 176.957 199.258 179.309C199.258 181.66 197.959 183.15 196.113 183.15C194.691 183.15 194.199 182.275 193.953 181.865H193.857V185.789H192.682ZM193.83 179.281C193.83 180.949 194.582 182.098 195.949 182.098C197.357 182.098 198.082 180.867 198.082 179.281C198.082 177.736 197.371 176.533 195.949 176.533C194.555 176.533 193.83 177.641 193.83 179.281ZM210.414 175.576L207.666 183H206.449L203.715 175.576H205L207.023 181.469H207.105L209.129 175.576H210.414ZM218.549 175.029C218.549 176.123 218.228 176.923 217.387 177.244C217.681 177.832 217.838 178.529 217.838 179.322C217.838 181.633 216.484 183.15 214.475 183.15C212.451 183.15 211.084 181.633 211.084 179.322C211.084 177.012 212.451 175.48 214.475 175.48C215.473 175.48 216.313 175.856 216.908 176.52C217.4 176.321 217.482 175.768 217.482 175.029H218.549ZM214.475 182.111C215.965 182.111 216.662 180.799 216.662 179.322C216.662 177.846 215.965 176.52 214.475 176.52C212.957 176.52 212.26 177.846 212.26 179.322C212.26 180.799 212.957 182.111 214.475 182.111ZM213.955 174.564L215.131 172.322H216.484L214.967 174.564H213.955ZM219.383 183V175.576H220.559V183H219.383ZM219.971 174.346C219.52 174.346 219.15 174.004 219.15 173.566C219.15 173.129 219.52 172.787 219.971 172.787C220.422 172.787 220.805 173.129 220.805 173.566C220.805 174.004 220.422 174.346 219.971 174.346ZM226.096 183V173.102H227.271V176.752H227.367C227.627 176.355 228.064 175.48 229.514 175.48C231.373 175.48 232.686 176.957 232.686 179.309C232.686 181.66 231.373 183.15 229.527 183.15C228.105 183.15 227.627 182.275 227.367 181.865H227.23V183H226.096ZM227.244 179.281C227.244 180.949 227.996 182.098 229.35 182.098C230.758 182.098 231.496 180.867 231.496 179.281C231.496 177.736 230.785 176.533 229.35 176.533C227.982 176.533 227.244 177.641 227.244 179.281ZM237.143 185.461C236.691 185.461 236.322 185.119 236.322 184.682C236.322 184.244 236.691 183.902 237.143 183.902C237.594 183.902 237.977 184.244 237.977 184.682C237.977 185.119 237.594 185.461 237.143 185.461ZM233.861 180.895C233.861 179.186 235.365 178.803 236.65 178.707C237.122 178.673 238.325 178.611 238.66 178.598V177.996C238.66 177.053 238.1 176.506 236.979 176.506C236.035 176.506 235.475 176.943 235.311 177.504H234.08C234.23 176.314 235.393 175.48 237.033 175.48C238.004 175.48 239.822 175.768 239.822 178.105V183H238.66V181.988H238.605C238.359 182.494 237.676 183.178 236.391 183.178C234.982 183.178 233.861 182.344 233.861 180.895ZM235.037 180.949C235.037 181.729 235.693 182.125 236.596 182.125C237.922 182.125 238.66 181.236 238.66 180.307V179.555L236.787 179.691C235.721 179.76 235.037 180.143 235.037 180.949ZM242.885 178.543V183H241.709V175.576H242.844V176.738H242.939C243.295 175.986 243.979 175.48 245.113 175.48C246.617 175.48 247.615 176.396 247.615 178.283V183H246.439V178.365C246.439 177.217 245.811 176.533 244.758 176.533C243.678 176.533 242.885 177.258 242.885 178.543ZM255.818 183.15C253.973 183.15 252.66 181.66 252.66 179.309C252.66 176.957 253.973 175.48 255.832 175.48C257.268 175.48 257.732 176.355 257.979 176.752H258.061V174.934H256.037V174.031H258.061V173.102H259.25V174.031H260.316V174.934H259.25V183H258.102V181.865H257.979C257.719 182.275 257.24 183.15 255.818 183.15ZM255.982 182.098C257.336 182.098 258.102 180.949 258.102 179.281C258.102 177.641 257.363 176.533 255.982 176.533C254.561 176.533 253.85 177.736 253.85 179.281C253.85 180.867 254.574 182.098 255.982 182.098ZM264.322 183.15C262.299 183.15 260.932 181.633 260.932 179.322C260.932 177.012 262.299 175.48 264.322 175.48C266.332 175.48 267.686 177.012 267.686 179.322C267.686 181.633 266.332 183.15 264.322 183.15ZM264.322 182.111C265.812 182.111 266.51 180.799 266.51 179.322C266.51 177.846 265.812 176.52 264.322 176.52C262.805 176.52 262.107 177.846 262.107 179.322C262.107 180.799 262.805 182.111 264.322 182.111ZM263.803 174.564L264.979 172.322H266.332L264.814 174.564H263.803ZM270.064 183.082C269.586 183.082 269.176 182.686 269.189 182.193C269.176 181.715 269.586 181.318 270.064 181.318C270.543 181.318 270.939 181.715 270.939 182.193C270.939 182.686 270.543 183.082 270.064 183.082Z" fill="#2C2C2C"/>
<path d="M0 232C0 223.163 7.16344 216 16 216H226C234.837 216 242 223.163 242 232V300C242 308.837 234.837 316 226 316H16C7.16344 316 0 308.837 0 300V232Z" fill="#E4BFF7"/>
<path d="M24.5938 251L25.0312 248.348H22.7207L22.2832 251H21.1074L21.5449 248.348H20.123L20.3008 247.186H21.7363L22.1055 244.916H20.6973L20.875 243.74H22.3105L22.7344 241.102H23.9102L23.4863 243.74H25.7969L26.2207 241.102H27.3828L26.959 243.74H28.3945L28.2031 244.916H26.7676L26.3984 247.186H27.8203L27.6152 248.348H26.207L25.7695 251H24.5938ZM22.9121 247.186H25.2227L25.5918 244.916H23.2812L22.9121 247.186ZM29.0234 242.4V241.102H36.6934V242.4H33.6172V251H32.1133V242.4H29.0234ZM36.748 248.908C36.748 247.213 38.1836 246.775 39.5234 246.68C40.0156 246.646 41.1299 246.584 41.4785 246.57L41.4648 245.982C41.4648 245.148 40.959 244.656 39.9609 244.656C39.0996 244.656 38.5801 245.053 38.4297 245.6H36.9805C37.1172 244.369 38.2656 243.48 40.0156 243.48C41.1914 243.48 42.9277 243.918 42.9277 246.064V251H41.5059V249.988H41.4512C41.1641 250.549 40.4805 251.164 39.25 251.164C37.8418 251.164 36.748 250.357 36.748 248.908ZM38.1699 248.922C38.1699 249.633 38.7578 250.002 39.5781 250.002C40.7676 250.002 41.4785 249.209 41.4785 248.32V247.637L39.7285 247.76C38.7715 247.828 38.1699 248.184 38.1699 248.922ZM47.8359 251.15C45.7305 251.15 44.3633 249.619 44.3633 247.322C44.3633 245.012 45.7305 243.48 47.8359 243.48C49.9277 243.48 51.2949 245.012 51.2949 247.322C51.2949 249.619 49.9277 251.15 47.8359 251.15ZM47.8359 249.934C49.1758 249.934 49.8184 248.744 49.8184 247.322C49.8184 245.9 49.1758 244.684 47.8359 244.684C46.4688 244.684 45.8262 245.9 45.8262 247.322C45.8262 248.744 46.4688 249.934 47.8359 249.934ZM57.6113 246.598V251H56.1484V243.576H57.5566V244.793H57.6387C57.9941 244 58.7188 243.48 59.8262 243.48C61.3574 243.48 62.3555 244.438 62.3555 246.283V251H60.9062V246.461C60.9062 245.381 60.3184 244.738 59.334 244.738C58.3359 244.738 57.6113 245.408 57.6113 246.598ZM65.5957 246.598V251H64.1328V241.102H65.5684V244.793H65.6641C66.0195 243.986 66.7031 243.48 67.8652 243.48C69.3965 243.48 70.4082 244.424 70.4082 246.283V251H68.9453V246.461C68.9453 245.367 68.3574 244.738 67.373 244.738C66.3477 244.738 65.5957 245.408 65.5957 246.598ZM72.7598 242.646C72.7598 241.58 73.4297 240.883 74.2773 240.883C75.0703 240.883 75.3984 241.539 76.041 241.539C76.4102 241.539 76.6699 241.225 76.6699 240.801L77.627 240.855C77.627 241.936 76.9707 242.592 76.123 242.592C75.207 242.592 75.043 241.949 74.3457 241.949C73.9902 241.949 73.7441 242.264 73.7441 242.674L72.7598 242.646ZM71.8301 248.908C71.8301 247.213 73.2656 246.775 74.6055 246.68C75.0977 246.646 76.2119 246.584 76.5605 246.57L76.5469 245.982C76.5469 245.148 76.041 244.656 75.043 244.656C74.1816 244.656 73.6621 245.053 73.5117 245.6H72.0625C72.1992 244.369 73.3477 243.48 75.0977 243.48C76.2734 243.48 78.0098 243.918 78.0098 246.064V251H76.5879V249.988H76.5332C76.2461 250.549 75.5625 251.164 74.332 251.164C72.9238 251.164 71.8301 250.357 71.8301 248.908ZM73.252 248.922C73.252 249.633 73.8398 250.002 74.6602 250.002C75.8496 250.002 76.5605 249.209 76.5605 248.32V247.637L74.8105 247.76C73.8535 247.828 73.252 248.184 73.252 248.922Z" fill="#111111"/>
<path d="M91.5938 251L92.0312 248.348H89.7207L89.2832 251H88.1074L88.5449 248.348H87.123L87.3008 247.186H88.7363L89.1055 244.916H87.6973L87.875 243.74H89.3105L89.7344 241.102H90.9102L90.4863 243.74H92.7969L93.2207 241.102H94.3828L93.959 243.74H95.3945L95.2031 244.916H93.7676L93.3984 247.186H94.8203L94.6152 248.348H93.207L92.7695 251H91.5938ZM89.9121 247.186H92.2227L92.5918 244.916H90.2812L89.9121 247.186ZM96.0234 242.4V241.102H103.693V242.4H100.617V251H99.1133V242.4H96.0234ZM106.564 246.598V251H105.102V241.102H106.537V244.793H106.633C106.988 243.986 107.672 243.48 108.834 243.48C110.365 243.48 111.377 244.424 111.377 246.283V251H109.914V246.461C109.914 245.367 109.326 244.738 108.342 244.738C107.316 244.738 106.564 245.408 106.564 246.598ZM112.799 248.908C112.799 247.213 114.234 246.775 115.574 246.68C116.066 246.646 117.181 246.584 117.529 246.57L117.516 245.982C117.516 245.148 117.01 244.656 116.012 244.656C115.15 244.656 114.631 245.053 114.48 245.6H113.031C113.168 244.369 114.316 243.48 116.066 243.48C117.242 243.48 118.979 243.918 118.979 246.064V251H117.557V249.988H117.502C117.215 250.549 116.531 251.164 115.301 251.164C113.893 251.164 112.799 250.357 112.799 248.908ZM114.221 248.922C114.221 249.633 114.809 250.002 115.629 250.002C116.818 250.002 117.529 249.209 117.529 248.32V247.637L115.779 247.76C114.822 247.828 114.221 248.184 114.221 248.922ZM122.205 246.598V251H120.742V243.576H122.15V244.793H122.232C122.588 244 123.312 243.48 124.42 243.48C125.951 243.48 126.949 244.438 126.949 246.283V251H125.5V246.461C125.5 245.381 124.912 244.738 123.928 244.738C122.93 244.738 122.205 245.408 122.205 246.598ZM130.189 246.598V251H128.727V241.102H130.162V244.793H130.258C130.613 243.986 131.297 243.48 132.459 243.48C133.99 243.48 135.002 244.424 135.002 246.283V251H133.539V246.461C133.539 245.367 132.951 244.738 131.967 244.738C130.941 244.738 130.189 245.408 130.189 246.598ZM141.646 241.102V251H140.184V241.102H141.646ZM143.424 251V243.576H144.887V251H143.424ZM144.162 242.428C143.656 242.428 143.232 242.045 143.232 241.566C143.232 241.088 143.656 240.705 144.162 240.705C144.654 240.705 145.078 241.088 145.078 241.566C145.078 242.045 144.654 242.428 144.162 242.428ZM144.244 253.557C143.738 253.557 143.314 253.174 143.314 252.695C143.314 252.217 143.738 251.834 144.244 251.834C144.736 251.834 145.16 252.217 145.16 252.695C145.16 253.174 144.736 253.557 144.244 253.557ZM149.809 251.15C147.648 251.15 146.336 249.551 146.336 247.322C146.336 245.053 147.689 243.48 149.781 243.48C151.477 243.48 152.707 244.479 152.857 245.982H151.436C151.285 245.285 150.725 244.697 149.809 244.697C148.605 244.697 147.799 245.695 147.799 247.281C147.799 248.908 148.592 249.906 149.809 249.906C150.629 249.906 151.258 249.455 151.436 248.648H152.857C152.693 250.084 151.559 251.15 149.809 251.15ZM155.701 246.598V251H154.238V241.102H155.674V244.793H155.77C156.125 243.986 156.809 243.48 157.971 243.48C159.502 243.48 160.514 244.424 160.514 246.283V251H159.051V246.461C159.051 245.367 158.463 244.738 157.479 244.738C156.453 244.738 155.701 245.408 155.701 246.598Z" fill="#111111"/>
<path d="M26.4941 263.59C26.3848 262.619 25.4961 262.059 24.3066 262.059C22.9941 262.059 22.1328 262.742 22.1328 263.686C22.1328 264.725 23.2949 265.107 24.0469 265.299L25.0312 265.572C26.0977 265.846 27.834 266.461 27.834 268.307C27.834 269.92 26.5352 271.178 24.2383 271.178C22.1055 271.178 20.7793 270.07 20.6699 268.43H21.9277C22.0371 269.537 23.0625 270.057 24.2383 270.057C25.6055 270.057 26.6309 269.359 26.6309 268.279C26.6309 267.322 25.7148 266.953 24.6758 266.652L23.459 266.324C21.9004 265.873 20.9434 265.08 20.9434 263.74C20.9434 262.072 22.4336 260.965 24.3477 260.965C26.2617 260.965 27.6426 262.086 27.6973 263.59H26.4941ZM32.6875 263.576V264.561H31.1289V268.867C31.1289 269.824 31.5938 269.975 32.0996 269.975C32.3184 269.975 32.6191 269.961 32.7969 269.947V271.041C32.6191 271.068 32.3184 271.096 31.9766 271.096C30.9922 271.096 29.9395 270.48 29.9395 269.168V264.561H28.8184V263.576H29.9395V261.799H31.1289V263.576H32.6875ZM34.957 273.789C34.6973 273.789 34.4512 273.775 34.3008 273.762V272.709C34.4238 272.723 34.6973 272.736 34.875 272.736C35.3535 272.736 35.75 272.695 36.1465 271.615L36.3652 271.055L33.6172 263.576H34.9023L36.9258 269.469H37.0078L39.0312 263.576H40.3164L37.1719 272.066C36.7344 273.229 36.0098 273.789 34.957 273.789ZM42.791 261.102V271H41.6152V261.102H42.791ZM47.7812 271.15C45.6348 271.15 44.3086 269.633 44.3086 267.35C44.3086 265.066 45.6484 263.48 47.6719 263.48C49.2305 263.48 50.8711 264.438 50.8711 267.186V267.678H45.4844C45.5391 269.25 46.4551 270.111 47.7812 270.111C48.6699 270.111 49.2305 269.729 49.5039 269.264H50.7617C50.4062 270.385 49.3125 271.15 47.7812 271.15ZM45.498 266.68H49.6816C49.6816 265.436 48.8887 264.52 47.6719 264.52C46.3867 264.52 45.5664 265.531 45.498 266.68ZM59.1562 263.576V264.561H57.5977V268.867C57.5977 269.824 58.0625 269.975 58.5684 269.975C58.7871 269.975 59.0879 269.961 59.2656 269.947V271.041C59.0879 271.068 58.7871 271.096 58.4453 271.096C57.4609 271.096 56.4082 270.48 56.4082 269.168V264.561H55.2871V263.576H56.4082V261.799H57.5977V263.576H59.1562ZM60.6738 271V263.576H61.8086V264.711H61.8906C62.1641 263.959 62.9297 263.453 63.8047 263.453C63.9824 263.453 64.2832 263.467 64.4199 263.48V264.67C64.3379 264.643 64.0098 264.588 63.709 264.588C62.6426 264.588 61.8496 265.326 61.8496 266.324V271H60.6738ZM65.1992 268.895C65.1992 267.186 66.7031 266.803 67.9883 266.707C68.46 266.673 69.6631 266.611 69.998 266.598V265.996C69.998 265.053 69.4375 264.506 68.3164 264.506C67.373 264.506 66.8125 264.943 66.6484 265.504H65.418C65.5684 264.314 66.7305 263.48 68.3711 263.48C69.3418 263.48 71.1602 263.768 71.1602 266.105V271H69.998V269.988H69.9434C69.6973 270.494 69.0137 271.178 67.7285 271.178C66.3203 271.178 65.1992 270.344 65.1992 268.895ZM66.375 268.949C66.375 269.729 67.0312 270.125 67.9336 270.125C69.2598 270.125 69.998 269.236 69.998 268.307V267.555L68.125 267.691C67.0586 267.76 66.375 268.143 66.375 268.949ZM74.2227 266.543V271H73.0469V263.576H74.1816V264.738H74.2773C74.6328 263.986 75.3164 263.48 76.4512 263.48C77.9551 263.48 78.9531 264.396 78.9531 266.283V271H77.7773V266.365C77.7773 265.217 77.1484 264.533 76.0957 264.533C75.0156 264.533 74.2227 265.258 74.2227 266.543ZM83.8477 273.939C82.0566 273.939 80.8398 273.16 80.7031 271.779H81.9336C82.0977 272.531 82.7949 272.914 83.8477 272.914C85.1191 272.914 85.8984 272.367 85.8984 271.137V269.633H85.8027C85.5566 270.043 85.0781 270.891 83.6426 270.891C81.8379 270.891 80.4844 269.523 80.4844 267.186C80.4844 264.902 81.7969 263.48 83.6562 263.48C85.0918 263.48 85.5566 264.355 85.8301 264.752H85.9258V263.576H87.0742V271.205C87.0742 273.119 85.6523 273.939 83.8477 273.939ZM83.8066 269.838C85.1602 269.838 85.9258 268.867 85.9258 267.227C85.9258 265.641 85.1875 264.533 83.8066 264.533C82.3848 264.533 81.6738 265.736 81.6738 267.227C81.6738 268.771 82.3984 269.838 83.8066 269.838ZM95.2637 271.15C93.418 271.15 92.1055 269.66 92.1055 267.309C92.1055 264.957 93.418 263.48 95.2773 263.48C96.7129 263.48 97.1777 264.355 97.4238 264.752H97.5059V262.934H95.4824V262.031H97.5059V261.102H98.6953V262.031H99.7617V262.934H98.6953V271H97.5469V269.865H97.4238C97.1641 270.275 96.6855 271.15 95.2637 271.15ZM95.4277 270.098C96.7812 270.098 97.5469 268.949 97.5469 267.281C97.5469 265.641 96.8086 264.533 95.4277 264.533C94.0059 264.533 93.2949 265.736 93.2949 267.281C93.2949 268.867 94.0195 270.098 95.4277 270.098ZM101.197 271V263.576H102.373V271H101.197ZM101.785 262.346C101.334 262.346 100.965 262.004 100.965 261.566C100.965 261.129 101.334 260.787 101.785 260.787C102.236 260.787 102.619 261.129 102.619 261.566C102.619 262.004 102.236 262.346 101.785 262.346ZM107.363 271.15C105.217 271.15 103.891 269.633 103.891 267.35C103.891 265.066 105.23 263.48 107.254 263.48C108.812 263.48 110.453 264.438 110.453 267.186V267.678H105.066C105.121 269.25 106.037 270.111 107.363 270.111C108.252 270.111 108.812 269.729 109.086 269.264H110.344C109.988 270.385 108.895 271.15 107.363 271.15ZM107.828 261.02L109.674 262.77H108.471L107.158 261.566L105.873 262.77H104.67L106.502 261.02H107.828ZM109.879 261.854H109.059L109.045 260.965C109.592 260.924 109.838 260.855 109.838 260.555C109.838 260.254 109.455 260.131 108.936 260.131L108.977 259.502C110.139 259.502 110.754 259.926 110.754 260.582C110.754 261.156 110.33 261.389 109.879 261.443V261.854ZM105.08 266.68H109.264C109.264 265.436 108.471 264.52 107.254 264.52C105.969 264.52 105.148 265.531 105.08 266.68ZM111.984 271V263.576H113.119V264.738H113.215C113.529 263.945 114.24 263.48 115.211 263.48C116.182 263.48 116.838 263.945 117.193 264.738H117.275C117.658 263.973 118.438 263.48 119.504 263.48C120.83 263.48 121.773 264.287 121.773 266.037V271H120.598V266.051C120.598 264.957 119.9 264.533 119.094 264.533C118.055 264.533 117.467 265.23 117.467 266.174V271H116.277V265.928C116.277 265.094 115.676 264.533 114.828 264.533C113.939 264.533 113.16 265.285 113.16 266.365V271H111.984ZM128.35 266.543V271H127.174V263.576H128.309V264.738H128.404C128.76 263.986 129.443 263.48 130.578 263.48C132.082 263.48 133.08 264.396 133.08 266.283V271H131.904V266.365C131.904 265.217 131.275 264.533 130.223 264.533C129.143 264.533 128.35 265.258 128.35 266.543ZM136.143 266.543V271H134.967V261.102H136.143V264.738H136.238C136.58 263.973 137.25 263.48 138.426 263.48C139.943 263.48 140.955 264.383 140.955 266.283V271H139.779V266.365C139.779 265.203 139.137 264.533 138.07 264.533C136.963 264.533 136.143 265.258 136.143 266.543ZM145.959 271.15C143.812 271.15 142.486 269.633 142.486 267.35C142.486 265.066 143.826 263.48 145.85 263.48C147.408 263.48 149.049 264.438 149.049 267.186V267.678H143.662C143.717 269.25 144.633 270.111 145.959 270.111C146.848 270.111 147.408 269.729 147.682 269.264H148.939C148.584 270.385 147.49 271.15 145.959 271.15ZM145.836 273.461C145.385 273.461 145.016 273.119 145.016 272.682C145.016 272.244 145.385 271.902 145.836 271.902C146.287 271.902 146.67 272.244 146.67 272.682C146.67 273.119 146.287 273.461 145.836 273.461ZM143.676 266.68H147.859C147.859 265.436 147.066 264.52 145.85 264.52C144.564 264.52 143.744 265.531 143.676 266.68ZM155.27 266.543V271H154.094V263.576H155.229V264.738H155.324C155.68 263.986 156.363 263.48 157.498 263.48C159.002 263.48 160 264.396 160 266.283V271H158.824V266.365C158.824 265.217 158.195 264.533 157.143 264.533C156.062 264.533 155.27 265.258 155.27 266.543ZM163.062 266.543V271H161.887V261.102H163.062V264.738H163.158C163.5 263.973 164.17 263.48 165.346 263.48C166.863 263.48 167.875 264.383 167.875 266.283V271H166.699V266.365C166.699 265.203 166.057 264.533 164.99 264.533C163.883 264.533 163.062 265.258 163.062 266.543ZM172.209 262.564L170.705 260.322H172.072L173.234 262.564H172.209ZM169.406 268.895C169.406 267.186 170.91 266.803 172.195 266.707C172.667 266.673 173.87 266.611 174.205 266.598V265.996C174.205 265.053 173.645 264.506 172.523 264.506C171.58 264.506 171.02 264.943 170.855 265.504H169.625C169.775 264.314 170.938 263.48 172.578 263.48C173.549 263.48 175.367 263.768 175.367 266.105V271H174.205V269.988H174.15C173.904 270.494 173.221 271.178 171.936 271.178C170.527 271.178 169.406 270.344 169.406 268.895ZM170.582 268.949C170.582 269.729 171.238 270.125 172.141 270.125C173.467 270.125 174.205 269.236 174.205 268.307V267.555L172.332 267.691C171.266 267.76 170.582 268.143 170.582 268.949ZM178.43 266.543V271H177.254V263.576H178.389V264.738H178.484C178.84 263.986 179.523 263.48 180.658 263.48C182.162 263.48 183.16 264.396 183.16 266.283V271H181.984V266.365C181.984 265.217 181.355 264.533 180.303 264.533C179.223 264.533 178.43 265.258 178.43 266.543ZM188.055 273.939C186.264 273.939 185.047 273.16 184.91 271.779H186.141C186.305 272.531 187.002 272.914 188.055 272.914C189.326 272.914 190.105 272.367 190.105 271.137V269.633H190.01C189.764 270.043 189.285 270.891 187.85 270.891C186.045 270.891 184.691 269.523 184.691 267.186C184.691 264.902 186.004 263.48 187.863 263.48C189.299 263.48 189.764 264.355 190.037 264.752H190.133V263.576H191.281V271.205C191.281 273.119 189.859 273.939 188.055 273.939ZM188.014 269.838C189.367 269.838 190.133 268.867 190.133 267.227C190.133 265.641 189.395 264.533 188.014 264.533C186.592 264.533 185.881 265.736 185.881 267.227C185.881 268.771 186.605 269.838 188.014 269.838ZM202.779 263.576L200.031 271H198.814L196.08 263.576H197.365L199.389 269.469H199.471L201.494 263.576H202.779ZM206.293 262.564L204.789 260.322H206.156L207.318 262.564H206.293ZM203.49 268.895C203.49 267.186 204.994 266.803 206.279 266.707C206.751 266.673 207.954 266.611 208.289 266.598V265.996C208.289 265.053 207.729 264.506 206.607 264.506C205.664 264.506 205.104 264.943 204.939 265.504H203.709C203.859 264.314 205.021 263.48 206.662 263.48C207.633 263.48 209.451 263.768 209.451 266.105V271H208.289V269.988H208.234C207.988 270.494 207.305 271.178 206.02 271.178C204.611 271.178 203.49 270.344 203.49 268.895ZM204.666 268.949C204.666 269.729 205.322 270.125 206.225 270.125C207.551 270.125 208.289 269.236 208.289 268.307V267.555L206.416 267.691C205.35 267.76 204.666 268.143 204.666 268.949ZM20.9434 291V283.576H22.0781V284.738H22.1738C22.4883 283.945 23.1992 283.48 24.1699 283.48C25.1406 283.48 25.7969 283.945 26.1523 284.738H26.2344C26.6172 283.973 27.3965 283.48 28.4629 283.48C29.7891 283.48 30.7324 284.287 30.7324 286.037V291H29.5566V286.051C29.5566 284.957 28.8594 284.533 28.0527 284.533C27.0137 284.533 26.4258 285.23 26.4258 286.174V291H25.2363V285.928C25.2363 285.094 24.6348 284.533 23.7871 284.533C22.8984 284.533 22.1191 285.285 22.1191 286.365V291H20.9434ZM35.0664 282.564L33.5625 280.322H34.9297L36.0918 282.564H35.0664ZM32.2637 288.895C32.2637 287.186 33.7676 286.803 35.0527 286.707C35.5244 286.673 36.7275 286.611 37.0625 286.598V285.996C37.0625 285.053 36.502 284.506 35.3809 284.506C34.4375 284.506 33.877 284.943 33.7129 285.504H32.4824C32.6328 284.314 33.7949 283.48 35.4355 283.48C36.4062 283.48 38.2246 283.768 38.2246 286.105V291H37.0625V289.988H37.0078C36.7617 290.494 36.0781 291.178 34.793 291.178C33.3848 291.178 32.2637 290.344 32.2637 288.895ZM33.4395 288.949C33.4395 289.729 34.0957 290.125 34.998 290.125C36.3242 290.125 37.0625 289.236 37.0625 288.307V287.555L35.1895 287.691C34.123 287.76 33.4395 288.143 33.4395 288.949ZM44.8008 287.951V283.576H45.9629V291H44.8008V289.742H44.7188C44.3633 290.494 43.6387 291.096 42.5176 291.096C41.1094 291.096 40.1113 290.18 40.1113 288.293V283.576H41.2871V288.211C41.2871 289.277 41.957 289.961 42.9004 289.961C43.7344 289.961 44.8008 289.332 44.8008 287.951ZM52.5391 286.543V291H51.3633V283.576H52.498V284.738H52.5938C52.9492 283.986 53.6328 283.48 54.7676 283.48C56.2715 283.48 57.2695 284.396 57.2695 286.283V291H56.0938V286.365C56.0938 285.217 55.4648 284.533 54.4121 284.533C53.332 284.533 52.5391 285.258 52.5391 286.543ZM60.332 286.543V291H59.1562V281.102H60.332V284.738H60.4277C60.7695 283.973 61.4395 283.48 62.6152 283.48C64.1328 283.48 65.1445 284.383 65.1445 286.283V291H63.9688V286.365C63.9688 285.203 63.3262 284.533 62.2598 284.533C61.1523 284.533 60.332 285.258 60.332 286.543ZM69.957 293.461C69.5059 293.461 69.1367 293.119 69.1367 292.682C69.1367 292.244 69.5059 291.902 69.957 291.902C70.4082 291.902 70.791 292.244 70.791 292.682C70.791 293.119 70.4082 293.461 69.957 293.461ZM66.6758 288.895C66.6758 287.186 68.1797 286.803 69.4648 286.707C69.9365 286.673 71.1396 286.611 71.4746 286.598V285.996C71.4746 285.053 70.9141 284.506 69.793 284.506C68.8496 284.506 68.2891 284.943 68.125 285.504H66.8945C67.0449 284.314 68.207 283.48 69.8477 283.48C70.8184 283.48 72.6367 283.768 72.6367 286.105V291H71.4746V289.988H71.4199C71.1738 290.494 70.4902 291.178 69.2051 291.178C67.7969 291.178 66.6758 290.344 66.6758 288.895ZM67.8516 288.949C67.8516 289.729 68.5078 290.125 69.4102 290.125C70.7363 290.125 71.4746 289.236 71.4746 288.307V287.555L69.6016 287.691C68.5352 287.76 67.8516 288.143 67.8516 288.949ZM77.7637 283.576V284.561H76.2051V288.867C76.2051 289.824 76.6699 289.975 77.1758 289.975C77.3945 289.975 77.6953 289.961 77.873 289.947V291.041C77.6953 291.068 77.3945 291.096 77.0527 291.096C76.0684 291.096 75.0156 290.48 75.0156 289.168V284.561H73.8945V283.576H75.0156V281.799H76.2051V283.576H77.7637ZM82.7949 291V283.576H83.9297V284.711H84.0117C84.2852 283.959 85.0508 283.453 85.9258 283.453C86.1035 283.453 86.4043 283.467 86.541 283.48V284.67C86.459 284.643 86.1309 284.588 85.8301 284.588C84.7637 284.588 83.9707 285.326 83.9707 286.324V291H82.7949ZM88.127 282.646L90.0957 280.896H91.1621L93.1309 282.646H91.7363L90.6289 281.635L89.5352 282.646H88.127ZM92.6113 281.484L93.5684 279.748H94.9902L93.623 281.484H92.6113ZM87.3203 288.895C87.3203 287.186 88.8242 286.803 90.1094 286.707C90.5811 286.673 91.7842 286.611 92.1191 286.598V285.996C92.1191 285.053 91.5586 284.506 90.4375 284.506C89.4941 284.506 88.9336 284.943 88.7695 285.504H87.5391C87.6895 284.314 88.8516 283.48 90.4922 283.48C91.4629 283.48 93.2812 283.768 93.2812 286.105V291H92.1191V289.988H92.0645C91.8184 290.494 91.1348 291.178 89.8496 291.178C88.4414 291.178 87.3203 290.344 87.3203 288.895ZM88.4961 288.949C88.4961 289.729 89.1523 290.125 90.0547 290.125C91.3809 290.125 92.1191 289.236 92.1191 288.307V287.555L90.2461 287.691C89.1797 287.76 88.4961 288.143 88.4961 288.949ZM98.4082 283.576V284.561H96.8496V288.867C96.8496 289.824 97.3145 289.975 97.8203 289.975C98.0391 289.975 98.3398 289.961 98.5176 289.947V291.041C98.3398 291.068 98.0391 291.096 97.6973 291.096C96.7129 291.096 95.6602 290.48 95.6602 289.168V284.561H94.5391V283.576H95.6602V281.799H96.8496V283.576H98.4082ZM104.615 286.543V291H103.439V281.102H104.615V284.738H104.711C105.053 283.973 105.723 283.48 106.898 283.48C108.416 283.48 109.428 284.383 109.428 286.283V291H108.252V286.365C108.252 285.203 107.609 284.533 106.543 284.533C105.436 284.533 104.615 285.258 104.615 286.543ZM118.424 283.029C118.424 284.123 118.103 284.923 117.262 285.244C117.556 285.832 117.713 286.529 117.713 287.322C117.713 289.633 116.359 291.15 114.35 291.15C112.326 291.15 110.959 289.633 110.959 287.322C110.959 285.012 112.326 283.48 114.35 283.48C115.348 283.48 116.188 283.856 116.783 284.52C117.275 284.321 117.357 283.768 117.357 283.029H118.424ZM114.35 290.111C115.84 290.111 116.537 288.799 116.537 287.322C116.537 285.846 115.84 284.52 114.35 284.52C112.832 284.52 112.135 285.846 112.135 287.322C112.135 288.799 112.832 290.111 114.35 290.111ZM114.404 293.461C113.953 293.461 113.584 293.119 113.584 292.682C113.584 292.244 113.953 291.902 114.404 291.902C114.855 291.902 115.238 292.244 115.238 292.682C115.238 293.119 114.855 293.461 114.404 293.461ZM119.258 293.789V283.576H120.393V284.752H120.529C120.775 284.355 121.24 283.48 122.676 283.48C124.535 283.48 125.834 284.957 125.834 287.309C125.834 289.66 124.535 291.15 122.689 291.15C121.268 291.15 120.775 290.275 120.529 289.865H120.434V293.789H119.258ZM120.406 287.281C120.406 288.949 121.158 290.098 122.525 290.098C123.934 290.098 124.658 288.867 124.658 287.281C124.658 285.736 123.947 284.533 122.525 284.533C121.131 284.533 120.406 285.641 120.406 287.281ZM132.055 281.102V291H130.879V281.102H132.055ZM138.617 287.951V283.576H139.779V291H138.617V289.742H138.535C138.18 290.494 137.455 291.096 136.334 291.096C134.926 291.096 133.928 290.18 133.928 288.293V283.576H135.104V288.211C135.104 289.277 135.773 289.961 136.717 289.961C137.551 289.961 138.617 289.332 138.617 287.951ZM144.701 291.15C142.678 291.15 141.311 289.633 141.311 287.322C141.311 285.012 142.678 283.48 144.701 283.48C146.711 283.48 148.064 285.012 148.064 287.322C148.064 289.633 146.711 291.15 144.701 291.15ZM144.701 290.111C146.191 290.111 146.889 288.799 146.889 287.322C146.889 285.846 146.191 284.52 144.701 284.52C143.184 284.52 142.486 285.846 142.486 287.322C142.486 288.799 143.184 290.111 144.701 290.111ZM145.699 282.688L144.688 281.348L143.689 282.688H142.568V282.605L144.154 280.596H145.221L146.807 282.605V282.688H145.699ZM150.785 286.543V291H149.609V283.576H150.744V284.738H150.84C151.195 283.986 151.879 283.48 153.014 283.48C154.518 283.48 155.516 284.396 155.516 286.283V291H154.34V286.365C154.34 285.217 153.711 284.533 152.658 284.533C151.578 284.533 150.785 285.258 150.785 286.543ZM162.092 286.543V291H160.916V283.576H162.051V284.738H162.146C162.502 283.986 163.186 283.48 164.32 283.48C165.824 283.48 166.822 284.396 166.822 286.283V291H165.646V286.365C165.646 285.217 165.018 284.533 163.965 284.533C162.885 284.533 162.092 285.258 162.092 286.543ZM171.826 291.15C169.68 291.15 168.354 289.633 168.354 287.35C168.354 285.066 169.693 283.48 171.717 283.48C173.275 283.48 174.916 284.438 174.916 287.186V287.678H169.529C169.584 289.25 170.5 290.111 171.826 290.111C172.715 290.111 173.275 289.729 173.549 289.264H174.807C174.451 290.385 173.357 291.15 171.826 291.15ZM171.156 282.564L169.652 280.322H171.02L172.182 282.564H171.156ZM169.543 286.68H173.727C173.727 285.436 172.934 284.52 171.717 284.52C170.432 284.52 169.611 285.531 169.543 286.68ZM177.281 291.082C176.803 291.082 176.393 290.686 176.406 290.193C176.393 289.715 176.803 289.318 177.281 289.318C177.76 289.318 178.156 289.715 178.156 290.193C178.156 290.686 177.76 291.082 177.281 291.082Z" fill="#2C2C2C"/>
<circle cx="300" cy="228" r="12" fill="#FEFE80"/>
<circle cx="300" cy="304" r="12" fill="#8080FF"/>
<circle cx="281" cy="233.092" r="12" transform="rotate(-30 281 233.092)" fill="#F680A7"/>
<circle cx="319" cy="298.91" r="12" transform="rotate(-30 319 298.91)" fill="#8093F6"/>
<circle cx="267.091" cy="247" r="12" transform="rotate(-60 267.091 247)" fill="#F280B9"/>
<circle cx="332.909" cy="285" r="12" transform="rotate(-60 332.909 285)" fill="#80A5EE"/>
<circle cx="262" cy="266.001" r="12" transform="rotate(-90 262 266.001)" fill="#EB80D0"/>
<circle cx="338" cy="266.001" r="12" transform="rotate(-90 338 266.001)" fill="#80D0B5"/>
<circle cx="267.091" cy="285" r="12" transform="rotate(-120 267.091 285)" fill="#E580E5"/>
<circle cx="332.909" cy="247.001" r="12" transform="rotate(-120 332.909 247.001)" fill="#80D39B"/>
<circle cx="281" cy="298.909" r="12" transform="rotate(-150 281 298.909)" fill="#CA80EF"/>
<circle cx="319" cy="233.091" r="12" transform="rotate(-150 319 233.091)" fill="#B6F492"/>
</svg>
