<svg width="90" height="90" viewBox="0 0 90 90" fill="none" xmlns="http://www.w3.org/2000/svg">
<path d="M14.0906 81.659H75.9094C80.5781 81.659 84.375 77.8621 84.375 73.1934V56.3184C84.375 53.2246 81.8719 50.6934 78.75 50.6934H11.25C8.15625 50.6934 5.625 53.1965 5.625 56.3184L5.625 73.1934C5.625 77.8902 9.42188 81.659 14.0906 81.659Z" fill="#FFCF80"/>
<path d="M78.75 47.9082H11.25C8.15625 47.9082 5.625 50.4113 5.625 53.5332V59.1582H84.3469V53.5332C84.3469 50.4395 81.8438 47.9082 78.75 47.9082Z" fill="#67DAFF"/>
<path d="M68.203 19.6152L20.0249 67.7934C19.4624 68.3559 19.4624 69.2559 20.0249 69.8184C20.5874 70.3809 21.4874 70.3809 22.0499 69.8184L70.228 21.6402C70.7905 21.0777 70.7905 20.1777 70.228 19.6152C69.6655 19.0527 68.7655 19.0527 68.203 19.6152Z" fill="#7D4533"/>
<path d="M64.1811 70.1559C66.3186 72.2934 69.6654 72.4621 71.2686 70.3809C82.2373 56.0371 81.0842 35.3371 67.8654 22.1184C54.6467 8.89964 33.8905 7.71839 19.5467 18.6871C17.4655 20.2621 17.6342 23.609 19.7717 25.7465L21.9092 27.884L53.3529 36.5465L62.0154 67.9903L64.1811 70.1559Z" fill="#FF4644"/>
<path d="M61.9873 67.9897C76.2748 53.7022 78.8623 33.171 67.7811 22.0897C56.6998 11.0085 36.1967 13.596 21.9092 27.8835L61.9873 67.9897Z" fill="#F4F4F4"/>
<path d="M51.9469 57.9224C66.2344 43.6349 73.3219 27.5756 67.7813 22.0631C62.2406 16.5506 46.2094 23.6381 31.9219 37.9256L51.9469 57.9224Z" fill="#FF4644"/>
</svg>
