<svg width="54" height="54" viewBox="0 0 54 54" fill="none" xmlns="http://www.w3.org/2000/svg">
<path d="M1 27.459C1 13.0996 12.6406 1.45898 27 1.45898C41.3594 1.45898 53 13.0996 53 27.459C53 41.8184 41.3594 53.459 27 53.459C12.6406 53.459 1 41.8184 1 27.459Z" fill="#F4F5F8" stroke="#E5E6EA"/>
<path d="M26.9999 17.6457C30.0043 17.6457 32.031 18.9434 33.1865 20.0279L37.7021 15.619C34.9288 13.0412 31.3199 11.459 26.9999 11.459C20.7421 11.459 15.3377 15.0501 12.7065 20.2768L17.8799 24.2945C19.1777 20.4368 22.7688 17.6457 26.9999 17.6457Z" fill="#EA4335"/>
<path d="M42.36 27.8141C42.36 26.4985 42.2533 25.5385 42.0222 24.543H27V30.4807H35.8178C35.64 31.9563 34.68 34.1785 32.5467 35.6719L37.5956 39.583C40.6178 36.7919 42.36 32.6852 42.36 27.8141Z" fill="#4285F4"/>
<path d="M17.8978 30.624C17.56 29.6285 17.3644 28.5618 17.3644 27.4596C17.3644 26.3573 17.56 25.2907 17.88 24.2951L12.7067 20.2773C11.6222 22.4462 11 24.8818 11 27.4596C11 30.0373 11.6222 32.4729 12.7067 34.6418L17.8978 30.624Z" fill="#FBBC05"/>
<path d="M27.0002 43.4586C31.3202 43.4586 34.9468 42.0364 37.5957 39.583L32.5468 35.6719C31.1957 36.6142 29.3824 37.2719 27.0002 37.2719C22.7691 37.2719 19.1779 34.4808 17.8979 30.623L12.7246 34.6408C15.3557 39.8675 20.7424 43.4586 27.0002 43.4586Z" fill="#34A853"/>
</svg>
