<svg width="116" height="115" viewBox="0 0 116 115" fill="none" xmlns="http://www.w3.org/2000/svg">
<g filter="url(#filter0_d_4867_30029)">
<rect x="18" y="13" width="80" height="80" rx="40" fill="white" shape-rendering="crispEdges"/>
<path d="M71.8826 60.5007L64.3802 52.9991L71.8802 45.4983C71.954 45.4244 72.0127 45.3367 72.0526 45.2401C72.0926 45.1436 72.1132 45.0401 72.1132 44.9357C72.1132 44.8312 72.0926 44.7277 72.0526 44.6312C72.0127 44.5346 71.954 44.4469 71.8802 44.3731L66.6262 39.1179C66.4769 38.9686 66.2744 38.8848 66.0634 38.8848C65.8523 38.8848 65.6498 38.9686 65.5006 39.1179L57.9994 46.6187L50.4994 39.1179C50.201 38.8191 49.6726 38.8191 49.3738 39.1179L44.1186 44.3723C43.9695 44.5216 43.8858 44.724 43.8858 44.9351C43.8858 45.1461 43.9695 45.3485 44.1186 45.4979L51.6198 52.9991L44.1174 60.5011C43.9684 60.6505 43.8848 60.8529 43.8848 61.0639C43.8848 61.2748 43.9684 61.4772 44.1174 61.6267L49.3718 66.8815C49.4456 66.9554 49.5333 67.0141 49.6299 67.0542C49.7265 67.0943 49.83 67.1149 49.9346 67.1149C50.0391 67.1149 50.1426 67.0943 50.2392 67.0542C50.3358 67.0141 50.4235 66.9554 50.4974 66.8815L57.9994 59.3795L65.5018 66.8811C65.6574 67.0363 65.8602 67.1143 66.0646 67.1143C66.269 67.1143 66.4722 67.0363 66.6278 66.8811L71.883 61.6263C72.0321 61.4769 72.1159 61.2745 72.1158 61.0634C72.1158 60.8523 72.0319 60.6499 71.8826 60.5007Z" fill="#676975"/>
</g>
<defs>
<filter id="filter0_d_4867_30029" x="0" y="0" width="116" height="116" filterUnits="userSpaceOnUse" color-interpolation-filters="sRGB">
<feFlood flood-opacity="0" result="BackgroundImageFix"/>
<feColorMatrix in="SourceAlpha" type="matrix" values="0 0 0 0 0 0 0 0 0 0 0 0 0 0 0 0 0 0 127 0" result="hardAlpha"/>
<feOffset dy="5"/>
<feGaussianBlur stdDeviation="9"/>
<feComposite in2="hardAlpha" operator="out"/>
<feColorMatrix type="matrix" values="0 0 0 0 0 0 0 0 0 0 0 0 0 0 0 0 0 0 0.15 0"/>
<feBlend mode="normal" in2="BackgroundImageFix" result="effect1_dropShadow_4867_30029"/>
<feBlend mode="normal" in="SourceGraphic" in2="effect1_dropShadow_4867_30029" result="shape"/>
</filter>
</defs>
</svg>
