<svg width="12" height="12" viewBox="0 0 12 12" fill="none" xmlns="http://www.w3.org/2000/svg">
<g id="iconamoon:comment">
<path id="Vector" d="M6.54 10.08C7.43793 10.08 8.31569 9.81373 9.06229 9.31487C9.80889 8.81601 10.3908 8.10696 10.7344 7.27738C11.078 6.44781 11.1679 5.53496 10.9928 4.65429C10.8176 3.77362 10.3852 2.96467 9.75026 2.32974C9.11533 1.69481 8.30638 1.26241 7.42571 1.08724C6.54503 0.91206 5.63219 1.00197 4.80262 1.34559C3.97304 1.68921 3.26399 2.27111 2.76513 3.01771C2.26627 3.76431 2 4.64207 2 5.54C2 6.29061 2.1816 6.99835 2.50444 7.62184L2 10.08L4.45816 9.57556C5.08165 9.8984 5.78989 10.08 6.54 10.08Z" stroke="#4E505B" stroke-width="1.16667" stroke-linecap="round" stroke-linejoin="round"/>
</g>
</svg>
