<svg width="24" height="24" viewBox="0 0 24 24" fill="none" xmlns="http://www.w3.org/2000/svg">
<path d="M12.5 17.5C13.6867 17.5 14.8467 17.1481 15.8334 16.4888C16.8201 15.8295 17.5891 14.8925 18.0433 13.7961C18.4974 12.6997 18.6162 11.4933 18.3847 10.3295C18.1532 9.16557 17.5818 8.09648 16.7426 7.25736C15.9035 6.41825 14.8344 5.8468 13.6705 5.61529C12.5067 5.38378 11.3003 5.5026 10.2039 5.95673C9.10754 6.41085 8.17047 7.17989 7.51118 8.16658C6.85189 9.15328 6.5 10.3133 6.5 11.5C6.5 12.492 6.74 13.4273 7.16667 14.2513L6.5 17.5L9.74867 16.8333C10.5727 17.26 11.5087 17.5 12.5 17.5Z" stroke="#535358" stroke-width="1.07692" stroke-linecap="round" stroke-linejoin="round"/>
</svg>
