<svg width="208" height="163" viewBox="0 0 208 163" fill="none" xmlns="http://www.w3.org/2000/svg">
<path d="M204.822 90.3178L198.746 87.1988C198.382 87.0011 198.319 86.5 198.612 86.2244L207.443 78.366C207.815 78.0235 207.657 77.4342 207.178 77.3228L195.585 75.0188C195.188 74.932 194.962 74.4731 195.187 74.1175L198.796 68.4275C199.082 67.9691 198.649 67.3894 198.124 67.5359L183.807 71.6048C183.317 71.7318 182.888 71.2434 183.083 70.7882L194.268 45.9542C194.462 45.4989 194.07 44.9912 193.572 45.1458L182.809 48.0017C182.482 48.0863 182.126 47.8607 182.07 47.5424L179.962 35.6735C179.863 35.1919 179.28 35.0201 178.936 35.3707L170.724 44.1957C170.495 44.4599 170.074 44.4564 169.846 44.2081L162.059 35.8502C161.717 35.4778 161.083 35.6828 161.027 36.179L157.923 63.3664C157.867 63.8625 157.233 64.0677 156.891 63.6953L146.369 52.239C146.007 51.8307 145.33 52.0831 145.321 52.6233L145.275 59.4245C145.271 59.8456 144.852 60.1439 144.452 59.9657L133.465 55.609C133.009 55.4144 132.549 55.8514 132.676 56.3412L135.828 67.7343C135.952 68.1327 135.618 68.547 135.186 68.4797L128.39 67.8019C127.866 67.7378 127.531 68.3627 127.885 68.7987L142.517 86.0508C142.898 86.495 142.829 87.138 142.385 87.5196L134.781 93.5688C134.425 93.8558 134.638 94.4615 135.103 94.4178L160.853 92.7865C161.958 92.7205 163.068 93.0478 163.96 93.703L184.702 109.049C185.069 109.338 185.605 108.953 185.434 108.511L182.33 99.3028C182.156 98.769 182.455 98.1637 183.017 97.9976L204.669 91.4486C205.239 91.2549 205.297 90.5483 204.822 90.3178Z" fill="#FFD600"/>
<path d="M171.967 60.9358C173.499 61.3878 174.375 62.9961 173.923 64.5281L167.278 87.0556L184.667 83.7416C186.236 83.4426 187.75 84.4721 188.049 86.0412C188.348 87.6102 187.319 89.1246 185.749 89.4237L165.437 93.2948L160.258 110.854C159.806 112.386 158.198 113.261 156.666 112.81C155.134 112.358 154.258 110.749 154.71 109.217L159.889 91.6583L144.93 77.3827C143.775 76.28 143.732 74.4493 144.835 73.2937C145.937 72.1382 147.768 72.0953 148.924 73.1981L161.73 85.4191L168.375 62.8916C168.827 61.3595 170.435 60.4839 171.967 60.9358Z" fill="#FF8A00"/>
<path d="M121.094 73.4866L110.747 74.2576C110.119 74.2895 109.64 73.69 109.8 73.1011L115.022 55.9169C115.233 55.1779 114.561 54.539 113.851 54.7748L96.9978 60.9737C96.415 61.1754 95.7578 60.7601 95.7684 60.1204L95.9373 49.8854C95.9448 49.0646 94.9254 48.6555 94.36 49.2619L79.0249 65.8806C78.4906 66.4332 77.5477 66.1399 77.4393 65.3956L72.2614 24.3409C72.1529 23.5966 71.2412 23.2498 70.7183 23.8448L59.0291 36.0749C58.6729 36.4432 58.0332 36.4326 57.7073 36.065L45.571 22.3493C45.0609 21.8036 44.1696 22.0424 44.0007 22.7701L40.3483 40.7164C40.2611 41.2401 39.7125 41.5692 39.2198 41.4283L22.5034 36.7639C21.7644 36.5525 21.1058 37.3202 21.4265 38.0076L38.9438 75.7105C39.2644 76.3979 38.6059 77.1658 37.8669 76.9544L15.1506 70.4404C14.3578 70.198 13.6795 71.062 14.0964 71.7691L19.4254 80.6219C19.7544 81.1706 19.4467 81.89 18.7874 81.9757L1.09241 85.0339C0.34814 85.1424 0.0973779 86.0739 0.649949 86.6082L13.7638 98.8792C14.2398 99.2976 14.136 100.099 13.5221 100.354L4.17581 104.86C3.44596 105.192 3.50669 106.268 4.31087 106.553L36.9472 117.323C37.7938 117.597 38.2138 118.485 37.9403 119.331L32.8763 133.198C32.6421 133.852 33.3986 134.468 33.967 134.043L66.054 111.525C67.4341 110.564 69.1318 110.109 70.8075 110.252L109.854 113.709C110.559 113.793 110.949 112.87 110.377 112.432L99.0577 102.955C98.4089 102.401 98.3171 101.379 98.9135 100.719L121.792 75.0735C122.377 74.3708 121.892 73.4093 121.094 73.4866Z" fill="#FF8A00"/>
<path d="M55.2242 61.4313C57.5682 60.8032 59.9776 62.1943 60.6057 64.5383L69.8413 99.0059L89.7562 80.9321C91.5532 79.3012 94.332 79.4359 95.9629 81.2329C97.5938 83.0299 97.4591 85.8088 95.6621 87.4396L72.3991 108.552L79.5977 135.418C80.2258 137.762 78.8348 140.171 76.4907 140.799C74.1467 141.427 71.7373 140.036 71.1092 137.692L63.9106 110.827L33.2078 104.174C30.8361 103.66 29.3301 101.321 29.8439 98.9494C30.3578 96.5777 32.697 95.0717 35.0687 95.5855L61.3528 101.281L52.1172 66.8128C51.4891 64.4688 52.8801 62.0594 55.2242 61.4313Z" fill="#CA0B4A"/>
</svg>
