<svg width="24" height="18" viewBox="0 0 24 18" fill="none" xmlns="http://www.w3.org/2000/svg">
<rect x="0.214286" y="0.214286" width="23.5714" height="16.7143" rx="1.5" fill="white" stroke="#F5F5F5" stroke-width="0.428571"/>
<mask id="mask0_4286_36223" style="mask-type:luminance" maskUnits="userSpaceOnUse" x="0" y="0" width="24" height="18">
<rect x="0.214286" y="0.214286" width="23.5714" height="16.7143" rx="1.5" fill="white" stroke="white" stroke-width="0.428571"/>
</mask>
<g mask="url(#mask0_4286_36223)">
<path fill-rule="evenodd" clip-rule="evenodd" d="M0 9.14286H24V0H0V9.14286Z" fill="#E12237"/>
<path fill-rule="evenodd" clip-rule="evenodd" d="M5.71428 8C6.52437 8 7.26885 7.71904 7.85558 7.24926C7.54477 7.36519 7.20835 7.42857 6.85713 7.42857C5.27918 7.42857 3.99999 6.14938 3.99999 4.57142C3.99999 2.99347 5.27918 1.71428 6.85713 1.71428C7.20835 1.71428 7.54477 1.77766 7.85558 1.89359C7.26885 1.42381 6.52437 1.14285 5.71428 1.14285C3.82073 1.14285 2.28571 2.67788 2.28571 4.57142C2.28571 6.46497 3.82073 8 5.71428 8ZM6.85713 4C6.85713 4.31559 6.6013 4.57142 6.28571 4.57142C5.97011 4.57142 5.71428 4.31559 5.71428 4C5.71428 3.6844 5.97011 3.42857 6.28571 3.42857C6.6013 3.42857 6.85713 3.6844 6.85713 4ZM7.42856 6.85714C7.74415 6.85714 7.99999 6.6013 7.99999 6.28571C7.99999 5.97012 7.74415 5.71428 7.42856 5.71428C7.11297 5.71428 6.85713 5.97012 6.85713 6.28571C6.85713 6.6013 7.11297 6.85714 7.42856 6.85714ZM10.2857 6.28571C10.2857 6.6013 10.0299 6.85714 9.71428 6.85714C9.39869 6.85714 9.14285 6.6013 9.14285 6.28571C9.14285 5.97012 9.39869 5.71428 9.71428 5.71428C10.0299 5.71428 10.2857 5.97012 10.2857 6.28571ZM10.8571 4.57142C11.1727 4.57142 11.4286 4.31559 11.4286 4C11.4286 3.6844 11.1727 3.42857 10.8571 3.42857C10.5415 3.42857 10.2857 3.6844 10.2857 4C10.2857 4.31559 10.5415 4.57142 10.8571 4.57142ZM9.14285 2.28571C9.14285 2.6013 8.88701 2.85714 8.57142 2.85714C8.25583 2.85714 7.99999 2.6013 7.99999 2.28571C7.99999 1.97012 8.25583 1.71428 8.57142 1.71428C8.88701 1.71428 9.14285 1.97012 9.14285 2.28571Z" fill="white"/>
</g>
</svg>
