<svg width="208" height="163" viewBox="0 0 208 163" fill="none" xmlns="http://www.w3.org/2000/svg">
<path d="M16.4325 135.5H115.5C115.5 125.9 115.5 129.614 115.5 122.377V96.2193C115.5 91.4237 111.972 87.5 107.571 87.5H12.4286C8.06786 87.5 4.5 91.3801 4.5 96.2193L4.5 122.377C4.5 129.658 9.85179 135.5 16.4325 135.5Z" fill="#FFCF80"/>
<path d="M110.395 84.5H12.6458C8.16559 84.5 4.5 87.3925 4.5 91V97.5H118.5V91C118.5 87.425 114.875 84.5 110.395 84.5Z" fill="#67DAFF"/>
<path d="M85.2811 53.2949L31.7499 106.826C31.1249 107.451 31.1249 108.451 31.7499 109.076C32.3749 109.701 33.3749 109.701 33.9999 109.076L87.5311 55.5449C88.1561 54.9199 88.1561 53.9199 87.5311 53.2949C86.9061 52.6699 85.9061 52.6699 85.2811 53.2949Z" fill="#7D4533"/>
<path d="M80.8124 109.451C83.1874 111.826 86.9062 112.013 88.6874 109.701C100.875 93.7635 99.5937 70.7635 84.9062 56.076C70.2187 41.3885 47.1562 40.076 31.2187 52.2635C28.9062 54.0135 29.0937 57.7322 31.4687 60.1072L33.8437 62.4822L68.7812 72.1072L78.4062 107.045L80.8124 109.451Z" fill="#FF4644"/>
<path d="M78.3749 107.045C94.2499 91.17 97.1249 68.3575 84.8124 56.045C72.4999 43.7325 49.7186 46.6075 33.8436 62.4825L78.3749 107.045Z" fill="#F4F4F4"/>
<path d="M67.2186 95.8568C83.0936 79.9818 90.9686 62.138 84.8124 56.013C78.6561 49.888 60.8436 57.763 44.9686 73.638L67.2186 95.8568Z" fill="#FF4644"/>
<path d="M115.25 135.5H194.5C200.023 135.5 204.5 131.025 204.5 125.502C204.5 124.749 204.5 123.764 204.5 122.377V96.2193C204.5 91.4237 201.321 87.5 197.357 87.5H111.643C107.714 87.5 104.5 91.3801 104.5 96.2193V122.377C104.5 129.658 109.321 135.5 115.25 135.5Z" fill="#FFCF80"/>
<path d="M197.39 84.5H111.645C107.715 84.5 104.5 87.3925 104.5 91V97.5H204.5V91C204.5 87.425 201.32 84.5 197.39 84.5Z" fill="#67DAFF"/>
<path d="M174.281 53.2949L120.75 106.826C120.125 107.451 120.125 108.451 120.75 109.076C121.375 109.701 122.375 109.701 123 109.076L176.531 55.5449C177.156 54.9199 177.156 53.9199 176.531 53.2949C175.906 52.6699 174.906 52.6699 174.281 53.2949Z" fill="#7D4533"/>
<path d="M169.812 109.451C172.187 111.826 175.906 112.013 177.687 109.701C189.875 93.7635 188.594 70.7635 173.906 56.076C159.219 41.3885 136.156 40.076 120.219 52.2635C117.906 54.0135 118.094 57.7322 120.469 60.1072L122.844 62.4822L157.781 72.1072L167.406 107.045L169.812 109.451Z" fill="#FF4644"/>
<path d="M167.375 107.045C183.25 91.17 186.125 68.3575 173.812 56.045C161.5 43.7325 138.719 46.6075 122.844 62.4825L167.375 107.045Z" fill="#F4F4F4"/>
<path d="M156.219 95.8568C172.094 79.9818 179.969 62.138 173.812 56.013C167.656 49.888 149.844 57.763 133.969 73.638L156.219 95.8568Z" fill="#FF4644"/>
</svg>
