<svg width="40" height="40" viewBox="0 0 40 40" fill="none" xmlns="http://www.w3.org/2000/svg">
<path d="M27.4911 7.31761C19.1078 3.04308 9.17124 4.69299 4.64266 12.1713C0.11408 19.6496 2.99798 29.6 11.0872 34.3972C15.0618 36.7534 21.4778 39.1604 24.0847 35.951C26.6403 32.8066 22.8706 30.8144 23.75 29.0741C25.1663 26.2743 31.5001 29.9475 35.6432 25.4215C40.3117 20.3192 35.6546 11.482 27.4911 7.31761ZM30 23.75C27.8185 23.75 26.25 22.1585 26.25 20C26.25 17.8415 27.8185 16.25 30 16.25C32.1815 16.25 33.75 17.8415 33.75 20C33.75 22.1585 32.1815 23.75 30 23.75Z" fill="#EDBF95"/>
<path d="M17.8125 13.75C19.3658 13.75 20.625 12.4908 20.625 10.9375C20.625 9.3842 19.3658 8.125 17.8125 8.125C16.2592 8.125 15 9.3842 15 10.9375C15 12.4908 16.2592 13.75 17.8125 13.75Z" fill="#8D65C5"/>
<path d="M10.3125 18.75C11.8658 18.75 13.125 17.4908 13.125 15.9375C13.125 14.3842 11.8658 13.125 10.3125 13.125C8.7592 13.125 7.5 14.3842 7.5 15.9375C7.5 17.4908 8.7592 18.75 10.3125 18.75Z" fill="#F70A8D"/>
<path d="M10.3125 27.5C11.8658 27.5 13.125 26.2408 13.125 24.6875C13.125 23.1342 11.8658 21.875 10.3125 21.875C8.7592 21.875 7.5 23.1342 7.5 24.6875C7.5 26.2408 8.7592 27.5 10.3125 27.5Z" fill="#00D26A"/>
<path d="M17.1875 33.125C18.7408 33.125 20 31.8658 20 30.3125C20 28.7592 18.7408 27.5 17.1875 27.5C15.6342 27.5 14.375 28.7592 14.375 30.3125C14.375 31.8658 15.6342 33.125 17.1875 33.125Z" fill="#3F5FFF"/>
</svg>
