<svg width="16" height="16" viewBox="0 0 16 16" fill="none" xmlns="http://www.w3.org/2000/svg">
<path d="M7.75267 11.4263L7.75195 11.4256C6.4119 10.2105 5.34024 9.23741 4.59757 8.32943C3.86065 7.42847 3.5 6.65269 3.5 5.84075C3.5 4.52607 4.52607 3.5 5.84075 3.5C6.58807 3.5 7.31314 3.85033 7.78432 4.40365L8.165 4.85069L8.54568 4.40365C9.01686 3.85033 9.74193 3.5 10.4893 3.5C11.8039 3.5 12.83 4.52607 12.83 5.84075C12.83 6.6527 12.4694 7.4285 11.7323 8.33021C10.9896 9.23887 9.91801 10.2131 8.57802 11.4308C8.5779 11.4309 8.57778 11.431 8.57766 11.4311L8.16628 11.8028L7.75267 11.4263Z" stroke="#EF369B"/>
</svg>
